<svg width="120" height="60" viewBox="0 0 120 60" fill="none" xmlns="http://www.w3.org/2000/svg">
<g clip-path="url(#clip0_8044_6795)">
<path d="M17.0078 49.8387L17.3032 49.9728C17.2891 49.8908 17.2118 49.8387 17.0078 49.8387Z" fill="#FF5C4D"/>
<path d="M84.6328 47.5673C84.6328 47.5673 84.675 47.5445 84.6961 47.5292C84.6539 47.5445 84.6328 47.5521 84.6328 47.5673Z" fill="#FF5C4D"/>
<path d="M27.843 54.6363H27.8289C27.8289 54.6363 27.7797 54.6668 27.7656 54.6896L27.843 54.6363Z" fill="#FF5C4D"/>
<path d="M14.7799 55.7165C16.3975 55.4558 17.4735 55.5451 18.5636 55.5824C19.6607 55.6271 20.7507 55.6122 22.5371 55.2919C24.2882 55.2099 26.1308 54.8747 27.8327 54.6363C28.5993 53.9509 30.0692 54.4649 30.9975 53.869L31.3913 54.1967C31.7078 53.9956 32.0876 53.8392 32.4322 54.0105L32.4181 54.1148C32.8963 53.8094 33.4589 53.936 33.6981 53.787L33.684 53.8913L34.2818 53.8094L34.1904 53.9658C35.0343 53.6231 35.9204 53.5561 36.7081 53.638L36.6237 53.2134C38.3186 53.5859 38.8882 52.6696 40.4284 53.1612L40.4143 53.2655C42.278 52.0289 43.4666 53.8839 45.3865 52.7217C45.1474 52.8632 45.499 52.9377 45.485 53.042C46.3852 52.8781 47.3557 52.7738 47.3416 51.9246C48.0027 51.9097 47.8902 52.1704 47.9886 52.4908C47.9746 52.1183 48.5442 51.9395 49.0576 51.9022L48.8255 52.0512L50.3024 51.8799L49.993 51.1871C50.7877 51.3659 50.218 52.0363 50.9635 51.8426L50.9353 51.2616C52.0254 51.3435 52.6865 52.2077 53.7485 52.6025C58.1158 52.759 62.7996 51.1945 66.8716 52.2375L67.0474 52.677C67.1248 53.3177 68.1726 51.7309 68.3203 52.3194L68.7915 52.0289C68.9251 52.1406 69.2065 52.2673 68.9673 52.4088C69.4034 52.4312 69.4174 52.3269 69.7339 52.1406L70.1981 52.5429C71.9211 52.8707 73.391 52.1108 75.2054 52.3045C77.3715 53.1538 81.4786 52.5057 83.8627 52.163C87.2244 51.3212 90.9869 54.0403 94.4259 53.1389C94.5314 53.2357 94.8268 53.0495 94.8268 52.975L97.9283 53.2581C97.9283 53.2581 98.8706 53.3326 100.108 53.3475C101.346 53.3698 102.879 53.3475 104.068 53.1389C106.438 52.7143 107.465 51.5223 101.867 48.4605L101.951 48.3264C100.256 47.857 99.173 47.7304 97.9564 48.3562C97.8157 47.4846 96.5498 48.1774 96.163 47.8794L96.2052 47.8123C95.1222 48.4083 94.0743 47.1493 93.0335 47.6857C93.0757 47.6187 93.1108 47.3877 93.3429 47.3803C92.6045 47.4473 91.5847 47.5888 91.5495 47.0897C89.7843 47.127 87.3369 46.8066 86.1765 47.5516L86.2609 47.4175C85.5998 47.9315 85.424 47.4548 84.6996 47.708C84.6645 47.641 84.6152 47.6037 84.6223 47.5814C83.9049 48.088 82.5757 47.6037 82.0061 47.8123L81.978 47.4771L80.5855 47.5069L81.1059 47.5963C80.9019 48.5052 80.065 46.9854 79.0383 47.5591C78.0959 47.425 77.0832 49.414 76.1126 48.9447C75.6414 49.3619 76.5346 48.2593 75.8313 48.5722C75.8173 48.0954 76.1619 48.2817 75.986 47.8943C75.2968 48.1103 74.8678 47.3803 74.0169 47.6931L73.9887 47.3207C72.8776 47.9837 71.907 46.8066 71.1616 47.4473C70.0223 47.7378 70.402 46.3373 69.2135 47.0525L68.7564 46.5533C68.25 46.4714 68.3907 47.1642 67.828 46.9258C67.8632 46.6129 67.1177 46.6725 67.4483 46.3745C66.1683 45.8829 64.8532 47.0674 63.1724 46.2479C62.8137 46.8662 61.9627 46.5086 61.6955 46.9705C61.6462 46.7023 60.0006 46.9407 60.943 46.3522C61.0274 46.3075 61.168 46.3075 61.161 46.4192L61.2735 46.0542C60.303 45.3763 59.5294 46.449 58.58 46.3522C58.8613 46.4639 59.234 46.4341 58.9879 46.6874L58.1088 46.6576L58.2846 46.3447L56.9695 46.1958L57.1593 46.5682C56.5123 46.3894 56.2732 45.7488 55.5559 46.3001C55.2324 46.6055 56.1748 46.7992 55.4996 46.9333C54.6346 46.6949 53.3406 46.3224 52.2364 46.2479C52.3489 46.6725 52.0536 46.6651 51.7512 46.7619L51.709 46.3894C50.5556 46.9407 51.2589 45.5849 50.1125 46.0319L50.2039 45.7711L49.9226 46.5533C48.9029 47.3207 49.3389 45.8009 48.2066 46.8439C48.6638 46.7694 48.4458 47.6484 47.8831 47.5144L48.0168 47.1493C47.7073 47.2387 47.6089 47.3952 47.3979 47.3281C47.5737 47.127 47.4752 46.8066 47.0251 46.8811L47.3205 46.4192L46.4766 47.1121C45.7944 46.7545 44.7536 47.2834 44.4582 46.7843C44.4582 46.7843 43.0094 46.5906 42.7 47.1642C42.9743 46.8066 42.1725 46.7172 42.3835 46.3001C42.0248 46.7098 40.9418 47.0823 40.4776 46.6874L40.562 46.6353C38.9093 46.3 37.7982 47.3505 36.3142 46.9333C36.4057 47.3579 35.618 47.1717 35.836 47.708C34.3591 48.3413 33.0159 46.7619 32.5658 48.4903C31.8836 48.6318 31.7289 48.1476 31.3702 48.088L31.532 47.9837C30.252 48.2146 29.8793 48.2593 28.9228 48.2891C28.4587 48.4903 28.4376 49.2799 27.5655 49.1533C27.8187 48.8181 27.4741 48.9 27.1576 48.9298C27.3615 48.8628 27.4108 48.7436 26.9818 48.5648C26.9325 48.6691 26.8411 48.7361 26.7638 48.7883C26.7638 48.7659 26.7427 48.7436 26.7497 48.7138C26.2222 48.8702 26.3207 48.9596 26.5739 48.9819C26.5668 49.0341 26.5879 49.0937 26.6723 49.1682C26.0886 48.8106 25.1322 49.3246 25.0267 48.7883C23.4302 49.049 22.3331 49.6897 21.0039 50.0249C20.8281 49.7642 21.1235 49.4885 21.5033 49.347L20.5538 49.5407C20.5257 49.1384 21.0883 49.2576 21.3696 49.1533C20.167 48.6169 19.077 50.0249 17.6563 49.6301L17.4172 49.9802L17.3328 49.943C17.361 50.1069 17.0867 50.375 16.8968 50.4644C16.6577 50.1516 16.7983 49.6673 16.1232 49.8014C15.5395 49.5556 14.6252 50.2484 13.9712 50.5911C14.358 50.5613 14.2736 50.7773 14.14 50.9338C13.8094 51.0232 13.5422 50.7326 13.3171 50.9338L13.1835 50.4868C13.4085 50.8742 12.4099 51.1871 12.3396 51.4106C12.0653 51.1275 12.7826 50.9785 12.8108 50.7028C11.4675 51.1275 12.1356 50.8965 10.8064 51.3808C10.2016 51.9618 11.0666 51.7532 10.8486 52.2598C10.2649 52.5876 9.78667 53.0942 9.00604 53.1612L9.37877 53.4443C8.88648 53.8317 8.49265 54.1148 8.10584 54.301C7.71201 54.4724 7.33224 54.5767 6.88214 54.6214C5.36307 56.603 5.09582 58.0408 5.10989 58.823C5.13802 59.6276 5.48262 59.9554 5.95382 59.9554C6.39688 60.0224 6.88214 59.8585 7.27598 59.717C7.68388 59.5829 7.97222 59.4264 7.97222 59.4264C9.25922 58.9646 10.075 58.4505 11.0174 57.7577C11.9598 57.0872 13.0428 56.2752 14.8151 55.6867L14.7799 55.7165Z" fill="#FF5C4D"/>
<path d="M3.38281 17.9687L3.85401 17.4398C3.78368 17.41 3.64302 17.5292 3.38281 17.9687Z" fill="#FF5C4D"/>
<path d="M115.07 26.1932C115.091 26.2379 115.113 26.2975 115.141 26.3348C115.105 26.2305 115.084 26.2007 115.07 26.1932Z" fill="#FF5C4D"/>
<path d="M24.1774 12.8063H24.1492C24.107 12.8063 24.0578 12.7911 24.0156 12.7987H24.1774V12.8063Z" fill="#FF5C4D"/>
<path d="M5.52159 27.1244C6.40771 23.3623 7.74394 21.2541 9.10829 19.3618C9.79047 18.4008 10.5641 17.5292 11.4572 16.5905C12.3574 15.6519 13.4405 14.7058 14.8681 13.7894C16.2817 13.0221 17.8078 12.5081 19.4043 12.3293C20.9937 12.1431 22.6182 12.3144 24.1514 12.8061C24.9742 12.7316 25.9869 13.2307 26.9856 13.8118C27.9702 14.4525 28.9407 15.1751 29.8479 15.6668L30.2136 16.4564C30.8114 16.8215 31.5006 17.3057 31.8171 17.9911L31.7186 18.0283C31.9366 18.1848 32.1476 18.3636 32.3445 18.5498C32.6118 18.8627 32.9212 19.2799 33.1814 19.6226C33.4487 19.9802 33.6948 20.3079 33.9128 20.5985C34.1309 20.8965 34.3418 21.2764 34.5036 21.4701L34.4051 21.4924L35.3967 23.1314C35.5585 23.3921 35.7273 23.705 35.889 23.787C35.7906 23.7646 35.6851 23.7944 35.5796 23.6901C35.6499 23.8168 35.7203 23.8615 35.7906 23.9062L36.0016 24.0551L36.4235 24.3606C36.6978 24.5692 36.9721 24.7778 37.2464 24.9938L37.4503 25.1577C37.5136 25.2024 37.5488 25.1949 37.605 25.2173L37.8934 25.3216C38.0833 25.3961 38.2802 25.4706 38.4701 25.5525L38.7514 25.6792C38.8287 25.709 38.9483 25.7313 39.0889 25.7462C39.3703 25.776 39.743 25.7388 40.0524 25.6494C40.3619 25.56 40.594 25.4333 40.6784 25.3514C40.8049 25.2396 40.9315 25.1428 41.0581 25.046L40.8401 24.6139C41.1074 24.368 41.2832 24.3159 41.6348 23.7795L42.0849 23.1463L42.2959 22.8334C42.3592 22.7142 42.4436 22.6844 42.4787 22.4535C42.6405 21.6936 42.7952 20.971 42.9429 20.2781L43.0484 19.7567C43.0836 19.5779 43.1187 19.414 43.1609 19.2948C43.2453 19.0266 43.3297 18.7658 43.4211 18.5051C43.5899 17.9985 43.7657 17.4473 43.9275 16.9928C44.0541 16.7321 44.1877 16.4713 44.3424 16.2106C44.4198 16.0765 44.4971 15.9424 44.5815 15.8083L44.891 15.4209C45.116 15.1602 45.327 14.8696 45.6294 14.6238L45.6786 14.7207C46.4663 12.8061 47.8307 11.8078 49.195 11.115C50.5945 10.4147 51.9589 9.90814 53.6819 8.89498C53.2459 9.14827 53.9281 9.05887 53.914 9.17062C55.5737 8.61189 57.4163 8.66404 57.5359 7.83712C57.8805 7.86692 58.1196 7.89672 58.2884 7.94142C58.4572 7.99356 58.5486 8.06061 58.6119 8.12021C58.7244 8.24685 58.6893 8.3884 58.7525 8.56719C58.7736 8.38095 59.0761 8.299 59.5191 8.2841C59.9622 8.26175 60.5178 8.41075 61.0452 8.52249H60.5318C60.778 8.59699 61.0382 8.63424 61.2843 8.70874L62.0228 8.95458C62.5221 9.09612 63.0003 9.31961 63.4786 9.52076L63.1761 8.60444C64.646 9.55055 63.2465 9.52075 64.7234 10.1763L64.9765 9.65485C65.4899 9.96774 65.8908 10.3551 66.2495 10.7276C66.6152 11.0926 66.9035 11.5024 67.1778 11.9121L67.5857 12.523C67.7123 12.739 67.8389 12.9551 67.9655 13.1786L68.8094 14.5642L69.3228 15.1453L69.808 15.7636L70.3003 16.3745L70.7575 17.0226L70.9895 17.343L71.1021 17.5068L71.1583 17.5888L71.1935 17.6335L71.2709 17.7601L72.0656 19.1979L72.8392 20.6059L73.5143 22.2225L74.1965 23.4443C74.2528 23.5635 74.309 23.6007 74.3582 23.6529L74.52 23.8019L74.8365 24.0924C75.2514 24.4649 75.7367 24.9491 75.9687 25.0534L76.3977 25.3439C76.5595 25.4482 76.6369 25.5525 76.876 25.6121C77.1221 25.6792 77.4808 25.6792 77.7973 25.5972C78.1208 25.5153 78.3528 25.3663 78.4513 25.2322C78.9155 24.6958 79.5625 23.9732 80.1954 22.7365L80.6174 21.5744C80.6948 21.3956 80.751 21.1647 80.8073 20.9412L80.9761 20.2632C81.1941 19.3469 81.4543 18.5275 81.7004 17.6782L82.1083 16.4639L82.2068 16.1585L82.3053 15.8977L82.4318 15.5476C82.6006 15.0782 82.7905 14.6313 82.9804 14.1843C83.3672 13.2978 83.7962 12.4485 84.2674 11.6588C85.2168 10.0795 86.3632 8.73853 87.6361 7.82967L88.1635 7.93397C88.4097 8.12766 88.6558 7.62108 88.9723 7.10705C89.2818 6.59302 89.6897 6.10879 89.9358 6.29503C90.1609 6.07899 90.3859 5.86295 90.6321 5.6618C90.9134 5.68415 91.4268 5.6171 91.0611 5.90764C91.4338 5.7661 91.6377 5.7214 91.7925 5.6171C91.9542 5.52026 92.0808 5.40851 92.3551 5.25952C92.6645 5.32657 92.974 5.40851 93.2764 5.52026C94.1062 5.50536 94.915 5.52026 95.7378 5.57986C96.1457 5.59476 96.5607 5.63945 96.9826 5.6916C97.1936 5.7065 97.3976 5.7363 97.6156 5.77355L97.932 5.8257C98.0516 5.84805 98.0376 5.8257 98.0938 5.8406C98.1712 5.8406 98.2063 5.8406 98.3048 5.88529L98.3751 5.91509L98.5017 5.98214L98.776 6.12369C99.1347 6.32483 99.5355 6.48872 99.8801 6.74946C100.232 6.9953 100.583 7.24859 100.949 7.50188C101.294 7.77752 101.617 8.09786 101.955 8.4182C103.418 10.2583 105.373 12.8731 106.913 16.1063C108.481 19.2948 109.67 22.9824 110.514 25.7313C111.576 28.8081 112.131 32.3243 112.616 35.8704C112.856 37.6509 113.095 39.4388 113.334 41.2267C113.46 42.1207 113.594 43.0072 113.735 43.8863L113.847 44.5419L113.903 44.8696C113.918 44.959 113.91 44.9367 113.918 44.9814C113.925 45.0857 113.939 45.1751 113.953 45.2719C113.967 45.3688 113.988 45.4582 114.023 45.555C114.065 45.6444 114.072 45.7785 114.002 45.8456C113.861 45.935 113.728 46.0467 113.552 46.2031C113.432 46.1361 113.376 46.367 113.313 46.4564C111.013 46.9854 108.692 47.3951 106.357 47.6931C106.357 47.6931 104.24 47.9911 101.448 48.2518C98.6564 48.5275 95.1893 48.6615 92.5098 48.8031C89.8373 48.9446 87.9244 49.1607 88.3042 49.9354C88.4941 50.3079 89.2607 50.8443 90.843 51.4626C92.4184 52.0884 94.8095 52.8185 98.2767 53.407L98.0938 53.5486C102.208 53.7944 104.845 53.5486 107.56 52.4684C108.123 53.2804 110.907 52.0065 111.892 52.0735L111.815 52.1629C112.405 51.8798 113.01 51.6787 113.643 51.5595L116.168 51.0827L116.548 51.0082L116.871 50.8816L117.511 50.6208C117.94 50.442 118.362 50.2632 118.777 50.0695C118.876 50.0174 118.995 49.9801 119.073 49.9131C119.15 49.8461 119.22 49.7716 119.291 49.6822C119.431 49.5108 119.558 49.2948 119.635 49.0787C119.804 48.6317 119.783 48.2593 119.755 47.7974C119.797 47.9464 120.057 48.1326 119.895 48.8627C120.05 48.1699 120.092 47.2461 119.867 46.2553C119.741 45.7115 119.621 45.1825 119.509 44.6909C119.459 44.445 119.41 44.2066 119.361 43.9831L119.298 43.6553L119.269 43.4542C119.206 42.9774 119.22 42.6422 119.368 42.5528C118.348 38.3586 117.3 32.4063 115.992 29.8808L116.161 30.0373C115.338 28.6144 115.662 28.0631 115.036 26.3869C115.078 26.2752 115.078 26.1485 115.106 26.1634C114.262 24.5915 113.889 21.2094 113.256 19.8908L113.531 19.7045C113.362 19.1383 113.179 18.5796 112.975 18.0134C112.778 17.4547 112.588 16.8885 112.363 16.3372C112.504 16.7619 112.631 17.194 112.736 17.626C112.265 17.559 112.18 16.8811 112.005 15.9275C111.927 15.4507 111.822 14.9069 111.611 14.3482C111.414 13.7894 111.154 13.2084 110.725 12.6943C110.239 11.5545 109.227 10.6904 108.221 9.91559C107.215 9.12592 106.203 8.44055 105.563 7.38269C104.48 6.83141 106.737 7.65088 105.323 6.60792C105.598 6.22798 106.09 7.00275 106.034 6.39932C105.696 6.11624 105.422 5.8257 105.176 5.52026C104.916 5.22972 104.669 4.94663 104.416 4.64119C104.156 4.35065 103.903 4.01542 103.558 3.73978C103.221 3.46414 102.827 3.1885 102.349 2.92776L102.468 2.56272C101.983 2.33178 101.491 2.15299 101.062 1.89225C100.837 1.7656 100.661 1.65386 100.372 1.46761C100.246 1.37822 100.091 1.30372 99.9434 1.23667C99.8731 1.19942 99.7887 1.17708 99.7184 1.12493L99.4863 1.04298L99.1065 0.923785L98.8182 0.826939L98.2767 0.633246C97.911 0.528951 97.5593 0.424655 97.2077 0.342708C96.5114 0.208613 95.8433 0.141565 95.2315 0.327808C94.486 0.357607 93.9937 0.365057 93.6069 0.298009C93.2271 0.223512 92.9529 0.149015 92.6786 0.0596186C92.4043 -0.0148786 92.116 -0.0968254 91.701 -0.0372277C91.4971 -0.00742885 91.258 0.0447192 90.9766 0.126666C90.6953 0.223512 90.3789 0.379956 90.0061 0.581099C89.556 0.54385 89.0989 0.5513 88.6277 0.54385C87.2634 1.08768 87.9104 1.50486 86.4546 2.10829C86.4194 1.95185 85.9553 2.16044 85.6036 2.35413C85.252 2.54782 84.9777 2.68192 85.2731 2.27218C83.6556 3.1885 82.4319 4.70079 81.4051 6.33973C80.3572 7.98611 79.45 9.76659 78.177 11.6365C78.2403 12.2101 77.9801 12.97 77.748 13.7L77.6566 13.9682C77.6566 13.9682 77.6566 14.0055 77.6566 14.0204C77.6496 14.0725 77.6425 14.1321 77.6425 14.1843C77.6425 14.296 77.6636 14.4152 77.7269 14.5642C77.6144 14.4897 77.4949 14.8175 77.3964 14.9888C77.2909 15.1825 77.2276 15.108 77.1362 14.4972C77.1221 14.4003 77.1502 14.3407 77.2135 14.4525C77.1432 14.3035 77.0659 14.1694 76.9885 14.0427C76.7142 13.8565 76.7845 13.9235 76.8127 14.3705C76.8338 14.5791 76.8549 14.8622 76.8549 15.1229C76.883 15.3911 76.7494 15.6072 76.6369 15.4582C76.7916 15.8605 76.9604 15.5178 76.9182 16.2255C76.8408 16.2776 76.7072 16.2553 76.6369 16.1585C76.5665 16.0616 76.5525 15.9275 76.5173 15.8232C76.5384 15.6593 76.5525 15.4805 76.5665 15.2943L76.3696 14.4152C76.3415 14.6164 76.3133 14.825 76.2993 15.0484C76.2641 14.8026 76.2571 14.5493 76.2712 14.3482C76.2852 13.9831 76.3766 13.8863 76.0391 13.9608C75.8914 13.9906 75.8281 14.1247 75.8 14.2662C75.7648 14.4003 75.7437 14.527 75.5608 14.3258C75.5257 14.2588 75.6382 14.4078 75.5608 14.2886L75.4554 14.0874L75.2303 13.6777C75.0756 13.3946 74.9138 13.0966 74.745 12.7912C74.3793 12.2027 73.9714 11.5694 73.5354 10.9437C72.6211 9.71445 71.5733 8.4629 70.441 7.48698C70.3988 8.00101 69.808 7.47208 69.1188 7.06235L69.2454 6.70476C68.5351 6.36208 68.1483 6.10879 67.9233 5.90019C67.6912 5.69905 67.6138 5.54261 67.5435 5.37126C67.4732 5.20737 67.3958 5.03603 67.1567 4.82744C66.9176 4.62629 66.5237 4.3581 65.7572 4.11971L66.1158 4.00797C65.7572 4.11971 65.4055 4.23146 65.0609 4.35065C64.3647 4.20166 63.9287 4.11226 63.6333 3.97817C63.3379 3.84407 63.1832 3.69508 63.0074 3.54608C62.6698 3.24065 62.2197 2.99481 60.6092 3.0991C61.214 3.2034 61.3054 3.45669 61.0804 3.58333C60.8553 3.70253 60.3068 3.78448 59.5965 3.58333L60.0184 3.29279C59.1886 3.2332 58.9073 3.30769 58.3657 3.21085C58.8721 3.0544 58.6752 2.71172 57.4374 2.68192L58.3024 2.29453L57.1069 2.54037C56.713 2.62977 56.3051 2.77876 55.9183 2.89051C55.4542 2.80856 54.9197 2.78621 54.3852 2.87561C53.8507 2.95011 53.2811 3.0097 52.7817 3.16615C52.2754 3.30024 51.8042 3.42689 51.4033 3.50884C51.0165 3.62058 50.693 3.66528 50.475 3.61313C50.475 3.61313 49.5115 3.88132 48.5339 4.4028C48.0276 4.63374 47.5423 4.95408 47.1415 5.25952C46.7476 5.57241 46.4241 5.84805 46.3186 6.10134C46.7898 5.34147 44.9543 6.52597 45.2356 5.8257C45.0809 6.06409 44.8066 6.35463 44.5042 6.71221C44.2088 7.0698 43.8572 7.46463 43.4844 7.83712C42.7882 8.63424 42.0216 9.37176 41.4942 9.7368L41.6137 9.52076C41.2128 9.93794 40.826 10.3402 40.4955 10.7723C40.172 11.2193 39.8766 11.6588 39.6023 12.0984C39.3351 12.5453 39.1171 13.0147 38.892 13.4691L38.7303 13.8118L38.6529 13.9831C38.6529 13.9831 38.6389 14.0278 38.6389 14.0502L38.5896 14.2737C38.4912 14.6387 38.5193 14.7728 38.4701 14.9516C38.4419 15.1229 38.3786 15.2645 38.3083 15.1825C38.4138 15.5401 38.4279 15.7115 38.4419 15.935C38.456 16.151 38.3786 16.367 38.5404 16.8885C38.4419 17.1418 38.231 17.1344 38.1817 16.9854C38.1044 16.8587 38.027 16.6799 37.9567 16.5011C37.809 16.1361 37.6965 15.7636 37.605 15.5178C37.5628 15.3986 37.5206 15.3092 37.4714 15.2421C37.4292 15.1751 37.38 15.1304 37.2534 15.0559C37.0424 14.9292 36.7681 14.9218 36.3602 15.041C36.2969 14.9739 36.1141 14.7654 36.0156 14.6462C35.9031 14.5046 35.8047 14.378 35.7203 14.2513C35.5515 14.0055 35.4319 13.7894 35.3405 13.5883C35.1436 13.186 35.0099 12.8731 34.7146 12.5081L35.0732 12.7539C34.7638 12.4634 34.4825 12.2027 34.2293 11.9568C33.955 11.7259 33.7089 11.5173 33.4768 11.3236C33.0197 10.9288 32.6188 10.601 32.2109 10.3179C31.4373 9.71445 30.7129 9.21532 29.651 8.52994C28.4554 8.06061 28.0053 8.62679 26.0432 7.64343C26.8238 7.58383 25.9447 7.33799 25.15 7.0698C25.6634 7.19644 25.8674 7.1294 24.8617 6.58557C24.6859 6.64517 24.4327 6.64517 24.2076 6.64517C24.2076 6.61537 24.1654 6.59302 24.1936 6.56322C22.794 6.35463 23.0261 6.51107 23.645 6.69731C23.6028 6.73456 23.645 6.80906 23.8208 6.94315C23.1668 6.54832 22.14 6.45892 21.2961 6.36208C20.4381 6.33228 19.7489 6.30248 19.6434 6.03429C17.4984 6.20563 15.7261 6.86866 14.193 7.66578C12.6598 8.48524 11.3869 9.5282 10.0858 10.6457C9.8608 10.6606 9.8608 10.4818 10.0226 10.221C10.1913 9.96774 10.5148 9.62505 10.9016 9.28236L9.91003 10.0571C9.59356 10.3253 9.29818 10.6233 8.98874 10.9064C8.75666 10.5786 9.93816 9.77405 10.55 9.28236C9.11533 9.85599 8.06041 11.1001 7.06176 12.374C6.1264 13.7149 5.23324 15.1006 4.12207 16.4564C4.07987 16.7172 4.03064 16.9779 4.00954 17.2461L3.86889 17.4026C4.00954 17.477 3.83372 18.2742 3.64384 18.7435C3.13748 19.0191 2.98276 18.3338 2.27948 19.928C1.43555 21.0678 1.04172 23.6752 0.865899 25.4631C1.14721 24.5394 1.2527 24.8895 1.26677 25.3141C1.08391 26.1411 0.704146 26.5806 0.718211 27.2585H0.254049C0.704146 27.0052 0.40877 29.553 0.598655 29.8808C0.415803 30.1043 0.373606 29.7765 0.338442 29.3519C0.317344 28.9273 0.338442 28.4207 0.218885 28.294C0.029001 30.0075 0.0641648 30.4395 0.0219682 30.8642C0.0219682 31.2888 -0.0272611 31.7209 0.00086992 33.4269C0.352508 35.2297 0.415803 33.0916 0.81667 33.9484C0.936227 35.5203 1.33709 37.0102 1.28083 38.8056L1.60434 38.1947C2.23025 41.0405 2.50453 42.7167 2.48343 44.7132C3.41176 47.261 4.26272 49.1607 4.98006 50.5985C5.69037 52.0363 6.26706 52.9973 6.71716 53.6007C7.61735 54.815 8.01822 54.5841 8.15887 53.7423C8.29953 52.9004 8.17294 51.4477 8.02525 50.2185C7.87756 48.9893 7.70878 47.9762 7.70878 47.9762C7.17429 43.8937 6.5554 40.9809 5.98575 37.8893C5.7185 36.3472 5.44423 34.7604 5.31764 32.9874C5.19808 31.2367 5.18401 29.2252 5.51455 27.0648L5.52159 27.1244Z" fill="#FF5C4D"/>
</g>
<defs>
<clipPath id="clip0_8044_6795">
<rect width="120" height="60" fill="white"/>
</clipPath>
</defs>
</svg>
