<svg width="511" height="534" viewBox="0 0 511 534" fill="none" xmlns="http://www.w3.org/2000/svg">
<g clip-path="url(#clip0_8056_6168)">
<path d="M138.516 219.837C138.516 219.837 138.446 219.877 138.398 219.905L138.486 219.948L138.516 219.837Z" fill="#0130A9"/>
<path d="M412.89 189.287C410.957 190.094 409.757 190.571 407.999 191.308C409.138 189.446 412.167 189.58 410.519 187.044L410.559 187.114C410.559 187.114 410.509 187.081 410.472 187.071L407.198 188.962C407.763 187.277 408.545 186.023 410.472 187.071L410.519 187.044C410.144 186.396 409.77 185.748 409.436 185.169C408.221 185.407 407.23 185.609 406.203 185.801C406.152 184.009 409.754 184.121 407.679 181.646L403.804 183.883C404.908 182.227 405.452 181.357 406.477 179.777C404.51 180.419 403.444 180.757 401.606 181.355C402.667 180.156 403.192 179.575 404.313 178.372C401.238 180.024 401.104 175.903 398.732 176.748C397.974 174.531 395.628 174.835 394.079 173.909C392.307 172.864 390.267 172.313 388.526 171.589C387.923 172.462 387.596 172.96 387.058 173.733C386.611 172.479 386.272 171.625 385.781 170.242C385.328 171.429 385.114 172.016 384.899 172.603C384.021 172.307 383.044 171.575 382.342 171.795C380.982 172.21 380.283 172.49 379.485 170.79C379.144 170.092 376.979 170.23 375.639 169.985C375.594 170.814 375.552 171.486 375.535 171.99C374.291 172.338 373.258 172.626 372.178 172.94C371.77 172.126 371.325 171.303 370.89 170.443C369.281 170.692 367.828 170.945 366.586 171.137C364.844 173.285 367.565 173.844 367.967 175.34C364.889 176.346 365.423 172.797 363.568 172.355L357.503 175.857C357.503 175.857 357.137 175.543 356.819 175.418C353.965 174.257 351.883 175.551 351.773 178.609C351.73 179.653 352.107 180.732 352.232 181.801C352.266 181.967 351.884 182.157 351.615 182.436C350.705 181.819 349.782 181.179 348.885 180.585C347.407 182.179 346.303 183.835 344.811 184.82C342.918 186.068 341.971 187.571 342.169 189.031C340.733 189.953 339.291 190.384 339.008 191.227C338.774 191.886 338.12 193.684 340.055 194.265C340.529 194.393 340.646 195.714 340.931 196.475C340.701 196.608 340.497 196.788 340.28 196.944C339.138 196.245 337.983 195.523 336.705 194.748C336.273 197.621 335.843 200.339 332.982 201.775C332.636 201.974 332.601 202.766 332.406 203.28C331.463 205.8 330.373 208.281 329.589 210.864C328.766 213.593 327.18 215.959 326.284 218.668C324.953 222.647 322.634 226.301 323.208 230.384C322.119 231.321 321.313 232.003 320.28 232.877C321.52 233.427 322.444 233.696 323.168 234.204C323.467 234.402 323.396 235.184 323.475 235.694C322.249 235.753 321.201 235.803 319.476 235.904C321.561 237.972 320.837 239.593 319.969 241.391C319.368 242.695 319.041 244.366 319.212 245.78C319.445 247.621 319.095 248.934 317.484 250.296C318.386 250.208 319.265 250.132 320.153 250.02L320.037 251.044C319.028 251.905 318.027 252.73 317.166 253.474C317.625 256.08 318.029 258.378 318.488 260.984C318.07 261.379 317.42 262.063 316.71 262.751C317.11 263.23 317.766 263.994 317.733 264.043C315.574 266.216 317.553 268.685 317.239 270.965C317.057 272.46 317.847 274.041 315.892 275.077C315.431 275.343 315.477 276.86 315.558 277.801C315.915 282.04 316.367 286.285 316.724 290.525C316.774 291.144 316.348 291.791 316.269 292.454C315.818 296.573 314.533 300.525 315.003 304.854C315.238 307.126 316.735 310.305 314.187 311.591C314.145 313.807 314.125 315.424 314.089 317.173C314.824 317.86 315.762 318.739 317.182 320.08C315.619 319.716 314.722 319.493 313.933 319.3C313.649 320.884 313.635 322.405 313.104 323.669C312.269 325.632 314.693 326.208 314.557 327.676C314.485 328.458 314.07 329.284 313.595 329.899C311.84 332.239 311.813 332.193 314.165 333.922C314.427 334.11 314.512 334.524 314.8 335.129C313.302 335.037 312.115 334.951 311.119 334.878C310.514 337.079 308.935 339.565 309.56 341.18C310.675 343.963 309.087 345.898 308.833 348.175C308.512 350.922 307.166 353.49 307.236 356.382C307.251 357.206 306.644 358.02 306.348 358.839C305.506 361.054 304.55 363.18 304.476 365.662C304.437 366.98 303.927 368.386 303.319 369.571C302.81 370.606 301.346 371.266 302.641 372.71C302.794 372.868 302.571 373.707 302.359 373.767C300.489 374.415 300.501 376.353 299.603 377.674C298.682 379.008 297.611 380.244 296.591 381.512C292.985 380.167 293.207 383.96 291.716 385.16C290.194 384.866 288.78 384.601 287.317 384.304C287.524 383.598 287.755 382.878 288.02 381.953C286.719 382.149 285.738 382.314 285.252 382.379C285.114 380.915 285.123 379.706 284.829 378.61C284.257 376.501 283.507 374.403 282.807 372.338C282.251 370.683 282.018 368.256 280.844 367.606C279.447 366.838 279.4 366.063 279.32 364.967C279.255 364.109 279.708 362.922 279.308 362.443C278.769 361.828 277.581 361.742 276.375 361.358C279.499 360.11 276.532 358.273 277.096 356.96C277.744 356.431 278.277 355.969 278.911 355.418C277.793 354.705 277.009 354.201 276.054 353.61C276.788 353.124 277.305 352.795 278.03 352.346C277.079 351.444 276.204 350.622 275.293 349.789C277.5 347.435 277.494 346.944 276.048 344.6C275.45 343.617 275.231 342.386 274.845 341.343C276.123 341.161 276.797 341.05 278.075 340.867C276.948 339.82 276.313 339.199 275.668 338.615C276.309 337.967 276.871 337.395 278.208 336.037C276.826 336.094 276.172 336.132 275.6 336.153C275.48 334.401 274.643 332.045 275.395 331.271C277.067 329.534 275.058 327.545 276.634 326.173C275.307 325.58 274.203 325.106 272.632 324.408C274.151 324.056 275.434 324.149 275.772 323.614C277.281 321.169 277.786 318.315 277.746 315.529C277.732 314.333 276.237 313.128 275.243 311.727C276.305 310.743 278.255 309.648 278.129 308.949C277.753 306.913 278.927 306.976 279.61 306.828C280.038 304.266 280.162 301.818 280.895 299.573C281.557 297.524 281.839 297.639 279.266 297.55C279.074 297.537 278.887 297.213 278.522 296.9C278.763 296.359 279.024 295.745 279.284 295.132C280.239 295.507 281.034 295.819 281.853 296.118C283.159 293.481 279.6 293.282 280.037 291.055C280.92 290.668 281.979 290.211 283.024 289.731C282.821 288.954 282.629 288.354 282.473 287.765L282.45 287.779C282.45 287.779 282.423 287.732 282.41 287.709C281.746 289.914 280.847 288.89 279.855 287.918C280.762 286.346 281.601 286.787 282.41 287.709C282.433 287.696 282.429 287.636 282.462 287.586C282.489 287.633 282.493 287.692 282.519 287.739C283.232 287.482 283.958 287.248 285.152 286.867C283.588 285.702 282.57 284.684 284.431 283.486C284.592 283.393 284.554 282.582 284.455 282.516C282.124 281.515 283.631 280.769 284.558 279.925C285.248 279.31 285.889 278.662 286.747 277.858C284.273 274.904 286.525 272.893 288.699 270.959C288.031 270.388 287.575 269.972 286.804 269.275C287.934 268.622 288.781 268.226 289.549 267.69C290.579 266.972 291 266.05 290.117 264.893L290.216 264.959L290.286 264.919C290.286 264.919 290.19 264.912 290.153 264.903C289.675 264.5 289.232 264.107 288.98 263.882C290.627 262.314 292.126 260.862 293.68 259.347C292.564 258.479 291.913 257.991 291.475 257.657C292.223 256.237 292.737 254.891 293.55 253.742C294.639 252.219 294.586 249.625 296.956 249.522C296.923 248.399 296.468 247.026 296.956 246.22C299.163 242.692 299.9 238.748 300.623 234.78C301.051 232.434 301.499 230.014 302.365 227.786C303.482 224.98 303.532 224.427 301.334 221.899C301.128 221.647 301.217 221.164 301.161 220.64C302.217 220.339 303.191 220.055 303.567 219.961C304.138 217.008 304.619 214.539 305.195 211.489C302.763 207.276 302.825 207.116 308.948 203.396C308.336 202.761 307.774 202.16 307.184 201.512C307.569 199.994 311.466 199.287 308.284 196.865C309.157 195.928 310.032 195.207 310.645 194.298C311.212 193.415 311.863 192.359 311.851 191.379C311.836 190.554 310.915 189.758 310.548 189.229C311.462 187.189 312.254 185.312 313.118 183.455C314.202 181.07 314.031 180.828 311.675 180.954C312.736 178.798 313.938 176.406 315.075 174.114C314.458 173.205 313.988 172.55 313.661 172.091C314.311 171.406 314.873 170.835 315.793 169.872C314.455 170.058 313.804 170.156 312.691 170.304C314.2 167.859 313.998 165.537 312.955 163.145C314.489 162.66 315.73 162.253 317.733 161.621C315.731 161.295 314.549 161.113 312.848 160.83C314.231 159.815 315.109 159.154 316.196 158.372C314.99 157.988 314.171 157.689 312.989 157.291C313.816 156.381 314.319 155.813 314.798 155.259C313.549 153.788 313.505 153.659 313.77 151.561C312.885 151.733 312.046 151.878 310.795 152.106C311.984 150.864 312.779 150.004 313.272 149.472C311.502 148.272 309.872 147.206 308.166 146.061C309.286 144.859 310.048 144.049 310.797 143.215C310.693 143.089 310.59 142.964 310.487 142.838C309.319 143.266 308.188 143.703 306.809 144.19C307.267 142.907 307.605 142.002 307.992 140.914C306.789 140.96 306.002 140.982 304.954 141.032C304.879 139.038 303.946 137.848 302.609 136.49C301.042 134.894 297.926 134.718 297.911 131.763C294.776 131.072 291.727 130.425 288.688 129.741C288.3 129.656 287.704 129.476 287.603 129.194C286.465 126.425 284.424 127.202 282.363 127.682C281.634 127.856 280.73 127.73 279.962 127.463C276.728 126.336 273.252 126.707 270.508 127.921C264.276 130.654 257.048 130.599 251.454 134.97C251.236 135.127 250.383 134.447 249.003 133.762C250.669 136.381 249.619 137.758 247.807 138.774C247.154 138.441 246.514 138.131 245.515 137.627C245.295 139.483 245.132 140.905 245.016 141.929C244.109 142.329 243.28 142.437 243.044 142.882C241.731 145.4 239.596 147.188 237.587 149.088C237.35 149.318 236.691 149.081 235.937 149.053C238.313 151.571 235.108 151.292 234.658 152.323C234.981 153.309 235.297 154.177 235.62 155.163C234.037 155.243 232.387 154.036 231.273 156.315L232.904 159.139C232.575 159.422 232.473 159.511 232.358 159.578C230.36 161.071 227.038 161.816 228.896 165.62C229.057 165.898 228.466 166.579 228.184 167.05C227.575 168.019 226.734 168.906 226.344 169.934C225.263 172.749 223.457 174.841 220.79 176.134C221.588 177.835 220.911 179.45 218.76 180.98C220.978 183.65 217.919 183.997 216.805 185.103C216.964 186.338 217.077 187.385 217.198 188.395C215.94 189.677 214.806 190.856 213.617 192.098L214.94 194.39C213.957 195.297 212.706 195.526 212.645 197.445C212.564 199.436 211.081 201.341 210.671 203.4C209.996 206.598 206.373 208.845 207.841 212.72C207.982 213.07 207.235 214.119 206.72 214.293C205.621 214.68 205.515 215.082 205.552 216.264C205.605 217.9 204.976 219.529 204.659 221.163C204.427 221.081 204.195 220.998 203.804 220.854C203.787 223.487 203.429 226.009 202.846 228.568C202.282 231.055 200.698 233.636 201.175 235.954C201.788 238.934 198.328 241.302 200.488 244.191C200.528 244.261 200.229 244.649 200.026 244.829C197.785 246.647 199.022 248.896 199.606 250.812C200.037 252.199 200.394 253.136 199.599 254.582C197.663 258.046 198.627 261.688 199.459 265.313C198.816 265.53 198.054 265.754 196.978 266.128C197.378 267.78 197.748 269.326 197.999 270.292C197.494 271.602 196.987 272.482 196.887 273.373C196.635 275.494 197.255 278.006 196.293 279.642C194.327 283 195.272 286.715 194.351 290.179C193.478 293.461 191.424 297.147 193.067 300.952C193.188 301.161 193.117 301.571 192.973 301.747C191.312 303.664 192.524 305.711 192.853 307.558C191.693 308.691 189.634 309.972 189.811 310.704C190.387 313.088 188.688 314.778 188.615 316.889C188.548 318.903 186.453 320.761 188.212 322.956C188.266 323.048 187.606 323.769 187.248 324.161C186.909 324.48 186.111 324.909 186.178 325.025C187.269 327.606 185.159 329.812 185.402 332.203C185.699 335.273 183.168 336.641 182.001 338.828C181.893 339.013 182.166 339.38 182.108 339.599C180.429 345.106 178.706 350.484 173.037 353.449C171.788 354.108 171.151 355.988 170.28 357.355C169.137 359.157 168.501 361.624 166.771 362.623C163.658 364.42 160.156 365.546 156.825 366.914C155.649 365.463 154.693 364.286 153.777 363.179C152.5 363.577 151.411 363.928 149.923 364.386C150.873 362.942 151.601 361.966 152.203 360.878C152.32 360.656 151.994 360.196 151.761 359.527C150.909 360.235 150.215 360.791 149.419 361.436C149.553 360.71 149.659 360.093 149.787 359.463C149.164 359.237 148.518 359.023 148.054 358.859C148.824 358.168 149.616 357.463 150.918 356.31C149.184 356.076 148.281 355.95 146.981 355.774C149.199 353.012 148.772 350.727 145.937 348.907C146.793 347.301 147.509 345.931 148.248 344.547C146.012 343.338 149.325 341.672 147.885 340.404C149.083 338.324 148.087 335.534 150.04 333.696C150.175 333.557 150.08 333.18 150.084 332.868C149.729 332.518 149.346 332.122 148.954 331.762C150.188 330.277 152.029 329.152 150.449 326.576C150.022 325.835 151.159 324.13 151.607 322.883C151.841 322.223 152.139 321.619 152.422 320.992C151.727 320.746 151.031 320.499 150.444 320.282C151.091 319.538 152.458 318.657 152.485 317.745C152.523 315.841 154.534 315.328 154.726 313.797C154.893 312.435 153.662 310.676 156.039 310.106C156.285 305.952 158.258 302.497 160.336 299.013C161.462 297.128 161.479 297.211 163.836 294.369C164.902 293.074 163.994 290.542 165.285 288.624C166.805 286.357 168.02 283.773 168.85 281.164C170.29 276.628 171.813 272.075 172.548 267.329C172.685 266.448 173.259 265.098 173.939 264.891C176.846 264.015 176.153 261.482 176.713 259.523C176.992 258.621 177.38 257.749 177.586 256.827C177.905 255.408 178.091 253.974 178.436 252.015C179.72 251.15 181.496 250.125 181.857 247.447C182.104 245.637 184.56 244.034 181.906 242.047C182.877 241.332 183.812 240.607 184.737 239.919C184.448 239.098 184.229 238.453 184.084 238.042C185.529 236.498 186.873 235.043 188.128 233.701C188.73 233.786 189.806 233.998 189.835 233.889C190.354 232.231 190.763 230.544 191.196 228.843C190.964 228.761 190.742 228.642 190.51 228.56C189.857 229.4 189.181 230.253 188.463 231.193C186.912 228.754 187.298 226.813 189.621 225.369C189.944 225.183 190.358 224.728 190.306 224.479C189.881 222.41 191.638 221.673 192.888 220.643C191.674 219.924 190.718 219.333 189.168 218.407C192.019 217.965 192.786 216.843 192.098 214.586C191.649 213.116 191.761 211.446 191.616 209.863C192.772 209.628 193.987 209.389 195.179 209.164C195.174 208.889 195.169 208.614 195.164 208.339C194.474 207.997 193.785 207.654 192.614 207.064C193.581 206.29 194.322 205.708 195.358 204.894C195.744 206.307 195.987 207.154 196.274 208.131C197.728 206.335 197.534 204.934 195.643 203.896C196.403 203.241 196.982 202.752 197.82 202.021C196.945 201.57 196.364 201.257 195.761 200.957C195.295 202.121 194.793 203.275 194.099 205.003C193.158 202.521 193.846 201.476 195.492 200.865C197.145 198.614 199.03 196.446 197.468 193.581C198.88 193.044 200.025 192.63 201.169 192.216C201.099 192.041 201.065 191.875 200.994 191.7C200.409 191.698 199.824 191.696 198.796 191.673C199.853 188.871 200.816 186.277 201.896 183.462C202.042 183.501 202.79 183.625 203.816 183.804C203.761 181.737 203.683 179.899 203.646 178.13C206.64 175.753 208.187 168.1 206.815 161.515C208.409 162.199 209.599 162.716 210.839 163.266C210.856 162.176 211.359 160.65 210.85 160.142C207.796 157.089 210.323 154.488 210.916 151.522C212.048 152.257 212.556 153.137 213.935 152.063C215.827 150.6 214.906 148.632 215.461 146.984C215.448 146.961 215.458 146.924 215.454 146.865C214.783 147.993 214.112 149.121 213.193 150.671C212.427 149.878 211.278 149.06 211.402 148.741C211.881 147.6 212.661 146.502 213.589 145.658C213.792 145.478 215.485 145.427 215.464 146.828C215.51 146.802 215.506 146.742 215.529 146.729C215.51 146.802 215.491 146.875 215.471 146.947C215.471 146.947 215.484 146.971 215.475 147.007C216.255 145.322 217.058 143.624 217.772 142.038C215.478 139.875 214.368 142.213 212.601 142.616C215.193 141.459 214.09 137.311 217.606 137.01C217.807 136.986 218.132 136.058 218.083 136.025C216.213 134.758 218.577 133.579 218.133 132.384C217.257 132.304 216.366 132.2 214.805 132.052C216.538 131.113 218.466 132.161 218.574 129.845C217.757 129.761 216.986 129.651 216.132 129.557C216.251 128.378 216.217 127.255 216.499 126.197C216.654 125.614 217.428 124.611 217.683 124.68C220.779 125.516 219.51 123.317 219.763 121.997C220.24 119.468 219.864 116.846 221.323 114.367C222.135 113.003 221.542 110.752 223.234 109.528C220.996 107.302 222.707 105.419 224.204 103.165C222.839 103.305 222.02 103.377 220.999 103.472C223.713 100.362 223.751 97.037 221.113 93.4976C221.728 92.4325 222.376 91.3176 223.099 90.0667C221.902 90.017 220.993 89.9864 219.772 89.9501C220.616 88.9076 221.203 88.1672 221.813 87.4135C221.706 87.2283 221.576 87.0564 221.446 86.8845C219.948 87.379 218.437 87.8503 216.774 88.3784L214.435 84.9132C217.167 83.5208 216.458 86.5539 217.864 87.0701C218.605 86.7036 219.439 86.2839 220.098 85.9342C219.792 84.4443 219.536 83.2028 219.271 81.9977C218.433 82.3578 217.573 82.7313 216.431 83.2049C217.277 80.8339 213.667 82.1459 214.483 80.2554C215.222 78.5009 211.764 78.5835 213.228 76.7507C212.481 76.8423 211.771 76.9437 211.024 77.0352C210.998 76.0315 210.964 75.2796 210.927 74.0971L205.922 76.9866C205.129 76.5184 204.237 75.9842 203.145 75.3181C203.834 74.488 204.333 73.8605 205.088 72.9308C203.437 72.8957 201.761 73.4006 201.103 72.7929C198.745 70.5734 197.508 72.2133 196.05 73.7347C195.892 73.8875 195.531 73.8487 195.046 73.9131C194.952 73.1646 194.839 72.4892 194.775 71.8467C192.128 71.5228 190.764 72.8352 190.425 75.2842C188.555 74.3884 185.539 74.2776 181.377 74.9518C181.691 75.9746 182.001 76.9377 182.301 77.9373C182.324 77.924 182.347 77.9107 182.37 77.8974C182.393 77.884 182.443 77.917 182.48 77.9269C183.249 77.2357 183.982 76.5346 184.886 75.7039C185.261 78.1112 184.012 78.1843 182.48 77.9269C182.433 77.9535 182.378 78.0166 182.345 78.0664C182.318 78.0201 182.305 77.9969 182.301 77.9373C179.994 78.6825 180.262 76.4291 179.284 74.8948C175.698 76.7798 172.555 80.2305 167.746 78.3458C168.204 79.779 168.497 80.6593 168.794 81.5993C168.266 81.7498 167.804 82.0162 167.477 81.9276C164.526 81.1309 162.412 82.1042 160.841 84.7091C160.353 85.5154 159.182 85.8831 158.449 86.5841C156.138 88.8134 153.3 90.8223 151.796 93.5429C150.776 95.3976 148.539 96.6892 148.597 99.1868C148.602 99.4618 148.128 99.9203 147.812 100.011C144.798 100.917 143.199 102.674 144.315 106.258C143.032 106.166 142.132 106.099 141.113 106.039C141.202 107.098 141.629 108.21 141.27 108.973C139.886 111.902 138.609 115.016 136.637 117.513C134.255 120.524 133.375 124.274 131.175 127.334C130.339 128.496 130.33 130.291 129.494 131.453C128.711 132.492 129.889 134.374 127.898 134.814C127.674 134.851 127.673 135.808 127.501 136.309C125.707 141.511 123.987 146.734 122.057 151.861C121.595 153.084 121.303 153.963 121.731 155.29C121.954 155.995 121.168 157.776 120.682 157.841C117.613 158.223 117.74 161.268 117.531 162.716C116.85 167.554 113.646 171.966 115.21 176.218C113.538 177.584 112.413 178.512 111.334 179.413C112.281 180.626 112.94 181.449 113.837 182.629C112.487 183.007 111.536 183.278 110.774 183.502C110.806 184.41 111.131 185.611 110.821 185.821C109.352 186.792 109.346 187.846 110.019 189.278C110.183 189.616 109.92 190.385 109.595 190.727C108.021 192.315 107.975 194.101 108.876 195.927C107.987 196.625 107.27 197.193 106.483 197.802C107.108 198.244 107.556 198.541 108.017 198.861C106.433 202.615 105.736 206.414 107.363 210.351C105.589 211.006 104.297 211.751 104.767 213.95C104.998 214.989 105.172 216.463 104.635 217.236C102.724 219.945 103.013 222.895 103.054 225.897C103.066 227.248 102.314 228.609 101.909 229.984C102.36 230.341 102.852 230.767 103.657 231.414C100.993 232.766 101.609 235.004 101.419 236.966C101.219 238.964 100.997 240.975 100.834 242.983C100.782 243.692 101.068 244.453 100.93 245.12C100.267 248.126 99.0286 251.095 98.928 254.116C98.8093 257.426 97.6294 260.762 98.6485 264.125C98.736 264.383 98.4485 264.95 98.1948 265.096C96.2211 266.205 96.5036 268.079 96.6234 269.831C96.7886 272.514 97.1091 275.2 97.3959 278.306C96.5847 278.127 95.9424 277.973 95.2769 277.832L95.3461 277.792C94.5814 278.172 93.7802 278.542 93.0846 278.882C94.2192 280.048 95.0744 280.943 96.1956 282.086C96.6479 280.899 97.0615 279.858 97.5272 278.694C100.078 280.555 96.8681 284.476 100.745 285.386C99.5878 286.95 98.5382 288.328 97.4788 289.742C100.618 292.622 104.489 290.911 107.993 291.388C108.691 291.479 109.466 291.063 110.199 290.948C110.566 290.891 111.238 291.151 111.323 290.978C111.811 290.172 112 289.168 112.601 288.45C113.09 287.859 113.957 287.39 114.713 287.262C116.464 286.992 114.767 285.811 115.224 285.485C119.853 282.103 120.301 276.009 123.861 271.948C124.219 271.556 124.012 270.719 124.104 270.079C124.17 269.608 124.225 268.744 124.426 268.72C126.757 268.177 126.49 266.17 126.353 264.706C126.168 262.682 128.584 261.967 128.294 259.973C128.239 259.665 129.595 259.191 130.287 258.792C129.912 255.798 131.849 250.79 134.148 248.753C133.815 248.39 133.091 247.882 133.162 247.686C134.509 244.532 136.173 241.503 137.301 238.29C137.931 236.506 137.671 234.403 137.841 231.928C140.122 231.351 140.399 229.062 140.306 226.398C139.267 226.782 138.472 227.056 137.69 227.353C137.61 227.214 137.553 227.062 137.496 226.91C138.573 226.165 139.649 225.42 140.864 224.595C139.336 223.44 138.034 222.463 136.669 221.43C137.34 220.888 137.942 220.386 138.544 219.884C137.885 219.647 137.211 219.172 136.593 219.22C134.504 219.438 133.849 218.304 133.812 216.535C133.807 216.26 134.159 215.964 134.375 215.592C135.172 216.707 135.849 217.612 136.543 218.601C138.431 217.078 140.024 215.789 142.356 213.917C140.527 214.263 139.734 214.382 137.964 214.724C139.756 213.196 140.753 212.312 142.296 210.989C140.84 211.397 140.124 211.594 139.233 211.862C139.371 211.196 139.446 210.473 139.565 210.466C141.167 210.313 141.849 209.95 141.441 207.963C141.168 206.639 142.088 205.089 142.499 203.617C141.726 202.705 140.787 201.611 139.834 200.494C140.002 200.305 140.183 200.139 140.35 199.95C141.111 200.468 141.857 200.962 143.189 201.83C143.013 199.555 142.887 197.899 142.757 196.183C141.757 196.421 140.991 196.585 139.637 196.904C141.238 195.362 142.412 194.253 144.012 192.711C142.567 193.083 141.791 193.284 140.708 193.538C141.566 192.148 143.068 190.756 142.821 189.849C142.388 188.247 142.588 187.421 143.473 186.077C144.007 185.244 143.315 183.514 142.927 182.256C142.617 181.293 141.931 180.423 141.61 179.868C143.414 177.56 144.986 175.542 146.626 173.483L145.303 171.191C146.228 170.503 146.982 169.944 147.805 169.346C147.284 169.029 146.875 168.802 146.441 168.528C146.891 168.083 147.341 167.638 147.851 167.189C145.494 166.142 143.262 162.862 142.651 159.14C144.691 159.691 146.549 160.193 148.989 160.852C147.244 157.137 150.021 153.743 148.38 150.369C148.326 150.276 148.765 150.023 148.846 149.791C149.298 148.604 149.87 147.41 150.044 146.167C150.308 144.44 149.73 142.428 150.455 141.021C151.576 138.861 150.405 137.099 150.334 135.165C150.304 134.101 150.44 133.004 150.541 131.156C151.371 132.22 151.72 132.666 152.25 133.317C153.216 129.611 153.802 125.939 155.134 122.546C156.856 118.126 159.712 114.285 162.323 110.339C165.318 105.832 168.601 101.559 171.772 97.1971C173.592 96.8873 175.567 96.5803 177.222 96.304C177.765 97.5646 178.101 98.3587 178.48 99.2819C179.027 97.8857 179.437 96.7847 179.541 96.5393C182.643 96.1066 184.952 95.792 187.344 95.4607C187.097 96.0974 186.859 96.6977 186.498 97.6163C189.947 96.6128 190.814 99.4461 192.77 100.971L189.242 103.008C189.286 103.137 189.343 103.29 189.363 103.432C190.797 103.252 192.221 103.109 194.438 102.848C192.787 104.141 191.842 104.903 190.792 105.694C193.323 107.042 193.94 109.495 193.857 111.642C193.752 114.974 192.856 118.27 192.285 121.594C192.261 121.607 192.189 121.588 192.166 121.601C192.192 121.647 192.242 121.68 192.279 121.69L192.308 121.581C192.103 122.718 191.66 123.868 191.73 125.001C191.943 127.873 190.623 130.487 190.724 133.484C190.828 136.542 191.521 140.618 187.712 142.755C187.62 142.809 187.688 143.14 187.712 143.342C188.313 143.211 188.914 143.08 190.222 142.788C189.155 144.669 188.446 145.943 187.925 146.799L189.329 149.23C187.803 150.05 188.566 151.585 188.179 152.672C187.669 154.078 187.615 156.116 185.545 156.632C185.439 156.662 185.375 156.977 185.304 157.172C186.021 157.19 186.656 157.225 187.483 157.272C186.65 160.624 185.853 163.77 185.191 166.405C185.312 167.786 185.666 168.878 185.437 169.813C185.05 171.487 183.856 173.041 183.827 174.694C183.716 177.752 183.309 178.697 180.507 179.543C179.745 179.767 179.003 180.134 178.311 180.533C178.126 180.64 178.196 181.186 178.081 181.839C179.4 181.355 180.393 180.998 182.017 180.4C181.502 181.747 180.836 182.564 181.025 183.103C182.418 187.114 180.313 189.008 177.015 190.326C176.946 190.366 177.021 190.816 177.035 190.839C178.126 190.919 179.195 191.012 180.263 191.105C180.133 191.891 180.038 192.686 179.886 193.7C178.767 192.988 178.146 192.605 176.991 191.883C177.357 194.327 178.182 196.289 177.759 197.953C177.253 200.005 176.796 202.09 176.272 204.059C175.642 206.43 176.605 209.269 174.659 211.226C172.937 212.93 173.068 214.861 173.567 216.95C173.601 217.116 173.305 217.348 173.085 217.66C172.664 217.41 172.229 217.136 171.867 216.882C171.039 218.749 170.187 220.63 169.349 222.534C169.892 223.794 170.489 225.148 171.002 226.302C170.185 227.391 168.811 228.74 168.995 229.005C170.633 231.362 168.24 232.064 167.398 233.322C166.697 234.344 166.498 235.385 166.228 236.622C165.617 239.505 166.345 242.79 163.35 245.167C161.814 246.393 161.436 248.988 160.37 250.87C159.12 253.073 159.264 255.984 156.843 257.598C156.497 257.797 156.692 258.827 156.6 259.467C156.508 260.106 156.492 261.196 156.165 261.323C153.958 262.134 153.805 264.106 153.71 265.858C153.558 268.632 151.016 269.821 150.008 272.07C148.498 275.473 147.267 279.147 144.337 281.796C143.693 282.384 142.885 283.807 143.132 284.128C144.355 285.767 142.551 286.531 142.089 286.582C138.678 286.853 138.941 289.387 138.792 290.832C137.245 292.095 135.293 292.975 135.308 293.8C135.39 296.284 132.248 297.234 132.964 299.753C129.927 303.173 128.979 307.764 126.555 311.448C125.048 313.738 124.641 315.856 124.678 318.211C123.616 318.608 122.752 318.922 121.759 319.279L123.082 321.571C122.502 322.431 121.687 323.149 121.5 323.997C121.336 324.833 121.825 325.785 122.035 326.682C121.294 327.049 120.575 327.402 119.995 327.675C120.148 329.007 120.768 330.347 120.357 331.232C118.305 335.72 117.286 340.507 116.144 345.24C115.876 346.321 116.479 347.578 116.321 348.688C115.975 351.018 115.364 353.316 114.849 355.619C119.002 358.5 120.756 362.55 122.071 367.223C120.675 367.042 119.483 366.896 118.256 366.74C118.266 365.16 118.314 363.805 118.243 362.457C118.2 361.371 118.25 359.86 116.744 360.02C115.901 360.105 114.806 361.138 114.441 361.997C114.109 362.807 114.585 363.952 114.79 364.945C114.922 365.547 115.536 366.397 115.326 366.673C114.24 368.04 115.019 368.856 115.802 369.947C116.379 370.787 116.955 371.998 116.799 372.953C116.396 375.717 117.338 377.827 118.632 380.229C120.558 383.778 120.236 383.964 124.165 382.622C124.446 382.521 124.834 382.822 125.808 383.124C124.477 383.8 123.583 384.223 122.321 384.86C124.421 387.166 126.049 389.56 128.242 391.227C129.819 392.415 129.429 393.443 129.213 394.401C131.502 396.66 133.601 398.751 135.686 400.819C136.825 398.886 138.11 398.164 139.542 398.655C139.156 399.958 138.771 401.261 138.486 402.259C140.712 402.919 142.878 403.582 145.19 404.284C145.124 402.625 145.087 401.442 145.044 400.356C146.825 401.364 148.468 401.867 149.49 402.944C151.47 405.042 153.376 404.775 155.655 403.768C156.585 403.354 157.807 403.235 158.833 403.414C160.657 403.75 162.383 404.236 163.697 402.304C163.795 402.155 164.897 402.785 165.582 402.852C165.906 402.881 166.264 402.489 166.725 402.223C166.438 401.246 166.128 400.283 165.652 398.767C166.969 399.396 167.768 399.769 168.653 400.183C169.945 399.438 171.269 398.056 172.549 398.089C174.176 398.137 174.956 397.625 175.942 396.562C176.917 395.536 178.159 394.171 179.362 394.124C181.659 394.002 181.98 391.841 183.473 391.072C184.132 390.722 185.102 390.964 185.926 390.952C185.739 388.498 187.031 386.795 189.19 386.166C191.454 385.507 192.753 383.923 193.658 382.135C194.841 379.816 196.085 377.709 198.248 376.183C198.853 375.74 199.677 374.771 199.529 374.301C198.934 372.205 200.427 371.436 201.511 370.224C202.66 368.912 203.517 367.306 204.277 365.694C204.731 364.722 204.707 363.563 204.993 362.194C205.589 361.788 206.6 361.143 207.219 360.724C206.775 358.356 206.023 356.414 206.156 354.515C206.281 352.653 207.305 350.858 208.179 348.378C208.866 348.876 209.63 349.454 210.982 350.463C210.289 348.517 210.01 347.66 209.69 346.734C210.638 346.618 211.289 346.52 212.058 346.416C212.099 345.528 212 343.918 212.225 343.881C214.725 343.364 212.881 341.342 213.538 340.19C213.947 339.46 213.068 337.992 213.477 337.262C213.942 336.469 215.2 336.144 215.869 335.758C216.321 333.984 216.621 332.267 217.249 330.639C218.558 327.26 218.581 323.573 220.161 320.13C221.163 317.977 221.092 315.085 221.702 312.572C222.356 309.818 222.451 306.892 222.777 304.049C222.971 302.147 223.735 300.008 223.123 298.416C222.226 296.064 223.033 294.425 223.921 292.554C224.322 291.705 224.578 290.816 224.926 289.875C223.793 289.51 222.965 289.247 221.04 288.63C223.457 288.13 224.623 287.858 224.845 285.847C225.074 283.739 223.134 284.427 222.83 283.368C222.754 282.331 225.437 282.078 223.645 280.52C224.415 279.828 225.207 279.124 226.362 278.087C225.059 278.068 224.414 278.069 223.541 278.049C224.457 277.026 225.173 276.242 226.28 275.017C224.929 275.179 224.159 275.284 222.478 275.514C224.019 273.976 224.896 273.099 225.853 272.146C225.112 272.141 224.477 272.106 223.055 272.094C224.394 270.95 224.932 269.806 223.861 268.696C226.509 267.476 225.568 264.994 225.882 262.93C226.131 261.335 226.133 259.636 226.736 258.177C228.554 253.762 228.537 251.55 226.44 247.544C227.261 248.274 228.105 248.99 229.215 249.954C229.832 246.388 230.994 243.927 228.015 242.282C228.406 239.71 230.771 242.049 231.853 240.622C231.374 239.632 230.832 238.587 230.23 237.33C232.741 235.448 232.708 232.781 232.506 230.089C231.642 229.816 230.814 229.553 229.949 229.281C232.734 228.938 233.499 227.972 233.405 225.094C233.296 222.348 235.246 219.493 235.09 216.774C234.912 214.068 236.124 213.399 238.125 212.923C237.225 211.097 236.475 209.585 235.41 207.421C236.736 208.014 237.277 208.258 237.326 208.291C238.613 205.14 239.867 202.039 241.135 198.961C240.455 198.582 239.811 198.213 238.872 197.706C242.031 196.839 241.804 194.315 242.221 192.161C242.796 192.199 243.326 192.263 243.884 192.219C244.264 192.185 244.656 191.958 245.125 191.811C242.127 190.826 241.786 189.757 243.567 187.463C244.939 185.683 245.333 183.171 247.764 182.108C248.403 181.831 248.671 180.75 249.411 179.582C247.588 179.832 247.02 179.913 246.818 179.937C247.378 178.564 247.971 177.141 248.541 175.732C248.665 175.413 248.599 174.927 248.813 174.711C249.952 173.435 251.258 172.342 252.275 171.014C253.656 169.198 255.143 167.352 256.006 165.279C257.316 162.115 259.203 158.618 260.802 157.448C261.912 156.653 262.958 155.802 264.281 154.791C265.223 154.772 266.559 154.741 268.205 154.717C267.794 152.886 267.477 151.433 266.943 148.963C270.677 152.394 274.028 154.257 277.928 153.981C278.815 155.197 280.605 157.127 280.382 157.379C278.872 159.239 281.755 159.704 280.963 160.995C282.523 160.928 283.726 160.881 285.3 160.837C285.186 163.249 285.087 165.529 285.006 167.891C284.26 168.784 283.446 169.717 282.589 170.737C283.12 171.017 283.246 171.129 283.365 171.122C284.172 171.027 284.964 170.909 286.55 170.673C283.452 174.468 284.371 178.722 283.69 182.603C284.58 182.707 285.457 182.787 286.324 182.904C286.308 183.036 286.279 183.146 286.26 183.219C285.151 183.642 284.053 184.03 282.792 184.51C283.365 185.075 283.945 185.388 283.914 185.653C283.616 188.387 283.551 191.203 282.78 193.809C281.999 196.452 280.938 200.367 280.693 202.978C280.444 205.529 280.182 208.058 278.311 210.249C277.254 211.508 276.945 213.477 276.526 215.2C276.048 217.143 275.849 219.141 275.48 221.113C275.151 222.939 275.319 225.467 274.193 226.394C272.407 227.827 274.976 230.572 272.219 231.176C273.574 233.203 272.042 234.705 271.205 236.238C270.031 238.305 269.295 240.705 268.732 242.82C267.588 247.124 266.775 251.575 264.849 255.589C262.776 259.934 262.632 264.957 259.69 268.97C258.808 270.158 258.966 272.136 258.536 274.267L256.99 275.159C256.714 277.078 256.968 279.061 256.124 280.104C255.146 281.286 256.571 283.859 254.09 283.717C254.532 284.697 254.935 285.606 255.142 286.073C254.023 286.904 253.289 287.39 252.595 287.945C250.845 289.388 253.274 290.825 252.826 292.287C251.957 292.326 251.303 292.365 251.051 292.355C251.155 295.784 249.029 298.493 248.502 301.575C247.936 304.803 248.036 308.172 246.379 311.321C247.118 312.067 247.816 312.744 247.08 314.558C245.679 317.991 243.653 321.352 243.514 325.106C243.406 328.008 242.329 330.297 241.194 332.805C240.267 334.821 239.487 337.093 240.338 339.472C240.412 339.707 240.335 339.999 240.34 340.274C239.696 340.491 239.053 340.708 238.41 340.925C238.318 343.324 239.518 345.934 237.026 347.744C237.94 349.593 234.816 351.798 237.924 353.399C236.94 353.72 236.333 353.947 236.122 354.007C235.818 355.664 235.592 357.03 235.365 358.395C235.196 359.327 235.126 360.324 234.784 361.17C233.989 363.203 236.432 365.836 233.672 367.553C233.534 367.633 233.995 368.539 234.015 369.053C234.121 371.739 234.336 374.455 234.19 377.132C234.103 378.633 233.272 380.07 235.186 381.094C235.531 381.266 235.761 382.676 235.488 382.896C234.103 384.066 235.272 385.397 235.76 385.764C237.733 387.156 237.101 389.311 237.263 390.977C237.48 392.951 237.468 394.687 239.208 395.997C240.623 397.063 241.959 398.206 244.109 397.242C244.108 397.613 244.094 397.961 244.07 398.345C242.723 398.783 241.367 399.257 239.704 399.785C242.073 401.597 242.602 404.965 246.002 405.101C246.071 405.061 246.141 405.021 246.173 404.972C246.173 404.972 246.187 404.995 246.2 405.018C247.467 402.897 247.787 402.867 248.98 404.4C249.613 405.177 250.269 405.941 250.925 406.704C248.591 407.774 247.212 407.304 246.2 405.018C246.177 405.031 246.167 405.068 246.134 405.117C246.088 405.144 246.039 405.111 246.002 405.101C245.248 405.66 244.508 406.242 243.458 407.033C245.036 408.221 246.089 409.033 247.079 409.789C248.508 409.334 249.702 408.953 250.933 408.582C251.04 408.767 251.161 408.976 251.267 409.161C250.759 409.825 250.228 410.502 249.686 411.216C253.554 412.749 255.459 418.286 260.73 416.23L258.284 411.994C259.792 412.049 260.679 412.093 261.78 412.136C261.869 413.196 261.924 414.09 261.983 415.044C262.862 415.555 263.772 416.172 264.753 416.593C267.7 417.917 268.615 417.636 270.107 414.521C270.763 413.155 271.513 412.536 272.964 413.026C273.305 413.137 273.579 413.504 273.994 413.851C273.399 414.472 272.874 415.053 271.977 416.003C273.546 416.857 274.903 417.555 276.25 418.29C277.401 418.953 278.476 420.123 279.858 418.522C280.082 418.27 281.099 418.701 281.761 418.782C283.002 418.961 284.696 419.711 285.358 419.206C287.815 417.231 289.462 419.337 291.566 420.159C291.381 418.506 291.23 417.019 291.075 415.473C292.51 415.508 293.68 415.512 294.983 415.531C294.995 416.883 294.988 417.936 294.993 419.384C296.139 418.599 296.975 418.024 297.835 417.435C297.238 416.668 296.825 416.166 296.242 415.422C301.224 415.262 305.486 413.696 308.166 409.71C309.359 407.941 310.531 406.616 312.545 406.163C312.591 404.964 312.621 403.897 312.685 402.41C313.751 403.245 314.429 403.78 315.12 404.338C315.531 402.866 315.684 401.48 316.259 400.346C316.802 399.261 317.765 398.427 318.487 397.547C318.012 397.204 317.65 396.95 316.574 396.151C321.464 396.045 320.061 391.484 322.494 389.893C321.129 388.274 322.363 387.962 323.597 387.435C324.213 387.172 325.171 386.434 325.099 386.043C324.928 385 324.15 384.399 322.957 384.996C322.819 385.076 322.459 384.666 322.21 384.501C322.268 384.282 322.313 384.04 322.394 383.808C323.403 383.905 324.412 384.001 325.494 384.117C325.346 382.104 325.189 380.126 325.047 378.017C325.684 377.896 326.688 377.717 327.55 377.559C327.435 376.453 327.353 375.512 327.213 374.204C328.348 374.999 329.022 375.475 329.696 375.95C329.95 375.803 330.181 375.67 330.461 375.57C329.918 372.766 329.375 369.961 328.771 366.73C330.777 365.571 332.922 363.747 332.653 360.352C332.528 358.911 332.652 357.42 332.422 356.01C332.257 355.086 332.239 354.201 331.241 353.326C329.31 351.632 329.577 350.923 331.889 348.909C332.16 349.431 332.444 349.977 332.715 350.5C333.443 349.524 333.421 348.58 333.435 347.645C333.43 346.784 333.105 345.582 333.529 345.091C334.784 343.749 333.152 343.426 332.893 342.711C333.666 342.079 334.406 341.498 335.475 340.633C333.586 339.81 333.405 338.433 333.657 336.898C333.855 335.642 333.621 333.586 334.27 333.272C336.822 332.046 333.449 330.999 334.379 329.999C334.714 329.621 335.039 329.279 335.453 328.824C331.793 327.757 334.247 324.55 332.45 322.717C333.606 322.482 334.266 322.347 334.95 322.199C334.91 322.13 332.948 317.614 332.885 317.558C334.188 317.577 335.354 317.521 335.323 315.656C335.283 313.456 335.422 311.246 335.488 309.017L335.465 309.03C335.465 309.03 335.459 309.126 335.462 309.186C335.435 309.139 335.409 309.093 335.382 309.047C334.831 309.211 334.266 309.351 333.586 309.559C333.638 308.85 333.684 308.237 333.774 307.166C334.47 307.999 334.933 308.535 335.382 309.047L335.474 308.994C335.643 305.717 336.568 302.312 334.297 299.178C336.23 297.413 338.2 295.659 335.927 292.68C335.654 292.314 336.394 291.145 336.667 290.34C336.051 290.232 335.426 290.161 334.942 290.069C335.726 289.03 337.076 288.066 336.955 287.271C336.422 283.258 337.225 279.429 338.339 275.607C335.722 275.389 335.582 274.081 336.227 271.949C337.206 272.526 337.863 272.918 338.819 273.508C337.137 268.892 337.73 266.296 340.786 263.76C340.455 262.655 339.516 260.974 339.907 260.533C341.185 259.177 340.197 258.266 339.83 257.151C339.503 256.105 339.281 255.029 338.906 253.579C343.007 253.279 341.359 250.372 341.081 247.6C342.126 248.664 342.661 249.219 343.413 249.988C343.072 248.704 342.831 247.701 342.544 246.724C342.223 245.583 341.879 244.454 341.534 243.325C341.673 243.245 341.825 243.189 341.976 243.132C342.439 243.667 342.902 244.203 343.298 244.622C343.753 244.452 343.955 244.428 343.997 244.342C344.547 242.79 345.096 241.238 345.632 239.663C342.812 236.537 343.69 232.944 347.806 231.339C346.396 227.245 348.888 224.849 351.018 223.373C351.515 221.357 351.679 220.151 352.112 219.036C353.424 215.717 355.953 212.96 356.589 209.321C356.615 209.152 356.941 209.025 357.181 208.856C357.465 209.186 357.711 209.507 357.991 209.778C358.27 210.048 358.615 210.22 358.877 210.408C359.108 210.275 359.286 210.264 359.338 210.141C359.493 209.929 359.656 209.68 359.688 209.415C359.857 206.725 360.771 205.486 361.931 203.767C364.228 200.342 368.616 200.432 371.341 197.748C371.926 197.163 374.056 197.23 374.75 197.848C376.871 199.71 379.795 200.461 381.392 203.12C382.524 205.028 384.197 206.593 385.629 208.329C386.296 209.271 386.684 210.529 387.105 211.737C387.223 212.101 387.603 212.653 387.501 212.742C385.052 215.052 387.849 217.234 387.665 219.47C387.026 220.549 384.268 220.351 385.727 222.719C383.925 224.284 385.079 226.55 384.373 228.47C383.326 231.236 382.891 234.265 382.248 237.198C382.174 237.55 382.289 238.07 382.519 238.307C383.583 239.298 383.274 240.094 382.626 241.209C381.612 242.968 380.605 244.845 380.164 246.798C379.221 251.077 378.556 255.412 377.76 259.731C377.391 261.703 377.695 264.306 375.096 265.343C375.206 267.718 375.303 270.07 375.39 272.458C372.414 273.374 372.437 273.361 372.497 276.66C372.507 277.21 372.004 277.778 371.653 278.289C371.345 278.714 370.582 279.309 370.649 279.425C372.284 281.938 369.888 283.754 369.604 285.924C369.986 286.321 370.379 286.681 370.568 286.849C369.547 289.661 368.515 292.294 367.629 294.967C367.519 295.308 368.051 295.804 368.103 296.267C368.18 296.933 368.404 297.853 368.046 298.245C367.58 298.823 366.648 299.021 366.23 299.201C365.902 303.002 366.199 306.658 363.311 309.591C363.76 310.69 364.233 311.775 364.794 313.118C362.931 313.515 362.214 314.669 361.998 316.585C361.746 318.706 361.655 321.104 359.222 322.324C359.884 322.991 360.33 323.443 360.686 323.794C359.774 324.876 358.324 325.775 358.189 326.871C357.661 330.911 356.647 334.8 355.646 338.712C355.009 341.178 352.777 343.331 354.266 346.176C353.397 346.801 352.551 347.413 352.334 347.569C352.071 350.098 352.472 352.336 351.574 353.657C349.293 356.949 348.512 360.178 350.653 363.727C349.095 364.009 347.995 364.181 346.152 364.505C347.512 365.849 348.297 366.569 348.966 367.356C349.662 368.188 351.542 368.461 350.399 370.263C349.166 369.833 347.921 369.379 346.429 368.82C346.373 370.427 346.421 371.788 346.241 373.127C346.017 374.923 346.116 377.119 345.132 378.398C344.348 379.437 344.487 379.943 344.397 381.013C344.116 384.787 343.402 388.503 342.83 392.414C343.157 392.873 343.644 393.61 344.195 394.404C343.196 394.857 342.487 395.174 341.419 395.667C344.019 397.561 341.48 399.182 341.494 400.964C341.513 406.324 339.467 411.302 338.821 416.521C338.437 419.584 336.052 422.751 338.974 425.787C338.124 426.339 337.574 426.718 337.034 427.061C338.01 428.751 337.983 428.705 337.409 430.055C337.168 430.595 337.126 431.268 337.057 431.894C336.793 434.207 338.371 435.395 340.944 436.657C339.236 436.841 338.453 436.922 337.683 437.027C337.592 437.296 337.515 437.587 337.437 437.879C338.784 438.614 340.131 439.349 341.514 440.094C342.903 445.003 344.056 446.467 347.384 447.385C346.547 445.615 345.687 443.859 344.822 442.042C345.049 441.85 345.573 441.424 346.211 440.932C346.785 441.341 347.462 441.661 347.815 442.166C348.222 442.765 348.307 443.55 348.543 444.278C348.938 444.111 349.321 443.921 349.707 443.791C350.047 443.687 350.38 443.68 350.83 443.606C350.523 444.246 350.301 444.714 350.065 445.158C353.748 447.755 355.129 448.069 356.803 446.176C357.608 445.279 357.791 443.785 358.442 442.143C357.227 442.382 356.589 442.503 355.929 442.637C354.862 440.434 355.273 438.838 357.163 437.85C356.922 438.977 356.713 440.055 356.312 442.076C357.727 440.426 358.316 439.315 359.257 438.709C362.291 436.773 362.833 435.688 362.145 431.887C362.077 431.556 362.247 431.211 362.247 431.211C363.473 431.151 364.439 431.118 365.427 431.073C362.185 429.24 362.4 425.936 361.068 423.31C362.886 424.915 364.465 424.559 366.474 423.831C369.007 422.893 369.145 423.184 368.115 420.815C367.907 420.349 367.699 419.882 367.505 419.439C368.838 418.392 370.059 417.471 371.688 416.191C368.112 414.952 372.37 413.111 370.844 411.214C369.771 409.889 369.606 407.792 369.182 406.525C370.99 404.863 372.325 403.66 373.276 402.803C372.986 400.81 372.769 399.422 372.596 398.164C371.928 398.179 371.366 398.164 370.483 398.18C371.193 396.319 371.482 393.837 372.363 393.606C375.737 392.739 372.364 390.519 373.573 389.203C374.903 387.726 372.583 387.861 372.232 387.2C372.648 386.003 373.249 384.914 373.325 383.821C373.398 382.668 372.967 381.496 372.85 380.761C374.372 380.84 375.642 380.909 377.858 381.019C376.58 379.658 376.044 379.103 375.571 378.604C376.027 377.476 376.62 376.424 376.874 375.321C377.161 374.167 373.947 374.14 375.745 372.299C376.393 372.357 377.041 372.415 377.653 372.463C378.383 368.986 378.868 365.619 379.902 362.243C381.157 358.185 383.939 354.109 382.297 349.347C382.078 348.702 382.513 347.432 383.073 347.016C386.378 344.645 386.808 343.686 385.759 340.804C387.724 337.601 389.557 334.598 391.596 331.26C391.556 331.19 391.251 330.502 390.893 329.721C393.811 329.611 393.882 329.2 391.8 325.648C392.313 325.63 392.848 325.598 393.717 325.559C393.549 323.99 393.411 322.526 393.226 320.873C393.892 320.643 394.876 320.322 395.532 320.128C395.463 318.995 395.391 318.018 395.285 316.505C396.473 317.177 397.19 317.566 397.512 317.751C397.748 316.349 397.615 314.573 398.364 313.369C401.108 308.853 401.581 304.134 400.158 299.059C403.254 299.68 402.576 296.429 403.898 295.789C406.473 294.55 404.362 292.28 405.084 291.4C407.008 289.086 402.719 288.475 404.09 286.695C405.437 286.258 406.723 285.823 407.496 285.563C407.608 283.893 407.431 282.575 407.841 281.474C408.319 280.118 405.39 279.092 407.643 277.668C408.723 276.983 409.566 275.94 410.493 275.096C409.533 274.231 408.888 273.646 407.963 272.791C409.472 272.475 410.473 272.237 411.652 271.989C411.528 270.177 411.419 268.604 411.311 267.031C411.142 267.005 410.973 266.979 410.781 266.966C410.331 267.997 409.881 269.029 409.418 270.037C408.892 267.902 409.225 266.135 411.21 265.206C412.987 264.396 412.239 263.099 411.855 261.901C412.598 261.75 413.235 261.629 414.212 261.404C413.636 260.193 413.188 259.31 412.789 258.46C413.423 257.693 413.921 257.065 414.509 256.325C411.214 254.4 414.411 251.628 413.15 249.392C414.05 249.459 414.699 249.517 415.827 249.606C414.89 247.77 414.184 246.388 413.384 244.843C417.309 243.812 417.252 239.986 418.79 237.215C418.063 236.863 417.327 236.547 417.069 236.418C417.769 234.223 418.418 232.151 418.927 230.53C417.504 229.129 416.526 228.181 415.192 226.883C417.096 226.772 418.8 229.245 419.131 226.461C418.334 225.933 417.7 225.528 416.432 224.716C417.927 224.749 418.562 224.783 418.813 224.792C418.879 223.149 418.917 221.831 418.965 220.476C418.344 220.464 417.626 220.446 416.634 220.432C417.706 219.412 418.471 218.662 419.237 217.911C418.584 216.992 417.997 216.188 417.356 215.292C418.313 214.925 418.966 214.672 419.854 214.345C418.887 213.575 418.272 213.097 417.631 212.572C418.314 211.838 418.886 211.23 419.648 210.42C418.163 210.351 417.157 210.314 415.791 210.238C416.506 209.239 416.992 208.588 417.595 207.715C416.614 207.881 415.976 208.002 414.771 208.204C416.164 206.782 417.199 205.752 418.592 204.33C416.848 204.504 415.671 204.597 414.009 204.754C415.083 203.578 415.943 202.619 416.781 201.672C416.869 201.559 416.818 201.311 416.846 200.986C415.623 201.106 414.483 201.208 413.38 201.321C413.319 201.109 413.281 200.884 413.22 200.672L416.149 198.981C415.878 197.872 415.654 196.951 415.387 195.902C414.93 195.857 414.103 195.809 413.108 195.736C415.946 193.356 412.236 191.67 413.255 189.014L412.89 189.287ZM308.056 166.591C307.978 165.71 307.877 164.842 307.776 163.974C308.156 163.94 308.559 163.893 308.939 163.858C309.001 165.458 309.041 167.071 309.104 168.671C308.796 168.725 308.476 168.756 308.155 168.787C308.134 168.058 308.113 167.329 308.033 166.604L308.056 166.591ZM307.578 172.207C307.902 172.236 308.249 172.251 308.573 172.28C308.475 173.016 308.4 173.738 308.266 174.464C308.279 174.487 307.585 174.456 307.585 174.456C307.551 173.704 307.589 172.972 307.591 172.23L307.578 172.207ZM291.431 149.673L292.11 149.837C292.068 150.509 292.035 151.145 291.993 151.818C291.596 151.769 291.222 151.707 290.838 151.682C291.036 151.012 291.233 150.343 291.408 149.686L291.431 149.673ZM218.367 97.5832L217.583 98.036L214.522 92.7343C216.199 91.643 216.635 92.1321 218.367 97.5832ZM210.864 82.1902C209.713 81.5276 209.169 81.2243 208.575 80.8881C209.652 80.0194 210.415 80.4534 210.864 82.1902ZM213.342 88.8783C213.648 89.1954 214.359 89.8957 215.274 90.7876C211.913 92.0492 213.875 89.0027 213.342 88.8783ZM218.957 106.967C219.044 108.182 219.084 108.838 219.167 109.994C218.403 109.416 217.928 109.073 217.476 108.716C217.854 108.252 218.245 107.81 218.957 106.967ZM101.627 280.895C102.597 282.095 103.383 283.03 104.249 284.104C102.974 284.346 102.1 283.277 101.627 280.895ZM99.5394 271.42C100.341 272.223 102.493 272.061 101.264 274.406L99.5527 271.443C100.159 270.63 100.756 269.853 101.642 268.724C102.382 271.23 100.475 270.91 99.5394 271.42ZM107.039 269.868C107.306 268.788 107.506 267.962 107.697 267.173C108.147 267.315 108.865 267.332 109.002 267.624C109.592 268.858 109.213 269.693 107.039 269.868ZM133.137 240.879C132.366 240.182 131.595 239.485 130.846 238.775C130.945 238.625 131.043 238.476 131.141 238.327C131.991 238.947 132.819 239.581 133.669 240.201C133.492 240.427 133.338 240.639 133.16 240.865L133.137 240.879ZM117.12 212.497C115.58 210.948 114.661 209.41 117.225 207.405C117.175 209.502 117.148 211 117.12 212.497ZM124.291 209.684C124.049 209.639 123.794 209.57 123.576 209.511C123.691 208.858 123.796 208.241 123.948 207.598C123.948 207.598 124.427 207.63 124.669 207.676C124.567 208.352 124.429 209.018 124.305 209.707L124.291 209.684ZM115.924 190.345C115.759 190.965 115.571 191.598 115.37 192.208C115.397 192.255 115.423 192.301 115.437 192.324L115.275 192.417C114.833 193.568 114.377 194.696 113.924 195.883L112.761 193.869L115.275 192.417L115.327 192.295L115.347 192.222C115.024 191.822 114.478 191.303 114.563 191.131C115.478 189.306 114.468 188.037 112.726 186.511C115.268 187.328 116.322 188.602 115.887 190.335L115.924 190.345ZM119.804 175.973C119.89 174.844 119.95 173.883 120.033 172.909C120.321 172.928 120.645 172.957 120.933 172.976C121.2 174.025 122.024 175.185 119.804 175.973ZM136.242 200.13C135.868 200.068 135.494 200.006 135.143 199.931C135.272 198.93 135.392 197.966 135.521 196.965C135.918 197.014 136.338 197.049 136.338 197.049C136.341 198.066 136.285 199.086 136.265 200.117L136.242 200.13ZM123.458 161.424C124.18 160.544 123.61 157.693 126.287 159.667C125.726 160.824 125.187 161.969 124.583 163.213C124.347 162.485 121.791 163.436 123.481 161.41L123.458 161.424ZM133.75 176.534C136.039 177.25 136.778 178.583 135.117 181.085C134.564 179.275 134.168 177.898 133.75 176.534ZM138.48 183.928C138.36 183.72 137.968 183.36 137.986 183.071C138.247 181.5 138.893 180.541 140.852 181.91C139.967 182.668 139.263 183.26 138.457 183.941L138.48 183.928ZM141.255 179.147C140.029 178.249 139.415 177.77 138.189 176.873C139.702 176.617 140.518 176.485 141.925 176.259C141.671 177.363 141.529 177.97 141.232 179.16L141.255 179.147ZM142.475 172.577C142.144 172.644 141.828 172.735 141.511 172.825C141.264 171.918 141.017 171.011 140.77 170.104C141.123 170.024 141.44 169.933 141.793 169.853C142.017 170.773 142.228 171.67 142.475 172.577ZM145.053 152.382C144.746 152.436 144.438 152.49 144.118 152.521C143.902 151.349 143.677 150.213 143.462 149.041C143.842 149.007 144.185 148.963 144.565 148.929C144.731 150.068 144.887 151.243 145.03 152.396L145.053 152.382ZM171.708 85.6889C170.787 85.8505 169.889 85.9988 168.98 86.1836C168.903 85.889 168.848 85.581 168.77 85.2864C169.678 85.1017 170.563 84.9302 171.471 84.7455C171.539 85.0766 171.631 85.3943 171.699 85.7254L171.708 85.6889ZM198.329 173.236C198.6 173.172 198.871 173.108 199.155 173.068C199.295 173.789 199.435 174.511 199.588 175.256C199.377 175.316 199.143 175.39 198.918 175.427C198.719 174.709 198.519 173.99 198.343 173.259L198.329 173.236ZM120.581 369.01C121.073 369.436 121.494 369.686 121.672 370.047C121.779 370.232 121.374 370.651 121.178 370.949C120.793 370.709 120.339 370.508 120.01 370.204C119.933 370.125 120.261 369.627 120.558 369.023L120.581 369.01ZM130.171 387.272C129.245 387.159 128.547 387.068 127.63 386.918C128.571 386.169 129.418 386.287 130.171 387.272ZM131.486 389.816C132.29 390.463 132.905 390.942 134.008 391.787C132.077 391.852 130.957 391.881 131.486 389.816ZM135.919 395.097C135.503 395.122 135.073 395.123 134.657 395.147C134.603 394.468 134.536 393.766 134.459 393.101C134.839 393.066 135.513 392.955 135.543 393.061C135.739 393.72 135.819 394.445 135.933 395.121L135.919 395.097ZM152.161 400.167C153.064 401.251 153.966 402.335 155.292 403.885C152.822 403.335 152.429 401.802 152.161 400.167ZM202.953 358.927C202.424 359.448 201.668 360.163 200.261 361.561C200.693 358.688 201.004 356.564 201.325 354.403L202.185 354.4C202.428 355.834 202.685 357.291 202.953 358.927ZM200.838 268.499C200.373 268.119 199.921 267.763 199.479 267.37C199.646 267.18 199.922 266.805 199.971 266.838C200.443 267.122 200.881 267.455 201.329 267.752C201.165 268.001 200.988 268.227 200.824 268.476L200.838 268.499ZM220.773 257.915C219.475 256.412 219.382 255.292 221.573 254.027C221.252 255.602 221.03 256.656 220.773 257.915ZM225.775 225.301C226.031 224.412 226.3 223.547 226.806 221.866C227.982 223.903 227.918 224.804 225.775 225.301ZM247.9 167.644C248.064 166.222 248.215 164.993 248.343 163.777C249.232 165.033 249.085 166.322 247.9 167.644ZM276.598 151.785C277.729 149.002 279.098 150.681 280.211 150.532C280.243 150.854 280.311 151.185 280.343 151.506C279.249 151.582 278.132 151.671 276.622 151.772L276.598 151.785ZM298.533 206.661C299.011 206.849 299.452 207.027 299.906 207.227C299.612 207.891 299.296 208.567 298.989 209.208C298.671 209.083 298.329 208.971 298.011 208.846C298.182 208.13 298.363 207.377 298.533 206.661ZM297.689 214.094C298.034 214.265 298.379 214.437 298.737 214.631C298.126 215.756 298.886 217.818 295.87 217.707C296.585 216.337 297.137 215.215 297.703 214.117L297.689 214.094ZM281.89 271.309C282.152 271.497 282.438 271.672 282.7 271.86C282.369 272.298 282.051 272.76 281.733 273.221C281.484 273.056 281.199 272.881 280.95 272.717C281.268 272.255 281.572 271.771 281.89 271.309ZM281.478 275.282C282.955 276.776 281.518 277.482 281.124 278.45C280.686 278.332 280.249 278.214 279.825 278.119C280.365 277.19 280.905 276.261 281.478 275.282ZM252.083 315.714C252.411 315.802 252.729 315.927 253.057 316.016C252.78 316.762 252.491 317.485 252.214 318.231C251.996 318.172 251.777 318.113 251.545 318.031C251.712 317.255 251.902 316.466 252.083 315.714ZM244.038 393.178C242.869 392.803 241.722 392.416 240.248 391.939C241.478 391.353 241.758 389.494 243.658 390.495C245.114 391.26 244.74 392.155 244.038 393.178ZM267.768 411.056C267.087 411.048 266.421 410.907 265.746 410.803C265.793 410.406 265.831 410.044 265.878 409.647C266.603 409.784 267.351 409.908 268.076 410.045C267.979 410.409 267.864 411.062 267.768 411.056ZM275.003 416.078C274.557 416.211 274.061 416.097 273.594 416.088C273.609 415.74 273.516 415.207 273.655 415.127C274.047 414.901 274.573 414.906 275.306 414.792C275.168 415.458 275.168 416.044 275.016 416.101L275.003 416.078ZM275.152 404.138C276.626 405.201 277.39 405.778 278.539 406.597C276.242 407.305 276.131 405.888 275.152 404.138ZM246.393 339.681C245.93 339.516 245.429 339.342 244.952 339.155C245.213 338.541 245.497 337.914 245.771 337.324C246.208 337.442 246.658 337.583 247.109 337.724C246.875 338.384 246.627 339.021 246.417 339.667L246.393 339.681ZM286.216 405.992C285.449 404.984 284.646 403.966 283.866 402.934C285.452 403.284 286.334 404.226 287.012 405.347C286.739 405.567 286.466 405.786 286.216 405.992ZM260.253 347.761C259.617 347.511 259.004 347.248 258.381 347.021C258.498 346.799 258.592 346.375 258.688 346.381C259.3 346.429 259.915 346.536 260.531 346.644C260.434 347.009 260.35 347.397 260.267 347.784L260.253 347.761ZM318.348 385.588C318.084 385.556 317.796 385.537 317.531 385.505C317.582 384.58 317.655 383.643 317.706 382.718C318.03 382.747 318.391 382.786 318.715 382.815C318.605 383.743 318.481 384.647 318.348 385.588ZM324.023 364.686C323.617 364.674 323.215 364.35 322.807 364.123C323.003 363.824 323.209 363.489 323.57 362.941C324.022 363.298 324.397 363.575 324.736 363.842C324.503 364.131 324.261 364.672 324.046 364.673L324.023 364.686ZM325.52 356.413C325.483 355.231 325.483 354.644 325.473 354.094C325.46 353.485 325.433 352.852 325.442 352.229C326.733 353.614 327.716 354.837 325.52 356.413ZM317.72 339.494C317.254 339.485 316.763 339.275 316.313 339.133C316.436 338.815 316.496 338.225 316.697 338.201C317.133 338.104 317.62 338.255 318.401 338.329C318.057 338.96 317.912 339.507 317.733 339.517L317.72 339.494ZM329.027 229.864C327.711 227.691 329.198 227.018 329.506 226.007C329.811 226.109 330.102 226.187 330.407 226.289C330.026 227.281 329.646 228.272 329.027 229.864ZM336.82 206.504C336.107 205.589 335.587 204.901 334.91 203.995C336.245 204.212 336.882 205.049 336.82 206.504ZM362.969 177.176C362.581 176.876 362.192 176.576 361.803 176.275C362.306 175.707 362.808 175.14 363.334 174.558C363.59 174.843 363.883 175.137 364.139 175.421C363.746 176.018 363.363 176.579 362.969 177.176ZM345.247 440.594C344.671 440.555 344.086 440.554 343.507 440.456C343.434 440.436 343.503 439.81 343.509 438.17C344.281 438.867 344.729 439.164 345.042 439.6C345.212 439.842 345.179 440.262 345.247 440.594ZM341.342 432.445C340.375 430.699 340.557 429.204 341.89 427.962C341.727 429.383 341.563 430.805 341.342 432.445ZM351.021 372.991L352.237 375.098C352.043 375.241 351.862 375.407 351.645 375.564C351.125 374.876 350.582 374.202 350.062 373.514C350.385 373.328 350.684 373.155 350.984 372.982L351.021 372.991ZM365.413 398.452C365.024 398.152 364.567 397.891 364.316 397.511C364.223 397.349 364.572 396.623 364.751 396.612C365.203 396.598 365.661 396.858 366.44 397.088C365.964 397.702 365.712 398.064 365.436 398.439L365.413 398.452ZM356.555 359.887C355.889 359.16 355.237 358.457 354.585 357.753C354.881 357.52 355.177 357.287 355.463 357.091C356.023 357.848 356.597 358.628 357.157 359.385C356.953 359.565 356.772 359.731 356.568 359.91L356.555 359.887ZM374.848 371.119C374.304 369.272 373.991 368.249 373.639 367.001C375.085 367.731 375.488 369.103 374.848 371.119ZM369.877 310.153C369.592 309.978 369.343 309.813 369.057 309.638C369.113 308.402 369.825 307.559 371.533 307.375C370.993 308.304 370.417 309.224 369.877 310.153ZM374.508 293.619C373.919 291.428 374.516 289.478 375.708 287.123C377.127 290.007 374.863 291.624 374.508 293.619ZM386.139 250.17C385.838 250.128 385.523 250.062 385.222 250.02C385.448 249.026 385.673 248.031 385.862 247.027C386.127 247.059 386.391 247.092 386.646 247.161C386.457 248.165 386.305 249.179 386.116 250.183L386.139 250.17ZM406.842 255.936C406.704 256.016 406.229 255.672 405.911 255.547C406.188 255.017 406.416 254.453 406.744 253.955C406.79 253.928 407.357 254.218 408.007 254.491C407.554 255.092 407.286 255.587 406.865 255.922L406.842 255.936ZM370.852 176.608C371.326 175.778 371.745 175.012 372.585 173.539C373.12 175.885 372.542 176.908 370.852 176.608Z" fill="#0130A9"/>
<path d="M188.665 121.83C190.023 121.786 191.012 121.74 192 121.695C191.238 120.961 190.477 120.228 189.589 119.382C189.25 120.288 189.022 120.852 188.665 121.83Z" fill="#0130A9"/>
<path d="M174.082 184.766C173.956 185.826 173.789 186.602 173.823 187.354C173.842 187.652 174.29 187.949 175.242 189.066C174.649 187.186 176.666 186.206 174.082 184.766Z" fill="#0130A9"/>
<path d="M142.797 179.427C143.422 180.085 144.025 180.755 144.92 181.72C145.012 179.712 144.304 178.948 142.797 179.427Z" fill="#0130A9"/>
<path d="M94.2365 287.012C95.2872 287.979 96.248 288.845 97.2088 289.71C96.7978 288.465 96.4099 287.208 95.9552 285.834C95.2803 286.316 94.8555 286.592 94.2498 287.035L94.2365 287.012Z" fill="#0130A9"/>
<path d="M97.2106 289.709C97.2106 289.709 97.2642 289.802 97.2679 289.862L97.3372 289.822L97.3104 289.776C97.3104 289.776 97.2471 289.719 97.2106 289.709Z" fill="#0130A9"/>
<path d="M207.218 358.223C207.787 358.357 208.413 358.429 208.994 358.371C209.077 358.354 209.109 357.718 209.205 357.138C208.441 357.146 207.843 357.122 207.215 357.206C207.169 357.233 207.132 358.18 207.205 358.2L207.218 358.223Z" fill="#0130A9"/>
<path d="M138.537 219.825L138.499 219.971C138.545 219.944 138.564 219.871 138.62 219.808L138.551 219.848L138.537 219.825Z" fill="#0130A9"/>
<path d="M140.49 217.245C139.874 218.095 139.235 218.958 138.618 219.808C139.969 219.645 140.902 219.076 140.49 217.245Z" fill="#0130A9"/>
<path d="M115.595 358.304C114.997 358.279 114.388 358.291 113.79 358.266C113.772 358.554 113.744 358.879 113.726 359.167C114.338 359.215 114.963 359.287 115.588 359.358C115.603 359.01 115.617 358.662 115.618 358.291L115.595 358.304Z" fill="#0130A9"/>
<path d="M293.003 263.563C292.468 263.594 291.839 263.464 291.46 263.713C290.953 264.006 290.606 264.577 290.192 265.032C291.104 264.907 292.016 264.782 292.904 264.67C292.942 264.309 292.966 263.924 293.003 263.563Z" fill="#0130A9"/>
<path d="M93.0558 276.92C93.0704 277.159 93.0851 277.397 93.0998 277.636C93.7616 277.717 94.433 277.761 95.0948 277.842C95.279 277.149 95.4863 276.443 95.833 275.286L93.0424 276.897L93.0558 276.92Z" fill="#0130A9"/>
</g>
<defs>
<clipPath id="clip0_8056_6168">
<rect width="350.572" height="413.32" fill="white" transform="translate(0 175.286) rotate(-30)"/>
</clipPath>
</defs>
</svg>
