<svg width="204" height="241" viewBox="0 0 204 241" fill="none" xmlns="http://www.w3.org/2000/svg">
<path fill-rule="evenodd" clip-rule="evenodd" d="M17.0264 190.091C17.1412 190.393 17.2656 190.716 17.4095 191.081C17.8312 190.923 18.2111 190.785 18.5492 190.666C18.1209 189.989 17.7467 189.401 17.2643 188.635C18.0286 188.204 18.6468 187.841 19.1549 187.541C19.0084 187.089 18.8288 186.538 18.6782 186.049C19.2472 185.252 21.0989 185.496 19.7975 184.032C19.7379 183.958 19.9735 183.645 20.0824 183.443C20.2737 183.062 20.5108 182.698 20.6868 182.311C21.3237 180.949 20.99 180.203 19.4896 179.568C19.352 179.517 19.2536 179.36 19.1634 179.275C19.556 179.055 19.9012 178.869 20.2938 178.648C19.9688 177.784 19.6769 177.018 19.3851 176.253C19.3381 176.097 19.2967 175.926 19.2498 175.77C18.8863 176.053 18.5227 176.336 18.1648 176.604C18.1484 176.459 18.1265 176.33 18.1101 176.185C18.3994 175.442 18.7041 174.704 19.0982 173.721C17.9779 174.178 17.0816 174.543 16.0392 174.977C16.3398 174.203 16.5676 173.627 16.8178 172.991C15.3214 172.391 15.7664 173.733 15.3761 174.232C15.0957 173.956 14.8154 173.68 14.5601 173.43C12.9916 174.07 14.0063 174.944 14.1353 175.823C13.5634 175.302 12.9763 174.775 12.4045 174.254C12.6725 173.711 12.9015 173.274 13.2784 172.528C11.5408 172.967 10.3589 173.593 9.44394 174.957C9.17518 174.46 8.9646 174.088 8.75958 173.701C7.96996 174.059 7.87422 174.637 8.47239 175.434C7.92956 175.686 7.40762 175.928 7.19884 176.025C6.72413 177.655 6.32922 179.018 5.87688 180.587C5.9738 180.795 6.18143 181.27 6.41811 181.807C5.18555 182.761 4.04207 183.66 2.68274 184.723C3.90407 184.511 4.86932 183.72 5.92468 184.435C5.48619 185.35 4.93141 186.014 3.8961 186.38C4.39301 186.822 4.7039 187.109 5.06475 187.449C3.97756 188.716 4.62538 190.166 4.76471 191.396C4.89585 192.554 6.41012 193.246 6.81638 194.505C6.83986 194.583 7.04415 194.64 7.15264 194.628C7.92734 194.547 8.90595 194.714 9.40182 194.306C10.1191 193.719 10.6891 193.772 11.4538 193.861C12.5882 193.981 14.1839 192.935 14.4665 192.067C15.0684 190.138 15.1687 190.053 17.0208 190.107L17.0264 190.091ZM11.3844 175.337C11.4709 175.196 11.5421 175.048 11.6286 174.906C12.0539 174.975 12.6411 174.791 12.6571 175.837C12.168 175.659 11.7762 175.498 11.3997 175.343L11.3844 175.337ZM18.4251 180.583C18.8967 180.478 19.3683 180.373 19.8399 180.268C19.866 180.434 19.8712 180.609 19.8973 180.774C19.4272 180.828 18.9571 180.881 18.487 180.935C18.4594 180.82 18.4527 180.697 18.4251 180.583ZM12.0253 193.151C11.8211 191.672 12.8523 191.98 13.4145 191.769C13.0327 192.15 12.6453 192.545 12.0253 193.151Z" fill="#0130A9"/>
<path fill-rule="evenodd" clip-rule="evenodd" d="M106.249 196.948C105.995 197.168 105.598 197.543 105.659 197.756C105.944 198.917 104.859 199.422 104.525 200.288C104.452 200.487 104.028 200.557 103.694 200.712C103.875 199.981 104.004 199.438 104.138 198.881C103.939 198.808 103.726 198.73 103.527 198.657C102.793 199.81 100.967 200.443 102.153 202.506C102.428 202.988 102.039 203.626 101.335 203.559C100.483 203.473 100.23 204.022 99.7767 204.74C100.95 204.753 101.939 204.751 102.922 204.764C101.51 205.877 100.016 206.787 98.7068 208.423C99.719 208.498 100.407 208.559 101.044 208.619C100.584 209.213 100.114 209.787 99.5842 210.477C100.147 210.787 100.491 210.983 100.851 211.183C100.843 211.822 100.83 212.424 100.808 213.006C101.174 213.191 101.609 213.281 101.792 213.539C102.773 215.025 104.362 215.086 105.869 215.325C107.182 215.528 108.171 214.624 108.274 213.015C109.35 213.72 109.772 212.852 110.361 212.235C110.93 211.629 112.182 212.138 112.46 210.715C112.768 212.006 113.29 211.573 113.683 211.162C113.9 210.947 113.843 210.44 114.06 210.225C115.611 208.781 115.081 206.819 115.328 205.054C115.342 204.921 114.828 204.716 114.56 204.548C114.62 203.911 114.67 203.253 114.74 202.586C114.258 202.531 113.94 202.501 113.555 202.464C113.87 202.077 114.132 201.739 114.447 201.352C113.814 200.617 113.079 199.88 113.887 198.997C113.346 198.297 112.9 197.717 112.447 197.153C112.041 197.507 111.645 197.83 111.238 198.184C110.937 197.727 110.71 197.402 110.438 197.007C109.962 197.267 109.554 197.482 109.063 197.735C108.854 196.792 108.662 195.942 108.494 195.169C107.714 195.785 106.966 196.361 106.243 196.964L106.249 196.948ZM109.406 211.626C109.17 211.418 108.94 211.195 108.623 210.923C109.443 210.53 109.721 210.718 109.406 211.626ZM107.455 200.285C107.455 200.285 107.468 200.342 107.478 200.363C107.472 200.378 107.467 200.393 107.461 200.409C107.692 200.632 107.932 200.875 108.197 201.146C107.206 201.39 107.191 201.384 107.461 200.409L107.415 200.392C107.415 200.392 107.443 200.315 107.455 200.285C107.411 200.026 107.361 199.782 107.317 199.524C107.471 199.528 107.631 199.517 107.786 199.522C107.691 199.782 107.565 200.03 107.455 200.285ZM107.676 198.164C107.554 198.119 107.405 198.099 107.277 198.07C107.337 197.763 107.398 197.455 107.504 197.165C107.51 197.15 107.811 197.225 107.954 197.26C107.842 197.566 107.767 197.868 107.67 198.179L107.676 198.164Z" fill="#0130A9"/>
<path fill-rule="evenodd" clip-rule="evenodd" d="M62.5341 199.129C63.0352 198.186 62.6009 197.715 61.8356 197.296C61.7897 197.279 61.8624 197.081 61.8837 196.88C62.2565 196.809 62.6558 196.712 63.1788 196.609C62.9594 195.124 62.7593 193.681 62.548 192.269C63.3568 191.606 63.5057 190.851 62.9948 190.005C62.6511 189.429 62.3283 188.843 61.8612 188.082C61.6323 188.519 61.4955 188.798 61.3586 189.077C61.3586 189.077 61.3892 189.089 61.4045 189.094C61.4045 189.094 61.3683 189.098 61.3474 189.108C61.372 189.325 61.4175 189.532 61.3906 189.748C61.3552 190.082 61.2739 190.399 61.1434 190.992C60.5443 190.167 60.0881 189.566 59.3947 188.619C59.9644 188.862 60.38 188.91 60.5131 189.115C60.8471 189.671 61.0887 189.152 61.3474 189.108L61.3586 189.077C60.521 188.667 61.1593 187.964 61.1589 187.444C60.6352 187.218 60.1654 187.081 59.7558 186.827C59.0974 186.447 58.5386 185.654 57.6028 186.317C57.5346 186.361 57.1365 185.886 56.8853 185.673C56.7645 185.577 56.6228 185.49 56.6228 185.49C56.2578 185.825 55.9666 186.1 55.681 186.359C55.5644 186.299 55.463 186.245 55.3616 186.19C55.4261 185.919 55.485 185.663 55.579 185.264C53.8397 186.466 54.6595 187.494 55.7584 188.659C55.1369 188.605 54.8033 188.569 54.3056 188.509C54.2392 189.022 54.2034 189.546 54.0855 190.058C54.0195 190.38 53.8353 190.694 53.7026 191.01C53.839 191.632 53.9754 192.254 54.2303 193.404C53.5589 193.298 53.0724 193.206 52.483 193.112C52.9226 192.337 53.2868 191.672 53.6664 191.014C52.7605 190.648 52.6148 189.814 52.5053 188.977C51.8696 189.056 51.3578 189.129 50.6289 189.227C51.6924 190.725 50.1493 191.201 49.6482 192.144C50.2469 192.45 50.7692 192.728 51.6721 193.197C50.2677 193.862 49.0307 194.259 48.6761 195.655C49.1025 195.863 49.4735 196.033 49.9764 196.269C49.391 196.922 48.8489 197.504 48.2371 198.181C48.6788 198.395 49.0401 198.544 49.4207 198.736C48.8949 200.173 48.6014 201.591 50.2667 202.582C49.993 203.14 49.7584 203.592 49.5295 204.028C50.3269 204.407 51.002 204.74 51.6674 205.053C51.4881 205.733 50.9154 206.304 51.6651 206.907C51.7881 206.571 51.8888 206.296 51.9981 205.902C52.3742 206.248 52.6198 206.476 52.7809 206.605C53.4106 206.02 53.9721 205.48 54.5489 204.946L54.5183 204.935L54.5351 204.889C52.9153 204.816 52.8474 204.67 53.5901 203.208C54.6202 203.377 55.0489 203.863 54.5351 204.889C54.5504 204.894 54.5656 204.9 54.6018 204.896C54.5962 204.911 54.5697 204.936 54.5489 204.946C54.7457 205.26 54.9216 205.585 55.1863 206.046C55.6711 204.247 56.4663 202.925 57.7381 201.865C58.2014 202.398 58.5802 202.832 58.9186 203.233C60.3294 202.171 61.6399 201.195 62.8918 200.283C62.7439 199.882 62.3931 199.372 62.5188 199.124L62.5341 199.129ZM57.8738 187.092C57.2885 187.745 56.9164 188.146 56.5387 188.563C56.2126 187.559 56.4441 187.21 57.8738 187.092ZM62.3114 190.31C62.2685 190.901 62.2372 191.271 62.2043 191.693C61.5419 191.277 61.6206 190.872 62.3114 190.31ZM60.1386 192.081C60.6202 192.517 61.0769 192.927 61.5835 193.39C60.0087 193.715 59.813 193.54 60.1386 192.081ZM57.755 199.687C57.5895 199.713 57.289 199.776 57.2793 199.755C57.1951 199.465 57.1623 199.175 57.0933 198.89C57.2533 198.879 57.4132 198.868 57.5732 198.857C57.6268 199.137 57.6958 199.422 57.7494 199.702L57.755 199.687ZM56.2387 196.584C56.4001 196.521 56.5616 196.459 56.7286 196.381C56.8654 196.813 57.0021 197.244 57.1195 197.634C57.0554 197.715 57.0386 197.76 57.0066 197.801C56.7557 197.397 56.4896 196.987 56.2387 196.584ZM60.2037 199.057C60.383 198.377 60.801 197.992 61.472 198.29C61.6804 198.384 61.696 198.909 61.8604 199.455C61.114 199.269 60.654 199.152 60.1884 199.051L60.2037 199.057Z" fill="#0130A9"/>
<path fill-rule="evenodd" clip-rule="evenodd" d="M143.43 77.0962L143.476 77.1132L143.487 77.0822L143.43 77.0962Z" fill="#0130A9"/>
<path fill-rule="evenodd" clip-rule="evenodd" d="M147.019 74.5267C145.829 74.3687 144.782 74.2459 143.407 74.0723C144.184 75.1712 144.689 75.8759 145.159 76.5333C144.813 77.6204 144.187 77.5302 143.468 77.1283C143.207 77.605 142.967 78.0719 142.706 78.5485C142.503 78.4396 142.279 78.3405 142.061 78.2261C141.237 79.0573 141.083 79.937 141.598 80.8652C140.693 81.0194 140.165 81.4677 140.449 82.4906C140.52 82.7244 140.214 83.1328 139.991 83.3633C139.663 83.6937 139.259 83.9448 138.753 84.3319C139.275 84.28 139.631 84.2542 139.962 84.202C139.929 84.8139 139.897 85.3744 139.87 86.1102C139.276 86.3609 138.443 86.6974 137.63 87.0242C139.216 87.1884 139.374 88.6505 140.442 89.4745C139.713 89.4157 139.088 89.1007 138.57 88.5295C138.698 89.5993 138.519 90.6088 138.943 91.1103C139.758 92.1022 140.943 92.7956 141.999 93.6501C142.607 93.4565 143.231 93.2684 143.871 93.0345C144.454 92.8144 145.018 92.5525 145.654 92.2824C145.876 92.433 146.209 92.6589 146.542 92.8849C147.218 92.1266 147.825 91.4642 148.516 90.7116C147.895 90.2765 147.406 89.907 146.882 89.5417C147.265 89.1098 147.349 88.6898 148.08 89.0611C148.988 89.5148 150.054 89.87 150.915 89.6476C151.768 87.9313 152.518 86.4027 153.295 84.849C153.022 84.6454 152.67 84.3777 152.468 84.2174C153.202 83.2548 153.839 82.413 154.476 81.5712C154.38 81.5015 154.29 81.4165 154.194 81.3468C153.934 81.6329 153.673 81.9189 153.348 82.2856C153.083 82.0152 152.878 81.8187 152.628 81.554C153.022 81.2821 153.331 81.1004 153.615 80.8923C153.941 80.6648 154.257 80.4164 154.873 79.9654C154.103 79.8917 153.697 79.8646 153.23 79.815C153.353 79.2881 153.425 78.9502 153.512 78.6179C153.222 78.6508 152.933 78.6837 152.592 78.715C152.639 78.3507 152.667 78.0837 152.697 77.7652C151.908 77.6497 150.893 78.1973 150.572 77.1786C151.031 76.445 151.42 75.8073 151.863 75.1195C150.354 74.6022 149.185 75.6655 147.777 75.7228C147.472 75.2299 147.148 74.6952 147.015 74.4905L147.019 74.5267ZM140.606 87.7486C140.447 87.708 140.273 87.6618 140.115 87.6212C140.232 87.3001 140.355 86.9637 140.488 86.6482C140.58 86.6817 140.672 86.7153 140.754 86.7279C140.697 87.0714 140.641 87.4148 140.59 87.743L140.606 87.7486ZM143.126 84.458C142.694 83.9648 142.767 83.4827 143.343 83.0118C143.26 83.5708 143.202 83.9657 143.126 84.458ZM147.078 78.8651C147.197 78.8737 147.33 78.8878 147.448 78.8964C147.431 79.3234 147.419 79.7351 147.384 80.3985C145.98 79.6421 147.055 79.3074 147.078 78.8651ZM150.487 81.3429C150.526 80.5251 150.53 80.2317 150.547 79.8047C151.235 80.0563 151.827 80.2381 152.536 80.48C152.032 81.336 151.275 80.7991 150.493 81.3276L150.487 81.3429ZM150.062 80.043C149.506 79.6665 149.148 79.4141 148.623 79.0487C149.109 78.8103 149.407 78.6593 150.039 78.353C150.05 79.0332 150.055 79.399 150.062 80.043Z" fill="#0130A9"/>
<path fill-rule="evenodd" clip-rule="evenodd" d="M93.5815 157.192C93.4059 157.388 93.2359 157.568 93.0603 157.764C92.7856 157.473 92.5261 157.187 92.2667 156.902C92.0661 157.071 91.9408 157.129 91.892 157.215C91.744 157.525 92.1167 158.164 91.3674 158.081C91.1672 158.06 90.8477 157.891 90.7855 157.729C90.6334 157.292 90.7009 156.918 91.3198 156.885C91.4435 156.878 91.6069 156.574 91.674 156.39C91.8112 155.92 91.9082 155.418 92.0301 154.943C92.1908 155.262 92.3361 155.575 92.5233 155.869C92.5482 155.895 92.8197 155.769 92.9811 155.707C92.8607 155.42 92.725 155.128 92.6046 154.841C92.7937 154.182 92.9675 153.517 93.2266 152.572C92.0135 152.856 91.0133 153.08 89.6499 153.396C90.6558 152.446 91.4026 151.731 92.159 151.037C91.2087 151.314 90.3089 150.031 89.3794 151.009C89.2463 150.804 89.0924 150.609 88.944 150.399C87.9832 151.035 87.4318 152.117 85.9868 152.229C86.6068 151.624 87.0151 151.219 87.4386 150.819C87.411 150.705 87.4043 150.581 87.3767 150.467C86.4529 150.718 85.625 149.618 84.6202 150.707C84.7489 150.355 84.8119 150.135 84.8902 149.921C84.3809 150.082 84.023 150.35 83.8373 150.715C83.5692 151.258 83.4234 151.846 83.247 152.423C82.9894 153.317 82.394 153.429 81.5697 153.266C81.864 152.588 81.8277 152.008 81.4606 151.527C80.6456 152.287 80.8703 153.236 81.0716 154.107C80.4713 154.563 79.9393 154.975 79.3182 155.442C79.842 155.668 80.1059 155.799 80.5838 156.009C79.7778 156.459 79.207 156.788 78.5527 157.155C78.7256 157.583 78.8848 157.953 79.0439 158.323C79.5364 158.209 79.9719 158.108 80.4073 158.007C80.4873 159.683 78.9813 159.063 78.3739 159.586C78.4745 160.733 78.5613 161.822 78.6495 162.86C79.4291 162.434 79.9428 162.83 80.3238 163.542C79.64 164.037 79.0356 164.457 78.2628 165.007C79.7603 165.745 81.0233 166.225 81.6879 167.629C82.0715 168.428 83.7517 168.193 84.3833 167.367C84.5548 167.135 84.6615 166.654 84.8214 166.643C85.9562 166.573 85.79 165.558 86.1487 164.91C88.1096 165.471 88.2999 163.529 89.2126 162.598C89.5432 163.447 89.8407 164.197 90.1284 164.926C91.1588 164.905 90.7264 164.192 90.9136 163.775C91.112 163.327 91.5743 163.011 91.9352 162.64C91.8212 161.957 91.6863 161.284 91.5626 160.579C92.9475 160.583 93.361 160.353 93.0509 159.685C92.7158 158.99 92.8399 158.793 93.4525 158.445C93.7142 158.298 93.7265 157.696 93.8414 157.287C93.7497 157.253 93.658 157.22 93.551 157.181L93.5815 157.192ZM80.2457 160.913C80.6267 160.202 80.8821 159.741 81.22 159.102C81.6419 160.175 81.2754 160.561 80.2457 160.913Z" fill="#0130A9"/>
<path fill-rule="evenodd" clip-rule="evenodd" d="M128.052 111.362C128.332 110.928 128.537 110.604 128.899 110.043C127.372 110.854 127.246 108.97 126.118 109.164C125.016 109.714 125.001 110.94 124.442 111.897C126.249 112.263 126.284 112.311 125.825 113.565C125.428 113.419 125.042 113.243 124.574 113.055C124.664 113.66 124.719 114.079 124.791 114.591C123.922 114.55 123.223 114.52 122.524 114.489L122.565 114.47C120.961 113.883 120.718 114.071 120.652 115.816C121.135 115.68 121.623 115.529 122.106 115.394C122.152 115.601 122.182 115.803 122.227 116.01C121.615 116.688 120.988 117.36 120.339 118.093C120.221 117.704 120.147 117.434 120.049 117.086C118.65 117.926 119.701 118.796 119.817 119.567C119.901 120.568 118.21 120.314 118.474 121.485C118.979 121.479 119.448 121.477 120.034 121.484C119.178 122.974 120.061 124.111 120.533 125.238C121.024 126.405 121.554 127.657 122.946 128.305C123.912 127.133 124.944 127.77 126.09 128.38C126.164 127.8 126.386 127.24 126.211 127.055C125.882 126.674 125.305 126.498 124.844 126.243C125.246 125.777 125.887 125.555 126.769 125.577C127.064 126.049 127.35 126.5 127.635 126.951C127.354 125.445 127.938 124.323 128.676 123.206C130.093 123.88 128.495 124.839 129.091 125.768C130.009 124.821 130.906 123.883 132.433 124.494C132.056 123.819 131.797 123.342 131.42 122.667C132.261 122.784 132.769 122.866 133.343 122.954C133.444 121.968 133.526 121.08 133.631 120.13C133.176 120.189 132.721 120.248 131.853 120.346C132.998 118.875 132.445 117.165 133.439 115.916C132.903 115.772 132.351 115.622 131.717 115.46C132.066 114.981 132.356 114.567 132.613 114.244C132.086 113.601 131.603 113.025 131.105 112.445C129.609 113.596 129.098 111.867 128.052 111.362ZM123.834 121.851C123.25 121.932 122.94 121.975 122.557 122.025C122.727 121.134 123.027 120.932 123.834 121.851ZM122.896 117.642C122.646 118.088 122.406 118.555 122.058 119.173C121.74 118.953 121.453 118.744 120.943 118.384C121.588 117.995 122.101 117.681 122.621 117.351C122.705 117.451 122.79 117.551 122.88 117.636L122.896 117.642ZM130.812 119.498C130.791 118.796 130.789 118.189 130.77 117.575C130.961 117.575 131.151 117.576 131.336 117.591C131.154 118.184 132.019 118.899 130.812 119.498ZM127.871 116.688C126.475 116.385 126.405 115.25 125.686 114.467C126.421 114.493 126.941 114.493 127.471 114.513C127.617 114.445 127.773 114.398 127.919 114.331C127.898 115.051 127.893 115.777 127.877 116.673L127.871 116.688Z" fill="#0130A9"/>
<path fill-rule="evenodd" clip-rule="evenodd" d="M166.852 136.353C166.023 136.916 165.214 137.47 164.194 138.172C163.915 138.035 163.361 137.798 162.865 137.495C161.276 136.532 160.526 136.83 159.921 138.672C159.899 138.733 159.693 138.727 159.579 138.755C159.151 137.431 158.28 136.858 156.967 137.037C156.764 137.829 156.544 138.667 156.407 139.137C157.142 139.874 157.638 140.368 158.133 140.861C158.164 140.872 158.194 140.883 158.225 140.894C158.358 140.388 158.655 140.098 159.29 140.209C159.582 140.784 159.884 141.38 160.293 142.206C159.407 142.021 158.798 141.884 158.312 141.793C157.957 141.438 159.715 141.18 158.25 140.921C158.244 140.936 158.238 140.952 158.233 140.967C158.208 140.94 158.168 140.908 158.143 140.882C157.529 140.571 156.579 141.697 156.156 140.485C155.938 140.561 155.618 140.582 155.52 140.755C155.24 141.19 155.061 141.679 154.863 142.126C155.358 142.429 155.682 142.634 156.036 142.85C155.526 144.103 153.153 144.621 154.83 146.431C154.45 146.76 154.085 147.095 153.678 147.449C154.446 147.955 154.996 148.347 154.956 149.355C154.911 150.57 156.592 150.994 156.637 152.293C156.641 152.52 157.016 152.726 157.237 152.929C157.311 153.008 157.46 153.028 157.567 153.067C158.648 153.428 158.994 153.242 159.942 151.786L159.896 151.769C159.896 151.769 159.944 151.734 159.97 151.709C160.25 150.945 160.593 150.29 161.5 150.275C161.579 150.391 161.673 150.512 161.752 150.628C161.17 150.987 160.567 151.356 159.97 151.709L159.942 151.786C160.31 152.059 160.64 152.388 161.176 152.012C161.754 151.617 162.396 151.331 163.107 150.95C163.077 150.748 163.06 150.465 162.975 150.174C162.525 148.466 162.684 148.316 164.349 148.457C165.037 148.518 165.791 148.447 166.456 148.24C167.552 147.895 167.059 146.068 168.47 145.908C168.542 145.899 168.582 145.602 168.643 145.434C168.952 144.541 169.24 143.659 169.618 142.531C168.753 142.717 168.028 142.851 167.37 142.992C167.277 143.911 168.474 144.332 167.628 145.271C167.162 145.03 166.655 144.758 166.188 144.518C166.305 143.157 168.379 142.65 167.267 141.238C167.708 140.411 168.439 142.343 168.784 140.926C168.416 140.653 168.018 140.368 167.644 140.11C168.077 139.402 168.428 138.819 168.763 138.283C167.52 137.655 166.811 138.835 165.821 138.888C165.941 137.424 167.744 137.043 167.622 135.386C167.12 135.48 166.711 135.556 166.152 135.663C166.48 136.044 166.659 136.265 166.784 136.398L166.852 136.353ZM159.688 149.353C159.418 149.618 159.153 149.868 158.883 150.133C158.808 150.054 158.724 149.953 158.649 149.874C158.944 149.635 159.234 149.412 159.529 149.173C159.588 149.247 159.638 149.3 159.698 149.374L159.688 149.353ZM158.702 146.79C158.209 146.766 157.73 146.747 157.242 146.707L157.274 146.337C157.762 146.377 158.234 146.411 158.722 146.451C158.714 146.569 158.711 146.672 158.702 146.79ZM155.431 145.594C155.917 145.546 156.417 145.504 156.903 145.456C156.411 145.709 156.148 146.809 155.431 145.594ZM159.691 144.846C159.691 144.846 159.291 144.943 159.282 144.922C159.215 144.724 159.155 144.511 159.191 144.317C159.213 144.255 159.467 144.227 159.737 144.152C159.733 144.445 159.758 144.663 159.685 144.861L159.691 144.846ZM162.932 144.229C162.618 143.854 162.32 143.485 161.812 142.883C162.863 143.042 163.008 143.546 162.932 144.229ZM162.722 140.633C162.455 140.604 162.184 140.54 161.908 140.491C161.947 140.384 161.971 140.271 161.995 140.158C162.271 140.208 162.557 140.278 162.834 140.327C162.795 140.434 162.753 140.644 162.722 140.633Z" fill="#0130A9"/>
<path fill-rule="evenodd" clip-rule="evenodd" d="M87.1776 127.006C87.5311 126.181 86.5279 126.508 86.746 125.912C87.2843 125.814 87.3925 124.57 88.5038 125.133C88.414 125.568 88.3353 125.973 88.2566 126.377C88.0562 127.367 88.4927 127.88 89.5661 127.914C90.2002 127.002 90.377 126.234 90.0964 125.612C89.7594 125.87 89.4376 126.133 88.8527 126.595C89.5648 125.122 89.8915 123.803 91.3224 123.113C91.4446 123.868 91.5627 124.588 91.66 125.317C92.3147 124.759 93.0163 124.357 93.4555 123.772C93.8683 123.212 93.9131 122.379 94.3161 121.798C94.6871 121.258 95.3205 120.9 95.8749 120.427C95.4406 119.956 95.1257 119.633 94.8509 119.341C95.2361 118.667 95.5668 118.095 95.9576 117.406C94.2707 116.806 94.1591 118.343 93.3057 118.828C93.1726 118.623 92.877 118.342 92.9314 118.24C93.4046 117.373 93.5236 116.29 94.569 115.754C95.0186 115.519 95.2673 114.934 95.6144 114.506C95.4839 114.389 95.3744 114.263 95.2648 114.136C94.8177 114.458 94.3457 114.753 93.9237 115.101C93.6019 115.365 93.3786 115.786 93.0278 115.987C92.7717 116.119 92.3687 115.989 91.7151 115.975C92.1249 115.518 92.2893 115.353 92.4232 115.177C92.7494 114.759 93.2661 114.341 93.3046 113.904C93.3445 113.416 92.8949 112.939 92.2205 112.935C92.1691 112.934 92.124 112.536 92.0897 112.298L92.0953 112.283C91.7549 112.834 91.2964 112.667 91.1275 112.276C90.9337 111.858 91.0113 111.314 90.9707 110.762C92.3292 110.791 92.2207 111.514 92.08 112.277L92.0744 112.293C92.3314 111.78 92.5883 111.267 92.8019 110.825C92.0001 109.89 91.193 109.491 90.0924 109.799C90.3418 110.255 90.5427 110.605 90.8115 111.102C89.9663 110.949 89.4284 110.857 88.8752 110.758C88.6027 110.034 89.2883 109.297 88.9145 108.519C88.4575 107.589 87.5202 107.593 86.7437 107.205C85.9391 108.315 86.5949 108.607 87.7125 108.773C86.6682 109.448 87.9633 110.598 86.7773 111.187C86.0298 111.572 86.5468 113.096 85.2383 113.12C85.5273 111.857 85.2947 111.355 84.2594 111.011C83.733 112.119 83.4958 113.194 84.2346 114.348C84.4757 114.731 84.4858 115.272 84.5752 115.738C84.589 115.795 84.4164 115.888 84.2479 116.017C84.1025 115.704 83.9515 115.406 83.8103 115.129C82.3895 115.65 82.0595 116.552 83.0839 117.447C83.7418 118.017 83.9714 118.621 84.1894 119.446C83.5217 119.566 82.9681 119.658 82.4145 119.75C82.4145 119.75 82.3839 119.739 82.3687 119.733L82.3575 119.764L82.4298 119.756C82.2653 120.632 80.8911 120.788 81.0651 122.065C81.9062 121.471 82.6757 121.215 83.5652 122.147C82.9146 122.742 82.264 123.336 81.4602 124.065C82.3038 124.269 82.9431 124.416 83.6645 124.576C83.6119 125.146 83.5913 125.676 83.5346 126.21C83.416 127.103 83.5259 127.75 84.666 127.855C85.1178 127.899 85.5368 128.364 86.002 128.656C86.9054 128.224 86.697 128.13 87.1455 127.046L87.1776 127.006ZM87.7063 112.532C89.3273 112.033 89.294 113.356 89.817 113.963C89.732 114.054 89.6526 114.128 89.5675 114.219C88.9957 113.698 88.4392 113.182 87.7063 112.532ZM87.992 115.636C88.341 114.966 88.8845 115.044 89.7144 115.191C89.1494 115.851 88.5753 116 87.992 115.636ZM86.1832 114.09C86.6578 113.882 87.2678 113.447 87.5954 114.399C87.1723 114.608 86.77 114.808 86.1895 115.115C86.1821 114.662 86.0788 114.139 86.1929 114.111L86.1832 114.09ZM88.8262 117.051C89.2739 117.059 89.602 117.109 89.9275 117.072C90.2015 117.034 90.4673 116.923 90.7372 116.848C90.1051 117.692 89.4662 117.765 88.8206 117.066L88.8262 117.051ZM91.9808 117.997C92.9478 119.096 92.2935 119.463 91.4639 119.836C91.625 119.253 91.7791 118.738 91.9808 117.997ZM83.982 120.913C84.633 120.839 85.1489 120.803 85.779 120.738C85.7871 121.521 85.4508 122.109 84.4998 122.056C83.7698 122.014 83.6763 121.512 83.9764 120.928L83.982 120.913ZM85.1685 123.497C85.2382 123.401 85.2789 123.242 85.3721 123.225C85.7728 123.076 86.1624 122.959 86.6299 122.818C86.9934 123.246 87.3721 123.679 87.73 124.122C86.701 124.566 85.8402 124.361 85.1476 123.506L85.1685 123.497Z" fill="#0130A9"/>
<path fill-rule="evenodd" clip-rule="evenodd" d="M127.196 152.897C126.03 153.337 125.165 153.663 124.035 154.099C124.902 153.15 125.541 152.448 126.184 151.73C126.121 151.62 126.051 151.525 125.988 151.415C125.169 151.757 124.336 152.094 123.502 152.43C123.448 152.341 123.394 152.252 123.34 152.163C123.901 151.623 124.469 151.067 125.03 150.527C124.991 150.444 124.947 150.376 124.887 150.302C124 150.549 123.097 150.791 122.23 151.029C122.289 150.773 122.381 150.425 122.474 150.078C122.363 150.002 122.252 149.927 122.15 149.873C121.278 150.836 120.384 151.81 119.421 152.879C119.483 152 119.553 151.194 119.613 150.366C119.51 150.363 119.428 150.35 119.325 150.347C118.969 151.084 118.598 151.815 118.187 152.653C117.687 152.314 117.298 152.05 117.005 151.857C116.229 152.179 115.551 152.469 114.894 152.749C115.024 153.056 115.149 153.379 115.279 153.687L115.29 153.656C115.29 153.656 115.351 153.679 115.376 153.705C115.998 153.568 116.62 153.432 117.47 153.24C116.692 154.325 116.041 154.208 115.376 153.705L115.298 153.729L115.279 153.687C114.883 154.201 114.405 154.702 114.954 155.475C115.452 155.345 115.935 155.21 116.511 155.056C115.977 155.71 115.507 156.284 114.962 156.969C114.509 156.976 113.749 156.352 113.362 157.458C114.368 158.451 113.948 159.597 113.288 160.881C114.027 160.614 114.511 160.427 114.975 160.25C115.356 160.771 115.668 161.197 116.005 161.65C114.316 161.483 114.274 161.502 113.599 163.11C114.192 163.622 114.913 163.972 115.022 165C115.098 165.739 115.961 165.985 116.788 165.906C118.177 165.756 119.474 165.432 120.538 164.418C120.782 164.177 121.191 164.102 121.603 163.923C121.526 164.796 121.47 165.469 121.42 166.127C121.564 166.162 121.707 166.197 121.855 166.217C122.259 164.735 122.662 163.253 123.146 161.505C124.156 162.724 125.454 162.87 126.745 163.463C127.254 162.592 127.758 161.736 128.293 160.84C127.658 160.399 127.127 160.049 126.476 159.603C127.166 159.231 127.678 158.968 128.212 158.695C128.173 158.612 128.149 158.534 128.111 158.45C127.863 158.464 127.61 158.492 127.362 158.506C127.041 157.267 127.198 156.175 127.834 155.228C126.97 155.363 126.334 155.442 125.563 155.559C125.911 155.132 126.213 154.826 126.444 154.477C126.693 154.083 126.87 153.645 127.226 152.908L127.196 152.897ZM116.179 164.539C116.439 164.253 116.7 163.967 117.083 163.535C117.369 164.506 116.871 164.636 116.179 164.539ZM125.981 162.282C126.091 161.508 126.35 161.273 127.02 161.622C126.726 161.81 126.426 162.012 125.981 162.282ZM116.664 157.765C116.196 158.096 115.713 158.422 115.245 158.754C115.262 157.807 115.83 157.581 116.423 157.382C116.511 157.518 116.59 157.634 116.679 157.77L116.664 157.765ZM121.777 153.689C121.557 153.816 121.337 153.944 121.111 154.087C121.092 154.045 121.067 154.018 121.032 153.971C121.217 153.796 121.403 153.621 121.588 153.446C121.648 153.52 121.702 153.609 121.761 153.683L121.777 153.689Z" fill="#0130A9"/>
<path fill-rule="evenodd" clip-rule="evenodd" d="M171.721 37.7066C171.268 38.4249 170.852 39.0876 170.406 39.7392C169.939 40.4004 169.426 41.0449 168.943 41.7006L168.621 41.4441C169.133 40.6605 169.651 39.8616 170.168 39.0628C169.881 38.2063 170.075 37.4393 170.75 36.7618C170.325 36.6928 169.82 36.5084 169.724 36.6292C169.067 37.4292 168.507 38.2989 167.836 39.2324L167.369 39.1829C167.261 39.5249 167.214 39.8892 167.051 40.1936C167.006 40.3159 166.688 40.2861 166.496 40.3372C166.533 40.1426 166.569 39.9479 166.621 39.7588C166.333 39.5497 166.014 39.3808 165.753 39.1466C165.12 38.603 164.682 38.8067 164.259 39.5362C164.837 40.5624 165.428 41.6456 166.025 42.7135C165.931 42.7829 165.842 42.837 165.732 42.9008C165.053 42.1498 164.359 41.3933 163.616 40.5838C163.385 41.973 163.157 43.2592 162.939 44.5663C163.345 44.5934 163.745 44.6359 164.269 44.6716C164.248 45.0624 164.211 45.4476 164.182 45.9052C163.662 45.9057 163.209 45.9132 162.755 45.9208C162.74 45.9152 162.709 45.904 162.7 45.8831C162.7 45.8831 162.688 45.9137 162.683 45.9289L162.744 45.9513C162.26 46.4679 161.787 47.0053 161.244 47.5872C161.585 47.7464 161.879 47.8887 162.195 48.0214C161.268 49.6068 161.143 49.8556 162.979 50.2845C162.881 50.977 162.774 51.6487 162.677 52.3412C163.826 52.6576 164.633 52.3461 165.499 51.9693C165.833 51.8141 166.375 52.1336 166.804 52.2387C166.74 52.5098 166.765 52.8659 166.601 53.0312C166.081 53.5518 165.778 53.0075 165.415 52.7189C165.36 52.6812 165.198 52.7435 165.084 52.7711C164.94 54.0185 164.971 54.0297 165.872 54.3596C166.591 54.6224 167.162 54.6234 167.506 53.7783C167.685 53.2891 168.002 52.8501 168.242 52.3831C169.028 52.7921 169.652 53.1243 170.656 53.6477C170.299 52.633 170.071 51.9775 169.81 51.2231C170.304 50.8665 170.831 50.4697 171.404 50.0381C171.207 49.3766 171.3 48.8385 171.683 48.4237C171.734 48.6158 171.781 48.7716 171.807 48.9372C171.977 50.889 172.495 51.1306 174.081 50.0638C174.27 49.925 174.51 49.8392 174.738 49.784C175.795 49.5466 175.291 48.8419 175.129 48.1934C176.831 48.2786 176.48 47.0581 176.564 46.1179C175.327 46.1853 174.542 46.0081 174.211 45.5866C174.822 45.4806 175.36 45.3827 176.344 45.2051C175.121 44.5672 176.167 43.1295 174.822 42.828C174.96 41.7865 175.072 40.7699 175.219 39.6101C173.727 39.5671 173.154 38.0054 171.71 37.7372L171.721 37.7066ZM167.87 50.4616C167.518 50.5236 167.067 50.6187 166.674 50.7001C166.553 50.0837 166.429 49.5702 166.284 48.8759C166.796 48.8031 167.338 48.7414 167.835 48.663C167.843 49.2556 167.865 49.7661 167.87 50.4616ZM171.605 41.5301C171.323 42.2069 171.052 42.8533 170.721 43.6163C170.547 43.5701 170.209 43.4985 169.74 43.3614C170.082 42.5678 170.364 41.8909 170.712 41.082C171.123 41.2844 171.412 41.4421 171.605 41.5301ZM173.516 40.2872C172.756 40.564 172.026 41.0426 171.429 39.9747C172.898 39.0384 172.934 39.0343 173.516 40.2872Z" fill="#0130A9"/>
<path fill-rule="evenodd" clip-rule="evenodd" d="M168.747 114.009C169.865 112.372 171.273 111.604 173.074 111.795C173.86 110.025 174.475 109.025 174.917 108.794C174.855 109.534 174.793 110.222 174.734 110.859C175.092 111.111 175.425 111.337 175.854 111.633C176.053 110.475 177.458 110.139 177.31 108.837C177.187 107.752 177.11 106.683 176.478 105.759C176.478 105.759 176.489 105.728 176.495 105.713C176.495 105.713 176.489 105.728 176.484 105.743C176.483 104.703 176.461 103.672 176.458 102.735C177.059 102.608 177.473 102.517 178.282 102.344C176.776 101.343 175.952 103.122 174.856 102.565C175.755 101.576 176.654 100.588 177.553 99.5988C176.686 99.8365 175.885 100.133 175.262 100.65C174.639 101.168 174.279 102.059 173.024 101.652C173.955 100.814 174.811 100.035 175.662 99.2713C174.333 99.8253 174.666 98.3001 174.102 98.0417C173.745 98.4486 173.411 98.7944 173.086 99.161C172.625 98.1949 172.243 97.3443 171.72 96.2167C171.458 96.8839 171.126 97.3173 171.139 97.7554C171.166 99.8628 171.187 99.8531 169.189 99.4865C169.097 99.4529 168.98 99.5835 168.792 99.6707C168.751 101.112 168.046 102.137 166.551 102.387C166.869 102.798 167.101 103.109 167.35 103.425C166.732 103.078 166.375 103.485 166.135 103.951C166.101 104.043 166.488 104.358 166.688 104.57C165.981 105.178 165.258 105.78 164.63 106.313C165.046 106.691 165.372 106.984 165.723 107.303C165.28 107.661 164.953 107.94 164.616 108.198C164.653 108.333 164.696 108.453 164.739 108.572C165.266 108.505 165.814 108.428 166.341 108.361C167.033 109.36 165.716 109.693 165.728 110.512C166.191 110.716 166.653 110.92 167.125 111.144C166.852 111.513 166.649 111.785 166.494 111.971C166.986 112.758 167.41 113.398 167.802 114.079C168.307 114.974 168.984 115.066 170.091 114.691C169.529 114.381 169.179 114.201 168.804 113.995L168.747 114.009ZM169.364 100.903C169.611 100.75 169.857 100.598 170.104 100.445C170.158 100.534 170.212 100.623 170.271 100.697C170.025 100.85 169.794 101.008 169.542 101.176C169.488 101.087 169.418 100.992 169.364 100.903ZM167.965 107.759C168.286 107.547 168.6 107.35 168.92 107.138C168.969 107.242 169.033 107.352 169.091 107.477C168.776 107.674 168.467 107.856 168.168 108.058C168.098 107.964 168.035 107.854 167.965 107.759ZM169.186 110.581C168.468 109.416 168.47 109.365 170.01 108.802C169.972 109.238 169.929 109.639 169.881 110.055C170.175 110.197 170.464 110.355 170.876 110.557C170.361 111.063 169.938 111.462 169.461 111.912C169.358 111.389 169.377 110.911 169.176 110.56L169.186 110.581Z" fill="#0130A9"/>
<path fill-rule="evenodd" clip-rule="evenodd" d="M160.8 133.289C160.629 134.042 160.392 134.596 160.381 135.147C160.371 135.646 160.598 136.163 160.764 136.847C161.092 136.187 161.354 135.659 161.639 135.07C162.181 136.291 163.108 136.977 164.022 136.895C164.595 136.845 164.768 136.561 164.552 136.014C163.869 135.938 163.172 135.856 162.283 135.774C162.261 135.124 162.252 134.531 162.223 133.758C161.872 133.629 161.341 133.47 160.791 133.269L160.8 133.289Z" fill="#0130A9"/>
<path fill-rule="evenodd" clip-rule="evenodd" d="M81.2898 117.972C81.264 119.037 81.6733 119.482 82.3987 119.678C82.7362 119.229 83.0889 118.786 83.581 118.151C82.6509 118.088 81.978 118.033 81.2842 117.987L81.2898 117.972Z" fill="#0130A9"/>
<path fill-rule="evenodd" clip-rule="evenodd" d="M88.0903 149.133C87.7809 148.795 87.4923 148.446 87.1233 148.034C86.686 148.377 86.2904 148.7 85.8683 149.048C86.8006 149.69 87.5463 149.72 88.1055 149.139L88.0903 149.133Z" fill="#0130A9"/>
<path fill-rule="evenodd" clip-rule="evenodd" d="M86.2203 168.11C87.0122 167.083 87.5476 166.377 88.2642 165.46C86.5582 166.05 86.3923 166.266 86.2203 168.11Z" fill="#0130A9"/>
<path fill-rule="evenodd" clip-rule="evenodd" d="M83.8698 148.543C83.3221 149.14 82.7688 149.752 82.2211 150.349C82.3169 150.419 82.4127 150.489 82.5085 150.559C83.5221 149.462 83.9707 148.788 83.8545 148.537L83.8698 148.543Z" fill="#0130A9"/>
<path fill-rule="evenodd" clip-rule="evenodd" d="M94.6234 163.449C93.9691 163.106 93.6623 162.855 93.3302 162.768C92.9007 162.663 92.4362 162.701 91.9941 162.678C92.0559 163.03 92.129 163.352 92.2143 163.781C92.9584 163.69 93.5788 163.604 94.6234 163.449Z" fill="#0130A9"/>
<path fill-rule="evenodd" clip-rule="evenodd" d="M52.8366 188.368C52.9138 187.304 52.1966 187.18 51.2653 186.978C51.26 188.225 52.189 188.148 52.8366 188.368Z" fill="#0130A9"/>
<path fill-rule="evenodd" clip-rule="evenodd" d="M56.3317 205.579C56.6001 205.556 56.8685 205.532 57.1313 205.525C57.0877 205.075 57.0497 204.611 57.0062 204.161C56.7948 204.171 56.5681 204.174 56.3359 204.193C56.3377 204.662 56.3242 205.125 56.3261 205.594L56.3317 205.579Z" fill="#0130A9"/>
<path fill-rule="evenodd" clip-rule="evenodd" d="M143.43 77.0962L143.508 77.0724C143.508 77.0724 143.456 77.0709 143.435 77.0807L143.43 77.0962Z" fill="#0130A9"/>
<path fill-rule="evenodd" clip-rule="evenodd" d="M141.828 77.3588C142.439 77.2528 142.935 77.1744 143.417 77.0904C143.323 76.5881 143.25 76.0761 143.13 75.2691C142.584 76.1444 142.249 76.6807 141.828 77.3588Z" fill="#0130A9"/>
<path fill-rule="evenodd" clip-rule="evenodd" d="M164.704 135.622C164.833 135.791 165.329 135.903 165.456 135.793C166.02 135.341 165.48 134.97 165.259 134.577C165.225 134.53 165.19 134.483 165.146 134.414C164.557 134.65 164.196 135.02 164.704 135.622Z" fill="#0130A9"/>
<path fill-rule="evenodd" clip-rule="evenodd" d="M178.353 105.231C178.488 105.194 178.576 105 178.799 104.77C178.31 104.591 177.882 104.434 177.337 104.218C177.033 104.765 176.766 105.257 176.484 105.744C176.925 104.917 177.73 105.419 178.347 105.246L178.353 105.231Z" fill="#0130A9"/>
<path fill-rule="evenodd" clip-rule="evenodd" d="M121.98 112.294C121.978 112.727 121.908 113.013 121.978 113.247C122.121 113.663 122.362 114.046 122.552 114.428C122.832 113.993 123.112 113.558 123.408 113.129C122.922 112.847 122.537 112.619 121.98 112.294Z" fill="#0130A9"/>
<path fill-rule="evenodd" clip-rule="evenodd" d="M153.745 87.7876C153.08 88.2148 152.725 88.6973 152.678 89.2351C153.395 89.0291 153.702 88.5692 153.745 87.7876Z" fill="#0130A9"/>
<path fill-rule="evenodd" clip-rule="evenodd" d="M171.934 114.291C172.244 113.728 173.192 113.884 173.108 112.883C172.608 113.255 172.098 113.606 171.598 113.978C171.714 114.089 171.829 114.2 171.929 114.306L171.934 114.291Z" fill="#0130A9"/>
<path fill-rule="evenodd" clip-rule="evenodd" d="M106.295 194.678C106.144 195.091 106.018 195.531 105.882 195.949C106.035 196.005 106.187 196.061 106.34 196.117C106.512 195.694 106.694 195.293 106.86 194.885C106.677 194.818 106.478 194.746 106.295 194.678Z" fill="#0130A9"/>
<path fill-rule="evenodd" clip-rule="evenodd" d="M161.678 152.006C161.227 152.621 161.001 152.955 160.609 153.505C161.684 153.551 161.885 153.192 161.678 152.006Z" fill="#0130A9"/>
<path fill-rule="evenodd" clip-rule="evenodd" d="M162.269 44.5833C161.834 45.2043 162.283 45.5417 162.716 45.8735C162.779 45.4633 162.858 45.0587 162.927 44.6332C162.696 44.6008 162.339 44.4875 162.269 44.5833Z" fill="#0130A9"/>
<path fill-rule="evenodd" clip-rule="evenodd" d="M95.553 123.451C95.5971 122.999 95.6411 122.547 95.6907 122.08C95.5211 122.07 95.3459 122.075 95.1762 122.065C95.1989 122.524 95.2008 122.993 95.2235 123.452C95.3264 123.455 95.4501 123.448 95.5683 123.457L95.553 123.451Z" fill="#0130A9"/>
<path fill-rule="evenodd" clip-rule="evenodd" d="M120.934 148.303L120.68 148.713L121.7 149.572C121.791 149.466 121.882 149.36 121.972 149.255C121.636 148.941 121.285 148.622 120.944 148.324L120.934 148.303Z" fill="#0130A9"/>
<path fill-rule="evenodd" clip-rule="evenodd" d="M178.358 107.59C178.516 107.301 178.689 107.017 178.862 106.734C178.766 106.664 178.665 106.61 178.569 106.54C178.371 106.797 178.173 107.054 177.99 107.317C178.111 107.413 178.252 107.499 178.373 107.596L178.358 107.59Z" fill="#0130A9"/>
<path fill-rule="evenodd" clip-rule="evenodd" d="M16.8054 192.887C17.0406 192.765 17.2606 192.637 17.4861 192.494C17.3974 192.358 17.2658 192.102 17.2449 192.111C17.0153 192.218 16.805 192.366 16.585 192.494C16.6585 192.625 16.7319 192.756 16.7901 192.881L16.8054 192.887Z" fill="#0130A9"/>
<path fill-rule="evenodd" clip-rule="evenodd" d="M64.0072 195.335C64.1303 194.998 64.2381 194.656 64.3402 194.33C64.1971 194.294 64.0539 194.259 63.9205 194.245C63.8794 194.594 63.8175 194.953 63.7765 195.302C63.8529 195.33 63.9196 195.337 64.0016 195.35L64.0072 195.335Z" fill="#0130A9"/>
<path fill-rule="evenodd" clip-rule="evenodd" d="M131.007 111.123C131.118 111.008 131.224 110.908 131.336 110.793C131.094 110.6 130.852 110.408 130.611 110.215C130.552 110.281 130.488 110.361 130.409 110.436C130.603 110.663 130.813 110.896 131.007 111.123Z" fill="#0130A9"/>
<path fill-rule="evenodd" clip-rule="evenodd" d="M153.194 77.2695C153.516 77.3355 153.844 77.3861 154.586 77.5363C154.066 77.2071 153.91 77.0636 153.727 76.9965C153.574 76.9405 153.376 77.007 153.201 77.0122C153.204 77.0999 153.191 77.1819 153.194 77.2695Z" fill="#0130A9"/>
<path fill-rule="evenodd" clip-rule="evenodd" d="M167.48 37.4042C167.224 37.7264 166.982 38.0543 166.747 38.3668C166.827 38.4309 166.892 38.4894 166.979 38.5383C167.234 38.2675 167.494 37.9815 167.74 37.6898C167.655 37.5895 167.57 37.4892 167.486 37.3889L167.48 37.4042Z" fill="#0130A9"/>
<path fill-rule="evenodd" clip-rule="evenodd" d="M161.116 44.7301C160.969 44.9885 160.823 45.247 160.676 45.5055C160.787 45.5808 160.889 45.6352 161 45.7105C161.137 45.4312 161.274 45.1518 161.411 44.8725C161.304 44.8334 161.217 44.7845 161.116 44.7301Z" fill="#0130A9"/>
</svg>
