<svg width="120" height="60" viewBox="0 0 120 60" fill="none" xmlns="http://www.w3.org/2000/svg">
<g clip-path="url(#clip0_8044_6845)">
<path d="M18.7734 4.60474L19.1016 4.75654C19.086 4.66377 19 4.60474 18.7734 4.60474Z" fill="#FF5C4D"/>
<path d="M93.9141 2.03347C93.9141 2.03347 93.9609 2.0076 93.9844 1.99036C93.9375 2.0076 93.9141 2.01622 93.9141 2.03347Z" fill="#FF5C4D"/>
<path d="M30.8125 10.036H30.7969C30.7969 10.036 30.7422 10.0705 30.7266 10.0964L30.8125 10.036Z" fill="#FF5C4D"/>
<path d="M16.2998 11.2589C18.097 10.9637 19.2926 11.0649 20.5038 11.1071C21.7228 11.1577 22.934 11.1408 24.9188 10.7782C26.8645 10.6854 28.9118 10.3059 30.8029 10.036C31.6546 9.26013 33.2878 9.84206 34.3192 9.16737L34.7568 9.53845C35.1085 9.31074 35.5304 9.13363 35.9133 9.32761L35.8977 9.44568C36.4291 9.0999 37.0542 9.24327 37.3199 9.0746L37.3043 9.19267L37.9685 9.0999L37.8669 9.27701C38.8046 8.88906 39.7892 8.81316 40.6644 8.90593L40.5706 8.42521C42.4538 8.84689 43.0868 7.80955 44.7981 8.36617L44.7824 8.48424C46.8532 7.08426 48.1738 9.18423 50.3071 7.86858C50.0414 8.02882 50.4321 8.11316 50.4165 8.23123C51.4167 8.04569 52.495 7.92762 52.4794 6.96619C53.2139 6.94932 53.0889 7.2445 53.1983 7.60714C53.1827 7.18546 53.8156 6.98305 54.3861 6.94089L54.1282 7.10956L55.7692 6.91559L55.4253 6.13126C56.3083 6.33366 55.6754 7.09269 56.5037 6.87342L56.4724 6.21559C57.6836 6.30836 58.4182 7.28667 59.5981 7.73365C64.4507 7.91076 69.655 6.13969 74.1794 7.3204L74.3747 7.81799C74.4607 8.54328 75.625 6.74692 75.7891 7.41317L76.3126 7.08426C76.4611 7.21076 76.7737 7.35413 76.508 7.51437C76.9925 7.53967 77.0081 7.4216 77.3597 7.21076L77.8755 7.66618C79.79 8.03726 81.4231 7.17703 83.4392 7.3963C85.8459 8.35774 90.4094 7.62401 93.0584 7.23606C96.7936 6.28306 100.974 9.36134 104.795 8.34087C104.913 8.45051 105.241 8.23967 105.241 8.15533L108.687 8.47581C108.687 8.47581 109.734 8.56015 111.109 8.57701C112.484 8.60232 114.188 8.57702 115.509 8.34087C118.142 7.86016 119.283 6.51077 113.063 3.04455L113.156 2.89274C111.273 2.36142 110.07 2.21805 108.718 2.92648C108.562 1.93974 107.155 2.72406 106.725 2.38672L106.772 2.31082C105.569 2.98551 104.405 1.56023 103.248 2.16745C103.295 2.09155 103.334 1.8301 103.592 1.82167C102.771 1.89757 101.638 2.05781 101.599 1.49275C99.638 1.53492 96.9186 1.17228 95.6293 2.01564L95.7231 1.86384C94.9885 2.44576 94.7932 1.906 93.9883 2.19275C93.9492 2.11685 93.8945 2.07468 93.9024 2.04937C93.1053 2.62286 91.6284 2.07468 90.9955 2.31082L90.9642 1.9313L89.417 1.96504L89.9953 2.06624C89.7687 3.09515 88.8388 1.37468 87.6979 2.02407C86.6508 1.87227 85.5256 4.12405 84.4472 3.59273C83.9237 4.06501 84.9161 2.81683 84.1346 3.17105C84.119 2.63129 84.5019 2.84214 84.3066 2.40359C83.5408 2.64816 83.0641 1.82166 82.1186 2.17588L82.0873 1.7542C80.8527 2.50479 79.7743 1.17228 78.946 1.89757C77.6801 2.22648 78.1021 0.640958 76.7815 1.45059L76.2736 0.885535C75.711 0.792765 75.8672 1.57709 75.2421 1.30722C75.2812 0.953004 74.4529 1.02047 74.8201 0.683126C73.398 0.126506 71.9367 1.46746 70.0691 0.539756C69.6706 1.23975 68.7251 0.834931 68.4281 1.35782C68.3734 1.05421 66.5449 1.32408 67.592 0.657826C67.6858 0.607224 67.8421 0.607224 67.8343 0.733729L67.9593 0.320479C66.8809 -0.446982 66.0214 0.767463 64.9665 0.657826C65.279 0.784331 65.6932 0.750594 65.4197 1.03734L64.4429 1.00361L64.6383 0.649391L63.177 0.480717L63.388 0.902399C62.6691 0.699992 62.4034 -0.0252985 61.6064 0.598791C61.2469 0.94457 62.294 1.16384 61.5438 1.31565C60.5827 1.04577 59.1449 0.624092 57.9181 0.539756C58.0431 1.02047 57.7149 1.01204 57.3789 1.12168L57.332 0.699994C56.0505 1.32408 56.8319 -0.210839 55.5582 0.295179L55.6598 0L55.3472 0.885535C54.2141 1.7542 54.6986 0.0337366 53.4405 1.21445C53.9485 1.13011 53.7062 2.12528 53.0811 1.97347L53.2296 1.56023C52.8857 1.66143 52.7763 1.83853 52.5419 1.76263C52.7373 1.53492 52.6279 1.17228 52.1278 1.25661L52.456 0.733729L51.5183 1.51806C50.7603 1.11324 49.6038 1.71203 49.2756 1.14698C49.2756 1.14698 47.6659 0.927703 47.322 1.57709C47.6268 1.17228 46.736 1.07107 46.9704 0.598791C46.5719 1.06264 45.3685 1.48432 44.8528 1.03734L44.9465 0.978302C43.1102 0.598788 41.8756 1.78793 40.2268 1.31565C40.3284 1.79637 39.4532 1.58553 39.6954 2.19275C38.0544 2.90961 36.5619 1.12167 36.0618 3.07828C35.3038 3.23852 35.1319 2.69033 34.7334 2.62287L34.9131 2.5048C33.4909 2.76624 33.0768 2.81684 32.0141 2.85057C31.4983 3.07828 31.4749 3.97225 30.5059 3.82888C30.7872 3.44936 30.4043 3.54213 30.0527 3.57586C30.2793 3.49996 30.334 3.36503 29.8574 3.16262C29.8027 3.28069 29.7011 3.35659 29.6151 3.41562C29.6151 3.39032 29.5917 3.36502 29.5995 3.33129C29.0134 3.5084 29.1228 3.6096 29.4041 3.6349C29.3963 3.69394 29.4198 3.7614 29.5135 3.84574C28.865 3.44093 27.8022 4.02285 27.685 3.41562C25.9112 3.7108 24.6922 4.4361 23.2153 4.81561C23.0199 4.52043 23.3481 4.20839 23.7701 4.04815L22.7152 4.26742C22.6839 3.81201 23.3091 3.94695 23.6216 3.82888C22.2854 3.22165 21.0742 4.81561 19.4958 4.36863L19.2301 4.765L19.1363 4.72284C19.1676 4.90838 18.8628 5.21199 18.6518 5.31319C18.3861 4.95898 18.5424 4.41079 17.7923 4.5626C17.1437 4.28429 16.1278 5.06862 15.4011 5.45657C15.8309 5.42283 15.7371 5.66741 15.5887 5.84452C15.2214 5.94572 14.9245 5.61681 14.6744 5.84452L14.5259 5.33849C14.776 5.77704 13.6664 6.13126 13.5882 6.38427C13.2835 6.06379 14.0805 5.89511 14.1118 5.58307C12.6193 6.06379 13.3616 5.80235 11.8847 6.35053C11.2127 7.00836 12.1739 6.77222 11.9316 7.3457C11.2831 7.71678 10.7517 8.29027 9.88431 8.36617L10.2985 8.68665C9.75147 9.1252 9.31388 9.44568 8.8841 9.65652C8.4465 9.85049 8.02454 9.96856 7.52443 10.0192C5.83657 12.2625 5.53963 13.8902 5.55526 14.7757C5.58651 15.6866 5.96941 16.0577 6.49296 16.0577C6.98525 16.1336 7.52443 15.948 7.96202 15.7878C8.41525 15.636 8.73563 15.4589 8.73563 15.4589C10.1656 14.936 11.0721 14.3541 12.1192 13.5697C13.1663 12.8107 14.3697 11.8914 16.3388 11.2252L16.2998 11.2589Z" fill="#FF5C4D"/>
<path d="M97.5469 48.7557L97.2415 48.9075C97.256 48.8148 97.336 48.7557 97.5469 48.7557Z" fill="#FF5C4D"/>
<path d="M27.625 46.1845C27.625 46.1845 27.5809 46.1586 27.5589 46.1414C27.603 46.1586 27.625 46.1672 27.625 46.1845Z" fill="#FF5C4D"/>
<path d="M86.3332 54.187H86.3479C86.3479 54.187 86.3994 54.2215 86.4141 54.2474L86.3332 54.187Z" fill="#FF5C4D"/>
<path d="M99.8447 55.4099C98.1723 55.1147 97.0597 55.2159 95.9326 55.2581C94.7982 55.3087 93.6711 55.2918 91.8241 54.9292C90.0135 54.8364 88.1083 54.4569 86.3486 54.187C85.556 53.4111 84.0362 53.9931 83.0764 53.3184L82.6691 53.6894C82.3419 53.4617 81.9493 53.2846 81.5929 53.4786L81.6075 53.5967C81.113 53.2509 80.5313 53.3943 80.2841 53.2256L80.2986 53.3437L79.6805 53.2509L79.775 53.428C78.9024 53.0401 77.9862 52.9642 77.1718 53.0569L77.2591 52.5762C75.5066 52.9979 74.9176 51.9606 73.3251 52.5172L73.3396 52.6352C71.4127 51.2353 70.1838 53.3352 68.1986 52.0196C68.4458 52.1798 68.0823 52.2642 68.0968 52.3822C67.166 52.1967 66.1625 52.0786 66.1771 51.1172C65.4936 51.1003 65.6099 51.3955 65.5081 51.7581C65.5226 51.3365 64.9336 51.1341 64.4028 51.0919L64.6428 51.2606L63.1157 51.0666L63.4357 50.2823C62.614 50.4847 63.203 51.2437 62.4322 51.0244L62.4613 50.3666C61.3342 50.4594 60.6507 51.4377 59.5526 51.8847C55.037 52.0618 50.194 50.2907 45.9838 51.4714L45.802 51.969C45.722 52.6943 44.6385 50.8979 44.4858 51.5642L43.9986 51.2353C43.8605 51.3618 43.5696 51.5051 43.8168 51.6654C43.366 51.6907 43.3515 51.5726 43.0242 51.3618L42.5443 51.8172C40.7627 52.1883 39.243 51.328 37.3669 51.5473C35.1272 52.5087 30.8806 51.775 28.4155 51.3871C24.9397 50.4341 21.0494 53.5123 17.4935 52.4919C17.3845 52.6015 17.0791 52.3907 17.0791 52.3063L13.8723 52.6268C13.8723 52.6268 12.8979 52.7111 11.6181 52.728C10.3383 52.7533 8.75305 52.728 7.52414 52.4919C5.0736 52.0112 4.01195 50.6618 9.80016 47.1955L9.71289 47.0437C11.4654 46.5124 12.5852 46.3691 13.8432 47.0775C13.9886 46.0907 15.2975 46.8751 15.6975 46.5377L15.6538 46.4618C16.7737 47.1365 17.8571 45.7112 18.9333 46.3184C18.8897 46.2425 18.8533 45.9811 18.6134 45.9727C19.3769 46.0486 20.4313 46.2088 20.4676 45.6438C22.2928 45.6859 24.8233 45.3233 26.0232 46.1666L25.9359 46.0148C26.6194 46.5968 26.8012 46.057 27.5502 46.3437C27.5866 46.2678 27.6375 46.2257 27.6302 46.2004C28.3719 46.7739 29.7462 46.2257 30.3352 46.4618L30.3643 46.0823L31.8041 46.116L31.266 46.2172C31.4769 47.2461 32.3422 45.5257 33.4039 46.1751C34.3783 46.0233 35.4254 48.275 36.4289 47.7437C36.9161 48.216 35.9926 46.9678 36.7197 47.322C36.7343 46.7823 36.378 46.9931 36.5597 46.5546C37.2724 46.7992 37.7159 45.9727 38.5958 46.3269L38.6249 45.9052C39.7738 46.6558 40.7773 45.3233 41.5481 46.0486C42.7261 46.3775 42.3334 44.792 43.5623 45.6016L44.035 45.0365C44.5585 44.9438 44.4131 45.7281 44.9948 45.4582C44.9585 45.104 45.7293 45.1715 45.3875 44.8341C46.7109 44.2775 48.0707 45.6185 49.8087 44.6908C50.1795 45.3907 51.0594 44.9859 51.3357 45.5088C51.3866 45.2052 53.0882 45.4751 52.1138 44.8088C52.0265 44.7582 51.8811 44.7582 51.8883 44.8847L51.772 44.4715C52.7755 43.704 53.5754 44.9185 54.557 44.8088C54.2662 44.9353 53.8808 44.9016 54.1353 45.1883L55.0442 45.1546L54.8624 44.8004L56.2222 44.6317L56.0259 45.0534C56.6949 44.851 56.9421 44.1257 57.6838 44.7498C58.0183 45.0956 57.0439 45.3148 57.742 45.4667C58.6364 45.1968 59.9744 44.7751 61.116 44.6908C60.9997 45.1715 61.3051 45.163 61.6178 45.2727L61.6614 44.851C62.854 45.4751 62.1268 43.9402 63.3121 44.4462L63.2175 44.151L63.5084 45.0365C64.5628 45.9052 64.1119 44.1847 65.2827 45.3654C64.81 45.2811 65.0354 46.2763 65.6172 46.1245L65.479 45.7112C65.799 45.8124 65.9008 45.9895 66.1189 45.9136C65.9371 45.6859 66.0389 45.3233 66.5043 45.4076L66.1989 44.8847L67.0715 45.6691C67.7768 45.2642 68.8531 45.863 69.1585 45.298C69.1585 45.298 70.6564 45.0787 70.9764 45.7281C70.6928 45.3233 71.5217 45.2221 71.3036 44.7498C71.6744 45.2136 72.7943 45.6353 73.2742 45.1883L73.1869 45.1293C74.8958 44.7498 76.0447 45.9389 77.579 45.4667C77.4845 45.9474 78.2989 45.7365 78.0735 46.3437C79.6005 47.0606 80.9894 45.2727 81.4548 47.2293C82.1601 47.3895 82.3201 46.8413 82.691 46.7739L82.5237 46.6558C83.8471 46.9172 84.2325 46.9678 85.2215 47.0016C85.7014 47.2293 85.7232 48.1232 86.6249 47.9799C86.3631 47.6004 86.7194 47.6931 87.0467 47.7269C86.8358 47.651 86.7849 47.516 87.2285 47.3136C87.2794 47.4317 87.3739 47.5076 87.4539 47.5666C87.4539 47.5413 87.4757 47.516 87.4684 47.4823C88.0138 47.6594 87.912 47.7606 87.6502 47.7859C87.6575 47.8449 87.6357 47.9124 87.5484 47.9967C88.152 47.5919 89.1409 48.1738 89.25 47.5666C90.9006 47.8618 92.035 48.5871 93.4093 48.9666C93.5911 48.6714 93.2857 48.3594 92.8931 48.1991L93.8747 48.4184C93.9038 47.963 93.3221 48.0979 93.0312 47.9799C94.2747 47.3727 95.4018 48.9666 96.8706 48.5196L97.1179 48.916L97.2051 48.8738C97.176 49.0594 97.4596 49.363 97.656 49.4642C97.9032 49.11 97.7578 48.5618 98.4558 48.7136C99.0594 48.4353 100.005 49.2196 100.681 49.6076C100.281 49.5738 100.368 49.8184 100.506 49.9955C100.848 50.0967 101.125 49.7678 101.357 49.9955L101.495 49.4895C101.263 49.928 102.295 50.2823 102.368 50.5353C102.652 50.2148 101.91 50.0461 101.881 49.7341C103.27 50.2148 102.579 49.9533 103.953 50.5015C104.579 51.1594 103.684 50.9232 103.91 51.4967C104.513 51.8678 105.008 52.4413 105.815 52.5172L105.429 52.8376C105.938 53.2762 106.346 53.5967 106.746 53.8075C107.153 54.0015 107.545 54.1196 108.011 54.1702C109.581 56.4135 109.858 58.0412 109.843 58.9267C109.814 59.8376 109.458 60.2087 108.971 60.2087C108.513 60.2846 108.011 60.099 107.604 59.9388C107.182 59.787 106.884 59.6099 106.884 59.6099C105.553 59.087 104.709 58.5051 103.735 57.7207C102.761 56.9617 101.641 56.0424 99.8084 55.3762L99.8447 55.4099Z" fill="#FF5C4D"/>
<path d="M4.64226 28.6932C4.99354 28.4474 5.1741 28.2307 5.36779 28.0219C5.56128 27.8104 5.76551 27.6122 6.15999 27.3472C6.49981 27.0405 6.90769 26.7681 7.27003 26.5021C7.55006 26.4991 7.71749 26.1239 8.00931 26.073L8.01576 25.9341C8.11483 25.9163 8.21655 25.8778 8.24553 25.7796L8.22186 25.7611C8.37186 25.7345 8.45012 25.6051 8.52438 25.5911L8.5007 25.5726L8.62761 25.4788L8.57911 25.464C8.80416 25.3775 8.98128 25.2275 9.11012 25.0655L9.18036 25.1669C9.41794 24.7788 9.70829 24.8588 9.89322 24.4752L9.86955 24.4567C10.4635 24.3626 10.308 23.7683 10.8973 23.6488C10.8245 23.6643 10.8744 23.5843 10.8507 23.5658C11.05 23.4328 11.2502 23.2747 11.4193 23.449C11.5443 23.3299 11.4709 23.298 11.4243 23.2151C11.497 23.293 11.6383 23.224 11.7406 23.1367L11.6676 23.1494L11.9749 22.9115L12.0578 23.1086C12.1683 22.9258 11.9277 22.8954 12.1044 22.797L12.2167 22.9196C12.4013 22.7018 12.3487 22.4051 12.4649 22.1293C13.2395 21.2915 14.4203 20.7431 14.9611 19.7806L14.9048 19.6593C14.7896 19.5156 15.3037 19.6428 15.212 19.4966L15.3577 19.4684C15.3598 19.4211 15.3861 19.3436 15.3134 19.3591C15.3894 19.2741 15.413 19.2926 15.5091 19.2718L15.5135 19.1049C15.7653 18.7205 16.1902 18.6028 16.486 18.2287C16.7142 17.6572 17.6033 17.0301 18.1127 16.6592C18.9033 16.2088 19.0483 14.9647 19.8653 14.5121C19.8652 14.4731 19.9574 14.4562 19.9724 14.4712L20.4877 13.8415C20.4877 13.8415 20.6466 13.6525 20.8721 13.421C21.0961 13.188 21.3836 12.9095 21.6451 12.7323C22.1684 12.3806 22.5989 12.432 22.1843 14.0842L22.227 14.0957C22.009 14.5034 21.8347 14.7289 21.4836 14.827C21.6338 15.0292 21.2601 15.1228 21.2489 15.2544L21.2703 15.2602C20.9499 15.3397 21.0109 15.7876 20.7104 15.8713C20.7317 15.877 20.7849 15.9172 20.8293 15.8759C20.6794 15.9987 20.4625 16.1583 20.5569 16.2657C20.2236 16.584 19.8365 17.1005 19.4718 17.1641L19.5144 17.1757C19.2885 17.1938 19.3524 17.3226 19.1675 17.4051C19.1746 17.4252 19.173 17.4418 19.1788 17.445C18.944 17.475 18.7965 17.8183 18.6492 17.8813L18.7118 17.9542L18.4487 18.2052L18.5267 18.0911C18.3054 17.9451 18.4581 18.4067 18.1526 18.4803C18.0057 18.6814 17.4168 18.4663 17.3325 18.7403C17.1612 18.743 17.5489 18.8009 17.3558 18.8675C17.4496 18.9665 17.4756 18.8652 17.5214 18.976C17.3505 19.0595 17.4189 19.2863 17.1986 19.3801L17.2687 19.4606C16.9295 19.5317 16.9883 19.9487 16.7212 19.9569C16.4522 20.1085 16.8053 20.3214 16.4414 20.3963L16.4579 20.5815C16.381 20.6916 16.2669 20.5256 16.2112 20.6776C16.281 20.7344 16.1313 20.8599 16.2525 20.8591C16.1157 21.1948 15.6335 21.1981 15.4888 21.674C15.2977 21.6153 15.2129 21.8446 15.0702 21.8006C15.1153 21.8639 14.7633 22.1195 15.0562 22.0645C15.0808 22.0579 15.1068 22.032 15.0829 22.0107L15.1775 22.0637C15.1353 22.3799 14.7757 22.3058 14.62 22.5007C14.6494 22.4262 14.7242 22.3634 14.6276 22.3576L14.4713 22.5259L14.567 22.5567L14.3544 22.8296L14.3141 22.7192C14.2308 22.8748 14.3162 23.0484 14.0724 23.0694C13.9509 23.0674 14.0857 22.8543 13.934 22.9518C13.8225 23.1597 13.6589 23.4739 13.4701 23.6927C13.4051 23.5861 13.3521 23.6422 13.2767 23.6784L13.3442 23.7615C13.0198 23.863 13.4237 24.0072 13.1218 24.1284L13.1913 24.1643L12.9813 24.0581C12.638 24.0913 13.0256 24.3179 12.6058 24.3161C12.7053 24.2468 12.4874 24.1094 12.4106 24.2403L12.509 24.2895C12.4339 24.3285 12.3841 24.3151 12.3587 24.3676C12.4318 24.3758 12.4783 24.4587 12.3802 24.5267L12.5281 24.5655L12.2323 24.5813C12.1786 24.7795 11.8796 24.8647 11.9259 25.0201C11.9259 25.0201 11.6976 25.3267 11.5246 25.2679C11.6475 25.2895 11.5176 25.4556 11.6408 25.501C11.4918 25.4844 11.2166 25.609 11.2107 25.7745L11.2368 25.7694C10.9995 26.1423 10.5821 26.1351 10.3925 26.4933C10.3236 26.3906 10.2158 26.5737 10.1476 26.425C9.74704 26.5697 9.81828 27.1368 9.38588 26.8706C9.23135 26.9679 9.30066 27.0943 9.24649 27.1726L9.29743 27.1638C9.01449 27.3534 8.93665 27.4132 8.75407 27.5837C8.62774 27.6287 8.46424 27.473 8.32886 27.6596C8.44335 27.6806 8.36318 27.7277 8.29874 27.7801C8.34993 27.756 8.38311 27.771 8.34006 27.8863C8.30989 27.8743 8.27946 27.8776 8.25464 27.8814C8.25916 27.8859 8.25978 27.8943 8.2671 27.899C8.13812 27.9648 8.13823 27.9285 8.18045 27.8773C8.16861 27.868 8.16046 27.8521 8.16098 27.8215C8.1255 28.0015 7.84506 28.0741 7.93399 28.202C7.5866 28.444 7.2546 28.517 6.94148 28.6947C6.96172 28.7798 7.07196 28.781 7.17067 28.7395L6.95626 28.8756C7.03238 28.9621 7.11214 28.8342 7.18515 28.8033C7.07156 29.1337 6.58578 29.0504 6.40334 29.3924L6.28844 29.3658L6.28039 29.3889C6.25245 29.3506 6.14762 29.347 6.0945 29.364C6.1136 29.4713 6.23743 29.5432 6.0857 29.6408C6.02764 29.7982 5.71885 29.827 5.52885 29.8784C5.60628 29.813 5.54704 29.785 5.49075 29.778C5.41167 29.821 5.42106 29.929 5.33886 29.9299L5.40454 30.0449C5.36779 29.9251 5.1202 30.0462 5.06205 30.014C5.06864 30.1218 5.23117 30.0195 5.29207 30.07C4.95829 30.2322 5.12829 30.1555 4.78507 30.303C4.55598 30.2972 4.75782 30.1797 4.61519 30.1176C4.44119 30.1591 4.25053 30.145 4.09288 30.2755L4.10447 30.1495C3.9353 30.1621 3.80539 30.1775 3.69634 30.2113C3.58902 30.2494 3.49783 30.2984 3.40571 30.3724C2.7248 30.2524 2.38488 30.0111 2.22938 29.8504C2.07196 29.6826 2.06933 29.5527 2.15631 29.4658C2.22454 29.3704 2.34724 29.314 2.44855 29.2699C2.55095 29.2217 2.63579 29.2001 2.63579 29.2001C2.96671 29.0559 3.22119 29.0092 3.53518 28.9752C3.84464 28.9368 4.20868 28.901 4.65477 28.6928L4.64226 28.6932Z" fill="#FF5C4D"/>
<path d="M4.64226 21.6932C4.99354 21.4474 5.1741 21.2307 5.36779 21.0219C5.56128 20.8104 5.76551 20.6122 6.15999 20.3472C6.49981 20.0405 6.90769 19.7681 7.27003 19.5021C7.55006 19.4991 7.71749 19.1239 8.00931 19.073L8.01576 18.9341C8.11483 18.9163 8.21655 18.8778 8.24553 18.7796L8.22186 18.7611C8.37186 18.7345 8.45012 18.6051 8.52438 18.5911L8.5007 18.5726L8.62761 18.4788L8.57911 18.464C8.80416 18.3775 8.98128 18.2275 9.11012 18.0655L9.18036 18.1669C9.41794 17.7788 9.70829 17.8588 9.89322 17.4752L9.86955 17.4567C10.4635 17.3626 10.308 16.7683 10.8973 16.6488C10.8245 16.6643 10.8744 16.5843 10.8507 16.5658C11.05 16.4328 11.2502 16.2747 11.4193 16.449C11.5443 16.3299 11.4709 16.298 11.4243 16.2151C11.497 16.293 11.6383 16.224 11.7406 16.1367L11.6676 16.1494L11.9749 15.9115L12.0578 16.1086C12.1683 15.9258 11.9277 15.8954 12.1044 15.797L12.2167 15.9196C12.4013 15.7018 12.3487 15.4051 12.4649 15.1293C13.2395 14.2915 14.4203 13.7431 14.9611 12.7806L14.9048 12.6593C14.7896 12.5156 15.3037 12.6428 15.212 12.4966L15.3577 12.4684C15.3598 12.4211 15.3861 12.3436 15.3134 12.3591C15.3894 12.2741 15.413 12.2926 15.5091 12.2718L15.5135 12.1049C15.7653 11.7205 16.1902 11.6028 16.486 11.2287C16.7142 10.6572 17.6033 10.0301 18.1127 9.65924C18.9033 9.20884 19.0483 7.96474 19.8653 7.51211C19.8652 7.47306 19.9574 7.45618 19.9724 7.47124L20.4877 6.84152C20.4877 6.84152 20.6466 6.6525 20.8721 6.42101C21.0961 6.18801 21.3836 5.90952 21.6451 5.73228C22.1684 5.38061 22.5989 5.43198 22.1843 7.08417L22.227 7.09569C22.009 7.50341 21.8347 7.72893 21.4836 7.82704C21.6338 8.02917 21.2601 8.12282 21.2489 8.25445L21.2703 8.26021C20.9499 8.33968 21.0109 8.78756 20.7104 8.87129C20.7317 8.87705 20.7849 8.91723 20.8293 8.8759C20.6794 8.99866 20.4625 9.15829 20.5569 9.26566C20.2236 9.58398 19.8365 10.1005 19.4718 10.1641L19.5144 10.1757C19.2885 10.1938 19.3524 10.3226 19.1675 10.4051C19.1746 10.4252 19.173 10.4418 19.1788 10.445C18.944 10.475 18.7965 10.8183 18.6492 10.8813L18.7118 10.9542L18.4487 11.2052L18.5267 11.0911C18.3054 10.9451 18.4581 11.4067 18.1526 11.4803C18.0057 11.6814 17.4168 11.4663 17.3325 11.7403C17.1612 11.743 17.5489 11.8009 17.3558 11.8675C17.4496 11.9665 17.4756 11.8652 17.5214 11.976C17.3505 12.0595 17.4189 12.2863 17.1986 12.3801L17.2687 12.4606C16.9295 12.5317 16.9883 12.9487 16.7212 12.9569C16.4522 13.1085 16.8053 13.3214 16.4414 13.3963L16.4579 13.5815C16.381 13.6916 16.2669 13.5256 16.2112 13.6776C16.281 13.7344 16.1313 13.8599 16.2525 13.8591C16.1157 14.1948 15.6335 14.1981 15.4888 14.674C15.2977 14.6153 15.2129 14.8446 15.0702 14.8006C15.1153 14.8639 14.7633 15.1195 15.0562 15.0645C15.0808 15.0579 15.1068 15.032 15.0829 15.0107L15.1775 15.0637C15.1353 15.3799 14.7757 15.3058 14.62 15.5007C14.6494 15.4262 14.7242 15.3634 14.6276 15.3576L14.4713 15.5259L14.567 15.5567L14.3544 15.8296L14.3141 15.7192C14.2308 15.8748 14.3162 16.0484 14.0724 16.0694C13.9509 16.0674 14.0857 15.8543 13.934 15.9518C13.8225 16.1597 13.6589 16.4739 13.4701 16.6927C13.4051 16.5861 13.3521 16.6422 13.2767 16.6784L13.3442 16.7615C13.0198 16.863 13.4237 17.0072 13.1218 17.1284L13.1913 17.1643L12.9813 17.0581C12.638 17.0913 13.0256 17.3179 12.6058 17.3161C12.7053 17.2468 12.4874 17.1094 12.4106 17.2403L12.509 17.2895C12.4339 17.3285 12.3841 17.3151 12.3587 17.3676C12.4318 17.3758 12.4783 17.4587 12.3802 17.5267L12.5281 17.5655L12.2323 17.5813C12.1786 17.7795 11.8796 17.8647 11.9259 18.0201C11.9259 18.0201 11.6976 18.3267 11.5246 18.2679C11.6475 18.2895 11.5176 18.4556 11.6408 18.501C11.4918 18.4844 11.2166 18.609 11.2107 18.7745L11.2368 18.7694C10.9995 19.1423 10.5821 19.1351 10.3925 19.4933C10.3236 19.3906 10.2158 19.5737 10.1476 19.425C9.74704 19.5697 9.81828 20.1368 9.38588 19.8706C9.23135 19.9679 9.30066 20.0943 9.24649 20.1726L9.29743 20.1638C9.01449 20.3534 8.93665 20.4132 8.75407 20.5837C8.62774 20.6287 8.46424 20.473 8.32886 20.6596C8.44335 20.6806 8.36318 20.7277 8.29874 20.7801C8.34993 20.756 8.38311 20.771 8.34006 20.8863C8.30989 20.8743 8.27946 20.8776 8.25464 20.8814C8.25916 20.8859 8.25978 20.8943 8.2671 20.899C8.13812 20.9648 8.13823 20.9285 8.18045 20.8773C8.16861 20.868 8.16046 20.8521 8.16098 20.8215C8.1255 21.0015 7.84506 21.0741 7.93399 21.202C7.5866 21.444 7.2546 21.517 6.94148 21.6947C6.96172 21.7798 7.07196 21.781 7.17067 21.7395L6.95626 21.8756C7.03238 21.9621 7.11214 21.8342 7.18515 21.8033C7.07156 22.1337 6.58578 22.0504 6.40334 22.3924L6.28844 22.3658L6.28039 22.3889C6.25245 22.3506 6.14762 22.347 6.0945 22.364C6.1136 22.4713 6.23743 22.5432 6.0857 22.6408C6.02764 22.7982 5.71885 22.827 5.52885 22.8784C5.60628 22.813 5.54704 22.785 5.49075 22.778C5.41167 22.821 5.42106 22.929 5.33886 22.9299L5.40454 23.0449C5.36779 22.9251 5.1202 23.0462 5.06205 23.014C5.06864 23.1218 5.23117 23.0195 5.29207 23.07C4.95829 23.2322 5.12829 23.1555 4.78507 23.303C4.55598 23.2972 4.75782 23.1797 4.61519 23.1176C4.44119 23.1591 4.25053 23.145 4.09288 23.2755L4.10447 23.1495C3.9353 23.1621 3.80539 23.1775 3.69634 23.2113C3.58902 23.2494 3.49783 23.2984 3.40571 23.3724C2.7248 23.2524 2.38488 23.0111 2.22938 22.8504C2.07196 22.6826 2.06933 22.5527 2.15631 22.4658C2.22454 22.3704 2.34724 22.314 2.44855 22.2699C2.55095 22.2217 2.63579 22.2001 2.63579 22.2001C2.96671 22.0559 3.22119 22.0092 3.53518 21.9752C3.84464 21.9368 4.20868 21.901 4.65477 21.6928L4.64226 21.6932Z" fill="#FF5C4D"/>
<path d="M4.64226 33.6932C4.99354 33.4474 5.1741 33.2307 5.36779 33.0219C5.56128 32.8104 5.76551 32.6122 6.15999 32.3472C6.49981 32.0405 6.90769 31.7681 7.27003 31.5021C7.55006 31.4991 7.71749 31.1239 8.00931 31.073L8.01576 30.9341C8.11483 30.9163 8.21655 30.8778 8.24553 30.7796L8.22186 30.7611C8.37186 30.7345 8.45012 30.6051 8.52438 30.5911L8.5007 30.5726L8.62761 30.4788L8.57911 30.464C8.80416 30.3775 8.98128 30.2275 9.11012 30.0655L9.18036 30.1669C9.41794 29.7788 9.70829 29.8588 9.89322 29.4752L9.86955 29.4567C10.4635 29.3626 10.308 28.7683 10.8973 28.6488C10.8245 28.6643 10.8744 28.5843 10.8507 28.5658C11.05 28.4328 11.2502 28.2747 11.4193 28.449C11.5443 28.3299 11.4709 28.298 11.4243 28.2151C11.497 28.293 11.6383 28.224 11.7406 28.1367L11.6676 28.1494L11.9749 27.9115L12.0578 28.1086C12.1683 27.9258 11.9277 27.8954 12.1044 27.797L12.2167 27.9196C12.4013 27.7018 12.3487 27.4051 12.4649 27.1293C13.2395 26.2915 14.4203 25.7431 14.9611 24.7806L14.9048 24.6593C14.7896 24.5156 15.3037 24.6428 15.212 24.4966L15.3577 24.4684C15.3598 24.4211 15.3861 24.3436 15.3134 24.3591C15.3894 24.2741 15.413 24.2926 15.5091 24.2718L15.5135 24.1049C15.7653 23.7205 16.1902 23.6028 16.486 23.2287C16.7142 22.6572 17.6033 22.0301 18.1127 21.6592C18.9033 21.2088 19.0483 19.9647 19.8653 19.5121C19.8652 19.4731 19.9574 19.4562 19.9724 19.4712L20.4877 18.8415C20.4877 18.8415 20.6466 18.6525 20.8721 18.421C21.0961 18.188 21.3836 17.9095 21.6451 17.7323C22.1684 17.3806 22.5989 17.432 22.1843 19.0842L22.227 19.0957C22.009 19.5034 21.8347 19.7289 21.4836 19.827C21.6338 20.0292 21.2601 20.1228 21.2489 20.2544L21.2703 20.2602C20.9499 20.3397 21.0109 20.7876 20.7104 20.8713C20.7317 20.877 20.7849 20.9172 20.8293 20.8759C20.6794 20.9987 20.4625 21.1583 20.5569 21.2657C20.2236 21.584 19.8365 22.1005 19.4718 22.1641L19.5144 22.1757C19.2885 22.1938 19.3524 22.3226 19.1675 22.4051C19.1746 22.4252 19.173 22.4418 19.1788 22.445C18.944 22.475 18.7965 22.8183 18.6492 22.8813L18.7118 22.9542L18.4487 23.2052L18.5267 23.0911C18.3054 22.9451 18.4581 23.4067 18.1526 23.4803C18.0057 23.6814 17.4168 23.4663 17.3325 23.7403C17.1612 23.743 17.5489 23.8009 17.3558 23.8675C17.4496 23.9665 17.4756 23.8652 17.5214 23.976C17.3505 24.0595 17.4189 24.2863 17.1986 24.3801L17.2687 24.4606C16.9295 24.5317 16.9883 24.9487 16.7212 24.9569C16.4522 25.1085 16.8053 25.3214 16.4414 25.3963L16.4579 25.5815C16.381 25.6916 16.2669 25.5256 16.2112 25.6776C16.281 25.7344 16.1313 25.8599 16.2525 25.8591C16.1157 26.1948 15.6335 26.1981 15.4888 26.674C15.2977 26.6153 15.2129 26.8446 15.0702 26.8006C15.1153 26.8639 14.7633 27.1195 15.0562 27.0645C15.0808 27.0579 15.1068 27.032 15.0829 27.0107L15.1775 27.0637C15.1353 27.3799 14.7757 27.3058 14.62 27.5007C14.6494 27.4262 14.7242 27.3634 14.6276 27.3576L14.4713 27.5259L14.567 27.5567L14.3544 27.8296L14.3141 27.7192C14.2308 27.8748 14.3162 28.0484 14.0724 28.0694C13.9509 28.0674 14.0857 27.8543 13.934 27.9518C13.8225 28.1597 13.6589 28.4739 13.4701 28.6927C13.4051 28.5861 13.3521 28.6422 13.2767 28.6784L13.3442 28.7615C13.0198 28.863 13.4237 29.0072 13.1218 29.1284L13.1913 29.1643L12.9813 29.0581C12.638 29.0913 13.0256 29.3179 12.6058 29.3161C12.7053 29.2468 12.4874 29.1094 12.4106 29.2403L12.509 29.2895C12.4339 29.3285 12.3841 29.3151 12.3587 29.3676C12.4318 29.3758 12.4783 29.4587 12.3802 29.5267L12.5281 29.5655L12.2323 29.5813C12.1786 29.7795 11.8796 29.8647 11.9259 30.0201C11.9259 30.0201 11.6976 30.3267 11.5246 30.2679C11.6475 30.2895 11.5176 30.4556 11.6408 30.501C11.4918 30.4844 11.2166 30.609 11.2107 30.7745L11.2368 30.7694C10.9995 31.1423 10.5821 31.1351 10.3925 31.4933C10.3236 31.3906 10.2158 31.5737 10.1476 31.425C9.74704 31.5697 9.81828 32.1368 9.38588 31.8706C9.23135 31.9679 9.30066 32.0943 9.24649 32.1726L9.29743 32.1638C9.01449 32.3534 8.93665 32.4132 8.75407 32.5837C8.62774 32.6287 8.46424 32.473 8.32886 32.6596C8.44335 32.6806 8.36318 32.7277 8.29874 32.7801C8.34993 32.756 8.38311 32.771 8.34006 32.8863C8.30989 32.8743 8.27946 32.8776 8.25464 32.8814C8.25916 32.8859 8.25978 32.8943 8.2671 32.899C8.13812 32.9648 8.13823 32.9285 8.18045 32.8773C8.16861 32.868 8.16046 32.8521 8.16098 32.8215C8.1255 33.0015 7.84506 33.0741 7.93399 33.202C7.5866 33.444 7.2546 33.517 6.94148 33.6947C6.96172 33.7798 7.07196 33.781 7.17067 33.7395L6.95626 33.8756C7.03238 33.9621 7.11214 33.8342 7.18515 33.8033C7.07156 34.1337 6.58578 34.0504 6.40334 34.3924L6.28844 34.3658L6.28039 34.3889C6.25245 34.3506 6.14762 34.347 6.0945 34.364C6.1136 34.4713 6.23743 34.5432 6.0857 34.6408C6.02764 34.7982 5.71885 34.827 5.52885 34.8784C5.60628 34.813 5.54704 34.785 5.49075 34.778C5.41167 34.821 5.42106 34.929 5.33886 34.9299L5.40454 35.0449C5.36779 34.9251 5.1202 35.0462 5.06205 35.014C5.06864 35.1218 5.23117 35.0195 5.29207 35.07C4.95829 35.2322 5.12829 35.1555 4.78507 35.303C4.55598 35.2972 4.75782 35.1797 4.61519 35.1176C4.44119 35.1591 4.25053 35.145 4.09288 35.2755L4.10447 35.1495C3.9353 35.1621 3.80539 35.1775 3.69634 35.2113C3.58902 35.2494 3.49783 35.2984 3.40571 35.3724C2.7248 35.2524 2.38488 35.0111 2.22938 34.8504C2.07196 34.6826 2.06933 34.5527 2.15631 34.4658C2.22454 34.3704 2.34724 34.314 2.44855 34.2699C2.55095 34.2217 2.63579 34.2001 2.63579 34.2001C2.96671 34.0559 3.22119 34.0092 3.53518 33.9752C3.84464 33.9368 4.20868 33.901 4.65477 33.6928L4.64226 33.6932Z" fill="#FF5C4D"/>
<path d="M4.64226 40.6932C4.99354 40.4474 5.1741 40.2307 5.36779 40.0219C5.56128 39.8104 5.76551 39.6122 6.15999 39.3472C6.49981 39.0405 6.90769 38.7681 7.27003 38.5021C7.55006 38.4991 7.71749 38.1239 8.00931 38.073L8.01576 37.9341C8.11483 37.9163 8.21655 37.8778 8.24553 37.7796L8.22186 37.7611C8.37186 37.7345 8.45012 37.6051 8.52438 37.5911L8.5007 37.5726L8.62761 37.4788L8.57911 37.464C8.80416 37.3775 8.98128 37.2275 9.11012 37.0655L9.18036 37.1669C9.41794 36.7788 9.70829 36.8588 9.89322 36.4752L9.86955 36.4567C10.4635 36.3626 10.308 35.7683 10.8973 35.6488C10.8245 35.6643 10.8744 35.5843 10.8507 35.5658C11.05 35.4328 11.2502 35.2747 11.4193 35.449C11.5443 35.3299 11.4709 35.298 11.4243 35.2151C11.497 35.293 11.6383 35.224 11.7406 35.1367L11.6676 35.1494L11.9749 34.9115L12.0578 35.1086C12.1683 34.9258 11.9277 34.8954 12.1044 34.797L12.2167 34.9196C12.4013 34.7018 12.3487 34.4051 12.4649 34.1293C13.2395 33.2915 14.4203 32.7431 14.9611 31.7806L14.9048 31.6593C14.7896 31.5156 15.3037 31.6428 15.212 31.4966L15.3577 31.4684C15.3598 31.4211 15.3861 31.3436 15.3134 31.3591C15.3894 31.2741 15.413 31.2926 15.5091 31.2718L15.5135 31.1049C15.7653 30.7205 16.1902 30.6028 16.486 30.2287C16.7142 29.6572 17.6033 29.0301 18.1127 28.6592C18.9033 28.2088 19.0483 26.9647 19.8653 26.5121C19.8652 26.4731 19.9574 26.4562 19.9724 26.4712L20.4877 25.8415C20.4877 25.8415 20.6466 25.6525 20.8721 25.421C21.0961 25.188 21.3836 24.9095 21.6451 24.7323C22.1684 24.3806 22.5989 24.432 22.1843 26.0842L22.227 26.0957C22.009 26.5034 21.8347 26.7289 21.4836 26.827C21.6338 27.0292 21.2601 27.1228 21.2489 27.2544L21.2703 27.2602C20.9499 27.3397 21.0109 27.7876 20.7104 27.8713C20.7317 27.877 20.7849 27.9172 20.8293 27.8759C20.6794 27.9987 20.4625 28.1583 20.5569 28.2657C20.2236 28.584 19.8365 29.1005 19.4718 29.1641L19.5144 29.1757C19.2885 29.1938 19.3524 29.3226 19.1675 29.4051C19.1746 29.4252 19.173 29.4418 19.1788 29.445C18.944 29.475 18.7965 29.8183 18.6492 29.8813L18.7118 29.9542L18.4487 30.2052L18.5267 30.0911C18.3054 29.9451 18.4581 30.4067 18.1526 30.4803C18.0057 30.6814 17.4168 30.4663 17.3325 30.7403C17.1612 30.743 17.5489 30.8009 17.3558 30.8675C17.4496 30.9665 17.4756 30.8652 17.5214 30.976C17.3505 31.0595 17.4189 31.2863 17.1986 31.3801L17.2687 31.4606C16.9295 31.5317 16.9883 31.9487 16.7212 31.9569C16.4522 32.1085 16.8053 32.3214 16.4414 32.3963L16.4579 32.5815C16.381 32.6916 16.2669 32.5256 16.2112 32.6776C16.281 32.7344 16.1313 32.8599 16.2525 32.8591C16.1157 33.1948 15.6335 33.1981 15.4888 33.674C15.2977 33.6153 15.2129 33.8446 15.0702 33.8006C15.1153 33.8639 14.7633 34.1195 15.0562 34.0645C15.0808 34.0579 15.1068 34.032 15.0829 34.0107L15.1775 34.0637C15.1353 34.3799 14.7757 34.3058 14.62 34.5007C14.6494 34.4262 14.7242 34.3634 14.6276 34.3576L14.4713 34.5259L14.567 34.5567L14.3544 34.8296L14.3141 34.7192C14.2308 34.8748 14.3162 35.0484 14.0724 35.0694C13.9509 35.0674 14.0857 34.8543 13.934 34.9518C13.8225 35.1597 13.6589 35.4739 13.4701 35.6927C13.4051 35.5861 13.3521 35.6422 13.2767 35.6784L13.3442 35.7615C13.0198 35.863 13.4237 36.0072 13.1218 36.1284L13.1913 36.1643L12.9813 36.0581C12.638 36.0913 13.0256 36.3179 12.6058 36.3161C12.7053 36.2468 12.4874 36.1094 12.4106 36.2403L12.509 36.2895C12.4339 36.3285 12.3841 36.3151 12.3587 36.3676C12.4318 36.3758 12.4783 36.4587 12.3802 36.5267L12.5281 36.5655L12.2323 36.5813C12.1786 36.7795 11.8796 36.8647 11.9259 37.0201C11.9259 37.0201 11.6976 37.3267 11.5246 37.2679C11.6475 37.2895 11.5176 37.4556 11.6408 37.501C11.4918 37.4844 11.2166 37.609 11.2107 37.7745L11.2368 37.7694C10.9995 38.1423 10.5821 38.1351 10.3925 38.4933C10.3236 38.3906 10.2158 38.5737 10.1476 38.425C9.74704 38.5697 9.81828 39.1368 9.38588 38.8706C9.23135 38.9679 9.30066 39.0943 9.24649 39.1726L9.29743 39.1638C9.01449 39.3534 8.93665 39.4132 8.75407 39.5837C8.62774 39.6287 8.46424 39.473 8.32886 39.6596C8.44335 39.6806 8.36318 39.7277 8.29874 39.7801C8.34993 39.756 8.38311 39.771 8.34006 39.8863C8.30989 39.8743 8.27946 39.8776 8.25464 39.8814C8.25916 39.8859 8.25978 39.8943 8.2671 39.899C8.13812 39.9648 8.13823 39.9285 8.18045 39.8773C8.16861 39.868 8.16046 39.8521 8.16098 39.8215C8.1255 40.0015 7.84506 40.0741 7.93399 40.202C7.5866 40.444 7.2546 40.517 6.94148 40.6947C6.96172 40.7798 7.07196 40.781 7.17067 40.7395L6.95626 40.8756C7.03238 40.9621 7.11214 40.8342 7.18515 40.8033C7.07156 41.1337 6.58578 41.0504 6.40334 41.3924L6.28844 41.3658L6.28039 41.3889C6.25245 41.3506 6.14762 41.347 6.0945 41.364C6.1136 41.4713 6.23743 41.5432 6.0857 41.6408C6.02764 41.7982 5.71885 41.827 5.52885 41.8784C5.60628 41.813 5.54704 41.785 5.49075 41.778C5.41167 41.821 5.42106 41.929 5.33886 41.9299L5.40454 42.0449C5.36779 41.9251 5.1202 42.0462 5.06205 42.014C5.06864 42.1218 5.23117 42.0195 5.29207 42.07C4.95829 42.2322 5.12829 42.1555 4.78507 42.303C4.55598 42.2972 4.75782 42.1797 4.61519 42.1176C4.44119 42.1591 4.25053 42.145 4.09288 42.2755L4.10447 42.1495C3.9353 42.1621 3.80539 42.1775 3.69634 42.2113C3.58902 42.2494 3.49783 42.2984 3.40571 42.3724C2.7248 42.2524 2.38488 42.0111 2.22938 41.8504C2.07196 41.6826 2.06933 41.5527 2.15631 41.4658C2.22454 41.3704 2.34724 41.314 2.44855 41.2699C2.55095 41.2217 2.63579 41.2001 2.63579 41.2001C2.96671 41.0559 3.22119 41.0092 3.53518 40.9752C3.84464 40.9368 4.20868 40.901 4.65477 40.6928L4.64226 40.6932Z" fill="#FF5C4D"/>
<path d="M6.64226 44.6932C6.99354 44.4474 7.1741 44.2307 7.36779 44.0219C7.56128 43.8104 7.76551 43.6122 8.15999 43.3472C8.49981 43.0405 8.90769 42.7681 9.27003 42.5021C9.55006 42.4991 9.71749 42.1239 10.0093 42.073L10.0158 41.9341C10.1148 41.9163 10.2165 41.8778 10.2455 41.7796L10.2219 41.7611C10.3719 41.7345 10.4501 41.6051 10.5244 41.5911L10.5007 41.5726L10.6276 41.4788L10.5791 41.464C10.8042 41.3775 10.9813 41.2275 11.1101 41.0655L11.1804 41.1669C11.4179 40.7788 11.7083 40.8588 11.8932 40.4752L11.8695 40.4567C12.4635 40.3626 12.308 39.7683 12.8973 39.6488C12.8245 39.6643 12.8744 39.5843 12.8507 39.5658C13.05 39.4328 13.2502 39.2747 13.4193 39.449C13.5443 39.3299 13.4709 39.298 13.4243 39.2151C13.497 39.293 13.6383 39.224 13.7406 39.1367L13.6676 39.1494L13.9749 38.9115L14.0578 39.1086C14.1683 38.9258 13.9277 38.8954 14.1044 38.797L14.2167 38.9196C14.4013 38.7018 14.3487 38.4051 14.4649 38.1293C15.2395 37.2915 16.4203 36.7431 16.9611 35.7806L16.9048 35.6593C16.7896 35.5156 17.3037 35.6428 17.212 35.4966L17.3577 35.4684C17.3598 35.4211 17.3861 35.3436 17.3134 35.3591C17.3894 35.2741 17.413 35.2926 17.5091 35.2718L17.5135 35.1049C17.7653 34.7205 18.1902 34.6028 18.486 34.2287C18.7142 33.6572 19.6033 33.0301 20.1127 32.6592C20.9033 32.2088 21.0483 30.9647 21.8653 30.5121C21.8652 30.4731 21.9574 30.4562 21.9724 30.4712L22.4877 29.8415C22.4877 29.8415 22.6466 29.6525 22.8721 29.421C23.0961 29.188 23.3836 28.9095 23.6451 28.7323C24.1684 28.3806 24.5989 28.432 24.1843 30.0842L24.227 30.0957C24.009 30.5034 23.8347 30.7289 23.4836 30.827C23.6338 31.0292 23.2601 31.1228 23.2489 31.2544L23.2703 31.2602C22.9499 31.3397 23.0109 31.7876 22.7104 31.8713C22.7317 31.877 22.7849 31.9172 22.8293 31.8759C22.6794 31.9987 22.4625 32.1583 22.5569 32.2657C22.2236 32.584 21.8365 33.1005 21.4718 33.1641L21.5144 33.1757C21.2885 33.1938 21.3524 33.3226 21.1675 33.4051C21.1746 33.4252 21.173 33.4418 21.1788 33.445C20.944 33.475 20.7965 33.8183 20.6492 33.8813L20.7118 33.9542L20.4487 34.2052L20.5267 34.0911C20.3054 33.9451 20.4581 34.4067 20.1526 34.4803C20.0057 34.6814 19.4168 34.4663 19.3325 34.7403C19.1612 34.743 19.5489 34.8009 19.3558 34.8675C19.4496 34.9665 19.4756 34.8652 19.5214 34.976C19.3505 35.0595 19.4189 35.2863 19.1986 35.3801L19.2687 35.4606C18.9295 35.5317 18.9883 35.9487 18.7212 35.9569C18.4522 36.1085 18.8053 36.3214 18.4414 36.3963L18.4579 36.5815C18.381 36.6916 18.2669 36.5256 18.2112 36.6776C18.281 36.7344 18.1313 36.8599 18.2525 36.8591C18.1157 37.1948 17.6335 37.1981 17.4888 37.674C17.2977 37.6153 17.2129 37.8446 17.0702 37.8006C17.1153 37.8639 16.7633 38.1195 17.0562 38.0645C17.0808 38.0579 17.1068 38.032 17.0829 38.0107L17.1775 38.0637C17.1353 38.3799 16.7757 38.3058 16.62 38.5007C16.6494 38.4262 16.7242 38.3634 16.6276 38.3576L16.4713 38.5259L16.567 38.5567L16.3544 38.8296L16.3141 38.7192C16.2308 38.8748 16.3162 39.0484 16.0724 39.0694C15.9509 39.0674 16.0857 38.8543 15.934 38.9518C15.8225 39.1597 15.6589 39.4739 15.4701 39.6927C15.4051 39.5861 15.3521 39.6422 15.2767 39.6784L15.3442 39.7615C15.0198 39.863 15.4237 40.0072 15.1218 40.1284L15.1913 40.1643L14.9813 40.0581C14.638 40.0913 15.0256 40.3179 14.6058 40.3161C14.7053 40.2468 14.4874 40.1094 14.4106 40.2403L14.509 40.2895C14.4339 40.3285 14.3841 40.3151 14.3587 40.3676C14.4318 40.3758 14.4783 40.4587 14.3802 40.5267L14.5281 40.5655L14.2323 40.5813C14.1786 40.7795 13.8796 40.8647 13.9259 41.0201C13.9259 41.0201 13.6976 41.3267 13.5246 41.2679C13.6475 41.2895 13.5176 41.4556 13.6408 41.501C13.4918 41.4844 13.2166 41.609 13.2107 41.7745L13.2368 41.7694C12.9995 42.1423 12.5821 42.1351 12.3925 42.4933C12.3236 42.3906 12.2158 42.5737 12.1476 42.425C11.747 42.5697 11.8183 43.1368 11.3859 42.8706C11.2314 42.9679 11.3007 43.0943 11.2465 43.1726L11.2974 43.1638C11.0145 43.3534 10.9366 43.4132 10.7541 43.5837C10.6277 43.6287 10.4642 43.473 10.3289 43.6596C10.4434 43.6806 10.3632 43.7277 10.2987 43.7801C10.3499 43.756 10.3831 43.771 10.3401 43.8863C10.3099 43.8743 10.2795 43.8776 10.2546 43.8814C10.2592 43.8859 10.2598 43.8943 10.2671 43.899C10.1381 43.9648 10.1382 43.9285 10.1804 43.8773C10.1686 43.868 10.1605 43.8521 10.161 43.8215C10.1255 44.0015 9.84506 44.0741 9.93399 44.202C9.5866 44.444 9.2546 44.517 8.94148 44.6947C8.96172 44.7798 9.07196 44.781 9.17067 44.7395L8.95626 44.8756C9.03238 44.9621 9.11214 44.8342 9.18515 44.8033C9.07156 45.1337 8.58578 45.0504 8.40334 45.3924L8.28844 45.3658L8.28039 45.3889C8.25245 45.3506 8.14762 45.347 8.0945 45.364C8.1136 45.4713 8.23743 45.5432 8.0857 45.6408C8.02764 45.7982 7.71885 45.827 7.52885 45.8784C7.60628 45.813 7.54704 45.785 7.49075 45.778C7.41167 45.821 7.42106 45.929 7.33886 45.9299L7.40454 46.0449C7.36779 45.9251 7.1202 46.0462 7.06205 46.014C7.06864 46.1218 7.23117 46.0195 7.29207 46.07C6.95829 46.2322 7.12829 46.1555 6.78507 46.303C6.55598 46.2972 6.75782 46.1797 6.61519 46.1176C6.44119 46.1591 6.25053 46.145 6.09288 46.2755L6.10447 46.1495C5.9353 46.1621 5.80539 46.1775 5.69634 46.2113C5.58902 46.2494 5.49783 46.2984 5.40571 46.3724C4.7248 46.2524 4.38488 46.0111 4.22938 45.8504C4.07196 45.6826 4.06933 45.5527 4.15631 45.4658C4.22454 45.3704 4.34724 45.314 4.44855 45.2699C4.55095 45.2217 4.63579 45.2001 4.63579 45.2001C4.96671 45.0559 5.22119 45.0092 5.53518 44.9752C5.84464 44.9368 6.20868 44.901 6.65477 44.6928L6.64226 44.6932Z" fill="#FF5C4D"/>
<path d="M8.64226 47.6932C8.99354 47.4474 9.1741 47.2307 9.36779 47.0219C9.56128 46.8104 9.76551 46.6122 10.16 46.3472C10.4998 46.0405 10.9077 45.7681 11.27 45.5021C11.5501 45.4991 11.7175 45.1239 12.0093 45.073L12.0158 44.9341C12.1148 44.9163 12.2165 44.8778 12.2455 44.7796L12.2219 44.7611C12.3719 44.7345 12.4501 44.6051 12.5244 44.5911L12.5007 44.5726L12.6276 44.4788L12.5791 44.464C12.8042 44.3775 12.9813 44.2275 13.1101 44.0655L13.1804 44.1669C13.4179 43.7788 13.7083 43.8588 13.8932 43.4752L13.8695 43.4567C14.4635 43.3626 14.308 42.7683 14.8973 42.6488C14.8245 42.6643 14.8744 42.5843 14.8507 42.5658C15.05 42.4328 15.2502 42.2747 15.4193 42.449C15.5443 42.3299 15.4709 42.298 15.4243 42.2151C15.497 42.293 15.6383 42.224 15.7406 42.1367L15.6676 42.1494L15.9749 41.9115L16.0578 42.1086C16.1683 41.9258 15.9277 41.8954 16.1044 41.797L16.2167 41.9196C16.4013 41.7018 16.3487 41.4051 16.4649 41.1293C17.2395 40.2915 18.4203 39.7431 18.9611 38.7806L18.9048 38.6593C18.7896 38.5156 19.3037 38.6428 19.212 38.4966L19.3577 38.4684C19.3598 38.4211 19.3861 38.3436 19.3134 38.3591C19.3894 38.2741 19.413 38.2926 19.5091 38.2718L19.5135 38.1049C19.7653 37.7205 20.1902 37.6028 20.486 37.2287C20.7142 36.6572 21.6033 36.0301 22.1127 35.6592C22.9033 35.2088 23.0483 33.9647 23.8653 33.5121C23.8652 33.4731 23.9574 33.4562 23.9724 33.4712L24.4877 32.8415C24.4877 32.8415 24.6466 32.6525 24.8721 32.421C25.0961 32.188 25.3836 31.9095 25.6451 31.7323C26.1684 31.3806 26.5989 31.432 26.1843 33.0842L26.227 33.0957C26.009 33.5034 25.8347 33.7289 25.4836 33.827C25.6338 34.0292 25.2601 34.1228 25.2489 34.2544L25.2703 34.2602C24.9499 34.3397 25.0109 34.7876 24.7104 34.8713C24.7317 34.877 24.7849 34.9172 24.8293 34.8759C24.6794 34.9987 24.4625 35.1583 24.5569 35.2657C24.2236 35.584 23.8365 36.1005 23.4718 36.1641L23.5144 36.1757C23.2885 36.1938 23.3524 36.3226 23.1675 36.4051C23.1746 36.4252 23.173 36.4418 23.1788 36.445C22.944 36.475 22.7965 36.8183 22.6492 36.8813L22.7118 36.9542L22.4487 37.2052L22.5267 37.0911C22.3054 36.9451 22.4581 37.4067 22.1526 37.4803C22.0057 37.6814 21.4168 37.4663 21.3325 37.7403C21.1612 37.743 21.5489 37.8009 21.3558 37.8675C21.4496 37.9665 21.4756 37.8652 21.5214 37.976C21.3505 38.0595 21.4189 38.2863 21.1986 38.3801L21.2687 38.4606C20.9295 38.5317 20.9883 38.9487 20.7212 38.9569C20.4522 39.1085 20.8053 39.3214 20.4414 39.3963L20.4579 39.5815C20.381 39.6916 20.2669 39.5256 20.2112 39.6776C20.281 39.7344 20.1313 39.8599 20.2525 39.8591C20.1157 40.1948 19.6335 40.1981 19.4888 40.674C19.2977 40.6153 19.2129 40.8446 19.0702 40.8006C19.1153 40.8639 18.7633 41.1195 19.0562 41.0645C19.0808 41.0579 19.1068 41.032 19.0829 41.0107L19.1775 41.0637C19.1353 41.3799 18.7757 41.3058 18.62 41.5007C18.6494 41.4262 18.7242 41.3634 18.6276 41.3576L18.4713 41.5259L18.567 41.5567L18.3544 41.8296L18.3141 41.7192C18.2308 41.8748 18.3162 42.0484 18.0724 42.0694C17.9509 42.0674 18.0857 41.8543 17.934 41.9518C17.8225 42.1597 17.6589 42.4739 17.4701 42.6927C17.4051 42.5861 17.3521 42.6422 17.2767 42.6784L17.3442 42.7615C17.0198 42.863 17.4237 43.0072 17.1218 43.1284L17.1913 43.1643L16.9813 43.0581C16.638 43.0913 17.0256 43.3179 16.6058 43.3161C16.7053 43.2468 16.4874 43.1094 16.4106 43.2403L16.509 43.2895C16.4339 43.3285 16.3841 43.3151 16.3587 43.3676C16.4318 43.3758 16.4783 43.4587 16.3802 43.5267L16.5281 43.5655L16.2323 43.5813C16.1786 43.7795 15.8796 43.8647 15.9259 44.0201C15.9259 44.0201 15.6976 44.3267 15.5246 44.2679C15.6475 44.2895 15.5176 44.4556 15.6408 44.501C15.4918 44.4844 15.2166 44.609 15.2107 44.7745L15.2368 44.7694C14.9995 45.1423 14.5821 45.1351 14.3925 45.4933C14.3236 45.3906 14.2158 45.5737 14.1476 45.425C13.747 45.5697 13.8183 46.1368 13.3859 45.8706C13.2314 45.9679 13.3007 46.0943 13.2465 46.1726L13.2974 46.1638C13.0145 46.3534 12.9366 46.4132 12.7541 46.5837C12.6277 46.6287 12.4642 46.473 12.3289 46.6596C12.4434 46.6806 12.3632 46.7277 12.2987 46.7801C12.3499 46.756 12.3831 46.771 12.3401 46.8863C12.3099 46.8743 12.2795 46.8776 12.2546 46.8814C12.2592 46.8859 12.2598 46.8943 12.2671 46.899C12.1381 46.9648 12.1382 46.9285 12.1804 46.8773C12.1686 46.868 12.1605 46.8521 12.161 46.8215C12.1255 47.0015 11.8451 47.0741 11.934 47.202C11.5866 47.444 11.2546 47.517 10.9415 47.6947C10.9617 47.7798 11.072 47.781 11.1707 47.7395L10.9563 47.8756C11.0324 47.9621 11.1121 47.8342 11.1851 47.8033C11.0716 48.1337 10.5858 48.0504 10.4033 48.3924L10.2884 48.3658L10.2804 48.3889C10.2525 48.3506 10.1476 48.347 10.0945 48.364C10.1136 48.4713 10.2374 48.5432 10.0857 48.6408C10.0276 48.7982 9.71885 48.827 9.52885 48.8784C9.60628 48.813 9.54704 48.785 9.49075 48.778C9.41167 48.821 9.42106 48.929 9.33886 48.9299L9.40454 49.0449C9.36779 48.9251 9.1202 49.0462 9.06205 49.014C9.06864 49.1218 9.23117 49.0195 9.29207 49.07C8.95829 49.2322 9.12829 49.1555 8.78507 49.303C8.55598 49.2972 8.75782 49.1797 8.61519 49.1176C8.44119 49.1591 8.25053 49.145 8.09288 49.2755L8.10447 49.1495C7.9353 49.1621 7.80539 49.1775 7.69634 49.2113C7.58902 49.2494 7.49783 49.2984 7.40571 49.3724C6.7248 49.2524 6.38488 49.0111 6.22938 48.8504C6.07196 48.6826 6.06933 48.5527 6.15631 48.4658C6.22454 48.3704 6.34724 48.314 6.44855 48.2699C6.55095 48.2217 6.63579 48.2001 6.63579 48.2001C6.96671 48.0559 7.22119 48.0092 7.53518 47.9752C7.84464 47.9368 8.20868 47.901 8.65477 47.6928L8.64226 47.6932Z" fill="#FF5C4D"/>
<path d="M11.7362 49.6009C12.0326 49.4098 12.1767 49.2296 12.3334 49.0579C12.4897 48.8835 12.657 48.7223 12.9909 48.5178C13.2713 48.2705 13.6167 48.0606 13.9214 47.8524C14.1754 47.8754 14.293 47.55 14.5533 47.5306L14.5464 47.405C14.6348 47.3979 14.7236 47.3723 14.7409 47.2858L14.7177 47.2668C14.8515 47.2565 14.9107 47.1461 14.9768 47.1402L14.9536 47.1212L15.0602 47.0477L15.0149 47.0299C15.2113 46.972 15.3584 46.852 15.4605 46.7168L15.5336 46.8153C15.7137 46.4846 15.9847 46.584 16.1174 46.2525L16.0942 46.2336C16.625 46.2027 16.4292 45.6487 16.9534 45.5943C16.8887 45.6017 16.9267 45.5336 16.9035 45.5147C17.0722 45.4122 17.2395 45.287 17.4091 45.4608C17.5117 45.3642 17.442 45.3284 17.3921 45.2488C17.4653 45.3262 17.5873 45.2765 17.6722 45.2067L17.6071 45.2116L17.8642 45.0237L17.9576 45.2103C18.0413 45.0544 17.8199 45.0048 17.9714 44.9316L18.0846 45.0533C18.2323 44.8724 18.1572 44.5982 18.2375 44.3584C18.8639 43.6687 19.8859 43.2791 20.2887 42.4547L20.2263 42.3394C20.1085 42.1982 20.5871 42.361 20.4904 42.2198L20.6201 42.2076C20.6177 42.1648 20.6345 42.0968 20.5698 42.1043C20.631 42.0341 20.6542 42.053 20.7395 42.043L20.7282 41.8917C20.9216 41.5658 21.2966 41.4979 21.5309 41.1854C21.6856 40.6873 22.4355 40.1995 22.864 39.9095C23.5407 39.5731 23.5581 38.4566 24.2585 38.1205C24.2548 38.0851 24.3369 38.0782 24.352 38.0933L24.7621 37.5687C24.7621 37.5687 24.8891 37.4117 25.0725 37.2221C25.2545 37.0311 25.4901 36.8046 25.7113 36.6677C26.1543 36.3964 26.5499 36.4826 26.3252 37.9449L26.365 37.9593C26.2045 38.3095 26.0669 38.4983 25.7571 38.5552C25.912 38.7525 25.5813 38.8033 25.5832 38.9218L25.6031 38.929C25.3195 38.9717 25.416 39.3841 25.1508 39.4325C25.1707 39.4397 25.2227 39.4811 25.2591 39.4476C25.1343 39.5453 24.952 39.6704 25.0476 39.7766C24.7741 40.035 24.4701 40.4685 24.1446 40.4928L24.1845 40.5072C23.981 40.5029 24.0508 40.6258 23.8905 40.6838C23.8987 40.7026 23.8989 40.7175 23.9044 40.721C23.694 40.7267 23.5915 41.0249 23.4635 41.0685L23.5271 41.1405L23.3112 41.3443L23.3716 41.2479C23.1571 41.0949 23.3382 41.5282 23.0675 41.5669C22.9526 41.736 22.398 41.4866 22.3466 41.7277C22.1913 41.7144 22.5487 41.8027 22.3795 41.8454C22.4738 41.9439 22.4881 41.8543 22.5399 41.9591C22.3923 42.0193 22.4753 42.2315 22.2838 42.2965L22.3548 42.376C22.0534 42.4094 22.145 42.7936 21.9032 42.7764C21.6728 42.8894 22.0131 43.1152 21.6895 43.1497L21.7215 43.3195C21.6617 43.4124 21.5429 43.2511 21.5063 43.3841C21.5749 43.442 21.4505 43.5423 21.5605 43.5527C21.467 43.845 21.0295 43.8038 20.9418 44.2227C20.7628 44.1517 20.7068 44.3522 20.5732 44.2991C20.62 44.3608 20.3238 44.5606 20.5848 44.5375C20.6065 44.5338 20.6277 44.5126 20.6041 44.4911L20.6948 44.5479C20.6856 44.8312 20.3522 44.7309 20.2287 44.8936C20.2485 44.8286 20.3107 44.7785 20.2224 44.7644L20.096 44.9028L20.1857 44.9396L20.0177 45.1679L19.971 45.064C19.9096 45.1976 20.0031 45.3631 19.7836 45.3598C19.6731 45.3468 19.776 45.1657 19.6471 45.2403C19.565 45.4188 19.4453 45.6891 19.2939 45.8705C19.2251 45.7677 19.1821 45.8137 19.1169 45.8397L19.1859 45.9214C18.9006 45.9838 19.2806 46.1518 19.0176 46.2342L19.084 46.2731L18.8836 46.1574C18.5748 46.156 18.9477 46.3975 18.5663 46.3573C18.6502 46.3035 18.4397 46.1586 18.382 46.2705L18.4759 46.3242C18.4112 46.3527 18.3648 46.3359 18.3465 46.3813C18.4137 46.3954 18.4636 46.475 18.3807 46.5278L18.5186 46.5766L18.2514 46.5638C18.2209 46.7388 17.9571 46.7888 18.0135 46.9342C18.0135 46.9342 17.8343 47.1916 17.6718 47.1223C17.7854 47.1532 17.6826 47.2921 17.7987 47.3446C17.6619 47.3159 17.4234 47.4038 17.4333 47.5535L17.4565 47.5513C17.2752 47.8681 16.8955 47.8233 16.7562 48.1312C16.6842 48.0316 16.6031 48.1879 16.5276 48.0467C16.1771 48.1412 16.2938 48.6628 15.8767 48.3813C15.7453 48.4555 15.8199 48.5767 15.7779 48.6428L15.8233 48.6395C15.5838 48.7857 15.5186 48.8328 15.3684 48.9709C15.2578 49.0002 15.0951 48.8438 14.9893 49.0008C15.0952 49.0304 15.0267 49.0658 14.973 49.1074C15.0172 49.0902 15.0487 49.1069 15.0202 49.2077C14.9917 49.194 14.9644 49.1943 14.9422 49.1954C14.9467 49.1999 14.9481 49.2076 14.9552 49.2126C14.8441 49.2604 14.8408 49.2275 14.8745 49.1848C14.8629 49.1754 14.854 49.1601 14.8517 49.1324C14.836 49.2926 14.588 49.3328 14.6805 49.4571C14.3872 49.645 14.0924 49.6808 13.8244 49.8134C13.8506 49.8925 13.9508 49.9037 14.0366 49.8751L13.8544 49.979C13.9315 50.0646 13.9922 49.9557 14.0556 49.9344C13.9828 50.224 13.534 50.1037 13.3997 50.3976L13.293 50.3628L13.2878 50.3831C13.2589 50.3457 13.1633 50.3328 13.1167 50.3434C13.1439 50.4427 13.2629 50.5193 13.1341 50.594C13.0958 50.7316 12.818 50.7293 12.6502 50.7586C12.7145 50.7064 12.6582 50.6754 12.6064 50.6639C12.5385 50.6957 12.557 50.7947 12.4824 50.7879L12.5526 50.8984C12.5082 50.7862 12.2945 50.8734 12.2388 50.8389C12.2546 50.9374 12.3928 50.8594 12.4528 50.9109C12.1646 51.0275 12.3119 50.9735 12.0138 51.0759C11.8052 51.0496 11.9777 50.9614 11.8424 50.8919C11.6882 50.9136 11.5138 50.8833 11.3826 50.9873L11.3816 50.874C11.2291 50.8699 11.1125 50.872 11.0166 50.8926C10.9226 50.9173 10.8443 50.9535 10.7675 51.0123C10.1381 50.8407 9.80721 50.5904 9.65124 50.4301C9.49287 50.2633 9.47855 50.1451 9.54955 50.0741C9.60276 49.9938 9.709 49.9538 9.79695 49.9231C9.88552 49.8887 9.96059 49.8769 9.96059 49.8769C10.2479 49.7763 10.4747 49.7573 10.7567 49.7553C11.0342 49.7488 11.3615 49.7497 11.7475 49.6016L11.7362 49.6009Z" fill="#FF5C4D"/>
<path d="M16.5314 50.3861C16.7531 50.2698 16.8474 50.1394 16.9538 50.0179C17.0594 49.8943 17.1762 49.7834 17.4276 49.6616C17.6271 49.4952 17.8873 49.3705 18.1133 49.2409C18.3319 49.2993 18.3816 49.0419 18.599 49.0653L18.5739 48.958C18.6476 48.9656 18.7189 48.9575 18.7203 48.8869L18.6977 48.8673C18.8094 48.879 18.8426 48.7947 18.8977 48.7998L18.8751 48.7802L18.9541 48.7343L18.913 48.7122C19.0704 48.6933 19.1765 48.6143 19.2422 48.5155L19.3192 48.6101C19.421 48.3578 19.6657 48.4835 19.7272 48.2232L19.7047 48.2036C20.1493 48.2588 19.8986 47.7598 20.334 47.7941C20.2804 47.7905 20.3021 47.7387 20.2795 47.7191C20.4067 47.6581 20.5292 47.5778 20.6993 47.7509C20.7714 47.6849 20.707 47.644 20.6525 47.5689C20.7263 47.6457 20.822 47.6223 20.8831 47.5762L20.8288 47.5703L21.0177 47.4507L21.1254 47.623C21.1723 47.5039 20.9772 47.4279 21.0943 47.3892L21.2088 47.5095C21.3061 47.3791 21.2005 47.1354 21.2316 46.9446C21.6562 46.4568 22.4617 46.2837 22.6763 45.6475L22.6058 45.5403C22.4844 45.4028 22.9146 45.614 22.8111 45.4796L22.919 45.4891C22.9104 45.4526 22.9142 45.3976 22.8606 45.394C22.9016 45.3439 22.9242 45.3635 22.9949 45.3681L22.9621 45.2383C23.0758 44.992 23.3829 44.9921 23.5333 44.7634C23.588 44.3655 24.148 44.0674 24.4663 43.8876C24.9876 43.7066 24.8311 42.764 25.3725 42.5869C25.364 42.5563 25.4325 42.5631 25.4475 42.5781L25.7143 42.1969C25.7143 42.1969 25.7977 42.0834 25.924 41.9511C26.0488 41.8173 26.2135 41.6617 26.3798 41.5797C26.7132 41.4179 27.0614 41.5515 27.0954 42.7552L27.1313 42.7734C27.0491 43.0454 26.9616 43.1841 26.708 43.1847C26.8694 43.3756 26.5972 43.3678 26.617 43.4684L26.635 43.4776C26.4014 43.4703 26.5464 43.8342 26.3292 43.8345C26.3472 43.8436 26.3975 43.8866 26.4233 43.8639C26.3326 43.9275 26.1975 44.0054 26.2947 44.11C26.1027 44.2868 25.9118 44.6072 25.64 44.5779L25.6759 44.5962C25.503 44.5614 25.581 44.6761 25.4541 44.7006C25.464 44.7178 25.4664 44.7305 25.4716 44.7342C25.2943 44.7068 25.2533 44.9435 25.1517 44.9609L25.2165 45.0316L25.065 45.171L25.1013 45.0986C24.8963 44.9362 25.116 45.3308 24.8928 45.3221C24.8215 45.4476 24.3137 45.1514 24.3071 45.3477C24.1736 45.3126 24.4897 45.4421 24.353 45.4523C24.4479 45.5502 24.4463 45.4765 24.5062 45.5732C24.3906 45.6015 24.4933 45.7939 24.3412 45.8195L24.4135 45.8978C24.1634 45.8798 24.2999 46.2191 24.0926 46.1675C23.9148 46.2278 24.2376 46.4712 23.9689 46.4508L24.022 46.5994C23.9857 46.6689 23.8603 46.5142 23.8497 46.6211C23.9166 46.6807 23.8267 46.7465 23.9215 46.7722C23.8871 47.0053 23.5104 46.9033 23.5004 47.2445C23.338 47.157 23.3213 47.3182 23.2001 47.2527C23.2491 47.3121 23.029 47.4358 23.2464 47.4563C23.2643 47.4565 23.279 47.4418 23.2556 47.42L23.3412 47.482C23.3768 47.7204 23.0792 47.5844 22.9996 47.7032C23.0064 47.6512 23.0513 47.6183 22.9744 47.5928L22.8886 47.6907L22.9702 47.7355L22.863 47.903L22.8075 47.8079C22.7761 47.9116 22.8806 48.0661 22.6942 48.0296C22.5987 48.0017 22.658 47.8641 22.5603 47.9075C22.5182 48.0461 22.4583 48.2565 22.358 48.3869C22.2839 48.2893 22.2546 48.3217 22.2034 48.3337L22.2743 48.4134C22.0424 48.4225 22.3899 48.623 22.1798 48.6525L22.242 48.6956L22.0545 48.5669C21.7929 48.5183 22.1456 48.7799 21.8166 48.6874C21.8794 48.6547 21.6789 48.4998 21.6473 48.5857L21.735 48.6455C21.6846 48.6598 21.6427 48.6385 21.6342 48.6741C21.6932 48.6963 21.7477 48.7714 21.6856 48.8033L21.8098 48.8658L21.5816 48.814C21.5826 48.9575 21.367 48.9593 21.437 49.0911C21.437 49.0911 21.3248 49.2815 21.1766 49.1979C21.2775 49.2416 21.2118 49.3434 21.3182 49.4057C21.1979 49.3603 21.0095 49.3982 21.0408 49.5265L21.0601 49.5282C20.9552 49.7686 20.6269 49.6724 20.5562 49.9117C20.4799 49.8163 20.4352 49.9362 20.3496 49.8051C20.0674 49.8314 20.2462 50.2909 19.8499 49.9886C19.75 50.0313 19.8317 50.1453 19.8063 50.1948L19.8443 50.199C19.6639 50.286 19.6159 50.3159 19.51 50.4098C19.4209 50.4176 19.259 50.2602 19.1935 50.3769C19.2877 50.4183 19.2352 50.4377 19.1961 50.4647C19.231 50.457 19.2602 50.4759 19.2515 50.5569C19.2253 50.5409 19.2022 50.5369 19.1836 50.5345C19.1881 50.539 19.1904 50.5457 19.1972 50.551C19.1104 50.5745 19.1027 50.5461 19.1246 50.5152C19.1133 50.5054 19.1035 50.4911 19.0972 50.4672C19.1085 50.6005 18.9047 50.5965 19.0021 50.7159C18.7826 50.83 18.5385 50.8151 18.3319 50.8862C18.3663 50.9573 18.4528 50.9822 18.5211 50.9711L18.3828 51.0311C18.4612 51.1154 18.4958 51.0325 18.5463 51.0242C18.5291 51.2582 18.1306 51.0875 18.062 51.3157L17.9663 51.27L17.965 51.2863C17.9348 51.2502 17.852 51.2247 17.8141 51.2264C17.8523 51.3147 17.9649 51.3978 17.8672 51.4413C17.856 51.5519 17.6204 51.5074 17.4828 51.5065C17.5293 51.4721 17.4768 51.4372 17.4312 51.4196C17.3786 51.436 17.4094 51.5227 17.3452 51.5055L17.4216 51.6098C17.3668 51.508 17.1993 51.5491 17.1468 51.5113C17.1753 51.5972 17.2804 51.5523 17.339 51.6051C17.1129 51.6596 17.2294 51.6365 16.9926 51.6775C16.812 51.6232 16.9445 51.575 16.8194 51.4954C16.6921 51.4901 16.5398 51.4377 16.4447 51.5057L16.4264 51.4096C16.2967 51.3827 16.1984 51.3666 16.1203 51.3694C16.0445 51.3759 15.9838 51.3945 15.9277 51.4325C15.3685 51.1907 15.05 50.928 14.8934 50.7684C14.7337 50.6029 14.7035 50.5006 14.7527 50.4514C14.7854 50.3916 14.8693 50.374 14.939 50.3615C15.0087 50.346 15.0705 50.3474 15.0705 50.3474C15.2983 50.3064 15.4874 50.325 15.7258 50.3666C15.9598 50.4037 16.237 50.4546 16.5411 50.3884L16.5314 50.3861Z" fill="#FF5C4D"/>
<path d="M115.703 53.1206L115.554 52.963C115.645 52.9705 115.703 53.0118 115.703 53.1206Z" fill="#FF5C4D"/>
<path d="M118.231 17.0464C118.231 17.0464 118.257 17.0234 118.273 17.0119C118.257 17.0349 118.248 17.0464 118.231 17.0464Z" fill="#FF5C4D"/>
<path d="M110.375 47.3388V47.3465C110.375 47.3465 110.341 47.3733 110.316 47.381L110.375 47.3388Z" fill="#FF5C4D"/>
<path d="M109.176 54.31C109.466 53.4471 109.367 52.873 109.325 52.2915C109.275 51.7062 109.292 51.1247 109.648 50.1717C109.739 49.2375 110.112 48.2545 110.376 47.3465C111.138 46.9375 110.567 46.1534 111.229 45.6582L110.865 45.448C111.088 45.2792 111.262 45.0766 111.072 44.8928L110.956 44.9003C111.295 44.6451 111.154 44.345 111.32 44.2174L111.204 44.2249L111.295 43.906L111.121 43.9548C111.502 43.5046 111.577 43.0318 111.486 42.6116L111.957 42.6566C111.544 41.7524 112.562 41.4485 112.015 40.6269L111.899 40.6344C113.273 39.6401 111.212 39.0061 112.504 37.9818C112.346 38.1094 112.264 37.9218 112.148 37.9293C112.33 37.449 112.446 36.9313 113.389 36.9388C113.406 36.5861 113.116 36.6461 112.76 36.5936C113.174 36.6011 113.373 36.2972 113.414 36.0233L113.249 36.1471L113.439 35.3592L114.209 35.5243C114.01 35.1004 113.265 35.4043 113.48 35.0066L114.126 35.0216C114.035 34.44 113.075 34.0873 112.636 33.5208C112.462 31.1909 114.201 28.6921 113.042 26.5198L112.553 26.426C111.841 26.3847 113.605 25.8257 112.951 25.7469L113.273 25.4955C113.149 25.4242 113.009 25.2742 112.851 25.4017C112.827 25.1691 112.942 25.1616 113.149 24.9928L112.702 24.7452C112.338 23.8259 113.182 23.0418 112.967 22.0738C112.024 20.9182 112.744 18.7271 113.125 17.4552C114.06 15.6618 111.039 13.6546 112.04 11.8199C111.933 11.7636 112.139 11.6061 112.222 11.6061L111.908 9.95147C111.908 9.95147 111.825 9.44872 111.808 8.78839C111.784 8.12806 111.808 7.31015 112.04 6.67608C112.512 5.4117 113.836 4.86392 117.238 7.85042L117.387 7.80539C117.909 8.7096 118.05 9.28739 117.354 9.93647C118.323 10.0115 117.553 10.6868 117.884 10.8932L117.959 10.8707C117.296 11.4485 118.695 12.0075 118.099 12.5628C118.174 12.5403 118.43 12.5215 118.439 12.3977C118.364 12.7916 118.207 13.3357 118.761 13.3544C118.72 14.2962 119.076 15.6018 118.248 16.2209L118.397 16.1758C117.826 16.5285 118.356 16.6223 118.074 17.0088C118.149 17.0275 118.19 17.0538 118.215 17.05C117.652 17.4327 118.19 18.1418 117.959 18.4457L118.331 18.4607L118.298 19.2036L118.199 18.926C117.189 19.0348 118.877 19.4813 118.24 20.029C118.389 20.5318 116.179 21.0721 116.7 21.5898C116.237 21.8412 117.462 21.3647 117.114 21.7399C117.644 21.7474 117.437 21.5636 117.867 21.6574C117.627 22.025 118.439 22.2539 118.091 22.7079L118.505 22.7229C117.768 23.3157 119.076 23.8334 118.364 24.2311C118.041 24.8389 119.597 24.6363 118.803 25.2704L119.357 25.5143C119.448 25.7844 118.679 25.7094 118.944 26.0095C119.291 25.9908 119.225 26.3885 119.556 26.2121C120.102 26.895 118.786 27.5966 119.697 28.4933C119.01 28.6846 119.407 29.1386 118.894 29.2812C119.192 29.3074 118.927 30.1854 119.581 29.6826C119.631 29.6376 119.631 29.5626 119.506 29.5663L119.912 29.5063C120.665 30.0241 119.473 30.4368 119.581 30.9433C119.457 30.7932 119.49 30.5943 119.208 30.7257L119.242 31.1946L119.589 31.1008L119.755 31.8024L119.341 31.7011C119.54 32.0463 120.251 32.1739 119.639 32.5566C119.299 32.7292 119.084 32.2264 118.935 32.5866C119.2 33.0481 119.614 33.7384 119.697 34.3275C119.225 34.2674 119.233 34.425 119.126 34.5863L119.54 34.6089C118.927 35.2242 120.433 34.849 119.937 35.4605L120.227 35.4118L119.357 35.5618C118.505 36.1059 120.193 35.8732 119.035 36.4773C119.117 36.2334 118.141 36.3497 118.29 36.6499L118.695 36.5786C118.596 36.7437 118.422 36.7962 118.497 36.9088C118.72 36.815 119.076 36.8675 118.993 37.1076L119.506 36.95L118.737 37.4003C119.134 37.7642 118.546 38.3195 119.101 38.477C119.101 38.477 119.316 39.2499 118.679 39.415C119.076 39.2687 119.175 39.6964 119.639 39.5839C119.184 39.7752 118.77 40.353 119.208 40.6006L119.266 40.5556C119.639 41.4373 118.472 42.0301 118.935 42.8217C118.463 42.773 118.67 43.1932 118.074 43.0769C117.371 43.8648 119.126 44.5814 117.205 44.8215C117.048 45.1854 117.586 45.268 117.652 45.4593L117.768 45.373C117.512 46.0559 117.462 46.2547 117.429 46.765C117.205 47.0126 116.328 47.0238 116.469 47.4891C116.841 47.354 116.75 47.5378 116.717 47.7067C116.791 47.5979 116.924 47.5716 117.123 47.8005C117.007 47.8267 116.932 47.8755 116.874 47.9168C116.899 47.9168 116.924 47.928 116.957 47.9243C116.783 48.2057 116.684 48.1532 116.659 48.0181C116.601 48.0218 116.535 48.0106 116.452 47.9656C116.849 48.277 116.278 48.7872 116.874 48.8435C116.584 49.6952 115.873 50.2805 115.5 50.9896C115.79 51.0834 116.096 50.9258 116.253 50.7232L116.038 51.2297C116.485 51.2447 116.353 50.9446 116.469 50.7945C117.065 51.4361 115.5 52.0176 115.939 52.7755L115.55 52.903L115.591 52.9481C115.409 52.9331 115.111 53.0794 115.012 53.1807C115.359 53.3082 115.897 53.2332 115.748 53.5934C116.022 53.9048 115.252 54.3925 114.871 54.7415C114.904 54.5351 114.664 54.5801 114.49 54.6514C114.391 54.8278 114.714 54.9703 114.49 55.0904L114.987 55.1617C114.557 55.0416 114.209 55.5744 113.961 55.6119C114.275 55.7582 114.441 55.3755 114.747 55.3605C114.275 56.0771 114.532 55.7207 113.994 56.4298C113.348 56.7525 113.58 56.291 113.017 56.4073C112.653 56.7187 112.09 56.9738 112.015 57.3903L111.701 57.1914C111.27 57.4541 110.956 57.6642 110.749 57.8705C110.558 58.0806 110.443 58.2832 110.393 58.5234C108.191 59.3338 106.594 59.4763 105.724 59.4688C104.83 59.4538 104.466 59.27 104.466 59.0186C104.392 58.7822 104.574 58.5234 104.731 58.3133C104.88 58.0957 105.054 57.9418 105.054 57.9418C105.567 57.2552 106.138 56.82 106.908 56.3173C107.653 55.8145 108.555 55.2367 109.209 54.2912L109.176 54.31Z" fill="#FF5C4D"/>
<path d="M4.52344 46.9324L4.67243 46.8179C4.58138 46.8233 4.52344 46.8533 4.52344 46.9324Z" fill="#FF5C4D"/>
<path d="M1.99544 20.7246C1.99544 20.7246 1.97005 20.7079 1.95312 20.6996C1.97005 20.7163 1.97851 20.7246 1.99544 20.7246Z" fill="#FF5C4D"/>
<path d="M9.85156 42.732V42.7375C9.85156 42.7375 9.88542 42.757 9.91081 42.7626L9.85156 42.732Z" fill="#FF5C4D"/>
<path d="M11.0504 47.7965C10.7607 47.1696 10.86 46.7525 10.9014 46.33C10.9511 45.9048 10.9345 45.4823 10.5786 44.79C10.4875 44.1113 10.1151 43.3972 9.85018 42.7375C9.08865 42.4404 9.6598 41.8708 8.9976 41.511L9.36181 41.3583C9.13832 41.2357 8.96449 41.0885 9.15487 40.9549L9.27076 40.9604C8.93138 40.775 9.0721 40.557 8.90655 40.4643L9.02243 40.4697L8.93139 40.2381L9.10521 40.2735C8.72445 39.9464 8.64995 39.603 8.741 39.2977L8.26919 39.3304C8.68306 38.6735 7.66493 38.4527 8.21124 37.8558L8.32713 37.8612C6.95307 37.1389 9.01415 36.6783 7.72287 35.9341C7.88014 36.0268 7.96292 35.8905 8.0788 35.896C7.8967 35.5471 7.78081 35.1709 6.83718 35.1764C6.82063 34.9202 7.11034 34.9638 7.46627 34.9256C7.0524 34.9311 6.85374 34.7103 6.81235 34.5113L6.9779 34.6013L6.78752 34.0289L6.01771 34.1488C6.21637 33.8408 6.96134 34.0616 6.74613 33.7726L6.10049 33.7835C6.19154 33.3611 7.15173 33.1048 7.59043 32.6932C7.76426 31.0006 6.026 29.1852 7.18484 27.607L7.67321 27.5389C8.38507 27.5089 6.62197 27.1028 7.27589 27.0455L6.95307 26.8629C7.07723 26.8111 7.21795 26.7021 7.37522 26.7948C7.40005 26.6258 7.28417 26.6203 7.07723 26.4977L7.52421 26.3178C7.88842 25.65 7.04412 25.0803 7.25933 24.3771C8.20297 23.5375 7.48282 21.9457 7.10206 21.0217C6.16671 19.7188 9.18799 18.2605 8.18641 16.9277C8.29402 16.8868 8.08708 16.7723 8.00431 16.7723L8.31885 15.5703C8.31885 15.5703 8.40163 15.205 8.41818 14.7253C8.44301 14.2456 8.41818 13.6513 8.18641 13.1907C7.7146 12.2721 6.3902 11.8742 2.98817 14.0438L2.83917 14.0111C2.31769 14.668 2.17698 15.0878 2.87228 15.5594C1.90382 15.6139 2.67362 16.1045 2.34252 16.2544L2.26803 16.2381C2.93022 16.6578 1.53133 17.0639 2.12731 17.4674C2.05281 17.451 1.79621 17.4374 1.78793 17.3474C1.86243 17.6336 2.0197 18.0289 1.46511 18.0425C1.5065 18.7266 1.15057 19.6752 1.97832 20.1249L1.82932 20.0922C2.40047 20.3484 1.87071 20.4166 2.15214 20.6973C2.07764 20.711 2.03626 20.73 2.01142 20.7273C2.57429 21.0053 2.03626 21.5205 2.26803 21.7413L1.89554 21.7522L1.92865 22.2919L2.02798 22.0902C3.03783 22.1692 1.34923 22.4936 1.98659 22.8915C1.8376 23.2568 4.04768 23.6493 3.5262 24.0254C3.98974 24.2081 2.76467 23.8619 3.11232 24.1345C2.58257 24.1399 2.78951 24.0064 2.35908 24.0745C2.59912 24.3416 1.78793 24.5079 2.13558 24.8377L1.72171 24.8486C2.45841 25.2793 1.15057 25.6554 1.86243 25.9444C2.18525 26.3859 0.629088 26.2387 1.42372 26.6994L0.869136 26.8766C0.778084 27.0728 1.54789 27.0183 1.28301 27.2363C0.935356 27.2227 1.00157 27.5116 0.670476 27.3835C0.124163 27.8796 1.44028 28.3893 0.52976 29.0408C1.21679 29.1798 0.819469 29.5096 1.33267 29.6132C1.03468 29.6323 1.29956 30.2701 0.645644 29.9048C0.595979 29.8721 0.59598 29.8176 0.720141 29.8203L0.314544 29.7767C-0.438705 30.1529 0.753251 30.4527 0.645644 30.8207C0.769806 30.7116 0.736694 30.5672 1.01813 30.6626L0.98502 31.0033L0.637365 30.9352L0.471815 31.4449L0.885688 31.3713C0.687029 31.622 -0.02483 31.7147 0.587702 31.9927C0.927078 32.1181 1.14229 31.7529 1.29129 32.0145C1.02641 32.3498 0.612535 32.8513 0.52976 33.2793C1.00158 33.2357 0.993297 33.3501 1.1009 33.4674L0.687031 33.4837C1.29956 33.9307 -0.206935 33.6582 0.289713 34.1024L0 34.067L0.869136 34.176C1.72171 34.5713 0.0331119 34.4023 1.19196 34.8411C1.10918 34.6639 2.08592 34.7484 1.93693 34.9665L1.53133 34.9147C1.63066 35.0346 1.80449 35.0728 1.72999 35.1546C1.5065 35.0864 1.15057 35.1246 1.23334 35.299L0.720141 35.1846L1.48995 35.5116C1.09263 35.776 1.68033 36.1795 1.12574 36.2939C1.12574 36.2939 0.910523 36.8554 1.54789 36.9754C1.15057 36.8691 1.05124 37.1798 0.587702 37.098C1.04296 37.237 1.45683 37.6568 1.01813 37.8367L0.960185 37.804C0.5877 38.4445 1.75482 38.8752 1.29129 39.4503C1.7631 39.4149 1.55616 39.7202 2.15214 39.6357C2.85573 40.2081 1.1009 40.7287 3.02127 40.9031C3.17854 41.1675 2.64051 41.2275 2.57429 41.3665L2.45841 41.3038C2.71501 41.7999 2.76467 41.9444 2.79778 42.3151C3.02127 42.495 3.89869 42.5031 3.75797 42.8411C3.38549 42.743 3.47654 42.8766 3.50965 42.9992C3.43515 42.9202 3.30271 42.9011 3.10405 43.0674C3.21994 43.0864 3.29443 43.1219 3.35237 43.1519C3.32754 43.1519 3.30271 43.16 3.2696 43.1573C3.44342 43.3617 3.54275 43.3236 3.56759 43.2254C3.62553 43.2282 3.69175 43.22 3.77452 43.1873C3.37721 43.4135 3.94835 43.7842 3.35237 43.8251C3.64208 44.4438 4.35395 44.8691 4.72643 45.3842C4.43672 45.4524 4.13045 45.3379 3.97318 45.1907L4.1884 45.5587C3.74141 45.5696 3.87386 45.3515 3.75797 45.2425C3.16199 45.7086 4.72643 46.1311 4.28773 46.6817L4.67676 46.7743L4.63538 46.807C4.81748 46.7961 5.11547 46.9024 5.2148 46.976C4.86715 47.0687 4.32911 47.0142 4.47811 47.2759C4.20495 47.5021 4.97476 47.8565 5.35552 48.1099C5.32241 47.96 5.56246 47.9927 5.73628 48.0445C5.83561 48.1726 5.51279 48.2762 5.73628 48.3634L5.23963 48.4152C5.67006 48.328 6.01772 48.7151 6.26604 48.7423C5.9515 48.8486 5.78595 48.5706 5.47968 48.5597C5.95149 49.0803 5.6949 48.8214 6.23293 49.3365C6.87857 49.5709 6.6468 49.2357 7.20967 49.3202C7.57388 49.5464 8.13675 49.7318 8.21124 50.0343L8.52578 49.8898C8.95621 50.0806 9.27076 50.2333 9.47769 50.3832C9.66808 50.5358 9.78396 50.683 9.83363 50.8575C12.0354 51.4462 13.633 51.5498 14.5021 51.5444C15.3961 51.5335 15.7603 51.3999 15.7603 51.2173C15.8348 51.0455 15.6527 50.8575 15.4954 50.7048C15.3464 50.5467 15.1726 50.435 15.1726 50.435C14.6594 49.9362 14.0882 49.62 13.3184 49.2547C12.5735 48.8895 11.6712 48.4697 11.0173 47.7829L11.0504 47.7965Z" fill="#FF5C4D"/>
</g>
<defs>
<clipPath id="clip0_8044_6845">
<rect width="120" height="60" fill="white"/>
</clipPath>
</defs>
</svg>
