<svg width="120" height="113" viewBox="0 0 120 113" fill="none" xmlns="http://www.w3.org/2000/svg">
<g clip-path="url(#clip0_8044_6768)">
<path d="M42.9035 62.9494C42.9243 62.8324 42.9578 62.8007 42.9969 62.7931L42.9688 62.5115C42.9448 62.6567 42.9209 62.8019 42.9035 62.9494Z" fill="#FF5C4D"/>
<path d="M25.9825 79.3722L25.9328 79.3687C25.9834 79.4094 26.0406 79.4525 26.052 79.5009C26.0897 79.4509 26.0665 79.408 25.9825 79.3722Z" fill="#FF5C4D"/>
<path d="M33.2748 79.1473C33.4033 79.1945 33.5317 79.2417 33.6427 79.2967C33.6372 79.2519 33.4831 79.1953 33.2748 79.1473Z" fill="#FF5C4D"/>
<path d="M43.0026 66.6618C42.9986 66.3522 43.0188 66.0368 43.0413 65.7149C42.9425 65.8254 42.8665 66.1936 43.0026 66.6618Z" fill="#FF5C4D"/>
<path d="M32.2901 78.8949C32.5465 78.9743 32.9677 79.0627 33.2828 79.1416C32.9796 79.0302 32.6493 78.9531 32.2901 78.8949Z" fill="#FF5C4D"/>
<path d="M14.8766 80.1871C15.0092 80.1844 15.1529 80.1712 15.3078 80.1474C15.3044 80.1168 15.3291 80.0892 15.3104 80.0603L14.8831 80.1895L14.8766 80.1871Z" fill="#FF5C4D"/>
<path d="M14.8475 79.8704C14.6906 79.2992 14.5823 79.2154 14.4858 79.3193C14.5853 79.4072 14.6999 79.574 14.8475 79.8704Z" fill="#FF5C4D"/>
<path d="M14.7997 65.2937C14.8028 65.4048 14.8188 65.5207 14.833 65.6212C14.8356 65.3949 14.821 65.2355 14.7997 65.2937Z" fill="#FF5C4D"/>
<path d="M12.413 73.771C12.3626 73.7893 12.3179 73.8319 12.2814 73.8921C12.3209 73.9435 12.3649 73.9228 12.413 73.771Z" fill="#FF5C4D"/>
<path d="M85.8262 23.1309L85.5625 22.7919C85.5793 22.8861 85.6822 23.0046 85.8262 23.1309Z" fill="#FF5C4D"/>
<path d="M102.306 38.7568L102.039 38.3872C102.147 38.5516 102.247 38.6984 102.306 38.7568Z" fill="#FF5C4D"/>
<path d="M14.2081 79.7361C13.9727 80.0604 13.3639 80.5264 13.5111 80.7639C13.9264 80.5276 14.3919 80.3538 14.8768 80.1871C14.3089 80.2207 13.9005 80.0779 14.2104 79.7296L14.2081 79.7361Z" fill="#FF5C4D"/>
<path d="M42.1236 25.2778C42.7343 24.9666 43.0443 24.8383 43.1784 24.7115C42.8102 24.899 42.4233 25.0577 42.0843 25.2853L42.1212 25.2842L42.1236 25.2778Z" fill="#FF5C4D"/>
<path d="M57.4652 20.0997L57.4003 20.1187L57.5036 20.1138L57.4652 20.0997Z" fill="#FF5C4D"/>
<path d="M41.1397 26.0377C41.0857 26.1059 41.0293 26.1805 41.0098 26.254C41.234 26.1384 41.2272 26.0772 41.1397 26.0377Z" fill="#FF5C4D"/>
<path d="M42.3061 58.9875C42.3094 58.8787 42.3144 58.7852 42.3359 58.6465C42.3033 58.7958 42.3023 58.8981 42.3061 58.9875Z" fill="#FF5C4D"/>
<path d="M56.3567 19.6684C56.7306 19.8057 57.1027 19.9278 57.4647 20.0974L57.9801 19.9273C58.2102 19.6376 56.8966 19.5512 56.3502 19.666L56.3567 19.6684Z" fill="#FF5C4D"/>
<path d="M41.1381 26.0378C41.3211 25.7969 41.6607 25.5475 42.0878 25.2789L41.4847 25.3288C40.2398 25.9353 40.9348 25.9338 41.1381 26.0378Z" fill="#FF5C4D"/>
<path d="M13.9508 81.337C14.0027 80.9745 14.2129 81.3599 14.4074 81.6881C14.6084 82.0187 14.7708 82.2545 14.6525 81.4774L13.9162 80.1504C14.182 80.3434 14.309 79.4951 14.486 79.3106C13.9318 78.8063 14.0659 81.2619 13.1484 79.6703C12.7939 79.32 12.7092 77.9903 12.6833 77.3205C12.7893 78.8121 12.231 77.3378 12.0337 76.7371C12.0953 76.2681 12.0762 75.6596 12.0746 75.1234C12.0754 74.5808 12.1329 74.103 12.2718 73.8826C12.1607 73.7465 12.0863 73.0295 12.1203 72.5358L12.2759 72.4902C12.1695 71.38 12.1172 72.8647 11.9648 72.5813C11.9441 72.1776 12.0286 71.6657 12.1151 71.0886C12.1604 70.8044 12.1999 70.4961 12.2393 70.1878C12.2876 69.8754 12.3254 69.5518 12.3414 69.2276C12.2443 70.5345 12.4944 71.6314 12.6259 72.5527C12.9513 70.1999 13.382 72.9846 13.8324 73.4728C13.701 72.5515 13.6134 71.9104 13.4988 71.3034C13.3841 70.6964 13.2553 70.1282 13.1869 69.3547C13.6319 67.5154 14.3095 69.5837 14.3201 70.0351C14.1806 68.3552 13.8889 66.5313 13.8361 65.5948C14.2896 66.9353 14.5083 66.7368 14.865 67.9023C15.3655 66.6116 14.9558 66.2923 14.8125 65.6234C14.8122 66.0048 14.7973 66.5862 14.6591 66.7042C14.8795 65.1198 13.9694 65.2697 13.6813 64.3568C13.8875 63.7723 14.1254 62.9206 14.3992 62.2509C14.6601 61.5764 14.92 61.0849 15.1789 61.2167L14.6044 61.1084C14.7873 59.6863 15.0623 60.4549 15.2956 60.2765C15.0419 59.6698 14.2881 60.1926 14.7322 57.7953C15.5442 58.3944 15.3643 55.7238 16.1894 56.0269C16.456 54.9364 16.1338 54.2971 16.6069 53.2017C17.4683 52.1242 17.1462 55.2486 16.8391 55.8694C16.4024 57.4257 16.5225 55.5551 16.3456 56.1797C16.2739 56.6963 16.2369 57.2182 16.1846 57.7419C16.5595 56.9552 17.2525 55.3977 17.5626 55.7097C17.8298 54.1572 16.8139 56.7992 17.0879 55.0878C17.2535 54.7745 17.4232 54.47 17.6016 54.1614C17.9255 52.4536 16.8611 54.3075 17.4618 52.1219C17.3571 53.69 18.2817 49.7966 18.8315 50.1526C18.4806 49.9724 18.8238 49.0126 19.2028 48.0147C19.5947 47.0216 20.0354 45.9949 19.8392 45.6514L19.2131 46.7053L19.6357 46.5891C19.1394 47.808 18.9572 48.9076 18.346 50.121C18.4543 49.0236 17.5955 50.2341 17.8127 48.9787C18.2233 46.6131 18.4226 48.5498 18.5448 48.2352C18.6284 47.6057 18.7426 46.9726 18.8544 46.3461L18.0676 47.3996C18.2794 46.6998 18.5705 45.8823 18.9111 45.0097C19.2809 44.1771 19.655 43.2728 20.1299 42.4128C21.8671 40.0577 20.3538 42.9206 21.6828 41.3032C21.9864 40.4317 21.7123 40.5217 22.4176 39.4309C21.8709 39.927 21.8717 40.5656 21.5992 40.9717C20.8453 41.2743 22.5787 38.8298 22.1197 38.7052C22.571 38.3501 22.6826 38.5452 22.6234 39.0076C23.6388 37.0476 24.9697 35.365 25.965 35.1217L26.0933 34.0096C26.7156 33.3065 26.9794 33.1246 27.0168 33.1824C27.0542 33.2401 26.8804 33.5358 26.723 33.8668C26.3952 34.5241 26.0486 35.2331 27.1663 34.1544C27.5886 33.6786 28.0384 33.2275 28.3767 32.8016C28.715 32.3756 28.9781 31.9954 29.0925 31.722C28.818 31.9733 28.5669 32.2405 28.3134 32.5142C28.6364 31.6498 28.4501 31.5594 29.2676 30.4217C30.01 29.7701 29.8952 30.4248 30.5488 29.3957C32.9865 27.6648 31.8183 29.5026 31.8453 30.2095C33.6036 29.058 31.8233 31.7714 32.6947 30.6462L32.3254 30.7967C32.5069 30.4599 32.6778 30.1118 32.8698 29.7862L33.4635 28.8011C31.4451 29.5636 33.2265 29.7705 32.1813 29.79L31.2397 30.5666C31.2732 30.3148 31.8459 29.7475 32.422 29.2108C33.0192 28.6966 33.5946 28.1816 33.5841 27.9503C33.721 28.096 33.7677 28.6487 32.8015 29.4529L33.8516 29.5599C34.4538 29.1722 34.52 28.4702 35.0507 28.5185C36.1909 28.299 34.2552 30.0163 36.4574 28.6904C38.7998 27.3206 38.205 26.6472 39.9073 25.8493C39.6634 25.7964 39.261 26.0374 38.7367 26.2923C39.1579 25.7794 38.099 26.1167 38.9241 25.4588C39.678 25.5963 41.417 24.6578 42.8231 24.1106C42.5617 24.5061 43.5484 24.4064 43.1764 24.7246C43.8488 24.3847 44.4602 24.0517 44.699 23.7579C43.9439 23.884 43.7449 23.9283 43.8132 23.8214C43.8815 23.7144 44.2281 23.5262 44.6044 23.3564C45.3514 22.9925 46.1976 22.577 44.9732 22.7068C46.1226 22.322 46.8698 22.3178 47.4892 22.3032C48.1022 22.2863 48.6204 22.3886 49.3741 22.3867C49.3434 22.4708 48.6795 22.6671 48.3014 22.8217C47.9285 23.0221 47.8157 23.0908 48.8605 23.0124C51.1403 22.0744 48.2884 22.3767 50.065 21.4153L48.49 21.5044C48.3271 21.2097 48.9985 21.0529 49.7577 20.9356C50.5129 20.8095 51.3609 20.8496 51.5553 20.7376C52.5441 20.7927 50.2207 21.069 51.2211 21.3925C52.6559 21.3473 53.3648 20.9475 54.2975 21.136C53.4212 21.6138 53.9766 21.4143 52.9907 21.8518C54.659 21.7677 54.6141 21.8906 54.4788 22.061C54.3452 22.2467 54.1149 22.3968 55.3679 22.549C56.1628 22.4742 55.6594 22.0912 56.9571 22.2011C56.2168 21.7457 56.3077 21.537 54.1826 21.5707C54.539 21.1954 55.2521 21.2446 56.0466 21.331C56.8441 21.3892 57.727 21.5742 58.4916 21.4222C57.2966 21.2913 58.1231 21.2501 56.8168 21.2838C56.668 20.7303 56.1593 20.6021 57.4068 20.1286C56.683 20.1489 56.1639 20.369 55.58 20.5067C55.2889 20.5832 54.9727 20.6284 54.6107 20.6788C54.2463 20.7357 53.8351 20.7607 53.3295 20.7438C53.0358 20.4671 53.6502 20.326 54.348 20.1568C55.0482 19.9812 55.8332 19.8734 55.8488 19.4903C56.3713 19.3007 57.2728 19.2944 58.1762 19.4429C58.6283 19.5062 59.0821 19.5849 59.4894 19.6905C59.9009 19.805 60.2601 19.9223 60.5349 20.0306C61.5746 19.9063 62.7139 20.0094 63.8071 20.0588C64.8972 20.1364 65.9328 20.2234 66.7988 20.094C67.4883 20.428 68.7981 20.645 70.2364 21.0707L71.3459 21.3756C71.7133 21.5105 72.0854 21.6326 72.4552 21.7611C73.1924 22.0245 73.9114 22.318 74.5392 22.6807C74.6664 22.9329 75.4473 23.3371 75.9567 23.6636C76.4638 23.9966 76.7249 24.2026 75.8698 23.9618C76.1343 23.9783 78.2602 25.0233 77.8551 24.471C77.5841 24.4522 77.3882 24.2482 76.9277 24.0276L77.5316 23.8753C78.1154 24.2585 78.7839 24.5701 79.457 24.8688C79.7892 25.0201 80.1279 25.1739 80.4377 25.3464C80.7428 25.5318 81.028 25.732 81.2772 25.9703C81.3716 26.2324 80.8157 25.9328 80.3108 25.6739C79.7923 25.4321 79.316 25.2351 79.6042 25.6271C79.9619 25.6485 80.5057 25.8409 81.1443 26.1342C81.7852 26.421 82.5297 26.8045 83.2395 27.2633C83.9627 27.7051 84.6695 28.1921 85.2507 28.6624C85.8408 29.1286 86.3324 29.544 86.5985 29.8765C87.4047 30.6716 87.1648 31.1484 87.4848 31.4933L88.8994 32.7246C88.9456 32.9984 88.8367 33.1565 88.9425 33.5475C89.5184 34.2726 90.076 34.5875 90.5526 34.9239C91.9946 36.921 90.7828 36.2557 89.6916 35.6201L88.8479 34.5472C87.9906 34.0121 86.9989 33.0242 87.2964 33.9112C87.8291 34.3343 87.9468 34.1721 88.2006 34.258L88.5782 35.0056C89.3051 35.3974 90.9043 36.9239 91.0032 36.5127C91.9342 37.8672 93.3969 39.0868 94.0881 40.3971C93.6329 39.4816 94.5563 40.3564 94.5878 39.9498L93.5502 38.5268C94.0369 39.0358 94.6642 39.6404 95.241 40.2631C95.8018 40.9093 96.3298 41.5655 96.6357 42.1694C96.3553 42.1764 96.2662 42.1803 96.4786 42.8599C96.1701 41.9029 98.2731 44.6123 97.3757 42.7053C96.8293 42.1598 96.3561 41.6338 95.778 40.8345C95.7694 40.017 96.7771 41.2015 97.5324 41.7358C97.8979 42.1562 98.4336 42.7711 99.0074 43.4221C99.5676 44.0901 100.153 44.7893 100.638 45.3636C101.047 46.2255 100.749 46.7398 101.872 47.9299C101.194 45.9421 103.568 49.1323 104.253 49.3986C104.471 49.9411 104.763 50.3637 105.061 50.7669C105.351 51.1742 105.655 51.5645 105.867 51.9651C106.007 52.222 106.101 52.4841 106.137 52.7467C105.994 52.5769 105.798 52.2922 105.578 51.9545C105.032 51.1082 104.284 49.9531 103.829 49.6979C103.644 49.7251 103.475 49.9055 103.211 49.8672C103.08 49.8481 102.927 49.7848 102.741 49.6355C102.645 49.5564 102.548 49.4621 102.439 49.3412C102.329 49.2203 102.156 48.9951 101.988 48.7723C102.351 49.441 102.475 49.6626 102.619 49.8695C102.754 50.0587 102.86 50.149 102.963 50.2086C103.161 50.3256 103.331 50.3 103.672 50.748L103.225 50.0703C103.547 50.3499 103.448 49.6388 103.837 50.2952C104.198 50.9705 104.421 51.5 104.574 51.9229C104.806 52.529 104.893 52.95 104.927 53.3367C104.946 53.5268 104.96 53.7081 104.969 53.9024C104.972 54.0942 105.028 54.2833 104.911 54.5414C105.082 54.4352 105.283 54.6046 105.406 54.8697C105.535 55.1371 105.496 55.4825 105.357 55.6441C104.93 55.8909 104.567 55.8236 104.372 55.7591C104.163 55.6898 104.064 55.6019 103.966 55.5075C103.783 55.3082 103.587 55.1041 102.865 54.9196C102.799 55.2402 101.704 55.2561 102.276 55.4515C101.701 55.5262 101.877 55.3635 101.396 55.319C101.27 55.6247 100.903 55.8493 100.044 55.9593C100.066 55.7987 100.077 55.568 100.868 55.5432C99.9106 55.5435 99.5077 55.0654 99.6821 54.7479L100.895 54.79C101.117 54.402 99.7658 54.7787 99.6541 54.4442C100.025 54.3091 100.492 54.4731 100.704 54.3529C100.415 54.2028 100.167 54.2217 99.9013 54.3076C99.7698 54.3474 99.6313 54.4065 99.4951 54.4592C99.3436 54.5136 99.1376 54.5773 98.9844 54.6164C98.4529 54.6706 98.3036 54.579 98.1807 54.4752C98.0971 54.3638 98.2259 54.191 98.1939 54.0986C97.4841 54.3807 97.3518 54.5229 97.5082 54.595C97.5832 54.6299 97.7344 54.6561 97.9209 54.6659C98.0986 54.6798 98.3725 54.6704 98.4716 54.6995C99.0122 54.7807 99.6836 54.8439 98.8591 55.26C98.6673 55.505 97.6754 55.7789 96.7153 56.0057C95.7328 56.2538 94.6425 56.4768 93.7621 56.7257C95.4016 56.8804 93.7328 57.4265 91.9641 58.046C94.3415 57.4814 92.6951 58.4466 95.4177 57.5172L95.5499 57.8959C94.3592 58.1335 92.9213 58.2876 91.7422 58.5734C91.962 58.4121 91.6629 58.3902 92.0369 58.2268C90.8777 58.5786 89.7266 58.9481 88.5813 59.3417L88.8632 58.9904C86.6987 59.5525 83.9921 60.1576 82.7842 60.763C83.7928 60.3632 84.7968 60.4165 83.7703 60.9052C83.2251 61.2771 82.1169 61.8898 81.305 62.1711C81.1211 62.0742 80.6822 62.1551 80.2497 62.2383C79.3519 62.4147 78.5888 62.6626 79.7668 61.8188C78.6663 62.3903 78.2824 62.7408 77.8628 62.8288C77.6551 62.8772 77.4375 62.8926 77.1626 62.7843C77.0273 62.7346 76.8827 62.6301 76.7658 62.4698C76.6424 62.3071 76.5925 62.0833 76.4964 61.8059C76.5779 62.0633 76.6113 62.3323 76.7632 62.5569C76.9175 62.7749 77.1534 62.9497 77.4231 63.012C77.4307 63.2716 77.0184 63.4796 76.7763 63.6621C76.6605 63.759 76.5746 63.8742 76.617 64.0585C76.6552 64.2339 76.8594 64.4556 77.3243 64.5237C76.7277 64.576 76.4009 64.3899 76.1835 64.3247C75.9707 64.2466 75.8476 64.2234 75.7163 64.1825C75.5874 64.1351 75.4768 64.0578 75.3255 63.8115C75.1806 63.5675 74.9646 63.158 74.6211 62.3569C74.4435 61.602 74.6483 61.5819 74.9577 61.9156C75.2889 62.25 75.6321 62.9117 75.8677 63.6879C75.654 62.8317 75.631 61.9135 75.0878 61.2591C75.0806 60.8383 75.3632 61.1255 75.5876 61.472C75.8248 61.8233 76.0015 62.2404 76.0434 62.1457C75.858 61.432 75.8175 61.4831 75.7698 61.5536C75.7285 61.6265 75.6867 61.7212 75.4038 61.0744C74.7571 60.0225 74.6444 59.5703 74.6156 59.1488C74.565 58.7267 74.5439 58.2641 73.7069 57.333C74.0571 57.7552 74.4743 58.6347 73.9792 58.1887C73.053 56.8214 72.6325 56.5715 72.3385 56.3755C72.0246 56.1942 71.7797 56.1042 70.8941 55.346C70.2979 54.0559 71.1227 53.9994 69.5164 52.4923C69.8301 52.7543 70.1462 53.0098 70.4552 53.2847C69.9826 52.5168 69.2847 51.8056 68.5552 51.2808C66.5463 50.0953 64.5389 49.3065 62.4902 48.8107C60.4415 48.3149 58.3499 48.0968 56.1091 48.2274C56.64 48.1949 57.1784 48.202 57.7185 48.2243C57.9734 48.3473 57.6384 48.3636 57.2407 48.3716C56.8383 48.3925 56.3814 48.4227 56.3893 48.521C56.0705 48.4333 55.7411 48.3343 55.4087 48.2635C55.2728 48.4557 55.8286 48.5351 56.3333 48.6545C56.838 48.7739 57.2881 48.9026 56.9815 49.0614C56.855 49.0076 56.5478 48.9681 56.3647 48.9889C56.6561 49.0519 56.9457 49.0996 57.2323 49.1755C56.2556 49.0075 55.3567 49.1468 54.5558 49.2781C53.7525 49.4158 53.0383 49.5497 52.2603 49.4179C53.1794 49.1833 53.6871 49.0543 53.9672 48.9078C54.2538 48.7637 54.3169 48.6108 54.3713 48.462C54.4279 48.3067 54.4846 48.1515 54.7841 48.0121C55.0771 47.8703 55.6217 47.7402 56.6487 47.7506C54.479 47.8266 56.2638 47.3231 56.0584 47.145C54.8709 47.0535 55.4859 47.4115 54.1669 47.3598C54.1667 47.2204 54.8804 47.0277 55.4484 46.9135C56.0147 46.7841 56.4319 46.7026 55.7777 46.5723C55.6242 46.9928 54.4208 46.9249 53.882 47.2992C52.892 47.2877 53.8728 47.0243 53.4301 46.9351C52.8756 47.0322 52.5906 47.2723 52.0919 47.3165L52.4124 46.9794C50.9846 47.0858 50.7958 47.3026 50.5923 47.4993C50.4894 47.6009 50.373 47.7195 50.1034 47.8773C49.8338 48.035 49.4005 48.2206 48.6782 48.5569C48.7653 48.919 49.5526 48.3646 50.7737 47.9034C51.2001 48.1774 50.3044 48.6481 49.504 49.2784C48.6802 49.8929 47.995 50.6683 48.3257 50.9438C47.3225 51.7491 47.4243 51.6104 47.5117 51.3711C47.6137 51.1518 47.7172 50.8083 46.7701 51.4801C46.1202 51.7183 46.3271 51.3321 46.7689 50.7827C47.2189 50.2511 47.9366 49.627 48.128 49.3232C47.3359 49.6705 46.5589 50.0967 45.842 50.6183C45.9343 50.0653 46.3748 49.5595 46.807 49.1167C47.2392 48.6739 47.6712 48.3117 47.7414 47.9193C47.2757 48.1737 46.9502 48.3843 46.7098 48.5821C46.4589 48.7687 46.2849 48.9249 46.1191 49.0988C45.7898 49.44 45.4727 49.8077 44.8249 50.6409C46.2221 49.6575 46.0224 50.0243 45.7099 50.4597C45.3862 50.9057 45.0339 51.51 45.8954 51.0928C45.3218 51.5424 45.0898 51.6772 44.8336 51.8986C44.5708 52.1175 44.2604 52.407 43.6565 53.3003C43.9677 52.6883 43.8939 52.6098 43.8327 52.4773C43.7884 52.3583 43.7484 52.1675 44.3602 51.4532C43.4047 52.6282 43.1812 53.1403 42.9325 53.6212C42.7072 54.118 42.4392 54.5918 41.8797 55.9637C41.9318 56.4817 42.3457 55.8487 42.6456 55.548C42.9478 55.2409 43.0441 55.2175 42.5709 56.8338C42.3228 57.513 42.2089 57.3244 42.3489 56.921C41.8688 58.0358 42.0554 57.965 42.321 57.7984C42.5865 57.6319 42.9319 57.4066 42.8216 58.1291C42.604 59.1056 42.3685 59.4299 42.338 58.9932C42.2956 59.77 42.4247 59.9568 42.5253 60.0818C42.6347 60.2027 42.7219 60.264 42.7095 60.7584C42.7398 60.6154 42.7918 60.4731 42.8308 60.3261C42.8614 60.5427 43.0981 60.3949 43.281 60.4547C43.4615 60.521 43.5846 60.7644 43.5141 61.7582C43.4319 63.2247 43.2043 62.7669 43.0318 62.7989C43.186 63.978 43.1293 64.8742 43.0697 65.7181C43.1486 65.6223 43.2592 65.6996 43.3117 66.0564C43.4319 66.5481 43.4809 66.8742 43.4962 67.0926C43.5231 67.3593 43.4987 67.5263 43.4504 67.6186C43.3578 67.8121 43.1954 67.7964 43.2833 68.2763C43.4571 69.1618 43.625 69.5829 43.7688 69.7898C43.9849 70.1187 44.1473 69.9142 44.377 70.0059C44.5897 70.0841 45.009 70.5976 45.3013 72.1796C45.2593 71.834 45.2045 71.4837 45.1139 71.091C45.0509 70.723 44.9323 70.3273 44.8159 69.925C44.5081 68.9463 44.2191 67.9157 44.0626 66.9632C44.3354 67.1368 44.6618 67.0439 44.5246 66.3185C44.1662 66.3189 43.6379 65.0831 43.6561 63.8719C43.8525 63.6946 43.9965 64.4812 44.1816 65.0554C44.3667 65.6296 44.5348 65.9701 44.6335 64.9793C44.6297 65.33 44.6978 65.7439 44.7894 66.1737C44.8352 66.3886 44.8851 66.6124 44.935 66.8361C45.0092 67.1935 45.1038 67.5951 45.2038 67.962C44.6992 67.1016 45.2089 68.969 45.5664 70.032C45.7646 70.7504 45.8073 71.0742 45.2742 70.0714C45.8129 71.6192 45.8941 72.6981 45.9596 73.4998C45.9721 73.8859 46.0188 74.2186 45.9916 74.5534C45.962 74.8947 45.8338 75.2657 45.633 75.5955C45.4386 75.9276 45.1693 76.2248 44.8696 76.4448C44.5717 76.6802 44.2389 76.7707 43.8737 76.93C43.1697 77.2363 42.251 77.5298 40.9308 77.7418C41.026 77.6813 41.2733 77.5447 41.6209 77.3937C41.7947 77.3181 42.0054 77.2415 42.2145 77.1495C42.4153 77.0399 42.6355 76.9374 42.8733 76.8266C43.1217 76.7271 43.3384 76.594 43.5851 76.4792C43.8276 76.3555 44.0841 76.2737 44.3262 76.0912C44.8274 75.7397 45.2436 75.1003 45.3793 74.5485L45.6199 74.4902C45.6179 74.1153 45.5263 73.9056 45.4915 73.7607C45.4479 73.62 45.421 73.5734 45.3987 73.5946C45.3475 73.6345 45.402 73.9259 45.3494 74.3101C45.2985 74.7096 45.0251 75.2181 44.7201 75.4729C44.4168 75.7429 44.1545 75.8006 44.1847 75.6577C43.8812 76.0084 43.4851 76.1123 43.0782 76.2856C42.6801 76.4549 42.1819 76.558 41.6901 76.6634C40.6451 76.8225 39.4527 76.8246 38.2429 76.7543C37.6401 76.7236 37.0314 76.6688 36.4251 76.6074C35.8622 76.5474 35.2928 76.485 34.717 76.4202C33.7278 76.3062 32.7298 76.1964 31.7316 76.1672C32.4095 76.4529 31.6065 76.51 31.42 76.7203C33.031 76.8132 32.7521 76.6961 33.9224 77.0747C33.6707 77.3637 32.7122 77.1657 32.188 77.3399C31.7339 77.6426 33.403 77.4561 33.9655 77.6774C32.4023 77.7341 32.5464 77.7797 31.611 77.979C30.796 77.6283 30.9196 77.4902 30.307 77.1258C26.5988 76.71 26.9627 77.3352 24.0701 77.0283C25.6704 77.1906 23.3303 76.6318 25.0764 76.855L24.1107 76.757C26.619 76.3946 31.0894 76.885 30.7279 76.0332C28.6032 75.9056 27.0312 76.1865 24.5095 76.0452L24.629 75.8983C22.8064 75.7643 24.6449 76.0949 24.2071 76.2129C22.1843 76.3869 21.6027 75.3369 20.234 75.9419C20.9067 75.9616 21.594 76.0013 22.2743 76.0604C20.7274 76.3725 22.7263 76.1238 22.3414 76.6573C20.9832 76.8333 19.149 76.8712 17.3459 77.1845C15.5305 77.4714 13.7658 78.0997 12.6009 79.0877C13.497 78.896 13.6785 78.7792 14.7868 78.3867C14.5395 79.2643 14.1324 79.2981 14.8417 79.6981C15.2303 79.5547 15.6488 79.4297 16.0948 79.3294L16.2821 79.9778C15.934 80.07 15.6212 80.1458 15.3161 80.1805C15.3115 80.4135 14.8824 80.5274 14.5067 80.6755C14.1309 80.8236 13.7851 80.99 13.8685 81.182C13.9755 81.0892 14.1058 81.0124 14.2298 80.9332C14.3538 80.8541 14.4801 80.7684 14.621 80.7028C14.8994 80.7611 14.7824 80.9015 14.5474 81.0646C14.4404 81.1573 14.3029 81.2535 14.159 81.3474C14.032 81.4548 13.9115 81.5646 13.7957 81.6615C14.1552 81.6982 14.4707 81.4546 14.9612 81.1726C15.4323 80.8834 16.0789 80.5341 16.8336 80.3491C16.6465 80.141 18.1846 79.3121 16.5845 79.59C16.5382 79.3162 17.4758 78.971 18.1863 78.8872C17.8574 79.0671 19.596 79.4711 18.0408 79.8462C18.7669 79.5994 18.95 79.5786 19.1493 79.5931C19.3511 79.6012 19.5593 79.6116 20.4745 79.5077C20.3499 79.6086 21.1435 79.5774 21.9909 79.6392C22.8318 79.6987 23.7007 79.8418 23.5751 80.1258C24.2284 79.9183 23.5597 79.2471 25.9464 79.3976C25.3845 78.9344 22.7627 78.7269 24.5553 78.4023L23.3917 78.6058C21.7829 78.367 23.8426 78.1919 21.7422 77.9779C22.3475 78.0021 23.6382 77.8307 23.9114 78.1438C23.655 77.7048 24.4628 77.6347 25.3731 77.6243C26.2834 77.6139 27.2857 77.6519 27.3685 77.3449C27.8376 77.6419 28.4931 77.7287 29.7534 77.7808C29.5582 77.9952 30.2273 78.285 29.2458 78.35C28.4509 78.2047 27.8678 78.2399 27.0157 77.9709C27.4176 78.8522 30.1697 78.5427 32.3067 78.9168C32.0119 78.8232 31.9341 78.7359 32.5378 78.6643C33.1991 78.7751 34.2579 78.9587 35.0552 79.0975C36.2883 79.2643 37.1952 79.4434 36.5103 79.6173C38.3636 79.6672 40.2211 79.6453 41.9407 79.4406C43.6651 79.2231 45.0185 78.6198 46.0743 77.8705C46.168 77.9342 45.9564 78.1133 45.6428 78.2915C45.3227 78.4674 44.9966 78.6998 44.7371 78.8098C44.9455 78.7397 45.1046 78.6441 45.2638 78.5485L45.7566 78.26C46.0896 78.0889 46.377 77.8423 46.6904 77.5246C47.3037 76.9062 47.7476 75.9908 47.8659 75.3666C48.0551 74.9886 48.1211 75.3283 48.0048 75.8872C47.8983 76.479 47.4147 77.3431 47.3243 77.6107C47.7455 77.0978 48.0767 76.4711 48.2527 75.9489C48.3472 75.6902 48.3818 75.4754 48.4305 75.2219C48.4768 74.9748 48.5331 74.7607 48.5509 74.4517C48.6295 74.6567 48.7018 74.8593 48.7577 75.0266C48.7574 74.8871 48.7638 74.6694 48.7633 74.3904C48.7717 74.1073 48.8006 73.7878 48.7595 73.3399L48.7329 72.6919C48.703 72.4534 48.6456 72.1902 48.6052 71.9406C48.5589 71.4468 48.3603 70.8896 48.2102 70.3796C47.8007 69.2387 47.5732 68.2601 47.6049 67.7729C47.4996 67.4407 47.3977 67.1392 47.3215 66.8471L47.2117 66.4473C47.1878 66.3725 47.182 66.3484 47.1762 66.3242L47.1459 66.247C47.0672 66.0421 47.0008 65.8636 46.9168 65.6933C46.7745 65.3623 46.6197 65.0854 46.4985 64.7767C46.2601 64.1682 46.0415 63.4056 46.333 61.9867C46.7268 62.1094 46.4134 63.6083 46.7695 64.2747C46.8172 63.9841 46.7511 63.4242 46.7512 62.9034C46.7514 62.3825 46.8176 61.9007 47.0338 61.7893C47.0026 60.8535 46.8794 60.3901 46.6774 60.0224C46.4971 59.6554 46.2444 59.3864 46.2082 58.8449C46.7635 57.2442 46.5983 58.7975 46.7427 58.7625C46.9179 58.3427 46.5112 57.2542 47.2535 57.1234C47.3494 56.3002 47.2941 55.671 46.552 56.6822C46.9692 55.8598 47.5697 54.7158 47.6086 54.4293C47.6074 54.913 47.8336 54.754 48.0946 54.5198C48.3661 54.2967 48.7006 54.0014 48.9172 54.169C49.4155 53.7652 50.2127 53.2437 51.0731 52.7894C51.9399 52.3375 52.8875 51.9446 53.4652 51.5039C53.3754 51.7497 53.3026 52.0091 53.2346 52.2555C53.7165 52.1171 54.2228 52.0317 54.735 51.9704C55.3293 52.1447 54.9783 52.2652 54.4319 52.3799C53.8792 52.4923 53.1186 52.6531 52.7957 52.7766C53.7294 52.562 54.566 52.4732 55.3895 52.4603C56.213 52.4473 57.0394 52.4867 57.968 52.6665C57.4519 52.4182 57.8016 52.3412 57.5723 52.0883C58.2813 51.9085 59.1805 52.3489 59.8992 52.5029C60.0165 52.7221 59.8767 52.8247 59.3262 52.7106C59.777 52.8175 60.2271 52.9461 60.679 53.0901C60.4247 53.4662 61.04 53.6629 59.6815 53.4794C60.0872 53.5697 60.4922 53.6818 60.9054 53.8116C62.1512 54.504 60.7017 54.0889 60.3427 54.1111C60.9966 54.4026 61.6468 54.7442 62.2957 55.1293C63.1192 55.3365 62.0719 54.5409 63.5077 55.2737C64.3264 56.0147 65.3045 56.7995 66.2953 57.6697C67.2458 58.5104 68.1509 59.4151 68.7932 60.3187C68.5774 59.8286 68.3118 59.3348 68.0115 58.8357C68.9126 59.9517 69.201 59.302 69.7221 59.4567C70.1231 60.0002 70.5585 60.6297 70.8837 61.2407L70.9963 61.4728L71.0967 61.6784L71.2192 61.9435C71.3402 62.3328 71.4571 62.7132 71.5659 63.076C71.6764 63.4541 71.7788 63.8145 71.877 64.166C71.9194 64.3503 71.9776 64.5111 72.0453 64.646L72.2261 65.0719C72.0537 64.8032 71.8724 64.6192 71.7632 64.4177C71.6517 64.2226 71.5558 64.0847 71.4716 63.9951C71.3095 63.8182 71.2109 63.848 71.1723 64.0539C71.1337 64.2598 71.1415 64.6588 71.2305 65.1757C71.2933 65.4042 71.3724 65.668 71.4726 65.9543C71.5227 66.0974 71.5768 66.2493 71.631 66.4013L71.8365 66.7996C72.2274 67.3907 72.5551 67.6945 72.8377 67.9817C73.1104 68.236 73.4084 68.4408 73.7013 68.5998C74.2894 68.9112 74.7666 69.0058 75.1395 69.0254C75.519 69.0474 75.8264 69.0063 76.1908 68.9494C76.524 68.9177 77.0183 68.7251 77.6972 68.6077C76.7877 69.0366 77.096 69.1131 77.8215 69.1082C78.1822 69.1014 78.6304 69.0752 79.0721 69.0468C79.5516 68.9148 80.0324 68.7393 80.3669 68.6641C80.742 68.5377 80.9427 68.5087 80.8297 68.658C81.7556 68.2645 82.6863 67.858 83.6092 67.4928L85.3036 66.8167C86.2553 66.4326 87.2151 66.0663 88.1855 65.7111C90.1263 65.0008 92.1232 64.3771 94.1813 63.886C94.0713 63.7869 92.8633 63.952 93.5496 63.6539C95.0372 63.1439 95.8455 63.3528 96.0857 63.4557C97.057 63.2183 97.82 62.9704 98.4171 62.7568C98.7135 62.6456 98.9707 62.542 99.1909 62.4395C99.4263 62.3353 99.5398 62.2449 99.8427 62.1361L99.6044 62.1879L99.4689 62.2188C99.3814 62.2381 99.3116 62.2491 99.2482 62.2625C99.1238 62.2828 99.0347 62.2867 98.9743 62.2719C98.86 62.2446 98.8649 62.151 98.925 62.0264C99.1785 61.9728 99.3751 61.935 99.567 61.9101C99.8439 61.8724 100.077 61.8552 100.286 61.8439C100.697 61.8189 100.985 61.8295 101.272 61.8248C101.557 61.8266 101.839 61.8131 102.225 61.7568C102.648 61.6995 103.233 61.5989 104.019 61.4105C104.596 61.5712 103.672 61.7382 102.647 61.9043C101.69 62.0812 100.781 62.2899 100.973 62.4851L102.009 62.3302L102.491 62.2506L103.027 62.1835C103.727 62.0885 104.369 61.9939 104.962 61.8892C105.249 61.8257 105.577 61.807 105.81 61.7092L106.511 61.4312C106.966 61.2462 107.413 61.0653 107.885 60.8721C108.599 60.9801 106.054 61.4614 107.808 61.225L108.2 61.0905C108.328 61.0419 108.485 61.0116 108.548 60.9394L109.065 60.5644C109.411 60.3174 109.759 60.0639 110.117 59.8063C110.705 59.355 111.41 58.2053 111.544 57.2198C111.584 56.9704 111.594 56.7615 111.576 56.5496C111.535 56.3217 111.497 56.0874 111.453 55.866C111.369 55.4168 111.292 54.9853 111.214 54.5602C111.172 54.3541 111.137 54.1504 111.095 53.9443C111.057 53.7471 111.032 53.5546 110.905 53.3242C110.704 52.8912 110.519 52.4783 110.343 52.0983L110.228 51.8944L110.195 51.0239C109.053 48.9246 108.146 47.5861 107.478 46.7319C107.006 45.6633 107.54 46.3218 108.211 47.4267C108.017 47.0767 107.813 46.7155 107.6 46.3584L107.348 45.9653L107.13 45.6429C106.841 45.2139 106.536 44.7865 106.242 44.3922C105.646 43.6011 105.086 42.9113 104.769 42.4575C105.053 42.4811 105.407 43.374 105.741 43.5407C104.499 41.397 102.058 39.3119 101.464 37.7363C101.642 37.8679 101.804 38.0449 101.936 38.2252C99.7443 35.2779 97.4549 32.9989 94.6055 30.1915C93.456 28.7348 93.133 28.6381 92.7847 28.5909C92.4365 28.5437 92.0723 28.5199 90.7462 27.3065C91.0704 26.9193 90.1545 26.084 88.9841 25.2652C88.3898 24.8708 87.755 24.4469 87.1905 24.0708C86.6125 23.7117 86.1183 23.3835 85.8327 23.1245L86.1379 23.5301C85.7131 23.352 85.2967 23.111 84.868 22.8435C84.437 22.5824 84.0178 22.289 83.6185 21.981C82.8376 21.3566 82.1036 20.7642 81.6302 20.3188C81.0546 19.9533 80.3928 19.5635 79.6717 19.1958C78.9529 18.8218 78.2091 18.4164 77.4192 18.097C75.8696 17.3956 74.2433 16.8643 72.9056 16.5636C73.0992 16.554 73.2969 16.5533 73.4857 16.5566C72.3861 16.2847 71.5281 15.9915 70.6732 15.6701C69.8017 15.394 68.9302 15.1179 67.8081 14.9478C67.8903 14.8826 68.7276 14.9921 67.9025 14.689C65.2862 13.926 62.573 13.4282 59.827 13.1604C57.0715 12.9185 54.2813 12.972 51.5105 13.2526C48.7373 13.5398 46.002 14.1637 43.346 14.9707C40.6747 15.7795 38.1481 16.9129 35.7034 18.1424C33.3515 19.3179 31.0943 20.8144 28.9084 22.4765C26.716 24.1361 24.6589 26.0656 22.7405 28.1561C18.8997 32.3281 15.743 37.3091 13.44 42.655C11.2794 47.8112 9.45444 53.1493 8.35073 58.5543C7.21307 63.9322 6.7973 69.3552 7.17661 74.4026C7.17661 74.4026 7.44142 74.9987 7.94024 75.8349C8.42381 76.6728 9.08274 77.7513 9.86862 78.7222C10.6087 79.6984 11.4846 80.5631 12.2277 81.0708C12.9683 81.585 13.5914 81.7405 13.9613 81.3482L13.9508 81.337Z" fill="#FF5C4D"/>
<path d="M42.3121 56.9123L42.4314 56.6637C42.3772 56.7534 42.3403 56.8349 42.3121 56.9123Z" fill="#FF5C4D"/>
<path d="M103.641 50.7385L104.008 51.3137C103.866 51.0633 103.749 50.8812 103.641 50.7385Z" fill="#FF5C4D"/>
<path d="M59.0952 20.0145C59.3425 20.3181 57.8464 20.7516 59.0702 21.0838C61.2321 21.3497 61.7335 21.1377 62.26 20.957C62.5213 20.8622 62.7954 20.7722 63.2822 20.7603C63.7738 20.7354 64.4744 20.8387 65.5951 21.133C64.8562 20.8543 64.121 20.5255 63.3655 20.292C63.3865 20.8352 61.7315 20.7628 59.9699 20.6219L59.4748 20.1759C59.7876 20.1001 60.1256 20.0555 60.474 20.0221C59.8022 19.9 59.9024 20.1863 59.0975 20.008L59.0952 20.0145Z" fill="#FF5C4D"/>
<path d="M60.6364 20.0591L60.5277 20.0192C60.5277 20.0192 60.4912 20.02 60.4674 20.0255L60.63 20.0567L60.6364 20.0591Z" fill="#FF5C4D"/>
</g>
<defs>
<clipPath id="clip0_8044_6768">
<rect width="97.3266" height="83.5056" fill="white" transform="matrix(0.938668 0.344822 -0.343002 0.939335 28.8281 0.151672)"/>
</clipPath>
</defs>
</svg>
