<svg width="204" height="241" viewBox="0 0 204 241" fill="none" xmlns="http://www.w3.org/2000/svg">
<path fill-rule="evenodd" clip-rule="evenodd" d="M17.0273 190.09C17.1421 190.392 17.2665 190.715 17.4104 191.08C17.8321 190.922 18.212 190.784 18.5501 190.665C18.1218 189.988 17.7476 189.4 17.2652 188.634C18.0295 188.203 18.6477 187.84 19.1558 187.54C19.0093 187.088 18.8297 186.537 18.6791 186.048C19.2481 185.251 21.0998 185.495 19.7984 184.031C19.7388 183.957 19.9744 183.644 20.0833 183.442C20.2746 183.061 20.5117 182.697 20.6877 182.31C21.3246 180.948 20.9909 180.202 19.4905 179.567C19.3529 179.516 19.2545 179.359 19.1643 179.274C19.5569 179.054 19.9021 178.868 20.2947 178.647C19.9697 177.783 19.6778 177.017 19.386 176.252C19.339 176.096 19.2976 175.925 19.2507 175.769C18.8872 176.052 18.5236 176.335 18.1657 176.603C18.1493 176.458 18.1274 176.329 18.111 176.184C18.4003 175.441 18.705 174.703 19.0991 173.72C17.9788 174.177 17.0825 174.542 16.0401 174.976C16.3407 174.202 16.5685 173.626 16.8187 172.99C15.3223 172.39 15.7673 173.732 15.377 174.231C15.0966 173.955 14.8163 173.679 14.561 173.429C12.9925 174.069 14.0072 174.943 14.1362 175.822C13.5643 175.301 12.9772 174.774 12.4054 174.253C12.6734 173.71 12.9024 173.273 13.2793 172.527C11.5417 172.966 10.3598 173.592 9.44479 174.956C9.17603 174.459 8.96545 174.087 8.76043 173.7C7.97081 174.058 7.87507 174.636 8.47324 175.433C7.93041 175.685 7.40847 175.927 7.19969 176.024C6.72498 177.654 6.33007 179.017 5.87773 180.586C5.97465 180.794 6.18228 181.269 6.41896 181.806C5.1864 182.76 4.04292 183.659 2.68359 184.722C3.90492 184.51 4.87017 183.719 5.92553 184.434C5.48704 185.349 4.93226 186.013 3.89695 186.379C4.39386 186.821 4.70475 187.108 5.0656 187.448C3.97841 188.715 4.62623 190.165 4.76556 191.395C4.8967 192.553 6.41097 193.245 6.81723 194.504C6.84071 194.582 7.045 194.639 7.15349 194.627C7.92819 194.546 8.9068 194.713 9.40267 194.305C10.12 193.718 10.69 193.771 11.4547 193.86C12.5891 193.98 14.1848 192.934 14.4674 192.066C15.0693 190.137 15.1696 190.052 17.0217 190.106L17.0273 190.09ZM11.3853 175.336C11.4718 175.195 11.543 175.047 11.6295 174.905C12.0548 174.974 12.642 174.79 12.658 175.836C12.1689 175.658 11.7771 175.497 11.4006 175.342L11.3853 175.336ZM18.426 180.582C18.8976 180.477 19.3692 180.372 19.8408 180.267C19.8669 180.433 19.8721 180.608 19.8982 180.773C19.4281 180.827 18.958 180.88 18.4879 180.934C18.4603 180.819 18.4536 180.696 18.426 180.582ZM12.0262 193.15C11.822 191.671 12.8532 191.979 13.4154 191.768C13.0336 192.149 12.6462 192.544 12.0262 193.15Z" fill="#C4E2AC"/>
<path fill-rule="evenodd" clip-rule="evenodd" d="M106.249 196.949C105.995 197.169 105.598 197.544 105.659 197.757C105.944 198.918 104.859 199.423 104.525 200.289C104.452 200.488 104.028 200.558 103.694 200.713C103.875 199.982 104.004 199.439 104.138 198.882C103.939 198.809 103.726 198.731 103.527 198.658C102.793 199.811 100.967 200.444 102.153 202.507C102.428 202.989 102.039 203.627 101.335 203.56C100.483 203.474 100.23 204.023 99.7769 204.741C100.95 204.754 101.939 204.752 102.922 204.765C101.51 205.878 100.016 206.788 98.707 208.424C99.7192 208.499 100.407 208.56 101.044 208.62C100.584 209.214 100.114 209.788 99.5844 210.478C100.147 210.788 100.491 210.984 100.851 211.184C100.843 211.823 100.83 212.425 100.808 213.007C101.174 213.192 101.609 213.282 101.792 213.54C102.773 215.026 104.362 215.087 105.869 215.326C107.182 215.529 108.171 214.625 108.274 213.016C109.35 213.721 109.772 212.853 110.361 212.236C110.93 211.63 112.182 212.139 112.46 210.716C112.768 212.007 113.29 211.574 113.683 211.163C113.9 210.948 113.843 210.441 114.06 210.226C115.611 208.782 115.081 206.82 115.328 205.055C115.342 204.922 114.828 204.717 114.56 204.549C114.62 203.912 114.67 203.254 114.74 202.587C114.258 202.532 113.94 202.502 113.555 202.465C113.87 202.078 114.132 201.74 114.447 201.353C113.814 200.618 113.079 199.881 113.887 198.998C113.346 198.298 112.9 197.718 112.447 197.154C112.041 197.508 111.645 197.831 111.238 198.185C110.937 197.728 110.71 197.403 110.438 197.008C109.962 197.268 109.554 197.483 109.063 197.736C108.854 196.793 108.662 195.943 108.494 195.17C107.714 195.786 106.966 196.362 106.243 196.965L106.249 196.949ZM109.406 211.627C109.17 211.419 108.94 211.196 108.623 210.924C109.443 210.531 109.721 210.719 109.406 211.627ZM107.455 200.286C107.455 200.286 107.468 200.343 107.478 200.364C107.472 200.379 107.467 200.394 107.461 200.41C107.692 200.633 107.932 200.876 108.197 201.147C107.206 201.391 107.191 201.385 107.461 200.41L107.415 200.393C107.415 200.393 107.443 200.316 107.455 200.286C107.411 200.027 107.361 199.783 107.317 199.525C107.471 199.529 107.631 199.518 107.786 199.523C107.691 199.783 107.565 200.031 107.455 200.286ZM107.676 198.165C107.554 198.12 107.405 198.1 107.277 198.071C107.337 197.764 107.398 197.456 107.504 197.166C107.51 197.151 107.811 197.226 107.954 197.261C107.842 197.567 107.767 197.869 107.67 198.18L107.676 198.165Z" fill="#C4E2AC"/>
<path fill-rule="evenodd" clip-rule="evenodd" d="M62.5333 199.129C63.0344 198.186 62.6001 197.715 61.8348 197.296C61.7889 197.279 61.8616 197.081 61.8829 196.88C62.2557 196.809 62.655 196.712 63.178 196.609C62.9586 195.124 62.7585 193.681 62.5472 192.269C63.356 191.606 63.5049 190.851 62.994 190.005C62.6503 189.429 62.3275 188.843 61.8604 188.082C61.6315 188.519 61.4947 188.798 61.3578 189.077C61.3578 189.077 61.3884 189.089 61.4037 189.094C61.4037 189.094 61.3675 189.098 61.3466 189.108C61.3712 189.325 61.4167 189.532 61.3898 189.748C61.3544 190.082 61.2731 190.399 61.1426 190.992C60.5435 190.167 60.0873 189.566 59.3939 188.619C59.9636 188.862 60.3792 188.91 60.5123 189.115C60.8463 189.671 61.0879 189.152 61.3466 189.108L61.3578 189.077C60.5202 188.667 61.1585 187.964 61.1581 187.444C60.6344 187.218 60.1646 187.081 59.755 186.827C59.0966 186.447 58.5378 185.654 57.602 186.317C57.5338 186.361 57.1357 185.886 56.8845 185.673C56.7637 185.577 56.622 185.49 56.622 185.49C56.257 185.825 55.9658 186.1 55.6802 186.359C55.5636 186.299 55.4622 186.245 55.3608 186.19C55.4253 185.919 55.4842 185.663 55.5782 185.264C53.8389 186.466 54.6587 187.494 55.7576 188.659C55.1361 188.605 54.8025 188.569 54.3048 188.509C54.2384 189.022 54.2026 189.546 54.0847 190.058C54.0187 190.38 53.8345 190.694 53.7018 191.01C53.8382 191.632 53.9746 192.254 54.2295 193.404C53.5581 193.298 53.0716 193.206 52.4822 193.112C52.9218 192.337 53.286 191.672 53.6656 191.014C52.7597 190.648 52.614 189.814 52.5045 188.977C51.8688 189.056 51.357 189.129 50.6281 189.227C51.6916 190.725 50.1485 191.201 49.6474 192.144C50.2461 192.45 50.7684 192.728 51.6713 193.197C50.2669 193.862 49.0299 194.259 48.6753 195.655C49.1017 195.863 49.4727 196.033 49.9756 196.269C49.3902 196.922 48.8481 197.504 48.2363 198.181C48.678 198.395 49.0393 198.544 49.4199 198.736C48.8941 200.173 48.6006 201.591 50.2659 202.582C49.9922 203.14 49.7576 203.592 49.5287 204.028C50.3261 204.407 51.0012 204.74 51.6666 205.053C51.4873 205.733 50.9146 206.304 51.6643 206.907C51.7873 206.571 51.888 206.296 51.9973 205.902C52.3734 206.248 52.619 206.476 52.7801 206.605C53.4098 206.02 53.9713 205.48 54.5481 204.946L54.5175 204.935L54.5343 204.889C52.9145 204.816 52.8466 204.67 53.5893 203.208C54.6194 203.377 55.0481 203.863 54.5343 204.889C54.5496 204.894 54.5648 204.9 54.601 204.896C54.5954 204.911 54.5689 204.936 54.5481 204.946C54.7449 205.26 54.9208 205.585 55.1855 206.046C55.6703 204.247 56.4655 202.925 57.7373 201.865C58.2006 202.398 58.5794 202.832 58.9178 203.233C60.3286 202.171 61.6391 201.195 62.891 200.283C62.7431 199.882 62.3923 199.372 62.518 199.124L62.5333 199.129ZM57.873 187.092C57.2877 187.745 56.9156 188.146 56.5379 188.563C56.2118 187.559 56.4433 187.21 57.873 187.092ZM62.3106 190.31C62.2677 190.901 62.2364 191.271 62.2035 191.693C61.5411 191.277 61.6198 190.872 62.3106 190.31ZM60.1378 192.081C60.6194 192.517 61.0761 192.927 61.5827 193.39C60.0079 193.715 59.8122 193.54 60.1378 192.081ZM57.7542 199.687C57.5887 199.713 57.2882 199.776 57.2785 199.755C57.1943 199.465 57.1615 199.175 57.0925 198.89C57.2525 198.879 57.4124 198.868 57.5724 198.857C57.626 199.137 57.695 199.422 57.7486 199.702L57.7542 199.687ZM56.2379 196.584C56.3993 196.521 56.5608 196.459 56.7278 196.381C56.8646 196.813 57.0013 197.244 57.1187 197.634C57.0546 197.715 57.0378 197.76 57.0058 197.801C56.7549 197.397 56.4888 196.987 56.2379 196.584ZM60.2029 199.057C60.3822 198.377 60.8002 197.992 61.4712 198.29C61.6796 198.384 61.6952 198.909 61.8596 199.455C61.1132 199.269 60.6532 199.152 60.1876 199.051L60.2029 199.057Z" fill="#C4E2AC"/>
<path fill-rule="evenodd" clip-rule="evenodd" d="M143.43 77.096L143.476 77.113L143.487 77.082L143.43 77.096Z" fill="#C4E2AC"/>
<path fill-rule="evenodd" clip-rule="evenodd" d="M147.02 74.5267C145.83 74.3687 144.783 74.2459 143.408 74.0723C144.185 75.1712 144.69 75.8759 145.16 76.5333C144.814 77.6204 144.188 77.5302 143.469 77.1283C143.208 77.605 142.968 78.0719 142.707 78.5485C142.504 78.4396 142.28 78.3405 142.062 78.2261C141.238 79.0573 141.084 79.937 141.599 80.8652C140.694 81.0194 140.166 81.4677 140.45 82.4906C140.521 82.7244 140.215 83.1328 139.992 83.3633C139.664 83.6937 139.26 83.9448 138.754 84.3319C139.276 84.28 139.632 84.2542 139.963 84.202C139.93 84.8139 139.898 85.3744 139.871 86.1102C139.277 86.3609 138.444 86.6974 137.631 87.0242C139.217 87.1884 139.375 88.6505 140.443 89.4745C139.714 89.4157 139.089 89.1007 138.571 88.5295C138.699 89.5993 138.52 90.6088 138.944 91.1103C139.759 92.1022 140.944 92.7956 142 93.6501C142.608 93.4565 143.232 93.2684 143.872 93.0345C144.455 92.8144 145.019 92.5525 145.655 92.2824C145.877 92.433 146.21 92.6589 146.543 92.8849C147.219 92.1266 147.826 91.4642 148.517 90.7116C147.896 90.2765 147.407 89.907 146.883 89.5417C147.266 89.1098 147.35 88.6898 148.081 89.0611C148.989 89.5148 150.055 89.87 150.916 89.6476C151.769 87.9313 152.519 86.4027 153.296 84.849C153.023 84.6454 152.671 84.3777 152.469 84.2174C153.203 83.2548 153.84 82.413 154.477 81.5712C154.381 81.5015 154.291 81.4165 154.195 81.3468C153.935 81.6329 153.674 81.9189 153.349 82.2856C153.084 82.0152 152.879 81.8187 152.629 81.554C153.023 81.2821 153.332 81.1004 153.616 80.8923C153.942 80.6648 154.258 80.4164 154.874 79.9654C154.104 79.8917 153.698 79.8646 153.231 79.815C153.354 79.2881 153.426 78.9502 153.513 78.6179C153.223 78.6508 152.934 78.6837 152.593 78.715C152.64 78.3507 152.668 78.0837 152.698 77.7652C151.909 77.6497 150.894 78.1973 150.573 77.1786C151.032 76.445 151.421 75.8073 151.864 75.1195C150.355 74.6022 149.186 75.6655 147.778 75.7228C147.473 75.2299 147.149 74.6952 147.016 74.4905L147.02 74.5267ZM140.607 87.7486C140.448 87.708 140.274 87.6618 140.116 87.6212C140.233 87.3001 140.356 86.9637 140.489 86.6482C140.581 86.6817 140.673 86.7153 140.755 86.7279C140.698 87.0714 140.642 87.4148 140.591 87.743L140.607 87.7486ZM143.127 84.458C142.695 83.9648 142.768 83.4827 143.344 83.0118C143.261 83.5708 143.203 83.9657 143.127 84.458ZM147.079 78.8651C147.198 78.8737 147.331 78.8878 147.449 78.8964C147.432 79.3234 147.42 79.7351 147.385 80.3985C145.981 79.6421 147.056 79.3074 147.079 78.8651ZM150.488 81.3429C150.527 80.5251 150.531 80.2317 150.548 79.8047C151.236 80.0563 151.828 80.2381 152.537 80.48C152.033 81.336 151.276 80.7991 150.494 81.3276L150.488 81.3429ZM150.063 80.043C149.507 79.6665 149.149 79.4141 148.624 79.0487C149.11 78.8103 149.408 78.6593 150.04 78.353C150.051 79.0332 150.056 79.399 150.063 80.043Z" fill="#C4E2AC"/>
<path fill-rule="evenodd" clip-rule="evenodd" d="M93.5824 157.193C93.4068 157.389 93.2368 157.569 93.0612 157.765C92.7865 157.474 92.527 157.188 92.2676 156.903C92.067 157.072 91.9417 157.13 91.8929 157.216C91.7449 157.526 92.1176 158.165 91.3683 158.082C91.1681 158.061 90.8486 157.892 90.7864 157.73C90.6343 157.293 90.7018 156.919 91.3207 156.886C91.4444 156.879 91.6078 156.575 91.6749 156.391C91.8121 155.921 91.9091 155.419 92.031 154.944C92.1917 155.263 92.337 155.576 92.5242 155.87C92.5491 155.896 92.8206 155.77 92.982 155.708C92.8616 155.421 92.7259 155.129 92.6055 154.842C92.7946 154.183 92.9684 153.518 93.2275 152.573C92.0144 152.857 91.0142 153.081 89.6508 153.397C90.6567 152.447 91.4035 151.732 92.1599 151.038C91.2096 151.315 90.3098 150.032 89.3803 151.01C89.2472 150.805 89.0933 150.61 88.9449 150.4C87.9841 151.036 87.4327 152.118 85.9877 152.23C86.6077 151.625 87.016 151.22 87.4395 150.82C87.4119 150.706 87.4052 150.582 87.3776 150.468C86.4538 150.719 85.6259 149.619 84.6211 150.708C84.7498 150.356 84.8128 150.136 84.8911 149.922C84.3818 150.083 84.0239 150.351 83.8382 150.716C83.5701 151.259 83.4243 151.847 83.2479 152.424C82.9903 153.318 82.3949 153.43 81.5706 153.267C81.8649 152.589 81.8286 152.009 81.4615 151.528C80.6465 152.288 80.8712 153.237 81.0725 154.108C80.4722 154.564 79.9402 154.976 79.3191 155.443C79.8429 155.669 80.1068 155.8 80.5847 156.01C79.7787 156.46 79.2079 156.789 78.5536 157.156C78.7265 157.584 78.8857 157.954 79.0448 158.324C79.5373 158.21 79.9728 158.109 80.4082 158.008C80.4882 159.684 78.9822 159.064 78.3748 159.587C78.4754 160.734 78.5622 161.823 78.6504 162.861C79.43 162.435 79.9437 162.831 80.3247 163.543C79.6409 164.038 79.0365 164.458 78.2637 165.008C79.7612 165.746 81.0242 166.226 81.6888 167.63C82.0724 168.429 83.7526 168.194 84.3842 167.368C84.5557 167.136 84.6624 166.655 84.8223 166.644C85.9571 166.574 85.7909 165.559 86.1496 164.911C88.1105 165.472 88.3008 163.53 89.2135 162.599C89.5441 163.448 89.8416 164.198 90.1293 164.927C91.1597 164.906 90.7273 164.193 90.9145 163.776C91.1129 163.328 91.5752 163.012 91.9361 162.641C91.8221 161.958 91.6872 161.285 91.5635 160.58C92.9484 160.584 93.3619 160.354 93.0518 159.686C92.7167 158.991 92.8408 158.794 93.4534 158.446C93.7151 158.299 93.7274 157.697 93.8423 157.288C93.7506 157.254 93.6589 157.221 93.5519 157.182L93.5824 157.193ZM80.2466 160.914C80.6276 160.203 80.883 159.742 81.2209 159.103C81.6428 160.176 81.2763 160.562 80.2466 160.914Z" fill="#C4E2AC"/>
<path fill-rule="evenodd" clip-rule="evenodd" d="M128.051 111.363C128.331 110.929 128.536 110.605 128.898 110.044C127.371 110.855 127.245 108.971 126.117 109.165C125.015 109.715 125 110.941 124.441 111.898C126.248 112.264 126.283 112.312 125.824 113.566C125.427 113.42 125.041 113.244 124.573 113.056C124.663 113.661 124.718 114.08 124.79 114.592C123.921 114.551 123.222 114.521 122.523 114.49L122.564 114.471C120.96 113.884 120.717 114.072 120.651 115.817C121.134 115.681 121.622 115.529 122.105 115.394C122.151 115.601 122.181 115.804 122.226 116.011C121.614 116.689 120.987 117.361 120.338 118.094C120.22 117.705 120.146 117.435 120.048 117.087C118.649 117.927 119.7 118.797 119.816 119.568C119.9 120.569 118.209 120.315 118.473 121.486C118.978 121.48 119.447 121.478 120.033 121.485C119.177 122.975 120.06 124.112 120.532 125.239C121.023 126.406 121.553 127.657 122.945 128.305C123.911 127.133 124.943 127.771 126.089 128.381C126.163 127.801 126.385 127.241 126.21 127.056C125.881 126.675 125.304 126.498 124.843 126.243C125.245 125.777 125.886 125.556 126.768 125.578C127.063 126.05 127.349 126.5 127.634 126.951C127.353 125.445 127.937 124.324 128.675 123.207C130.092 123.881 128.494 124.839 129.09 125.768C130.008 124.821 130.905 123.884 132.432 124.495C132.055 123.82 131.796 123.343 131.419 122.668C132.26 122.785 132.768 122.867 133.342 122.955C133.443 121.969 133.525 121.08 133.63 120.13C133.175 120.189 132.72 120.249 131.852 120.347C132.997 118.876 132.444 117.166 133.438 115.917C132.902 115.773 132.35 115.623 131.716 115.461C132.065 114.982 132.355 114.568 132.612 114.245C132.085 113.602 131.602 113.026 131.104 112.446C129.608 113.597 129.097 111.868 128.051 111.363ZM123.833 121.852C123.249 121.933 122.939 121.976 122.556 122.026C122.726 121.135 123.026 120.933 123.833 121.852ZM122.895 117.643C122.645 118.089 122.405 118.555 122.057 119.173C121.739 118.953 121.452 118.745 120.942 118.385C121.587 117.996 122.1 117.682 122.62 117.352C122.704 117.452 122.789 117.552 122.879 117.637L122.895 117.643ZM130.811 119.499C130.79 118.797 130.788 118.189 130.769 117.575C130.96 117.575 131.15 117.577 131.335 117.592C131.153 118.185 132.018 118.9 130.811 119.499ZM127.87 116.689C126.474 116.386 126.404 115.251 125.685 114.468C126.42 114.494 126.94 114.494 127.47 114.514C127.616 114.446 127.772 114.399 127.918 114.332C127.897 115.052 127.892 115.777 127.876 116.673L127.87 116.689Z" fill="#C4E2AC"/>
<path fill-rule="evenodd" clip-rule="evenodd" d="M166.852 136.354C166.023 136.917 165.214 137.471 164.194 138.173C163.915 138.036 163.361 137.799 162.865 137.496C161.276 136.533 160.526 136.831 159.921 138.673C159.899 138.734 159.693 138.728 159.579 138.756C159.151 137.432 158.28 136.859 156.967 137.038C156.764 137.83 156.544 138.668 156.407 139.138C157.142 139.875 157.638 140.369 158.133 140.862C158.164 140.873 158.194 140.884 158.225 140.895C158.358 140.389 158.655 140.099 159.29 140.21C159.582 140.785 159.884 141.381 160.293 142.207C159.407 142.022 158.798 141.885 158.312 141.794C157.957 141.439 159.715 141.181 158.25 140.922C158.244 140.937 158.238 140.953 158.233 140.968C158.208 140.941 158.168 140.909 158.143 140.883C157.529 140.572 156.579 141.698 156.156 140.486C155.938 140.562 155.618 140.583 155.52 140.756C155.24 141.191 155.061 141.68 154.863 142.127C155.358 142.43 155.682 142.635 156.036 142.851C155.526 144.104 153.153 144.622 154.83 146.432C154.45 146.761 154.085 147.096 153.678 147.45C154.446 147.956 154.996 148.348 154.956 149.356C154.911 150.571 156.592 150.995 156.637 152.294C156.641 152.521 157.016 152.727 157.237 152.93C157.311 153.009 157.46 153.029 157.567 153.068C158.648 153.429 158.994 153.243 159.942 151.787L159.896 151.77C159.896 151.77 159.944 151.735 159.97 151.71C160.25 150.946 160.593 150.291 161.5 150.276C161.579 150.392 161.673 150.513 161.752 150.629C161.17 150.988 160.567 151.357 159.97 151.71L159.942 151.787C160.31 152.06 160.64 152.389 161.176 152.013C161.754 151.618 162.396 151.332 163.107 150.951C163.077 150.749 163.06 150.466 162.975 150.175C162.525 148.467 162.684 148.317 164.349 148.458C165.037 148.519 165.791 148.448 166.456 148.241C167.552 147.896 167.059 146.069 168.47 145.909C168.542 145.9 168.582 145.603 168.643 145.435C168.952 144.542 169.24 143.66 169.618 142.532C168.753 142.718 168.028 142.852 167.37 142.993C167.277 143.912 168.474 144.333 167.628 145.272C167.162 145.031 166.655 144.759 166.188 144.519C166.305 143.158 168.379 142.651 167.267 141.239C167.708 140.412 168.439 142.344 168.784 140.927C168.416 140.654 168.018 140.369 167.644 140.111C168.077 139.403 168.428 138.82 168.763 138.284C167.52 137.656 166.811 138.836 165.821 138.889C165.941 137.425 167.744 137.044 167.622 135.387C167.12 135.481 166.711 135.557 166.152 135.664C166.48 136.045 166.659 136.266 166.784 136.399L166.852 136.354ZM159.688 149.354C159.418 149.619 159.153 149.869 158.883 150.134C158.808 150.055 158.724 149.954 158.649 149.875C158.944 149.636 159.234 149.413 159.529 149.174C159.588 149.248 159.638 149.301 159.698 149.375L159.688 149.354ZM158.702 146.791C158.209 146.767 157.73 146.748 157.242 146.708L157.274 146.338C157.762 146.378 158.234 146.412 158.722 146.452C158.714 146.57 158.711 146.673 158.702 146.791ZM155.431 145.595C155.917 145.547 156.417 145.505 156.903 145.457C156.411 145.71 156.148 146.81 155.431 145.595ZM159.691 144.847C159.691 144.847 159.291 144.944 159.282 144.923C159.215 144.725 159.155 144.512 159.191 144.318C159.213 144.256 159.467 144.228 159.737 144.153C159.733 144.446 159.758 144.664 159.685 144.862L159.691 144.847ZM162.932 144.23C162.618 143.855 162.32 143.486 161.812 142.884C162.863 143.043 163.008 143.547 162.932 144.23ZM162.722 140.634C162.455 140.605 162.184 140.541 161.908 140.492C161.947 140.385 161.971 140.272 161.995 140.159C162.271 140.209 162.557 140.279 162.834 140.328C162.795 140.435 162.753 140.645 162.722 140.634Z" fill="#C4E2AC"/>
<path fill-rule="evenodd" clip-rule="evenodd" d="M87.1785 127.006C87.532 126.181 86.5288 126.508 86.7469 125.912C87.2852 125.814 87.3934 124.57 88.5047 125.133C88.4149 125.568 88.3362 125.973 88.2575 126.377C88.0571 127.367 88.4936 127.88 89.567 127.914C90.2011 127.002 90.3779 126.234 90.0973 125.612C89.7603 125.87 89.4385 126.133 88.8536 126.595C89.5657 125.122 89.8924 123.803 91.3233 123.113C91.4455 123.868 91.5636 124.588 91.6609 125.317C92.3156 124.759 93.0172 124.357 93.4564 123.772C93.8692 123.212 93.914 122.379 94.317 121.798C94.688 121.258 95.3214 120.9 95.8758 120.427C95.4415 119.956 95.1266 119.633 94.8518 119.341C95.237 118.667 95.5677 118.095 95.9585 117.406C94.2716 116.806 94.16 118.343 93.3066 118.828C93.1735 118.623 92.8779 118.342 92.9323 118.24C93.4055 117.373 93.5245 116.29 94.5699 115.754C95.0195 115.519 95.2682 114.934 95.6153 114.506C95.4848 114.389 95.3753 114.263 95.2657 114.136C94.8186 114.458 94.3466 114.753 93.9246 115.101C93.6028 115.365 93.3795 115.786 93.0287 115.987C92.7726 116.119 92.3696 115.989 91.716 115.975C92.1258 115.518 92.2902 115.353 92.4241 115.177C92.7503 114.759 93.267 114.341 93.3055 113.904C93.3454 113.416 92.8958 112.939 92.2214 112.935C92.17 112.934 92.1249 112.536 92.0906 112.298L92.0962 112.283C91.7558 112.834 91.2973 112.667 91.1284 112.276C90.9346 111.858 91.0122 111.314 90.9716 110.762C92.3301 110.791 92.2216 111.514 92.0809 112.277L92.0753 112.293C92.3323 111.78 92.5892 111.267 92.8028 110.825C92.001 109.89 91.1939 109.491 90.0933 109.799C90.3427 110.255 90.5436 110.605 90.8124 111.102C89.9672 110.949 89.4293 110.857 88.8761 110.758C88.6036 110.034 89.2892 109.297 88.9154 108.519C88.4584 107.589 87.5211 107.593 86.7446 107.205C85.94 108.315 86.5958 108.607 87.7134 108.773C86.6691 109.448 87.9642 110.598 86.7782 111.187C86.0307 111.572 86.5477 113.096 85.2392 113.12C85.5282 111.857 85.2956 111.355 84.2603 111.011C83.7339 112.119 83.4967 113.194 84.2355 114.348C84.4766 114.731 84.4867 115.272 84.5761 115.738C84.5899 115.795 84.4173 115.888 84.2488 116.017C84.1034 115.704 83.9524 115.406 83.8112 115.129C82.3904 115.65 82.0604 116.552 83.0848 117.447C83.7427 118.017 83.9723 118.621 84.1903 119.446C83.5226 119.566 82.969 119.658 82.4154 119.75C82.4154 119.75 82.3848 119.739 82.3696 119.733L82.3584 119.764L82.4307 119.756C82.2662 120.632 80.892 120.788 81.066 122.065C81.9071 121.471 82.6766 121.215 83.5661 122.147C82.9155 122.742 82.2649 123.336 81.4611 124.065C82.3047 124.269 82.944 124.416 83.6654 124.576C83.6128 125.146 83.5922 125.676 83.5355 126.21C83.4169 127.103 83.5268 127.75 84.6669 127.855C85.1187 127.899 85.5377 128.364 86.0029 128.656C86.9063 128.224 86.6979 128.13 87.1464 127.046L87.1785 127.006ZM87.7072 112.532C89.3282 112.033 89.2949 113.356 89.8179 113.963C89.7329 114.054 89.6535 114.128 89.5684 114.219C88.9966 113.698 88.4401 113.182 87.7072 112.532ZM87.9929 115.636C88.3419 114.966 88.8854 115.044 89.7153 115.191C89.1503 115.851 88.5762 116 87.9929 115.636ZM86.1841 114.09C86.6587 113.882 87.2687 113.447 87.5963 114.399C87.1732 114.608 86.7709 114.808 86.1904 115.115C86.183 114.662 86.0797 114.139 86.1938 114.111L86.1841 114.09ZM88.8271 117.051C89.2748 117.059 89.6029 117.109 89.9284 117.072C90.2024 117.034 90.4682 116.923 90.7381 116.848C90.106 117.692 89.4671 117.765 88.8215 117.066L88.8271 117.051ZM91.9817 117.997C92.9487 119.096 92.2944 119.463 91.4648 119.836C91.6259 119.253 91.78 118.738 91.9817 117.997ZM83.9829 120.913C84.6339 120.839 85.1498 120.803 85.7799 120.738C85.788 121.521 85.4517 122.109 84.5007 122.056C83.7707 122.014 83.6772 121.512 83.9773 120.928L83.9829 120.913ZM85.1694 123.497C85.2391 123.401 85.2798 123.242 85.373 123.225C85.7737 123.076 86.1633 122.959 86.6308 122.818C86.9943 123.246 87.373 123.679 87.7309 124.122C86.7019 124.566 85.8411 124.361 85.1485 123.506L85.1694 123.497Z" fill="#C4E2AC"/>
<path fill-rule="evenodd" clip-rule="evenodd" d="M127.195 152.897C126.029 153.337 125.164 153.663 124.034 154.099C124.901 153.15 125.54 152.448 126.183 151.73C126.12 151.62 126.05 151.525 125.987 151.415C125.168 151.757 124.335 152.094 123.501 152.43C123.447 152.341 123.393 152.252 123.339 152.163C123.9 151.623 124.468 151.067 125.029 150.527C124.99 150.444 124.946 150.376 124.886 150.302C123.999 150.549 123.096 150.791 122.229 151.029C122.288 150.773 122.38 150.425 122.473 150.078C122.362 150.002 122.251 149.927 122.149 149.873C121.277 150.836 120.383 151.81 119.42 152.879C119.482 152 119.552 151.194 119.612 150.366C119.509 150.363 119.427 150.35 119.324 150.347C118.968 151.084 118.597 151.815 118.186 152.653C117.686 152.314 117.297 152.05 117.004 151.857C116.228 152.179 115.55 152.469 114.893 152.749C115.023 153.056 115.148 153.379 115.278 153.687L115.289 153.656C115.289 153.656 115.35 153.679 115.375 153.705C115.997 153.568 116.619 153.432 117.469 153.24C116.691 154.325 116.04 154.208 115.375 153.705L115.297 153.729L115.278 153.687C114.882 154.201 114.404 154.702 114.953 155.475C115.451 155.345 115.934 155.21 116.51 155.056C115.976 155.71 115.506 156.284 114.961 156.969C114.508 156.976 113.748 156.352 113.361 157.458C114.367 158.451 113.947 159.597 113.287 160.881C114.026 160.614 114.51 160.427 114.974 160.25C115.355 160.771 115.667 161.197 116.004 161.65C114.315 161.483 114.273 161.502 113.598 163.11C114.191 163.622 114.912 163.972 115.021 165C115.097 165.739 115.96 165.985 116.787 165.906C118.176 165.756 119.473 165.432 120.537 164.418C120.781 164.177 121.19 164.102 121.602 163.923C121.525 164.796 121.469 165.469 121.419 166.127C121.563 166.162 121.706 166.197 121.854 166.217C122.258 164.735 122.661 163.253 123.145 161.505C124.155 162.724 125.453 162.87 126.744 163.463C127.253 162.592 127.757 161.736 128.292 160.84C127.657 160.399 127.126 160.049 126.475 159.603C127.165 159.231 127.677 158.968 128.211 158.695C128.172 158.612 128.148 158.534 128.11 158.45C127.862 158.464 127.609 158.492 127.361 158.506C127.04 157.267 127.197 156.175 127.833 155.228C126.969 155.363 126.333 155.442 125.562 155.559C125.91 155.132 126.212 154.826 126.443 154.477C126.692 154.083 126.869 153.645 127.225 152.908L127.195 152.897ZM116.178 164.539C116.438 164.253 116.699 163.967 117.082 163.535C117.368 164.506 116.87 164.636 116.178 164.539ZM125.98 162.282C126.09 161.508 126.349 161.273 127.019 161.622C126.725 161.81 126.425 162.012 125.98 162.282ZM116.663 157.765C116.195 158.096 115.712 158.422 115.244 158.754C115.261 157.807 115.829 157.581 116.422 157.382C116.51 157.518 116.589 157.634 116.678 157.77L116.663 157.765ZM121.776 153.689C121.556 153.816 121.336 153.944 121.11 154.087C121.091 154.045 121.066 154.018 121.031 153.971C121.216 153.796 121.402 153.621 121.587 153.446C121.647 153.52 121.701 153.609 121.76 153.683L121.776 153.689Z" fill="#C4E2AC"/>
<path fill-rule="evenodd" clip-rule="evenodd" d="M171.721 37.7073C171.268 38.4256 170.852 39.0883 170.406 39.7399C169.939 40.4011 169.426 41.0456 168.943 41.7013L168.621 41.4448C169.133 40.6612 169.651 39.8623 170.168 39.0635C169.881 38.207 170.075 37.44 170.75 36.7625C170.325 36.6935 169.82 36.5091 169.724 36.6299C169.067 37.4299 168.507 38.2996 167.836 39.2331L167.369 39.1836C167.261 39.5256 167.214 39.8899 167.051 40.1943C167.006 40.3166 166.688 40.2868 166.496 40.3379C166.533 40.1433 166.569 39.9486 166.621 39.7595C166.333 39.5504 166.014 39.3815 165.753 39.1473C165.12 38.6037 164.682 38.8074 164.259 39.5369C164.837 40.5631 165.428 41.6463 166.025 42.7142C165.931 42.7836 165.842 42.8377 165.732 42.9015C165.053 42.1505 164.359 41.394 163.616 40.5845C163.385 41.9737 163.157 43.2599 162.939 44.567C163.345 44.5941 163.745 44.6366 164.269 44.6723C164.248 45.0631 164.211 45.4483 164.182 45.9059C163.662 45.9064 163.209 45.9139 162.755 45.9215C162.74 45.9159 162.709 45.9047 162.7 45.8838C162.7 45.8838 162.688 45.9144 162.683 45.9296L162.744 45.952C162.26 46.4686 161.787 47.006 161.244 47.5879C161.585 47.7471 161.879 47.8894 162.195 48.0221C161.268 49.6075 161.143 49.8563 162.979 50.2852C162.881 50.9777 162.774 51.6494 162.677 52.3419C163.826 52.6583 164.633 52.3468 165.499 51.97C165.833 51.8148 166.375 52.1343 166.804 52.2394C166.74 52.5105 166.765 52.8666 166.601 53.0319C166.081 53.5525 165.778 53.0082 165.415 52.7196C165.36 52.6819 165.198 52.7442 165.084 52.7718C164.94 54.0192 164.971 54.0304 165.872 54.3603C166.591 54.6231 167.162 54.6241 167.506 53.779C167.685 53.2898 168.002 52.8508 168.242 52.3838C169.028 52.7928 169.652 53.125 170.656 53.6484C170.299 52.6337 170.071 51.9782 169.81 51.2238C170.304 50.8672 170.831 50.4704 171.404 50.0388C171.207 49.3773 171.3 48.8392 171.683 48.4244C171.734 48.6165 171.781 48.7723 171.807 48.9379C171.977 50.8897 172.495 51.1313 174.081 50.0645C174.27 49.9257 174.51 49.8399 174.738 49.7847C175.795 49.5473 175.291 48.8426 175.129 48.1941C176.831 48.2793 176.48 47.0588 176.564 46.1186C175.327 46.186 174.542 46.0088 174.211 45.5873C174.822 45.4813 175.36 45.3834 176.344 45.2058C175.121 44.5679 176.167 43.1302 174.822 42.8287C174.96 41.7872 175.072 40.7706 175.219 39.6108C173.727 39.5678 173.154 38.0061 171.71 37.7379L171.721 37.7073ZM167.87 50.4623C167.518 50.5243 167.067 50.6194 166.674 50.7008C166.553 50.0844 166.429 49.5709 166.284 48.8766C166.796 48.8038 167.338 48.7421 167.835 48.6637C167.843 49.2563 167.865 49.7668 167.87 50.4623ZM171.605 41.5308C171.323 42.2076 171.052 42.854 170.721 43.617C170.547 43.5708 170.209 43.4992 169.74 43.3621C170.082 42.5685 170.364 41.8916 170.712 41.0827C171.123 41.2851 171.412 41.4428 171.605 41.5308ZM173.516 40.2879C172.756 40.5647 172.026 41.0433 171.429 39.9754C172.898 39.0391 172.934 39.035 173.516 40.2879Z" fill="#C4E2AC"/>
<path fill-rule="evenodd" clip-rule="evenodd" d="M168.746 114.009C169.864 112.372 171.272 111.604 173.073 111.795C173.859 110.025 174.474 109.025 174.916 108.794C174.854 109.534 174.792 110.222 174.733 110.859C175.091 111.111 175.424 111.337 175.853 111.633C176.052 110.475 177.457 110.139 177.309 108.837C177.186 107.752 177.109 106.683 176.477 105.759C176.477 105.759 176.488 105.728 176.494 105.713C176.494 105.713 176.488 105.728 176.483 105.743C176.482 104.703 176.46 103.672 176.457 102.735C177.058 102.608 177.472 102.517 178.281 102.344C176.775 101.343 175.951 103.122 174.855 102.565C175.754 101.576 176.653 100.588 177.552 99.5989C176.685 99.8366 175.884 100.133 175.261 100.65C174.638 101.168 174.278 102.059 173.023 101.652C173.954 100.814 174.81 100.035 175.661 99.2714C174.332 99.8254 174.665 98.3002 174.101 98.0418C173.744 98.4487 173.41 98.7945 173.085 99.1611C172.624 98.195 172.242 97.3444 171.719 96.2168C171.457 96.884 171.125 97.3174 171.138 97.7555C171.165 99.8629 171.186 99.8532 169.188 99.4866C169.096 99.453 168.979 99.5836 168.791 99.6708C168.75 101.112 168.045 102.137 166.55 102.387C166.868 102.798 167.1 103.109 167.349 103.425C166.731 103.078 166.374 103.485 166.134 103.951C166.1 104.043 166.487 104.358 166.687 104.57C165.98 105.178 165.257 105.78 164.629 106.313C165.045 106.691 165.371 106.984 165.722 107.303C165.279 107.661 164.952 107.94 164.615 108.198C164.652 108.333 164.695 108.453 164.738 108.572C165.265 108.505 165.813 108.428 166.34 108.361C167.032 109.36 165.715 109.693 165.727 110.512C166.19 110.716 166.652 110.92 167.124 111.144C166.851 111.513 166.648 111.785 166.493 111.971C166.985 112.758 167.409 113.398 167.801 114.079C168.306 114.974 168.983 115.066 170.09 114.691C169.528 114.381 169.178 114.201 168.803 113.995L168.746 114.009ZM169.363 100.903C169.61 100.75 169.856 100.598 170.103 100.445C170.157 100.534 170.211 100.623 170.27 100.697C170.024 100.85 169.793 101.008 169.541 101.176C169.487 101.087 169.417 100.992 169.363 100.903ZM167.964 107.759C168.285 107.547 168.599 107.35 168.919 107.138C168.968 107.242 169.032 107.352 169.09 107.477C168.775 107.674 168.466 107.856 168.167 108.058C168.097 107.964 168.034 107.854 167.964 107.759ZM169.185 110.581C168.467 109.416 168.469 109.365 170.009 108.802C169.971 109.238 169.928 109.639 169.88 110.055C170.174 110.197 170.463 110.355 170.875 110.557C170.36 111.063 169.937 111.462 169.46 111.912C169.357 111.389 169.376 110.911 169.175 110.56L169.185 110.581Z" fill="#C4E2AC"/>
<path fill-rule="evenodd" clip-rule="evenodd" d="M160.8 133.29C160.629 134.043 160.392 134.597 160.381 135.148C160.371 135.647 160.598 136.164 160.764 136.848C161.092 136.188 161.354 135.66 161.639 135.071C162.181 136.292 163.108 136.978 164.022 136.896C164.595 136.846 164.768 136.562 164.552 136.015C163.869 135.939 163.172 135.857 162.283 135.775C162.261 135.125 162.252 134.532 162.223 133.759C161.872 133.63 161.341 133.471 160.791 133.27L160.8 133.29Z" fill="#C4E2AC"/>
<path fill-rule="evenodd" clip-rule="evenodd" d="M81.2908 117.973C81.265 119.038 81.6743 119.483 82.3997 119.679C82.7372 119.23 83.0899 118.787 83.582 118.152C82.6519 118.089 81.979 118.034 81.2852 117.988L81.2908 117.973Z" fill="#C4E2AC"/>
<path fill-rule="evenodd" clip-rule="evenodd" d="M88.0911 149.132C87.7817 148.794 87.4931 148.445 87.1241 148.033C86.6868 148.376 86.2912 148.699 85.8691 149.047C86.8014 149.689 87.5471 149.719 88.1063 149.138L88.0911 149.132Z" fill="#C4E2AC"/>
<path fill-rule="evenodd" clip-rule="evenodd" d="M86.2207 168.111C87.0126 167.084 87.548 166.378 88.2646 165.461C86.5586 166.051 86.3927 166.267 86.2207 168.111Z" fill="#C4E2AC"/>
<path fill-rule="evenodd" clip-rule="evenodd" d="M83.8694 148.543C83.3217 149.14 82.7684 149.752 82.2207 150.349C82.3165 150.419 82.4123 150.489 82.5081 150.559C83.5217 149.462 83.9703 148.788 83.8541 148.537L83.8694 148.543Z" fill="#C4E2AC"/>
<path fill-rule="evenodd" clip-rule="evenodd" d="M94.6234 163.449C93.9691 163.106 93.6623 162.855 93.3302 162.768C92.9007 162.663 92.4362 162.701 91.9941 162.678C92.0559 163.03 92.129 163.352 92.2143 163.781C92.9584 163.69 93.5788 163.604 94.6234 163.449Z" fill="#C4E2AC"/>
<path fill-rule="evenodd" clip-rule="evenodd" d="M52.8369 188.369C52.9141 187.305 52.1969 187.181 51.2656 186.979C51.2603 188.226 52.1893 188.149 52.8369 188.369Z" fill="#C4E2AC"/>
<path fill-rule="evenodd" clip-rule="evenodd" d="M56.332 205.578C56.6004 205.555 56.8688 205.531 57.1316 205.524C57.088 205.074 57.05 204.61 57.0065 204.16C56.7951 204.17 56.5684 204.173 56.3362 204.192C56.338 204.661 56.3245 205.124 56.3264 205.593L56.332 205.578Z" fill="#C4E2AC"/>
<path fill-rule="evenodd" clip-rule="evenodd" d="M143.43 77.0961L143.508 77.0723C143.508 77.0723 143.456 77.0708 143.435 77.0806L143.43 77.0961Z" fill="#C4E2AC"/>
<path fill-rule="evenodd" clip-rule="evenodd" d="M141.828 77.3592C142.439 77.2532 142.935 77.1748 143.417 77.0908C143.323 76.5885 143.25 76.0765 143.13 75.2695C142.584 76.1448 142.249 76.6811 141.828 77.3592Z" fill="#C4E2AC"/>
<path fill-rule="evenodd" clip-rule="evenodd" d="M164.703 135.622C164.832 135.791 165.328 135.903 165.455 135.793C166.019 135.341 165.479 134.97 165.258 134.577C165.224 134.53 165.189 134.483 165.145 134.414C164.556 134.65 164.195 135.02 164.703 135.622Z" fill="#C4E2AC"/>
<path fill-rule="evenodd" clip-rule="evenodd" d="M178.353 105.232C178.488 105.195 178.576 105.001 178.799 104.771C178.31 104.592 177.882 104.435 177.337 104.219C177.033 104.766 176.766 105.258 176.484 105.745C176.925 104.918 177.73 105.42 178.347 105.247L178.353 105.232Z" fill="#C4E2AC"/>
<path fill-rule="evenodd" clip-rule="evenodd" d="M121.98 112.295C121.978 112.728 121.908 113.014 121.978 113.248C122.121 113.664 122.362 114.047 122.552 114.429C122.832 113.994 123.112 113.559 123.408 113.13C122.922 112.848 122.537 112.62 121.98 112.295Z" fill="#C4E2AC"/>
<path fill-rule="evenodd" clip-rule="evenodd" d="M153.745 87.7871C153.08 88.2143 152.725 88.6968 152.678 89.2346C153.395 89.0286 153.702 88.5687 153.745 87.7871Z" fill="#C4E2AC"/>
<path fill-rule="evenodd" clip-rule="evenodd" d="M171.934 114.291C172.244 113.728 173.192 113.884 173.108 112.883C172.608 113.255 172.098 113.606 171.598 113.978C171.714 114.089 171.829 114.2 171.929 114.306L171.934 114.291Z" fill="#C4E2AC"/>
<path fill-rule="evenodd" clip-rule="evenodd" d="M106.296 194.678C106.145 195.091 106.019 195.531 105.883 195.949C106.036 196.005 106.188 196.061 106.341 196.117C106.513 195.694 106.695 195.293 106.861 194.885C106.678 194.818 106.479 194.746 106.296 194.678Z" fill="#C4E2AC"/>
<path fill-rule="evenodd" clip-rule="evenodd" d="M161.678 152.006C161.227 152.621 161.001 152.955 160.609 153.505C161.684 153.551 161.885 153.192 161.678 152.006Z" fill="#C4E2AC"/>
<path fill-rule="evenodd" clip-rule="evenodd" d="M162.269 44.5826C161.834 45.2036 162.283 45.541 162.716 45.8728C162.779 45.4626 162.858 45.058 162.927 44.6325C162.696 44.6001 162.339 44.4868 162.269 44.5826Z" fill="#C4E2AC"/>
<path fill-rule="evenodd" clip-rule="evenodd" d="M95.5526 123.45C95.5967 122.998 95.6407 122.546 95.6903 122.079C95.5207 122.069 95.3455 122.074 95.1758 122.064C95.1985 122.523 95.2004 122.992 95.2231 123.451C95.326 123.454 95.4497 123.447 95.5679 123.456L95.5526 123.45Z" fill="#C4E2AC"/>
<path fill-rule="evenodd" clip-rule="evenodd" d="M120.934 148.303L120.68 148.713L121.7 149.572C121.791 149.466 121.882 149.36 121.972 149.255C121.636 148.941 121.285 148.622 120.944 148.324L120.934 148.303Z" fill="#C4E2AC"/>
<path fill-rule="evenodd" clip-rule="evenodd" d="M178.358 107.589C178.516 107.3 178.689 107.016 178.862 106.733C178.766 106.663 178.665 106.609 178.569 106.539C178.371 106.796 178.173 107.053 177.99 107.316C178.111 107.412 178.252 107.498 178.373 107.595L178.358 107.589Z" fill="#C4E2AC"/>
<path fill-rule="evenodd" clip-rule="evenodd" d="M16.8063 192.888C17.0415 192.766 17.2615 192.638 17.487 192.495C17.3983 192.359 17.2667 192.103 17.2458 192.112C17.0162 192.219 16.8059 192.367 16.5859 192.495C16.6594 192.626 16.7328 192.757 16.791 192.882L16.8063 192.888Z" fill="#C4E2AC"/>
<path fill-rule="evenodd" clip-rule="evenodd" d="M64.008 195.334C64.1311 194.997 64.2389 194.655 64.341 194.329C64.1979 194.293 64.0547 194.258 63.9213 194.244C63.8802 194.593 63.8183 194.952 63.7773 195.301C63.8537 195.329 63.9204 195.336 64.0024 195.349L64.008 195.334Z" fill="#C4E2AC"/>
<path fill-rule="evenodd" clip-rule="evenodd" d="M131.006 111.123C131.117 111.008 131.223 110.908 131.335 110.793C131.093 110.6 130.851 110.408 130.61 110.215C130.551 110.281 130.487 110.361 130.408 110.436C130.602 110.663 130.812 110.896 131.006 111.123Z" fill="#C4E2AC"/>
<path fill-rule="evenodd" clip-rule="evenodd" d="M153.194 77.2699C153.516 77.3359 153.844 77.3865 154.586 77.5367C154.066 77.2075 153.91 77.064 153.727 76.9969C153.574 76.9409 153.376 77.0074 153.201 77.0126C153.204 77.1003 153.191 77.1823 153.194 77.2699Z" fill="#C4E2AC"/>
<path fill-rule="evenodd" clip-rule="evenodd" d="M167.479 37.404C167.223 37.7262 166.981 38.0541 166.746 38.3666C166.826 38.4307 166.891 38.4892 166.978 38.5381C167.233 38.2673 167.493 37.9813 167.739 37.6896C167.654 37.5893 167.569 37.489 167.485 37.3887L167.479 37.404Z" fill="#C4E2AC"/>
<path fill-rule="evenodd" clip-rule="evenodd" d="M161.116 44.7305C160.969 44.9889 160.823 45.2474 160.676 45.5059C160.787 45.5812 160.889 45.6356 161 45.7109C161.137 45.4316 161.274 45.1522 161.411 44.8729C161.304 44.8338 161.217 44.7849 161.116 44.7305Z" fill="#C4E2AC"/>
</svg>
