<svg width="371" height="282" viewBox="0 0 371 282" fill="none" xmlns="http://www.w3.org/2000/svg">
<path fill-rule="evenodd" clip-rule="evenodd" d="M3.54215 29.0217C3.54215 29.0217 3.60001 28.9807 3.61912 28.9604L3.5 28.9244L3.54215 29.0217Z" fill="#FF5C4D"/>
<path fill-rule="evenodd" clip-rule="evenodd" d="M363.491 264.552C365.115 265.221 366.759 265.89 368.99 266.812C368.032 265.776 367.553 265.249 366.795 264.439C368.225 264.398 369.191 264.371 369.771 264.355C371.412 262.897 369.025 261.264 369.472 260.652C370.683 259.032 367.725 257.705 369.004 256.451C367.512 255.682 366.216 254.984 364.684 254.177C365.259 253.31 365.704 252.621 366.149 251.971C365.093 251.575 364.044 251.393 363.371 250.851C362.757 250.347 362.557 249.425 362.106 248.529C361.755 249.138 361.46 249.63 361.128 250.18C359.857 249.038 361.883 247.511 359.619 246.783C359.25 248.088 358.45 248.536 356.799 247.597C357.199 246.697 356.457 245.114 358.587 245.208C358.331 244.365 358.076 243.541 357.817 242.62C357.119 242.543 356.518 242.483 355.955 242.422C355.277 241.03 354.62 239.696 353.921 238.246C353.278 238.091 352.597 237.936 351.935 237.781C351.778 237.012 351.642 236.32 351.483 235.494C349.448 236.918 347.901 237.606 346.842 237.559C346.798 237.386 346.716 237.195 346.731 237.04C346.831 236.496 346.97 235.951 347.09 235.406C347.554 233.363 347.354 233.137 344.56 232.81C344.498 232 344.201 231.081 344.491 230.396C344.781 229.711 345.601 229.321 345.922 229.041C344.199 227.621 342.654 226.331 340.891 224.893C340.606 225.056 339.959 225.422 339.311 225.769C339.352 224.492 338.907 223.133 340.709 222.559C338.423 221.078 337.956 218.269 335.111 218.195C334.659 217.261 334.053 216.37 333.795 215.449C333.364 213.896 333.438 213.797 332.471 213.805C331.911 213.821 331.376 214.069 331.031 214.156C326.932 210.136 321.768 211.5 317.42 209.594C317.048 209.431 316.388 210.03 315.777 210.298C314.673 206.87 311.811 210.276 310.171 208.37C310.011 208.201 308.523 208.92 307.547 209.276C306.477 208.379 305.549 207.709 303.938 208.18C302.979 208.459 301.36 207.306 300.568 208.721C299.365 207.885 298.525 207.6 297.161 207.928C294.817 208.478 292.081 208.15 289.949 209.351C286.29 208.547 284.151 211.546 280.742 211.372C280.317 213.414 278.596 212.071 277.496 212.16C277.16 212.576 276.742 212.858 276.244 213.008C275.17 213.348 273.699 213.312 273.081 214.006C272.537 214.602 272.417 215.146 271.34 214.694C271.007 214.548 270.311 214.549 270.22 214.726C269.482 215.984 267.668 215.455 266.667 216.315C265.686 217.174 263.494 216.27 263.022 218.023C263.005 218.12 262.462 218.039 262.152 218.048C259.42 217.874 257.381 218.918 255.795 220.278C254.634 220.253 253.543 219.974 252.777 220.247C251.131 220.855 249.459 221.25 247.596 221.013C245.635 220.76 243.736 220.62 242.462 221.411C241.128 220.753 240.147 220.259 239.284 219.839C238.643 220.417 238.153 220.876 237.664 221.334C237.506 221.223 237.368 221.13 237.229 221.018C237.306 220.32 237.383 219.641 237.474 218.769C234.956 219.305 235.442 216.681 233.96 216.259C233.228 216.358 232.495 216.436 231.358 216.585C232.283 215.109 232.507 213.44 230.963 212.904C228.619 212.082 228.379 210.445 227.503 208.905C226.994 207.991 226.139 207.184 225.298 206.165C225.619 205.904 226.148 205.464 226.753 204.983C225.894 204.698 225.054 204.412 224.703 204.287C224.749 202.527 224.785 201.057 224.84 199.605C224.89 197.98 224.96 196.355 225.008 194.652C225.448 194.485 226.023 194.295 226.827 194.001C225.732 192.911 224.857 192.066 223.643 190.864C225.078 190.997 225.97 191.088 226.843 191.159C227.322 190.334 227.94 189.62 228.167 188.764C228.308 188.276 228.008 187.26 227.575 187.002C225.548 185.765 226.242 184.334 226.415 182.937C226.768 184.474 227.874 185.273 229.428 185.5C230.03 185.579 231.13 185.509 231.181 185.256C231.332 184.46 231.036 183.56 229.83 183.323C228.722 183.123 227.615 182.98 226.489 182.819C226.614 182.468 226.759 182.135 226.846 181.765C227.39 179.836 227.372 179.875 229.66 180.757C230.481 181.063 231.373 181.153 232.249 181.341C232.355 179.617 231.126 179.247 230.173 179.08C228.307 178.747 227.692 177.527 226.54 175.782C228.85 176.76 230.534 177.504 232.316 178.266C232.596 177.233 231.678 176.911 230.601 176.439C229.7 176.04 229.346 175.161 230.044 174.542C230.383 174.242 231.177 174.277 231.779 174.338C232.38 174.398 232.988 174.69 233.593 174.885C233.685 174.709 233.757 174.533 233.849 174.356C232.424 173.237 231 172.118 229.298 170.774C230.323 170.784 230.902 170.729 231.466 170.828C232.107 170.946 232.735 171.256 233.358 171.393C234.72 171.683 236.248 170.345 236.261 168.74C236.259 167.986 235.966 167.202 235.787 166.356C235.305 166.409 235.015 166.417 234.746 166.483C234.4 166.57 234.075 166.695 233.634 166.843C232.02 163.796 231.829 161.192 233.856 159.027C235.294 159.257 236.615 159.471 238.053 159.701C238.082 160.048 238.132 160.413 238.187 160.992C237.041 160.831 235.954 160.688 234.731 160.53C234.709 161.11 234.687 161.691 234.64 162.774C236.557 161.483 239.111 162.879 240.527 160.983C239.472 159.95 238.418 158.936 237.383 157.903C236.249 156.794 236.678 156.241 237.811 155.938C238.761 156.723 239.593 157.395 240.623 158.255C240.743 156.357 240.836 154.886 240.926 153.279C241.527 153.32 242.167 153.379 242.825 153.418C242.842 153.321 242.859 153.224 242.894 153.107C241.893 152.594 240.873 152.101 239.813 151.571C240.485 151.397 241.081 151.245 241.945 151.027C241.027 150.048 240.349 149.333 239.651 148.579C241.067 147.379 241.97 149.19 243.037 149.295C243.288 148.611 243.54 147.966 243.737 147.4C242.382 146.685 241.125 146.005 239.553 145.161C241.102 144.517 242.191 144.061 243.395 143.563C242.783 143.097 242.387 142.78 241.971 142.463C241.971 142.463 241.933 142.483 241.915 142.503C241.914 142.484 241.875 142.466 241.855 142.447C240.673 143.041 240.472 142.119 240.481 141.075C240.939 141.526 241.397 141.996 241.855 142.447L241.913 142.445C241.913 142.445 241.952 142.444 241.972 142.482C242.369 142.162 242.767 141.861 243.182 141.52C242.272 140.792 241.461 140.177 240.611 139.506C242.206 138.494 242.324 137.872 241.569 135.825C241.109 134.582 240.372 133.172 242.725 132.951C240.246 131.475 243.482 128.967 240.494 127.969C241.256 126.865 241.072 125.827 240.767 124.637C240.308 122.794 238.397 122.249 237.297 120.985C237.297 120.985 237.258 120.948 237.257 120.929C237.197 120.853 237.099 120.798 237.019 120.723L237.252 120.755C237.252 120.755 237.295 120.908 237.317 120.985C237.857 120.931 238.397 120.877 239.477 120.769C237.974 119.632 237.055 118.596 235.961 118.201C234.984 117.862 233.816 118.262 232.754 118.331C232.752 118.254 232.749 118.157 232.747 118.08C233.741 117.685 234.736 117.289 235.73 116.894C235.744 116.7 235.757 116.487 235.771 116.293C233.733 116.042 232.094 115.528 231.934 113.329C231.922 112.904 230.726 112.319 230.019 111.953C229.136 111.495 229.341 113.267 227.83 112.518C226.32 111.768 227.844 110.971 227.081 110.645C226.376 110.336 225.563 110.34 225.02 110.259C224.69 110.925 224.49 111.356 224.288 111.749C223.491 110.902 222.833 110.224 222.154 109.49C222.86 109.122 223.374 108.856 223.888 108.571C222.294 108.287 221.508 106.493 219.623 106.856C218.603 107.039 217.014 105.577 215.749 106.657C215.881 107.213 216.013 107.77 216.231 108.615C214.097 107.709 215.23 106.091 214.256 105.172C213.479 105.059 212.419 105.186 211.982 104.773C210.452 103.328 208.642 103.611 206.963 103.06C205.791 102.668 205.62 103.446 205.289 104.055C205.234 104.153 204.962 104.122 204.75 104.147C204.446 103.673 204.124 103.218 203.8 102.725C203.25 103.108 202.814 103.41 202.112 103.894C202.029 102.988 201.973 102.409 201.834 100.925C201.265 104.015 199.947 99.8575 199.284 101.693C197.015 100.811 195.257 101.557 193.502 102.399C193.33 102.481 192.937 102.28 192.645 102.191C192.962 103.149 193.299 104.106 193.722 105.369C192.881 105.045 192.216 104.794 191.121 104.361C191.716 103.532 192.18 102.862 192.645 102.211L192.644 102.172L192.664 102.172C192.389 102.044 192.039 101.957 191.801 101.771C189.192 99.8154 189.019 99.8397 187.42 102.089C187.197 102.404 186.697 102.515 186.411 102.678C186.06 101.876 185.769 101.169 185.396 100.31C184.794 100.888 184.379 101.267 184.022 101.625C183.6 101.057 183.238 100.603 182.796 100.017C182.115 100.539 181.603 100.901 180.96 101.403C179.577 98.3493 177.257 101.798 175.707 99.6578C175.476 100.36 175.333 100.77 175.19 101.2C172.225 98.945 170.305 102.827 167.508 101.051C167.252 101.58 167.05 101.953 166.775 102.502C164.15 99.2906 161.889 102.061 159.359 101.514C159.692 102.356 160.003 103.081 160.295 103.807C160.141 103.85 159.988 103.913 159.835 103.956C159.256 103.334 158.677 102.713 158.078 102.053C157.374 102.441 156.601 103.139 156.306 102.974C153.654 101.522 152.074 104.467 149.568 103.397C149.529 103.398 149.368 103.828 149.199 104.007C148.993 104.245 148.618 104.661 148.5 104.607C147.146 103.911 146.09 105.545 144.706 104.483C144.547 104.352 143.949 104.388 143.894 104.506C143.42 105.525 142.694 105.835 141.493 105.077C140.729 106.799 138.723 105.619 137.421 106.082C137.172 106.166 137.045 106.46 136.837 106.64C136.178 107.238 135.518 107.837 134.838 108.417C134.743 108.497 134.47 108.408 134.218 108.396C134.054 108.072 133.889 107.709 133.849 107.633C132.346 107.83 130.92 108.026 129.302 108.246C129.705 108.833 130.109 109.421 130.512 110.009C130.302 110.092 130.091 110.156 129.881 110.239C129.056 109.818 128.213 109.398 127.585 109.087C123.548 110.632 119.708 112.288 115.643 113.544C114.819 113.799 114.605 114.443 114.009 114.557C113.316 114.692 112.438 114.408 111.602 114.277C111.326 114.749 111.068 115.201 110.791 115.653C109.97 115.368 109.286 115.116 108.622 114.884C108.49 115.023 108.395 115.084 108.378 115.162C108.256 115.61 108.171 116.037 108.032 116.582C107.546 116.48 106.956 116.168 106.573 116.295C105.423 116.657 103.67 116.9 103.403 117.7C102.817 119.534 100.525 117.84 99.9036 119.114C99.7026 119.526 99.501 119.918 99.3547 120.212C98.3238 120.686 96.7387 118.682 96.2134 120.611C94.9667 120.298 93.7205 120.005 92.1817 119.623C91.9161 119.805 91.2888 120.19 90.5296 120.695C90.3397 119.463 90.4293 118.533 90.0031 117.83C89.5167 117.051 88.6272 116.381 87.799 115.824C87.0299 115.305 86.1117 114.983 85.2686 114.582C86.1593 113.261 86.0114 112.144 84.6958 110.771C84.2171 110.263 83.6408 108.365 83.8214 107.916C83.9478 107.603 84.2433 107.111 84.124 106.998C82.9712 105.91 83.5449 105.005 84.0431 104.159C84.6146 103.177 83.517 102.667 83.1869 101.941C82.939 101.388 85.2039 101.459 83.6155 100.016C82.8314 100.328 81.9904 100.68 81.187 100.993C81.6371 99.8206 81.7543 98.5028 82.5053 97.7083C83.8769 96.2969 82.7567 95.6716 81.5348 94.8751C80.8253 94.4121 80.1341 93.9098 79.4246 93.4468C79.5184 93.3474 79.5924 93.2294 79.6863 93.13C80.88 93.618 82.055 94.1258 83.5226 94.7219C83.6585 93.3843 84.0185 92.4462 83.7812 91.5832C82.9841 88.7257 83.0725 87.7568 84.3299 85.73C85.4029 84.0178 86.2401 82.177 87.2678 80.2342C86.1072 79.552 85.2415 79.0354 84.3763 78.5381L84.3194 78.5784C84.3194 78.5784 84.241 78.5419 84.2024 78.543C83.6524 78.9259 83.1218 79.3083 82.5718 79.6912C82.4714 78.2057 83.2052 78.1655 84.2024 78.543C84.2217 78.5425 84.2592 78.5028 84.278 78.4829C84.2973 78.4824 84.3371 78.5199 84.357 78.5386C84.5646 78.3588 84.7717 78.1596 84.9793 77.9797L84.9406 77.9808L84.9384 77.9035C84.2367 77.7109 83.5349 77.5182 82.3848 77.203C83.3715 76.5371 83.8834 76.1746 84.5852 75.6907C84.6956 76.1708 84.7602 76.4009 84.806 76.6509C84.8568 77.0747 84.8877 77.4797 84.9379 77.8842C84.9765 77.8831 84.9959 77.8826 85.0351 77.9008C85.0351 77.9008 84.9975 77.9405 84.9787 77.9604C85.3857 77.9875 85.7937 78.0532 86.1791 78.0036C86.7959 77.928 87.7058 77.9601 87.8892 77.607C88.3111 76.8025 87.617 76.2037 86.679 75.8631C86.542 75.809 86.4394 75.5993 86.3196 75.4674C86.4963 74.8825 86.6725 74.2783 86.8299 73.6939C89.1003 73.2814 88.5447 76.1773 90.0946 76.2685C90.9797 75.4315 91.7511 74.675 92.5231 73.9379C92.0692 73.6222 91.7341 73.3998 91.4183 73.1768C91.4183 73.1768 91.3807 73.2165 91.3813 73.2358C91.3421 73.2176 91.3029 73.1994 91.2637 73.1812C90.5624 73.6844 89.907 73.761 89.5372 72.3218C90.1064 72.6149 90.6944 72.8881 91.2637 73.1812C91.283 73.1806 91.3206 73.1409 91.3393 73.1211C91.3587 73.1205 91.3984 73.158 91.4183 73.1768C91.9456 72.6786 92.2405 72.1676 91.7122 71.2741C91.2656 70.533 91.2203 69.6258 90.962 68.7053C92.9955 69.4786 94.5995 70.1095 96.6727 70.9204C95.2771 68.0993 91.5639 67.4318 91.7989 64.139C93.4779 65.367 95.1342 66.4797 96.6586 67.7121C97.7076 68.5521 98.3007 68.3226 98.9197 67.6478C98.3029 66.3638 97.5108 65.4907 96.5434 65.0286C95.4844 64.5175 94.4072 64.0455 93.4228 63.4356C92.5372 62.9003 91.9564 62.2016 92.8923 61.1118C94.7414 62.1997 96.5314 63.2506 98.4197 64.3566C99.3556 63.9434 100.349 63.5092 101.571 62.9719C101.019 62.601 100.644 62.3411 100.251 62.101C100.231 62.1015 100.213 62.1407 100.194 62.1606L100.193 62.1026C99.9112 62.4006 99.6495 62.7173 99.3872 63.0147C96.8599 61.6562 95.62 60.4543 95.6676 59.4092C96.9601 59.9717 98.2725 60.5529 100.016 61.3151C100.013 61.2379 100.084 61.6611 100.193 62.1026L100.212 62.1021C100.212 62.1021 100.251 62.101 100.27 62.1004C101.007 61.4996 101.96 61.0086 101.415 59.5357C98.5746 60.293 98.0536 56.9445 95.8097 56.2544C96.6805 56.2683 97.5319 56.2828 98.5964 56.3105C98.5115 55.3657 98.4696 54.5744 98.3868 53.707C99.9118 54.2821 101.378 54.8203 102.824 55.3591C102.897 55.2024 102.951 55.0462 103.024 54.9088C102.442 54.1522 101.841 53.4154 100.736 51.9971C102.343 52.0287 103.426 52.0366 104.742 52.0765C103.397 49.6599 101.42 50.1993 100.03 49.6203C98.9878 50.3651 101.635 51.6429 99.1135 52.0626C99.5819 50.1743 97.3921 50.7005 96.3696 49.4345C97.5578 49.0528 98.5539 48.7151 99.5892 48.3958C99.3264 47.9973 99.0637 47.5989 98.6794 47.0106C100.605 46.7045 100.936 45.4387 100.761 43.3561C99.6845 44.2758 98.9672 44.8955 97.8535 45.855C97.5371 44.9361 97.0326 44.1966 97.2363 43.8816C98.3662 42.1291 99.5153 40.3761 100.943 38.8858C101.581 38.2104 101.685 37.7822 101.339 37.1928C100.331 37.1055 99.4973 37.0326 98.6056 36.9613C98.15 37.9407 97.6767 38.9786 97.0925 40.1937C96.3975 38.2032 96.3301 37.8765 96.6445 36.0119C96.729 35.5843 97.2618 35.2792 97.7312 34.7826C96.7572 34.5397 96.0168 34.3481 95.2957 34.156C96.6126 33.5386 97.839 33.1365 98.0357 31.2173C96.9402 31.4611 96.1909 31.637 95.6332 31.7495C94.6416 30.8885 93.7108 30.1225 92.8362 29.2969C91.6437 28.171 89.7742 27.0451 89.4684 25.8167C88.811 23.1099 86.7891 21.3891 84.9544 19.4504C83.9971 18.4338 83.414 19.0109 82.4863 19.7138C83.6027 20.204 84.3846 20.491 85.0918 20.8768C85.4457 21.0794 85.7086 21.4778 86.0072 21.7786C85.7389 21.8636 85.4904 21.9673 85.2226 22.0716C84.4215 21.7851 83.6198 21.4793 82.8186 21.1928C82.6789 21.7186 82.6104 22.0299 82.5579 22.2247C80.4974 21.1815 78.6516 20.2095 76.787 19.2574L76.7887 19.3153C76.7887 19.3153 76.7296 19.2784 76.6904 19.2602C75.7992 19.8847 74.9594 19.5993 73.8491 18.6451C75.076 18.2623 75.9026 18.7607 76.6904 19.2602C76.6904 19.2602 76.7291 19.259 76.7479 19.2392L76.7865 19.2381C76.9257 18.6929 77.0643 18.1284 77.2228 17.5827C77.346 17.1539 77.489 16.7439 77.6321 16.3339C77.4747 16.2418 77.3174 16.1496 77.1407 16.0579C76.3986 16.485 75.6371 16.9126 74.514 17.5437C74.7327 16.3971 74.8835 15.5809 75.0349 14.7841C73.6959 14.6289 72.3575 14.493 70.9992 14.3383C71.1803 14.5845 71.3421 14.8311 71.564 15.1534C68.9893 15.7486 66.8406 11.6152 64.236 13.8735C63.1765 12.6665 62.0877 11.789 60.3529 11.3165C60.7598 12.0201 60.9844 12.4389 61.2091 12.8578C59.6393 14.1009 58.7804 10.4334 56.9637 11.8381C57.8338 12.5092 58.566 13.0876 59.6536 13.9265C58.0563 13.5274 56.9846 13.2486 55.8544 12.9521C55.84 12.45 55.8274 12.0057 55.802 11.1173C53.7015 12.7427 53.8741 9.29716 51.836 9.7224C52.1927 10.6981 52.5482 11.6351 52.8844 12.5727C52.7314 12.635 52.5779 12.678 52.425 12.7404C51.5267 11.7608 50.6091 10.7818 49.5915 9.68958C48.9267 10.1144 48.3376 10.4791 47.7865 10.8234C47.1295 10.1655 46.5917 9.62028 45.975 9.01928C44.7999 10.5411 47.2189 11.2648 47.01 12.7591C45.4293 11.5863 44.0854 10.5807 42.9 9.70595C42.2827 10.4387 41.8856 11.4358 41.1556 11.6112C40.2335 11.8307 39.0216 11.382 37.798 11.2041C38.0398 12.2217 38.1966 12.9711 38.4168 13.912C36.4539 13.5813 35.1172 12.8267 34.0362 11.5431C33.896 11.3731 33.5095 11.3841 32.9247 11.2268C33.2228 12.1848 33.4563 12.9127 33.7329 13.794C31.5094 13.142 29.3418 12.4112 27.5096 13.9516C27.9639 14.9632 28.4387 16.0128 28.9135 17.0624L29.0311 17.1171C29.0311 17.1171 28.9946 17.1954 28.9952 17.2147C29.2651 17.8643 29.5356 18.5331 29.8895 19.4122C28.5097 18.5043 28.47 18.4668 28.9952 17.2147C28.9946 17.1954 28.9935 17.1568 28.9736 17.138C28.9731 17.1187 28.9527 17.0806 28.9328 17.0619C27.0103 16.1114 25.0684 15.1615 23.1271 14.2309C22.8787 14.3347 22.6297 14.4191 22.3619 14.5233C22.7467 15.1309 23.1121 15.7391 23.5544 16.3257C24.3394 17.4052 23.6354 17.8118 22.9126 18.2383L22.9137 18.2769C22.9137 18.2769 22.8955 18.3161 22.8574 18.3365C23.6855 19.5693 23.6054 20.828 23.3292 21.9957C23.1044 22.9299 22.2282 22.7229 21.2448 22.1516C21.2792 20.6429 21.3334 19.153 22.8568 18.3172C22.8568 18.3172 22.8563 18.2979 22.8557 18.2785L22.9319 18.2377C22.0359 17.3354 21.6633 15.7996 19.6937 15.9136C19.5794 16.6514 19.4661 17.4278 19.3192 18.3791C18.618 18.2058 18.0719 18.0474 17.5849 17.9259C17.3552 18.6863 17.1249 19.4273 16.8775 20.2462C15.9758 19.8273 15.3293 19.5364 15.0549 19.4089C13.49 20.1493 12.2112 20.7462 10.8567 21.4033C10.2751 24.068 14.774 24.4813 14.6374 27.1526C13.86 27.0201 13.0831 26.9069 12.2864 26.7749C11.995 24.6956 10.6655 23.5157 8.41885 22.7291C8.09082 23.4343 7.80084 24.7956 7.39391 24.7685C4.95286 24.6253 5.87151 26.3195 5.84883 26.8807C4.80961 27.7414 4.12988 28.3213 3.46836 28.8621C4.40259 29.0674 5.33735 29.2921 6.46593 29.5306C6.33385 31.0035 6.86549 32.0128 8.80523 31.5324C8.82846 30.9905 8.72308 30.0077 8.91578 29.9828C11.014 29.6332 9.82532 27.9661 9.89557 26.3597C11.182 27.3862 12.093 28.1335 13.4187 29.1783C10.8804 29.695 9.43752 30.6445 9.94809 32.9496C8.68588 32.7729 7.676 32.6276 6.453 32.4691C7.87301 34.1104 6.76811 34.7024 5.71899 35.2155C6.4511 35.7939 7.10424 36.3165 7.99481 37.0257C6.83749 37.1359 6.10425 37.1955 4.63827 37.3338C6.12848 38.0453 6.87329 38.3914 7.59879 38.738C7.61531 39.3174 7.39107 40.2709 7.6467 40.4183C9.43725 41.4885 8.44275 42.5606 8.1009 43.4594C10.4507 45.1516 11.9731 43.6006 13.7676 43.4529C13.5706 42.6467 13.3536 41.8217 13.156 40.9961C13.2703 40.9349 13.3852 40.8929 13.5 40.851C14.4778 41.9057 15.4357 42.9415 16.4135 43.9962C17.5425 42.8945 17.9832 41.8446 17.7356 40.8465C19.2004 41.3461 20.6454 41.8269 22.2858 42.3794C21.854 41.4832 21.5669 40.9115 21.1358 40.0346C22.2848 40.3112 23.044 40.4829 23.8225 40.6541C23.648 41.3162 23.5436 41.7251 23.3873 42.3481C24.3028 41.8968 24.9892 41.5487 25.6954 41.2193C25.4541 40.8976 25.2134 40.5952 24.8722 40.1603C26.898 40.6632 27.4784 39.313 28.3249 38.4771C31.349 39.3962 32.6876 36.8259 35.2386 36.7534C34.7969 36.1861 34.496 35.808 33.7744 34.9201C35.2662 35.6895 36.1883 36.1465 37.2876 36.7144C37.8497 36.0799 38.2645 35.0243 38.958 34.9272C40.0374 34.7999 41.3289 35.3237 41.9336 34.1468C44.2271 35.222 45.2907 33.1814 47.0665 33.0536C48.0399 33.2772 48.7349 34.5912 50.1065 33.8563C49.6494 33.4247 49.3115 33.1057 48.8345 32.6554C50.1397 32.9855 51.2887 33.2621 52.5548 33.574C52.5869 32.6646 52.625 31.9677 52.672 30.9032C55.5868 32.0574 58.2083 33.104 60.9475 34.2051C60.9824 32.0392 58.3983 32.306 58.0583 30.5567C60.0841 31.7362 61.9337 32.8433 63.822 33.9494C64.1174 33.4578 64.3201 33.1041 64.4123 32.9468C66.0461 33.2676 67.5242 33.5542 69.0023 33.8407C69.0056 33.9566 68.9901 34.0923 68.9746 34.2281C68.6483 34.3147 68.3021 34.3825 67.9564 34.4697C68.5384 35.207 69.0794 35.8682 69.6221 36.5872C70.123 35.8385 70.5493 35.1885 70.8641 34.6963C72.611 34.9172 74.0284 35.1088 75.7754 35.3297C75.6091 36.2816 75.4567 37.0398 75.3235 37.7975C76.0374 38.415 77.1921 36.8552 77.6414 38.3694C78.1338 40.0371 79.5306 41.5437 79.35 43.3465C79.2289 44.5291 79.283 45.7453 79.5518 47.0327C79.729 47.8202 80.6172 49.8052 78.2949 49.7553C78.1403 49.7597 78.0999 50.3794 77.974 50.7116C77.7415 51.3754 77.4698 52.021 77.2544 52.607C76.5372 52.5501 76.0336 52.5258 75.4522 52.4843C75.4803 52.7928 75.6255 53.1366 75.5151 53.333C74.4438 55.1032 74.0715 56.9694 75.1005 59.1437C75.1833 59.3347 74.7521 59.8108 74.4451 59.8969C74.1574 59.9824 73.5721 59.8057 73.3717 59.5601C73.0117 59.1451 72.8218 58.59 72.5557 58.0756C71.0928 58.7744 70.6072 60.0576 71.0989 61.925C70.5583 61.9597 69.999 62.0143 69.2458 62.055C69.4302 63.0936 69.7084 64.0328 69.7541 64.9593C69.8209 65.9433 69.6745 66.9139 69.6064 68.5975C67.1992 66.2498 66.5856 68.4708 65.3113 68.5457C65.5713 69.5242 65.8097 70.4259 66.0675 71.327C66.0868 71.3265 66.1266 71.364 66.1652 71.3629C66.6522 71.4843 67.2789 71.7565 67.5644 71.5937C68.8951 70.7827 69.5416 71.7501 70.3007 72.5983C69.1342 71.0272 70.0138 69.997 71.1762 68.7075C71.37 69.3979 71.6946 69.9299 71.5493 70.2626C71.2439 71.0831 70.7232 71.8131 70.2809 72.5796C69.7198 73.9293 70.0664 75.9104 67.6242 75.7286C67.9738 77.1361 67.433 78.0664 66.0018 78.5195C66.1039 79.3864 66.2264 80.2914 66.3737 81.389C65.1314 81.2311 64.063 81.0682 63.1702 80.9583C62.8018 82.2832 62.487 83.4519 62.0833 84.8937C60.5462 82.5406 60.744 81.3365 62.4928 80.2623C62.7208 80.1205 63.0449 79.9567 63.077 79.7238C63.3051 78.2289 64.145 77.1612 66.039 76.4308C64.8833 75.9225 64.2175 75.6322 63.6891 75.4152C62.8807 76.2307 62.1479 76.9861 61.2832 77.8612C60.6792 77.0279 60.3176 76.5549 59.8345 75.8921C61.8913 75.447 63.7946 75.045 65.3704 74.6909C65.8497 73.8654 66.3357 73.2717 66.5671 72.5692C66.6743 72.2569 66.3121 71.7646 66.1266 71.364C66.0879 71.3651 66.0686 71.3656 66.0294 71.3474L66.0283 71.3088C64.7755 70.7839 63.5421 70.2584 62.0739 69.6429C61.7817 70.927 61.5404 71.9584 61.3691 72.7364C60.3559 73.1518 59.256 73.2411 58.8656 73.7934C57.5834 75.6275 58.9017 77.7743 59.4852 79.9226C58.9297 80.1124 58.3897 80.1664 58.0689 80.4461C57.6912 80.7661 57.1914 81.5536 57.271 81.6286C58.4801 82.6573 57.9361 84.6058 59.8895 85.2847C60.4168 85.463 60.8563 85.9531 61.7248 86.5663C60.2384 86.6665 59.425 87.3082 58.5279 85.6907C57.7936 84.3585 56.3515 83.2978 55.2556 82.1692C53.1656 82.8085 54.7231 84.5232 54.3293 85.6362C53.8997 86.8468 54.0376 88.2926 53.9254 89.7842C53.2446 89.6489 52.4865 89.5159 51.475 89.3127C51.8035 89.9799 52.0287 90.4181 52.0298 90.4567C51.5698 91.2816 50.9668 91.84 50.9662 92.4972C50.9612 93.6765 50.5763 94.4219 49.4681 94.898C48.7994 95.1877 48.2737 95.7439 47.5349 96.2868C48.6053 98.5566 49.6746 100.788 50.7048 103.001C49.2554 103.042 47.9606 103.079 45.9121 103.137C48.4872 105.267 47.1299 106.504 46.2635 107.998C50.2897 108.115 48.5049 111.317 50.433 112.461C48.4866 113.386 47.1589 109.558 45.1406 112.031C46.6281 112.646 47.94 113.208 49.4666 113.841C48.6102 114.329 47.8487 114.757 47.0492 115.205C47.5643 116.311 48.1108 117.166 46.779 117.938C44.7431 119.117 44.8209 119.811 46.2872 122.398C47.3977 121.323 48.5081 120.247 49.8058 118.954C51.7985 118.974 49.6372 121.182 51.3825 122.021C52.5784 122.586 53.284 124.267 54.2076 125.459C54.0177 125.58 53.8476 125.72 53.6576 125.842C52.8063 125.151 51.9748 124.478 50.7673 123.508C50.2107 124.335 49.7269 125.006 49.3023 125.714C49.0438 126.147 48.9897 126.96 48.6252 127.067C46.6286 127.588 46.8781 128.876 47.4815 130.366C47.5008 130.366 47.54 130.384 47.5599 130.403C48.3147 129.743 49.0497 129.065 49.8802 128.346C50.4179 129.568 51.2725 131.051 53.9841 131.187C53.1961 132.04 52.7649 132.516 52.3529 132.992C52.3529 132.992 52.3535 133.011 52.3734 133.03L52.3745 133.069C54.7382 133.891 55.7606 135.833 57.3092 137.915C56.1542 137.201 55.175 137.003 54.3718 137.322C53.7325 135.93 53.0728 134.499 52.3938 133.068C52.3744 133.069 52.3546 133.05 52.3154 133.032C52.3154 133.032 52.3341 133.012 52.3529 132.992C51.2747 131.128 49.1511 131.266 47.5604 130.422L47.5229 130.462C48.8539 133.053 50.1662 135.664 51.5359 138.254C52.0057 139.129 53.1133 139.987 53.1358 140.779C53.2527 143.52 55.2033 145.456 56.9452 147.533C57.2659 147.929 57.9566 148.412 57.9058 148.665C57.4667 150.9 59.4495 150.573 60.3406 151.302C61.9367 153.015 63.5517 154.709 65.1274 156.385C65.817 156.152 66.3339 155.964 67.0235 155.732C67.9333 157.793 71.2004 157.739 71.1908 160.117C73.4374 160.903 75.4494 161.6 77.4614 162.297C78.8166 160.306 80.9892 161.211 83.2646 161.648C83.1138 162.465 82.9768 163.087 82.91 163.456C84.4841 163.721 85.9032 163.97 87.5546 164.233C87.5392 163.692 87.5205 163.035 87.5029 162.417C89.2477 161.884 91.3849 163.582 92.9129 162.224C94.8674 162.942 95.4804 162.055 95.3016 160.533C96.709 161.053 97.9016 161.503 98.8203 161.844C99.128 160.424 99.3688 159.373 99.6781 158.011C100.975 159.624 102.202 160.156 103.36 159.608C102.539 158.645 100.886 158.306 100.461 156.308C101.877 157.137 102.861 157.708 103.687 158.187C104.262 157.34 104.801 156.571 105.432 155.644C105.855 156.231 106.037 156.497 106.198 156.724C106.588 156.172 106.979 155.62 107.537 154.831C109.245 157.101 111.579 154.155 113.101 156.663C113.98 155.839 115.224 155.617 116.834 155.996C117.118 155.099 117.383 154.222 117.682 153.189C116.782 152.828 116.058 152.52 114.728 151.997C117.466 151.687 118.789 153.331 120.401 154.233C120.747 153.488 121.019 152.862 121.311 152.235C120.235 151.802 119.237 151.405 118.239 150.989C119.606 150.795 121.375 150.436 122.051 151.054C123.66 152.555 124.621 151.658 125.851 151.372C125.947 151.369 126.149 151.672 126.345 151.763C126.855 152 127.402 152.197 128.087 152.487C128.209 151.343 128.319 150.451 128.462 149.345C130.07 150.111 131.491 150.457 132.164 148.93L132.085 148.894C132.085 148.894 132.083 148.817 132.082 148.778C131.368 148.18 130.121 147.829 130.666 146.615C132.23 147.208 132.27 147.226 132.082 148.778C132.122 148.816 132.161 148.834 132.181 148.872C132.182 148.891 132.163 148.911 132.144 148.931C132.771 149.222 133.399 149.514 134.045 149.805C134.606 148.436 135.094 147.262 135.584 146.108C136.038 145.07 136.915 144.62 138.215 144.776C139.592 144.93 140.328 145.644 140.481 146.935C140.487 147.147 140.842 147.388 141.243 147.88C141.905 147.358 142.843 147.003 143 146.399C143.261 145.387 144.049 145.21 144.772 145.479C146.238 146.017 147.236 145.738 147.944 144.79C148.578 143.96 149.034 143 149.716 141.82C151.086 143.057 152.817 144.09 155.209 143.848C154.781 143.087 154.283 141.922 154.149 141.946C152.781 142.139 152.837 141.403 152.752 140.458C154.008 140.423 155.205 140.35 156.345 140.298C156.502 139.694 156.642 139.188 156.799 138.565C159.199 139.328 161.371 139.517 162.141 137.369C164.715 137.412 163.106 139.313 164.346 140.09C164.773 138.783 165.164 137.573 165.573 136.305C166.302 136.787 166.931 137.136 167.485 137.565C168.019 137.975 168.496 138.445 169.131 139.007C169.763 138.757 170.47 138.485 171.331 138.152C170.832 137.605 170.281 137.254 170.193 136.889C170.125 136.543 170.54 136.183 170.743 135.829C169.778 135.219 168.891 134.645 168.005 134.09C168.772 133.875 169.45 133.914 170.076 134.167C170.801 134.475 171.472 134.958 172.318 135.456C172.355 134.701 172.381 134.256 172.394 134.062C173.826 134.737 175.139 135.337 176.414 135.997C177.73 136.674 179.024 137.295 180.316 136.504C180.577 135.472 179.243 134.138 181.248 133.211C181.174 134.025 181.119 134.819 181.093 135.245C183.187 135.417 184.679 135.53 186.133 135.662C187.132 133.372 183.732 133.508 183.317 131.838C184.023 131.528 184.711 131.238 185.189 131.011C186.161 131.873 186.99 133.144 187.746 133.2C189.509 133.324 187.717 131.519 188.299 130.884C189.459 131.566 190.463 132.156 191.662 132.857C191.856 131.518 191.984 130.567 192.078 129.81C193.23 130.164 194.322 130.5 195.435 130.855C195.643 131.371 195.955 132.155 196.287 132.919C193.783 131.927 193.288 132.211 193.683 134.52C195.328 134.57 196.935 134.62 198.58 134.67C198.423 133.921 198.334 133.498 198.245 133.076C199.213 133.125 199.988 133.161 200.646 133.2C200.741 133.816 200.814 134.317 200.96 135.395C201.863 133.804 203.717 133.732 203.686 131.954C203.673 131.51 204.903 131.224 205.76 130.755C205.689 132.323 205.644 133.464 205.579 134.587C206.528 134.638 207.477 134.669 208.271 134.704C210.214 135.692 212.117 136.644 213.983 137.634C214.101 137.708 214.146 137.939 214.208 138.072C213.659 138.475 213.128 138.876 212.296 139.519C214.406 140.27 216.067 140.861 217.943 141.542C217.818 142.59 217.71 143.559 217.6 144.451C218.158 144.996 218.714 145.521 219.509 146.272C217.926 146.375 216.768 146.466 215.475 146.561C216.03 147.705 216.553 148.424 216.671 149.156C216.767 149.81 216.604 150.897 216.202 151.025C214.551 151.477 215.055 152.855 214.773 153.81C213.929 154.066 213.203 154.396 212.677 154.913C211.304 156.286 212.245 158.076 212.524 159.731C212.544 159.75 212.583 159.768 212.603 159.806C214.995 159.564 215.094 159.658 214.898 161.596C214.067 160.943 213.335 160.365 212.603 159.806C212.584 159.806 212.565 159.807 212.526 159.808C212.526 159.789 212.524 159.75 212.524 159.731C211.57 160.183 210.616 160.655 209.548 161.169C209.22 163.227 212.39 163.175 212.718 164.519C211.642 166.115 210.616 167.42 209.845 168.873C209.166 170.148 208.237 170.155 206.958 169.38C206.599 169.68 206.24 169.98 205.541 170.561C206.602 170.473 207.143 170.438 207.954 170.376C207.561 171.547 209.677 173.169 207.356 173.853C206.772 173.039 206.209 172.262 205.443 171.201C204.613 172.617 204.466 174.225 202.509 174.107C202.593 175.69 200.191 174.888 200.037 176.284C199.913 177.332 199.613 178.345 199.373 179.434C200.03 180.769 201.668 181.921 201.099 183.677C201.01 183.95 202.079 184.808 202.748 185.215C204.875 186.527 205.518 188.074 204.647 190.09C204.356 190.736 204.026 191.364 203.624 192.168C201.406 191.032 199.364 189.989 197.225 188.89C196.79 189.907 197.447 190.565 198.029 191.302C198.711 192.172 198.226 194.815 197.427 195.301C195.849 196.255 195.852 196.371 197.301 198.359C197.775 197.321 197.576 195.761 199.398 195.903C199.397 195.864 199.396 195.845 199.395 195.806C199.395 195.825 199.435 195.863 199.436 195.882C199.967 194.843 200.478 193.784 201.009 192.706C202.108 193.268 202.345 194.144 201.722 195.334C202.853 196.346 203.974 196.314 205.162 195.236C204.698 197.279 204.676 197.183 203.009 197.076C202.292 197.038 201.629 197.521 200.959 197.752C201.307 198.438 201.573 198.953 201.86 199.505C201.571 199.533 201.342 199.636 201.262 199.561C200.626 198.96 199.512 198.567 200.234 197.425C200.401 197.169 199.76 196.395 199.434 195.805C199.434 195.805 199.415 195.825 199.395 195.806C199.449 197.718 197.875 198.787 197.085 200.26C197.688 200.397 198.313 200.592 198.914 200.652C199.69 200.727 200.496 199.834 201.122 201.421C201.31 201.937 202.659 201.744 203.117 200.861C203.301 200.527 203.838 200.377 204.615 200.49C204.074 201.878 203.514 203.247 202.936 204.694C201.703 203.511 200.788 202.609 200.072 201.934C198.824 202.24 197.979 202.457 197.115 202.656C197.073 201.884 197.012 201.093 196.971 200.321C196.591 199.887 196.231 199.472 195.831 199.019C194.767 200.132 194.793 201.059 195.91 201.801C194.966 202.601 196.131 204.114 195.794 204.491C194.688 205.721 196.928 206.295 196.457 207.41C196.042 207.789 195.555 208.344 194.929 208.749C193.465 209.66 192.958 210.873 193.147 212.723C193.361 214.805 194.182 217.14 191.931 218.924C194.187 219.362 195.583 220.154 195.313 221.534C194.448 222.428 193.726 222.874 193.435 223.52C192.727 225.145 192.117 226.824 191.722 228.575C191.585 229.178 191.363 230.209 192.751 230.73C193.728 231.089 193.808 231.86 193.092 232.518C192.847 232.738 192.53 233.153 192.634 233.42C193.22 234.97 193.921 236.496 194.666 238.214C195.542 237.049 195.658 237.046 196.876 238.364C196.248 238.749 195.561 239.078 195.033 239.538C194.75 239.778 194.764 240.28 194.64 240.67C196.319 241.222 195.587 242.692 196.289 243.561C197.731 245.299 199.363 246.934 200.959 248.628C200.562 249.625 200.165 250.642 199.822 251.502C202.479 253.784 204.938 255.918 207.417 258.071C208.411 256.283 208.908 256.076 210.577 256.975C211.972 257.728 213.293 258.619 214.596 259.529C215.78 260.345 216.796 261.399 218.016 262.138C220.457 263.614 222.795 263.548 224.744 262.043C226.444 264.005 223.858 264.214 223.978 265.699C224.687 265.466 225.275 265.043 225.856 265.104C226.652 265.197 227.457 266.276 228.398 265.38C227.686 264.82 227.073 264.354 226.46 263.888C226.553 263.75 226.665 263.612 226.758 263.474C228.272 264.359 229.807 265.262 231.243 266.11C231.663 265.925 232.087 265.893 232.159 265.698C233.027 263.566 234.582 263.174 237.141 264.048C238.547 264.53 240.126 264.292 241.635 264.288C243.028 264.306 243.353 263.485 243.087 262.294C242.998 261.91 242.929 261.526 242.841 261.141C243.032 261.059 243.224 260.995 243.434 260.912C244.133 261.685 244.851 262.457 245.669 263.342C246.385 262.664 247.081 261.987 247.721 261.37C248.964 261.528 250.148 261.668 251.719 261.855C251.109 260.79 250.707 259.584 250.318 259.518C247.872 259.201 247.281 256.782 245.381 255.928C247.573 256.851 249.84 257.676 251.81 258.915C254.134 260.395 255.719 259.673 257.684 258.709C257.067 257.432 256.492 256.249 255.73 254.647C257.557 255.62 259.011 256.41 260.425 257.162C262.905 255.97 264.406 254.343 263.661 251.29C265.708 251.174 267.601 251.082 269.435 250.972C270.012 252.212 270.444 253.127 271.02 254.348C272.646 252.349 270.053 251.611 269.603 250.097C272.103 250.258 274.346 252.262 276.91 251.3C275.968 250.805 275.319 250.456 274.593 250.071C275.128 249.167 275.552 248.459 276.013 247.653C276.399 248.319 276.685 248.832 276.807 249.061C278.507 248.974 279.917 248.914 281.443 248.832C281.534 248.636 281.697 248.245 281.898 247.834C283.262 248.201 284.677 248.972 285.506 247.518C286.353 246.045 287.221 244.609 288.069 243.135C288.633 243.254 289.431 243.425 290.249 243.614L290.247 243.537C290.247 243.537 290.248 243.576 290.287 243.594C290.609 243.372 290.928 242.996 291.258 243.044C291.549 243.094 291.855 243.627 292.154 243.947C291.749 243.997 291.346 244.105 290.938 244.039C290.724 244.007 290.505 243.762 290.286 243.574C290.286 243.574 290.267 243.575 290.248 243.595C290.604 244.551 290.96 245.508 291.337 246.502C293.137 247.243 293.118 245.871 293.44 244.973C294.679 244.996 295.878 245 296.923 245.029C297.483 244.298 297.967 243.665 298.433 243.033C298.867 243.35 299.203 243.591 299.223 243.61C300.26 243.349 301.024 242.998 301.873 242.955C302.839 242.889 303.534 242.869 303.833 241.797C304.042 241.018 305.074 241.26 305.466 242.118C306.395 244.179 306.256 244.029 307.852 243.036C308.556 242.61 309.951 242.725 310.945 242.987C312.68 243.459 313.438 242.897 313.92 241.51C313.206 240.893 312.572 240.331 311.917 239.77C311.972 239.672 312.046 239.554 312.102 239.455C313.181 239.985 314.26 240.534 315.849 241.32C315.296 240.254 314.988 239.624 314.64 238.958C315.354 238.899 315.856 238.865 316.359 238.851C316.436 238.849 316.536 238.943 316.634 238.998C316.826 240.983 316.885 241.04 318.564 240.895C318.931 240.865 319.387 240.601 319.643 240.749C320.428 241.151 321.239 241.786 321.835 240.995C322.189 240.521 322.149 239.769 322.287 239.204C324.279 239.206 322.47 241.538 324.642 241.747C325.476 241.82 326.396 243.553 327.555 244.873C327.43 243.871 327.356 243.332 327.277 242.58C329.098 243.379 330.64 244.553 332.471 244.327C333.04 246.65 333.002 246.67 334.947 249.089C336.07 250.468 336.014 251.919 336.129 253.23C336.802 253.076 337.512 252.901 338.549 252.64C337.512 254.235 337.624 255.449 339.091 256.722C339.944 257.452 340.551 258.42 341.273 259.289C341.273 259.289 341.292 259.288 341.311 259.288C341.243 258.942 341.252 258.555 341.069 258.251C339.992 256.426 340.163 254.971 342.043 253.758C342.534 253.995 343.259 254.342 344.063 254.725C343.909 256.798 343.299 258.458 341.311 259.288C341.312 259.326 341.313 259.346 341.313 259.365L341.253 259.289C341.781 260.164 342.308 261.018 342.795 261.816C343.705 261.849 344.421 261.867 345.157 261.885C345.22 262.057 345.283 262.229 345.345 262.382C344.507 262.85 343.689 263.318 342.68 263.888C343.694 264.188 344.494 264.416 345.684 264.769C345.085 265.463 344.71 265.899 344.336 266.334C345.516 266.359 347.102 267.686 347.379 265.881C347.34 265.882 347.32 265.844 347.281 265.825C347.279 265.787 347.337 265.766 347.356 265.746C346.693 264.895 346.012 264.064 345.331 263.233C345.323 262.962 345.277 262.712 345.25 262.443C345.833 262.523 346.719 262.42 346.94 262.704C347.442 263.347 347.678 264.171 347.836 264.94C347.901 265.189 347.561 265.47 347.336 265.747L347.377 265.803C347.377 265.803 347.378 265.842 347.36 265.881C349.199 266.641 349.432 268.683 350.969 269.683C350.969 269.683 351.048 269.739 351.067 269.758L351.026 269.643C352.608 269.52 351.904 271.28 353.152 271.651C353.384 271.644 353.769 271.575 354.175 271.563C354.658 271.55 355.142 271.575 355.723 271.597C355.089 271.054 354.573 270.605 353.7 269.837C355.69 270.419 358.508 270.222 358.758 269.519C358.245 269.148 357.673 268.758 357.1 268.349C357.414 267.818 357.691 267.366 358.207 266.462C356.954 266.613 356.222 266.692 355.489 266.771C356.036 264.919 356.874 264.47 358.764 264.977C359.33 265.135 360.211 265.535 360.4 265.356C361.209 264.559 361.906 265.274 362.613 265.641C363.222 265.971 363.794 266.38 364.366 266.77C364.422 266.691 364.497 266.611 364.553 266.533C363.957 265.989 363.361 265.445 362.766 264.902C362.877 264.725 362.988 264.547 363.118 264.37L363.491 264.552ZM234.711 169.344C233.593 169.473 232.861 169.571 231.936 169.694C231.74 168.926 231.608 168.35 231.368 167.391C232.607 168.109 233.453 168.607 234.711 169.344ZM14.9442 22.3115C15.8508 23.5808 16.4558 24.4527 17.0803 25.3242C16.077 24.7341 14.1407 24.6539 14.9442 22.3115ZM9.84946 37.6301C9.68209 38.5434 10.5704 39.8519 8.80348 40.2887C9.18233 39.3308 9.48718 38.491 9.81135 37.6506C9.93071 36.4101 9.85131 34.982 12.5441 35.8139C11.0632 36.1073 11.8775 38.2104 9.83067 37.65L9.84946 37.6301ZM26.3944 19.6083C26.618 19.9885 26.767 20.4675 26.7007 20.856C26.6676 21.0502 26.1469 21.1037 25.5732 21.3326C25.4739 20.5623 25.3629 20.0629 25.3883 19.5982C25.3861 19.521 26.3132 19.4753 26.3745 19.5895L26.3944 19.6083ZM21.7034 25.3473C21.879 25.4003 21.9855 25.7452 22.2693 26.201C21.668 26.1408 21.2821 26.1711 20.9878 26.0248C20.831 25.952 20.7813 25.5668 20.6968 25.3179C21.0254 25.3086 21.3909 25.2402 21.7029 25.328L21.7034 25.3473ZM13.4274 37.625C14.7106 37.8592 15.3516 37.9569 16.2461 38.1248C16.0119 38.7306 15.8507 39.1798 15.5447 39.981C14.806 39.1709 14.3262 38.6239 13.4274 37.625ZM46.0529 16.4976C45.7292 18.0339 44.9921 17.9582 43.5686 17.5541C44.5239 17.1403 45.0783 16.9119 46.0529 16.4976ZM39.4719 22.4257C41.0173 22.3624 42.0024 22.3151 43.4319 22.2551C42.2668 23.448 41.3033 23.572 39.4719 22.4257ZM51.4882 17.1935C51.5109 16.6323 51.533 16.0518 51.575 15.49C51.8859 15.5392 52.1967 15.5883 52.507 15.6182C52.5622 16.1965 52.6168 16.7555 52.672 17.3338C52.2838 17.2869 51.8957 17.2399 51.5075 17.193L51.4882 17.1935ZM50.7093 21.7581C50.526 21.4347 50.3433 21.1307 50.16 20.8073C50.5067 20.7587 50.8325 20.6528 51.182 20.7009C51.2593 20.6987 51.3686 21.1402 51.4934 21.4459C51.1875 21.5706 50.939 21.6743 50.7099 21.7775L50.7093 21.7581ZM54.316 14.6196C55.1817 15.1362 55.6929 15.4309 56.4797 15.8918C55.9507 16.3321 55.6299 16.6118 55.0253 17.1122C54.7459 16.1344 54.5748 15.5593 54.316 14.6196ZM52.9196 21.27C54.3072 21.0953 55.0967 20.9761 56.1955 20.8482C55.8547 23.1388 54.6638 22.0709 52.9196 21.27ZM67.1041 24.2493C67.3637 23.8553 67.6238 23.4806 68.2561 22.5928C68.5216 23.7643 68.6352 24.3603 68.8351 25.2631C68.1858 24.8757 67.7529 24.6174 67.1041 24.2493ZM85.3659 25.0635C85.3395 24.813 85.2152 24.5266 85.3058 24.3114C85.3594 24.1552 85.6669 24.0885 86.3334 23.7216C86.3107 24.2828 86.3985 24.6476 86.2665 24.7673C86.0589 24.9472 85.6923 24.9769 85.3853 25.063L85.3659 25.0635ZM82.7042 44.9908C82.4646 44.0504 82.2918 43.4175 81.9457 42.1322C83.0141 42.9717 83.5679 43.4005 84.2795 43.9408C83.7671 44.284 83.3497 44.5665 82.7042 44.9908ZM90.7905 51.8354C90.7949 51.9899 90.7987 52.1251 90.8224 52.2791C90.3382 52.2542 89.8534 52.21 89.3692 52.1851C89.3648 52.0306 89.3609 51.8954 89.3372 51.7414C89.8214 51.7663 90.3062 51.8105 90.7905 51.8354ZM89.605 44.176C90.2869 45.0264 90.7479 45.5932 91.449 46.4431C90.3861 46.4733 89.2653 46.5052 88.1438 46.5177C88.061 46.3268 87.9782 46.1359 87.8954 45.9449C88.4587 45.349 89.0225 44.7724 89.605 44.176ZM80.4646 60.0542C79.31 60.2611 78.3863 60.4227 77.4625 60.5842C77.4625 60.5842 77.4851 60.6996 77.5056 60.7377C77.9605 61.092 78.416 61.4656 79.1282 62.0252C77.3354 62.2309 77.6574 61.3132 77.5056 60.7377C77.4465 60.7007 77.3869 60.6444 77.3471 60.6068C77.3858 60.6057 77.4244 60.6046 77.4824 60.603C77.9287 58.6187 77.9287 58.6187 80.4845 60.073L80.4646 60.0542ZM82.4665 54.9716C81.4555 55.4643 82.0495 57.303 79.72 56.3255C80.953 56.1551 80.1404 54.11 82.4665 54.9716ZM78.5505 64.1486C78.3015 64.233 78.0525 64.3174 77.8029 64.3825C77.5545 63.8097 77.3061 63.2368 77.0157 62.5492C78.5849 62.6399 78.3391 63.5167 78.5505 64.1486ZM84.3711 51.902C83.661 52.7727 83.4472 54.0932 81.5844 52.5225C82.5849 52.3394 82.4597 50.6613 84.3711 51.902ZM71.9962 68.2976C72.1603 66.5919 72.2935 65.1578 72.4267 63.7236L73.0655 63.744C73.5944 64.6568 74.1426 65.569 74.6925 66.5392C75.0906 66.2573 75.64 65.8551 76.2088 65.4523C75.0823 66.6441 74.6845 68.975 71.9956 68.2783L71.9962 68.2976ZM57.7506 99.1276C56.9346 97.6431 54.3091 97.8144 54.0432 95.2705C56.4047 96.0151 57.6353 97.1206 57.7506 99.1276ZM56.2723 93.4094C56.9725 92.8676 57.7991 92.6895 58.8381 93.8584L57.9639 95.7582C57.292 95.2554 56.6819 94.8861 56.2038 94.3972C56.0243 94.209 56.0641 93.57 56.2723 93.4094ZM57.9683 89.128C59.1151 89.3273 60.2426 89.5272 61.7201 89.7945C60.0321 90.9636 58.9842 90.1622 57.9876 89.1274C57.7469 88.825 57.3908 88.5452 57.3047 88.2384C57.1959 87.8162 57.2799 87.3692 57.3037 86.8467C58.3207 87.694 58.5488 88.4607 57.9882 89.1467L57.9683 89.128ZM53.0157 100.615C52.4123 99.8013 51.466 99.171 50.1563 98.0099C53.1213 98.892 54.7865 100.314 55.9823 102.232C56.4483 102.973 56.4902 103.764 54.8906 103.964C54.3192 102.917 53.8008 101.695 53.0157 100.615ZM52.445 105.019C53.5449 105.607 54.5658 106.138 56.0184 106.889C53.1836 107.183 52.4753 106.758 52.445 105.019ZM51.8859 109.153C53.2321 108.882 54.4671 111.495 55.5666 109.357C55.1546 110.509 54.7619 111.661 54.3157 112.969C52.4743 112.151 52.6986 110.521 51.8859 109.153ZM52.2008 114.092C53.3843 113.994 54.091 114.36 54.321 115.191C53.5944 114.806 53.0058 114.514 52.2008 114.092ZM96.0222 50.8168C96.1304 51.2196 96.1949 51.4497 96.2788 51.6793C95.8537 51.6914 95.428 51.6842 95.0023 51.677C94.9957 51.4452 94.8687 51.0622 94.983 51.001C95.2497 50.8581 95.618 50.8863 96.0415 50.8162L96.0222 50.8168ZM52.7632 118.212C53.7216 119.268 55.2869 119.9 54.2278 121.418C53.965 120.343 51.423 120.048 52.7632 118.212ZM82.3046 71.677C83.1262 72.0016 83.733 72.2549 84.4176 72.5254C83.6523 72.8178 82.948 72.535 82.3046 71.677ZM72.0562 106.356C71.5344 107.047 71.0131 107.758 70.4548 108.528C68.946 106.483 71.5123 106.951 72.0562 106.356ZM69.4847 109.097C69.6437 109.247 69.8215 109.377 69.9805 109.527C69.6331 110.233 69.2863 110.958 68.8114 111.938C67.8342 110.902 67.2351 110.243 66.2573 109.188C67.249 109.373 67.7961 109.57 68.2986 109.556C68.7238 109.543 69.1026 109.262 69.504 109.096L69.4847 109.097ZM71.5516 98.8317C70.8923 99.4497 70.4406 99.8878 69.9889 100.326C69.5037 98.9093 69.7356 98.2261 71.5516 98.8317ZM66.7226 104.478C68.0218 104.596 68.5093 105.413 68.1117 106.391C67.7687 107.251 67.1801 108.312 65.5585 107.063C65.9765 106.123 66.3222 105.359 66.7226 104.478ZM52.4229 127.984C54.6199 127.709 56.0703 128.382 57.6102 129.479C57.4098 129.91 57.2275 130.302 57.0453 130.694C55.6285 129.845 54.2521 129.053 52.4229 127.984ZM65.0991 121.476C64.2302 119.491 65.5465 119.531 66.4272 119.216C66.0583 119.845 65.6707 120.493 65.0991 121.476ZM65.637 112.531C66.876 113.249 68.1155 113.987 69.3744 114.725C68.6013 115.198 67.3555 114.466 65.637 112.531ZM77.4658 125.822C76.8816 126.36 76.3532 126.82 75.7497 127.359C74.8243 126.109 74.0404 125.069 73.1951 123.913C74.9316 123.767 76.1181 124.681 77.4658 125.822ZM82.0744 107.695C80.4388 108.669 82.5429 110.561 81.4777 111.867C80.0313 109.299 80.0816 109.027 82.0744 107.695ZM73.0668 112.629C73.482 112.945 73.8977 113.281 74.3129 113.598C74.124 113.758 73.8049 114.096 73.7458 114.059C73.3129 113.801 72.9552 113.463 72.5593 113.146C72.7283 112.967 72.8972 112.788 73.0668 112.629ZM71.1472 115.853C73.1482 116.164 72.3961 117.596 73.3341 118.613C71.6164 118.063 70.5381 117.552 71.1472 115.853ZM70.7262 120.079C71.8796 120.51 72.6421 120.798 73.6 121.157C73.8988 120.781 74.1788 120.425 74.5338 119.99C75.9732 121.631 74.066 121.898 74.1045 123.25C72.8905 122.047 71.0203 122.255 70.7069 120.08L70.7262 120.079ZM63.2193 139.661C63.2927 139.523 63.3855 139.386 63.459 139.248C63.9509 139.543 64.4804 139.799 64.9155 140.135C65.0342 140.228 64.9287 140.598 64.8878 141.198C64.1728 140.542 63.6963 140.111 63.2193 139.661ZM66.9381 139.169C68.3506 137.833 69.3865 136.857 70.4412 135.86C71.0976 136.499 71.5945 136.968 72.1113 137.456C71.897 138.08 71.6634 138.706 71.4127 139.409C70.1538 139.348 68.875 139.268 66.9381 139.169ZM77.7875 128.963C77.9284 128.476 78.0697 128.008 78.2305 127.54C78.4066 127.612 78.6015 127.664 78.7776 127.737C78.6942 128.203 78.5915 128.67 78.5081 129.136C78.2745 129.085 78.0216 129.034 77.7875 128.963ZM80.1724 126.46C80.4869 125.729 81.1603 125.832 82.1928 126.77C81.4932 126.654 80.7942 126.558 80.1724 126.46ZM86.8927 119.31C86.6851 118.813 86.4974 118.335 86.2258 117.628C87.2899 118.319 87.5122 118.88 86.8927 119.31ZM85.6188 141.788C85.3318 140.54 85.026 139.311 84.6733 137.794C86.4607 139.432 86.7758 140.763 85.6188 141.788ZM80.0746 150.161C79.5932 148.879 80.9145 149.093 81.4827 148.671C81.7274 149.566 81.258 150.063 80.0746 150.161ZM79.7185 155.989C79.4221 155.766 79.1996 155.424 78.9395 155.122C79.2261 154.998 79.5845 154.678 79.7998 154.769C80.0935 154.896 80.2796 155.316 80.581 155.713C80.1597 155.861 79.8174 156.064 79.7185 155.989ZM108.209 118.723C108.366 118.815 108.7 118.98 108.682 119.019C108.559 119.467 108.398 119.916 108.236 120.346C107.981 120.237 107.708 120.129 107.453 120.001C107.692 119.569 107.951 119.156 108.209 118.723ZM95.1593 135.872C96.8291 135.419 97.9151 136.2 99.4374 136.678C97.6775 138.043 96.6191 136.875 95.1593 135.872ZM101.06 137.27C100.952 136.229 100.871 135.401 100.788 134.533C102.253 134.356 103.39 134.208 105.24 133.981C103.632 135.245 102.46 136.187 101.06 137.27ZM106.571 132.494C107.609 133.643 107.608 134.262 106.482 134.796C106.317 134.453 106.097 134.189 106.111 133.995C106.176 133.568 106.339 133.177 106.571 132.494ZM95.7119 152.538C95.7794 150.835 96.7555 151.155 97.9183 151.915C97.2662 152.107 96.6136 152.28 95.7119 152.538ZM126.208 113.031C126.043 114.021 125.859 115.032 125.694 116.022C125.499 115.97 125.285 115.918 125.09 115.865C125.217 114.915 125.345 113.964 125.453 113.014C125.704 113.006 125.957 113.038 126.189 113.051L126.208 113.031ZM114.959 128.215C113.954 128.92 113.328 129.344 112.702 129.768C112.51 128.459 112.756 127.621 114.959 128.215ZM109.463 134.209C109.486 131.638 111.992 133.383 113.249 132.014C112.72 134.484 110.565 133.501 109.463 134.209ZM107.601 141.491C107.874 141.561 108.147 141.65 108.439 141.719C108.382 142.436 108.306 143.153 108.187 144.393C106.713 142.889 106.788 142.133 107.601 141.491ZM102.479 151.089C102.479 151.089 102.57 150.913 102.626 150.834C103.508 151.253 104.371 151.673 105.234 152.093C105.161 152.25 105.089 152.407 104.996 152.564C104.15 152.066 103.305 151.568 102.479 151.089ZM124.933 124.607C124.86 124.763 124.787 124.92 124.713 125.058C124.185 124.821 123.636 124.566 123.107 124.33C123.197 124.115 123.288 123.9 123.378 123.684C123.89 123.999 124.421 124.293 124.933 124.607ZM114.913 138.809C114.68 138.777 114.458 138.455 114.062 138.137C114.997 137.686 115.705 137.433 116.458 138.746C115.859 138.763 115.398 138.873 114.912 138.79L114.913 138.809ZM110.434 149.259C110.778 148.456 111.104 147.674 111.503 146.735C112.24 148.163 111.249 148.675 110.434 149.259ZM134.418 116.74C133.865 116.35 133.292 115.941 132.74 115.551C132.851 115.393 132.982 115.235 133.094 115.077C133.646 115.467 134.218 115.857 134.771 116.247C134.64 116.406 134.529 116.563 134.398 116.722L134.418 116.74ZM134.189 120.246C134.385 120.337 134.561 120.428 134.757 120.5C134.577 120.969 134.397 121.457 134.217 121.926C133.943 121.799 133.688 121.671 133.413 121.543C133.672 121.111 133.93 120.659 134.188 120.226L134.189 120.246ZM132.455 122.518C132.595 122.669 132.89 122.873 132.853 122.932C132.688 123.246 132.445 123.523 132.241 123.819C132.024 123.671 131.826 123.522 131.609 123.373C131.891 123.094 132.173 122.796 132.455 122.518ZM129.004 129.014C128.995 128.705 128.907 128.321 129.016 128.086C129.09 127.949 129.688 127.893 129.787 127.987C130.007 128.232 130.075 128.597 130.303 129.112C129.702 129.072 129.353 129.043 129.004 129.014ZM167.936 105.214C168.02 105.443 168.104 105.692 168.188 105.922C167.552 105.998 166.935 106.073 166.299 106.149C166.236 105.977 166.173 105.786 166.09 105.614C166.706 105.481 167.301 105.348 167.917 105.234L167.936 105.214ZM163.89 109.175C163.576 109.668 163.262 110.198 162.768 110.502C161.154 111.573 159.736 110.009 158.218 109.665C158.232 109.491 158.246 109.297 158.26 109.104C159.368 109.304 160.458 109.524 161.721 109.759C161.721 109.759 161.894 109.696 162.026 109.596C162.461 109.235 162.895 108.875 163.33 108.515C163.53 108.741 163.946 109.077 163.909 109.156L163.89 109.175ZM150.84 124.256C150.215 123.153 150.03 122.095 150.285 121.083C151.171 120.961 152.076 120.819 153.001 120.696C153.102 120.848 153.184 121 153.285 121.152C152.695 121.478 151.947 121.712 151.554 122.187C151.161 122.643 151.124 123.379 150.859 124.256L150.84 124.256ZM145.577 130.959C145.324 130.908 144.918 130.939 144.838 130.825C144.676 130.579 144.608 130.233 144.639 129.961C144.637 129.884 145.141 129.908 145.603 129.856C145.597 130.301 145.587 130.63 145.577 130.959ZM163.64 103.77C164.68 104.321 165.146 105.061 164.491 105.814C164.21 106.151 163.377 106.078 162.8 106.21C162.699 106.039 162.596 105.849 162.495 105.678C162.864 105.068 163.214 104.459 163.62 103.752L163.64 103.77ZM160.109 105.436C160.229 105.588 160.33 105.72 160.45 105.871C160.012 106.116 159.594 106.379 159.156 106.623C159.056 106.491 158.956 106.378 158.856 106.245C159.274 105.982 159.691 105.7 160.109 105.436ZM157.399 110.095C157.462 110.286 157.507 110.497 157.551 110.689C156.914 110.746 156.258 110.804 155.622 110.86C155.558 110.65 155.494 110.439 155.43 110.228C156.086 110.19 156.742 110.133 157.399 110.095ZM144.107 116.716C144.647 117.339 145.187 117.981 145.847 118.735C145.175 118.909 144.733 119.018 143.869 119.236C144.044 118.593 144.267 118.258 144.181 117.951C144.113 117.624 143.756 117.306 143.515 116.984C143.706 116.902 143.896 116.799 144.087 116.717L144.107 116.716ZM142.058 120.138C141.774 120.358 141.662 120.516 141.527 120.539C139.713 120.668 140.297 119.453 139.734 118C140.885 119.05 141.461 119.575 142.058 120.138ZM136.122 125.642C135.74 126.503 135.45 127.188 135.015 128.205C134.6 127.193 134.288 126.428 133.851 125.358C134.763 125.468 135.384 125.547 136.123 125.661L136.122 125.642ZM133.833 130.153C135.043 130.067 135.971 130.517 136.618 131.504C135.598 131.011 134.833 130.627 133.833 130.153ZM124.944 147.396C125.746 147.702 126.352 147.936 127.174 148.26C126.219 148.687 125.476 148.399 124.944 147.396ZM132.265 141.64C131.147 140.396 133.61 139.959 132.517 138.25C134.149 139.209 134.956 139.689 135.506 140.002C134.515 140.513 133.466 141.026 132.265 141.64ZM147.472 118.051C148.048 117.242 148.625 116.433 149.22 115.624C149.299 115.679 149.358 115.716 149.437 115.772C148.939 116.617 148.442 117.482 147.924 118.328C147.767 118.236 147.628 118.124 147.471 118.032L147.472 118.051ZM153.564 107.188C154.755 106.903 155.946 106.637 157.464 106.266C156.709 108.278 154.982 107.399 153.564 107.188ZM138.247 138.455C139.275 138.561 140.071 138.654 141.623 138.823C140.175 139.585 139.05 139.463 138.247 138.455ZM141.398 137.708C143.317 137.866 141.644 134.821 144.657 135.334C143.691 136.734 143.5 138.17 141.398 137.708ZM140.035 143.488C141.369 143.488 142.851 144.586 143.921 143.454C142.524 145.33 141.247 145.289 140.035 143.488ZM145.588 144.238C145.353 144.129 145.098 144.02 144.863 143.911C144.911 142.904 144.979 141.897 145.067 140.213C146.002 141.114 147.007 141.781 146.938 142.073C146.729 142.872 146.07 143.528 145.588 144.238ZM152.965 133.668C151.217 134.104 150.399 135.248 149.882 136.79C149.526 137.883 149.078 137.779 148.14 136.743C149.246 134.856 150.187 133.263 151.276 131.415C152.187 132.163 152.762 132.649 153.317 133.116C153.132 133.431 153.1 133.664 152.965 133.687L152.965 133.668ZM163.96 115.688C163.703 115.482 163.633 115.059 163.244 114.316C164.21 114.965 164.742 115.317 165.295 115.688C165.24 115.825 165.186 115.962 165.132 116.099C164.742 115.975 164.276 115.93 163.96 115.688ZM164.755 113.713C165.512 113.15 165.986 112.788 166.441 112.466C166.717 112.671 167.011 112.817 166.994 112.895C166.924 113.825 166.615 114.51 164.755 113.713ZM171.753 105.453C171.669 105.224 171.585 104.994 171.501 104.764C172.042 104.73 172.562 104.676 173.103 104.642C173.164 104.736 173.206 104.851 173.267 104.966C172.769 105.134 172.251 105.304 171.753 105.472L171.753 105.453ZM179.729 107.758C179.027 108.223 178.324 108.668 177.621 109.133C177.461 108.944 177.302 108.775 177.142 108.586C177.825 108.122 178.488 107.658 179.171 107.175C179.35 107.363 179.55 107.57 179.729 107.758ZM180.612 104.119C179.524 105.329 178.882 105.192 177.554 104.07C178.773 104.094 179.412 104.095 180.612 104.119ZM172.166 111.801C171.896 112.524 171.626 113.227 171.357 113.95C171.063 113.823 170.789 113.696 170.495 113.569C170.784 112.845 171.053 112.122 171.322 111.38C171.597 111.508 171.872 111.655 172.146 111.782L172.166 111.801ZM160.388 134.23C158.533 132.233 159.449 131.144 160.518 129.954C161.305 130.415 162.013 130.839 162.878 131.337C161.998 132.347 161.25 133.239 160.388 134.23ZM164.604 130.128C164.56 129.955 164.536 129.801 164.493 129.628C165.149 129.571 165.786 129.534 166.442 129.476C166.487 129.688 166.531 129.899 166.576 130.11C165.919 130.129 165.261 130.109 164.603 130.108L164.604 130.128ZM175.353 113.682C175.521 112.337 176.051 111.478 176.943 111.104C177.415 112.74 176.885 113.6 175.353 113.682ZM182.926 116.115C182.802 116.505 183.382 117.165 183.731 117.889C181.746 117.443 182.227 115.999 181.579 114.974C182.949 114.877 183.209 115.159 182.926 116.115ZM178.662 112.389C178.643 111.733 180.722 111.384 181.969 111.696C181.969 111.696 182.006 111.656 182.025 111.636C182.064 111.635 182.084 111.673 182.123 111.692C182.835 111.536 183.546 111.381 184.218 111.226C184.901 112.096 184.821 112.697 183.852 112.609C183.289 112.567 182.694 112.023 182.103 111.673C182.103 111.673 182.065 111.674 182.045 111.674C182.026 111.675 181.988 111.676 181.949 111.677C181.346 112.236 180.744 112.833 180.048 113.51C179.473 113.043 179.037 112.669 178.641 112.351L178.662 112.389ZM169.216 129.088C169.536 128.77 169.72 128.436 169.856 128.471C170.479 128.627 171.106 128.88 171.731 129.113C171.68 129.347 171.647 129.56 171.596 129.794C170.874 129.582 170.152 129.371 169.236 129.107L169.216 129.088ZM174.273 127.379C174.267 127.147 174.222 126.935 174.196 126.704C175.412 126.612 176.609 126.539 178.076 126.439C177.523 128.079 179.147 128.052 180.244 128.523C178.053 129.03 176.14 128.389 174.273 127.379ZM196.333 104.696C196.681 104.029 195.344 102.559 197.882 102.738C197.52 103.58 197.211 104.284 196.902 104.97C196.706 104.879 196.529 104.787 196.333 104.696ZM191.391 119.276C192.072 120.107 192.612 120.729 193.394 121.674C192.564 121.755 191.837 122.008 191.579 121.803C190.826 121.148 190.725 120.339 191.391 119.276ZM187.583 127.483C188.652 126.312 189.242 127.32 189.905 127.514C189.871 127.689 189.857 127.882 189.824 128.057C189.142 127.883 188.46 127.71 187.563 127.464L187.583 127.483ZM217.089 121.096C216.869 121.528 216.689 121.997 216.411 122.391C216.374 122.45 215.922 122.231 215.649 122.142L216.052 120.662C216.385 120.807 216.737 120.952 217.089 121.077L217.089 121.096ZM209.982 129.61C211.669 129.756 212.373 130.006 212.205 131.577C211.451 130.902 210.935 130.453 209.982 129.61ZM210.635 134.192C212.538 133.094 213.605 134.552 215.16 134.837C213.468 136.547 212.294 135.401 210.635 134.192ZM221.524 124.024C222.584 123.182 223.435 122.501 224.304 121.8C224.132 123.216 223.702 124.407 221.524 124.024ZM220.909 152.65C221.203 152.777 221.37 153.197 221.772 153.746C221.115 153.765 220.713 153.892 220.418 153.746C220.183 153.637 219.935 153.083 220.046 152.906C220.157 152.71 220.694 152.54 220.929 152.649L220.909 152.65ZM215.702 158.597C215.296 158.589 214.83 157.868 214.394 157.474C214.504 157.258 214.613 157.023 214.723 156.808C215.54 156.978 216.357 157.148 217.174 157.318C217.218 157.51 217.262 157.682 217.286 157.856C216.752 158.122 216.244 158.601 215.682 158.578L215.702 158.597ZM205.522 181.425C204.65 180.019 203.84 178.747 202.948 177.303C203.229 176.986 203.642 176.549 204.036 176.112C203.841 178.07 206.49 179.406 205.983 181.315C205.985 181.373 205.81 181.358 205.541 181.424L205.522 181.425ZM217.997 157.004C218.223 156.109 218.414 155.349 218.641 154.473C219.105 154.499 219.686 154.521 220.597 154.572C220.492 155.638 220.401 156.511 220.276 157.558C219.399 157.351 218.718 157.196 217.997 157.004ZM218.056 165.856C218.213 165.928 218.369 165.982 218.545 166.054C218.335 166.833 218.126 167.632 217.916 168.411C217.721 168.359 217.507 168.307 217.312 168.235C217.302 167.887 217.175 167.504 217.282 167.211C217.462 166.723 217.798 166.288 218.055 165.836L218.056 165.856ZM211.105 179.139C211.067 177.813 212.191 177.227 214.478 177.381C213.067 178.117 212.096 178.628 211.105 179.139ZM199.232 228.748C198.029 229.304 197.303 229.615 196.31 230.069C196.285 229.18 196.248 228.582 196.206 227.771C197.202 228.091 197.943 228.321 199.231 228.729L199.232 228.748ZM213.359 203.953C213.08 204.347 212.802 204.742 212.543 205.155C212.386 205.082 212.21 205.01 212.053 204.937C212.253 204.487 212.433 204.037 212.633 203.587C212.869 203.715 213.124 203.843 213.359 203.953ZM198.539 224.129C198.09 223.311 197.742 222.644 197.151 221.559C198.516 221.965 199.296 222.194 200.135 222.441C199.666 222.937 199.233 223.375 198.558 224.109L198.539 224.129ZM227.152 172.169C227.152 172.169 227.272 172.301 227.351 172.357C227.032 172.694 226.712 173.013 226.374 173.351C226.234 173.219 226.115 173.088 225.976 172.956C226.374 172.694 226.754 172.432 227.152 172.169ZM201.463 217.474C201.383 218.037 201.303 218.638 201.204 219.24C200.953 219.247 200.72 219.234 200.469 219.222C200.2 218.631 199.932 218.039 199.562 217.257C200.221 217.335 200.726 217.398 201.463 217.474ZM237.243 146.212C237.74 146.681 238.237 147.15 238.734 147.62C238.602 147.739 238.451 147.86 238.319 147.979C237.84 147.49 237.344 147.021 236.866 146.552C236.998 146.451 237.111 146.332 237.244 146.231L237.243 146.212ZM231.382 156.353C231.529 156.098 231.785 155.588 231.825 155.606C232.374 155.861 232.905 156.194 233.436 156.507C233.308 156.743 233.179 156.978 233.031 157.215C232.481 156.921 231.912 156.647 231.362 156.354L231.382 156.353ZM200.623 207.659C200.537 208.067 200.419 208.65 200.229 209.448C198.585 208.103 200.283 207.978 200.623 207.659ZM194.969 212.865C198.122 213.587 198.736 214.091 199.081 215.995C197.12 215.742 196.685 214.034 194.969 212.865ZM195.117 218.737C195.771 217.945 196.332 217.272 197.06 216.362C197.509 217.161 197.855 217.789 198.325 218.665C197.166 218.698 196.277 218.723 195.117 218.737ZM236.008 153.09C236.044 152.992 236.099 152.875 236.154 152.777C237.216 153.404 238.298 154.03 239.773 154.897C239.005 155.112 238.339 155.479 238.161 155.329C237.368 154.656 236.706 153.843 236.007 153.071L236.008 153.09ZM194.667 226.037C195.309 225.477 196.189 225.124 195.614 223.98C196.061 224.026 196.507 224.09 197.341 224.182C196.394 225.562 195.763 226.469 194.927 227.672C194.788 226.884 194.479 226.216 194.687 226.036L194.667 226.037ZM193.949 229.343C195.492 230.556 196.74 231.564 198.481 232.945C195.1 232.384 194.882 232.197 193.949 229.343ZM223.576 196.645C223.039 196.139 222.641 195.744 222.144 195.275C223.526 194.888 224.055 195.143 223.576 196.645ZM199.75 234.049C199.953 235.068 200.109 235.759 200.312 236.778C199.45 235.965 199.263 235.055 199.75 234.049ZM220.107 197.073C220.216 196.857 220.307 196.642 220.417 196.426C221.475 196.918 222.533 197.39 223.611 197.881C223.539 198.057 223.466 198.233 223.413 198.409C222.317 197.957 221.222 197.524 220.107 197.073ZM220.07 205.965C220.093 205.404 220.134 204.823 220.167 203.952C221.608 204.974 220.947 205.534 220.712 206.102C220.498 206.05 220.284 206.017 220.07 205.965ZM221.202 218.536C221.496 219.339 221.77 220.143 222.064 220.947L221.391 221.082C221.02 220.3 220.669 219.518 220.299 218.736C220.606 218.669 220.914 218.602 221.221 218.535L221.202 218.536ZM209.053 231.33C210.646 232.232 209.937 232.464 208.807 232.883C208.904 232.204 208.97 231.796 209.053 231.33ZM209.121 233.705C209.277 234.416 209.452 235.146 209.63 235.972C208.533 235.488 208.364 234.732 209.121 233.705ZM211.407 231.804C212.986 231.547 214.372 231.333 216.47 230.984C215.374 231.885 214.675 232.465 213.976 233.045C213.332 232.155 211.571 233.481 211.407 231.804ZM203.358 252.716C203.653 252.224 203.949 251.732 204.427 250.888C204.718 251.595 204.96 251.936 204.969 252.245C204.999 253.288 204.525 253.63 203.358 252.716ZM231.311 239.356C230.347 238.785 229.639 238.36 228.577 237.752C230.284 237.221 231.123 237.487 231.311 239.356ZM225.559 240.428C225.524 240.545 225.488 240.662 225.452 240.76C224.355 240.269 223.24 239.799 222.142 239.308C222.252 239.073 222.361 238.838 222.49 238.602C223.513 239.211 224.555 239.819 225.578 240.409L225.559 240.428ZM229.87 219.333C230.128 219.539 230.253 219.864 230.596 220.376C229.979 220.432 229.651 220.461 229.323 220.489C229.275 220.162 229.168 219.798 229.217 219.487C229.233 219.371 229.771 219.259 229.87 219.333ZM218.362 234.931C219.343 236.101 219.864 236.725 220.525 237.518C218.532 237.478 218.372 237.308 218.362 234.931ZM220.085 243.136C219.18 242.601 218.315 242.104 217.253 241.477C218.753 241.183 220.042 240.933 221.561 240.639C221.045 241.504 220.621 242.251 220.085 243.136ZM224.425 241.35C226.014 242.136 227.367 242.793 228.702 243.47C228.669 243.665 228.635 243.84 228.602 244.034C227.574 243.947 226.527 243.861 225.286 243.742C225.033 244.348 224.742 245.013 224.416 245.777C222.817 243.966 223.457 242.692 224.425 241.35ZM220.498 258.974C220.004 258.602 219.53 258.248 219.036 257.875C219.205 257.697 219.524 257.359 219.544 257.378C220.037 257.712 220.473 258.086 220.948 258.478C220.799 258.656 220.649 258.815 220.499 258.993L220.498 258.974ZM233.69 244.102C233.029 243.966 232.523 243.845 231.569 243.64C232.612 242.895 233.182 242.57 233.69 244.102ZM224.344 258.188C224.453 257.953 224.563 257.737 224.673 257.522C225.261 257.776 225.867 258.01 226.454 258.264C226.401 258.439 226.368 258.614 226.315 258.789C225.652 258.596 225.008 258.401 224.345 258.208L224.344 258.188ZM253.8 224.239C253.703 225.614 252.054 225.41 251.32 226.803C250.818 224.15 253.266 225.182 253.8 224.239ZM234.293 257.113C235.07 256.549 235.442 256.017 235.981 255.944C237.407 255.748 237.414 256.676 237.331 257.819C236.377 257.595 235.598 257.404 234.293 257.113ZM257.946 224.488C257.708 224.302 257.559 223.803 257.649 223.569C257.721 223.393 258.375 223.258 258.533 223.37C258.79 223.594 258.86 223.998 259.108 224.552C258.585 224.528 258.143 224.637 257.946 224.488ZM252.033 251.834C251.972 252.396 251.91 252.939 251.853 253.637C251.242 253.035 251.303 252.434 252.033 251.834ZM256.632 249.635C256.729 248.975 256.846 248.314 256.976 247.46C257.373 247.816 257.747 248.037 257.731 248.154C257.65 248.717 257.453 249.263 257.314 249.809C257.099 249.757 256.866 249.705 256.651 249.634L256.632 249.635ZM259.122 254.88C259.039 254.708 258.976 254.536 258.894 254.364C259.778 254.146 260.661 253.927 261.545 253.709C261.629 253.958 261.714 254.226 261.798 254.475C260.893 254.617 260.007 254.738 259.102 254.88L259.122 254.88ZM277.025 227.541C277.381 226.429 277.558 225.863 277.788 225.122C279.416 226.584 278.515 226.861 277.025 227.541ZM276.144 241.406C277.238 241.104 277.833 240.933 278.715 240.676C278.509 242.247 277.812 242.228 276.144 241.406ZM292.218 222.47C291.994 223.404 291.875 223.987 291.651 224.941C289.961 223.326 291.33 223.191 292.218 222.47ZM299.294 224.395C298.994 223.359 298.844 222.861 298.608 222.056C299.402 222.072 300.098 222.071 301.53 222.089C300.628 223.023 300.121 223.54 299.294 224.395ZM302.146 228.759C302.238 228.602 302.33 228.445 302.422 228.287C303.091 228.674 303.759 229.061 304.429 229.468C304.319 229.683 304.208 229.88 304.098 230.095C303.447 229.65 302.797 229.205 302.165 228.759L302.146 228.759ZM312.422 229.646C312.264 229.554 312.088 229.462 311.931 229.389C312.073 228.96 312.235 228.53 312.378 228.12C312.634 228.287 312.89 228.454 313.147 228.62C312.905 228.975 312.663 229.311 312.422 229.665L312.422 229.646ZM314.775 236.229C313.859 233.935 315.59 234.272 316.035 233.583C316.253 233.77 316.47 233.938 316.708 234.125C316.144 234.721 315.601 235.335 314.775 236.229ZM326.249 235.013C327.207 234.689 327.92 235.069 328.389 236.151C327.407 235.618 326.897 235.362 326.249 235.013ZM327.257 240.532C327.808 240.188 328.258 239.672 328.628 239.758C329.6 239.963 329.892 240.689 329.558 241.878C328.772 241.417 328.162 241.067 327.257 240.532ZM331.407 242.289C331.229 242.12 331.181 241.812 331.097 241.563C331.329 241.557 331.634 241.413 331.772 241.525C331.97 241.654 332.036 241.962 332.261 242.381C331.854 242.334 331.527 242.401 331.407 242.289ZM347.17 249.727C346.462 248.645 345.411 247.747 346.751 246.588C347.546 247.319 348.281 247.994 349.234 248.876C348.412 249.208 347.858 249.437 347.17 249.727ZM352.156 242.143C351.392 241.798 350.928 241.115 351.51 240.519C351.774 240.26 352.681 240.215 353.017 240.437C353.391 240.697 353.45 241.391 353.741 242.117C353.046 242.137 352.547 242.287 352.175 242.123L352.156 242.143ZM345.968 261.185C345.654 261.02 345.56 260.443 345.375 260.042C345.818 259.971 346.333 259.725 346.685 259.869C347.038 260.014 347.209 260.589 347.632 261.196C346.878 261.217 346.322 261.368 345.968 261.166L345.968 261.185ZM355.964 250.888C355.745 250.643 355.618 250.279 355.571 249.971C355.568 249.894 356.163 249.703 356.262 249.797C356.539 250.021 356.704 250.384 356.967 250.782C356.486 250.854 356.064 251.001 355.964 250.888ZM363.385 252.03C363.385 252.03 363.663 252.273 363.821 252.404C363.482 252.723 363.124 253.062 362.785 253.381C362.625 253.192 362.484 253.003 362.324 252.814C362.665 252.553 363.025 252.272 363.385 252.03ZM352.079 263.872C352.647 264.107 353.195 264.343 353.821 264.596C353.058 265.622 352.447 265.215 351.945 264.572C351.825 264.44 352.028 264.105 352.079 263.872ZM350.622 268.379C351.033 267.884 351.351 267.507 351.819 266.953C352.418 268.269 352.752 269.13 350.622 268.379ZM363.543 258.25C363.611 257.223 363.666 256.468 363.768 255.286C361.743 255.498 360.065 255.662 357.963 255.876C358.799 254.673 359.487 253.706 360.212 252.681C361.218 253.367 362.018 254.272 362.794 254.347C365.82 254.667 366.249 256.82 367.359 259.127C365.879 258.782 364.711 258.506 363.562 258.23L363.543 258.25ZM363.851 262.938C364.421 262.574 364.972 262.229 365.978 261.563C366.039 263.707 364.843 263.142 363.851 262.938Z" fill="#FF5C4D"/>
<path fill-rule="evenodd" clip-rule="evenodd" d="M1.39681 32.7541C2.46839 34.3859 1.99513 35.4238 0.747218 36.4258C1.52958 36.7322 2.09661 36.948 2.64431 37.1644C2.70514 35.9062 2.74665 34.6486 2.80748 33.3905C2.83016 32.8293 2.69494 32.1566 2.9738 31.7621C3.25211 31.3483 3.94504 31.2319 4.42155 30.9864C4.09088 30.242 3.82204 29.6311 3.55374 29.0395C2.76528 29.1972 1.97681 29.355 1.57264 29.4244C1.45934 30.8774 0.931412 32.0328 1.39626 32.7348L1.39681 32.7541Z" fill="#FF5C4D"/>
<path fill-rule="evenodd" clip-rule="evenodd" d="M3.5618 29.0406L3.5 28.944L3.54215 29.0412L3.5618 29.0406Z" fill="#FF5C4D"/>
<path fill-rule="evenodd" clip-rule="evenodd" d="M101.268 47.9263C101.835 48.1421 102.226 48.2856 102.637 48.4479C103.028 48.5914 103.418 48.7156 104.083 48.9673C104.756 46.7833 102.733 46.3963 101.528 44.8069C101.414 46.2598 101.342 47.1317 101.268 47.9263Z" fill="#FF5C4D"/>
<path fill-rule="evenodd" clip-rule="evenodd" d="M65.7694 66.8557C66.9528 66.2998 67.8114 65.8886 68.7656 65.4359C67.6451 64.5781 66.6464 65.0514 65.7694 66.8557Z" fill="#FF5C4D"/>
<path fill-rule="evenodd" clip-rule="evenodd" d="M103.418 57.8587C101.834 57.2658 100.603 56.8176 99.3906 56.3495C100.387 57.3843 101.113 59.084 103.418 57.8587Z" fill="#FF5C4D"/>
<path fill-rule="evenodd" clip-rule="evenodd" d="M105.677 41.1134C105.45 40.5976 105.398 40.1542 105.141 39.9681C104.944 39.819 104.23 39.878 104.214 39.9945C104.146 40.3446 104.293 40.7466 104.343 41.132C104.71 41.1215 105.097 41.1105 105.678 41.1327L105.677 41.1134Z" fill="#FF5C4D"/>
<path fill-rule="evenodd" clip-rule="evenodd" d="M3.06735 37.4804C2.94864 37.387 2.84926 37.2932 2.73055 37.1999L2.63281 37.1639L2.63447 37.2219C2.77195 37.2954 2.92931 37.3876 3.06735 37.4804Z" fill="#FF5C4D"/>
<path fill-rule="evenodd" clip-rule="evenodd" d="M5.37944 38.827C4.61252 38.3847 3.84505 37.923 3.07812 37.4806C3.75173 38.0417 4.42586 38.6221 5.09946 39.1832C5.19278 39.0645 5.28612 38.9457 5.37944 38.827Z" fill="#FF5C4D"/>
<path fill-rule="evenodd" clip-rule="evenodd" d="M18.8538 44.3767C19.6765 44.0632 20.2315 43.854 20.7858 43.6255C19.7036 42.9793 18.9273 42.8853 18.8538 44.3767Z" fill="#FF5C4D"/>
</svg>
