<svg width="350" height="357" viewBox="0 0 350 357" fill="none" xmlns="http://www.w3.org/2000/svg">
<path fill-rule="evenodd" clip-rule="evenodd" d="M265.631 114.806C267.658 113.413 268.525 112.231 268.797 110.046C268.859 109.44 269.654 108.345 269.842 108.427C272.416 109.201 269.254 105.825 272.127 106.59C272.502 106.754 273.572 107.272 274.659 107.767C273.887 105.962 273.191 104.33 272.062 101.719C274.465 103.009 275.896 103.752 277.749 104.734C277.187 103.029 276.843 101.942 276.276 100.198C277.906 101.141 278.922 101.724 280.892 102.875C279.673 101.212 279.122 100.466 278.588 99.697C280.359 95.8302 282.49 100.763 284.474 99.3349C283.961 98.3645 283.401 97.3186 282.991 96.5783C285.708 96.3388 288.126 96.108 290.803 95.8723C290.169 97.6118 289.632 99.1022 288.645 101.755C290.994 99.7517 292.308 98.6468 293.605 97.5636C295.467 98.8448 298.597 98.1063 298.941 101.711C297.953 101.626 297.145 101.543 296.218 101.471C296.764 103.418 297.218 105.034 297.665 106.57C296.434 107.087 295.646 107.422 294.225 108.038C295.478 109.437 296.551 110.614 297.645 111.809C297.015 112.129 296.311 112.496 295.796 112.765C295.703 116.191 298.153 114.199 299.536 114.646C297.016 117.165 294.587 119.576 291.866 122.294C290.002 121.413 288.015 120.503 286.025 119.554C283.983 123.307 289.45 122.125 289.368 124.831C287.889 125.252 286.391 125.695 284.854 126.142C286.175 128.254 287.222 131.052 287.203 131.474C285.591 132.188 283.977 132.462 283.065 133.388C281.899 134.579 280.878 135.196 279.392 134.298C278.97 134.059 278.758 133.52 278.439 133.11C279.23 131.756 279.949 130.488 280.689 129.238C280.342 128.951 280.016 128.682 279.669 128.396C277.759 130.177 275.936 132.03 274.504 135.045C278.603 132.735 279.375 136.839 281.7 137.516C279.435 138.932 277.378 140.227 275.322 141.523C276.121 142.766 276.524 143.427 277.653 145.198C274.598 143.99 272.792 143.303 270.34 142.338C271.723 141.107 272.534 140.39 273.457 139.582C273.025 138.824 272.592 138.066 271.963 136.927C270.645 137.992 269.55 139.096 268.242 139.84C265.908 141.163 265.242 139.008 264.288 137.6C263.127 138.43 262.038 139.174 260.482 140.262C259.058 137.919 257.805 135.9 257.166 134.862C258.118 132.472 259.006 131.088 259.165 129.614C259.366 127.736 259 125.792 258.866 123.966C260.519 123.688 261.859 123.48 263.57 123.177C261.102 119.315 263.435 116.314 265.685 114.74L265.631 114.806ZM290.209 116.876C290.443 115.354 290.686 113.912 290.906 112.452C288.665 113.132 288.432 114.607 290.209 116.876Z" fill="#FF5C4D"/>
<path fill-rule="evenodd" clip-rule="evenodd" d="M297.442 161.135C297.429 163.935 297.451 166.471 297.449 169.17C301.52 169.5 300.976 166.314 302.477 164.232C299.334 163.573 298.18 161.744 297.594 158.962C299.676 160.242 301.415 161.276 303.327 162.452C303.783 160.31 304.094 158.961 304.493 157.064C305.725 157.606 307.656 158.141 307.632 158.523C307.381 161.126 309.615 161.692 310.982 162.821C312.502 164.075 312.728 165.392 311.985 167.042C311.525 168.085 311 169.075 310.514 170.061C312.685 171.013 314.419 171.787 316.319 172.625C315.947 173.34 315.769 173.776 315.507 174.181C314.329 175.873 311.748 178.378 312.169 179.017C313.73 181.546 311.703 182.1 310.699 183.315C309.803 184.4 308.269 185.506 308.234 186.608C308.17 190.972 305.268 194.087 303.39 197.464C301.223 201.369 297.726 204.541 294.626 207.895C294.063 208.488 292.758 208.433 291.857 208.639C290.61 205.42 292.207 204.548 294.646 204.335C294.065 201.593 296.082 200.521 298.831 199.359C296.68 197.985 295.252 197.062 293.806 196.161C295.464 196.142 297.14 196.102 298.759 196.088C298.731 195.371 298.716 194.593 298.702 193.814C298.703 193.195 298.743 192.571 298.797 191.667C295.724 192.16 295.332 194.756 293.806 196.161C293.782 199.681 291.914 201.058 288.119 200.701C288.721 202.183 289.315 203.585 289.909 204.988C289.419 205.094 288.929 205.201 288.439 205.308C286.609 202.265 284.111 201.664 280.919 202.788C279.99 203.116 278.454 202.943 277.777 202.348C276.966 201.606 276.169 199.963 276.464 199.076C277.143 196.972 276.162 194.448 278.015 192.692C278.363 192.359 278.845 192.173 279.223 191.937C278.593 190.578 278.014 189.334 277.053 187.227C279.606 188.202 281.35 188.875 283.029 189.495C284.146 186.11 279.933 186.392 278.902 183.972C282.43 182.796 283.514 180.114 283.726 176.896C283.763 176.233 284.107 175.021 284.288 175.023C287.796 175.108 287.2 171.587 288.764 169.959C290.727 167.893 292.088 165.184 295.889 165.401L292.372 162.499C293.97 162.066 295.432 161.667 297.42 161.117L297.442 161.135ZM303.362 190.251C302.025 189.66 300.71 189.085 298.854 188.283C299.799 190.851 300.37 192.856 303.362 190.251ZM300.337 186.223C304.803 185.237 305.176 184.742 305.866 179.619C306.767 179.413 307.764 179.178 309.057 178.894C309.196 177.622 309.366 176.266 309.655 173.84C305.133 177.59 302.223 181.466 300.337 186.223ZM292.134 169.857L295.326 172.49C295.487 172.295 295.692 172.136 295.857 171.98C294.94 170.968 294.024 169.956 293.107 168.945C292.777 169.256 292.465 169.546 292.134 169.857Z" fill="#FF5C4D"/>
<path fill-rule="evenodd" clip-rule="evenodd" d="M111.258 82.8177C112.367 81.0328 113.319 79.4828 114.271 77.9328C115.843 78.6822 117.732 79.621 119.766 80.6061C120.962 79.5125 121.971 78.5567 123.001 77.6189C122.751 77.303 122.501 76.9871 122.272 76.6891C121.316 77.36 120.343 78.0526 119.2 78.8613C118.063 77.8505 116.923 76.8001 115.258 75.2802C117.749 72.8837 120.165 70.5343 122.218 68.5794C124.193 69.1503 125.348 69.5197 126.521 69.8674C126.675 69.5929 126.85 69.3363 127.004 69.0618C126.384 68.2216 125.764 67.3813 125.191 66.6166C126.88 67.1348 128.609 67.6493 130.382 68.1996C130.344 69.4824 130.285 70.7472 130.231 72.2715C133.666 70.5444 136.702 69.0352 140.101 67.3515C139.595 70.2181 139.257 72.1291 138.881 74.2637C138.084 74.2998 137.23 74.3614 136.394 74.4013C138.223 78.6838 134.034 81.1026 133.022 84.5371C134.867 86.0598 136.144 88.5363 139.083 87.2762C139.685 90.4368 136.552 89.4568 135.18 90.807C135.48 91.6378 135.83 92.5838 136.108 93.3967C133.081 97.7232 129.72 100.643 124.188 95.4943C124.168 97.3751 124.161 98.3551 124.158 99.1549C126.282 100.251 129.446 97.5706 130.485 101.749C128.764 102.153 127.255 102.477 125.379 102.936C126.905 105.728 127.078 107.331 126.055 108.348C124.979 109.43 120.591 110.189 119.219 109.64C118.406 109.298 117.478 109.007 116.613 108.95C114.082 108.832 111.54 108.814 109.056 108.772C109.028 108.275 108.937 107.104 108.886 106.15C107.139 107.336 105.619 108.38 103.631 109.769C102.816 107.309 101.669 105.56 101.973 104.131C102.177 103.133 104.424 102.578 105.751 101.812C101.9 99.1815 101.778 98.5335 104.388 91.9284C105.936 93.0597 107.484 94.1911 109.014 95.3442C109.211 95.1055 109.426 94.8451 109.623 94.6065L104.934 90.7369C107.009 90.4788 108.432 90.3029 110.054 90.1081C108.991 88.6106 108.16 87.4507 107.369 86.287C107.62 85.9833 107.849 85.6616 108.061 85.3615C110.18 86.1985 112.279 87.0175 115.5 88.2889C113.542 85.7975 112.291 84.218 111.2 82.8431L111.258 82.8177ZM120.755 107.295C119.517 105.434 118.864 104.457 117.677 102.712C117.192 105.377 117.273 106.648 120.755 107.295ZM132.385 87.2962C131.151 87.7739 129.895 88.2336 127.926 88.9812C130.659 90.5791 131.696 89.5007 132.385 87.2962Z" fill="#FF5C4D"/>
<path fill-rule="evenodd" clip-rule="evenodd" d="M192.803 134.672C194.831 135.178 196.084 135.518 198.379 136.099C196.663 133.624 195.437 131.882 194.21 130.141C194.35 129.927 194.468 129.696 194.607 129.483C196.483 130.483 198.341 131.505 200.194 132.487C200.381 132.35 200.608 132.208 200.795 132.07C199.658 130.22 198.525 128.41 196.989 125.938C201.047 126.55 201.685 124.01 202.275 121.396C203.852 121.785 205.368 122.16 207.743 122.732C206.162 120.625 203.316 120.357 204.281 117.686C206.558 118.288 208.674 118.866 212.02 119.766C209.698 117.449 208.243 116.029 206.827 114.605C206.955 114.273 207.105 113.959 207.233 113.627C209.258 114.093 211.261 114.541 213.224 114.994C213.879 112.432 209.215 112.598 211.018 109.488C213.299 110.129 214.368 113.785 217.902 112.248C216.861 110.988 215.955 109.876 215.39 109.19C218.02 105.741 221.359 105.102 225.547 105.602C224.549 107.296 223.74 108.673 222.95 110.027C224.337 107.377 228.822 109.946 229.346 106.219C231.478 107.394 231.08 109.511 230.535 110.922C229.395 113.849 227.959 116.825 226.034 119.287C224.284 121.493 223.043 123.57 223.41 126.573C222.173 126.611 220.959 126.667 219.863 126.712C217.488 131.796 222.025 133.021 224.613 135.193C219.921 137.999 218.624 143.06 215.389 146.887C212.891 146.066 212.405 143.914 211.714 141.701C212.989 141.439 213.911 141.251 215.835 140.868C213.8 139.883 212.67 139.351 211.286 138.684C209.339 141.748 207.602 144.512 205.619 147.62C203.559 146.357 201.35 145.009 199.163 143.679C198.216 144.649 197.286 145.597 195.915 146.947C194.635 145.271 193.648 143.946 192.571 142.51C193.676 141.305 194.473 140.429 195.341 139.467C194.567 138.062 193.84 136.732 192.742 134.658L192.803 134.672ZM216.321 137.583C216.439 137.352 216.596 137.117 216.714 136.886C216.063 136.349 215.465 135.746 214.746 135.335C214.576 135.232 213.995 135.847 212.723 136.768C214.603 137.188 215.462 137.386 216.339 137.562L216.321 137.583Z" fill="#FF5C4D"/>
<path fill-rule="evenodd" clip-rule="evenodd" d="M80.1752 235.53C78.7326 232.99 75.9757 232.394 77.388 229.8C78.5726 230.267 79.7137 230.698 80.8369 231.15L80.8104 230.873L80.8755 230.926C81.9943 232.798 83.1527 234.666 84.5509 236.951C87.5498 234.427 90.2184 232.213 93.1635 229.753C93.5028 232.259 93.4588 234.522 91.9491 236.305C90.0487 238.605 90.5663 240.674 91.8559 242.87C88.1382 241.846 89.6113 246.382 87.3332 247.239C88.7301 247.625 90.1269 248.012 91.4011 248.37C91.5735 246.614 91.7459 244.859 91.9004 243.125C92.4505 242.813 93.0186 242.479 93.565 242.127C94.5627 242.731 95.5425 243.357 96.963 244.201C95.791 244.913 95.0936 245.359 94.3566 245.809C95.9939 249.97 95.9901 249.93 92.085 251.343C91.0591 251.7 90.1721 252.465 89.0576 253.151C90.6019 254.242 91.6723 254.98 92.9164 255.86C90.6204 257.579 88.5831 259.072 86.5495 260.606C86.9299 261.029 87.4916 261.675 88.057 262.361C84.2782 262.721 82.0011 264.358 81.2258 267.27C82.0064 267.695 82.8088 268.138 83.6111 268.581C83.5583 268.866 83.5272 269.169 83.4744 269.454C81.7189 269.502 79.9455 269.571 77.9523 269.641C78.3324 268.386 78.521 267.848 78.6701 267.314C78.0132 267.137 77.124 266.622 76.7683 266.876C75.6613 267.642 74.7829 268.705 73.5731 269.86L69.2745 266.313C68.5847 266.838 68.2478 267.29 67.7797 267.415C66.6925 267.758 65.2392 268.457 64.5596 268.042C63.88 267.627 63.7211 265.963 63.7379 264.883C63.7856 262.659 64.0967 260.471 64.2888 258.294C63.3921 257.7 62.5567 257.12 60.9766 256.072C64.915 255.636 65.2061 253.03 65.5955 250.614C66.097 247.488 66.9383 244.57 69.2605 242.289C71.7517 239.893 73.2999 237.046 73.5616 233.504C73.5927 233.201 74.3666 232.927 74.7224 232.673C76.2618 233.506 77.6928 234.248 80.179 235.57L80.1752 235.53ZM83.4564 259.002C84.7301 256.842 85.5424 255.505 86.3152 254.172C84.7977 255.037 81.7567 254.607 83.4564 259.002Z" fill="#FF5C4D"/>
<path fill-rule="evenodd" clip-rule="evenodd" d="M93.7031 242.015C93.7031 242.015 93.6267 242.062 93.5683 242.088L93.5024 242.034L93.7031 242.015Z" fill="#FF5C4D"/>
<path fill-rule="evenodd" clip-rule="evenodd" d="M223.834 260.527C223.372 259.672 223.005 258.968 222.62 258.285C222.187 257.527 221.733 256.75 220.88 255.353C223.618 256.59 225.518 257.428 227.963 258.534C227.144 253.515 230.321 251.393 233.621 249.079L237.072 251.928C235.301 252.437 234.271 252.755 233.083 253.088C235.048 255.439 236.511 253.8 238.283 252.452C237.312 250.666 236.341 248.88 235.149 246.655C239.833 246.068 241.561 249.501 243.89 252.116C245.094 250.482 246.155 249.022 247.198 247.583C247.665 253.735 244.745 258.551 241.561 263.332C244.849 264.877 245.818 261.406 247.919 260.586C248.881 261.234 249.778 261.828 250.248 262.143C248.829 263.198 247.696 264.745 246.428 264.866C243.116 265.162 245.277 267.894 244.22 269.394L239.639 265.614C242.139 271.472 234.78 269.596 236.007 274.076C233.599 273.146 231.876 272.491 230.175 271.854C230.075 272.064 229.975 272.273 229.875 272.483C232.384 274.042 234.911 275.58 237.441 277.157C231.786 283.073 228.156 285.479 224.285 285.569C225.217 283.601 226.053 281.882 226.839 280.268C224.465 280.754 221.858 282.143 220.581 281.345C217.754 279.596 215.59 280.802 213.078 281.942C212.189 280.587 210.669 279.333 210.831 278.299C211.198 275.865 209.369 275.56 208.171 274.535C208.041 274.428 208.219 273.991 208.285 273.425C209.407 273.658 210.486 273.854 211.648 274.083C210.642 269.202 212.248 265.491 215.827 262.131C218.014 263.462 220.244 264.828 222.496 266.212C222.712 265.951 222.883 265.655 223.098 265.395C220.994 263.257 218.908 261.098 216.782 258.942C220.464 256.032 220.717 261.824 223.869 260.484L223.834 260.527ZM239.1 263.527C237.621 264.168 236.51 264.674 234.743 265.442C236.662 266.831 238.115 266.193 239.1 263.527ZM217.686 271.548C216.823 272.15 215.983 272.77 215.12 273.372C215.352 273.709 215.606 274.065 215.821 274.424C216.61 273.689 217.4 272.954 218.19 272.219C218.027 271.975 217.845 271.752 217.704 271.526L217.686 271.548Z" fill="#FF5C4D"/>
<path fill-rule="evenodd" clip-rule="evenodd" d="M137.72 144.91C136.871 143.552 136.159 142.381 134.906 140.362C137.423 141.38 138.756 141.933 140.482 142.627C140.105 141.184 139.91 140.403 139.778 139.856C141.107 139.53 142.378 139.228 143.588 138.913C143.297 136.702 140.274 136.251 141.135 133.751C143.118 134.621 144.808 135.359 146.499 136.097C146.696 135.858 146.871 135.601 147.047 135.345C145.558 133.788 144.052 132.253 142.52 130.66C143.335 129.983 144.003 129.439 144.484 129.033C146.69 129.722 146.34 133.593 149.488 132.213C148.415 130.817 147.41 129.514 145.953 127.654C147.683 127.549 148.555 127.466 149.571 127.428C148.877 126.235 148.281 125.233 148.045 124.856C149.608 123.627 150.873 122.627 152.195 121.601C153.433 122.003 154.816 122.45 156.177 122.88C156.291 122.609 156.445 122.335 156.559 122.064L152.868 119.019C154.213 118.231 155.406 118.157 156.291 118.632C157.809 119.446 159.005 120.871 160.573 121.581C161.284 121.913 162.456 121.201 163.414 120.97C163.227 120.268 163.044 119.606 162.857 118.904C166.74 118.094 169.353 119.703 171.171 123.027C168.74 124.938 168.031 127.358 169.044 130.286C167.786 130.306 166.607 130.319 165.41 130.353C164.704 131.96 163.979 133.588 163.323 135.09C166.309 138.722 167.665 134.695 169.771 134.134C172.209 133.482 169.41 131.61 171.761 130.886C172.558 131.689 173.623 132.787 174.865 134.068C172.125 136.368 169.912 138.118 167.811 139.998C166.835 140.871 165.266 141.62 166.399 143.431C164.616 142.981 162.851 142.51 161.025 142.025C162.313 140.643 163.619 139.239 165.197 137.549C163.215 136.899 161.999 136.515 161.649 136.409C157.951 140 156.631 144.603 153.173 147.552C153.285 148.52 153.442 149.745 153.617 150.947C154.575 150.716 155.533 150.484 156.631 150.26C155.464 158.566 154.291 159.058 147.758 154.105C146.654 156.149 144.95 156.532 143.006 155.438C140.703 154.159 141.744 152.281 142.121 150.366L137.747 155.66C136.311 154.658 135.089 153.796 133.61 152.758L136.406 149.373C136.017 148.65 135.407 147.489 134.749 146.253C135.975 145.696 136.879 145.31 137.702 144.931L137.72 144.91ZM150.779 154.736C151.19 154.857 151.843 154.155 152.393 153.842C151.754 152.804 151.133 151.744 150.087 150.005C148.881 152.878 149.01 154.225 150.779 154.736ZM154.992 128.07C155.291 127.842 155.567 127.595 155.865 127.367L152.435 124.537C152.238 124.775 152.019 124.996 151.818 125.195C152.889 126.152 153.939 127.091 154.992 128.07Z" fill="#FF5C4D"/>
<path fill-rule="evenodd" clip-rule="evenodd" d="M135.899 295.667C138.441 293.945 138.443 292.146 135.903 290.27C134.804 289.436 133.643 288.587 134.701 286.687C135.992 287.424 137.015 288.085 138.128 288.639C139.244 289.232 140.389 289.702 141.625 290.283C142.174 286.613 137.214 286.607 137.7 282.483C139.228 284.036 140.267 285.076 141.397 286.228C142.058 285.605 142.553 285.138 143.138 284.562C142.329 283.42 141.488 282.361 140.776 281.19C140.631 280.924 141.075 280.342 141.4 279.552L144.722 282.293C145.095 281.178 145.362 280.413 145.625 279.608C146.492 279.885 147.297 280.148 147.979 280.383C147.82 278.719 147.669 277.134 147.539 275.568C147.889 275.454 148.256 275.319 148.627 275.224C149.492 276.121 150.358 277.017 151.072 277.789C152.169 277.344 152.961 277.049 153.731 276.735C152.611 276.103 150.565 275.838 151.804 273.941C152.885 272.279 154.299 273.263 155.339 274.303C156.183 275.182 158.155 276.153 155.482 277.268C157.32 277.252 159.187 277.114 161.019 277.239C161.924 277.292 162.795 277.829 163.687 278.163C164.451 276.531 165.449 275.457 167.254 276.763C167.34 276.835 166.421 278.302 165.959 279.125C167.248 282.78 164.858 282.668 163.231 282.604C163.674 284.101 164.136 285.795 164.677 287.483C164.937 288.317 165.333 289.119 165.672 289.946C164.742 289.835 163.807 289.684 162.776 289.563C164.173 294.147 164.492 294.336 168.206 292.183C168.54 292.75 168.856 293.34 169.474 294.36C164.667 294.919 162.023 298.649 158.308 300.583C158.043 300.109 157.596 299.412 157.632 299.368C159.529 297.868 159.947 296.169 158.913 293.929C158.683 293.412 159.551 292.449 159.696 291.656C159.854 290.801 159.727 289.894 159.741 288.154C157.407 291.775 155.51 294.734 153.494 297.085C151.224 299.7 151.095 304.01 147.022 304.919C149.442 309.105 151.281 304.492 153.431 304.806C152.576 306.947 150.768 308.119 147.498 308.231C144.986 308.311 142.472 307.951 139.955 307.772C140.948 309.796 141.538 311.998 143.961 310.348C144.205 310.184 145.099 310.959 145.652 311.306C140.784 311.85 137.65 309.191 134.752 306.07C133.771 306.684 132.771 307.319 131.621 308.048C130.231 306.062 129.052 304.396 127.851 302.712C129.853 301.261 131.481 300.087 133.26 298.817C132.126 297.626 131.13 296.622 130.174 295.614L130.614 294.993C131.735 295.625 132.877 296.276 134.102 296.958C134.778 296.494 135.338 296.08 135.903 295.707L135.899 295.667Z" fill="#FF5C4D"/>
<path fill-rule="evenodd" clip-rule="evenodd" d="M213.89 66.0603C211.38 70.7772 210.675 71.1443 205.247 70.4234C205.247 70.4234 205.247 70.4234 205.282 70.38C205.282 70.38 205.239 70.3442 205.235 70.3046C207.058 68.4516 208.878 66.5589 210.898 64.4672C210.391 63.1365 209.782 61.5757 208.873 59.184C207.069 62.6942 205.592 65.4535 204.303 68.2949C204.107 68.7533 204.868 69.6001 205.235 70.3046C205.217 70.3263 205.181 70.3697 205.164 70.3914L205.265 70.4017C202.913 71.7456 205.134 74.2718 203.873 75.9313C201.719 75.5773 199.536 74.5064 197.082 76.2399C197.906 77.5403 198.618 78.7116 199.228 79.6527C196.447 80.0582 193.586 80.4713 190.765 80.8805C190.532 79.4837 190.339 78.3029 190.146 77.122C189.846 76.9108 189.55 76.7392 189.25 76.528C188.281 78.3195 188.022 81.6821 185.246 80.0484C183.973 79.2904 183.406 77.3259 182.432 75.7199C183.867 75.6629 184.862 75.6079 186.455 75.5357C185.365 73.7609 184.534 72.3812 183.847 71.2675C185.722 69.7493 187.41 68.3689 189.246 66.8545C188.284 65.3673 187.416 64.0311 185.982 61.7895C189.095 62.9713 191.189 63.7507 193.537 64.6659C193.491 61.9519 194.538 60.0664 196.677 59.0094L190.359 53.7963C192.525 51.3508 194.763 50.2777 197.939 51.0738C194.858 48.9695 197.881 46.902 197.188 45.0893C197.945 45.2768 198.563 45.4577 199.18 45.6386C199.162 45.6603 199.144 45.682 199.108 45.7254L199.26 45.8508C198.304 47.9809 198.645 49.2475 201.913 48.9154C200.837 47.699 200.029 46.7768 199.242 45.8725C199.296 45.8074 199.289 45.7282 199.324 45.6848L199.18 45.6386C199.81 44.699 200.419 43.7414 201.067 42.7801C201.089 42.798 201.093 42.8376 201.096 42.8772C201.096 42.8772 201.118 42.8952 201.14 42.9131C201.214 44.9447 202.196 46.23 204.813 46.8197C204.178 44.3619 202.891 43.4454 201.14 42.9131C201.132 42.8338 201.128 42.7942 201.121 42.715C201.103 42.7367 201.067 42.7801 201.049 42.8018C200.16 40.6081 201.797 40.7916 202.863 41.2695C204.387 41.9434 205.715 43.0758 207.082 43.9846C207.625 42.7536 207.999 41.8584 208.424 40.8584C212.195 41.8175 214.152 45.768 218.099 45.631C218.218 45.6196 218.367 46.5448 218.505 46.9513C217.566 47.3808 216.782 47.7555 215.48 48.3595C216.511 49.1006 217.05 49.5088 217.545 49.8812C215.601 52.1455 213.506 54.2844 211.862 56.7599C211.425 57.4212 212.38 59.0489 212.692 60.2184C216.01 56.4238 217.637 55.8687 221.625 57.6266C216.987 58.9089 215.71 62.7085 213.894 66.0999L213.89 66.0603ZM196.561 54.0236C195.89 53.9078 195.403 53.8344 194.916 53.761C194.893 54.3627 194.849 54.9466 194.826 55.5484C195.306 55.5426 195.919 55.6839 196.257 55.4517C196.519 55.2668 196.477 54.6113 196.582 54.0415L196.561 54.0236Z" fill="#FF5C4D"/>
<path fill-rule="evenodd" clip-rule="evenodd" d="M88.7126 169.516C86.7951 171.218 86.5531 174.339 83.4845 172.573C83.4194 172.519 82.0738 173.927 82.1702 174.518C82.292 175.166 83.5371 176.266 83.9835 176.123C86.4136 175.392 89.0061 174.684 91.0293 173.252C92.6213 172.121 93.1541 169.531 94.7167 168.303C96.3908 166.984 98.7464 166.519 100.805 165.663C104.679 167.072 100.003 168.577 100.787 169.882C101.91 171.793 102.383 173.607 101.134 175.605C100.189 175.555 99.2483 175.545 97.6004 175.463C98.5907 176.827 99.1675 177.632 99.766 178.454C101.054 177.911 102.227 177.419 103.648 176.804C103.973 179.991 101.917 182.126 102.016 185.055C102.113 187.324 99.0235 189.738 97.2816 192.023C95.3605 194.525 93.5008 197.041 91.4278 199.417C89.5378 201.617 87.5685 203.823 84.0283 203.822C84.4144 199.068 88.9555 197.195 90.6725 193.393C86.7319 191.711 86.9575 197.006 84.1874 196.691C83.7963 199.507 81.2114 200.293 79.7819 202.288C78.5999 199.963 77.6652 198.133 76.7087 196.286C75.7311 196.939 75.0234 197.486 74.2429 197.9C73.9768 198.046 73.5653 197.925 73.2265 197.937C70.5296 193.571 70.0394 190.113 71.756 187.564C72.5762 187.986 73.3965 188.407 74.6971 189.042C72.0631 184.497 72.5618 181.551 76.3523 177.891C77.0129 177.269 78.2096 177.234 79.2354 176.876C79.6887 178.272 80.0211 179.24 80.3904 180.384C81.5596 179.853 82.6713 179.347 84.2614 178.615L77.4443 172.99C80.7362 172.276 82.31 170.327 82.0272 166.736C84.317 167.677 86.3142 168.485 88.7267 169.454L88.7126 169.516ZM95.2152 194.259C94.354 191.942 93.8507 190.651 93.2851 189.126C92.5112 189.4 91.7336 189.634 90.2218 190.138L95.2152 194.259Z" fill="#FF5C4D"/>
<path fill-rule="evenodd" clip-rule="evenodd" d="M152.09 208.855C153.618 209.568 154.876 210.168 156.657 211.017C156.195 209.322 155.916 208.29 155.638 207.257C156.723 207.313 157.729 207.377 158.836 207.451C158.886 206.507 158.933 205.743 158.969 204.86C161.03 205.503 162.965 206.078 164.922 206.67L165.203 205.844C164.276 204.933 163.353 204.062 162.317 203.061C167.295 202.206 167.548 202.342 168.363 206.262C170.266 206.3 172.13 206.342 173.875 206.395C175.1 208.537 176.157 210.394 177.215 212.252C176.877 212.484 176.539 212.716 176.201 212.949C175.084 211.516 173.95 210.106 172.855 208.691C173.008 211.555 173.056 214.148 173.302 216.723C173.433 217.89 173.77 219.117 174.348 220.141C176.477 223.795 176.152 224.586 172.599 226.544C169.614 228.168 166.045 228.909 163.918 231.97C163.652 232.335 163.047 232.493 162.724 232.664C161.07 232.102 158.588 230.82 158.305 231.207C155.204 235.181 153.402 240.809 146.657 237.616C146.552 237.566 146.329 237.747 146.153 237.784C142.113 238.21 139.936 236.559 140.914 232.768C141.519 230.311 141.376 228.186 141.399 225.286C143.33 226.441 145.242 227.617 147.407 228.93C147.13 225.818 142.448 225.166 143.244 221.772C146.064 220.523 146.111 226.035 149.272 223.535C148.143 221.764 146.992 219.975 145.859 218.164C146.031 217.868 146.242 217.568 146.414 217.272C148.227 218.038 150.179 220.05 151.717 217.305C150.562 216.096 149.497 214.999 148.41 213.883C148.564 213.609 148.722 213.374 148.876 213.099C151.147 214.062 153.419 215.024 155.731 215.983C154.616 213.311 151.418 212.497 152.138 208.93L152.09 208.855ZM173.516 222.739C173.528 222.238 173.544 221.777 173.556 221.276C172.544 221.353 171.535 221.469 170.522 221.546C170.534 221.884 170.525 222.205 170.537 222.544C171.543 222.608 172.51 222.675 173.516 222.739ZM165.596 226.094C165.596 226.094 165.56 226.137 165.543 226.159C164.79 226.45 163.948 226.631 163.33 227.07C162.769 227.483 162.415 228.176 162.036 228.812C161.982 228.877 162.576 229.44 162.633 229.415C163.198 229.041 163.82 228.642 164.25 228.121C164.752 227.513 165.124 226.798 165.56 226.137C165.56 226.137 165.618 226.111 165.658 226.108L165.614 226.072C167.424 226.799 168.174 226.067 168.29 223.938C166.957 224.005 165.724 224.083 164.113 224.176C164.817 225.049 165.226 225.569 165.593 226.054L165.596 226.094ZM160.575 210.163L162.204 211.507C162.419 211.247 162.652 210.964 162.845 210.686C162.263 210.242 161.68 209.798 161.12 209.372C160.944 209.628 160.769 209.885 160.593 210.142L160.575 210.163Z" fill="#FF5C4D"/>
<path fill-rule="evenodd" clip-rule="evenodd" d="M232.102 206.912C231.905 206.531 231.394 206 231.479 205.632C231.689 204.892 232.187 204.245 232.624 203.584C233.948 201.539 236.316 199.734 234.534 196.986C232.336 198.894 230.148 200.483 228.31 202.397C225.364 205.476 225.473 205.566 222.545 202.967C222.306 202.77 221.978 202.682 221.576 202.46C221.146 202.981 220.767 203.617 220.25 204.066C219.6 204.588 218.808 204.883 217.707 205.508C216.854 204.11 215.768 202.995 215.611 201.771C215.525 201.079 217.002 200.219 217.86 199.357C217.078 197.873 216.279 196.41 215.308 194.624C217.209 194.842 218.587 195.03 220.69 195.269C219.527 193.981 218.868 193.365 218.36 192.654C217.964 192.072 217.716 191.356 217.072 190.058C219.518 191.164 221.129 191.91 222.823 192.687C223.941 189.522 217.557 190.532 220.375 186.945C221.277 187.178 222.197 187.39 222.631 187.529C223.085 185.167 223.483 183.05 224.025 180.14C225.48 181.341 226.165 182.234 227.035 182.551C228.57 183.124 230.186 184.129 231.244 181.39C231.822 179.895 235.474 180.026 233.961 176.953C234.639 177.148 235.336 177.321 237.043 177.818C235.32 175.264 234.158 173.576 232.757 171.471C235.091 172.448 236.738 173.15 238.341 173.816C239.835 170.816 241.377 169.789 242.59 170.972C242.082 171.94 241.56 172.969 240.985 174.064C243.509 174.942 245.805 175.742 248.098 176.503C247.97 176.835 247.823 177.188 247.717 177.538C246.882 177.178 246.044 176.779 245.734 176.668C245.793 177.922 246.139 179.448 245.828 180.797C245.418 182.575 244.477 184.244 243.76 185.951C242.838 186.139 241.779 186.36 240.306 186.641C241.285 187.886 241.923 188.705 243.261 190.356C240.818 189.91 239.555 189.67 238.253 189.435C241.553 190.699 236.298 195.778 240.562 196.23C241.203 194.57 241.314 192.8 242.262 192.05C244.235 190.503 247.016 190.097 248.494 187.778C248.899 188.039 249.304 188.3 249.966 188.736C246.629 192.333 244.714 196.993 239.856 198.896C239.413 199.078 239.528 200.486 239.105 201.086C237.26 203.541 236.748 207.607 232.102 206.912Z" fill="#FF5C4D"/>
<path fill-rule="evenodd" clip-rule="evenodd" d="M229.43 118.362C230.514 117.979 232.08 117.41 234.344 116.614C233.008 120.219 231.879 123.265 230.699 126.416C229.641 126.018 228.504 125.626 227.673 125.306C228.222 123.095 228.733 121.107 229.43 118.362Z" fill="#FF5C4D"/>
<path fill-rule="evenodd" clip-rule="evenodd" d="M137.043 84.2122C137.608 82.3794 138.07 80.9361 138.671 79.0599C140.285 79.6253 142.438 79.1398 142.06 81.6744C141.605 84.656 139.524 84.435 137.043 84.2122Z" fill="#FF5C4D"/>
<path fill-rule="evenodd" clip-rule="evenodd" d="M87.7093 230.394C85.0994 233.641 84.6058 233.708 80.8546 230.869C80.9093 230.184 80.9818 229.477 81.1165 228.165C82.7801 231.764 86.2221 226.758 87.7272 230.372L87.7093 230.394Z" fill="#FF5C4D"/>
<path fill-rule="evenodd" clip-rule="evenodd" d="M162.783 118.692L162.818 118.648C162.818 118.648 162.877 118.843 162.903 118.9L162.881 118.882C162.881 118.882 162.79 118.771 162.783 118.692Z" fill="#FF5C4D"/>
<path fill-rule="evenodd" clip-rule="evenodd" d="M157.657 117.382C156.321 116.171 156.624 115.362 158.12 114.48C158.841 115.331 159.526 116.844 160.29 116.891C161.74 116.993 162.409 117.508 162.76 118.674C160.484 119.971 160.415 119.877 157.635 117.365L157.657 117.382Z" fill="#FF5C4D"/>
<path fill-rule="evenodd" clip-rule="evenodd" d="M155.211 303.519C154.714 303.547 154.111 302.465 153.513 301.862C155.372 301.425 156.801 301.109 158.188 300.757C158.755 301.042 159.3 301.31 159.828 301.599C158.334 302.921 156.783 303.429 155.19 303.501L155.211 303.519Z" fill="#FF5C4D"/>
<path fill-rule="evenodd" clip-rule="evenodd" d="M158.177 300.757L158.111 300.703C158.111 300.703 158.227 300.652 158.303 300.604C158.325 300.622 158.369 300.658 158.373 300.698L158.177 300.757Z" fill="#FF5C4D"/>
<path fill-rule="evenodd" clip-rule="evenodd" d="M131.836 289.782C133.197 291.051 134.598 292.316 135.977 293.564C133.042 294.244 131.691 292.873 130.806 290.939C131.129 290.549 131.491 290.154 131.836 289.782Z" fill="#FF5C4D"/>
<path fill-rule="evenodd" clip-rule="evenodd" d="M166.438 143.466C164.29 145.27 162.146 147.114 160.02 148.936C159.77 148.62 159.537 148.282 159.309 147.984C160.673 145.096 164.246 145.234 166.438 143.466Z" fill="#FF5C4D"/>
<path fill-rule="evenodd" clip-rule="evenodd" d="M88.1256 166.975C89.341 166.299 90.4451 165.714 91.7361 164.991C92.0562 165.62 92.4055 166.346 93.0315 167.666C91.0721 167.253 89.5303 169.119 88.1256 166.975Z" fill="#FF5C4D"/>
<path fill-rule="evenodd" clip-rule="evenodd" d="M159.282 235.652C161.354 235.354 162.695 235.146 164.057 234.956C162.812 236.728 161.221 236.96 159.282 235.652Z" fill="#FF5C4D"/>
<path fill-rule="evenodd" clip-rule="evenodd" d="M246.772 182.384C248.363 183.551 249.951 184.679 251.521 185.828C251.274 186.172 251.044 186.493 250.797 186.837C248.891 186.139 247.726 184.412 246.75 182.366L246.772 182.384Z" fill="#FF5C4D"/>
<path fill-rule="evenodd" clip-rule="evenodd" d="M192.057 60.7099L187.563 57.0017C190.29 57.281 192.056 57.3522 192.057 60.7099Z" fill="#FF5C4D"/>
<path fill-rule="evenodd" clip-rule="evenodd" d="M165.769 290.136L165.688 289.924C165.688 289.924 165.789 289.934 165.829 289.931L165.938 290.02C165.938 290.02 165.822 290.071 165.765 290.097L165.769 290.136Z" fill="#FF5C4D"/>
<path fill-rule="evenodd" clip-rule="evenodd" d="M168.298 291.954C168.298 291.954 168.386 292.026 168.43 292.062C168.376 292.128 168.296 292.135 168.238 292.161L168.194 292.125C168.194 292.125 168.284 292.016 168.32 291.972L168.298 291.954Z" fill="#FF5C4D"/>
<path fill-rule="evenodd" clip-rule="evenodd" d="M170.124 287.962C170.262 288.149 170.439 288.332 170.577 288.519C169.807 289.671 169.037 290.824 168.267 291.977C167.486 291.332 166.704 290.687 165.922 290.042C167.314 289.33 168.728 288.635 170.102 287.944L170.124 287.962Z" fill="#FF5C4D"/>
<path fill-rule="evenodd" clip-rule="evenodd" d="M93.7017 242.015L93.5034 242.034C93.5572 241.968 93.6328 241.921 93.7083 241.874C93.6904 241.896 93.7158 241.953 93.7017 242.015Z" fill="#FF5C4D"/>
<path fill-rule="evenodd" clip-rule="evenodd" d="M95.1104 237.342C96.2773 239.509 95.2195 240.79 93.6851 241.896C93.8585 240.36 91.8554 238.233 95.1104 237.342Z" fill="#FF5C4D"/>
<path fill-rule="evenodd" clip-rule="evenodd" d="M217.774 49.9593L217.677 49.9885C217.677 49.9885 217.59 49.9169 217.547 49.881C217.583 49.8376 217.619 49.7942 217.654 49.7508C217.702 49.8263 217.727 49.8838 217.774 49.9593Z" fill="#FF5C4D"/>
<path fill-rule="evenodd" clip-rule="evenodd" d="M219.935 52.4719C219.671 52.437 219.412 52.4418 219.148 52.407C218.69 51.591 218.232 50.775 217.774 49.959C218.524 49.8475 219.277 49.7755 220.027 49.664C219.995 50.5867 219.985 51.5274 219.935 52.4719Z" fill="#FF5C4D"/>
<path fill-rule="evenodd" clip-rule="evenodd" d="M171.624 127.68C172.165 127.688 172.594 127.567 172.89 127.739C173.602 128.07 174.227 128.55 175.352 129.222C173.164 130.191 172.007 130.221 171.646 127.697L171.624 127.68Z" fill="#FF5C4D"/>
<path fill-rule="evenodd" clip-rule="evenodd" d="M225.882 177.923C227.354 177.423 228.34 177.069 229.715 176.598C229.513 178.036 229.376 178.909 229.139 180.611L225.904 177.941L225.882 177.923Z" fill="#FF5C4D"/>
<path fill-rule="evenodd" clip-rule="evenodd" d="M153.271 160.334C152.021 160.653 150.966 160.914 149.932 161.193C150.804 160.27 151.081 156.884 153.271 160.334Z" fill="#FF5C4D"/>
<path fill-rule="evenodd" clip-rule="evenodd" d="M249.132 255.093C249.797 256.409 250.481 257.702 251.146 259.018C250.844 259.207 250.539 259.356 250.255 259.523C249.463 258.359 248.669 257.156 247.877 255.992C248.309 255.691 248.74 255.39 249.132 255.093Z" fill="#FF5C4D"/>
<path fill-rule="evenodd" clip-rule="evenodd" d="M316.803 166.482C316.902 168.352 316.971 169.285 317.068 170.935C313.928 169.476 315.098 168.324 316.803 166.482Z" fill="#FF5C4D"/>
<path fill-rule="evenodd" clip-rule="evenodd" d="M231.956 175.384C232.086 175.491 231.512 176.186 231.273 176.608L229.123 174.834C229.427 174.465 229.732 174.096 230.059 173.745C230.71 174.283 231.416 174.755 231.934 175.366L231.956 175.384Z" fill="#FF5C4D"/>
<path fill-rule="evenodd" clip-rule="evenodd" d="M301.812 110.031C301.812 110.031 302.304 110.364 302.561 110.539C302.088 111.244 301.593 111.931 301.138 112.614C300.834 112.363 300.494 112.156 300.172 111.927C300.71 111.275 301.248 110.624 301.79 110.013L301.812 110.031Z" fill="#FF5C4D"/>
<path fill-rule="evenodd" clip-rule="evenodd" d="M203.914 38.6307C204.889 38.9974 205.843 39.3462 206.818 39.7129C206.715 40.1026 206.573 40.4961 206.47 40.8858C205.469 40.4616 204.49 40.0552 203.511 39.6489C203.64 39.3167 203.786 38.9628 203.936 38.6486L203.914 38.6307Z" fill="#FF5C4D"/>
<path fill-rule="evenodd" clip-rule="evenodd" d="M169.803 117.741C170.25 117.598 170.696 117.456 171.143 117.313C171.377 118.09 171.647 118.824 171.802 119.609C171.806 119.649 171 120.006 170.974 119.948C170.545 119.229 170.174 118.485 169.803 117.741Z" fill="#FF5C4D"/>
<path fill-rule="evenodd" clip-rule="evenodd" d="M165.975 117.207C165.265 116.475 164.754 115.944 164.066 115.23C166.004 114.785 166.939 114.936 165.975 117.207Z" fill="#FF5C4D"/>
<path fill-rule="evenodd" clip-rule="evenodd" d="M225.935 251.431C225.922 251.932 225.791 252.444 225.858 252.938C225.947 253.449 226.23 253.902 226.417 254.384C226.103 254.454 225.829 254.52 225.516 254.59C225.389 253.682 225.245 252.796 225.118 251.889C225.384 251.743 225.65 251.598 225.935 251.431Z" fill="#FF5C4D"/>
<path fill-rule="evenodd" clip-rule="evenodd" d="M128.548 294.012C127.867 293.998 127.174 293.864 126.484 293.77C126.498 293.488 126.55 293.204 126.564 292.922C127.31 292.991 128.035 293.042 128.8 293.089C128.711 293.417 128.61 294.027 128.548 294.012Z" fill="#FF5C4D"/>
<path fill-rule="evenodd" clip-rule="evenodd" d="M210.835 268.405C210.439 269.283 210.254 269.861 209.921 270.352C209.831 270.461 209.059 270.335 209.051 270.255C208.994 269.661 208.956 269.045 209.101 268.471C209.129 268.348 209.937 268.431 210.853 268.384L210.835 268.405Z" fill="#FF5C4D"/>
</svg>
