<svg width="56" height="57" viewBox="0 0 56 57" fill="none" xmlns="http://www.w3.org/2000/svg">
<g clip-path="url(#clip0_7435_6115)">
<path d="M5.83555 38.573C6.16351 38.7971 6.24101 39.0319 6.34806 39.2524C6.45193 39.4767 6.58689 39.6802 6.9664 39.9172C7.21424 40.2252 7.60828 40.468 7.9341 40.7156C8.39017 40.6386 8.28631 41.0872 8.71338 41.0703L8.58384 41.2524C8.72835 41.2473 8.8563 41.2689 8.80475 41.3907L8.7473 41.422C8.96646 41.4138 8.96423 41.5626 9.07181 41.5597L9.01436 41.5911L9.12785 41.6786L9.03348 41.7121C9.31517 41.7617 9.45427 41.9092 9.50217 42.0865L9.71958 41.9319C9.71768 42.3773 10.2744 42.1874 10.1907 42.6421L10.1332 42.6734C11.0121 42.6263 10.1579 43.4585 11.0035 43.4464C10.8999 43.4469 10.901 43.5384 10.8435 43.5697C11.0361 43.6884 11.2049 43.8398 11.6578 43.5602C11.7428 43.6817 11.5901 43.7452 11.4302 43.8685C11.6279 43.7443 11.7899 43.7949 11.8696 43.8809L11.7629 43.8851L12.0266 44.1115L12.3613 43.8264C12.3582 44.0366 11.933 44.1464 12.1235 44.2257L12.4312 44.0309C12.5143 44.2659 12.1289 44.6741 12.0413 45.0059C12.4663 45.8917 13.8491 46.2768 13.7653 47.3952L13.5506 47.5722C13.2167 47.7959 14.188 47.4787 13.8902 47.6989L14.1006 47.6942C14.0564 47.7562 14.0214 47.8512 13.9178 47.8517C13.9566 47.9423 14.014 47.911 14.1506 47.9107L13.9894 48.1307C14.0147 48.5669 14.5925 48.6 14.7002 49.01C14.4981 49.701 15.3233 50.2747 15.7844 50.6186C16.6265 50.9866 15.6097 52.5926 16.4927 52.956C16.4531 53.0077 16.5872 53.0034 16.6271 52.9791L16.8368 53.6643C16.8368 53.6643 16.9068 53.8687 17.043 54.1102C17.1752 54.354 17.3657 54.6398 17.6158 54.7989C18.1191 55.1135 18.8766 54.921 19.863 52.8524L19.9446 52.8248C19.9983 52.3478 19.9399 52.0995 19.4633 52.071C19.9134 51.7599 19.3952 51.7438 19.5096 51.5727L19.5504 51.5589C19.1053 51.5463 19.657 50.9354 19.2487 50.9114C19.2895 50.8976 19.4172 50.829 19.4482 50.8709C19.3263 50.7516 19.1318 50.6029 19.3948 50.4334C19.1692 50.1081 19.0555 49.5358 18.5217 49.557L18.6033 49.5294C18.2512 49.5707 18.4859 49.3816 18.2659 49.3257C18.2977 49.2971 18.3119 49.2756 18.3247 49.2696C17.9701 49.2977 18.0744 48.8857 17.8964 48.8449L18.0725 48.7302L17.8943 48.4737L17.9071 48.6024C17.397 48.8598 18.1128 48.2042 17.6862 48.195C17.6482 47.9711 16.4658 48.4263 16.6039 48.0877C16.3257 48.1337 17.0198 47.9448 16.7705 47.9124C17.024 47.7543 16.9644 47.8809 17.1513 47.7209C16.9554 47.6596 17.2961 47.3395 17.0295 47.2789L17.2256 47.1521C16.7413 47.1559 17.2582 46.5865 16.8285 46.653C16.5403 46.53 17.334 46.1458 16.8128 46.1519L17.0267 45.9017C17.0116 45.7782 16.6572 46.031 16.7192 45.8457C16.8908 45.7504 16.772 45.6274 16.97 45.5934C17.084 45.1884 16.2969 45.3233 16.5397 44.7348C16.167 44.8679 16.2592 44.5886 15.9809 44.6881C16.1187 44.5913 15.7995 44.3544 16.2242 44.3426C16.2579 44.3442 16.2743 44.3711 16.2137 44.4062L16.4221 44.3086C16.6719 43.902 16.0077 44.104 15.9489 43.891C15.9219 43.9812 15.9813 44.0427 15.817 44.0783L15.7306 43.9005L15.9185 43.8321L15.845 43.5321L15.6678 43.6899C15.6881 43.5079 16.0031 43.2533 15.6246 43.2959C15.4234 43.3337 15.4295 43.577 15.2791 43.4917C15.3059 43.2486 15.3545 42.8798 15.2658 42.6444C15.0517 42.8044 15.0212 42.7455 14.9342 42.7193L15.1286 42.5898C14.6992 42.5491 15.5067 42.2414 15.134 42.168L15.2842 42.1005L14.8328 42.3018C14.3034 42.3571 15.1675 41.9448 14.4774 42.0686C14.5706 42.1316 14.0747 42.3767 14.081 42.2254L14.2919 42.1319C14.208 42.1019 14.1128 42.1341 14.1241 42.0719C14.2522 42.0399 14.4122 41.9166 14.3199 41.8549L14.6015 41.7607L14.1324 41.8253C14.2443 41.5783 13.84 41.5519 14.0727 41.3326C14.0727 41.3326 14.0076 40.9925 13.6646 41.1205C13.8879 41.0563 13.8423 40.8739 14.0901 40.7782C13.8291 40.8432 13.5036 40.7577 13.6608 40.5402L13.6986 40.5393C13.6855 40.1141 12.9939 40.2443 13.0443 39.8246C12.8277 39.9805 12.8356 39.7692 12.574 39.9858C12.0631 39.9101 12.7518 39.1382 11.7744 39.6159C11.6192 39.5316 11.8603 39.3441 11.8504 39.2562L11.9251 39.2531C11.6524 39.0837 11.5851 39.0271 11.4577 38.854C11.296 38.8308 10.871 39.0843 10.8371 38.8763C11.046 38.8154 10.962 38.7763 10.9092 38.7255C10.9689 38.7426 11.0384 38.7131 11.0841 38.5728C11.0226 38.5974 10.976 38.6018 10.9391 38.604C10.9511 38.5968 10.9606 38.5854 10.9773 38.5771C10.8322 38.5273 10.7958 38.5752 10.8133 38.6309C10.7846 38.6466 10.7552 38.6701 10.7251 38.7105C10.8485 38.4823 10.462 38.4671 10.7368 38.272C10.4113 38.0519 9.94061 38.0512 9.60637 37.9064C9.72543 37.7878 9.90734 37.7543 10.0273 37.7808L9.81308 37.6625C10.0251 37.5259 10.0268 37.6723 10.1154 37.6921C10.2624 37.2873 9.38191 37.5381 9.42772 37.1378L9.21249 37.2063L9.22259 37.178C9.13816 37.2368 8.96269 37.2719 8.89274 37.2647C9.03232 37.117 9.30784 36.9859 9.15743 36.9006C9.221 36.7089 8.74374 36.7601 8.48416 36.7468C8.54517 36.811 8.41972 36.8654 8.32044 36.8908C8.23409 36.8568 8.35844 36.711 8.22459 36.7336L8.44823 36.5622C8.26713 36.7316 7.98336 36.6428 7.85557 36.7022C7.97511 36.5575 8.13841 36.646 8.28919 36.5615C7.90548 36.4432 8.10689 36.4956 7.69293 36.3994C7.31151 36.4733 7.5239 36.5707 7.22742 36.6942C6.98401 36.6895 6.65721 36.7633 6.53039 36.636L6.42232 36.7995C6.15767 36.8318 5.9603 36.8488 5.81557 36.8356C5.678 36.8162 5.57795 36.7777 5.5016 36.7062C4.2642 37.0621 3.46364 37.4799 3.04668 37.7377C2.6194 38.0055 2.48413 38.1783 2.53902 38.2684C2.55475 38.3749 2.69898 38.4142 2.8206 38.4433C2.93988 38.4776 3.05719 38.4816 3.05719 38.4816C3.45428 38.577 3.82439 38.5653 4.30492 38.5195C4.7735 38.481 5.33421 38.4231 5.8556 38.57L5.83555 38.573Z" fill="#C3E2AC"/>
<path d="M48.7882 8.04184C48.1295 8.8088 47.8319 9.40473 47.5019 9.99105C47.1737 10.5835 46.8158 11.1528 46.0709 11.9893C45.4649 12.8849 44.6941 13.7461 44.0202 14.5648C43.4073 14.7451 43.2106 15.6869 42.5937 15.9815L42.6426 16.2959C42.4334 16.397 42.2278 16.546 42.2089 16.7834L42.2692 16.81C41.9522 16.9623 41.8394 17.2999 41.6829 17.3773L41.7432 17.4039L41.5075 17.692L41.6206 17.6949C41.1663 18.0277 40.8459 18.4725 40.6369 18.9142L40.4368 18.7312C40.0921 19.7455 39.4188 19.7467 39.1876 20.7183L39.2479 20.7449C37.9879 21.3232 38.599 22.5542 37.3608 23.1865C37.5133 23.1067 37.4403 23.3162 37.5006 23.3428C37.1239 23.7635 36.7566 24.2407 36.3066 23.9563C36.0864 24.2997 36.2621 24.3255 36.4019 24.4818C36.2071 24.3529 35.9286 24.5946 35.7438 24.8529L35.8981 24.7793L35.3323 25.5013L35.0608 25.1124C34.9014 25.5893 35.4431 25.5079 35.1001 25.8374L34.7982 25.633C34.4921 26.2339 34.7424 26.864 34.6128 27.5521C33.2946 29.9035 30.9539 31.8604 30.2049 34.3454L30.3837 34.5813C30.7017 34.831 29.5161 34.8655 29.7837 35.1352L29.4769 35.2886C29.4938 35.3955 29.4713 35.5849 29.6238 35.5051C29.4958 35.7421 29.4355 35.7155 29.2342 35.8215L29.3005 36.1971C28.9228 37.2116 28.0444 37.738 27.5656 38.7569C27.3247 40.1748 25.6595 42.1268 24.7108 43.2708C23.1812 44.7669 23.4286 47.6356 21.8422 49.153C21.8602 49.2402 21.6657 49.335 21.6258 49.3107L20.7818 51.0366C20.7818 51.0366 20.5191 51.5573 20.1298 52.2142C19.7444 52.8734 19.2403 53.6737 18.7472 54.2317C17.7591 55.3416 16.7917 55.4937 16.9501 51.5464L16.8513 51.5472C17.1442 50.5013 17.4241 49.8896 18.1495 49.4528C17.7282 49.0945 18.5053 48.6536 18.47 48.3527L18.4206 48.3531C19.0872 47.9769 18.7498 47.0144 19.371 46.6411C19.3216 46.6415 19.1867 46.5847 19.1082 46.7045C19.3811 46.3374 19.7842 45.8464 19.5284 45.6651C20.115 44.7475 20.7292 43.3539 21.5003 42.9856L21.4015 42.9863C21.8888 42.8058 21.6901 42.5577 22.0581 42.2587C22.0335 42.2183 22.0294 42.1803 22.0152 42.1767C22.5166 41.964 22.6841 41.106 22.9786 40.874L22.8082 40.7498L23.2712 40.0261L23.1519 40.3294C23.7038 40.5183 23.1591 39.5819 23.7957 39.2281C24.0265 38.688 25.416 38.8033 25.4764 38.139C25.8509 38.0269 24.9741 38.1378 25.3673 37.8694C25.1167 37.7065 25.1058 37.9487 24.9549 37.7298C25.2917 37.4372 25.0388 36.9731 25.4794 36.627L25.2891 36.4907C26.0006 36.1216 25.6822 35.2265 26.2644 35.0428C26.7856 34.5375 25.9142 34.2807 26.6784 33.8879L26.558 33.4844C26.6767 33.1909 27.0023 33.491 27.0554 33.1169C26.8766 33.0334 27.1478 32.6601 26.8823 32.737C27.03 31.9025 28.0861 31.5961 28.1871 30.4435C28.6331 30.4562 28.7149 29.8914 29.0479 29.9013C28.9201 29.7879 29.576 28.9988 28.9585 29.3032C28.9075 29.3331 28.8624 29.4072 28.9244 29.4399L28.693 29.3802C28.6417 28.6479 29.4641 28.5902 29.7171 28.0586C29.6866 28.2432 29.551 28.4298 29.7655 28.3828L30.0318 27.91L29.8079 27.9006L30.1503 27.1593L30.2887 27.3807C30.4007 26.9816 30.1346 26.6467 30.6599 26.4487C30.9272 26.3779 30.7283 26.9375 31.0168 26.6256C31.1669 26.0922 31.383 25.2891 31.6975 24.6832C31.8887 24.881 31.9795 24.723 32.1284 24.5953L31.9426 24.4516C32.6079 24.0238 31.6565 23.9521 32.2637 23.4941L32.0948 23.4572L32.6037 23.5641C33.3417 23.2772 32.3884 23.0113 33.31 22.755C33.1234 22.9715 33.6638 23.1433 33.7727 22.8033L33.5344 22.7546C33.6816 22.6208 33.7969 22.6199 33.8288 22.4869C33.6647 22.5139 33.5249 22.3576 33.7092 22.1448L33.3673 22.1498L34.0089 21.9312C34.0365 21.4553 34.6537 21.0795 34.4814 20.7611C34.4814 20.7611 34.8428 19.9349 35.2491 19.959C34.9697 19.9868 35.1792 19.5354 34.8883 19.5104C35.2227 19.4551 35.7696 19.0061 35.7074 18.6329L35.6524 18.6603C36.0035 17.6805 36.9223 17.4378 37.1754 16.5201C37.3733 16.7067 37.5264 16.2311 37.7435 16.5209C38.5564 15.9495 38.1425 14.7269 39.2119 15.0535C39.5066 14.7403 39.2971 14.5009 39.3804 14.2925L39.2726 14.3437C39.8071 13.7448 39.9506 13.5631 40.2736 13.069C40.5303 12.8901 40.9596 13.1365 41.1718 12.6359C40.9111 12.6599 41.0656 12.5051 41.1831 12.3482C41.0818 12.4337 41.0022 12.4208 41.0442 12.1365C41.1158 12.1446 41.181 12.1183 41.2338 12.0945C41.2218 12.0873 41.2166 12.0689 41.1984 12.0628C41.4515 11.836 41.4677 11.9171 41.3984 12.0577C41.4286 12.071 41.4537 12.1015 41.4665 12.1703C41.4625 11.7462 42.0446 11.4101 41.7914 11.1796C42.4434 10.4237 43.1384 10.0548 43.7445 9.46399C43.6614 9.28635 43.4191 9.35204 43.2214 9.50591L43.6298 9.06899C43.4236 8.92297 43.3068 9.2582 43.1607 9.37236C43.2597 8.56398 44.3631 8.449 44.6078 7.57195L44.8719 7.56019L44.8791 7.50359C44.9578 7.57186 45.1893 7.51486 45.2981 7.44399C45.2074 7.216 44.9031 7.13217 45.1916 6.82028C45.2474 6.43264 45.9117 6.17703 46.305 5.94429C46.1649 6.13831 46.3076 6.16431 46.4342 6.14495C46.5882 6 46.5185 5.76448 46.6984 5.71154L46.502 5.49538C46.6371 5.74026 47.1251 5.31629 47.2673 5.35213C47.2039 5.11534 46.8938 5.44459 46.7373 5.36951C47.3957 4.80046 47.0577 5.07706 47.7435 4.53486C48.2486 4.40579 47.8593 4.7934 48.2004 4.84378C48.5632 4.64322 48.9878 4.55653 49.2742 4.16722L49.3061 4.45587C49.6714 4.3229 49.9493 4.20779 50.1732 4.06479C50.3913 3.91322 50.569 3.7472 50.7374 3.5247C52.2855 3.37083 53.1407 3.69897 53.5548 3.96149C53.9763 4.2387 54.0411 4.52712 53.8898 4.77531C53.7835 5.03055 53.54 5.2327 53.3379 5.39398C53.1352 5.5651 52.9589 5.66595 52.9589 5.66595C52.2986 6.19322 51.7616 6.45528 51.0884 6.72571C50.427 7.00344 49.6448 7.30908 48.761 8.05064L48.7882 8.04184Z" fill="#C3E2AC"/>
</g>
<defs>
<clipPath id="clip0_7435_6115">
<rect width="56" height="56" fill="white" transform="translate(0 0.313232)"/>
</clipPath>
</defs>
</svg>
