<?xml version="1.0" standalone="no"?>
<!DOCTYPE svg PUBLIC "-//W3C//DTD SVG 20010904//EN"
 "http://www.w3.org/TR/2001/REC-SVG-20010904/DTD/svg10.dtd">
<svg version="1.0" xmlns="http://www.w3.org/2000/svg"
 width="1468.000000pt" height="956.000000pt" viewBox="0 0 1468.000000 956.000000"
 preserveAspectRatio="xMidYMid meet">

<g transform="translate(0.000000,956.000000) scale(0.100000,-0.100000)"
fill="#000000" stroke="none">
<path d="M2895 9535 c-237 -41 -367 -107 -518 -259 -74 -74 -177 -214 -177
-240 0 -6 -7 -24 -16 -41 -43 -82 -58 -157 -58 -290 l0 -130 56 -115 c50 -103
67 -126 146 -206 80 -80 89 -92 78 -110 -6 -12 -51 -62 -99 -111 -49 -50 -100
-109 -115 -131 -100 -147 -129 -193 -162 -256 -20 -39 -46 -88 -58 -108 -28
-49 -99 -215 -107 -253 -4 -17 -20 -68 -35 -115 -60 -182 -91 -327 -120 -560
-23 -193 -7 -615 30 -765 5 -22 10 -55 10 -73 0 -29 21 -120 65 -277 35 -129
44 -179 54 -295 14 -188 -12 -277 -151 -503 -26 -43 -48 -81 -48 -83 0 -3 -12
-21 -26 -39 -46 -61 -77 -168 -82 -289 -4 -112 3 -168 38 -281 32 -103 48
-140 113 -272 85 -170 97 -192 107 -198 4 -3 18 -24 30 -47 116 -225 379 -495
570 -586 53 -25 153 -52 193 -52 63 0 121 23 162 65 119 118 71 317 -191 805
-46 86 -101 217 -131 312 -12 40 6 66 69 98 176 92 377 266 469 407 27 41 48
63 58 61 9 -2 28 -26 42 -53 14 -28 35 -67 47 -87 12 -21 32 -55 43 -75 12
-21 42 -67 67 -103 25 -36 59 -85 76 -110 16 -25 43 -61 60 -81 17 -20 60 -72
94 -117 125 -160 397 -435 550 -553 48 -38 103 -82 123 -98 20 -17 47 -36 60
-43 13 -7 69 -42 123 -78 114 -74 119 -77 258 -149 56 -30 146 -70 198 -88
199 -72 388 -132 465 -148 44 -9 99 -20 123 -25 23 -6 60 -10 81 -10 21 0 60
-7 87 -15 27 -8 82 -15 123 -15 41 0 100 -5 130 -10 31 -6 119 -13 196 -16
l140 -6 49 -51 c27 -29 87 -97 134 -152 152 -177 583 -598 772 -755 37 -30 98
-82 137 -115 79 -67 106 -88 318 -246 83 -61 157 -114 165 -117 8 -3 26 -15
40 -27 93 -81 578 -380 737 -453 217 -100 308 -123 486 -126 204 -2 322 36
437 141 71 65 105 126 119 210 22 137 -21 211 -183 314 -158 101 -221 143
-261 170 -99 69 -202 144 -225 165 -14 12 -56 48 -95 80 -111 92 -262 231
-329 302 -56 61 -191 204 -226 241 -15 17 -112 137 -165 206 -16 21 -49 62
-72 92 -38 47 -94 127 -215 311 -40 60 -46 83 -25 99 16 13 111 43 134 43 11
0 23 4 28 9 11 9 21 13 179 68 94 32 401 176 456 214 30 20 86 51 154 87 28
14 98 57 155 94 110 71 116 74 153 59 101 -42 273 -105 368 -135 63 -20 147
-49 185 -65 88 -36 247 -87 300 -96 22 -4 58 -13 80 -20 22 -7 87 -27 145 -45
58 -17 143 -44 190 -60 47 -15 108 -33 135 -40 48 -11 110 -27 205 -55 25 -7
97 -27 160 -45 63 -17 129 -35 145 -40 17 -4 55 -13 85 -20 30 -6 78 -18 105
-25 28 -8 68 -17 90 -20 22 -3 64 -10 94 -15 158 -28 354 10 477 91 53 36 120
124 145 190 25 69 26 188 2 227 -9 15 -39 51 -67 80 -59 62 -130 99 -321 167
-71 25 -152 55 -180 65 -27 11 -75 27 -105 36 -30 9 -60 20 -66 25 -6 5 -73
37 -150 72 -76 36 -281 134 -454 219 -173 86 -339 166 -368 179 -59 26 -70 47
-54 101 6 18 16 81 23 139 13 120 3 207 -34 289 -48 106 -198 286 -253 304
-12 3 -27 17 -34 31 -12 23 -10 33 27 107 42 84 79 192 108 307 13 53 14 86 5
205 -17 248 -19 266 -29 304 -6 20 -20 82 -32 137 -47 217 -169 499 -302 699
-34 51 -66 100 -72 108 -75 114 -327 381 -454 482 -113 89 -229 167 -324 217
-102 53 -114 71 -78 120 33 44 25 131 -20 234 -24 55 -89 144 -125 172 -20 15
-59 48 -88 71 -46 40 -129 99 -178 128 -11 6 -29 20 -41 30 -23 20 -130 89
-195 126 -170 96 -167 95 -226 109 -28 6 -62 19 -76 29 -14 9 -38 23 -55 32
-16 8 -39 19 -50 25 -34 18 -151 43 -203 43 -78 0 -188 -41 -274 -101 -14 -11
-29 -19 -32 -19 -11 0 -116 -70 -168 -113 -29 -23 -75 -59 -103 -79 -56 -41
-149 -148 -182 -211 -25 -48 -30 -136 -11 -199 12 -41 66 -104 129 -151 69
-52 229 -122 293 -129 35 -4 55 -31 41 -54 -6 -9 -47 -31 -91 -49 -96 -39
-207 -98 -254 -137 -19 -15 -39 -28 -44 -28 -13 0 -124 -82 -176 -130 -70 -65
-87 -75 -105 -60 -8 7 -15 25 -15 39 0 32 -26 58 -125 126 -38 27 -90 65 -115
86 -25 20 -76 57 -115 83 -38 25 -74 50 -80 54 -112 86 -285 212 -379 274 -39
26 -83 56 -98 67 -14 12 -29 21 -33 21 -3 0 -26 13 -49 29 -52 36 -347 189
-436 226 -36 15 -97 42 -135 60 -82 38 -226 87 -305 105 -30 7 -71 18 -90 25
-75 27 -275 63 -388 69 -95 5 -107 16 -116 107 -8 82 -51 222 -96 311 -63 126
-119 190 -281 323 -26 21 -134 90 -184 117 -16 9 -57 24 -90 33 -199 56 -293
65 -430 40z m317 -199 c74 -19 132 -45 204 -91 60 -39 244 -191 244 -203 0 -4
14 -22 30 -40 28 -32 44 -62 85 -160 29 -67 28 -276 -2 -357 -34 -93 -45 -116
-86 -171 -70 -96 -159 -154 -312 -201 -73 -22 -109 -27 -195 -28 -96 0 -110 3
-163 29 -69 34 -132 104 -122 135 3 12 32 41 63 65 77 59 136 125 161 179 37
80 21 219 -31 274 -60 64 -171 82 -271 44 -123 -48 -152 -110 -79 -171 39 -33
45 -34 177 -17 33 4 32 -45 -2 -76 -82 -76 -113 -101 -163 -136 -117 -81 -164
-95 -222 -65 -36 19 -138 112 -138 126 0 6 -8 22 -18 36 -40 59 -64 148 -64
239 0 87 5 107 55 213 26 55 139 189 199 236 99 78 187 122 278 142 30 6 64
14 75 16 41 9 242 -3 297 -18z m4286 -787 c25 -16 50 -29 54 -29 20 0 108 -67
108 -82 0 -25 -43 -33 -77 -15 -15 8 -75 33 -133 55 -135 52 -155 82 -68 102
42 10 60 5 116 -31z m-3343 -135 c11 -3 49 -9 85 -13 107 -13 294 -63 421
-112 41 -16 78 -29 82 -29 11 0 195 -78 252 -107 133 -66 376 -205 460 -263
134 -92 349 -245 442 -313 61 -45 158 -116 215 -157 57 -41 123 -93 148 -116
25 -23 56 -51 70 -63 20 -16 23 -23 14 -38 -10 -17 -32 -18 -275 -20 -157 -2
-286 -7 -319 -14 -112 -25 -280 -118 -373 -207 -42 -41 -128 -146 -177 -217
-22 -33 -76 -106 -99 -136 -64 -83 -82 -246 -38 -337 52 -104 97 -178 165
-267 29 -38 77 -101 107 -140 29 -38 64 -81 76 -95 13 -14 42 -48 64 -75 60
-77 273 -282 340 -330 33 -23 90 -57 127 -75 57 -27 74 -31 120 -27 29 3 65 8
79 12 26 7 29 3 102 -147 87 -179 167 -301 280 -430 129 -147 299 -301 385
-349 20 -12 55 -34 77 -49 106 -72 340 -167 495 -200 30 -6 75 -16 100 -22 25
-6 72 -14 105 -19 33 -4 76 -12 95 -18 21 -7 138 -11 299 -12 262 0 382 10
476 43 17 6 44 12 60 15 112 16 220 54 392 139 84 42 157 73 163 69 5 -3 28
-32 49 -63 138 -202 354 -281 562 -207 41 14 88 29 104 32 17 3 52 21 80 39
27 19 54 34 59 34 5 0 138 -63 295 -141 666 -329 732 -360 801 -380 25 -7 50
-16 55 -20 6 -4 39 -17 75 -29 36 -11 79 -28 97 -36 17 -7 36 -14 42 -14 6 0
19 -4 29 -9 19 -10 61 -26 167 -65 91 -34 155 -92 155 -143 0 -49 -23 -86 -77
-126 -70 -50 -85 -57 -165 -67 -119 -15 -382 19 -456 59 -11 6 -31 11 -43 11
-23 0 -54 8 -234 61 -55 16 -140 40 -190 54 -49 15 -107 33 -128 41 -20 7 -48
14 -61 14 -13 0 -37 7 -52 15 -16 8 -37 15 -47 15 -10 0 -53 11 -95 25 -42 13
-113 31 -157 39 -44 8 -107 26 -140 39 -33 13 -141 49 -240 81 -170 55 -219
73 -440 159 -165 64 -253 89 -278 75 -54 -28 -254 -152 -272 -168 -11 -10 -31
-21 -45 -25 -14 -4 -44 -21 -67 -36 -23 -16 -44 -29 -46 -29 -3 0 -32 -15 -65
-34 -51 -29 -254 -127 -396 -191 -21 -9 -66 -25 -100 -35 -33 -10 -74 -23 -91
-29 -16 -6 -84 -27 -149 -46 -119 -35 -140 -46 -183 -95 -30 -33 -32 -126 -4
-161 10 -13 35 -55 56 -94 20 -38 41 -72 45 -75 4 -3 14 -19 23 -35 8 -17 24
-39 36 -49 12 -11 21 -24 21 -31 0 -7 9 -20 21 -31 12 -10 28 -32 36 -49 9
-16 37 -55 62 -85 26 -30 73 -89 104 -131 31 -42 78 -101 105 -130 26 -30 60
-70 76 -89 94 -115 395 -401 575 -546 122 -98 349 -263 381 -277 8 -4 49 -29
90 -57 41 -27 91 -59 111 -69 97 -53 122 -98 93 -170 -37 -94 -187 -171 -330
-171 -61 0 -207 28 -279 53 -70 25 -219 90 -245 108 -27 18 -74 45 -160 92
-81 44 -313 189 -360 225 -14 10 -95 68 -180 127 -140 98 -286 207 -343 255
-12 10 -51 41 -87 70 -196 156 -383 323 -580 520 -205 205 -288 296 -387 420
-85 108 -140 153 -225 184 -66 24 -86 26 -218 26 -141 0 -277 10 -410 32 -36
5 -90 14 -120 18 -30 4 -91 18 -135 30 -44 12 -96 26 -115 30 -19 5 -57 15
-85 23 -27 9 -81 25 -120 36 -83 25 -131 45 -282 117 -62 30 -116 54 -119 54
-9 0 -262 166 -354 232 -94 68 -208 162 -280 233 -124 120 -244 247 -275 290
-16 22 -54 66 -83 99 -29 32 -65 77 -79 100 -14 22 -29 43 -32 46 -18 15 -118
162 -146 215 -39 74 -92 172 -134 247 -17 31 -31 69 -31 86 0 16 15 76 34 133
60 185 82 343 53 379 -41 53 -100 63 -140 26 -20 -18 -27 -37 -31 -82 -24
-237 -61 -339 -217 -600 -98 -163 -267 -306 -496 -420 -154 -76 -156 -136 -18
-449 7 -16 16 -41 20 -55 7 -24 43 -95 157 -305 102 -190 128 -250 134 -313 8
-69 -3 -92 -42 -92 -24 0 -144 49 -197 81 -42 25 -213 194 -249 247 -18 26
-37 52 -43 57 -17 15 -85 117 -142 215 -133 229 -212 452 -220 622 l-5 97 72
145 c39 80 94 187 123 238 29 51 58 111 64 133 6 22 16 60 23 85 20 74 24 265
7 345 -8 38 -20 108 -26 155 -6 47 -15 99 -21 115 -5 17 -16 64 -25 105 -9 41
-22 104 -30 140 -23 105 -34 184 -51 369 -14 141 -15 191 -6 270 6 53 16 134
21 181 24 208 97 494 166 655 75 176 133 279 267 477 39 58 224 247 291 296
31 23 57 47 57 52 0 17 36 11 51 -7 8 -10 21 -31 29 -47 33 -65 188 -159 291
-176 135 -21 267 -8 414 42 215 74 376 218 456 408 36 88 40 90 128 84 42 -3
85 -8 96 -10z m2985 2 c0 -32 -90 -80 -112 -58 -14 14 7 51 35 62 35 14 77 12
77 -4z m868 -355 c53 -17 206 -63 262 -79 14 -4 25 -14 25 -22 0 -31 -103 -27
-200 6 -23 8 -47 14 -55 14 -8 0 -64 18 -123 39 -94 34 -136 59 -137 83 -1 22
78 8 228 -41z m-873 19 c57 -9 241 -44 315 -59 48 -10 122 -50 115 -61 -9 -15
-124 -12 -179 5 -29 9 -89 15 -145 15 -71 0 -119 6 -184 24 -91 25 -117 39
-117 62 0 34 45 38 195 14z m1319 -35 c8 -23 -4 -45 -25 -45 -11 0 -22 7 -25
15 -9 23 3 45 25 45 10 0 21 -7 25 -15z m-279 -345 c115 -21 177 -37 222 -56
17 -8 34 -14 38 -14 3 0 72 -32 152 -70 284 -137 551 -353 764 -620 95 -118
220 -326 275 -455 6 -16 26 -59 43 -95 33 -69 61 -164 61 -207 0 -22 -3 -24
-27 -18 -14 3 -38 15 -52 26 -123 95 -183 131 -264 157 -206 67 -558 -22 -797
-200 -67 -50 -190 -166 -190 -179 0 -4 -17 -28 -39 -54 -42 -51 -121 -202
-121 -232 0 -10 -6 -38 -14 -63 -100 -315 23 -700 260 -816 99 -48 233 -67
317 -43 54 15 73 5 93 -48 18 -45 56 -98 128 -177 20 -22 36 -44 36 -50 0 -12
-30 -46 -41 -46 -5 0 -55 -22 -111 -49 -146 -69 -311 -128 -398 -141 -41 -6
-116 -18 -167 -26 -107 -18 -433 -15 -548 5 -38 7 -101 17 -140 23 -38 5 -101
21 -140 35 -38 13 -86 28 -105 33 -49 12 -113 36 -168 64 -26 13 -58 27 -72
31 -13 4 -78 44 -144 89 -130 88 -379 323 -432 406 -15 25 -38 56 -50 70 -34
39 -103 158 -130 225 -14 33 -29 69 -34 80 -25 56 -40 100 -40 121 0 12 17 60
38 106 22 46 55 130 74 188 20 58 56 164 81 235 25 72 53 164 62 205 9 41 23
90 31 108 8 18 14 41 14 52 0 11 6 34 14 52 31 73 41 154 41 343 0 254 -12
294 -118 396 -26 26 -36 42 -30 52 20 34 268 227 291 227 5 0 40 20 78 45 37
25 71 45 75 45 4 0 34 15 68 34 33 19 70 37 83 41 13 4 64 27 115 51 50 24
103 46 117 50 14 3 29 10 32 15 3 5 18 9 34 9 16 0 41 5 57 11 51 20 295 44
478 47 62 1 138 -6 200 -18z m-1809 -1382 c69 -66 78 -92 44 -123 -25 -22 -31
-17 -93 73 -45 66 -55 91 -40 105 13 14 26 6 89 -55z m-453 -82 c68 -63 205
-331 195 -382 -5 -28 -26 -28 -52 1 -34 37 -200 371 -192 390 8 21 19 19 49
-9z m3443 -75 c155 -73 378 -262 426 -361 47 -98 28 -270 -47 -419 -18 -36
-36 -79 -39 -94 -3 -15 -8 -38 -11 -52 -9 -44 -33 -47 -138 -14 -63 19 -97 35
-97 44 0 24 -31 109 -50 136 -27 36 -90 165 -90 181 0 7 14 29 31 48 53 58 79
113 79 170 0 75 -24 96 -126 105 -117 11 -207 -6 -297 -56 -94 -53 -191 -136
-235 -201 -46 -70 -29 -165 36 -189 38 -15 164 17 255 64 50 25 57 18 107
-102 21 -49 52 -110 69 -134 48 -70 49 -89 6 -135 -50 -57 -248 -155 -365
-182 -19 -4 -51 -13 -70 -19 -19 -6 -63 -11 -97 -11 -201 0 -341 195 -334 465
2 70 16 174 31 228 13 46 118 203 174 261 97 102 267 207 401 249 125 40 155
46 235 46 74 1 93 -3 146 -28z m-3061 -162 c29 -36 31 -82 3 -87 -20 -4 -35
22 -44 77 -8 50 4 53 41 10z m3270 -968 c22 -10 52 -21 66 -24 30 -8 175 -100
204 -131 35 -35 81 -98 111 -151 26 -46 28 -58 28 -155 -1 -167 -47 -280 -130
-320 -105 -49 -145 -60 -215 -60 -122 0 -220 64 -287 187 -18 32 -43 76 -56
98 -32 55 -143 215 -171 245 -12 14 -31 38 -41 54 -18 28 -18 29 5 47 43 35
160 19 232 -32 16 -11 56 -60 89 -109 103 -153 167 -185 236 -116 54 54 44
115 -33 184 -16 15 -43 48 -61 73 -17 26 -50 62 -73 79 -64 51 -69 87 -21 143
18 20 50 17 117 -12z"/>
<path d="M8950 6883 c-42 -7 -68 -24 -96 -65 -33 -48 -37 -127 -8 -179 69
-125 194 -180 293 -129 62 31 81 63 81 132 0 75 -34 142 -97 194 -59 48 -99
59 -173 47z"/>
<path d="M7781 6228 c-86 -24 -121 -84 -121 -208 0 -96 12 -124 74 -175 76
-62 186 -81 257 -45 59 30 79 70 79 156 0 106 -21 162 -79 217 -66 62 -130 79
-210 55z"/>
</g>
</svg>
