<?xml version="1.0" standalone="no"?>
<!DOCTYPE svg PUBLIC "-//W3C//DTD SVG 20010904//EN"
 "http://www.w3.org/TR/2001/REC-SVG-20010904/DTD/svg10.dtd">
<svg version="1.0" xmlns="http://www.w3.org/2000/svg"
 width="1468.000000pt" height="1084.000000pt" viewBox="0 0 1468.000000 1084.000000"
 preserveAspectRatio="xMidYMid meet">

<g transform="translate(0.000000,1084.000000) scale(0.100000,-0.100000)"
fill="#000000" stroke="none">
<path d="M4235 9818 c-27 -6 -63 -16 -80 -23 -135 -58 -192 -97 -293 -204 -57
-59 -192 -225 -192 -235 0 -3 -23 -42 -52 -88 -46 -74 -94 -175 -118 -248 -5
-14 -18 -50 -30 -80 -39 -99 -51 -144 -67 -235 -20 -110 -20 -144 2 -242 15
-67 22 -81 64 -123 26 -26 68 -55 93 -65 45 -17 50 -17 118 0 66 16 151 53
245 107 177 101 176 101 193 84 14 -13 14 -20 4 -36 -24 -39 -31 -56 -70 -180
-22 -69 -45 -156 -51 -195 -7 -38 -18 -101 -26 -140 -41 -203 -44 -244 -34
-440 11 -226 18 -280 52 -405 41 -149 151 -397 216 -486 16 -23 42 -66 56 -95
35 -68 35 -70 -44 -289 -7 -19 -17 -53 -21 -75 -14 -71 -74 -306 -95 -376 -8
-26 -15 -59 -15 -73 0 -15 -5 -37 -11 -48 -6 -11 -15 -44 -19 -72 -4 -28 -15
-82 -24 -121 -18 -72 -30 -149 -46 -272 -5 -39 -13 -97 -19 -130 -20 -116 -32
-200 -41 -283 -9 -84 -19 -144 -46 -293 -8 -42 -14 -106 -14 -140 0 -35 -4
-88 -10 -118 -13 -72 -33 -438 -60 -1089 -14 -346 -57 -802 -86 -915 -19 -73
-44 -101 -95 -110 -56 -10 -222 -79 -272 -114 -118 -82 -177 -198 -177 -345 0
-71 17 -152 39 -195 17 -31 81 -101 93 -101 6 0 22 -8 36 -19 15 -10 61 -29
102 -42 69 -21 92 -23 290 -23 243 0 306 12 446 80 211 103 332 233 383 414 5
19 17 60 25 91 9 31 16 68 16 83 0 15 5 36 11 47 12 24 26 120 39 279 5 63 12
129 15 146 3 18 6 63 6 101 1 127 23 121 108 -30 92 -161 277 -390 433 -532
106 -97 123 -112 165 -139 47 -31 59 -52 42 -72 -8 -10 -39 -14 -115 -14 -221
0 -321 -53 -361 -190 -20 -70 -13 -289 12 -336 8 -16 15 -34 15 -40 0 -23 83
-94 137 -119 198 -90 627 -115 860 -49 86 24 197 80 260 132 15 12 36 22 46
22 10 0 49 -31 85 -68 69 -70 148 -117 226 -134 309 -69 1115 -55 1486 26 228
50 418 121 535 200 73 50 255 231 279 277 32 64 55 101 76 124 19 20 26 22 49
12 14 -6 34 -17 43 -25 28 -23 177 -101 253 -132 70 -29 190 -42 355 -41 252
1 387 29 530 110 41 24 82 48 90 56 8 7 21 14 27 16 30 10 189 168 232 233 69
102 96 160 124 267 38 140 46 228 37 364 -13 192 -62 343 -150 460 -25 33 -51
72 -59 87 -22 43 -170 181 -246 229 -156 99 -227 129 -358 150 -114 19 -129
19 -222 5 -120 -18 -220 -57 -308 -119 -114 -82 -137 -73 -137 51 0 70 -18
200 -45 327 -8 39 -19 93 -24 120 -5 28 -14 63 -20 78 -6 16 -11 42 -11 59 0
17 -7 56 -16 87 -30 107 -43 156 -55 216 -18 88 -190 606 -247 740 -16 39 -50
121 -75 182 -70 171 -278 585 -377 753 -17 28 -30 53 -30 56 0 3 -18 32 -40
64 -22 32 -40 63 -40 68 0 5 -20 40 -44 78 -24 38 -83 134 -132 214 -49 80
-102 164 -119 186 -16 23 -38 54 -48 70 -9 16 -33 52 -53 79 -63 89 -114 217
-114 289 0 45 7 76 69 291 32 109 40 156 41 215 0 30 5 71 11 90 6 19 14 78
19 130 16 173 19 179 183 342 120 119 154 159 199 238 50 85 85 166 116 270
20 64 32 260 23 345 -17 144 -102 268 -279 407 -167 130 -332 203 -597 262
-96 21 -462 22 -532 1 -94 -29 -140 -21 -388 60 -190 63 -361 85 -653 85 -176
0 -406 -19 -433 -36 -5 -3 -35 -9 -66 -15 -32 -5 -107 -25 -168 -44 -130 -42
-158 -43 -201 -10 -18 14 -63 39 -101 56 -37 17 -88 41 -113 54 -25 12 -56 26
-70 30 -14 4 -43 15 -65 25 -104 48 -186 73 -284 86 -118 15 -134 16 -206 2z
m-130 -369 c0 -9 -44 -63 -99 -120 -54 -57 -135 -151 -180 -208 -44 -57 -86
-110 -92 -117 -6 -8 -16 -14 -23 -14 -21 0 -11 45 22 94 83 126 136 203 150
218 7 7 32 38 54 69 58 78 89 101 132 97 25 -2 36 -8 36 -19z m2065 11 c199
-24 415 -64 465 -85 17 -7 43 -18 58 -24 40 -16 43 -35 12 -106 -36 -85 -31
-157 21 -326 10 -33 14 -99 14 -228 0 -125 5 -199 14 -239 15 -57 21 -97 51
-312 41 -298 112 -427 265 -483 63 -23 191 -22 320 4 166 33 174 35 197 47 26
14 70 16 77 3 8 -13 -11 -271 -23 -306 -5 -16 -19 -75 -31 -130 -48 -231 -129
-431 -237 -586 -55 -79 -265 -300 -343 -360 -38 -30 -126 -88 -188 -124 -142
-83 -245 -128 -427 -184 -340 -105 -804 -119 -1100 -34 -114 33 -332 126 -410
175 -172 108 -350 269 -428 388 -20 30 -57 85 -82 123 -101 151 -220 455 -241
617 -21 154 -5 544 26 670 30 118 68 245 85 285 7 17 18 48 25 70 82 260 236
520 415 700 137 138 304 249 503 331 17 8 47 20 65 28 17 8 52 19 77 24 25 6
68 16 95 22 168 40 554 61 725 40z m1078 -192 c17 -17 15 -36 -6 -66 -10 -15
-36 -67 -57 -117 -20 -49 -46 -102 -56 -117 -11 -14 -19 -30 -19 -35 0 -15
-36 -44 -43 -36 -10 9 -9 60 2 102 5 20 15 67 21 105 18 112 60 176 115 176
17 0 36 -5 43 -12z m-2764 -127 c13 -20 -12 -58 -111 -174 -29 -34 -53 -67
-53 -73 0 -10 -149 -151 -177 -168 -8 -4 -13 -2 -13 7 0 8 39 55 86 103 47 49
97 107 111 129 14 22 39 55 55 73 16 19 40 51 53 73 25 39 39 47 49 30z m2935
-89 c13 -24 6 -95 -13 -130 -8 -15 -29 -65 -46 -112 -31 -81 -104 -227 -140
-280 -30 -44 -102 -193 -117 -242 -14 -48 -39 -73 -61 -59 -7 4 -12 37 -13 81
-1 68 2 81 35 143 20 38 36 75 36 83 0 16 36 85 99 189 20 33 45 78 54 100 10
22 25 51 33 65 8 14 29 54 45 90 17 35 35 70 41 77 15 18 36 16 47 -5z m611
-197 c19 -23 8 -50 -20 -50 -21 0 -26 5 -28 33 -3 26 0 32 16 32 11 0 25 -7
32 -15z m-474 -176 c-110 -224 -180 -351 -199 -363 -12 -8 -20 -7 -29 2 -10
10 -9 19 6 45 15 27 107 200 135 256 5 9 30 60 56 114 56 116 71 135 92 114
13 -12 5 -34 -61 -168z m384 -130 c0 -31 -90 -190 -124 -218 -21 -17 -39 -4
-32 24 5 19 48 97 102 183 15 22 54 31 54 11z m-314 -1956 c16 -21 37 -49 46
-63 9 -14 27 -36 39 -49 36 -37 123 -167 271 -404 32 -51 61 -97 66 -102 5 -6
22 -35 38 -65 17 -30 43 -75 59 -100 31 -48 48 -79 119 -217 26 -48 60 -110
77 -138 16 -27 41 -75 56 -105 14 -30 52 -111 86 -180 57 -120 142 -322 193
-460 13 -36 28 -74 34 -85 5 -11 25 -69 44 -130 19 -60 42 -130 51 -155 9 -25
20 -58 25 -75 4 -16 13 -43 19 -60 9 -27 27 -94 77 -290 8 -33 20 -74 25 -91
5 -17 9 -38 9 -48 0 -10 7 -50 16 -90 8 -39 22 -102 31 -140 8 -38 19 -105 24
-150 5 -44 13 -115 19 -156 18 -142 24 -445 11 -583 -18 -211 -49 -364 -131
-657 -40 -142 -56 -185 -127 -330 -88 -180 -130 -233 -264 -332 -144 -105
-247 -150 -439 -191 -41 -9 -107 -23 -146 -31 -40 -9 -89 -16 -110 -16 -22 -1
-59 -5 -84 -11 -25 -6 -133 -15 -240 -20 -107 -5 -224 -13 -260 -17 -71 -8
-281 0 -455 16 -109 11 -176 28 -267 71 -113 54 -98 192 32 285 139 100 265
131 585 144 161 7 185 10 216 29 46 29 66 65 53 100 -10 29 -74 78 -114 88
-41 10 -142 87 -182 140 -78 102 -138 324 -138 502 1 144 27 376 54 468 8 28
24 86 36 130 45 167 167 382 276 486 107 101 174 141 304 180 36 11 89 27 118
35 71 21 297 15 357 -10 73 -30 119 -59 174 -105 125 -106 152 -113 208 -59
43 42 42 70 -4 127 -70 85 -128 130 -229 181 -91 46 -110 52 -200 61 -322 31
-624 -57 -835 -244 -95 -84 -127 -125 -231 -297 -58 -96 -148 -311 -148 -355
0 -9 -5 -25 -11 -37 -6 -11 -15 -45 -19 -77 -5 -31 -14 -83 -19 -116 -6 -33
-15 -153 -20 -266 -8 -170 -7 -222 5 -299 8 -51 19 -101 25 -111 5 -10 9 -27
9 -38 0 -19 7 -37 52 -137 10 -23 36 -67 58 -98 22 -31 40 -61 40 -66 0 -18
-46 -40 -96 -46 -27 -3 -67 -12 -89 -19 -22 -7 -65 -18 -95 -25 -30 -7 -65
-18 -77 -26 -12 -8 -34 -14 -48 -14 -28 0 -34 25 -13 63 11 21 16 45 37 172 4
28 13 62 19 76 8 21 17 136 13 191 -2 28 -49 75 -82 82 -31 6 -92 -15 -106
-37 -3 -6 -10 -44 -14 -86 -9 -90 -25 -179 -45 -241 -8 -25 -14 -58 -14 -75 0
-16 -12 -61 -26 -100 -14 -38 -34 -99 -46 -135 -35 -112 -83 -194 -155 -267
-57 -57 -81 -74 -148 -100 -146 -58 -196 -65 -430 -60 -224 5 -331 21 -393 59
-56 35 -67 61 -67 164 0 82 2 95 23 117 34 36 92 49 253 56 134 5 149 8 182
31 38 26 43 36 72 135 10 33 24 75 31 93 8 18 14 42 14 54 0 12 6 44 14 72 8
28 19 74 25 101 5 28 16 82 24 120 9 39 20 97 26 130 7 33 18 89 26 125 9 36
15 79 15 97 0 17 5 44 11 60 6 15 15 57 20 93 5 36 14 85 19 110 19 84 53 255
57 285 2 17 10 77 19 135 8 58 19 134 24 170 5 36 15 97 21 135 13 86 13 183
0 218 -6 15 -26 34 -45 44 -29 14 -39 14 -66 3 -40 -17 -68 -57 -79 -116 -10
-52 -31 -186 -38 -244 -2 -19 -10 -75 -18 -125 -8 -49 -21 -144 -30 -210 -21
-154 -42 -291 -61 -383 -7 -40 -14 -87 -14 -104 0 -18 -4 -57 -10 -87 -5 -31
-16 -101 -25 -156 -10 -55 -21 -111 -27 -125 -6 -14 -14 -50 -19 -80 -19 -118
-44 -180 -74 -180 -25 0 -277 260 -355 365 -22 29 -44 56 -50 60 -17 10 -103
143 -153 235 -51 96 -111 237 -133 320 -55 196 -55 200 -56 380 0 96 5 213 11
260 6 47 12 126 13 175 2 100 -13 138 -60 156 -60 23 -137 -37 -146 -114 -11
-90 -26 -420 -27 -577 -1 -91 -5 -221 -11 -290 -5 -69 -14 -210 -18 -315 -10
-234 -26 -402 -39 -439 -6 -15 -11 -47 -11 -72 0 -25 -7 -61 -15 -81 -8 -19
-15 -52 -15 -72 -1 -20 -7 -47 -15 -61 -8 -14 -14 -35 -15 -46 -1 -61 -90
-185 -180 -251 -107 -79 -246 -120 -441 -130 -116 -6 -144 -2 -307 39 -58 15
-108 71 -118 133 -19 132 83 232 291 285 112 28 162 55 191 102 29 46 64 150
64 193 0 17 5 46 11 65 5 19 14 80 19 135 4 55 13 154 19 220 16 193 31 453
31 550 0 50 4 128 10 175 5 47 11 173 14 280 4 189 10 274 41 545 21 176 34
303 44 405 4 47 13 98 20 113 6 16 11 58 11 95 0 37 7 89 15 116 8 27 15 66
15 87 0 55 20 177 36 222 8 20 14 59 14 86 0 27 7 65 15 84 8 20 15 52 15 70
0 19 6 52 13 73 16 45 60 221 77 309 7 33 17 74 22 90 6 17 14 46 18 65 10 42
82 250 93 268 15 23 37 12 110 -56 41 -37 121 -100 178 -139 107 -73 312 -183
339 -183 9 0 20 -4 26 -9 20 -19 221 -73 334 -91 30 -4 87 -13 125 -19 144
-22 409 -8 635 34 41 7 107 19 145 25 39 7 102 23 141 36 39 13 79 24 90 24
11 0 29 7 40 15 10 8 24 15 31 15 13 0 186 78 248 111 22 12 90 53 151 90 160
100 351 289 487 482 23 31 48 57 57 57 9 0 30 -17 46 -37z m2231 -3438 c19 -8
43 -15 52 -15 18 0 143 -60 221 -106 161 -94 307 -278 363 -459 14 -44 31
-130 37 -192 13 -116 13 -115 -27 -283 -34 -146 -175 -337 -315 -428 -182
-119 -471 -168 -709 -122 -123 23 -278 96 -357 166 -58 51 -57 46 -33 139 25
102 34 132 47 163 8 18 14 41 14 51 0 10 11 61 24 112 13 52 26 106 30 122 8
34 29 35 69 1 16 -14 61 -41 98 -60 63 -31 75 -34 161 -34 84 0 98 3 143 29
115 66 175 164 175 285 0 79 -59 158 -127 172 -37 7 -117 -27 -138 -60 -14
-21 -15 -29 -3 -53 7 -15 28 -37 45 -48 62 -38 50 -96 -27 -135 -81 -41 -181
-15 -275 71 -68 63 -75 86 -75 246 l0 138 34 51 c62 92 250 233 312 234 11 1
30 7 44 15 34 20 170 20 217 0z"/>
<path d="M4830 8189 c-109 -44 -170 -186 -125 -293 26 -61 90 -123 135 -131
48 -8 106 19 149 72 41 49 54 102 48 185 -5 81 -36 130 -101 159 -46 21 -69
22 -106 8z"/>
<path d="M5970 7964 c-59 -26 -101 -65 -126 -118 -63 -134 10 -273 152 -290
29 -3 65 -1 81 5 65 24 117 100 138 204 11 50 11 66 -1 95 -14 33 -62 80 -108
107 -29 17 -94 15 -136 -3z"/>
<path d="M5065 7665 c-63 -14 -82 -25 -121 -67 -79 -83 -67 -156 44 -265 l74
-73 -11 -68 c-7 -37 -16 -94 -22 -127 -6 -33 -16 -69 -24 -81 -13 -21 -74 -44
-115 -44 -69 0 -132 -72 -108 -125 25 -56 106 -79 197 -56 123 31 134 32 186
13 28 -11 81 -34 118 -52 122 -58 195 -49 218 28 21 72 -30 125 -166 172 -33
11 -70 27 -83 36 -24 15 -24 19 -18 98 12 156 18 184 37 205 22 23 29 24 104
21 58 -2 131 23 145 51 32 58 -24 197 -104 260 -36 29 -179 75 -246 81 -31 2
-78 -1 -105 -7z"/>
</g>
</svg>
