<svg width="277" height="156" viewBox="0 0 277 156" fill="none" xmlns="http://www.w3.org/2000/svg">
<g clip-path="url(#clip0_9419_9831)">
<path d="M25.631 38.2174C25.631 38.2174 37.1679 27.1361 49.185 42.7461C49.185 42.7461 58.8257 56.4415 40.1774 66.0522C40.1774 66.0522 33.5543 68.1579 33.7132 60.5636C33.7132 60.5636 36.5651 54.7355 32.7356 50.6647C32.7356 50.6647 29.6459 47.7094 24.499 47.3914C24.499 47.3914 17.4472 45.1687 25.631 38.2174Z" fill="black"/>
<path d="M62.0315 35.2331C57.3547 36.8768 52.9163 37.8455 50.7636 34.7488C48.6115 31.6524 50.1681 26.8478 54.2391 24.0181C58.3099 21.1891 63.3543 21.4057 65.5073 24.5028C67.6594 27.5993 67.8389 33.1914 62.0315 35.2331Z" fill="black"/>
<path d="M68.9733 50.3224C64.199 52.8174 58.8592 52.0274 57.0466 48.559C55.234 45.0905 58.264 40.1882 62.4086 37.7606C67.0566 35.0369 72.5231 36.0553 74.3357 39.5238C76.1483 42.9922 73.7481 47.8271 68.9733 50.3224Z" fill="black"/>
<path d="M63.0192 65.6923C59.2929 67.6397 56.0431 66.1034 53.433 63.7881C50.9008 61.5412 53.6165 56.7776 57.3427 54.8303C61.069 52.8829 64.8411 54.0724 66.9292 56.735C69.2171 59.6525 66.7455 63.745 63.0192 65.6923Z" fill="black"/>
<path d="M38.9677 19.6662C35.2415 21.6135 34.6472 25.1587 35.058 28.624C35.4565 31.9853 40.9182 32.4761 44.6445 30.5287C48.3707 28.5814 49.5478 24.8054 48.5542 21.5709C47.4655 18.0273 42.694 17.7189 38.9677 19.6662Z" fill="black"/>
</g>
<g clip-path="url(#clip1_9419_9831)">
<path d="M217.022 31.2213C217.022 31.2213 228.559 20.1401 240.576 35.7501C240.576 35.7501 250.216 49.4454 231.568 59.0561C231.568 59.0561 224.945 61.1618 225.104 53.5675C225.104 53.5675 227.956 47.7394 224.126 43.6686C224.126 43.6686 221.036 40.7133 215.89 40.3953C215.89 40.3953 208.838 38.1726 217.022 31.2213Z" fill="black"/>
<path d="M253.422 28.237C248.745 29.8807 244.307 30.8495 242.154 27.7528C240.002 24.6563 241.559 19.8517 245.63 17.022C249.701 14.193 254.745 14.4096 256.898 17.5067C259.05 20.6032 259.229 26.1953 253.422 28.237Z" fill="black"/>
<path d="M260.364 43.3263C255.59 45.8213 250.25 45.0314 248.437 41.5629C246.625 38.0944 249.655 33.1922 253.799 30.7645C258.447 28.0408 263.914 29.0592 265.726 32.5277C267.539 35.9961 265.139 40.831 260.364 43.3263Z" fill="black"/>
<path d="M254.41 58.6962C250.684 60.6436 247.434 59.1073 244.824 56.792C242.291 54.5451 245.007 49.7815 248.733 47.8342C252.46 45.8868 256.232 47.0764 258.32 49.7389C260.608 52.6564 258.136 56.7489 254.41 58.6962Z" fill="black"/>
<path d="M230.358 12.674C226.632 14.6213 226.038 18.1665 226.449 21.6318C226.847 24.9931 232.309 25.4839 236.035 23.5365C239.761 21.5892 240.938 17.8132 239.945 14.5787C238.856 11.0352 234.085 10.7267 230.358 12.674Z" fill="black"/>
</g>
<g clip-path="url(#clip2_9419_9831)">
<path d="M173.272 107.463C173.272 107.463 184.809 96.3822 196.826 111.992C196.826 111.992 206.466 125.688 187.818 135.298C187.818 135.298 181.195 137.404 181.354 129.81C181.354 129.81 184.206 123.982 180.376 119.911C180.376 119.911 177.286 116.955 172.14 116.638C172.14 116.638 165.088 114.415 173.272 107.463Z" fill="black"/>
<path d="M209.672 104.479C204.995 106.123 200.557 107.092 198.404 103.995C196.252 100.898 197.809 96.0939 201.88 93.2642C205.951 90.4352 210.995 90.6518 213.148 93.7489C215.3 96.8454 215.479 102.437 209.672 104.479Z" fill="black"/>
<path d="M216.614 119.568C211.84 122.064 206.5 121.274 204.687 117.805C202.875 114.337 205.905 109.434 210.049 107.007C214.697 104.283 220.164 105.301 221.976 108.77C223.789 112.238 221.389 117.073 216.614 119.568Z" fill="black"/>
<path d="M210.66 134.938C206.934 136.886 203.684 135.349 201.074 133.034C198.541 130.787 201.257 126.024 204.983 124.076C208.71 122.129 212.482 123.319 214.57 125.981C216.858 128.899 214.386 132.991 210.66 134.938Z" fill="black"/>
<path d="M186.608 88.9123C182.882 90.8596 182.288 94.4048 182.699 97.8701C183.097 101.231 188.559 101.722 192.285 99.7748C196.011 97.8275 197.188 94.0515 196.195 90.817C195.106 87.2734 190.335 86.965 186.608 88.9123Z" fill="black"/>
</g>
<defs>
<clipPath id="clip0_9419_9831">
<rect width="54.0693" height="67.5866" fill="white" transform="translate(60.5156 6.99609) rotate(62.4086)"/>
</clipPath>
<clipPath id="clip1_9419_9831">
<rect width="54.0693" height="67.5866" fill="white" transform="translate(251.898) rotate(62.4086)"/>
</clipPath>
<clipPath id="clip2_9419_9831">
<rect width="54.0693" height="67.5866" fill="white" transform="translate(208.148 76.2422) rotate(62.4086)"/>
</clipPath>
</defs>
</svg>
