<svg width="69" height="70" viewBox="0 0 69 70" fill="none" xmlns="http://www.w3.org/2000/svg">
<path d="M11.2638 29.4634C11.2638 29.4634 22.8007 18.3822 34.8178 33.9922C34.8178 33.9922 44.4586 47.6876 25.8102 57.2983C25.8102 57.2983 19.1871 59.404 19.3461 51.8096C19.3461 51.8096 22.1979 45.9816 18.3685 41.9108C18.3685 41.9108 15.2787 38.9555 10.1319 38.6375C10.1319 38.6375 3.08001 36.4148 11.2638 29.4634Z" fill="black"/>
<path d="M47.6643 26.4811C42.9875 28.1248 38.5491 29.0936 36.3964 25.9969C34.2444 22.9004 35.8009 18.0959 39.8719 15.2662C43.9428 12.4372 48.9871 12.6537 51.1401 15.7509C53.2922 18.8473 53.4717 24.4394 47.6643 26.4811Z" fill="black"/>
<path d="M54.6061 41.5685C49.8318 44.0635 44.4921 43.2735 42.6794 39.8051C40.8668 36.3366 43.8969 31.4343 48.0414 29.0067C52.6894 26.283 58.1559 27.3014 59.9685 30.7698C61.7811 34.2383 59.3809 39.0732 54.6061 41.5685Z" fill="black"/>
<path d="M48.652 56.9384C44.9257 58.8857 41.6759 57.3495 39.0658 55.0342C36.5336 52.7873 39.2493 48.0237 42.9755 46.0764C46.7018 44.129 50.4739 45.3185 52.562 47.9811C54.8499 50.8986 52.3783 54.9911 48.652 56.9384Z" fill="black"/>
<path d="M24.6005 10.9142C20.8743 12.8616 20.28 16.4068 20.6908 19.8721C21.0893 23.2333 26.551 23.7241 30.2773 21.7768C34.0035 19.8294 35.1807 16.0535 34.187 12.819C33.0984 9.27539 28.3268 8.96691 24.6005 10.9142Z" fill="black"/>
</svg>
