<svg width="176" height="165" viewBox="0 0 176 165" fill="none" xmlns="http://www.w3.org/2000/svg">
<path d="M130.022 0.172256C126.264 0.912979 123.518 4.56239 123.518 8.82607C123.518 10.1449 123.5 10.181 122.976 10.4882C122.254 10.9037 121.82 11.9154 121.983 12.8729C122.091 13.5956 123.103 15.6552 123.645 16.2694C123.789 16.432 124.151 16.6308 124.422 16.685C124.891 16.7934 124.927 16.8837 125.054 17.9315C125.108 18.5639 125.397 19.7201 125.668 20.515C126.138 21.852 126.156 22.0146 125.921 22.7733C125.596 23.9477 124.151 25.1942 121.874 26.3505C120.862 26.8383 119.923 27.2538 119.742 27.2538C118.839 27.2538 114.828 28.4101 113.69 29.0063C111.956 29.9096 110.42 31.4814 109.571 33.2157C108.668 35.0404 108.324 36.3954 108.216 38.5453C108.144 40.0629 108.053 40.5146 107.62 41.3456C106.59 43.3871 106.102 45.1034 106.066 46.9462C106.048 48.1024 105.885 49.2406 105.56 50.4691C105.307 51.4628 105.09 52.4745 105.09 52.7094C105.09 52.9623 104.783 53.4682 104.314 53.974C102.67 55.7265 101.08 59.3578 100.736 62.14C100.61 63.1337 100.321 64.3622 100.032 65.1029C99.526 66.3495 97.1774 72.745 96.2921 75.2201C95.8585 76.4667 95.8404 76.5028 94.7926 76.9726C93.9977 77.352 93.3834 77.8578 92.2633 79.0863C91.1612 80.3148 90.4928 80.8568 89.5533 81.3627C87.9093 82.2118 87.548 82.8803 88.2887 83.621C88.7584 84.0907 90.0953 84.0907 91.1612 83.621C91.5948 83.4223 91.9742 83.2597 91.9923 83.2597C92.0284 83.2597 91.5406 84.3798 90.9264 85.7348C90.2941 87.1078 89.7159 88.4809 89.6075 88.7699C89.3727 89.4565 89.5895 90.0707 90.1676 90.3236C90.4386 90.4501 90.6373 90.7211 90.6734 91.0102C90.7096 91.2812 90.9264 91.5702 91.2335 91.7509C91.6852 92.0038 91.7755 91.9858 92.2814 91.6967C92.8053 91.4076 92.8776 91.4076 93.1666 91.6606C93.6183 92.0761 93.9977 91.9858 94.7565 91.3173C95.2804 90.8295 95.5333 90.7211 95.9308 90.7934C96.6715 90.9379 97.2135 90.4682 98.0445 88.9145C98.4781 88.1376 99.255 86.7646 99.797 85.8612C101.188 83.5126 101.513 82.5732 101.622 80.4774L101.712 78.6889L102.832 76.9545C105.759 72.4018 107.295 69.5473 109.246 64.8861C109.95 63.224 110.872 61.1645 111.269 60.3334C111.956 58.9242 112.01 58.7074 111.974 57.4608L111.956 56.1239L112.751 55.2567C113.672 54.2631 114.377 52.9623 114.666 51.7157C114.792 51.2279 115.099 50.3427 115.388 49.7465C115.659 49.1503 115.966 48.4638 116.075 48.2108C116.255 47.7773 116.274 47.7953 116.274 48.4638C116.292 49.4032 117.05 52.7636 118.026 56.1059L118.803 58.87L118.478 59.6288C117.809 61.2187 117.484 63.3324 117.719 64.579C117.863 65.3559 117.845 65.663 117.538 66.4579C116.96 67.9755 116.671 69.475 116.581 71.5165C116.508 73.0702 116.364 73.7567 115.84 75.3105C115.226 77.0629 115.153 77.4784 114.919 80.911C114.25 90.5585 114.485 95.9965 115.948 105.536C116.472 108.878 116.49 109.384 116.436 112.943L116.364 116.773L115.442 119.302C114.069 123.096 113.708 124.83 113.708 127.522C113.69 130.034 113.997 131.551 115.75 137.911C116.834 141.921 117.303 144.306 117.592 147.45C117.773 149.581 117.773 150.105 117.502 151.749C117.303 152.906 117.087 153.701 116.924 153.827C116.779 153.935 115.966 154.116 115.117 154.225C112.154 154.604 110.474 156.085 110.474 158.253C110.492 159.988 111.378 160.819 113.925 161.505C115.334 161.867 115.533 161.993 116.472 162.951C117.032 163.511 117.809 164.125 118.207 164.288C119.291 164.739 121.26 164.811 122.344 164.432C123.157 164.143 123.301 163.998 123.789 163.023L124.331 161.939L124.277 158.958C124.241 156.573 124.295 155.796 124.548 154.983C124.982 153.592 124.927 151.262 124.422 149.654C124.132 148.75 124.006 147.721 123.934 146.004C123.789 142.481 124.096 140.747 125.885 134.767C126.716 131.967 126.77 131.696 126.77 129.708C126.77 128.444 126.626 126.709 126.391 125.354C126.192 124.108 125.957 122.446 125.867 121.669L125.704 120.242L126.662 118.038C129.137 112.473 130.528 105.969 131.124 97.3876C131.395 93.5395 131.269 89.5107 130.745 84.9218L130.347 81.453L130.799 80.7665C131.052 80.4052 131.359 79.8813 131.485 79.5922C131.72 79.0863 132.009 78.9418 132.009 79.3212C132.009 79.4477 132.335 79.9897 132.732 80.5316C133.111 81.0556 133.401 81.5976 133.346 81.706C133.238 82.0312 132.569 88.2641 132.443 90.2152C132.298 92.4193 132.642 99.7362 133.003 102.753C133.726 108.589 135.243 114.262 137.158 118.399C137.953 120.097 137.971 120.657 137.429 124.072C136.508 129.708 136.58 131.136 137.899 135.309C139.995 141.957 140.356 145.86 139.236 149.871C138.676 151.876 138.622 152.924 138.965 154.261C139.182 155.074 139.308 156.519 139.399 158.958C139.507 162.264 139.525 162.535 139.959 163.294C140.555 164.36 141.621 164.775 143.482 164.667C145.18 164.559 146.137 164.143 147.059 163.113C147.944 162.12 148.486 161.812 150.076 161.397C152.298 160.819 153.147 159.934 153.147 158.181C153.147 156.14 151.467 154.64 148.721 154.243C146.643 153.935 146.553 153.881 146.3 152.906C145.487 149.708 146.047 144.83 147.998 137.73C149.57 132.021 149.949 130.124 149.931 127.703C149.931 125.192 149.606 123.512 148.522 120.386C147.095 116.303 147.131 116.448 147.113 112.166C147.113 108.878 147.167 107.956 147.51 106.204C148.341 101.868 149.172 93.2323 149.172 88.9506C149.172 86.6562 148.685 79.1767 148.432 77.8036C148.341 77.2436 147.98 75.9789 147.655 75.0033C147.185 73.6122 147.023 72.8354 146.95 71.3178C146.86 69.5473 146.318 66.8192 145.902 66.0605C145.776 65.8437 145.794 65.3739 145.902 64.7055C146.137 63.477 145.921 61.9232 145.288 60.0985L144.855 58.8339L145.65 56.0517C146.372 53.5404 147.131 50.3969 147.456 48.4818L147.583 47.7592L147.818 48.4999C147.926 48.8974 148.197 49.5478 148.396 49.9452C148.594 50.3246 148.865 51.1015 148.992 51.6435C149.299 53.0165 149.877 54.0824 150.961 55.3109L151.864 56.3407L151.756 57.497C151.666 58.5268 151.72 58.7616 152.298 60.0624C152.659 60.8393 153.472 62.7724 154.141 64.3622C156.218 69.3485 158.675 74.0277 161.223 77.7494C161.927 78.7973 161.963 78.9057 162.036 80.5497C162.144 82.4828 162.469 83.5849 163.409 85.1566C163.77 85.7528 164.565 87.1801 165.161 88.3183C166.317 90.5224 167.058 91.245 167.727 90.8837C167.98 90.7392 168.16 90.8295 168.648 91.3173C169.298 91.9858 169.84 92.0942 170.31 91.6606C170.599 91.4076 170.672 91.4076 171.177 91.6967C171.972 92.1484 172.731 91.8774 172.803 91.0824C172.839 90.703 172.984 90.4682 173.219 90.3959C173.418 90.3236 173.689 90.0888 173.833 89.872C174.158 89.3661 174.086 89.1132 172.514 85.6986C171.918 84.3979 171.466 83.3319 171.484 83.2958C171.521 83.2597 171.792 83.35 172.081 83.5126C172.37 83.6571 172.984 83.8739 173.436 83.9823C174.447 84.1991 175.116 83.9823 175.405 83.35C175.73 82.6454 175.351 82.1034 174.086 81.435C173.309 81.0194 172.532 80.351 171.43 79.1767C170.292 77.9301 169.642 77.37 168.865 77.0087L167.817 76.5209L166.426 72.7089C165.649 70.6132 164.583 67.7948 164.041 66.4579C163.3 64.6332 163.011 63.6576 162.885 62.5917C162.56 59.7191 161.169 56.2685 159.452 54.1366C158.964 53.5224 158.567 52.8539 158.567 52.6552C158.567 52.4384 158.35 51.4267 158.097 50.3788C157.808 49.2045 157.609 47.9037 157.591 46.9462C157.555 45.2841 156.833 42.809 155.911 41.1649C155.532 40.4965 155.46 40.1352 155.478 39.0692C155.586 34.7875 153.364 30.7768 149.931 28.9882C148.685 28.3559 144.963 27.2538 143.987 27.2538C143.5 27.2538 140.483 25.7182 139.308 24.869C137.953 23.8935 137.176 22.2133 137.718 21.3822C138.044 20.8944 138.694 18.3471 138.694 17.5702C138.694 17.0463 138.784 16.9198 139.326 16.703C140.338 16.2694 141.765 13.7943 141.765 12.4574C141.765 11.6625 141.205 10.705 140.591 10.4159C140.175 10.2352 140.139 10.1268 140.139 8.95253C140.139 4.63466 137.285 0.876846 133.455 0.15419C132.335 -0.0626068 131.16 -0.0445404 130.022 0.172256ZM133.527 0.786514C137.158 1.56337 139.597 4.94179 139.597 9.20546C139.597 10.5785 139.597 10.5966 140.139 10.8134C141.314 11.3012 141.548 12.5297 140.754 14.1195C139.977 15.6732 139.471 16.2333 138.857 16.2333C138.387 16.2333 138.333 16.2875 138.333 16.8114C138.333 17.5341 137.7 20.4608 137.447 20.8944C137.303 21.1654 137.267 21.1474 137.176 20.7499C137.122 20.497 136.942 19.7201 136.797 19.0336C136.219 16.4862 135.243 14.8964 133.78 14.1737C132.696 13.6317 131.775 13.5775 130.401 13.9931C128.486 14.5531 127.457 16.0346 126.77 19.2143C126.571 20.1898 126.373 21.039 126.337 21.057C126.228 21.1654 125.668 18.9433 125.433 17.6064C125.234 16.414 125.198 16.3236 124.729 16.2694C124.151 16.1972 123.554 15.4926 122.904 14.0653C122.145 12.4393 122.362 11.2831 123.518 10.8134C124.042 10.5966 124.042 10.5785 124.042 9.11513C124.042 7.34462 124.277 6.2245 124.927 4.88759C126.192 2.26796 128.757 0.641983 131.738 0.533585C132.046 0.533585 132.84 0.641983 133.527 0.786514ZM133.617 14.5892C133.979 14.788 134.376 15.0409 134.484 15.1854C134.593 15.3119 134.719 16.2333 134.792 17.227C134.9 19.0517 135.225 21.7074 135.37 22.1772C135.424 22.3398 135.514 22.3759 135.623 22.2675C135.749 22.141 135.713 21.3822 135.55 20.1176C135.261 17.9135 135.099 16.0526 135.207 16.0526C135.442 16.0526 136.074 18.0219 136.616 20.3705C136.96 21.87 137.357 23.3153 137.502 23.5863C137.881 24.3271 138.802 25.14 140.32 26.0614L141.657 26.8925H139.651C137.285 26.8925 135.803 27.2719 134.448 28.2294C133.238 29.0966 132.642 30.0722 132.28 31.7343C131.865 33.559 131.775 33.7758 131.702 33.2157C131.522 32.0053 130.853 29.9818 130.456 29.3676C129.408 27.7777 127.095 26.8925 123.988 26.8925H121.983L123.067 26.2421C124.53 25.3568 125.578 24.4897 126.011 23.767C126.21 23.4599 126.589 22.1772 126.86 20.9306C127.421 18.3109 127.944 16.6127 128.306 16.1249C128.559 15.8178 128.559 15.9081 128.468 17.0463C128.414 17.7328 128.252 19.1601 128.107 20.1898C127.944 21.4184 127.908 22.141 128.035 22.2675C128.143 22.3759 128.234 22.3398 128.288 22.1772C128.45 21.6713 128.757 19.0697 128.866 17.2631C128.938 16.2514 129.083 15.3119 129.191 15.1674C129.896 14.2821 132.371 13.9569 133.617 14.5892ZM127.402 27.8139C128.938 28.2836 130.058 29.2953 130.564 30.6322C130.763 31.1923 131.106 32.5834 131.287 33.7216C131.612 35.5282 131.648 36.6664 131.648 42.9355V50.0898L130.98 49.2948C125.74 43.2245 124.566 41.2914 122.976 35.9799C122.163 33.288 121.675 32.2221 120.591 30.6503C119.887 29.6386 118.279 28.3378 117.737 28.3378C116.635 28.3017 120.23 27.5429 122.254 27.3622C123.717 27.2357 126.264 27.4525 127.402 27.8139ZM143.987 27.7055C146.372 28.1933 146.264 28.121 145.397 28.5546C143.427 29.5302 142 31.7885 140.609 36.0883C138.857 41.5082 138.08 42.7909 132.335 49.7284C132.027 50.0898 132.009 49.7646 132.009 42.9355C132.009 35.3114 132.19 32.9267 132.931 30.9574C133.906 28.3197 136.454 27.1454 140.735 27.3441C141.801 27.3983 143.265 27.5609 143.987 27.7055ZM118.405 29.1689C119.236 29.6566 120.338 30.831 120.754 31.7162C121.025 32.2401 121.007 32.3305 120.628 33.1615C120.393 33.6313 119.652 34.5707 119.002 35.2211C117.068 37.1361 114.756 38.3647 111.143 39.3764C110.149 39.6474 109.192 39.9364 109.011 40.0087C108.74 40.099 108.704 39.9726 108.704 38.8344C108.704 34.3539 111.07 30.5419 114.81 28.9521C116.057 28.4281 117.249 28.5004 118.405 29.1689ZM149.498 29.2592C152.027 30.4877 154.05 33.1796 154.683 36.1967C154.9 37.2626 155.062 40.081 154.9 40.081C154.863 40.081 153.852 39.7919 152.623 39.4486C149.985 38.6898 147.51 37.5517 146.029 36.3954C144.818 35.456 143.373 33.83 142.94 32.9086C142.669 32.3305 142.669 32.2582 143.03 31.4994C143.518 30.5058 144.963 29.1869 145.975 28.8075C147.023 28.4281 148.07 28.5546 149.498 29.2592ZM122.452 35.8173C122.868 37.1181 123.356 38.6176 123.554 39.1596C123.735 39.6835 123.843 40.1713 123.789 40.2436C123.717 40.2978 123.085 40.37 122.344 40.4062C120.429 40.5146 119.435 40.1352 117.972 38.744L116.779 37.6239L117.809 36.8651C119.291 35.727 120.754 34.1913 121.025 33.4687C121.224 32.9086 121.278 32.8725 121.477 33.1435C121.585 33.3061 122.037 34.4984 122.452 35.8173ZM144.313 35.474C144.945 36.0883 145.74 36.7748 146.083 37.0458C146.697 37.5155 146.697 37.5336 146.408 37.9672C146.047 38.5273 144.764 39.5751 143.951 39.9906C143.229 40.352 141.585 40.5326 140.464 40.37L139.651 40.2436L140.681 37.2265C141.259 35.5644 141.856 33.8842 142.018 33.4867L142.343 32.7641L142.759 33.5771C142.994 34.0287 143.698 34.8778 144.313 35.474ZM147.294 38.6718C147.221 39.1957 147.167 41.3456 147.167 43.4413C147.185 47.8315 147.041 48.9877 145.83 53.4501C144.728 57.6054 144.042 59.5927 143.102 61.5439C142.488 62.8085 142.217 63.206 142.018 63.1337C141.856 63.0795 141.675 63.0253 141.585 63.0253C141.512 63.0253 141.205 62.5194 140.898 61.8871C140.609 61.2729 139.543 59.7553 138.531 58.5087C137.52 57.2621 136.454 55.7445 136.165 55.1122C135.514 53.7753 133.997 49.4032 133.997 48.8974C133.997 48.7167 134.792 47.5424 135.767 46.3139C136.725 45.0673 137.899 43.3871 138.369 42.5561C138.838 41.7431 139.29 40.9662 139.362 40.8578C139.471 40.6772 139.706 40.6772 140.32 40.8217C142.38 41.3095 144.511 40.5868 146.119 38.8344C146.661 38.2563 147.167 37.7685 147.257 37.7504C147.348 37.7504 147.348 38.1479 147.294 38.6718ZM117.52 38.9608C118.116 39.557 118.965 40.2074 119.435 40.4242C120.483 40.9301 122.145 41.1107 123.283 40.8217C123.753 40.6952 124.169 40.6591 124.187 40.7494C124.458 41.5624 126.282 44.3446 127.8 46.2235C128.83 47.5243 129.661 48.7167 129.661 48.8974C129.661 49.4213 128.107 53.8656 127.529 55.0219C127.222 55.6181 126.228 57.0092 125.325 58.1293C123.482 60.3695 122.434 61.9955 122.434 62.5736C122.434 63.0976 122.326 63.1698 121.784 63.0614C120.7 62.8627 118.713 57.515 117.087 50.4691C116.617 48.4276 116.581 48.0121 116.563 43.7846C116.545 41.2914 116.472 38.9608 116.4 38.5815C116.31 38.2201 116.292 37.913 116.346 37.913C116.4 37.913 116.924 38.3827 117.52 38.9608ZM116.093 42.2489C116.111 46.1332 115.605 48.6264 114.485 50.1801C113.798 51.1376 112.751 51.4809 112.046 51.0292C111.233 50.5053 110.98 49.62 110.98 47.4882C110.98 45.7899 111.052 45.3925 111.612 43.6942C111.974 42.6464 112.407 41.2553 112.57 40.6049L112.895 39.4306L114.359 38.7982L115.84 38.184L115.966 38.9066C116.021 39.3041 116.093 40.8036 116.093 42.2489ZM151.359 41.725C151.72 42.9535 152.153 44.2904 152.316 44.6879C153.039 46.4042 152.84 49.6742 151.937 50.7401C151.449 51.3363 151.033 51.4086 150.293 51.0292C149.136 50.4149 148.323 48.8612 147.836 46.2416C147.547 44.706 147.456 40.8217 147.655 39.0692L147.763 38.1298L149.227 38.8163L150.69 39.4848L151.359 41.725ZM112.317 39.7919C112.317 39.9364 112.028 41.0204 111.667 42.1947C110.583 45.7899 109.336 47.6869 107.873 47.9579C107.096 48.1024 106.572 47.7773 106.445 47.0727C106.301 46.2777 106.915 44.0014 107.782 42.1586L108.487 40.641L109.824 40.2616C110.546 40.0448 111.341 39.81 111.594 39.7196C112.245 39.5028 112.317 39.5028 112.317 39.7919ZM153.418 40.1713C154.303 40.4423 155.098 40.7494 155.189 40.8578C156.002 42.0502 157.122 45.3383 157.122 46.4945C157.122 48.4276 155.767 48.536 154.141 46.7475C153.292 45.808 152.424 43.9652 151.792 41.7069C151.521 40.7675 151.25 39.8822 151.196 39.7377C151.124 39.5751 151.214 39.5209 151.449 39.6112C151.63 39.6654 152.515 39.9184 153.418 40.1713ZM110.962 50.4511C111.305 51.1737 112.154 51.8241 112.769 51.8241C112.967 51.8241 113.365 51.6977 113.654 51.5531C113.925 51.4086 114.196 51.2821 114.232 51.2821C114.377 51.2821 113.744 52.9804 113.347 53.685C112.769 54.6606 111.341 55.9975 110.312 56.5395C109.788 56.7924 109.083 56.9731 108.252 57.0273C107.132 57.0995 106.933 57.0453 106.463 56.684C105.289 55.7626 105.163 54.1728 105.994 50.7401L106.554 48.4638H107.421C108.415 48.4818 109.589 47.7953 110.113 46.9101L110.42 46.3861L110.528 48.0663C110.583 49.1503 110.745 49.9994 110.962 50.4511ZM155.333 48.3012C155.911 48.5722 156.164 48.6083 156.58 48.4457L157.086 48.265L157.646 50.5414C158.296 53.1791 158.35 54.6425 157.862 55.7445C157.339 56.8647 156.815 57.1357 155.351 57.0273C154.61 56.9731 153.834 56.7924 153.364 56.5395C151.738 55.7084 150.13 53.7934 149.624 52.0951C149.353 51.2099 149.389 51.1557 150.076 51.5531C150.744 51.9325 151.431 51.8783 152.027 51.3725C152.768 50.7582 153.147 49.5297 153.147 47.8134V46.4042L153.87 47.1991C154.267 47.6147 154.918 48.1205 155.333 48.3012ZM131.648 62.7182C131.648 76.4848 131.829 75.3647 130.004 72.9257C129.444 72.1669 128.378 70.4867 127.673 69.2221C125.542 65.4643 124.349 63.9286 123.067 63.3505C122.705 63.1879 122.669 63.0976 122.814 62.6278C123.03 61.8148 123.97 60.4418 125.668 58.4184C127.402 56.3407 128.36 54.498 129.426 51.2641L130.112 49.1322L130.889 49.891L131.648 50.6317V62.7182ZM135.496 54.6606C136.201 56.3227 136.472 56.7382 138.152 58.7797C139.579 60.496 140.428 61.7065 140.772 62.5556C141.025 63.1518 141.025 63.1698 140.591 63.2782C140.049 63.4228 138.531 64.8861 137.899 65.8979C137.628 66.3315 136.905 67.578 136.309 68.6801C135.008 71.0649 133.78 72.9257 132.768 74.0458L132.027 74.8588L132.009 62.7904V50.7401L132.75 49.9272L133.491 49.1142L134.177 51.1557C134.557 52.2577 135.153 53.8476 135.496 54.6606ZM160.446 56.5214C161.494 58.5268 161.927 59.8637 162.361 62.3568C162.578 63.6396 162.939 64.9223 163.337 65.8798C163.698 66.7108 164.384 68.4994 164.872 69.8544C165.36 71.2094 166.101 73.1967 166.498 74.2807C166.914 75.3466 167.239 76.286 167.239 76.3583C167.239 76.4306 166.733 76.5028 166.137 76.539C164.926 76.5751 163.824 76.9906 162.813 77.7675C162.253 78.183 162.126 78.2191 161.909 78.0023C161.458 77.5326 158.061 71.7514 157.049 69.7279C156.489 68.6259 155.405 66.205 154.61 64.3441C153.834 62.4652 152.966 60.496 152.713 59.9179C152.262 58.8881 152.172 58.4726 152.208 57.5331L152.244 57.0273L153.292 57.9848C153.87 58.5268 154.755 59.2494 155.279 59.5927L156.218 60.225L156.959 62.5736C158.332 66.9096 160.265 72.0585 160.518 72.0585C160.681 72.0585 160.735 71.9501 160.645 71.7333C159.651 69.2401 157.465 62.8627 157.013 61.1283C156.616 59.6107 156.598 57.8583 156.995 57.4608C157.284 57.1898 157.339 57.1898 157.953 57.515C158.784 57.9667 159.723 59.0507 160.283 60.2611C160.554 60.8212 160.988 62.5194 161.385 64.5067C162.722 71.4984 163.12 73.4135 163.192 73.4857C163.481 73.7929 163.427 72.9618 162.993 70.6674C161.403 62.1942 161.132 61.0199 160.572 59.8817C160.067 58.852 158.639 57.244 158.061 57.0453C157.88 56.9911 157.917 56.7563 158.188 56.1601C158.386 55.7084 158.567 54.9857 158.567 54.5341L158.585 53.7211L159.109 54.3534C159.398 54.6967 160.012 55.6723 160.446 56.5214ZM105.127 54.8593C105.181 55.3471 105.343 56.0155 105.524 56.3588C105.759 56.8105 105.777 56.9911 105.596 57.0453C105.488 57.0815 104.982 57.4789 104.512 57.9306C103.193 59.1591 102.507 60.767 101.857 64.019C100.339 71.661 100.032 73.3773 100.122 73.4677C100.357 73.7025 100.538 72.998 101.278 69.1137C102.832 61.0922 103.139 60.0082 104.35 58.6352C105.072 57.8222 106.102 57.1718 106.445 57.3163C106.969 57.515 107.114 58.328 106.915 59.7553C106.68 61.2548 105.343 65.4823 103.88 69.3124C102.995 71.643 102.814 72.4379 103.266 71.9501C103.537 71.6791 105.271 66.9096 106.337 63.5312L107.349 60.3334L108.939 59.2133C109.824 58.581 110.727 57.8583 110.962 57.5692C111.197 57.2982 111.432 57.0634 111.486 57.0634C111.54 57.0634 111.594 57.4247 111.594 57.8764C111.594 58.4545 111.414 59.0688 110.98 59.9179C110.655 60.5863 109.788 62.5014 109.065 64.1996C108.36 65.8798 107.367 68.0839 106.879 69.0956C105.94 71.0107 102.2 77.352 101.694 77.8759C101.405 78.183 101.333 78.1649 100.484 77.5688C99.5802 76.9364 97.2135 76.268 96.6534 76.4667C96.2921 76.6112 96.3644 76.1957 97.069 74.371C97.4122 73.4496 98.1891 71.372 98.7672 69.7641C99.3634 68.1562 100.122 66.1327 100.484 65.2836C100.863 64.3622 101.116 63.4408 101.116 62.9711C101.116 61.6523 101.82 59.1952 102.742 57.3344C103.591 55.5639 104.621 53.9921 104.91 53.9921C104.982 53.9921 105.09 54.3896 105.127 54.8593ZM110.854 57.0092C110.655 57.3163 109.571 58.2196 108.126 59.3036L107.475 59.7914L107.403 58.7255L107.349 57.6415L108.469 57.5512C109.083 57.4789 109.896 57.2802 110.276 57.0815C111.125 56.6298 111.107 56.6298 110.854 57.0092ZM154.213 57.3524C154.647 57.497 155.297 57.6054 155.658 57.6054H156.309L156.255 58.6894L156.182 59.7733L154.791 58.6894C154.014 58.0932 153.219 57.4247 153.039 57.2079C152.695 56.8285 152.695 56.8285 153.057 56.9731C153.255 57.0453 153.779 57.226 154.213 57.3524ZM120.537 62.4652C120.79 62.8988 120.989 63.2602 120.953 63.2782C120.917 63.2963 120.609 63.4408 120.248 63.6034C119.887 63.766 119.309 64.1454 118.947 64.4525C118.604 64.7597 118.279 65.0126 118.207 65.0126C118.152 65.0126 118.098 64.4706 118.098 63.7841C118.098 62.6098 118.405 60.9477 118.821 59.8637L119.02 59.3217L119.544 60.5141C119.815 61.1645 120.266 62.0497 120.537 62.4652ZM145.234 61.4716C145.523 62.6098 145.686 65.0126 145.469 65.0126C145.415 65.0126 145.035 64.7416 144.602 64.4164C144.168 64.0912 143.572 63.7118 143.283 63.6034L142.759 63.3866L143.662 61.5077C144.674 59.394 144.692 59.394 145.234 61.4716ZM122.687 63.748C123.211 63.9467 124.638 65.1933 125.144 65.9159L125.487 66.4037L124.494 66.3134C123.663 66.2411 123.338 66.3134 122.344 66.8012C120.899 67.5058 118.713 69.5473 118.026 70.7939C117.303 72.1127 117.412 73.016 118.622 75.6537C120.14 78.9418 120.266 79.9535 119.616 83.5849C119.399 84.7592 119.381 85.2108 119.544 85.6986C119.851 86.62 120.32 86.6562 121.983 85.8974C122.759 85.536 123.446 85.2831 123.5 85.3373C123.645 85.4818 124.042 90.4682 124.042 92.2387C124.078 95.1112 123.103 100.874 122.055 104.181C121.314 106.511 120.122 108.788 118.857 110.305C118.279 110.974 117.61 111.823 117.376 112.166L116.924 112.798L116.816 110.088C116.761 108.589 116.49 106.005 116.237 104.343C115.352 98.6523 115.117 95.5629 115.135 89.3119C115.135 86.1322 115.226 82.2118 115.352 80.5858C115.551 78.0565 115.677 77.352 116.274 75.4369C116.852 73.5761 116.978 72.8896 117.068 71.0648C117.231 67.8129 118.026 65.6269 119.417 64.6693C120.899 63.6576 121.802 63.4047 122.687 63.748ZM143.12 64.0912C144.728 64.85 145.288 65.5185 145.848 67.2528C146.173 68.3007 146.354 69.3666 146.444 71.0648C146.571 73.0522 146.697 73.7025 147.257 75.3105C148.034 77.623 148.215 78.7431 148.45 82.6635C148.901 90.3778 148.504 97.7851 147.257 105.12C147.005 106.565 146.752 108.86 146.697 110.233C146.589 112.69 146.589 112.708 146.282 112.22C146.101 111.949 145.469 111.064 144.855 110.269C142.163 106.764 140.735 102.609 139.868 95.852C139.724 94.6777 139.597 92.9794 139.597 92.058C139.615 90.2694 140.013 85.4999 140.157 85.3554C140.212 85.3012 140.916 85.5541 141.747 85.8974C142.994 86.4394 143.319 86.5116 143.662 86.3671C144.276 86.078 144.385 85.2108 144.042 83.4042C143.716 81.6698 143.68 79.9355 143.951 78.7431C144.042 78.2914 144.566 76.828 145.108 75.4731C145.65 74.1361 146.101 72.8715 146.101 72.6728C146.101 70.8481 143.789 68.12 141.097 66.7831C140.157 66.3315 139.814 66.2411 139.073 66.3134L138.17 66.4037L138.694 65.663C139.579 64.3622 140.681 63.5673 141.585 63.5673C141.838 63.5673 142.524 63.8022 143.12 64.0912ZM141.314 67.4335C142.596 68.102 144.638 70.0351 145.18 71.101C145.722 72.185 145.668 73.0522 144.909 74.8046C143.283 78.5805 143.066 79.7729 143.482 82.6273C143.825 85.0121 143.789 85.8432 143.355 85.9335C143.066 85.9877 139.344 84.3979 136.219 82.8803C134.539 82.0492 133.238 80.8026 132.479 79.3212C132.082 78.5443 132.009 78.1469 132.009 76.9364V75.4731L133.057 74.3529C134.322 72.998 134.936 72.1127 136.074 69.9809C137.484 67.3612 137.736 67.018 138.369 66.8373C139.2 66.6024 140.067 66.765 141.314 67.4335ZM125.831 67.1264C126.029 67.307 126.788 68.4994 127.511 69.8002C129.028 72.5644 129.516 73.269 130.654 74.5517C131.467 75.455 131.522 75.5815 131.612 76.7377C131.648 77.4604 131.612 78.2372 131.467 78.6347C131.088 79.7729 129.896 81.3808 128.884 82.0492C127.655 82.8983 120.844 86.0058 120.357 85.9335C119.869 85.8612 119.797 84.8315 120.158 82.8983C120.718 80.0258 120.483 78.5805 118.929 75.184C117.827 72.8173 117.755 72.3295 118.297 71.2094C118.839 70.0893 120.844 68.1381 122.199 67.3974C123.464 66.7108 125.198 66.5844 125.831 67.1264ZM98.713 77.2074C99.2008 77.352 99.9415 77.7133 100.357 78.0204C101.278 78.6708 101.423 79.2851 101.134 81.2362C100.917 82.7538 100.465 83.7475 98.4239 87.3788C97.1412 89.6913 96.527 90.4862 96.1114 90.4862C95.5152 90.4862 95.6417 89.9442 96.9606 87.1801C97.1774 86.7104 97.3219 86.2587 97.2496 86.2045C97.0509 86.0058 96.8522 86.349 95.9669 88.3183C94.901 90.6488 94.3951 91.3896 93.7809 91.3896C93.546 91.3896 93.2931 91.2631 93.2208 91.1005C93.1666 90.9379 93.6183 89.8359 94.3229 88.4989C94.9733 87.2343 95.5152 86.06 95.5152 85.8974C95.5152 85.3192 95.1901 85.6264 94.7926 86.5478C94.5758 87.0717 93.9435 88.3544 93.3834 89.4023C92.444 91.1366 92.2994 91.2992 91.8297 91.2992C90.9444 91.2992 90.8902 90.8837 91.631 89.6733C92.8595 87.6498 94.1241 84.7773 93.7447 84.9037C93.6363 84.9398 93.0582 85.9516 92.4801 87.144C91.8839 88.3363 91.2516 89.4926 91.0709 89.7275C90.7457 90.1068 90.7096 90.1249 90.3302 89.8539C90.0953 89.6913 89.9147 89.4384 89.9147 89.2939C89.9147 89.1493 90.6012 87.5053 91.4503 85.6444C92.2814 83.8017 92.9498 82.248 92.9137 82.2299C92.8776 82.1938 92.4801 82.3925 92.0104 82.6815C90.5289 83.621 88.9933 83.8739 88.5777 83.2055C88.2887 82.7538 88.5958 82.3564 89.8063 81.706C90.4205 81.3808 91.5587 80.4413 92.6246 79.3754C94.0519 77.9482 94.5758 77.5507 95.3526 77.2797C96.545 76.8822 97.5206 76.8461 98.713 77.2074ZM168.16 77.2255C169.009 77.4784 169.371 77.7675 170.979 79.3935C172.008 80.4232 173.183 81.435 173.598 81.6518C174.664 82.1757 175.007 82.519 175.007 83.0067C175.007 83.9101 173.165 83.7294 171.521 82.6815C171.051 82.3744 170.617 82.1576 170.581 82.2118C170.527 82.248 171.177 83.8197 172.026 85.6986C172.876 87.5775 173.562 89.2577 173.562 89.4203C173.562 89.601 173.381 89.8359 173.183 89.9623C172.858 90.1249 172.731 90.1068 172.478 89.8359C172.153 89.4926 170.798 86.9091 170.238 85.5541C170.093 85.1928 169.877 84.8857 169.786 84.8857C169.678 84.8857 169.588 84.9218 169.588 84.9579C169.588 85.3734 171.611 89.4565 172.334 90.5043C172.677 91.0102 172.37 91.4257 171.719 91.3534C171.141 91.2992 171.069 91.1908 169.696 88.4447C168.865 86.8188 168.178 85.6806 168.088 85.7709C167.998 85.8612 168.449 86.9814 169.154 88.4086C170.039 90.2514 170.31 90.974 170.184 91.1728C169.642 92.058 168.793 91.1908 167.709 88.6435C166.805 86.5658 166.336 85.789 166.336 86.3671C166.336 86.5116 166.697 87.4511 167.13 88.4267C167.564 89.4203 167.889 90.2694 167.835 90.3417C167.672 90.6127 167.112 90.4862 166.751 90.0707C166.39 89.6913 164.348 86.0419 163.228 83.7655C162.65 82.6273 162.234 80.2426 162.433 79.2128C162.578 78.4359 163.409 77.7133 164.655 77.2616C165.757 76.8642 166.914 76.8642 168.16 77.2255ZM130.383 85.6444C131.323 94.3886 130.42 105.373 128.143 112.889C127.457 115.183 126.047 118.67 125.813 118.67C125.722 118.67 125.722 118.489 125.776 118.29C125.993 117.64 125.939 112.69 125.704 111.443C125.578 110.793 125.09 108.39 124.584 106.078C123.572 101.29 123.518 100.513 124.078 96.8637C124.403 94.7318 124.44 93.8827 124.349 91.0282C124.295 89.1855 124.187 87.0717 124.132 86.3129L124.024 84.9579L125.975 84.0727C127.059 83.6029 128.396 82.9164 128.938 82.5551C129.48 82.1938 129.95 81.977 129.968 82.0854C130.004 82.1757 130.185 83.7836 130.383 85.6444ZM137.502 83.9823L139.633 84.9579L139.525 86.2406C139.471 86.9272 139.362 89.0048 139.308 90.8476C139.218 93.684 139.254 94.6054 139.579 96.8998C139.778 98.3993 139.959 100.17 139.959 100.838C139.959 101.995 139.435 104.777 138.405 109.004C137.989 110.739 137.917 111.479 137.845 114.858L137.755 118.724L137.158 117.369C135.641 113.918 134.195 108.336 133.545 103.458C132.804 97.6947 132.732 90.3598 133.364 84.7773L133.708 81.8505L134.539 82.4286C134.99 82.7357 136.327 83.4403 137.502 83.9823ZM123.627 103.711C123.88 104.867 123.88 105.048 123.428 107.758C122.687 112.347 121.657 116.881 121.188 117.73C121.115 117.875 120.989 116.863 120.935 115.472C120.862 114.099 120.7 112.166 120.537 111.154L120.266 109.33L121.061 107.758C121.495 106.891 122.181 105.228 122.561 104.036C122.94 102.862 123.265 102.031 123.301 102.193C123.319 102.356 123.464 103.042 123.627 103.711ZM142.488 107.414L143.247 108.968L143.048 110.251C142.759 112.148 142.488 114.966 142.434 116.502L142.398 117.857L141.711 115.346C140.97 112.672 139.977 107.125 139.941 105.481C139.922 104.939 140.013 103.892 140.157 103.187L140.392 101.868L141.061 103.855C141.44 104.939 142.072 106.547 142.488 107.414ZM125.162 110.901C125.487 112.762 125.524 113.413 125.415 117.134C125.289 121.127 125.307 121.398 125.795 124.18C126.445 127.974 126.517 131.732 125.957 132.852C125.271 134.207 123.374 134.803 122.145 134.044C121.82 133.846 121.368 133.43 121.115 133.087C120.284 131.967 120.176 131.316 120.194 127.522C120.212 123.476 120.465 121.651 121.459 118.58C122.272 116.104 122.976 112.961 123.645 109.095L124.132 106.114L124.458 107.469C124.638 108.209 124.945 109.763 125.162 110.901ZM139.778 107.866C140.248 111.136 140.898 114.189 141.693 116.954C142.831 120.856 143.156 122.464 143.409 125.445C143.789 129.943 143.265 132.689 141.801 133.809C141.277 134.207 140.97 134.297 140.121 134.297C138.929 134.297 138.297 133.936 137.7 132.924C137.14 131.985 137.194 127.703 137.791 124.632C138.206 122.536 138.242 122.03 138.188 117.712C138.17 115.147 138.224 112.509 138.333 111.841C138.513 110.666 139.435 106.385 139.525 106.385C139.543 106.385 139.651 107.053 139.778 107.866ZM145.288 111.552C146.354 112.997 146.571 113.593 146.715 115.291C146.788 116.339 147.113 117.568 147.908 119.898C149.245 123.909 149.606 125.86 149.48 128.498C149.371 130.648 148.938 131.876 147.962 132.798C147.041 133.665 145.469 133.755 144.62 133.015C143.879 132.346 143.771 131.75 143.879 128.859C143.987 125.969 143.807 123.746 143.193 120.928C142.687 118.561 142.759 114.984 143.427 110.757L143.626 109.42L144.06 109.944C144.295 110.215 144.855 110.955 145.288 111.552ZM120.357 113.16C120.736 116.791 120.7 119.103 120.248 121.289C119.959 122.717 119.851 124.017 119.778 127.522C119.67 132.436 119.58 132.834 118.442 133.304C116.725 134.026 115.027 132.78 114.395 130.323C113.744 127.739 114.196 124.126 115.768 119.718C116.454 117.767 116.725 116.719 116.834 115.472C117.032 113.503 117.358 112.762 118.803 111.046C120.031 109.582 119.977 109.528 120.357 113.16ZM120.537 133.033C121.459 134.622 122.976 135.201 124.566 134.604C125.09 134.406 125.505 134.315 125.505 134.406C125.505 134.496 125.18 135.634 124.783 136.953C123.735 140.53 123.446 142.228 123.446 145.047C123.446 146.962 123.536 147.829 123.843 149.094C124.06 149.979 124.223 150.738 124.187 150.774C124.132 150.81 123.988 150.647 123.825 150.394C123.663 150.16 123.175 149.816 122.723 149.654C122.055 149.401 121.82 149.383 121.278 149.563C120.501 149.816 119.815 150.611 119.526 151.569C119.309 152.237 118.152 153.538 117.755 153.538C117.647 153.538 117.647 153.303 117.755 152.942C117.863 152.635 117.99 151.298 118.044 149.997C118.207 146.275 117.683 143.222 115.569 135.67C115.171 134.243 114.846 132.942 114.846 132.798C114.846 132.653 115.081 132.834 115.37 133.195C116.111 134.135 117.9 139.844 118.658 143.728C118.875 144.848 119.128 145.769 119.218 145.769C119.688 145.769 118.947 142.246 117.376 137.098C116.996 135.851 116.599 134.622 116.49 134.351L116.31 133.864L117.177 133.972C118.261 134.099 119.399 133.575 119.742 132.762C119.887 132.473 120.013 132.22 120.013 132.22C120.031 132.22 120.266 132.581 120.537 133.033ZM143.825 132.78C144.222 133.575 144.963 133.936 146.173 133.936H147.294L146.589 136.104C145.126 140.639 143.987 145.769 144.439 145.769C144.547 145.769 144.692 145.462 144.746 145.083C145.035 143.276 145.487 141.415 146.372 138.344C147.456 134.659 147.836 133.665 148.54 132.852L149.01 132.31L148.883 132.852C148.811 133.141 148.287 135.074 147.727 137.116C146.065 143.023 145.559 145.896 145.559 149.383C145.559 150.449 145.65 151.767 145.758 152.346C145.866 152.924 145.902 153.43 145.866 153.484C145.65 153.683 144.475 152.346 144.186 151.587C143.355 149.31 141.512 148.787 139.941 150.358C139.507 150.774 139.399 150.828 139.489 150.557C140.031 149.076 140.212 147.666 140.212 145.137C140.23 142.102 139.941 140.458 138.694 136.447C138.315 135.219 138.08 134.207 138.17 134.207C138.242 134.207 138.351 134.279 138.405 134.37C138.622 134.713 140.139 134.948 140.916 134.731C141.747 134.514 143.391 132.996 143.391 132.455C143.391 132.111 143.536 132.22 143.825 132.78ZM123.338 150.611C124.006 151.28 124.422 152.255 124.422 153.177C124.422 153.43 124.259 154.188 124.078 154.857C123.771 155.923 123.735 156.483 123.807 158.831C123.898 161.397 123.861 161.65 123.482 162.571C122.976 163.8 122.29 164.197 120.754 164.197C118.947 164.197 118.116 163.89 117.087 162.824C116.021 161.74 115.171 161.252 113.798 160.963C112.66 160.728 112.209 160.512 111.558 159.897C110.601 159.012 110.673 157.386 111.703 156.248C112.552 155.309 113.546 154.857 115.388 154.622C117.755 154.297 119.255 153.466 119.706 152.237C120.357 150.467 120.899 149.943 122.055 149.925C122.525 149.925 122.814 150.087 123.338 150.611ZM142.903 150.286C143.156 150.485 143.536 151.117 143.753 151.695C144.439 153.538 145.288 154.08 148.233 154.604C150.419 154.983 151.142 155.327 152.045 156.338C153.454 157.946 152.695 160.205 150.564 160.783C148.305 161.397 147.98 161.559 146.896 162.589C145.631 163.818 144.728 164.197 143.084 164.197C141.44 164.197 140.754 163.854 140.266 162.806C139.904 162.029 139.868 161.65 139.868 158.868C139.85 156.501 139.778 155.58 139.543 154.821C139.001 153.086 139.254 151.749 140.338 150.611C140.88 150.033 141.115 149.925 141.711 149.925C142.163 149.925 142.614 150.069 142.903 150.286Z" fill="black"/>
<path d="M160.446 56.5214C161.494 58.5268 161.927 59.8637 162.361 62.3568C162.578 63.6396 162.939 64.9223 163.337 65.8798C163.698 66.7108 164.384 68.4994 164.872 69.8544C165.36 71.2094 166.101 73.1967 166.498 74.2807C166.914 75.3466 167.239 76.286 167.239 76.3583C167.239 76.4306 166.733 76.5028 166.137 76.539C164.926 76.5751 163.824 76.9906 162.813 77.7675C162.253 78.183 162.126 78.2191 161.909 78.0023C161.458 77.5326 158.061 71.7514 157.049 69.7279C156.489 68.6259 155.405 66.205 154.61 64.3441C153.834 62.4652 152.966 60.496 152.713 59.9179C152.262 58.8881 152.172 58.4726 152.208 57.5331L152.244 57.0273L153.292 57.9848C153.87 58.5268 154.755 59.2494 155.279 59.5927L156.218 60.225L156.959 62.5736C158.332 66.9096 160.265 72.0585 160.518 72.0585C160.681 72.0585 160.735 71.9501 160.645 71.7333C159.651 69.2401 157.465 62.8627 157.013 61.1283C156.616 59.6107 156.598 57.8583 156.995 57.4608C157.284 57.1898 157.339 57.1898 157.953 57.515C158.784 57.9667 159.723 59.0507 160.283 60.2611C160.554 60.8212 160.988 62.5194 161.385 64.5067C162.722 71.4984 163.12 73.4135 163.192 73.4857C163.481 73.7929 163.427 72.9618 162.993 70.6674C161.403 62.1942 161.132 61.0199 160.572 59.8817C160.067 58.852 158.639 57.244 158.061 57.0453C157.88 56.9911 157.917 56.7563 158.188 56.1601C158.386 55.7084 158.567 54.9857 158.567 54.5341L158.585 53.7211L159.109 54.3534C159.398 54.6967 160.012 55.6723 160.446 56.5214Z" fill="#CDD52A"/>
<path d="M105.127 54.8593C105.181 55.3471 105.343 56.0155 105.524 56.3588C105.759 56.8105 105.777 56.9911 105.596 57.0453C105.488 57.0815 104.982 57.4789 104.512 57.9306C103.193 59.1591 102.507 60.767 101.857 64.019C100.339 71.661 100.032 73.3773 100.122 73.4677C100.357 73.7025 100.538 72.998 101.278 69.1137C102.832 61.0922 103.139 60.0082 104.35 58.6352C105.072 57.8222 106.102 57.1718 106.445 57.3163C106.969 57.515 107.114 58.328 106.915 59.7553C106.68 61.2548 105.343 65.4823 103.88 69.3124C102.995 71.643 102.814 72.4379 103.266 71.9501C103.537 71.6791 105.271 66.9096 106.337 63.5312L107.349 60.3334L108.939 59.2133C109.824 58.581 110.727 57.8583 110.962 57.5692C111.197 57.2982 111.432 57.0634 111.486 57.0634C111.54 57.0634 111.594 57.4247 111.594 57.8764C111.594 58.4545 111.414 59.0688 110.98 59.9179C110.655 60.5863 109.788 62.5014 109.065 64.1996C108.36 65.8798 107.367 68.0839 106.879 69.0956C105.94 71.0107 102.2 77.352 101.694 77.8759C101.405 78.183 101.333 78.1649 100.484 77.5688C99.5802 76.9364 97.2135 76.268 96.6534 76.4667C96.2921 76.6112 96.3644 76.1957 97.069 74.371C97.4122 73.4496 98.1891 71.372 98.7672 69.7641C99.3634 68.1562 100.122 66.1327 100.484 65.2836C100.863 64.3622 101.116 63.4408 101.116 62.9711C101.116 61.6523 101.82 59.1952 102.742 57.3344C103.591 55.5639 104.621 53.9921 104.91 53.9921C104.982 53.9921 105.09 54.3896 105.127 54.8593Z" fill="#CDD52A"/>
<path d="M48.7918 58.0029C49.6228 59.9902 49.0808 63.5312 47.8884 64.0913C47.3826 64.3262 44.2029 64.3442 42.866 64.1274C41.4568 63.8926 41.3123 63.5854 41.3123 61.0381C41.3123 58.9785 41.4749 58.021 41.8904 57.7681C41.9988 57.6958 43.1008 57.6958 44.3655 57.7319C45.6663 57.7861 46.9128 57.75 47.2742 57.6416C48.3401 57.3345 48.5388 57.3887 48.7918 58.0029Z" fill="#CDD52A"/>
<path d="M44.8352 50.939C47.6536 51.1558 48.3943 51.4087 48.7376 52.2217C49.0266 52.9443 48.9905 55.4194 48.6653 56.2144C48.304 57.0454 47.509 57.3164 45.2869 57.3164C42.884 57.3345 41.9265 57.1538 41.5471 56.5938C41.1135 55.9072 41.1135 52.1494 41.5471 51.3184C41.7278 51.0112 41.9627 50.7402 42.0711 50.7402C42.1975 50.7402 43.426 50.8306 44.8352 50.939Z" fill="#CDD52A"/>
<path d="M40.3547 51.228C40.7703 51.8604 40.9148 55.022 40.5535 56.0698C40.1921 57.1357 39.7044 57.3164 36.886 57.3164C33.3811 57.3164 33.0017 56.9912 33.0017 53.9922C33.0017 52.2939 33.3811 51.5713 34.3928 51.3003C34.9529 51.1558 37.2473 50.9209 39.6321 50.7583C39.885 50.7583 40.156 50.9209 40.3547 51.228Z" fill="#CDD52A"/>
<path d="M37.1209 57.6958H40.0837L40.3728 58.2378C40.7341 58.9243 40.8787 61.7607 40.6077 62.8086C40.2644 64.019 39.867 64.1816 36.9944 64.2539C34.176 64.3081 33.8147 64.1997 33.2908 63.1338C32.7849 62.104 32.6765 59.3218 33.092 58.2197C33.363 57.4971 33.4534 57.4067 33.7966 57.5332C33.9954 57.6055 35.5129 57.6777 37.1209 57.6958Z" fill="#CDD52A"/>
<path d="M36.5789 64.7236C37.6809 64.7056 38.9275 64.6514 39.325 64.5791C39.9573 64.4888 40.0657 64.5249 40.3547 64.9585C40.6438 65.4102 40.6799 66.1147 40.7341 73.0522L40.7703 80.6401L39.6863 79.4658C38.1687 77.8218 36.9221 75.979 35.802 73.7207C34.0857 70.27 33.1824 67.0361 33.4353 65.3018C33.5618 64.5068 33.5798 64.4707 34.0496 64.5972C34.3206 64.6875 35.4587 64.7236 36.5789 64.7236Z" fill="#CDD52A"/>
<path d="M44.9255 64.7417C45.8831 64.814 47.0032 64.7778 47.4548 64.6694C48.051 64.543 48.304 64.543 48.4124 64.7056C48.4846 64.832 48.5208 65.627 48.4666 66.4941C48.322 69.0234 46.6599 73.4136 44.6726 76.4849C43.8777 77.7134 41.5291 80.5137 41.2761 80.5317C41.0593 80.5498 41.0955 67.0181 41.3123 65.916C41.5471 64.6514 41.7639 64.4346 42.5588 64.543C42.9202 64.5972 43.9861 64.6875 44.9255 64.7417Z" fill="#CDD52A"/>
<path d="M40.1379 43.4053C40.698 43.9653 40.8245 44.7783 40.7341 47.0908C40.5896 50.144 40.4089 50.3247 37.157 50.4873C34.5554 50.6138 34.176 50.686 33.5798 51.1919L33.0559 51.6255L33.4895 49.6924C34.0676 47.0186 34.5916 45.5371 35.1516 44.959C35.4226 44.6699 36.1995 44.2544 36.9583 43.9834C37.6809 43.7124 38.4578 43.3872 38.6565 43.2427C39.1985 42.8633 39.6321 42.8994 40.1379 43.4053Z" fill="#CDD52A"/>
<path d="M43.4983 43.4053C43.9319 43.6401 44.7449 43.9834 45.2869 44.146C46.9851 44.688 47.3645 45.2661 48.1956 48.6265C48.5027 49.8369 48.7918 50.9751 48.846 51.1738C48.9363 51.4629 48.8821 51.4629 48.4124 51.1016C47.9607 50.7764 47.491 50.686 45.5398 50.5596C42.595 50.3608 42.1614 50.2524 41.6375 49.7104C41.2581 49.2949 41.2219 49.1323 41.24 46.8921C41.24 44.3989 41.4387 43.5859 42.1614 43.1704C42.595 42.9175 42.613 42.9175 43.4983 43.4053Z" fill="#CDD52A"/>
<path fill-rule="evenodd" clip-rule="evenodd" d="M39.1443 1.43701C35.6575 2.12354 33.0198 5.46582 32.6946 9.60303C32.5862 10.9038 32.5501 11.0303 32.0984 11.2651C31.4119 11.6265 30.9421 12.6743 31.0686 13.5776C31.3035 15.2578 32.7669 17.3174 33.7605 17.3174C34.1038 17.3174 34.176 17.6787 34.447 21.1113C34.5554 22.4482 34.6819 23.6406 34.718 23.7671C34.989 24.5981 28.6296 28.0127 26.1907 28.356C23.5349 28.7173 21.2766 29.8555 19.8132 31.5537C18.8015 32.728 17.7175 35.0225 17.3743 36.6846C17.2297 37.4795 17.1033 39.0332 17.1033 40.3159C17.1033 42.5562 17.1033 42.5562 16.5432 43.2607C14.7366 45.519 13.9778 49.0601 14.6643 51.9507L14.9353 53.0708L13.9417 54.4438C12.4963 56.4673 12.0447 57.8223 11.1414 62.917C10.2561 67.9033 9.93091 69.2583 8.7566 72.7632C7.67261 75.9971 7.61842 76.0874 6.91383 76.5391C6.4983 76.792 5.32398 77.8398 4.27613 78.8335C2.97535 80.0801 2.05396 80.8208 1.33131 81.1641C0.0666577 81.7603 -0.258538 82.2842 0.193122 82.9888C0.590583 83.603 1.9275 83.6753 3.17408 83.1514C3.87867 82.8623 4.0232 82.9165 3.7522 83.3862C3.22828 84.3076 1.20484 88.9507 1.20484 89.2397C1.20484 89.4204 1.45777 89.7456 1.74683 89.9805C2.05396 90.1973 2.28883 90.5405 2.28883 90.7573C2.28883 91.498 3.30054 92.0581 3.87867 91.6426C4.20386 91.4258 4.31226 91.4258 4.78199 91.6968C5.25172 91.9678 5.39625 91.9678 5.77564 91.769C6.02857 91.6426 6.37183 91.2451 6.5525 90.9199C6.76929 90.5225 6.94996 90.3779 7.05836 90.4863C7.38355 90.8115 8.17847 90.6851 8.55787 90.2695C8.7566 90.0347 9.22633 89.3301 9.60572 88.6797C9.98511 88.0293 10.762 86.8188 11.3401 85.9697C13.1829 83.2417 13.3997 82.6997 13.4177 80.7305L13.4358 79.0142L14.3753 77.4785C15.5315 75.5996 18.3318 69.999 19.5422 67.1807C20.03 66.0425 20.9876 63.4771 21.6921 61.4897C22.8123 58.292 22.9568 57.7139 22.9929 56.395L23.0291 54.9316L24.3479 52.6372C25.4861 50.668 25.6848 50.397 25.8113 50.7402C25.8836 50.957 26.1545 52.5469 26.4075 54.2812C26.6604 56.0156 27.0398 57.8945 27.2385 58.4727C27.7083 59.7012 27.7263 60.2432 27.4373 62.3931C27.3289 63.2783 27.2205 64.8501 27.2205 65.8618C27.2205 67.542 27.1121 68.1382 25.9739 72.6367C23.0652 84.1631 22.1619 90.0347 22.5232 95.0391C22.8123 98.7246 23.3543 101.308 24.7092 105.21L25.45 107.378L25.6487 111.353C25.8474 115.815 25.8294 116.032 24.6189 120.115C23.2097 124.849 22.7761 128.028 23.0652 131.533C23.3904 135.49 23.824 137.766 25.9739 146.673C26.2449 147.793 25.5945 152.87 25.0344 154.026C24.5286 155.092 22.1077 157.621 20.03 159.283C17.7175 161.108 17.2117 162.047 17.9343 163.095C18.5305 163.926 21.367 164.92 23.1555 164.92C24.366 164.92 26.0462 164.324 26.9856 163.529C27.4553 163.149 28.6838 162.354 29.7317 161.74C31.8635 160.512 32.3694 159.952 32.532 158.633C32.5862 158.163 32.7669 156.682 32.9295 155.345C33.2185 152.96 33.2004 151.966 32.8211 149.925C32.532 148.371 32.5862 144.776 32.9114 143.15C33.074 142.373 33.616 140.621 34.1038 139.284C36.2175 133.394 36.3801 129.979 34.8626 123.313L34.3748 121.181L34.8084 120.061C37.2293 113.575 37.988 108.968 37.5545 103.404L37.3557 100.766L38.0603 98.1104C39.4334 93.0518 40.1741 88.499 40.3547 83.856L40.4631 80.8931L40.9148 80.9473C41.3665 81.0015 41.3665 81.0015 41.4387 83.1694C41.5652 87.5054 42.4866 93.1782 43.8958 98.4355C44.492 100.604 44.51 100.766 44.3474 102.41C44.2571 103.35 44.221 105.427 44.2752 107.017C44.4378 111.606 45.0701 114.713 46.7141 118.977L47.5994 121.29L47.1838 122.879C46.4431 125.662 46.136 127.83 46.1179 130.503C46.0999 133.593 46.3528 135.056 47.4006 138.091C49.3518 143.746 49.6589 145.426 49.2976 148.696C49.1712 149.816 48.9724 151.081 48.864 151.497C48.7195 152.075 48.7556 152.779 48.9724 154.387C49.117 155.562 49.3337 157.188 49.4241 158.019C49.6047 159.482 49.9119 160.331 50.3816 160.71C50.5081 160.819 51.2669 161.252 52.0618 161.65C52.8567 162.065 53.9768 162.77 54.5369 163.222C56.2351 164.559 57.03 164.83 59.0173 164.812C60.3362 164.793 60.9866 164.703 61.8176 164.378C65.0335 163.167 65.1599 161.704 62.2512 159.482C60.1194 157.856 58.1682 155.977 57.3733 154.749C56.6687 153.665 56.5784 153.339 56.0545 149.311L55.8015 147.341L56.3254 145.336C57.8069 139.735 58.8186 134.081 58.9631 130.666C59.1077 127.071 58.7463 124.867 57.1204 119.302C56.1448 115.924 56.0906 115.4 56.2893 111.245L56.2899 111.233C56.4519 107.902 56.4529 107.881 57.3552 105.102C59.4329 98.7427 59.9749 94.0996 59.2883 88.499C58.8909 85.2471 57.5901 78.9238 56.0364 72.6729C55.2776 69.6738 54.7356 67.0903 54.7898 66.9277C54.9163 66.5845 54.5549 61.6162 54.3201 60.6045C54.1936 60.0083 54.2478 59.7012 54.6272 58.7979C54.9343 58.0571 55.2595 56.5757 55.6028 54.3716C55.8919 52.5469 56.199 50.957 56.2712 50.8306C56.3435 50.668 56.8494 51.3545 57.7166 52.7817L59.0173 54.9497V56.2866C59.0173 57.4429 59.1619 58.021 60.0291 60.5503C61.4021 64.5068 62.4319 67.1265 63.8953 70.2881C65.178 73.1064 67.906 78.2554 68.3577 78.7793C68.5745 79.0322 68.6106 79.3394 68.5022 80.2607C68.3396 81.8506 68.6829 82.9346 70.0378 84.9761C70.616 85.8613 71.5735 87.3789 72.1336 88.3184C73.5427 90.667 73.5969 90.7212 74.4099 90.6128C74.988 90.5405 75.1145 90.5947 75.3855 91.0103C75.9998 91.9497 76.6863 92.1846 77.2825 91.6426C77.5715 91.3896 77.6438 91.3896 78.0232 91.6426C78.5833 92.022 79.2698 91.6787 79.5227 90.9019C79.6311 90.5947 79.9382 90.1611 80.2092 89.9443C80.4802 89.7275 80.697 89.3843 80.697 89.1675C80.697 88.9507 80.1008 87.4692 79.3601 85.8794C78.6194 84.2896 78.0413 82.9707 78.0593 82.9526C78.0774 82.9346 78.4387 83.0249 78.8543 83.1694C79.2698 83.314 79.9924 83.4585 80.4441 83.4766C81.1306 83.4946 81.3655 83.4224 81.6365 83.0972C82.2869 82.2842 82.0159 81.8325 80.3899 81.0195C79.866 80.7666 78.6375 79.7729 77.5896 78.7793C76.5598 77.8037 75.4036 76.8281 75.0061 76.6113C74.2906 76.1999 74.2835 76.1781 73.2838 73.0911L73.2537 72.998C71.971 69.0596 71.6638 67.813 70.9412 63.5674C69.9837 57.9126 69.532 56.5034 67.8879 54.2812L67.0027 53.0889L67.2556 51.9688C67.906 48.9155 67.2195 45.5732 65.467 43.2788L64.7986 42.4297V40.2798C64.7986 37.4434 64.4553 35.6729 63.5159 33.7578C62.2332 31.1743 59.9929 29.3315 57.283 28.627C56.6687 28.4644 55.8738 28.3379 55.5125 28.3379C54.2659 28.3379 49.135 25.7905 47.762 24.4897C47.1477 23.9116 47.1477 23.8936 47.2742 22.8276C47.3464 22.2314 47.509 20.75 47.6355 19.5215C47.8523 17.4077 47.8884 17.3174 48.2859 17.3174C48.9002 17.3174 49.6409 16.5767 50.2371 15.4204C51.0139 13.8667 51.1043 13.2344 50.7068 12.313C50.5081 11.8613 50.1648 11.4458 49.9119 11.3193C49.4963 11.1387 49.4421 11.0122 49.4421 10.0908C49.4421 8.80811 49.0447 7.23633 48.3582 5.80908C46.7141 2.43066 43.0105 0.678223 39.1443 1.43701ZM47.8162 6.11621C46.8406 4.18311 45.5037 2.99072 43.5525 2.3584C40.6438 1.40088 37.9338 1.94287 35.8201 3.94824C34.2664 5.42969 33.1824 8.01318 33.1824 10.2896C33.1824 11.1567 33.1282 11.3555 32.8211 11.4458C32.2249 11.6445 31.5564 12.584 31.5564 13.2705C31.5564 13.8848 32.4236 15.854 32.9656 16.4502C33.1101 16.6309 33.4895 16.7754 33.8328 16.7754C34.3928 16.7754 34.429 16.8115 34.6096 17.6787C35.0432 19.7202 36.0007 20.9307 37.8796 21.8159C38.783 22.2314 39.0901 22.2856 41.0413 22.2856C42.9744 22.2856 43.2996 22.2314 44.1126 21.8521C45.7927 21.021 47.1838 19.1963 47.4006 17.498C47.491 16.8296 47.5452 16.7754 48.0872 16.7754C48.7737 16.7754 49.2073 16.3418 49.8938 14.9688C50.5442 13.686 50.5623 12.8008 50.0022 12.1865C49.7673 11.9336 49.4241 11.6807 49.2253 11.6084C48.9544 11.5361 48.9002 11.3193 48.9002 10.4883C48.9002 9.11523 48.4846 7.43506 47.8162 6.11621ZM46.0818 26.4951C46.3709 25.5015 46.7864 22.9722 47.0032 20.9668C47.0754 20.3525 47.0935 19.8467 47.0574 19.8647C47.0393 19.8647 46.7322 20.208 46.407 20.6235C45.8289 21.3823 45.1604 22.7012 43.3899 26.5312C42.884 27.6694 42.1433 29.2773 41.7639 30.0903C41.3845 30.9033 40.969 31.6079 40.8425 31.6621C40.5208 31.7872 40.4997 31.7355 38.8551 27.7113L38.801 27.5791C36.9221 22.9902 36.2175 21.5269 35.4768 20.6777L34.8626 19.9731L34.9348 20.8584C35.0794 22.6108 35.5491 25.7363 35.802 26.6216C36.1091 27.6875 36.8679 28.6631 37.7712 29.1509C38.1326 29.3496 38.4216 29.5664 38.4216 29.6387C38.4216 29.9458 37.8254 29.7651 37.0305 29.2231C36.0911 28.5728 35.4587 27.3804 35.1336 25.6641L34.9348 24.5981L34.0134 25.3027C33.5076 25.7002 31.9719 26.5674 30.5989 27.2358L28.1238 28.4463L30.5086 29.0244C31.8274 29.3496 33.5979 29.729 34.447 29.8916C35.2962 30.0361 36.6692 30.3613 37.4822 30.6143C38.7288 30.9937 39.1443 31.2104 39.7766 31.8608C40.2102 32.2944 40.6438 32.9087 40.7161 33.2158L40.8787 33.7939L41.4207 32.7461C41.8904 31.7886 42.0891 31.6079 43.137 31.084C43.9861 30.6504 45.052 30.3433 47.0032 29.9458C48.5027 29.6567 50.6165 29.2051 51.7185 28.9341L53.7239 28.4644L51.2669 27.2358C49.9119 26.5674 48.3943 25.7002 47.9065 25.3027L46.9851 24.5981L46.678 25.9712C46.5154 26.73 46.1541 27.6514 45.9011 28.0308C45.3772 28.8257 44.1126 29.7832 43.6248 29.7832C43.1189 29.7832 43.2273 29.4941 43.8416 29.2412C44.7087 28.8799 45.7747 27.5791 46.0818 26.4951ZM44.0403 22.3579C43.137 22.7734 42.8118 22.8276 41.0413 22.8276C39.3069 22.8276 38.9094 22.7734 37.9519 22.3579L36.8499 21.9062L37.699 23.7129C38.1506 24.7246 39.0178 26.7842 39.614 28.2837C40.1921 29.8013 40.7341 31.0479 40.7883 31.0479C40.8425 31.0479 41.1316 30.5059 41.4026 29.8193C41.6917 29.1509 42.6311 27.0913 43.4983 25.2485L45.0701 21.8701L44.0403 22.3579ZM31.3577 30.6685C32.2971 29.8735 32.4055 29.9639 29.7498 29.3315C25.7932 28.3921 23.1194 29.0244 20.6082 31.4995C18.5486 33.5229 17.6453 36.0703 17.6453 39.8462V42.0684L18.5125 41.4541C18.9822 41.1108 20.6262 40.2256 22.1799 39.4849C24.637 38.2925 25.1428 37.9854 26.2449 36.9014C26.9495 36.2148 28.1961 34.6973 29.0271 33.5049C29.8762 32.3306 30.9241 31.0479 31.3577 30.6685ZM61.366 31.5718C60.1375 30.3252 59.0354 29.6567 57.4094 29.1689C56.5061 28.8979 54.5549 28.8076 53.6878 29.0063C50.9236 29.6025 49.8757 29.8374 49.7673 29.8916C49.7131 29.9277 50.1829 30.4697 50.8333 31.1021C51.4837 31.7163 52.5134 32.9448 53.1277 33.8481C53.7239 34.7334 54.8259 36.0522 55.5486 36.7749C56.741 37.9854 57.1204 38.2202 59.7039 39.4668C61.2576 40.2256 62.9197 41.1108 63.4075 41.4541L64.2566 42.0684V39.8823C64.2566 36.0161 63.4436 33.6675 61.366 31.5718ZM39.5418 32.2583C38.7107 31.373 38.0061 31.084 35.1878 30.5059C34.2664 30.3071 33.3269 30.1445 33.092 30.1445C32.4597 30.1445 30.9602 31.6079 29.5149 33.6494C28.0696 35.6909 26.0462 37.895 25.1248 38.4731C24.7815 38.6719 24.5105 38.9067 24.5105 38.9971C24.5105 39.0693 24.8899 39.4307 25.3777 39.7559C25.8474 40.0991 26.823 40.9121 27.5276 41.5806C29.5149 43.4053 31.4661 44.2363 33.7244 44.2363C34.2302 44.2363 35.3865 43.9834 36.3801 43.6763C37.8616 43.2065 38.259 42.9897 39.072 42.2129C39.596 41.707 40.2102 40.9482 40.427 40.4966C40.7883 39.7378 40.8064 39.5029 40.7161 37.0459C40.6257 34.1372 40.3728 33.1255 39.5418 32.2583ZM53.1458 34.6431C51.1404 31.9512 50.7791 31.5356 49.8215 30.813C48.846 30.0723 48.7014 30.0542 46.5515 30.4878C44.4016 30.9214 43.2996 31.3188 42.5408 31.9512C41.5652 32.7642 41.2942 33.7217 41.1858 36.9375C41.0955 39.5029 41.1135 39.7378 41.4749 40.4966C42.3601 42.3032 43.95 43.4053 46.5515 43.9834C49.3699 44.6157 52.2063 43.7124 54.8079 41.3276C55.6028 40.5869 56.5242 39.7739 56.8674 39.4849L57.4817 38.9971L57.03 38.6899C56.0003 37.9673 54.3562 36.269 53.1458 34.6431ZM23.2278 47.0186C24.2937 43.875 24.7996 40.2075 24.2576 39.4849C24.1311 39.3223 23.9866 39.1777 23.9504 39.1777C23.9143 39.1958 22.9026 39.6655 21.7102 40.2437C18.3679 41.8696 17.1394 42.9355 16.0012 45.1758C14.7366 47.687 14.6643 49.9272 15.7483 54.0825C16.2 55.7988 16.4348 57.208 16.5071 58.4546L16.6155 60.2974L17.1575 59.4482C17.4465 58.9785 18.0789 58.0752 18.5486 57.4248C19.9758 55.4917 21.5115 52.041 23.2278 47.0186ZM65.8645 44.9409C64.8347 43.0259 63.6423 41.9419 61.0588 40.6411C60.4446 40.334 59.4871 39.8823 58.9451 39.6475C57.9695 39.2139 57.9514 39.2139 57.6443 39.5571C57.3372 39.8823 57.3372 40.0811 57.5359 42.1226C57.7708 44.4712 58.4573 46.7837 60.1917 51.1919C61.4021 54.2451 62.2332 55.8169 63.6243 57.6958C64.2927 58.5811 64.9431 59.5386 65.0877 59.8096C65.2322 60.0986 65.3767 60.3154 65.3948 60.3154C65.4128 60.3154 65.449 59.5205 65.449 58.5449C65.4851 57.1538 65.6296 56.1782 66.2258 53.8296C67.2918 49.5659 67.2014 47.4702 65.8645 44.9409ZM26.823 43.5317C26.9675 41.9058 26.9495 41.8154 26.5339 41.3276C25.992 40.6772 25.1428 40.063 24.9802 40.2075C24.926 40.2617 24.8718 40.8218 24.8718 41.418C24.8538 42.8452 24.4744 44.8687 23.8782 46.6753C23.011 49.313 21.5837 52.9805 20.8972 54.3896C20.5178 55.1665 20.2649 55.7988 20.3552 55.7988C20.4275 55.7988 21.0056 55.2568 21.6379 54.5703C22.7039 53.4321 22.8303 53.2153 23.6975 50.7764C24.2034 49.3491 24.7092 48.2109 24.7996 48.2471C25.0706 48.3374 24.8899 49.0962 24.0588 51.2822C23.6253 52.4204 23.3001 53.3779 23.3181 53.4141C23.4265 53.5225 25.197 50.3066 25.6848 49.0962C26.2449 47.7231 26.6423 45.8081 26.823 43.5317ZM57.1204 42.9355C57.0662 42.3213 56.9758 41.4541 56.9216 41.0205C56.8674 40.605 56.759 40.2617 56.6868 40.2617C56.6145 40.2617 56.199 40.5869 55.7654 40.9844L54.9885 41.707L55.115 43.3691C55.3679 46.8921 55.9822 48.9697 57.6985 51.8604C58.5837 53.396 58.8186 53.6489 58.367 52.583C57.6082 50.8486 56.8494 48.3193 57.012 48.1567C57.1384 48.0303 57.2288 48.0483 57.283 48.229C57.3372 48.3735 57.7888 49.5659 58.2766 50.8848C59.2161 53.3599 59.7942 54.2993 60.9866 55.2388L61.6731 55.7808L60.9866 54.3896C60.1736 52.7456 58.3308 47.8496 57.6804 45.6455C57.4275 44.7964 57.1926 43.5679 57.1204 42.9355ZM41.7639 41.8335C41.4207 41.436 41.1316 41.0386 41.1316 40.9482C41.1316 40.623 40.8245 40.876 40.2463 41.6528C39.7044 42.3936 39.6863 42.502 39.9573 42.6646C40.1199 42.7549 40.427 43.0259 40.6257 43.2607L41.0051 43.6763L41.3484 43.2427C41.5291 43.0078 41.8362 42.7549 42.0349 42.7007C42.3782 42.5923 42.3601 42.5381 41.7639 41.8335ZM33.3811 44.5977C32.6404 44.5977 31.6648 44.4531 30.9421 44.2363C30.2918 44.0376 29.2258 43.5137 28.5754 43.0801L27.4011 42.2852V42.9355C27.4011 44.0195 26.8772 47.127 26.4797 48.5C26.1184 49.7285 26.1184 49.8369 26.3894 51.21C26.5339 51.9868 26.7869 53.6128 26.9495 54.8052C27.2024 56.666 27.8347 59.4121 28.0154 59.4121C28.1238 59.4121 29.8401 57.0454 30.5628 55.9072C31.6467 54.1909 32.3875 52.4023 32.8211 50.3789C33.2908 48.1748 34.1941 45.1938 34.447 45.0493C34.9168 44.7603 34.5193 44.5977 33.3811 44.5977ZM55.4763 48.3916C55.2415 47.5786 54.9524 46.1694 54.844 45.2661C54.7356 44.3447 54.5911 43.3149 54.5188 42.9355L54.4104 42.2852L53.7781 42.8091C52.6941 43.7305 50.6345 44.4531 48.864 44.5615C47.9788 44.6157 47.2742 44.6699 47.2742 44.7061C47.2742 44.7241 47.4368 45.0312 47.6174 45.3564C47.8162 45.6816 48.3762 47.5244 48.8821 49.4395C49.3699 51.3726 50.0383 53.4863 50.3455 54.1367C50.9236 55.3833 52.4954 57.8042 53.3987 58.834L53.9045 59.4302L54.2297 58.6533C54.4104 58.2197 54.844 56.0698 55.2234 53.8838L55.9099 49.873L55.4763 48.3916ZM40.7341 47.0908C40.8245 44.7783 40.698 43.9653 40.1379 43.4053C39.6321 42.8994 39.1985 42.8633 38.6565 43.2427C38.4578 43.3872 37.6809 43.7124 36.9583 43.9834C36.1995 44.2544 35.4226 44.6699 35.1516 44.959C34.5916 45.5371 34.0676 47.0186 33.4895 49.6924L33.0559 51.6255L33.5798 51.1919C34.176 50.686 34.5554 50.6138 37.157 50.4873C40.4089 50.3247 40.5896 50.144 40.7341 47.0908ZM45.2869 44.146C44.7449 43.9834 43.9319 43.6401 43.4983 43.4053C42.613 42.9175 42.595 42.9175 42.1614 43.1704C41.4387 43.5859 41.24 44.3989 41.24 46.8921C41.2219 49.1323 41.2581 49.2949 41.6375 49.7104C42.1614 50.2524 42.595 50.3608 45.5398 50.5596C47.491 50.686 47.9607 50.7764 48.4124 51.1016C48.8821 51.4629 48.9363 51.4629 48.846 51.1738C48.7918 50.9751 48.5027 49.8369 48.1956 48.6265C47.3645 45.2661 46.9851 44.688 45.2869 44.146ZM41.4749 50.6499C41.6013 50.5776 41.5652 50.397 41.3665 50.1079C40.969 49.5659 40.9148 49.5659 40.6257 50.0176C40.4451 50.3247 40.4631 50.4873 40.698 50.957C40.9871 51.5171 41.0051 51.5171 41.1497 51.1558C41.2219 50.957 41.3665 50.7222 41.4749 50.6499ZM40.5535 56.0698C40.9148 55.022 40.7703 51.8604 40.3547 51.228C40.156 50.9209 39.885 50.7583 39.6321 50.7583C37.2473 50.9209 34.9529 51.1558 34.3928 51.3003C33.3811 51.5713 33.0017 52.2939 33.0017 53.9922C33.0017 56.9912 33.3811 57.3164 36.886 57.3164C39.7044 57.3164 40.1921 57.1357 40.5535 56.0698ZM48.7376 52.2217C48.3943 51.4087 47.6536 51.1558 44.8352 50.939C43.426 50.8306 42.1975 50.7402 42.0711 50.7402C41.9627 50.7402 41.7278 51.0112 41.5471 51.3184C41.1135 52.1494 41.1135 55.9072 41.5471 56.5938C41.9265 57.1538 42.884 57.3345 45.2869 57.3164C47.509 57.3164 48.304 57.0454 48.6653 56.2144C48.9905 55.4194 49.0266 52.9443 48.7376 52.2217ZM32.7849 57.6777C33.1101 57.0454 33.1101 56.937 32.8753 56.3589C32.7307 56.0156 32.5501 55.2026 32.4778 54.5522L32.3694 53.396L32.1345 54.0464C32.0081 54.4077 31.2131 55.7446 30.364 56.9912C29.533 58.2559 28.8464 59.3037 28.8464 59.3218C28.8464 59.3398 29.3162 59.5386 29.9124 59.7554C30.4905 59.9541 31.2493 60.3335 31.5925 60.5684L32.2249 61.002L32.3333 59.6831C32.3875 58.9243 32.5681 58.0933 32.7849 57.6777ZM53.0374 59.394L51.7546 57.4609C51.0501 56.395 50.2371 55.04 49.9661 54.4438L49.4421 53.3599V54.3896C49.4421 54.9678 49.3157 55.8169 49.1531 56.2686C48.8821 57.0635 48.8821 57.1719 49.1712 57.7681C49.3518 58.1294 49.5325 58.9966 49.5867 59.7192L49.677 61.02L50.3274 60.5864C50.6887 60.3516 51.4475 59.9902 52.0076 59.7734L53.0374 59.394ZM15.9832 59.3398C16.0374 57.7861 15.9651 57.0454 15.658 55.7266C15.4412 54.8232 15.2063 53.9741 15.134 53.8657C14.9895 53.5767 13.6887 55.4736 13.0203 56.937C12.5505 57.9849 12.406 58.6172 11.051 65.7354C10.491 68.6621 9.13599 73.4678 8.323 75.437C8.07008 76.0151 8.68433 75.5815 9.42506 74.624C10.3464 73.4858 12.5325 69.1318 14.592 64.3804L15.929 61.3091L15.9832 59.3398ZM70.5798 63.9468C69.7488 59.3218 69.3152 57.5874 68.7009 56.377C68.448 55.9072 67.9421 55.0942 67.5447 54.5703L66.822 53.6309L66.4065 55.1123C66.0632 56.3228 65.9729 57.0454 65.9729 58.8701C65.9729 61.002 66.009 61.2007 66.551 62.5015C69.0984 68.626 71.5735 73.6484 72.6755 74.9131C73.1453 75.437 73.5427 75.8345 73.5969 75.7803C73.6331 75.7441 73.4163 74.9854 73.1091 74.1182C72.1155 71.3179 71.3386 68.1743 70.5798 63.9468ZM22.5232 56.2505C22.5232 55.6001 22.6135 54.8955 22.7219 54.6787C22.8303 54.48 22.8845 54.2812 22.8303 54.2451C22.7942 54.209 21.6921 55.2026 20.4094 56.4673C18.4763 58.3643 17.8621 59.0869 17.0129 60.5322C15.8025 62.5737 15.6218 63.1519 14.1946 68.897C12.9119 74.1001 12.2615 76.1416 12.0086 75.8887C11.8821 75.7622 11.9002 75.4551 12.117 74.9673C12.4421 74.1362 14.4295 66.2593 14.3391 66.1689C14.303 66.1328 14.0862 66.5664 13.8513 67.1445C13.6165 67.7046 12.7493 69.5293 11.9182 71.1914C10.1658 74.6782 9.40699 75.6357 7.38355 76.8643C6.6067 77.334 5.19752 78.4722 4.1858 79.4478C3.02955 80.5679 2.0359 81.3447 1.4397 81.6157C0.482185 82.0674 0.265388 82.4287 0.698982 82.8623C0.825447 82.9888 1.11451 83.0791 1.36744 83.0791C1.94556 83.0791 5.10718 82.23 5.77564 81.8867C6.35377 81.5977 6.80543 81.5615 6.80543 81.7964C6.80543 81.9771 5.14332 82.7178 4.72779 82.7178C4.58326 82.7178 4.4026 82.8623 4.33033 83.0249C4.279 83.196 3.69303 84.485 3.01734 85.9713L2.90308 86.2227C1.83717 88.5352 1.62037 89.1494 1.7649 89.4385C1.8733 89.6553 2.10816 89.7637 2.34302 89.7275C2.65015 89.6914 2.99342 89.1855 3.82447 87.5054L4.94459 85.2651C4.96265 85.2471 5.07105 85.2651 5.17945 85.3374C5.30592 85.4097 4.90845 86.3672 4.00513 88.0654C2.88502 90.2515 2.68629 90.7573 2.84888 91.0464C3.26441 91.8413 3.71607 91.3896 5.19752 88.6797C6.48023 86.3491 6.98609 85.6084 6.98609 86.0962C6.98609 86.1865 6.4441 87.2705 5.79371 88.499C4.54713 90.8657 4.47486 91.2993 5.37818 91.2993C5.75758 91.2993 5.97437 90.9922 6.91383 89.1313C7.92554 87.1982 8.4314 86.4756 8.4314 87.0356C8.4314 87.1621 8.14234 87.8125 7.78101 88.5352C7.22095 89.6372 7.16676 89.854 7.38355 90.0708C7.79908 90.4863 8.21461 90.1611 9.00953 88.7881C9.42506 88.0835 10.4006 86.5479 11.1775 85.3735C12.8035 82.9165 13.0203 82.248 12.8938 80.3691C12.8035 79.2129 12.8396 78.96 13.1287 78.6528C13.3093 78.4541 13.9597 77.3882 14.574 76.3042C18.4041 69.4209 22.5232 59.0508 22.5232 56.2505ZM65.9368 62.3027C64.7986 59.7915 63.3713 57.9849 60.4085 55.293C59.8303 54.7871 59.3245 54.3535 59.2883 54.3535C59.2522 54.3535 59.3064 54.6426 59.4148 55.022C59.5051 55.3833 59.5413 56.0156 59.469 56.4492C59.3606 57.2261 60.0291 59.4121 61.8718 64.3804C63.4436 68.626 68.1589 78.2012 69.0261 78.9238C69.2249 79.0684 69.2429 79.2671 69.1165 79.7007C68.8274 80.7124 68.9358 82.0312 69.3875 82.9888C69.6043 83.4946 70.4534 84.8677 71.2483 86.0601C72.0432 87.2524 72.8743 88.5532 73.073 88.9507C73.5427 89.8901 74.0486 90.3418 74.4461 90.1973C74.8254 90.0527 74.7893 89.9263 73.9944 88.1919C73.6692 87.4692 73.4705 86.8188 73.5608 86.7466C73.6331 86.6562 73.7415 86.6743 73.7776 86.7827C73.8137 86.873 74.3557 87.939 74.97 89.1313C76.0178 91.1729 76.1262 91.2993 76.6321 91.2993C77.3547 91.2993 77.427 90.7393 76.8489 89.8179C75.9998 88.481 74.9158 86.1685 75.0964 86.0601C75.1868 86.0059 75.4036 86.2227 75.5662 86.5479C76.6502 88.6978 78.24 91.3896 78.4387 91.3896C78.7278 91.3896 79.2517 90.9019 79.2517 90.6309C79.2517 90.5225 78.9807 89.9805 78.6375 89.4204C77.7703 87.9932 76.7224 85.8433 76.7224 85.5181C76.7224 85.0664 76.9934 85.2109 77.2102 85.8071C77.6077 86.8369 79.3059 89.7637 79.5227 89.7637C79.6311 89.7637 79.884 89.6553 80.0647 89.5107C80.4622 89.2217 80.6067 89.6372 78.4929 85.0122L77.5173 82.8623L76.5598 82.5552C76.0359 82.3745 75.53 82.1396 75.4036 82.0132C75.0422 81.6519 75.4397 81.5796 76.1262 81.8687C76.5056 82.0312 77.3005 82.2842 77.8967 82.4287C78.4929 82.5913 79.3059 82.8081 79.7214 82.9165C80.697 83.2056 81.4197 83.0249 81.4197 82.4648C81.4197 82.1396 81.2029 81.9409 80.3899 81.5254C79.7576 81.2183 78.6555 80.3511 77.6257 79.3574C76.6863 78.4722 75.3313 77.3882 74.6267 76.9727C72.7478 75.8887 71.7722 74.6963 70.2727 71.7695C69.5862 70.3784 68.7371 68.626 68.4119 67.8672C68.0686 67.0903 67.7795 66.4941 67.7434 66.5303C67.6531 66.6206 69.4597 73.7749 69.8572 74.8047C70.092 75.4009 70.1462 75.8164 70.0378 75.9248C69.7307 76.2319 69.3152 74.895 67.8699 69.0776C67.093 65.9521 66.2258 62.9531 65.9368 62.3027ZM41.24 57.9307C41.3484 57.7139 41.4568 57.4248 41.4568 57.3345C41.4568 57.2261 41.3484 57.0093 41.2219 56.8286C41.0232 56.5396 40.9871 56.5396 40.698 56.9731C40.427 57.3887 40.427 57.4609 40.7161 57.8945L41.0051 58.3643L41.24 57.9307ZM40.0837 57.6958H37.1209C35.5129 57.6777 33.9954 57.6055 33.7966 57.5332C33.4534 57.4067 33.363 57.4971 33.092 58.2197C32.6765 59.3218 32.7849 62.104 33.2908 63.1338C33.8147 64.1997 34.176 64.3081 36.9944 64.2539C39.867 64.1816 40.2644 64.019 40.6077 62.8086C40.8787 61.7607 40.7341 58.9243 40.3728 58.2378L40.0837 57.6958ZM47.8884 64.0913C49.0808 63.5312 49.6228 59.9902 48.7918 58.0029C48.5388 57.3887 48.3401 57.3345 47.2742 57.6416C46.9128 57.75 45.6663 57.7861 44.3655 57.7319C43.1008 57.6958 41.9988 57.6958 41.8904 57.7681C41.4749 58.021 41.3123 58.9785 41.3123 61.0381C41.3123 63.5854 41.4568 63.8926 42.866 64.1274C44.2029 64.3442 47.3826 64.3262 47.8884 64.0913ZM54.0852 62.375C54.031 61.562 53.8503 60.6045 53.7058 60.2432C53.4168 59.5386 53.3806 59.5205 53.1458 59.7554C53.0374 59.8457 52.5676 60.0806 52.0618 60.2612C51.574 60.46 50.8333 60.8213 50.4177 61.0742C49.7854 61.4897 49.6228 61.7246 49.2253 62.8809C48.846 64.019 48.7918 64.3984 48.8821 65.7534L48.9905 67.3071L50.5803 66.3857C51.4475 65.8799 52.6218 65.103 53.1819 64.6694L54.1936 63.8745L54.0852 62.375ZM31.448 61.0562C30.9421 60.731 30.093 60.3335 29.551 60.1348C29.0271 59.936 28.5574 59.7734 28.5212 59.7734C28.3225 59.7734 27.9612 61.1826 27.8709 62.4111L27.7444 63.8745L28.72 64.6152C29.2439 65.0308 30.4002 65.8076 31.3035 66.3315L32.9114 67.3071L33.0378 65.8438C33.1101 65.0488 33.1643 64.29 33.1824 64.1997C33.1824 64.0913 33.0017 63.4771 32.7849 62.8086C32.4236 61.7065 32.2971 61.562 31.448 61.0562ZM41.24 64.6875C41.3665 64.3442 41.3845 64.0732 41.2581 63.7842C41.0413 63.2964 40.9148 63.2783 40.6438 63.748C40.4631 64.019 40.4812 64.1997 40.7161 64.6333L41.0413 65.1753L41.24 64.6875ZM32.9656 67.9575C32.8572 67.8311 32.1887 67.4155 31.4661 67.0181C30.7434 66.6206 29.6052 65.8799 28.9548 65.374L27.7625 64.4526V65.9883C27.7625 67.4336 27.7986 67.5962 28.5032 68.9331C30.6531 72.998 34.9348 77.4966 38.6204 79.5381L39.5598 80.062L38.6384 78.9419C36.5969 76.4849 34.9348 73.4316 33.7063 69.8545C33.3811 68.9331 33.0559 68.084 32.9656 67.9575ZM39.325 64.5791C38.9275 64.6514 37.6809 64.7056 36.5789 64.7236C35.4587 64.7236 34.3206 64.6875 34.0496 64.5972C33.5798 64.4707 33.5618 64.5068 33.4353 65.3018C33.1824 67.0361 34.0857 70.27 35.802 73.7207C36.9221 75.979 38.1687 77.8218 39.6863 79.4658L40.7703 80.6401L40.7341 73.0522C40.6799 66.1147 40.6438 65.4102 40.3547 64.9585C40.0657 64.5249 39.9573 64.4888 39.325 64.5791ZM47.4548 64.6694C47.0032 64.7778 45.8831 64.814 44.9255 64.7417C43.9861 64.6875 42.9202 64.5972 42.5588 64.543C41.7639 64.4346 41.5471 64.6514 41.3123 65.916C41.0955 67.0181 41.0593 80.5498 41.2761 80.5317C41.5291 80.5137 43.8777 77.7134 44.6726 76.4849C46.6599 73.4136 48.322 69.0234 48.4666 66.4941C48.5208 65.627 48.4846 64.832 48.4124 64.7056C48.304 64.543 48.051 64.543 47.4548 64.6694ZM53.6697 68.4453C54.2297 67.2891 54.3201 66.9277 54.3201 65.7896C54.3201 65.0669 54.2659 64.4707 54.1936 64.4707C54.1033 64.4888 53.76 64.7417 53.3987 65.0669C53.0374 65.3921 52.0618 66.0425 51.2307 66.5303C48.864 67.9214 48.9363 67.8491 48.3401 69.5835C47.0935 73.3232 45.1785 76.9365 43.4441 78.8335C42.9563 79.3755 42.613 79.8271 42.7034 79.8271C42.7937 79.8271 43.426 79.4658 44.0945 79.0142C48.1594 76.3584 51.8269 72.2935 53.6697 68.4453ZM58.385 99.8267C59.8123 93.106 59.2703 87.5776 55.8377 73.7749C55.2053 71.1914 54.6091 68.9331 54.5369 68.7344C54.3562 68.3008 53.9768 70.5771 53.8503 72.8716C53.76 74.2808 53.8865 75.2925 54.7537 80.4595C56.2351 89.4023 56.4158 90.7573 56.6506 96.3579C56.741 98.5439 56.7771 101.525 56.7048 103.006C56.6326 104.47 56.6145 105.662 56.6687 105.662C56.8494 105.662 57.9334 101.94 58.385 99.8267ZM28.3587 73.7749L28.0335 71.3359C27.8528 69.999 27.6541 68.8428 27.5999 68.7705C27.4734 68.626 25.6848 75.4551 24.7815 79.502C23.2097 86.5117 22.7942 89.8721 22.9387 94.0093C23.0652 97.4238 23.4988 99.9712 24.5105 103.223C24.908 104.506 25.2512 105.626 25.2874 105.716C25.3054 105.789 25.2874 104.126 25.2512 102.031C25.1428 95.1836 25.5042 91.2271 27.2566 80.5498L28.3587 73.7749ZM33.092 84.6147C31.3577 78.96 30.1834 74.6421 30.0027 73.1426C29.9304 72.4199 29.6594 71.7695 29.0813 70.7939C28.2683 69.457 28.2683 69.439 28.3767 70.1797C28.7922 73.0522 29.2439 77.2075 29.4788 80.333C29.6233 82.3384 30.075 86.5659 30.4724 89.7275C31.2493 95.7256 31.5383 99.5918 31.5564 103.675C31.5564 105.752 31.9358 109.546 32.1707 109.763C32.2068 109.799 32.6043 108.95 33.074 107.866C34.6638 104.072 35.7117 99.2305 35.7117 95.5811C35.7117 93.5938 35.1878 91.4258 33.092 84.6147ZM52.5134 80.0078C52.8567 76.0151 53.5071 70.4688 53.7058 69.8364C53.8865 69.2764 53.6516 69.5112 53.1458 70.3784C52.8748 70.8662 52.5496 71.3721 52.4231 71.5166C52.2966 71.6611 52.0979 72.438 51.9714 73.2329C51.7185 74.8589 50.6165 78.8516 48.7195 84.9761C47.0032 90.5044 46.3528 93.0156 46.2444 94.6416C45.9915 98.2729 47.3284 104.578 49.2253 108.553L49.8577 109.908L50.0925 108.282C50.219 107.378 50.3635 104.614 50.4358 102.139C50.5623 96.7915 50.7068 94.9849 51.5378 88.77C51.8811 86.1865 52.3328 82.248 52.5134 80.0078ZM38.3313 79.8271C36.2717 78.6709 33.6882 76.5752 32.2429 74.9312C31.6829 74.2988 31.0325 73.522 30.7795 73.2329L30.3098 72.6909L30.6712 74.3169C31.1589 76.6113 32.0984 79.9717 33.5798 84.7051C35.0071 89.2578 35.9465 92.8892 36.7234 96.8638L37.2293 99.5376L37.7351 97.6768C38.9636 93.124 39.7766 87.957 39.9753 83.4404L40.0837 80.8208L38.3313 79.8271ZM48.2678 84.9761C49.8577 79.791 50.9959 75.8525 51.3572 74.1543C51.5017 73.4678 51.592 72.8896 51.5559 72.8535C51.5378 72.8174 51.1043 73.2871 50.6165 73.9014C48.8821 75.9971 46.1902 78.2012 42.6311 80.4414L41.8543 80.9111V82.6997C41.8543 84.8496 42.1072 87.4873 42.595 90.396C42.9744 92.6724 44.3294 98.7065 44.5462 99.1221C44.6184 99.2485 44.9436 98.0381 45.2869 96.4121C46.136 92.2568 46.7322 89.9263 48.2678 84.9761ZM29.9304 88.9146C29.6414 86.6201 29.2258 82.6636 29.0271 80.1523C28.8103 77.6411 28.6296 75.5635 28.5935 75.5454C28.5032 75.4551 26.4797 87.957 26.2268 90.2153C25.739 94.479 25.5403 100.604 25.7932 104.632C25.9016 106.638 26.0462 109.131 26.1184 110.179L26.2268 112.076L27.3831 110.359C29.8943 106.583 30.7795 104.126 30.9602 100.333C31.0505 98.0562 30.9421 96.7192 29.9304 88.9146ZM55.9822 108.191C56.6868 99.0859 56.3074 92.1304 54.573 82.0312C54.2117 79.9717 53.8142 77.6411 53.6878 76.8462C53.5613 76.0513 53.4168 75.5273 53.3626 75.6719C53.3084 75.8164 53.1277 77.6411 52.9651 79.7368C52.8025 81.8145 52.3508 85.9155 51.9714 88.8604C50.7429 98.1646 50.6707 100.116 51.3391 103.404C51.6824 105.138 52.947 107.848 54.5369 110.323L55.6751 112.076L55.9822 108.191ZM49.0266 109.185C48.1594 107.396 47.0754 104.271 46.5696 102.085C46.3528 101.182 46.0818 99.5015 45.9553 98.3813L45.7205 96.3579L45.3953 98.02C44.8894 100.712 44.7449 102.5 44.7449 105.843C44.7449 110.341 45.2869 113.684 46.5515 117.315C47.3464 119.537 47.3645 119.555 47.3826 117.983C47.4006 116.827 47.509 116.303 48.0691 114.876C48.4485 113.937 48.9544 112.582 49.2253 111.877L49.6951 110.594L49.0266 109.185ZM35.4045 117.098C37.3015 111.461 37.6809 105.012 36.5066 98.2729C36.3621 97.4238 36.2175 96.7192 36.1814 96.6831C36.1453 96.647 36.0549 97.2974 36.0007 98.1104C35.6755 101.796 34.447 106.186 32.8211 109.456L32.3152 110.45L32.6404 111.443C32.8211 111.985 33.3088 113.25 33.7244 114.244C34.3567 115.725 34.5193 116.339 34.6096 117.586L34.718 119.122L35.4045 117.098ZM32.0081 111.227C31.7732 110.161 31.4841 108.661 31.3757 107.884C31.2854 107.107 31.177 105.951 31.1409 105.301C31.1047 104.488 31.0505 104.235 30.9602 104.488C30.8699 104.687 30.5989 105.355 30.364 105.951C29.8401 107.252 27.9793 110.377 26.8953 111.823C26.1545 112.816 26.1365 112.853 26.1365 114.262C26.1365 115.039 26.2268 116.014 26.3533 116.412C26.4797 116.899 26.552 120.621 26.5701 127.703C26.6062 139.591 26.6423 140.042 27.9793 145.3L28.7019 148.172L29.9666 149.816C31.8455 152.31 32.0623 153.448 31.3757 157.603C31.177 158.795 31.0144 159.934 31.0144 160.114C31.0144 160.439 31.0325 160.439 31.3757 160.132C31.8816 159.681 32.0623 158.976 32.3694 156.158C32.8211 152.165 32.7849 151.822 31.7371 148.949C30.6531 145.968 30.4182 145.101 29.9485 142.247C29.0994 137.188 28.8284 132.147 29.2078 128.697C29.5149 126.149 29.8762 124.56 30.8518 121.741C31.3577 120.296 31.9177 118.562 32.1165 117.875C32.6043 116.086 32.5681 113.684 32.0081 111.227ZM54.7175 111.353C54.1575 110.54 53.2542 109.095 52.7122 108.119C52.1702 107.144 51.5559 105.843 51.3211 105.229L50.9236 104.126L50.8152 105.572C50.6526 107.451 50.2009 110.504 49.8577 111.985C49.7131 112.636 49.5867 114.009 49.5867 115.057C49.5867 117.134 49.6409 117.351 51.2307 121.922C52.5496 125.68 52.929 128.028 52.929 132.4C52.947 138.507 51.9895 143.999 49.9119 149.889C49.2253 151.84 49.135 152.671 49.4421 154.532C49.5325 155.128 49.6951 156.411 49.8035 157.386C49.9841 159.175 50.2371 159.952 50.8152 160.421C51.1765 160.71 51.2127 161.144 50.5081 156.519C50.1287 153.936 50.1287 153.755 50.3997 152.797C50.6707 151.858 51.1223 151.099 52.7664 148.823C53.1819 148.227 53.5252 147.377 53.9226 145.842C55.2415 140.855 55.4221 138.525 55.386 126.836C55.386 120.44 55.4402 117.116 55.5667 116.683C55.6751 116.339 55.7654 115.328 55.7654 114.424V112.798L54.7175 111.353ZM34.0676 120.422C34.3748 118.236 34.3206 117.152 33.8147 115.653C32.9837 113.214 32.9114 113.196 32.8933 115.382C32.8753 117.08 32.803 117.514 32.2971 118.941C29.9124 125.607 29.533 127.45 29.551 132.581C29.551 134.514 29.6233 136.592 29.7136 137.188C29.804 137.784 29.8943 138.055 29.9124 137.802C29.9666 136.465 30.5628 133.99 31.448 131.316C32.4417 128.299 33.7063 123.024 34.0676 120.422ZM52.405 132.942C52.4231 127.089 52.1521 125.589 49.8938 119.483C49.3157 117.929 49.2073 117.369 49.117 115.599L48.9905 113.521L48.4846 114.876C47.8523 116.538 47.7258 117.857 47.9607 120.206C48.2136 122.699 49.4602 128.245 50.5261 131.551C51.4475 134.478 51.9534 136.646 51.9895 137.766L52.0076 138.453L52.1882 137.911C52.2966 137.604 52.387 135.508 52.405 132.942ZM25.7029 124.523C26.0823 123.205 26.1365 122.626 26.1365 120.332C26.1365 118.869 26.0642 117.586 25.992 117.459C25.9197 117.333 25.4861 118.58 24.9983 120.35C23.5891 125.427 23.5349 125.788 23.5349 129.51C23.5169 133.773 23.9143 136.303 25.7932 144.017L26.5339 147.052L27.2385 147.396C28.1238 147.865 28.1238 147.865 27.9251 147.161C27.8347 146.854 27.5095 145.571 27.2205 144.324C26.9133 143.078 26.4617 141.379 26.2087 140.53C25.3777 137.712 24.8357 134.044 24.8176 131.045C24.8176 128.209 24.9622 127.035 25.7029 124.523ZM58.5476 129.6C58.5476 126.619 58.3128 125.192 57.012 120.567C56.5061 118.778 56.0725 117.279 56.0364 117.261C55.8557 117.08 55.7473 119.013 55.8015 121.019C55.8738 122.897 55.9822 123.638 56.488 125.445C57.0842 127.541 57.1023 127.721 57.1023 130.955C57.1204 134.604 56.8855 136.267 55.928 139.898C55.2415 142.445 53.9768 147.648 54.031 147.721C54.1394 147.829 55.2415 147.143 55.4041 146.872C55.6389 146.42 56.7229 142.03 57.3733 138.904C58.2405 134.659 58.5476 132.328 58.5476 129.6ZM35.26 130.684C35.26 127.775 35.1878 126.926 34.8264 125.174C34.5916 124.036 34.3567 122.988 34.2844 122.879C34.2122 122.753 33.887 123.837 33.5618 125.282C33.2366 126.746 32.4959 129.419 31.8997 131.244C31.3215 133.069 30.7073 135.327 30.5628 136.23C30.0208 139.591 30.3098 143.186 31.4119 146.673C31.719 147.612 32.0081 148.443 32.0623 148.516C32.1345 148.588 32.1887 147.648 32.2068 146.438C32.2249 143.818 32.532 142.21 33.6521 139.211C35.1336 135.237 35.26 134.55 35.26 130.684ZM50.2371 132.184C49.7854 130.756 49.0447 128.064 48.6111 126.167C48.1594 124.289 47.78 122.717 47.7439 122.681C47.7078 122.663 47.5452 123.15 47.3826 123.783C46.5515 127.125 46.3167 131.515 46.8225 134.37C46.967 135.201 47.5813 137.314 48.1775 139.067C49.4602 142.825 49.8035 144.433 49.8215 146.908V148.75L50.1829 147.757C51.4295 144.342 51.9172 139.609 51.3572 136.429C51.1946 135.508 50.7068 133.611 50.2371 132.184ZM26.4255 139.266C26.1365 137.748 25.9378 132.057 26.0462 128.643C26.1184 126.547 26.1365 124.812 26.0823 124.812C26.0462 124.812 25.8474 125.481 25.6668 126.294C25.1428 128.57 25.179 133.502 25.7571 136.646C25.992 137.929 26.2629 139.157 26.3533 139.356C26.4797 139.663 26.4978 139.645 26.4255 139.266ZM56.2351 136.646C56.8855 132.997 56.9216 129.148 56.3435 126.637C56.1267 125.698 55.928 124.921 55.9099 124.885C55.8738 124.867 55.8557 127.342 55.8557 130.377C55.8557 133.43 55.7835 136.736 55.7112 137.73C55.6389 138.706 55.6209 139.482 55.657 139.428C55.7112 139.374 55.9641 138.127 56.2351 136.646ZM30.4724 151.316C29.5872 149.853 28.3948 148.534 27.5637 148.118C27.1843 147.919 26.8411 147.757 26.7869 147.757C26.6423 147.757 26.5339 148.335 26.3171 150.051C26.0462 152.49 25.8113 153.52 25.3777 154.423C24.926 155.363 22.6497 157.802 21.1321 158.976C19.3977 160.331 18.4041 161.307 18.2053 161.885C18.0427 162.373 18.0608 162.481 18.5125 162.915C19.6868 164.107 23.1375 164.739 24.9802 164.125C25.468 163.962 26.281 163.493 26.8049 163.059C27.3289 162.644 28.3406 161.975 29.0632 161.578C30.1111 161 30.3821 160.747 30.4905 160.313C30.8157 158.795 31.2312 154.893 31.177 153.701C31.1047 152.544 31.0144 152.201 30.4724 151.316ZM56.1267 153.123C55.9641 152.346 55.4041 148.353 55.4041 147.883C55.4041 147.667 54.9885 147.757 54.2659 148.136C52.8567 148.877 50.7249 152.328 50.7068 153.881C50.6887 154.297 51.3572 159.5 51.5378 160.53C51.592 160.837 51.9714 161.126 52.8386 161.56C53.5071 161.903 54.4285 162.481 54.8621 162.842C56.3616 164.089 56.9216 164.288 58.927 164.288C60.3362 164.27 60.9685 164.197 61.7996 163.872C62.9378 163.457 63.8953 162.698 63.8953 162.228C63.8953 161.632 63.1545 160.765 61.7092 159.663C58.367 157.115 56.5242 154.965 56.1267 153.123Z" fill="black"/>
<path d="M15.658 55.7266C15.9651 57.0454 16.0374 57.7861 15.9832 59.3398L15.929 61.3091L14.592 64.3804C12.5325 69.1318 10.3464 73.4858 9.42506 74.624C8.68433 75.5815 8.07008 76.0151 8.323 75.437C9.13599 73.4678 10.491 68.6621 11.051 65.7354C12.406 58.6172 12.5505 57.9849 13.0203 56.937C13.6887 55.4736 14.9895 53.5767 15.134 53.8657C15.2063 53.9741 15.4412 54.8232 15.658 55.7266Z" fill="#CDD52A"/>
<path d="M22.7219 54.6787C22.6135 54.8955 22.5232 55.6001 22.5232 56.2505C22.5232 59.0508 18.4041 69.4209 14.574 76.3042C13.9597 77.3882 13.3093 78.4541 13.1287 78.6528C12.8396 78.96 12.8035 79.2129 12.8938 80.3691C13.0203 82.248 12.8035 82.9165 11.1775 85.3735C10.4006 86.5479 9.42506 88.0835 9.00953 88.7881C8.21461 90.1611 7.79908 90.4863 7.38355 90.0708C7.16676 89.854 7.22095 89.6372 7.78101 88.5352C8.14234 87.8125 8.4314 87.1621 8.4314 87.0356C8.4314 86.4756 7.92554 87.1982 6.91383 89.1313C5.97437 90.9922 5.75758 91.2993 5.37818 91.2993C4.47486 91.2993 4.54713 90.8657 5.79371 88.499C6.4441 87.2705 6.98609 86.1865 6.98609 86.0962C6.98609 85.6084 6.48023 86.3491 5.19752 88.6797C3.71607 91.3896 3.26441 91.8413 2.84888 91.0464C2.68629 90.7573 2.88502 90.2515 4.00513 88.0654C4.90845 86.3672 5.30592 85.4097 5.17945 85.3374C5.07105 85.2651 4.96265 85.2471 4.94459 85.2651L3.82447 87.5054C2.99342 89.1855 2.65015 89.6914 2.34302 89.7275C2.10816 89.7637 1.8733 89.6553 1.7649 89.4385C1.62037 89.1494 1.83717 88.5352 2.90308 86.2227L3.01734 85.9713C3.69303 84.485 4.279 83.196 4.33033 83.0249C4.4026 82.8623 4.58326 82.7178 4.72779 82.7178C5.14332 82.7178 6.80543 81.9771 6.80543 81.7964C6.80543 81.5615 6.35377 81.5977 5.77564 81.8867C5.10718 82.23 1.94556 83.0791 1.36744 83.0791C1.11451 83.0791 0.825447 82.9888 0.698982 82.8623C0.265388 82.4287 0.482185 82.0674 1.4397 81.6157C2.0359 81.3447 3.02955 80.5679 4.1858 79.4478C5.19752 78.4722 6.6067 77.334 7.38355 76.8643C9.40699 75.6357 10.1658 74.6782 11.9182 71.1914C12.7493 69.5293 13.6165 67.7046 13.8513 67.1445C14.0862 66.5664 14.303 66.1328 14.3391 66.1689C14.4295 66.2593 12.4421 74.1362 12.117 74.9673C11.9002 75.4551 11.8821 75.7622 12.0086 75.8887C12.2615 76.1416 12.9119 74.1001 14.1946 68.897C15.6218 63.1519 15.8025 62.5737 17.0129 60.5322C17.8621 59.0869 18.4763 58.3643 20.4094 56.4673C21.6921 55.2026 22.7942 54.209 22.8303 54.2451C22.8845 54.2812 22.8303 54.48 22.7219 54.6787Z" fill="#CDD52A"/>
<path d="M60.4085 55.293C63.3713 57.9849 64.7986 59.7915 65.9368 62.3027C66.2258 62.9531 67.093 65.9521 67.8699 69.0776C69.3152 74.895 69.7307 76.2319 70.0378 75.9248C70.1462 75.8164 70.092 75.4009 69.8572 74.8047C69.4597 73.7749 67.6531 66.6206 67.7434 66.5303C67.7795 66.4941 68.0686 67.0903 68.4119 67.8672C68.7371 68.626 69.5862 70.3784 70.2727 71.7695C71.7722 74.6963 72.7478 75.8887 74.6267 76.9727C75.3313 77.3882 76.6863 78.4722 77.6257 79.3574C78.6555 80.3511 79.7576 81.2183 80.3899 81.5254C81.2029 81.9409 81.4197 82.1396 81.4197 82.4648C81.4197 83.0249 80.697 83.2056 79.7214 82.9165C79.3059 82.8081 78.4929 82.5913 77.8967 82.4287C77.3005 82.2842 76.5056 82.0312 76.1262 81.8687C75.4397 81.5796 75.0422 81.6519 75.4036 82.0132C75.53 82.1396 76.0359 82.3745 76.5598 82.5552L77.5173 82.8623L78.4929 85.0122C80.6067 89.6372 80.4622 89.2217 80.0647 89.5107C79.884 89.6553 79.6311 89.7637 79.5227 89.7637C79.3059 89.7637 77.6077 86.8369 77.2102 85.8071C76.9934 85.2109 76.7224 85.0664 76.7224 85.5181C76.7224 85.8433 77.7703 87.9932 78.6375 89.4204C78.9807 89.9805 79.2517 90.5225 79.2517 90.6309C79.2517 90.9019 78.7278 91.3896 78.4387 91.3896C78.24 91.3896 76.6502 88.6978 75.5662 86.5479C75.4036 86.2227 75.1868 86.0059 75.0964 86.0601C74.9158 86.1685 75.9998 88.481 76.8489 89.8179C77.427 90.7393 77.3547 91.2993 76.6321 91.2993C76.1262 91.2993 76.0178 91.1729 74.97 89.1313C74.3557 87.939 73.8137 86.873 73.7776 86.7827C73.7415 86.6743 73.6331 86.6562 73.5608 86.7466C73.4705 86.8188 73.6692 87.4692 73.9944 88.1919C74.7893 89.9263 74.8254 90.0527 74.4461 90.1973C74.0486 90.3418 73.5427 89.8901 73.073 88.9507C72.8743 88.5532 72.0432 87.2524 71.2483 86.0601C70.4534 84.8677 69.6043 83.4946 69.3875 82.9888C68.9358 82.0312 68.8274 80.7124 69.1165 79.7007C69.2429 79.2671 69.2249 79.0684 69.0261 78.9238C68.1589 78.2012 63.4436 68.626 61.8718 64.3804C60.0291 59.4121 59.3606 57.2261 59.469 56.4492C59.5413 56.0156 59.5051 55.3833 59.4148 55.022C59.3064 54.6426 59.2522 54.3535 59.2883 54.3535C59.3245 54.3535 59.8303 54.7871 60.4085 55.293Z" fill="#CDD52A"/>
<path d="M68.7009 56.377C69.3152 57.5874 69.7488 59.3218 70.5798 63.9468C71.3386 68.1743 72.1155 71.3179 73.1091 74.1182C73.4163 74.9854 73.6331 75.7441 73.5969 75.7803C73.5427 75.8345 73.1453 75.437 72.6755 74.9131C71.5735 73.6484 69.0984 68.626 66.551 62.5015C66.009 61.2007 65.9729 61.002 65.9729 58.8701C65.9729 57.0454 66.0632 56.3228 66.4065 55.1123L66.822 53.6309L67.5447 54.5703C67.9421 55.0942 68.448 55.9072 68.7009 56.377Z" fill="#CDD52A"/>
</svg>
