<svg width="1001" height="661" viewBox="0 0 1001 661" fill="none" xmlns="http://www.w3.org/2000/svg">
<rect y="87.9966" width="1000.15" height="573" rx="286.5" fill="#BDE7F4"/>
<path d="M105.461 128.615C104.739 128.424 104.017 128.233 103.292 128.033C102.691 127.875 102.087 127.708 101.485 127.551C100.981 127.412 100.478 127.283 99.9755 127.154C99.5165 127.035 99.0672 126.914 98.6082 126.795C98.1492 126.677 97.6781 126.55 97.2071 126.424C96.7361 126.298 96.2433 126.167 95.7625 126.043C95.2817 125.919 94.7575 125.784 94.2624 125.643C92.8298 125.269 91.4047 124.883 89.9624 124.511C88.5201 124.139 87.0028 123.754 85.5297 123.338C84.6408 123.094 83.7572 122.828 82.8765 122.53C81.962 122.22 81.0579 121.867 80.1762 121.477C79.2945 121.087 78.3459 120.631 77.4557 120.161C76.5656 119.691 75.7196 119.19 74.8862 118.656C74.2811 118.263 73.6834 117.858 73.103 117.439C72.5968 117.075 72.1079 116.696 71.6265 116.305C71.2359 115.996 70.8626 115.672 70.4869 115.339C70.2045 115.097 69.9295 114.843 69.6545 114.589C69.351 114.3 69.0451 114.002 68.7393 113.704C68.2712 113.238 67.8179 112.748 67.3744 112.256C66.8881 111.712 66.4167 111.145 65.9624 110.563C65.5082 109.981 65.0712 109.384 64.6634 108.781C64.2105 108.117 63.7748 107.438 63.3585 106.755C62.9166 106.006 62.4919 105.242 62.0964 104.472C61.6753 103.636 61.2834 102.793 60.9281 101.931C60.5518 101.023 60.2121 100.096 59.9016 99.1621C59.5912 98.2283 59.3317 97.2928 59.0991 96.3407C58.8217 95.1527 58.5856 93.9653 58.4199 92.7717C58.2694 91.6875 58.1677 90.5919 58.1117 89.5165C58.059 88.543 58.0475 87.5701 58.072 86.6196C58.092 85.9578 58.1264 85.3131 58.1704 84.6661C58.2145 84.0191 58.2767 83.4501 58.3591 82.8353C58.4363 82.2422 58.5232 81.6468 58.6273 81.0372C58.7314 80.4275 58.8654 79.7699 59.0114 79.1196C59.1603 78.4379 59.3384 77.7494 59.5263 77.0586C59.7268 76.334 59.949 75.6146 60.193 74.9005C60.4497 74.1525 60.7184 73.412 61.0185 72.6745C61.3187 71.9369 61.6607 71.1588 62.0096 70.4098C62.5061 69.3697 63.0387 68.352 63.6267 67.3521C64.2349 66.3064 64.8986 65.2786 65.6029 64.2926C66.3071 63.3067 67.0916 62.3123 67.9017 61.3838C68.7118 60.4553 69.5551 59.5806 70.4463 58.7359C71.3301 57.9031 72.2545 57.1122 73.212 56.3752C74.1695 55.6382 75.1602 54.9551 76.1816 54.3161C77.2031 53.6771 78.2502 53.1041 79.3282 52.5751C80.4062 52.0462 81.5075 51.5734 82.6248 51.1688C83.7495 50.7521 84.8902 50.4036 86.0519 50.1016C87.2257 49.807 88.4131 49.5709 89.6141 49.3931C90.8152 49.2154 92.0516 49.1013 93.2845 49.0599C94.5174 49.0185 95.7834 49.031 97.0338 49.1087C98.0975 49.1787 99.1629 49.2996 100.218 49.464C101.273 49.6285 102.361 49.8468 103.419 50.1132C104.478 50.3795 105.55 50.7043 106.609 51.0216C107.669 51.339 108.737 51.6443 109.806 51.9593C110.809 52.2491 111.823 52.5463 112.835 52.8337C113.738 53.0953 114.651 53.3545 115.551 53.6063C116.452 53.858 117.43 54.1329 118.365 54.3973C119.167 54.6208 119.969 54.8444 120.768 55.0582C121.459 55.246 122.15 55.4339 122.84 55.6218C123.575 55.82 124.297 56.0108 125.031 56.209C125.983 56.4592 126.925 56.7116 127.875 56.952C128.824 57.1924 129.841 57.4581 130.834 57.7089C131.893 57.9753 132.951 58.2416 134.009 58.508C135.208 58.8032 136.397 59.1007 137.595 59.396C138.936 59.7298 140.285 60.0516 141.633 60.3735C142.556 60.5892 143.48 60.8049 144.395 61.0327C145.376 61.276 146.35 61.5314 147.313 61.8302C148.322 62.1491 149.321 62.5116 150.289 62.9221C151.292 63.3453 152.281 63.8022 153.244 64.3169C154.485 64.9718 155.682 65.6987 156.831 66.4881C157.981 67.2774 158.978 68.0715 159.983 68.9459C160.988 69.8203 161.843 70.6681 162.709 71.6057C163.575 72.5434 164.296 73.4328 165.016 74.4046C165.735 75.3764 166.34 76.293 166.94 77.2823C167.541 78.2717 168.024 79.1961 168.501 80.1835C168.957 81.1245 169.366 82.0866 169.739 83.0675C170.116 84.0679 170.445 85.0797 170.735 86.1006C171.024 87.1215 171.29 88.2608 171.494 89.3531C171.698 90.4454 171.868 91.6585 171.986 92.8222C172.107 94.0466 172.156 95.2675 172.166 96.4974C172.17 97.7904 172.111 99.0775 171.989 100.359C171.897 101.325 171.772 102.289 171.614 103.239C171.48 104.072 171.312 104.891 171.125 105.716C170.966 106.4 170.795 107.076 170.603 107.747C170.451 108.286 170.288 108.817 170.122 109.338C169.984 109.761 169.837 110.185 169.693 110.579C169.528 111.017 169.369 111.435 169.21 111.852C169.023 112.327 168.824 112.794 168.605 113.266C168.359 113.796 168.108 114.348 167.833 114.884C167.545 115.455 167.245 116.017 166.924 116.575C166.595 117.145 166.246 117.719 165.883 118.276C165.52 118.833 165.108 119.443 164.687 120.014C164.221 120.657 163.721 121.287 163.209 121.909C162.633 122.609 162.021 123.286 161.383 123.938C160.68 124.667 159.949 125.361 159.181 126.033C158.355 126.76 157.49 127.455 156.604 128.103C155.667 128.795 154.697 129.432 153.698 130.035C152.968 130.472 152.222 130.883 151.461 131.276C150.811 131.613 150.144 131.922 149.472 132.213C148.886 132.473 148.295 132.713 147.69 132.937C147.124 133.151 146.553 133.346 145.978 133.521C145.461 133.683 144.942 133.835 144.421 133.977C144.043 134.076 143.676 134.172 143.296 134.261C142.789 134.379 142.271 134.489 141.758 134.579C141.108 134.699 140.454 134.801 139.805 134.88C139.156 134.96 138.435 135.036 137.74 135.096C137.046 135.155 136.424 135.177 135.759 135.188C135.136 135.2 134.52 135.201 133.899 135.181C133.329 135.16 132.757 135.129 132.183 135.089C131.294 135.019 130.398 134.92 129.515 134.788C128.738 134.671 127.957 134.535 127.188 134.366C126.463 134.206 125.733 134.028 125.02 133.835C124.308 133.641 123.651 133.466 122.962 133.288C121.998 133.031 121.035 132.773 120.071 132.515C119.107 132.258 118.153 131.998 117.189 131.74C116.192 131.47 115.206 131.207 114.208 130.937C113.815 130.834 113.409 130.723 113.015 130.62C112.621 130.517 112.206 130.408 111.8 130.298C111.394 130.187 110.967 130.071 110.551 129.963C110.07 129.839 109.599 129.713 109.116 129.579C108.558 129.432 107.988 129.278 107.43 129.131C106.763 128.958 106.094 128.775 105.428 128.602L105.461 128.615Z" fill="#BDE7F4"/>
<path d="M170.021 27.6536L178.788 12.031C180.138 9.63128 183.202 8.81315 185.569 10.2424L193.12 14.7847C195.426 16.1766 196.168 19.1766 194.776 21.4835L184.644 38.2976" fill="#BDE7F4"/>
<path d="M145.448 60.6943L169.003 21.4511L187.978 32.8349L159.386 80.4529L151.203 75.5345" fill="#BDE7F4"/>
<path d="M139.026 27.3824L147.804 11.7576C149.154 9.35784 152.218 8.53971 154.585 9.96898L162.137 14.521C164.444 15.9129 165.186 18.9129 163.794 21.2198L153.662 38.0339" fill="#BDE7F4"/>
<path d="M114.466 60.4225L138.02 21.1793L156.986 32.5654L128.403 80.1811L120.211 75.265" fill="#BDE7F4"/>
<path d="M100.264 89.7018C97.416 88.6792 96.2837 84.5719 97.7355 80.5278C99.1873 76.4837 102.673 74.0343 105.522 75.057C108.371 76.0796 109.503 80.1869 108.051 84.231C106.599 88.2751 103.113 90.7245 100.264 89.7018Z" fill="white"/>
<path d="M87.9598 85.2761C85.1113 84.2534 83.979 80.1461 85.4308 76.102C86.8827 72.0579 90.3688 69.6086 93.2173 70.6312C96.0658 71.6538 97.1981 75.7612 95.7463 79.8052C94.2944 83.8493 90.8083 86.2987 87.9598 85.2761Z" fill="white"/>
<path d="M101.157 87.2264C99.4675 86.6199 98.8332 84.0803 99.7402 81.5541C100.647 79.0278 102.752 77.4715 104.441 78.078C106.131 78.6845 106.765 81.2241 105.858 83.7503C104.951 86.2766 102.846 87.8328 101.157 87.2264Z" fill="black"/>
<path d="M88.9147 83.2361C87.2254 82.6297 86.5911 80.0901 87.498 77.5638C88.4049 75.0376 90.5096 73.4813 92.199 74.0878C93.8883 74.6943 94.5226 77.2338 93.6157 79.7601C92.7088 82.2863 90.6041 83.8426 88.9147 83.2361Z" fill="black"/>
<path opacity="0.59" d="M104.781 95.9652C103.355 96.298 101.93 95.4124 101.598 93.9872C101.265 92.5619 102.15 91.1368 103.576 90.8041C105.001 90.4713 106.426 91.3569 106.759 92.7821C107.092 94.2074 106.206 95.6325 104.781 95.9652Z" fill="#FF6E80"/>
<path opacity="0.59" d="M82.7885 87.4418C81.3633 87.7746 79.9382 86.889 79.6054 85.4637C79.2726 84.0385 80.1582 82.6134 81.5835 82.2806C83.0087 81.9479 84.4338 82.8335 84.7666 84.2587C85.0993 85.6839 84.2137 87.109 82.7885 87.4418Z" fill="#FF6E80"/>
<path d="M92.8669 94.6391C91.361 94.9907 89.8552 94.055 89.5036 92.5491C89.152 91.0432 90.0877 89.5374 91.5936 89.1858C93.0995 88.8342 94.6053 89.77 94.9569 91.2759C95.3085 92.7818 94.3728 94.2876 92.8669 94.6391Z" stroke="black" stroke-width="0.85" stroke-miterlimit="10"/>
<path d="M61.3952 148.393L118.967 134.951L113.938 113.411L44.0861 129.719L46.2575 139.019" fill="#C8EBF8"/>
<path d="M63.2174 147.967L120.779 134.527L115.75 112.987L45.8986 129.296L48.07 138.595" fill="#C8EBF8"/>
<path d="M61.7955 148.299L119.357 134.859L114.328 113.319L44.4768 129.628L46.6481 138.927" fill="#BDE7F4"/>
<path d="M57.9245 149.214L103.771 138.51L98.7422 116.969L43.1182 129.956L45.2918 139.266" fill="#BDE7F4"/>
<path d="M46.2172 134.705L56.1886 131.319L52.5583 114.32C52 111.708 49.3889 110.069 46.7956 110.705C44.2144 111.349 41.6452 112 39.0639 112.644" fill="#BDE7F4"/>
<path d="M39.0704 112.642C40.388 112.611 43.2508 112.734 46.1216 114.518C51.1545 117.645 52.0055 123.269 52.1111 124.117L57.968 149.203L48.1423 151.497L44.268 134.903" fill="#BDE7F4"/>
<path d="M89.0604 184.847L148.847 122.131L132.838 106.871L73.1009 169.535" fill="#BDE7F4"/>
<path d="M78.329 171.776L84.8114 163.474L72.4568 151.243C70.5602 149.365 67.4835 149.426 65.6604 151.382C63.8568 153.333 62.0532 155.284 60.2616 157.243" fill="#BDE7F4"/>
<path d="M60.2527 157.234C61.3316 156.489 63.7923 155.021 67.1822 154.938C73.1152 154.795 76.8985 159.036 77.4608 159.685L96.1107 177.46L89.1491 184.765L76.8137 173.011" fill="#BDE7F4"/>
</svg>
