<svg width="146" height="185" viewBox="0 0 146 185" fill="none" xmlns="http://www.w3.org/2000/svg">
<path d="M64.7115 174.763L83.7595 128.947L56.5235 117.624L33.4102 173.218L45.1715 178.107" fill="#C8EFB6"/>
<path d="M43.6021 181.936L42.2261 167.963L19.0487 167.518C15.4861 167.45 12.5714 170.342 12.6127 173.906C12.6701 177.447 12.7287 180.988 12.7874 184.53" fill="#C8EFB6"/>
<path d="M12.7871 184.529C13.1444 182.815 14.1698 179.131 17.3578 175.943C22.9484 170.349 30.5098 170.96 31.6444 171.069H65.9898V184.529H43.2738" fill="#C8EFB6"/>
<path d="M97.5427 115.279L130.577 89.7607C153.297 72.2101 150.097 38.7154 124.817 29.4701L88.0601 16.0287L51.3041 2.58741C26.0227 -6.65792 -2.37726 15.2807 0.182739 42.0767L3.90407 81.0367L7.62674 119.997C10.1867 146.793 41.7881 158.349 64.5081 140.798L97.5427 115.279Z" fill="#C8EFB6"/>
<path d="M59.0227 80.0406C60.4587 80.5486 62.096 80.2032 63.2134 79.1712C64.3547 78.1152 64.768 76.4446 64.3307 74.9659C64.2294 74.6232 63.8667 74.4072 63.5174 74.5032C63.1774 74.5966 62.9534 74.9739 63.0547 75.3179C63.2134 75.8539 63.228 76.3752 63.092 76.8872C62.9534 77.4152 62.6947 77.8499 62.2774 78.2352C62.2267 78.2819 62.1747 78.3272 62.1227 78.3712C62.1987 78.3072 62.0534 78.4206 62.0387 78.4312C61.908 78.5206 61.772 78.6019 61.632 78.6726C61.4614 78.7579 61.1854 78.8552 60.9027 78.9112C60.8787 78.9152 60.692 78.9446 60.8134 78.9299C60.7454 78.9379 60.6787 78.9432 60.612 78.9472C60.4534 78.9579 60.296 78.9566 60.1374 78.9446C60.1147 78.9419 59.9267 78.9192 60.0427 78.9366C59.9747 78.9272 59.908 78.9139 59.8414 78.8992C59.6827 78.8659 59.5267 78.8192 59.3747 78.7646C59.0374 78.6459 58.6507 78.9006 58.56 79.2272C58.46 79.5926 58.6854 79.9206 59.0227 80.0406Z" fill="black"/>
<mask id="mask0_31_258" style="mask-type:luminance" maskUnits="userSpaceOnUse" x="69" y="63" width="8" height="8">
<path d="M69.4131 63.2132H76.4665V70.2666H69.4131V63.2132Z" fill="white"/>
</mask>
<g mask="url(#mask0_31_258)">
<g opacity="0.589996">
<path d="M75.563 64.3754C76.867 65.8248 76.7484 68.0568 75.299 69.3608C73.8497 70.6648 71.619 70.5474 70.3137 69.0981C69.0097 67.6488 69.1284 65.4168 70.5777 64.1114C72.027 62.8088 74.259 62.9261 75.563 64.3754Z" fill="#FF6E80"/>
</g>
</g>
<mask id="mask1_31_258" style="mask-type:luminance" maskUnits="userSpaceOnUse" x="46" y="84" width="8" height="8">
<path d="M46.0264 84.2401H53.0928V91.2935H46.0264V84.2401Z" fill="white"/>
</mask>
<g mask="url(#mask1_31_258)">
<g opacity="0.589996">
<path d="M52.187 85.4062C53.491 86.8555 53.3737 89.0875 51.9244 90.3915C50.4737 91.6955 48.243 91.5768 46.9377 90.1288C45.6337 88.6782 45.7524 86.4462 47.2017 85.1422C48.651 83.8382 50.883 83.9568 52.187 85.4062Z" fill="#FF6E80"/>
</g>
</g>
<path d="M76.8131 124.028L100.708 123.956C104.381 123.944 107.318 120.896 107.194 117.224L106.794 105.466C106.672 101.872 103.66 99.059 100.066 99.1803L73.9131 100.07" fill="#C8EFB6"/>
<path d="M66.0038 123.552L93.1785 123.684L93.3225 94.1889L60.3478 94.0276L60.2852 106.765" fill="#C8EFB6"/>
</svg>
