<svg width="1000" height="1121" viewBox="0 0 1000 1121" fill="none" xmlns="http://www.w3.org/2000/svg">
<path d="M499.958 121L763.883 121C945.369 121 1058.83 332.596 968.044 501.872L836.123 747.957L704.203 994.043C613.418 1163.32 386.582 1163.32 295.797 994.043L163.877 747.957L31.9563 501.872C-58.8286 332.596 54.6314 121 236.117 121L500.042 121H499.958Z" fill="#C8EFB6"/>
<g clip-path="url(#clip0_28_109)">
<path d="M499.423 100.9H468.113C446.583 100.9 433.123 79.55 443.893 62.47L459.543 37.64L475.193 12.81C485.963 -4.27 512.873 -4.27 523.643 12.81L539.293 37.64L554.943 62.47C565.713 79.55 552.253 100.9 530.723 100.9H499.413H499.423Z" fill="#C8EFB6"/>
<path d="M490.48 60.6901C493.73 60.5201 496.99 60.4001 500.25 60.3301C500.89 60.3201 500.89 59.3201 500.25 59.3401C496.99 59.4101 493.74 59.5301 490.48 59.7001C489.84 59.7301 489.84 60.7301 490.48 60.6901Z" fill="black"/>
<path d="M488.55 56.2709C491.577 56.2709 494.03 52.7877 494.03 48.4909C494.03 44.1942 491.577 40.7109 488.55 40.7109C485.524 40.7109 483.07 44.1942 483.07 48.4909C483.07 52.7877 485.524 56.2709 488.55 56.2709Z" fill="white"/>
<path d="M501.628 56.2709C504.655 56.2709 507.108 52.7877 507.108 48.4909C507.108 44.1942 504.655 40.7109 501.628 40.7109C498.602 40.7109 496.148 44.1942 496.148 48.4909C496.148 52.7877 498.602 56.2709 501.628 56.2709Z" fill="white"/>
<path d="M486.883 55.3899C488.678 55.3899 490.133 53.214 490.133 50.5299C490.133 47.8458 488.678 45.6699 486.883 45.6699C485.088 45.6699 483.633 47.8458 483.633 50.5299C483.633 53.214 485.088 55.3899 486.883 55.3899Z" fill="black"/>
<path d="M500.031 55.1692C501.826 55.1692 503.281 52.9933 503.281 50.3092C503.281 47.6251 501.826 45.4492 500.031 45.4492C498.236 45.4492 496.781 47.6251 496.781 50.3092C496.781 52.9933 498.236 55.1692 500.031 55.1692Z" fill="black"/>
<path opacity="0.59" d="M483.627 61.0598C485.09 61.0598 486.277 59.8733 486.277 58.4098C486.277 56.9462 485.09 55.7598 483.627 55.7598C482.163 55.7598 480.977 56.9462 480.977 58.4098C480.977 59.8733 482.163 61.0598 483.627 61.0598Z" fill="#FF6E80"/>
<path opacity="0.59" d="M507.213 60.4699C508.676 60.4699 509.863 59.2835 509.863 57.8199C509.863 56.3564 508.676 55.1699 507.213 55.1699C505.749 55.1699 504.562 56.3564 504.562 57.8199C504.562 59.2835 505.749 60.4699 507.213 60.4699Z" fill="#FF6E80"/>
<path d="M582.497 120.96H536.727V98.8398H592.267V108.39" fill="#C8EFB6"/>
<path d="M422.309 120.96H468.079V98.8401H412.539V108.39" fill="#C8EFB6"/>
<path d="M545.392 98.8496H461.172V120.96H545.392V98.8496Z" fill="#C8EFB6"/>
<path d="M435.199 75.8593L418.399 82.1093C415.819 83.0693 412.949 81.6993 412.069 79.0893L409.249 70.7293C408.389 68.1693 409.759 65.4093 412.319 64.5393L430.919 58.2693" fill="#C8EFB6"/>
<path d="M466.626 64.8893L423.506 80.2393L416.086 59.3993L468.406 40.7793L471.616 49.7793" fill="#C8EFB6"/>
<path d="M565.656 76.9185L582.246 83.7085C584.796 84.7485 587.706 83.4785 588.666 80.8985L591.756 72.6285C592.696 70.0985 591.416 67.2885 588.886 66.3485L570.496 59.4785" fill="#C8EFB6"/>
<path d="M534.609 64.9393L577.209 81.6693L585.299 61.0793L533.599 40.7793L530.109 49.6693" fill="#C8EFB6"/>
<path d="M421.771 121.04H468.901V98.9102H411.711V108.47" fill="#C8EFB6"/>
<path d="M413.661 104.25L424.141 103.22L424.471 85.8401C424.521 83.1701 422.351 80.9801 419.681 81.0101C417.021 81.0501 414.371 81.1001 411.711 81.1401" fill="#C8EFB6"/>
<path d="M411.711 81.1309C413.001 81.4009 415.761 82.1709 418.151 84.5609C422.341 88.7509 421.891 94.4209 421.801 95.2709V121.031H411.711V103.991" fill="#C8EFB6"/>
<path d="M583.036 120.909H535.906V98.7891H593.096V108.339" fill="#C8EFB6"/>
<path d="M591.147 104.119L580.667 103.089L580.337 85.7092C580.287 83.0392 582.457 80.8492 585.127 80.8792C587.787 80.9192 590.437 80.9692 593.097 81.0092" fill="#C8EFB6"/>
<path d="M593.102 81.0098C591.812 81.2798 589.052 82.0498 586.662 84.4398C582.472 88.6298 582.922 94.2998 583.012 95.1498V120.91H593.102V103.87" fill="#C8EFB6"/>
</g>
<defs>
<clipPath id="clip0_28_109">
<rect width="184.1" height="121.04" fill="white" transform="translate(409)"/>
</clipPath>
</defs>
</svg>
