<svg width="1000" height="1094" viewBox="0 0 1000 1094" fill="none" xmlns="http://www.w3.org/2000/svg">
<path d="M500 1094C776.142 1094 1000 870.142 1000 594C1000 317.858 776.142 94 500 94C223.858 94 0 317.858 0 594C0 870.142 223.858 1094 500 1094Z" fill="#FF9685"/>
<path d="M766.352 101.471L784.272 101.721C787.032 101.761 789.272 99.5112 789.222 96.7612L789.072 87.9412C789.022 85.2412 786.802 83.1012 784.112 83.1412L764.492 83.4712" fill="#FF9685"/>
<path d="M733.233 101.941L779.003 101.251L778.663 79.1309L723.133 79.9709L723.283 89.5209" fill="#FF9685"/>
<path d="M607.996 47.2409L594.626 35.3109C592.566 33.4809 592.436 30.3009 594.336 28.3109L600.416 21.9109C602.276 19.9509 605.366 19.8709 607.316 21.7309L621.546 35.2409" fill="#FF9685"/>
<path d="M648.815 56.6402L616.235 24.4902L600.695 40.2402L640.235 79.2502L646.945 72.4502" fill="#FF9685"/>
<path d="M689.094 135.27C719.569 135.27 744.274 110.565 744.274 80.0902C744.274 49.6151 719.569 24.9102 689.094 24.9102C658.619 24.9102 633.914 49.6151 633.914 80.0902C633.914 110.565 658.619 135.27 689.094 135.27Z" fill="#FF9685"/>
<path d="M708.649 94.2496C709.249 94.6796 709.939 95.0596 710.689 95.1796C711.509 95.3096 712.259 95.1096 712.889 94.5796C713.119 94.3796 713.319 94.1496 713.569 93.9696C713.679 93.8796 713.809 93.8096 713.929 93.7396C713.959 93.7196 713.999 93.7096 714.029 93.6896C714.149 93.6296 713.969 93.7096 714.079 93.6696C714.269 93.6096 714.449 93.5596 714.639 93.5196C714.729 93.4996 714.649 93.5196 714.639 93.5196C714.669 93.5196 714.699 93.5196 714.729 93.5196C714.779 93.5196 714.829 93.5196 714.889 93.5096C715.019 93.5096 715.149 93.5096 715.279 93.5096C715.439 93.5096 715.589 93.5296 715.689 93.5496C715.859 93.5796 716.039 93.6196 716.209 93.6596C716.629 93.7696 717.049 93.9196 717.449 94.0896C717.699 94.1996 717.979 94.1596 718.129 93.9096C718.249 93.6996 718.199 93.3396 717.949 93.2296C716.779 92.7196 715.459 92.3096 714.179 92.6096C713.669 92.7296 713.209 92.9896 712.819 93.3296C712.349 93.7196 712.029 94.1696 711.389 94.2296C710.579 94.3096 709.809 93.8496 709.179 93.3996C708.959 93.2396 708.629 93.3596 708.499 93.5796C708.349 93.8296 708.459 94.0996 708.679 94.2596L708.649 94.2496Z" fill="black"/>
<path d="M706.558 89.7905C709.585 89.7905 712.038 86.3072 712.038 82.0105C712.038 77.7137 709.585 74.2305 706.558 74.2305C703.532 74.2305 701.078 77.7137 701.078 82.0105C701.078 86.3072 703.532 89.7905 706.558 89.7905Z" fill="white"/>
<path d="M719.644 89.7905C722.671 89.7905 725.124 86.3072 725.124 82.0105C725.124 77.7137 722.671 74.2305 719.644 74.2305C716.618 74.2305 714.164 77.7137 714.164 82.0105C714.164 86.3072 716.618 89.7905 719.644 89.7905Z" fill="white"/>
<path d="M708.789 86.8704C710.584 86.8704 712.039 84.6945 712.039 82.0104C712.039 79.3263 710.584 77.1504 708.789 77.1504C706.994 77.1504 705.539 79.3263 705.539 82.0104C705.539 84.6945 706.994 86.8704 708.789 86.8704Z" fill="black"/>
<path d="M722.188 86.8704C723.982 86.8704 725.438 84.6945 725.438 82.0104C725.438 79.3263 723.982 77.1504 722.188 77.1504C720.393 77.1504 718.938 79.3263 718.938 82.0104C718.938 84.6945 720.393 86.8704 722.188 86.8704Z" fill="black"/>
<path opacity="0.59" d="M701.548 95.8293C703.012 95.8293 704.198 94.6429 704.198 93.1793C704.198 91.7157 703.012 90.5293 701.548 90.5293C700.085 90.5293 698.898 91.7157 698.898 93.1793C698.898 94.6429 700.085 95.8293 701.548 95.8293Z" fill="#FF6E80"/>
<path opacity="0.59" d="M725.127 95.8293C726.59 95.8293 727.777 94.6429 727.777 93.1793C727.777 91.7157 726.59 90.5293 725.127 90.5293C723.663 90.5293 722.477 91.7157 722.477 93.1793C722.477 94.6429 723.663 95.8293 725.127 95.8293Z" fill="#FF6E80"/>
<path d="M621.545 34.34C631.028 34.34 638.715 26.6527 638.715 17.17C638.715 7.68727 631.028 0 621.545 0C612.062 0 604.375 7.68727 604.375 17.17C604.375 26.6527 612.062 34.34 621.545 34.34Z" fill="#C8EFB6"/>
<path d="M661.543 155.62L675.823 121.26L655.403 112.76L638.062 154.46L646.882 158.13" fill="#FF9685"/>
<path d="M720.544 117.199C723.234 120.989 725.034 124.369 726.224 126.869C727.774 130.129 728.454 131.849 728.304 133.909C728.144 136.029 727.234 137.549 722.884 142.949C721.114 145.149 718.854 147.889 716.144 151.019C707.124 154.969 698.114 158.919 689.094 162.859C692.864 155.689 695.904 150.189 697.894 146.629C700.194 142.539 701.474 140.369 700.744 138.109C699.254 133.519 690.794 132.689 689.094 132.539C699.574 127.419 710.054 122.309 720.534 117.189L720.544 117.199Z" fill="#FF9685"/>
<path d="M720.38 117.119C723.07 120.909 724.87 124.289 726.06 126.789C727.61 130.049 728.29 131.769 728.14 133.829C727.98 135.949 727.07 137.469 722.72 142.869C720.95 145.069 718.69 147.809 715.98 150.939C706.96 154.889 697.95 158.839 688.93 162.779C692.7 155.609 695.74 150.109 697.73 146.549C700.03 142.459 701.31 140.289 700.58 138.029C699.09 133.439 690.63 132.609 688.93 132.459C699.41 127.339 709.89 122.229 720.37 117.109L720.38 117.119Z" fill="#FF9685"/>
<path d="M715.847 149.689H696.077L688.938 162.899H708.548" fill="#FF9685"/>
<path d="M710.805 161L711.835 150.52L729.215 150.19C731.885 150.14 734.075 152.31 734.045 154.98C734.005 157.64 733.955 160.29 733.915 162.95" fill="#FF9685"/>
<path d="M697.564 162.91H733.914V156.53H697.564V162.91Z" fill="#FF9685"/>
<path d="M645.717 161L644.687 150.52L627.307 150.19C624.637 150.14 622.447 152.31 622.477 154.98C622.517 157.64 622.567 160.29 622.607 162.95" fill="#FF9685"/>
<path d="M622.594 162.939C622.864 161.649 623.634 158.889 626.024 156.499C630.214 152.309 635.884 152.759 636.734 152.849H662.494V162.939H645.454" fill="#FF9685"/>
</svg>
