<svg width="1000" height="1124" viewBox="0 0 1000 1124" fill="none" xmlns="http://www.w3.org/2000/svg">
<path d="M914.232 624.018C1028.59 738.37 1028.59 923.83 914.232 1038.18C857.053 1095.36 782.072 1123.99 707.092 1123.99C632.111 1123.99 557.227 1095.36 500.048 1038.18C385.691 1152.53 200.223 1152.53 85.7682 1038.18C-28.5894 923.83 -28.5894 738.37 85.7682 624.018C3.53134 541.785 -19.495 422.79 16.4957 319.853C30.6211 279.705 53.6474 241.974 85.7682 209.758C200.223 95.4061 385.691 95.4061 500.048 209.758C614.406 95.4061 799.874 95.4061 914.232 209.758C1028.59 324.11 1028.59 509.57 914.232 623.922V624.018Z" fill="#FFAECF"/>
<path d="M759.642 51.675C771.472 63.505 771.472 82.665 759.652 94.495C753.742 100.405 745.992 103.355 738.242 103.355C730.492 103.355 722.742 100.405 716.832 94.495C705.012 106.315 685.842 106.315 674.022 94.495C662.202 82.675 662.202 63.505 674.022 51.675C665.522 43.175 663.132 30.885 666.862 20.245C668.312 16.085 670.702 12.185 674.022 8.865C685.842 -2.955 705.012 -2.955 716.832 8.865C728.662 -2.955 747.822 -2.955 759.652 8.865C771.472 20.695 771.472 39.855 759.642 51.675Z" fill="#FFAECF"/>
<path d="M661.204 82.8751L646.544 93.1751C644.294 94.7551 641.174 94.1651 639.654 91.8651L634.804 84.4951C633.324 82.2451 633.944 79.2151 636.204 77.7351L652.604 66.9551" fill="#FFAECF"/>
<path d="M688.827 64.2956L651.007 90.0756L638.547 71.7956L684.437 40.5156L689.817 48.4156" fill="#FFAECF"/>
<path d="M787.845 52.0446L803.435 43.2046C805.835 41.8446 806.635 38.7746 805.195 36.4146L800.605 28.8746C799.205 26.5746 796.195 25.8446 793.895 27.2446L777.125 37.4446" fill="#FFAECF"/>
<path d="M759.227 69.0442L798.727 45.9142L787.537 26.8242L739.617 54.8942L744.447 63.1442" fill="#FFAECF"/>
<path d="M715.025 68.3447C715.445 69.1247 716.205 69.7147 717.075 69.9047C717.945 70.0947 718.865 69.9047 719.565 69.3747C719.965 69.0647 720.305 68.6847 720.525 68.2247C720.635 67.9947 720.595 67.6747 720.345 67.5447C720.125 67.4247 719.785 67.4747 719.665 67.7247C719.625 67.8047 719.585 67.8847 719.535 67.9647C719.515 67.9947 719.495 68.0347 719.475 68.0647C719.455 68.0947 719.415 68.1747 719.385 68.1847C719.385 68.1847 719.455 68.0947 719.405 68.1647C719.395 68.1847 719.375 68.1947 719.365 68.2147C719.335 68.2447 719.315 68.2747 719.285 68.3047C719.225 68.3747 719.155 68.4347 719.085 68.5047C719.065 68.5247 718.975 68.5947 719.035 68.5547C719.095 68.5147 719.035 68.5547 719.015 68.5647C718.995 68.5747 718.975 68.5947 718.965 68.6047C718.885 68.6547 718.805 68.7047 718.725 68.7547C718.655 68.7947 718.585 68.8147 718.515 68.8547C718.635 68.7947 718.515 68.8547 718.475 68.8647C718.425 68.8847 718.385 68.8947 718.335 68.9147C718.255 68.9347 718.175 68.9547 718.095 68.9747C718.075 68.9747 718.055 68.9747 718.025 68.9847C717.925 69.0047 718.055 68.9847 718.055 68.9847C718.055 68.9947 717.925 68.9947 717.905 68.9947C717.815 68.9947 717.735 68.9947 717.645 68.9947C717.595 68.9947 717.555 68.9947 717.505 68.9947C717.485 68.9947 717.455 68.9947 717.435 68.9947C717.465 68.9947 717.535 69.0147 717.465 68.9947C717.285 68.9647 717.115 68.9147 716.945 68.8547C716.855 68.8247 716.965 68.8647 716.975 68.8647C716.955 68.8647 716.925 68.8447 716.915 68.8347C716.875 68.8147 716.835 68.7947 716.795 68.7747C716.715 68.7347 716.635 68.6847 716.565 68.6347C716.545 68.6247 716.525 68.6047 716.505 68.5947C716.495 68.5947 716.405 68.5347 716.475 68.5747C716.535 68.6147 716.475 68.5747 716.455 68.5647C716.435 68.5447 716.415 68.5247 716.395 68.5147C716.315 68.4447 716.245 68.3747 716.175 68.3047C716.145 68.2747 716.115 68.2347 716.085 68.2047C716.025 68.1347 716.085 68.2047 716.095 68.2247C716.095 68.2047 716.055 68.1747 716.045 68.1547C715.985 68.0647 715.925 67.9747 715.875 67.8747C715.755 67.6447 715.415 67.5547 715.195 67.6947C714.965 67.8447 714.885 68.1247 715.015 68.3747L715.025 68.3447Z" fill="black"/>
<path d="M710.902 64.5248C713.928 64.5248 716.382 61.0416 716.382 56.7448C716.382 52.4481 713.928 48.9648 710.902 48.9648C707.875 48.9648 705.422 52.4481 705.422 56.7448C705.422 61.0416 707.875 64.5248 710.902 64.5248Z" fill="white"/>
<path d="M723.98 64.5248C727.007 64.5248 729.46 61.0416 729.46 56.7448C729.46 52.4481 727.007 48.9648 723.98 48.9648C720.953 48.9648 718.5 52.4481 718.5 56.7448C718.5 61.0416 720.953 64.5248 723.98 64.5248Z" fill="white"/>
<path d="M710.906 61.6048C712.701 61.6048 714.156 59.4289 714.156 56.7448C714.156 54.0607 712.701 51.8848 710.906 51.8848C709.111 51.8848 707.656 54.0607 707.656 56.7448C707.656 59.4289 709.111 61.6048 710.906 61.6048Z" fill="black"/>
<path d="M723.984 61.7259C725.779 61.7259 727.234 59.55 727.234 56.8659C727.234 54.1818 725.779 52.0059 723.984 52.0059C722.189 52.0059 720.734 54.1818 720.734 56.8659C720.734 59.55 722.189 61.7259 723.984 61.7259Z" fill="black"/>
<path d="M719.172 120.514V73.9941H741.292V130.444H731.742" fill="#FFAECF"/>
<path d="M714.495 120.605V74.1348H692.375V130.525H701.925" fill="#FFAECF"/>
<path d="M735.953 128.584L736.983 118.104L754.363 117.774C757.033 117.724 759.223 119.894 759.193 122.564C759.153 125.224 759.103 127.874 759.063 130.534" fill="#FFAECF"/>
<path d="M759.064 130.525C758.794 129.235 758.024 126.475 755.634 124.085C751.444 119.895 745.774 120.345 744.924 120.435H719.164V130.525H736.204" fill="#FFAECF"/>
<path d="M697.717 128.575L696.687 118.095L679.307 117.765C676.637 117.715 674.447 119.885 674.477 122.555C674.517 125.215 674.567 127.865 674.607 130.525" fill="#FFAECF"/>
<path d="M674.602 130.525C674.872 129.235 675.642 126.475 678.032 124.085C682.222 119.895 687.892 120.345 688.742 120.435H714.502V130.525H697.462" fill="#FFAECF"/>
</svg>
