<svg width="56" height="56" viewBox="0 0 56 56" fill="none" xmlns="http://www.w3.org/2000/svg">
<path d="M36.4352 49.0092L31.6172 44.2262" stroke="black" stroke-width="3.5" stroke-linecap="round" stroke-linejoin="round"/>
<path d="M43.06 28.7003L48.4289 37.9558C49.1781 39.2544 49.1755 40.8546 48.4221 42.1507C47.6687 43.4469 46.2795 44.2411 44.7803 44.2329H31.6172" stroke="black" stroke-width="3.5" stroke-linecap="round" stroke-linejoin="round"/>
<path d="M38.243 20.409L40.0054 13.8729" stroke="black" stroke-width="3.5" stroke-linecap="round" stroke-linejoin="round"/>
<path d="M14.153 26.6229L7.56791 37.949C6.8187 39.2476 6.82128 40.8477 7.57469 42.1439C8.32809 43.44 9.71723 44.2342 11.2164 44.226H21.9823" stroke="black" stroke-width="3.5" stroke-linecap="round" stroke-linejoin="round"/>
<path d="M18.9688 18.3381L24.3517 9.09192C25.1113 7.79633 26.5006 7.00037 28.0025 7.00037C29.5044 7.00037 30.8937 7.79633 31.6534 9.09192L38.2408 20.418" stroke="black" stroke-width="3.5" stroke-linecap="round" stroke-linejoin="round"/>
<path d="M7.57812 28.3739L14.1562 26.6232" stroke="black" stroke-width="3.5" stroke-linecap="round" stroke-linejoin="round"/>
</svg>
