<svg width="56" height="56" viewBox="0 0 56 56" fill="none" xmlns="http://www.w3.org/2000/svg">
<path d="M36.4352 49.0091L31.6172 44.2261" stroke="black" stroke-width="3.5" stroke-linecap="round" stroke-linejoin="round"/>
<path d="M43.06 28.7002L48.4289 37.9557C49.1781 39.2543 49.1755 40.8545 48.4221 42.1506C47.6687 43.4468 46.2795 44.241 44.7803 44.2327H31.6172" stroke="black" stroke-width="3.5" stroke-linecap="round" stroke-linejoin="round"/>
<path d="M38.243 20.4086L40.0054 13.8726" stroke="black" stroke-width="3.5" stroke-linecap="round" stroke-linejoin="round"/>
<path d="M14.153 26.623L7.56791 37.9491C6.8187 39.2477 6.82128 40.8478 7.57469 42.144C8.32809 43.4402 9.71723 44.2344 11.2164 44.2261H21.9823" stroke="black" stroke-width="3.5" stroke-linecap="round" stroke-linejoin="round"/>
<path d="M18.9688 18.3377L24.3517 9.09156C25.1113 7.79596 26.5006 7 28.0025 7C29.5044 7 30.8937 7.79596 31.6534 9.09156L38.2408 20.4176" stroke="black" stroke-width="3.5" stroke-linecap="round" stroke-linejoin="round"/>
<path d="M7.57812 28.3736L14.1562 26.6228" stroke="black" stroke-width="3.5" stroke-linecap="round" stroke-linejoin="round"/>
<path d="M27.174 33.2798H32.574V35.7998H23.664C23.664 34.9958 23.778 34.2638 24.006 33.6038C24.234 32.9438 24.522 32.3978 24.87 31.9658C25.23 31.5218 25.626 31.1198 26.058 30.7598C26.502 30.3998 26.94 30.0818 27.372 29.8058C27.816 29.5178 28.212 29.2478 28.56 28.9958C28.92 28.7318 29.214 28.4378 29.442 28.1138C29.67 27.7898 29.784 27.4418 29.784 27.0698C29.784 26.6018 29.616 26.2178 29.28 25.9178C28.944 25.6058 28.512 25.4498 27.984 25.4498C27.348 25.4498 26.796 25.7078 26.328 26.2238C26.112 26.4638 25.944 26.7158 25.824 26.9798L23.664 25.8998C23.904 25.3358 24.216 24.8438 24.6 24.4238C25.524 23.4278 26.712 22.9298 28.164 22.9298C29.484 22.9298 30.546 23.3078 31.35 24.0638C32.166 24.8078 32.574 25.7498 32.574 26.8898C32.574 27.5618 32.436 28.1678 32.16 28.7078C31.884 29.2358 31.524 29.6858 31.08 30.0578C30.636 30.4298 30.18 30.7718 29.712 31.0838C29.244 31.3958 28.764 31.7438 28.272 32.1278C27.792 32.4998 27.426 32.8838 27.174 33.2798Z" fill="black"/>
</svg>
