<svg width="56" height="56" viewBox="0 0 56 56" fill="none" xmlns="http://www.w3.org/2000/svg">
<path d="M36.4352 49.0091L31.6172 44.2261" stroke="black" stroke-width="3.5" stroke-linecap="round" stroke-linejoin="round"/>
<path d="M43.06 28.7002L48.4289 37.9557C49.1781 39.2543 49.1755 40.8545 48.4221 42.1506C47.6687 43.4468 46.2795 44.241 44.7803 44.2327H31.6172" stroke="black" stroke-width="3.5" stroke-linecap="round" stroke-linejoin="round"/>
<path d="M38.243 20.4086L40.0054 13.8726" stroke="black" stroke-width="3.5" stroke-linecap="round" stroke-linejoin="round"/>
<path d="M14.153 26.623L7.56791 37.9491C6.8187 39.2477 6.82128 40.8478 7.57469 42.144C8.32809 43.4402 9.71723 44.2344 11.2164 44.2261H21.9823" stroke="black" stroke-width="3.5" stroke-linecap="round" stroke-linejoin="round"/>
<path d="M18.9688 18.3377L24.3517 9.09156C25.1113 7.79596 26.5006 7 28.0025 7C29.5044 7 30.8937 7.79596 31.6534 9.09156L38.2408 20.4176" stroke="black" stroke-width="3.5" stroke-linecap="round" stroke-linejoin="round"/>
<path d="M7.57812 28.3736L14.1562 26.6228" stroke="black" stroke-width="3.5" stroke-linecap="round" stroke-linejoin="round"/>
<path d="M24.4223 35.7998L29.2823 25.7198H23.5223V23.1998H32.1623V25.5398L27.2123 35.7998H24.4223Z" fill="black"/>
</svg>
