<svg width="56" height="56" viewBox="0 0 56 56" fill="none" xmlns="http://www.w3.org/2000/svg">
<path d="M36.4352 49.0091L31.6172 44.2261" stroke="black" stroke-width="3.5" stroke-linecap="round" stroke-linejoin="round"/>
<path d="M43.06 28.7002L48.4289 37.9557C49.1781 39.2543 49.1755 40.8545 48.4221 42.1506C47.6687 43.4468 46.2795 44.241 44.7803 44.2327H31.6172" stroke="black" stroke-width="3.5" stroke-linecap="round" stroke-linejoin="round"/>
<path d="M38.243 20.4089L40.0054 13.8728" stroke="black" stroke-width="3.5" stroke-linecap="round" stroke-linejoin="round"/>
<path d="M14.153 26.6228L7.56791 37.9489C6.8187 39.2474 6.82128 40.8476 7.57469 42.1438C8.32809 43.4399 9.71723 44.2341 11.2164 44.2259H21.9823" stroke="black" stroke-width="3.5" stroke-linecap="round" stroke-linejoin="round"/>
<path d="M18.9688 18.338L24.3517 9.0918C25.1113 7.79621 26.5006 7.00024 28.0025 7.00024C29.5044 7.00024 30.8937 7.79621 31.6534 9.0918L38.2408 20.4179" stroke="black" stroke-width="3.5" stroke-linecap="round" stroke-linejoin="round"/>
<path d="M7.57812 28.3738L14.1562 26.6231" stroke="black" stroke-width="3.5" stroke-linecap="round" stroke-linejoin="round"/>
<path d="M16.4604 33.55V30.67L21.9504 23.2H25.1004V31.03H26.5404V33.55H25.1004V35.8H22.4004V33.55H16.4604ZM19.2504 31.03H22.4004V26.71L19.2504 31.03ZM31.1996 32.488C31.7396 33.196 32.3756 33.55 33.1076 33.55C33.8396 33.55 34.4696 33.196 34.9976 32.488C35.5376 31.768 35.8076 30.772 35.8076 29.5C35.8076 28.228 35.5376 27.238 34.9976 26.53C34.4696 25.81 33.8396 25.45 33.1076 25.45C32.3756 25.45 31.7396 25.81 31.1996 26.53C30.6716 27.238 30.4076 28.228 30.4076 29.5C30.4076 30.772 30.6716 31.768 31.1996 32.488ZM36.9236 34.27C35.8796 35.47 34.6076 36.07 33.1076 36.07C31.6076 36.07 30.3296 35.47 29.2736 34.27C28.2296 33.058 27.7076 31.468 27.7076 29.5C27.7076 27.532 28.2296 25.948 29.2736 24.748C30.3296 23.536 31.6076 22.93 33.1076 22.93C34.6076 22.93 35.8796 23.536 36.9236 24.748C37.9796 25.948 38.5076 27.532 38.5076 29.5C38.5076 31.468 37.9796 33.058 36.9236 34.27Z" fill="black"/>
</svg>
