<svg width="105" height="104" viewBox="0 0 105 104" fill="none" xmlns="http://www.w3.org/2000/svg">
<rect x="0.5" width="104" height="104" rx="52" fill="#F8F8F8"/>
<path d="M29.1484 73.0089H75.8345" stroke="#191919" stroke-width="3.5" stroke-linecap="round" stroke-linejoin="round"/>
<path d="M44.3281 63.5675H60.6683" stroke="#191919" stroke-width="3.5" stroke-linecap="round" stroke-linejoin="round"/>
<path d="M52.4953 63.5664V73.0087" stroke="#191919" stroke-width="3.5" stroke-linecap="round" stroke-linejoin="round"/>
<path d="M31.4922 73.0084V56.6683C31.4922 55.3791 32.5373 54.334 33.8265 54.334H38.4951" stroke="#191919" stroke-width="3.5" stroke-linecap="round" stroke-linejoin="round"/>
<path d="M66.5 54.334H71.1686C72.4578 54.334 73.5029 55.3791 73.5029 56.6683V73.0084" stroke="#191919" stroke-width="3.5" stroke-linecap="round" stroke-linejoin="round"/>
<path d="M38.4922 73.0088V48.1648C38.4905 47.3292 38.9357 46.5564 39.6593 46.1386L51.3309 39.4695C52.0484 39.0597 52.929 39.0597 53.6465 39.4695L65.318 46.1386C66.0417 46.5564 66.4868 47.3292 66.4852 48.1648V73.0088" stroke="#191919" stroke-width="3.5" stroke-linecap="round" stroke-linejoin="round"/>
<path d="M52.4953 46.1832C52.4643 46.1832 52.4346 46.1955 52.4127 46.2174C52.3909 46.2393 52.3786 46.269 52.3786 46.3C52.3786 46.3644 52.4308 46.4167 52.4953 46.4167C52.5597 46.4167 52.612 46.3644 52.612 46.3C52.612 46.269 52.5997 46.2393 52.5778 46.2174C52.5559 46.1955 52.5262 46.1832 52.4953 46.1832" stroke="#FCBA07" stroke-width="3.5" stroke-linecap="round" stroke-linejoin="round"/>
<path d="M59.4953 63.5664V73.0087" stroke="#191919" stroke-width="3.5" stroke-linecap="round" stroke-linejoin="round"/>
<path d="M45.4953 73.0087V63.5664" stroke="#191919" stroke-width="3.5" stroke-linecap="round" stroke-linejoin="round"/>
<path d="M52.5 39.1606V29.8234C52.5 29.1788 53.0226 28.6562 53.6672 28.6562H60.6701C61.3147 28.6562 61.8372 29.1788 61.8372 29.8234V33.1334C61.8372 33.778 61.3147 34.3006 60.6701 34.3006H52.5" stroke="#191919" stroke-width="3.5" stroke-linecap="round" stroke-linejoin="round"/>
<path d="M59.498 54.3351H45.4922" stroke="#FCBA07" stroke-width="3.5" stroke-linecap="round" stroke-linejoin="round"/>
</svg>
