<svg width="104" height="104" viewBox="0 0 104 104" fill="none" xmlns="http://www.w3.org/2000/svg">
<rect width="104" height="104" rx="52" fill="#F8F8F8"/>
<path d="M42.6593 48.1094V66.0065" stroke="#FCBA07" stroke-width="3.5" stroke-linecap="round" stroke-linejoin="round"/>
<path d="M51.9953 48.1094V66.0065" stroke="#FCBA07" stroke-width="3.5" stroke-linecap="round" stroke-linejoin="round"/>
<path d="M61.3312 48.1094V66.0065" stroke="#FCBA07" stroke-width="3.5" stroke-linecap="round" stroke-linejoin="round"/>
<path d="M51.9929 40.8441C51.9158 40.8441 51.8418 40.8749 51.7874 40.9297C51.7331 40.9845 51.7029 41.0587 51.7035 41.1359C51.7035 41.2971 51.8341 41.4277 51.9953 41.4277C52.1564 41.4277 52.2871 41.2971 52.2871 41.1359C52.2845 40.9749 52.154 40.8454 51.9929 40.8441" stroke="#FCBA07" stroke-width="3.5" stroke-linecap="round" stroke-linejoin="round"/>
<path fill-rule="evenodd" clip-rule="evenodd" d="M72.9396 48.1093H31.0528C30.7262 48.1099 30.4127 47.9806 30.1814 47.7498C29.9502 47.5191 29.8203 47.2058 29.8203 46.8791V42.2666C29.8211 41.2622 30.4641 40.371 31.417 40.0536L51.2166 33.4522C51.7227 33.2842 52.2697 33.2842 52.7759 33.4522L72.5755 40.0536C73.5283 40.371 74.1714 41.2622 74.1721 42.2666V46.8791C74.1721 47.2058 74.0422 47.5191 73.811 47.7498C73.5798 47.9806 73.2663 48.1099 72.9396 48.1093Z" stroke="#191919" stroke-width="3.5" stroke-linecap="round" stroke-linejoin="round"/>
<path d="M33.3234 66.0065V48.1094" stroke="#191919" stroke-width="3.5" stroke-linecap="round" stroke-linejoin="round"/>
<path d="M70.6672 48.1094V66.0065" stroke="#191919" stroke-width="3.5" stroke-linecap="round" stroke-linejoin="round"/>
<path fill-rule="evenodd" clip-rule="evenodd" d="M71.5576 66.0059H32.4253C31.5414 66.0063 30.7336 66.506 30.3385 67.2967L28.8959 70.1819C28.733 70.5056 28.6484 70.863 28.6484 71.2254V73.0088H75.3345V71.2254C75.3345 70.863 75.25 70.5056 75.0871 70.1819L73.6445 67.2967C73.2494 66.506 72.4416 66.0063 71.5576 66.0059Z" stroke="#191919" stroke-width="3.5" stroke-linecap="round" stroke-linejoin="round"/>
<path d="M77.675 73.0089H26.3203" stroke="#191919" stroke-width="3.5" stroke-linecap="round" stroke-linejoin="round"/>
</svg>
