<svg width="105" height="104" viewBox="0 0 105 104" fill="none" xmlns="http://www.w3.org/2000/svg">
<rect x="0.5" width="104" height="104" rx="52" fill="#F8F8F8"/>
<path d="M38.3491 39.7637C37.1671 39.7637 36.2578 40.6734 36.2578 41.8559V46.0405C36.2578 47.2231 37.1671 48.1327 38.3491 48.1327H43.5318C44.7139 48.1327 45.6231 47.2231 45.6231 46.0405V41.8559C45.6231 40.6734 44.7139 39.7637 43.5318 39.7637H38.3491ZM42.077 44.494H39.9858V43.4024H42.077V44.494Z" fill="#FCBA07"/>
<path d="M75.0814 65.3262C74.9904 65.3262 74.9905 65.2352 74.9905 65.2352C72.6264 63.9617 70.4442 62.5062 68.4438 60.5958C66.6253 58.7765 65.2614 56.7752 64.0794 54.501C61.4426 49.8616 57.6237 46.2229 52.8047 43.9487C52.8047 43.3119 52.8047 42.6751 52.8047 41.9474C52.8047 40.4919 52.8047 39.0364 52.8047 37.5809V37.4899C52.8047 37.4899 52.8047 37.4899 52.8047 37.399C52.8047 36.8531 52.441 36.3983 52.0773 36.1254C51.9863 36.0344 51.9863 36.0344 51.8954 35.9435C48.5312 33.5783 45.1669 31.2131 41.8936 28.9389C41.439 28.575 40.5297 28.575 40.0751 28.9389C36.7109 31.577 33.4376 34.1241 30.0733 36.6712L29.9824 36.7622C29.5278 37.0351 29.1641 37.4899 29.1641 38.2177C29.1641 48.4061 29.1641 58.5945 29.1641 68.783C29.1641 70.2385 29.1641 71.694 29.1641 73.1494C29.1641 75.5146 32.8011 75.5146 32.8011 73.1494C32.8011 72.0578 32.8011 70.8752 32.8011 69.7836H49.1676C49.1676 70.8752 49.1676 72.0578 49.1676 73.1494C49.1676 75.5146 52.8047 75.5146 52.8047 73.1494C52.8047 67.6914 52.8047 62.3242 52.8047 56.8661C52.8956 56.9571 52.9865 57.0481 53.0774 57.23C53.2593 57.5029 53.2593 57.5029 53.623 57.9578C53.8958 58.3216 54.1685 58.7765 54.4413 59.2313C55.8961 61.5055 57.3509 63.8707 58.9876 66.0539C60.8061 68.4191 62.7155 70.7843 65.1705 72.5127C67.8073 74.423 70.8079 75.2417 73.9903 75.3327C74.8086 75.3327 75.2632 74.9688 75.536 74.423C75.7179 74.1501 75.8088 73.8772 75.8088 73.5133C75.8088 71.603 75.8088 69.6927 75.8088 67.7823C75.8088 67.5094 75.8088 67.2365 75.8088 66.9636C75.8997 66.3268 75.7179 65.781 75.0814 65.3262ZM32.8011 54.5919H49.1676C49.1676 55.8655 49.1676 57.23 49.1676 58.5036H32.8011C32.8011 57.23 32.8011 55.9565 32.8011 54.5919ZM49.1676 38.5815C49.1676 42.6751 49.1676 46.8596 49.1676 50.9532H32.8011C32.8011 48.1332 32.8011 45.3132 32.8011 42.5841C32.8011 41.4016 32.8011 40.3099 32.8011 39.1274C35.5288 37.0351 38.2566 34.9428 40.9844 32.9415C43.7121 34.7609 46.4399 36.6712 49.1676 38.5815ZM32.8011 62.1423H49.1676C49.1676 63.4159 49.1676 64.7804 49.1676 66.0539H32.8011C32.8011 64.7804 32.8011 63.5068 32.8011 62.1423ZM61.2607 62.87C59.8059 60.8687 58.533 58.7765 57.1691 56.7752C55.8961 54.8648 54.4413 53.4094 52.7137 51.9539C52.7137 50.6803 52.7137 49.4068 52.7137 48.2242C54.0776 48.9519 55.3506 49.8616 56.4417 50.8622C58.6239 52.8635 59.9878 55.1377 61.4426 57.6849C63.9885 62.1423 67.7164 65.5081 72.0808 68.0552C72.0808 69.2378 72.0808 70.3294 72.0808 71.512C69.9896 71.1481 68.171 70.4204 66.5344 69.0559C64.534 67.2365 62.8064 65.0533 61.2607 62.87Z" fill="#191919"/>
</svg>
