<svg width="104" height="104" viewBox="0 0 104 104" fill="none" xmlns="http://www.w3.org/2000/svg">
<rect width="104" height="104" rx="52" fill="#F8F8F8"/>
<path fill-rule="evenodd" clip-rule="evenodd" d="M40.3265 35.6602H44.9951C46.2843 35.6602 47.3294 36.7053 47.3294 37.9945V42.6631H37.9922V37.9945C37.9922 36.7053 39.0373 35.6602 40.3265 35.6602Z" stroke="#191919" stroke-width="3.5" stroke-linecap="round" stroke-linejoin="round"/>
<path d="M42.6593 30.9902V35.6588" stroke="#191919" stroke-width="3.5" stroke-linecap="round" stroke-linejoin="round"/>
<path d="M51.9948 59.0022V44.9964C51.9948 43.7072 50.9497 42.6621 49.6605 42.6621H35.6546C34.3654 42.6621 33.3203 43.7072 33.3203 44.9964V73.0081" stroke="#191919" stroke-width="3.5" stroke-linecap="round" stroke-linejoin="round"/>
<path d="M67.1515 66.0059V73.0088" stroke="#191919" stroke-width="3.5" stroke-linecap="round" stroke-linejoin="round"/>
<rect x="61.3281" y="49.666" width="11.6715" height="16.3401" rx="5.83333" stroke="#191919" stroke-width="3.5" stroke-linecap="round" stroke-linejoin="round"/>
<path d="M42.6562 66.005H56.6621" stroke="#191919" stroke-width="3.5" stroke-linecap="round" stroke-linejoin="round"/>
<path d="M45.1906 73.0088V66.0059" stroke="#191919" stroke-width="3.5" stroke-linecap="round" stroke-linejoin="round"/>
<path d="M54.3312 73.0088V66.0059" stroke="#191919" stroke-width="3.5" stroke-linecap="round" stroke-linejoin="round"/>
<circle cx="63.6686" cy="35.6588" r="4.66861" stroke="#191919" stroke-width="3.5" stroke-linecap="round" stroke-linejoin="round"/>
<path d="M39.1562 56.6691H46.1592" stroke="#FCBA07" stroke-width="3.5" stroke-linecap="round" stroke-linejoin="round"/>
<path d="M39.1562 49.6652H46.1592" stroke="#FCBA07" stroke-width="3.5" stroke-linecap="round" stroke-linejoin="round"/>
<path d="M75.3345 73.0089H28.6484" stroke="#191919" stroke-width="3.5" stroke-linecap="round" stroke-linejoin="round"/>
</svg>
