<svg width="104" height="104" viewBox="0 0 104 104" fill="none" xmlns="http://www.w3.org/2000/svg">
<rect width="104" height="104" rx="52" fill="#F8F8F8"/>
<path d="M40.32 73.0087V37.9941H30.9827C29.6935 37.9941 28.6484 39.0392 28.6484 40.3284V73.0087" stroke="#191919" stroke-width="3.5" stroke-linecap="round" stroke-linejoin="round"/>
<path d="M75.3434 73.0087V40.3284C75.3434 39.0392 74.2983 37.9941 73.0091 37.9941H63.6719V73.0087" stroke="#191919" stroke-width="3.5" stroke-linecap="round" stroke-linejoin="round"/>
<path d="M47.3281 66.005H56.6653" stroke="#191919" stroke-width="3.5" stroke-linecap="round" stroke-linejoin="round"/>
<path d="M48.4922 73.0088V66.0059H55.4951V73.0088" stroke="#191919" stroke-width="3.5" stroke-linecap="round" stroke-linejoin="round"/>
<path d="M46.1562 59.002H57.8278" stroke="#FCBA07" stroke-width="3.5" stroke-linecap="round" stroke-linejoin="round"/>
<path d="M46.1562 51.9992H57.8278" stroke="#FCBA07" stroke-width="3.5" stroke-linecap="round" stroke-linejoin="round"/>
<path d="M34.4922 55.5011H40.328" stroke="#FCBA07" stroke-width="3.5" stroke-linecap="round" stroke-linejoin="round"/>
<path d="M34.4922 63.6711H40.328" stroke="#FCBA07" stroke-width="3.5" stroke-linecap="round" stroke-linejoin="round"/>
<path d="M34.4922 47.3312H40.328" stroke="#FCBA07" stroke-width="3.5" stroke-linecap="round" stroke-linejoin="round"/>
<path d="M63.6719 55.5011H69.5076" stroke="#FCBA07" stroke-width="3.5" stroke-linecap="round" stroke-linejoin="round"/>
<path d="M63.6719 63.6711H69.5076" stroke="#FCBA07" stroke-width="3.5" stroke-linecap="round" stroke-linejoin="round"/>
<path d="M63.6719 47.3312H69.5076" stroke="#FCBA07" stroke-width="3.5" stroke-linecap="round" stroke-linejoin="round"/>
<path d="M63.6638 73.0077V33.4179C63.6885 32.1033 62.644 31.017 61.3295 30.9902H42.655C41.3405 31.017 40.296 32.1033 40.3207 33.4179V73.0077" stroke="#191919" stroke-width="3.5" stroke-linecap="round" stroke-linejoin="round"/>
<path d="M77.675 73.0089H26.3203" stroke="#191919" stroke-width="3.5" stroke-linecap="round" stroke-linejoin="round"/>
<circle cx="51.9936" cy="41.4956" r="3.50146" stroke="#FCBA07" stroke-width="3.5" stroke-linecap="round" stroke-linejoin="round"/>
</svg>
