<svg width="3189" height="3610" viewBox="0 0 3189 3610" fill="none" xmlns="http://www.w3.org/2000/svg">
<g clip-path="url(#clip0_2341_156)">
<path d="M1594.89 3213.86C2215.95 3213.86 2561.21 3213.86 2786.71 2988.36C3012.21 2762.86 3012.21 2417.6 3012.21 1796.54C3012.21 1175.48 3012.21 830.216 2786.71 604.716C2561.21 379.216 2215.95 379.216 1594.89 379.216C973.83 379.216 628.57 379.216 403.07 604.716C177.57 830.216 177.57 1175.48 177.57 1796.54C177.57 2417.6 177.57 2762.86 403.07 2988.36C628.57 3213.86 973.83 3213.86 1594.89 3213.86Z" stroke="black" stroke-width="9.07"/>
<path d="M1594.89 3388.83C2293.16 3388.83 2681.33 3388.83 2934.86 3135.3C3188.39 2881.77 3188.39 2493.59 3188.39 1795.33C3188.39 1097.07 3188.39 708.886 2934.86 455.356C2681.33 201.826 2293.15 201.826 1594.89 201.826C896.63 201.826 508.45 201.826 254.92 455.356C1.38962 708.886 1.38965 1097.07 1.38965 1795.33C1.38965 2493.59 1.38962 2881.77 254.92 3135.3C508.45 3388.83 896.63 3388.83 1594.89 3388.83Z" stroke="black" stroke-width="9.07"/>
<path d="M-67.6602 2848.86L39.6998 2848.89" stroke="black" stroke-width="0.71" stroke-linecap="round" stroke-linejoin="round"/>
<path d="M538.03 669.526C542.44 676.096 546.85 682.656 551.26 689.226" stroke="black" stroke-width="9.07" stroke-linecap="round" stroke-linejoin="round"/>
<path d="M897.29 668.876H867.93" stroke="black" stroke-width="9.07" stroke-linecap="round" stroke-linejoin="round"/>
<path d="M868.1 689.866H897.12" stroke="black" stroke-width="9.07" stroke-linecap="round" stroke-linejoin="round"/>
<path d="M586.45 674.166H609.81" stroke="black" stroke-width="9.07" stroke-miterlimit="10"/>
<path d="M472.85 648.306V689.436" stroke="black" stroke-width="9.07" stroke-linecap="round" stroke-linejoin="round"/>
<path d="M520.68 648.406V689.446" stroke="black" stroke-width="9.07" stroke-linecap="round" stroke-linejoin="round"/>
<path d="M452.89 648.306H492.8" stroke="black" stroke-width="9.07" stroke-linecap="round" stroke-linejoin="round"/>
<path d="M813.669 648.306V689.436" stroke="black" stroke-width="9.07" stroke-linecap="round" stroke-linejoin="round"/>
<path d="M793.72 648.306H833.63" stroke="black" stroke-width="9.07" stroke-linecap="round" stroke-linejoin="round"/>
<path d="M867.919 648.826V689.866" stroke="black" stroke-width="9.07" stroke-linecap="round" stroke-linejoin="round"/>
<path d="M867.919 647.956H896.939" stroke="black" stroke-width="9.07" stroke-linecap="round" stroke-linejoin="round"/>
<path d="M520.68 648.406H538.03C544.09 648.886 548.55 654.156 548.12 659.786C547.73 664.856 543.46 669.126 538.03 669.526H522.19" stroke="black" stroke-width="9.07" stroke-linejoin="round"/>
<path d="M645.59 689.476V648.366C646.37 648.746 647.52 649.276 648.91 649.876C655.86 652.856 664.05 656.386 674.01 656.526C687 656.706 696.55 652.126 700.62 649.876C701.78 649.336 702.94 648.796 704.11 648.256V689.446" stroke="black" stroke-width="9.07" stroke-linecap="round" stroke-linejoin="round"/>
<path d="M741.04 669.456H756.88C762.31 669.066 766.59 664.786 766.97 659.716C767.4 654.086 762.94 648.816 756.88 648.336H739.53V689.376" stroke="black" stroke-width="9.07" stroke-linecap="round" stroke-linejoin="round"/>
<path d="M580.34 689.446L586.45 673.306C589.75 664.946 593.06 656.576 596.36 648.216C597.68 648.216 599.01 648.216 600.33 648.216C603.42 656.336 606.5 664.486 609.57 672.666C611.67 678.266 613.76 683.856 615.84 689.436" stroke="black" stroke-width="9.07" stroke-linecap="round" stroke-linejoin="round"/>
<path d="M963.259 660.106C960.679 652.796 953.929 647.756 946.259 647.386C938.339 647.006 930.949 651.666 927.829 659.036C926.959 661.296 925.779 665.276 926.109 670.276C926.339 673.806 927.239 676.646 928.029 678.586C931.349 685.566 938.579 689.866 946.259 689.426C954.089 688.976 960.879 683.686 963.259 676.176" stroke="black" stroke-width="9.07" stroke-linecap="round" stroke-linejoin="round"/>
<path d="M2602.92 2966.56C2598.51 2959.99 2594.1 2953.43 2589.69 2946.86" stroke="black" stroke-width="9.07" stroke-linecap="round" stroke-linejoin="round"/>
<path d="M2243.66 2967.21H2273.02" stroke="black" stroke-width="9.07" stroke-linecap="round" stroke-linejoin="round"/>
<path d="M2272.85 2946.22C2263.18 2946.22 2253.5 2946.22 2243.83 2946.22" stroke="black" stroke-width="9.07" stroke-linecap="round" stroke-linejoin="round"/>
<path d="M2554.49 2961.92H2531.14" stroke="black" stroke-width="9.07" stroke-miterlimit="10"/>
<path d="M2668.1 2987.77C2668.1 2974.06 2668.1 2960.35 2668.1 2946.64" stroke="black" stroke-width="9.07" stroke-linecap="round" stroke-linejoin="round"/>
<path d="M2620.27 2987.68C2620.27 2974 2620.27 2960.32 2620.27 2946.64" stroke="black" stroke-width="9.07" stroke-linecap="round" stroke-linejoin="round"/>
<path d="M2688.06 2987.77H2648.15" stroke="black" stroke-width="9.07" stroke-linecap="round" stroke-linejoin="round"/>
<path d="M2327.28 2987.77C2327.28 2974.06 2327.28 2960.35 2327.28 2946.64" stroke="black" stroke-width="9.07" stroke-linecap="round" stroke-linejoin="round"/>
<path d="M2347.23 2987.77H2307.32" stroke="black" stroke-width="9.07" stroke-linecap="round" stroke-linejoin="round"/>
<path d="M2273.02 2987.26C2273.02 2973.58 2273.02 2959.9 2273.02 2946.22" stroke="black" stroke-width="9.07" stroke-linecap="round" stroke-linejoin="round"/>
<path d="M2273.02 2988.13C2263.35 2988.13 2253.67 2988.13 2244 2988.13" stroke="black" stroke-width="9.07" stroke-linecap="round" stroke-linejoin="round"/>
<path d="M2620.27 2987.68H2602.92C2596.86 2987.2 2592.4 2981.93 2592.83 2976.3C2593.22 2971.23 2597.49 2966.96 2602.92 2966.56C2608.2 2966.56 2613.48 2966.56 2618.76 2966.56" stroke="black" stroke-width="9.07" stroke-linejoin="round"/>
<path d="M2495.36 2946.61C2495.36 2960.31 2495.36 2974.02 2495.36 2987.72C2494.58 2987.34 2493.43 2986.81 2492.04 2986.21C2485.09 2983.23 2476.9 2979.7 2466.94 2979.56C2453.95 2979.38 2444.4 2983.96 2440.33 2986.21C2439.17 2986.75 2438.01 2987.29 2436.84 2987.83C2436.84 2974.1 2436.84 2960.37 2436.84 2946.64" stroke="black" stroke-width="9.07" stroke-linecap="round" stroke-linejoin="round"/>
<path d="M2399.91 2966.63C2394.63 2966.63 2389.35 2966.63 2384.07 2966.63C2378.64 2967.02 2374.36 2971.3 2373.98 2976.37C2373.55 2982 2378.01 2987.27 2384.07 2987.75H2401.42C2401.42 2974.07 2401.42 2960.39 2401.42 2946.71" stroke="black" stroke-width="9.07" stroke-linecap="round" stroke-linejoin="round"/>
<path d="M2560.6 2946.64L2554.49 2962.78C2551.19 2971.14 2547.88 2979.51 2544.58 2987.87C2543.26 2987.87 2541.93 2987.87 2540.61 2987.87C2537.52 2979.75 2534.44 2971.6 2531.37 2963.42C2529.27 2957.82 2527.18 2952.23 2525.1 2946.65" stroke="black" stroke-width="9.07" stroke-linecap="round" stroke-linejoin="round"/>
<path d="M2177.69 2975.98C2180.27 2983.29 2187.02 2988.33 2194.69 2988.7C2202.61 2989.08 2210 2984.42 2213.12 2977.05C2213.99 2974.79 2215.17 2970.81 2214.84 2965.81C2214.61 2962.28 2213.71 2959.44 2212.92 2957.5C2209.6 2950.52 2202.37 2946.22 2194.69 2946.66C2186.86 2947.11 2180.07 2952.4 2177.69 2959.91" stroke="black" stroke-width="9.07" stroke-linecap="round" stroke-linejoin="round"/>
<path d="M1281.54 704.566C1301.89 704.566 1318.39 688.108 1318.39 667.806C1318.39 647.504 1301.89 631.046 1281.54 631.046C1261.19 631.046 1244.69 647.504 1244.69 667.806C1244.69 688.108 1261.19 704.566 1281.54 704.566Z" fill="black"/>
<path d="M401.08 1853.2C421.432 1853.2 437.93 1836.74 437.93 1816.44C437.93 1796.13 421.432 1779.68 401.08 1779.68C380.728 1779.68 364.23 1796.13 364.23 1816.44C364.23 1836.74 380.728 1853.2 401.08 1853.2Z" fill="black"/>
<path d="M401.08 2448.58C421.432 2448.58 437.93 2432.12 437.93 2411.82C437.93 2391.51 421.432 2375.06 401.08 2375.06C380.728 2375.06 364.23 2391.51 364.23 2411.82C364.23 2432.12 380.728 2448.58 401.08 2448.58Z" fill="black"/>
<path d="M982.41 2448.58C1002.76 2448.58 1019.26 2432.12 1019.26 2411.82C1019.26 2391.51 1002.76 2375.06 982.41 2375.06C962.058 2375.06 945.56 2391.51 945.56 2411.82C945.56 2432.12 962.058 2448.58 982.41 2448.58Z" fill="black"/>
<path d="M1561.12 2448.07C1581.47 2448.07 1597.97 2431.61 1597.97 2411.31C1597.97 2391 1581.47 2374.55 1561.12 2374.55C1540.77 2374.55 1524.27 2391 1524.27 2411.31C1524.27 2431.61 1540.77 2448.07 1561.12 2448.07Z" fill="black"/>
<path d="M2182.46 2449.15C2202.81 2449.15 2219.31 2432.69 2219.31 2412.39C2219.31 2392.08 2202.81 2375.63 2182.46 2375.63C2162.11 2375.63 2145.61 2392.08 2145.61 2412.39C2145.61 2432.69 2162.11 2449.15 2182.46 2449.15Z" fill="black"/>
<path d="M2767.61 2449.15C2787.96 2449.15 2804.46 2432.69 2804.46 2412.39C2804.46 2392.08 2787.96 2375.63 2767.61 2375.63C2747.26 2375.63 2730.76 2392.08 2730.76 2412.39C2730.76 2432.69 2747.26 2449.15 2767.61 2449.15Z" fill="black"/>
<path d="M407.31 1258.52C427.662 1258.52 444.16 1242.06 444.16 1221.76C444.16 1201.45 427.662 1185 407.31 1185C386.958 1185 370.46 1201.45 370.46 1221.76C370.46 1242.06 386.958 1258.52 407.31 1258.52Z" fill="black"/>
<path d="M988.65 1258.52C1009 1258.52 1025.5 1242.06 1025.5 1221.76C1025.5 1201.45 1009 1185 988.65 1185C968.298 1185 951.8 1201.45 951.8 1221.76C951.8 1242.06 968.298 1258.52 988.65 1258.52Z" fill="black"/>
<path d="M1567.35 1258C1587.7 1258 1604.2 1241.54 1604.2 1221.24C1604.2 1200.93 1587.7 1184.48 1567.35 1184.48C1547 1184.48 1530.5 1200.93 1530.5 1221.24C1530.5 1241.54 1547 1258 1567.35 1258Z" fill="black"/>
<path d="M2188.69 1259.08C2209.04 1259.08 2225.54 1242.62 2225.54 1222.32C2225.54 1202.01 2209.04 1185.56 2188.69 1185.56C2168.34 1185.56 2151.84 1202.01 2151.84 1222.32C2151.84 1242.62 2168.34 1259.08 2188.69 1259.08Z" fill="black"/>
<path d="M2773.84 1259.08C2794.19 1259.08 2810.69 1242.62 2810.69 1222.32C2810.69 1202.01 2794.19 1185.56 2773.84 1185.56C2753.49 1185.56 2736.99 1202.01 2736.99 1222.32C2736.99 1242.62 2753.49 1259.08 2773.84 1259.08Z" fill="black"/>
<path d="M692.89 2982.79C713.241 2982.79 729.74 2966.33 729.74 2946.03C729.74 2925.72 713.241 2909.27 692.89 2909.27C672.538 2909.27 656.04 2925.72 656.04 2946.03C656.04 2966.33 672.538 2982.79 692.89 2982.79Z" fill="black"/>
<path d="M1279.79 2982.79C1300.14 2982.79 1316.64 2966.33 1316.64 2946.03C1316.64 2925.72 1300.14 2909.27 1279.79 2909.27C1259.44 2909.27 1242.94 2925.72 1242.94 2946.03C1242.94 2966.33 1259.44 2982.79 1279.79 2982.79Z" fill="black"/>
<path d="M1879.93 2982.79C1900.28 2982.79 1916.78 2966.33 1916.78 2946.03C1916.78 2925.72 1900.28 2909.27 1879.93 2909.27C1859.58 2909.27 1843.08 2925.72 1843.08 2946.03C1843.08 2966.33 1859.58 2982.79 1879.93 2982.79Z" fill="black"/>
<path d="M970.1 1853.2C990.452 1853.2 1006.95 1836.74 1006.95 1816.44C1006.95 1796.13 990.452 1779.68 970.1 1779.68C949.748 1779.68 933.25 1796.13 933.25 1816.44C933.25 1836.74 949.748 1853.2 970.1 1853.2Z" fill="black"/>
<path d="M1562.46 1853.2C1582.81 1853.2 1599.31 1836.74 1599.31 1816.44C1599.31 1796.13 1582.81 1779.68 1562.46 1779.68C1542.11 1779.68 1525.61 1796.13 1525.61 1816.44C1525.61 1836.74 1542.11 1853.2 1562.46 1853.2Z" fill="black"/>
<path d="M2173.77 1853.2C2194.12 1853.2 2210.62 1836.74 2210.62 1816.44C2210.62 1796.13 2194.12 1779.68 2173.77 1779.68C2153.42 1779.68 2136.92 1796.13 2136.92 1816.44C2136.92 1836.74 2153.42 1853.2 2173.77 1853.2Z" fill="black"/>
<path d="M2767.61 1853.2C2787.96 1853.2 2804.46 1836.74 2804.46 1816.44C2804.46 1796.13 2787.96 1779.68 2767.61 1779.68C2747.26 1779.68 2730.76 1796.13 2730.76 1816.44C2730.76 1836.74 2747.26 1853.2 2767.61 1853.2Z" fill="black"/>
<path d="M1880.25 704.566C1900.6 704.566 1917.1 688.108 1917.1 667.806C1917.1 647.504 1900.6 631.046 1880.25 631.046C1859.9 631.046 1843.4 647.504 1843.4 667.806C1843.4 688.108 1859.9 704.566 1880.25 704.566Z" fill="black"/>
<path d="M2480.91 704.566C2501.26 704.566 2517.76 688.108 2517.76 667.806C2517.76 647.504 2501.26 631.046 2480.91 631.046C2460.56 631.046 2444.06 647.504 2444.06 667.806C2444.06 688.108 2460.56 704.566 2480.91 704.566Z" fill="black"/>
</g>
<defs>
<clipPath id="clip0_2341_156">
<rect width="3188" height="3609" fill="white" transform="translate(0.899902 0.905273)"/>
</clipPath>
</defs>
</svg>
