<svg width="3188" height="3610" viewBox="0 0 3188 3610" fill="none" xmlns="http://www.w3.org/2000/svg">
<g clip-path="url(#clip0_2341_10)">
<path d="M1593.99 3213.95C2215.05 3213.95 2560.31 3213.95 2785.81 2988.45C3011.31 2762.95 3011.31 2417.69 3011.31 1796.63C3011.31 1175.57 3011.31 830.311 2785.81 604.811C2560.31 379.311 2215.05 379.311 1593.99 379.311C972.93 379.311 627.67 379.311 402.17 604.811C176.67 830.311 176.67 1175.57 176.67 1796.63C176.67 2417.69 176.67 2762.95 402.17 2988.45C627.67 3213.95 972.93 3213.95 1593.99 3213.95Z" stroke="black" stroke-width="9.07"/>
<path d="M1593.99 3388.92C2292.26 3388.92 2680.43 3388.92 2933.96 3135.39C3187.49 2881.86 3187.49 2493.68 3187.49 1795.42C3187.49 1097.16 3187.49 708.981 2933.96 455.451C2680.43 201.921 2292.25 201.921 1593.99 201.921C895.73 201.921 507.55 201.921 254.02 455.451C0.489716 708.981 0.489746 1097.16 0.489746 1795.42C0.489746 2493.68 0.489716 2881.86 254.02 3135.39C507.55 3388.92 895.73 3388.92 1593.99 3388.92Z" stroke="black" stroke-width="9.07"/>
<path d="M830.28 3179.78C851.99 3173.4 872.45 3161.65 889.57 3144.53C944.13 3089.97 944.13 3001.51 889.57 2946.95C919.23 2917.29 932.77 2877.6 930.18 2838.79" stroke="black" stroke-width="8.5" stroke-miterlimit="10"/>
<path d="M682.62 3153.1C685.84 3150.41 688.97 3147.56 691.99 3144.53C697.24 3149.78 702.8 3154.52 708.62 3158.76" stroke="black" stroke-width="8.5" stroke-miterlimit="10"/>
<path d="M461.35 2801.88C444.16 2850.96 455.18 2907.72 494.42 2946.95C469.97 2971.4 456.47 3002.67 453.94 3034.64" stroke="black" stroke-width="8.5" stroke-miterlimit="10"/>
<path d="M537.16 2720.14C521.65 2726.93 507.11 2736.67 494.42 2749.37C479.09 2764.7 468.07 2782.7 461.35 2801.88" stroke="black" stroke-width="8.5" stroke-miterlimit="10"/>
<path d="M1403.36 432.331C1360.61 425.481 1315.29 438.521 1282.34 471.481" stroke="black" stroke-width="8.5" stroke-miterlimit="10"/>
<path d="M1051.69 523.98C1034.5 573.06 1045.52 629.82 1084.76 669.05C1052.77 701.04 1039.54 744.67 1045.06 786.3" stroke="black" stroke-width="8.5" stroke-miterlimit="10"/>
<path d="M1282.34 471.471C1227.78 416.911 1139.32 416.911 1084.76 471.471C1069.43 486.801 1058.41 504.801 1051.69 523.981" stroke="black" stroke-width="8.5" stroke-miterlimit="10"/>
<path d="M1401.31 863.37C1393.54 852.99 1384.93 843.03 1375.49 833.59C1268.42 726.52 1094.83 726.51 987.76 833.59" stroke="black" stroke-width="8.5" stroke-miterlimit="10"/>
<path d="M535.12 936.631C529.82 951.761 525.89 967.261 523.32 982.941" stroke="black" stroke-width="8.5" stroke-miterlimit="10"/>
<path d="M987.76 833.591C880.69 726.521 707.09 726.521 600.02 833.591C569.94 863.671 548.31 899.001 535.13 936.641" stroke="black" stroke-width="8.5" stroke-miterlimit="10"/>
<path d="M636.12 1341.76C644.64 1297.73 631.86 1250.39 597.76 1216.29C652.32 1161.73 652.32 1073.27 597.76 1018.71C543.2 964.15 454.74 964.15 400.18 1018.71" stroke="black" stroke-width="8.5" stroke-miterlimit="10"/>
<path d="M188.97 1200.48C193.05 1206 197.6 1211.28 202.6 1216.29C196.19 1222.7 190.53 1229.58 185.63 1236.82" stroke="black" stroke-width="8.5" stroke-miterlimit="10"/>
<path d="M400.18 1018.71C349.03 967.56 268.08 964.36 213.21 1009.12" stroke="black" stroke-width="8.5" stroke-miterlimit="10"/>
<path d="M2371.12 424.421C2370.73 421.081 2370.27 417.751 2369.76 414.431" stroke="black" stroke-width="8.5" stroke-miterlimit="10"/>
<path d="M1411.98 378.601C1384.04 475.081 1408.09 583.431 1484.14 659.471C1400.72 742.891 1379.87 865.181 1421.58 968.041" stroke="black" stroke-width="8.5" stroke-miterlimit="10"/>
<path d="M1102.55 1513.92C1095.83 1533.1 1091.26 1552.85 1088.83 1572.82" stroke="black" stroke-width="8.5" stroke-miterlimit="10"/>
<path d="M1317.11 1330.58C1262.88 1340.47 1210.99 1366.38 1169.06 1408.31C1138.23 1439.14 1116.06 1475.35 1102.55 1513.92" stroke="black" stroke-width="8.5" stroke-miterlimit="10"/>
<path d="M865.24 1571.38C856.91 1515.24 831.14 1461.19 787.93 1417.98C680.86 1310.91 507.27 1310.9 400.2 1417.98" stroke="black" stroke-width="8.5" stroke-miterlimit="10"/>
<path d="M400.19 1417.97C340.38 1358.16 259.81 1331.76 181.67 1338.77" stroke="black" stroke-width="8.5" stroke-miterlimit="10"/>
<path d="M1751.13 3209.4C1752.99 3200.9 1754.47 3192.33 1755.55 3183.73Z" fill="white"/>
<path d="M1751.13 3209.4C1752.99 3200.9 1754.47 3192.33 1755.55 3183.73" stroke="black" stroke-width="8.5" stroke-miterlimit="10"/>
<path d="M2513.53 441.92C2504.83 447.39 2496.6 453.92 2489.02 461.49" stroke="black" stroke-width="8.5" stroke-miterlimit="10"/>
<path d="M2632.28 890.34C2652.13 883.69 2670.79 872.46 2686.6 856.65C2741.16 802.09 2741.16 713.63 2686.6 659.07C2713.88 631.79 2727.52 596.04 2727.52 560.28" stroke="black" stroke-width="8.5" stroke-miterlimit="10"/>
<path d="M2258.37 514C2241.18 563.08 2252.2 619.84 2291.44 659.07C2257.34 693.17 2244.55 740.51 2253.08 784.54" stroke="black" stroke-width="8.5" stroke-miterlimit="10"/>
<path d="M2489.02 461.49C2434.46 406.93 2346 406.93 2291.44 461.49C2276.11 476.82 2265.09 494.82 2258.37 514" stroke="black" stroke-width="8.5" stroke-miterlimit="10"/>
<path d="M1645.55 2801.88C1628.36 2850.96 1639.38 2907.72 1678.62 2946.95C1624.06 3001.51 1624.06 3089.97 1678.62 3144.53C1733.18 3199.09 1821.64 3199.09 1876.2 3144.53C1930.76 3199.09 2019.22 3199.09 2073.78 3144.53C2128.34 3089.97 2128.34 3001.51 2073.78 2946.95C2101.71 2919.02 2115.35 2882.2 2114.68 2845.59" stroke="black" stroke-width="8.5" stroke-miterlimit="10"/>
<path d="M1733.19 2715.6C1713.24 2722.24 1694.5 2733.49 1678.62 2749.37C1663.29 2764.7 1652.27 2782.7 1645.55 2801.88" stroke="black" stroke-width="8.5" stroke-miterlimit="10"/>
<path d="M1719.29 959.49C1669.39 946.94 1614.34 960.181 1575.31 999.211" stroke="black" stroke-width="8.5" stroke-miterlimit="10"/>
<path d="M1325.61 1056.05C1307 1109.18 1318.94 1170.63 1361.41 1213.1C1302.34 1272.17 1302.34 1367.93 1361.41 1427C1420.48 1486.07 1516.24 1486.07 1575.31 1427C1613.41 1465.1 1666.77 1478.62 1715.71 1467.57" stroke="black" stroke-width="8.5" stroke-miterlimit="10"/>
<path d="M1575.31 999.201C1516.24 940.131 1420.48 940.131 1361.41 999.201C1344.82 1015.79 1332.88 1035.29 1325.61 1056.05" stroke="black" stroke-width="8.5" stroke-miterlimit="10"/>
<path d="M2665.25 977.79C2655.33 924.97 2629.44 874.45 2587.58 833.61C2477.85 726.54 2299.95 726.53 2190.22 833.61" stroke="black" stroke-width="8.5" stroke-miterlimit="10"/>
<path d="M2408.46 1688.72C2473.72 1684.3 2537.7 1657.76 2587.59 1609.07C2632.11 1565.63 2658.56 1511.24 2666.96 1454.78" stroke="black" stroke-width="8.5" stroke-miterlimit="10"/>
<path d="M1715.67 1467.42C1725.94 1519.32 1751.66 1568.89 1792.86 1609.08C1833.1 1648.35 1882.52 1673.22 1934.38 1683.68" stroke="black" stroke-width="8.5" stroke-miterlimit="10"/>
<path d="M1726.35 936.65C1691.78 1032.97 1713.95 1144.36 1792.85 1221.35C1724.31 1288.23 1698.58 1381.06 1715.66 1467.43" stroke="black" stroke-width="8.5" stroke-miterlimit="10"/>
<path d="M2190.23 833.6C2080.5 726.53 1902.59 726.53 1792.86 833.6C1762.03 863.68 1739.86 899.01 1726.36 936.65" stroke="black" stroke-width="8.5" stroke-miterlimit="10"/>
<path d="M2972.28 1009.21C2917.41 964.361 2836.39 967.521 2785.2 1018.71" stroke="black" stroke-width="8.5" stroke-miterlimit="10"/>
<path d="M2996.33 1231.99C2992.26 1226.51 2987.75 1221.25 2982.77 1216.28C2987.18 1211.87 2991.24 1207.23 2994.94 1202.41" stroke="black" stroke-width="8.5" stroke-miterlimit="10"/>
<path d="M2554.55 1071.21C2537.36 1120.29 2548.38 1177.05 2587.62 1216.28C2533.06 1270.84 2533.06 1359.3 2587.62 1413.86C2642.18 1468.42 2730.64 1468.42 2785.2 1413.86C2839.76 1468.42 2928.22 1468.42 2982.78 1413.86C2990.9 1405.74 2997.81 1396.86 3003.52 1387.46" stroke="black" stroke-width="8.5" stroke-miterlimit="10"/>
<path d="M2785.2 1018.71C2730.64 964.151 2642.18 964.151 2587.62 1018.71C2572.29 1034.04 2561.27 1052.04 2554.55 1071.22" stroke="black" stroke-width="8.5" stroke-miterlimit="10"/>
<path d="M1436.87 2146.05C1424.72 2101.62 1401.2 2059.65 1366.3 2024.74C1321.99 1980.42 1266.27 1954.45 1208.6 1946.82" stroke="black" stroke-width="8.5" stroke-miterlimit="10"/>
<path d="M930.17 2838.81C947.36 2828.03 963.61 2815.17 978.56 2800.22C1085.63 2907.29 1259.23 2907.28 1366.29 2800.22C1405.14 2761.37 1429.89 2713.77 1440.55 2663.76" stroke="black" stroke-width="8.5" stroke-miterlimit="10"/>
<path d="M512.76 2641.47C520.22 2699.52 546.24 2755.63 590.82 2800.21C682.94 2892.33 824.3 2905.19 930.17 2838.8" stroke="black" stroke-width="8.5" stroke-miterlimit="10"/>
<path d="M525.93 2127.78C521.71 2139.82 518.36 2152.09 515.88 2164.51" stroke="black" stroke-width="8.5" stroke-miterlimit="10"/>
<path d="M726.82 1950.57C676.98 1961.28 629.55 1986 590.82 2024.73C560.74 2054.81 539.11 2090.14 525.93 2127.78" stroke="black" stroke-width="8.5" stroke-miterlimit="10"/>
<path d="M1718.49 2153C1666.46 2136.66 1607.34 2149.11 1566.11 2190.34" stroke="black" stroke-width="8.5" stroke-miterlimit="10"/>
<path d="M1441.13 2661.37C1485.6 2666.68 1531.98 2652.27 1566.11 2618.14C1606.46 2658.49 1663.95 2671.28 1715.15 2656.49" stroke="black" stroke-width="8.5" stroke-miterlimit="10"/>
<path d="M1316.42 2247.19C1297.81 2300.32 1309.75 2361.77 1352.22 2404.24C1293.15 2463.31 1293.15 2559.07 1352.22 2618.14C1377.16 2643.08 1408.64 2657.49 1441.14 2661.37" stroke="black" stroke-width="8.5" stroke-miterlimit="10"/>
<path d="M1566.11 2190.35C1507.04 2131.28 1411.28 2131.28 1352.21 2190.35C1335.62 2206.94 1323.68 2226.44 1316.41 2247.2" stroke="black" stroke-width="8.5" stroke-miterlimit="10"/>
<path d="M2642.98 2173.88C2634 2119.28 2608.45 2066.87 2566.34 2024.75C2520.82 1979.23 2463.28 1953.06 2403.93 1946.24" stroke="black" stroke-width="8.5" stroke-miterlimit="10"/>
<path d="M1715.15 2656.48C1724.89 2709.14 1750.13 2759.5 1790.86 2800.23C1897.93 2907.3 2071.53 2907.3 2178.6 2800.23C2285.67 2907.3 2459.27 2907.29 2566.33 2800.23C2610.92 2755.64 2636.94 2699.51 2644.39 2641.46" stroke="black" stroke-width="8.5" stroke-miterlimit="10"/>
<path d="M1725.97 2127.79C1692.24 2224.11 1713.87 2335.5 1790.86 2412.49C1724.52 2478.83 1699.28 2570.71 1715.15 2656.49" stroke="black" stroke-width="8.5" stroke-miterlimit="10"/>
<path d="M1941.32 1947.88C1886.24 1956.67 1833.32 1982.29 1790.87 2024.74C1760.79 2054.82 1739.16 2090.15 1725.98 2127.79" stroke="black" stroke-width="8.5" stroke-miterlimit="10"/>
<path d="M3003.89 2276.98C2998.19 2252.38 2985.76 2229.02 2966.59 2209.85C2912.03 2155.29 2823.57 2155.29 2769.01 2209.85" stroke="black" stroke-width="8.5" stroke-miterlimit="10"/>
<path d="M2990.33 2439.04C2984.11 2427.7 2976.19 2417.04 2966.58 2407.43C2982.44 2391.58 2993.68 2372.86 3000.32 2352.94" stroke="black" stroke-width="8.5" stroke-miterlimit="10"/>
<path d="M2538.36 2262.36C2521.17 2311.44 2532.19 2368.2 2571.43 2407.43C2516.87 2461.99 2516.87 2550.45 2571.43 2605.01C2625.99 2659.57 2714.45 2659.57 2769.01 2605.01C2823.57 2659.57 2912.03 2659.57 2966.59 2605.01C2969.91 2601.69 2973.03 2598.25 2975.94 2594.69" stroke="black" stroke-width="8.5" stroke-miterlimit="10"/>
<path d="M2769.01 2209.85C2714.45 2155.29 2625.99 2155.29 2571.43 2209.85C2556.1 2225.18 2545.08 2243.18 2538.36 2262.36" stroke="black" stroke-width="8.5" stroke-miterlimit="10"/>
<path d="M640.24 2270.16C634.28 2246.54 622.06 2224.17 603.58 2205.69C549.02 2151.13 460.56 2151.13 406 2205.69" stroke="black" stroke-width="8.5" stroke-miterlimit="10"/>
<path d="M219.03 2610.43C273.9 2655.19 354.85 2651.99 406 2600.84C460.56 2655.4 549.02 2655.4 603.58 2600.84C658.14 2546.28 658.14 2457.82 603.58 2403.26C639.66 2367.18 651.88 2316.28 640.25 2270.16" stroke="black" stroke-width="8.5" stroke-miterlimit="10"/>
<path d="M191.66 2383.04C196.52 2390.17 202.1 2396.94 208.43 2403.26C202.79 2408.9 197.73 2414.9 193.26 2421.19" stroke="black" stroke-width="8.5" stroke-miterlimit="10"/>
<path d="M406 2205.68C351.44 2151.12 262.98 2151.12 208.42 2205.68C197.85 2216.25 189.33 2228.1 182.85 2240.72" stroke="black" stroke-width="8.5" stroke-miterlimit="10"/>
<path d="M1942.23 1671.3C1925.04 1720.38 1936.06 1777.14 1975.3 1816.37C1920.74 1870.93 1920.74 1959.39 1975.3 2013.95C2029.86 2068.51 2118.32 2068.51 2172.88 2013.95C2227.44 2068.51 2315.9 2068.51 2370.46 2013.95C2425.02 1959.39 2425.02 1870.93 2370.46 1816.37C2425.02 1761.81 2425.02 1673.35 2370.46 1618.79C2315.9 1564.23 2227.44 1564.23 2172.88 1618.79" stroke="black" stroke-width="8.5" stroke-miterlimit="10"/>
<path d="M2172.88 1618.79C2118.32 1564.23 2029.86 1564.23 1975.3 1618.79C1959.97 1634.12 1948.95 1652.12 1942.23 1671.3" stroke="black" stroke-width="8.5" stroke-miterlimit="10"/>
<path d="M1208.59 1946.82C1218.28 1901.02 1205.34 1851.38 1169.76 1815.81C1225.68 1759.9 1225.68 1669.24 1169.76 1613.33C1113.85 1557.41 1023.19 1557.41 967.28 1613.33" stroke="black" stroke-width="8.5" stroke-miterlimit="10"/>
<path d="M730.91 1667.13C713.3 1717.43 724.59 1775.6 764.8 1815.81C708.88 1871.73 708.88 1962.38 764.8 2018.3C820.72 2074.22 911.37 2074.22 967.29 2018.3C1023.21 2074.21 1113.86 2074.21 1169.77 2018.3C1190.11 1997.96 1203.05 1973.02 1208.59 1946.83" stroke="black" stroke-width="8.5" stroke-miterlimit="10"/>
<path d="M967.29 1613.31C911.37 1557.39 820.72 1557.39 764.8 1613.31C749.09 1629.02 737.79 1647.47 730.91 1667.12" stroke="black" stroke-width="8.5" stroke-miterlimit="10"/>
<path d="M537.13 669.621C541.54 676.191 545.95 682.751 550.36 689.321" stroke="black" stroke-width="9.07" stroke-linecap="round" stroke-linejoin="round"/>
<path d="M896.39 668.971H867.03" stroke="black" stroke-width="9.07" stroke-linecap="round" stroke-linejoin="round"/>
<path d="M867.2 689.961H896.22" stroke="black" stroke-width="9.07" stroke-linecap="round" stroke-linejoin="round"/>
<path d="M585.55 674.261H608.91" stroke="black" stroke-width="9.07" stroke-miterlimit="10"/>
<path d="M471.95 648.4V689.53" stroke="black" stroke-width="9.07" stroke-linecap="round" stroke-linejoin="round"/>
<path d="M519.78 648.501V689.541" stroke="black" stroke-width="9.07" stroke-linecap="round" stroke-linejoin="round"/>
<path d="M451.99 648.4H491.9" stroke="black" stroke-width="9.07" stroke-linecap="round" stroke-linejoin="round"/>
<path d="M812.77 648.4V689.53" stroke="black" stroke-width="9.07" stroke-linecap="round" stroke-linejoin="round"/>
<path d="M792.82 648.4H832.73" stroke="black" stroke-width="9.07" stroke-linecap="round" stroke-linejoin="round"/>
<path d="M867.02 648.921V689.961" stroke="black" stroke-width="9.07" stroke-linecap="round" stroke-linejoin="round"/>
<path d="M867.02 648.051H896.04" stroke="black" stroke-width="9.07" stroke-linecap="round" stroke-linejoin="round"/>
<path d="M519.78 648.501H537.13C543.19 648.981 547.65 654.251 547.22 659.881C546.83 664.951 542.56 669.221 537.13 669.621H521.29" stroke="black" stroke-width="9.07" stroke-linejoin="round"/>
<path d="M644.69 689.571V648.461C645.47 648.841 646.62 649.371 648.01 649.971C654.96 652.951 663.15 656.481 673.11 656.621C686.1 656.801 695.65 652.221 699.72 649.971C700.88 649.431 702.04 648.891 703.21 648.351V689.541" stroke="black" stroke-width="9.07" stroke-linecap="round" stroke-linejoin="round"/>
<path d="M740.14 669.551H755.98C761.41 669.161 765.69 664.881 766.07 659.811C766.5 654.181 762.04 648.911 755.98 648.431H738.63V689.471" stroke="black" stroke-width="9.07" stroke-linecap="round" stroke-linejoin="round"/>
<path d="M579.44 689.541L585.55 673.401C588.85 665.041 592.16 656.671 595.46 648.311C596.78 648.311 598.11 648.311 599.43 648.311C602.52 656.431 605.6 664.581 608.67 672.761C610.77 678.361 612.86 683.951 614.94 689.531" stroke="black" stroke-width="9.07" stroke-linecap="round" stroke-linejoin="round"/>
<path d="M962.36 660.201C959.78 652.891 953.03 647.851 945.36 647.481C937.44 647.101 930.05 651.761 926.93 659.131C926.06 661.391 924.88 665.371 925.21 670.371C925.44 673.901 926.339 676.741 927.129 678.681C930.449 685.661 937.68 689.961 945.36 689.521C953.19 689.071 959.98 683.781 962.36 676.271" stroke="black" stroke-width="9.07" stroke-linecap="round" stroke-linejoin="round"/>
<path d="M2602.02 2966.65C2597.61 2960.08 2593.2 2953.52 2588.79 2946.95" stroke="black" stroke-width="9.07" stroke-linecap="round" stroke-linejoin="round"/>
<path d="M2242.76 2967.3H2272.12" stroke="black" stroke-width="9.07" stroke-linecap="round" stroke-linejoin="round"/>
<path d="M2271.95 2946.31C2262.28 2946.31 2252.6 2946.31 2242.93 2946.31" stroke="black" stroke-width="9.07" stroke-linecap="round" stroke-linejoin="round"/>
<path d="M2553.59 2962.01H2530.24" stroke="black" stroke-width="9.07" stroke-miterlimit="10"/>
<path d="M2667.2 2987.86C2667.2 2974.15 2667.2 2960.44 2667.2 2946.73" stroke="black" stroke-width="9.07" stroke-linecap="round" stroke-linejoin="round"/>
<path d="M2619.37 2987.77C2619.37 2974.09 2619.37 2960.41 2619.37 2946.73" stroke="black" stroke-width="9.07" stroke-linecap="round" stroke-linejoin="round"/>
<path d="M2687.16 2987.86H2647.25" stroke="black" stroke-width="9.07" stroke-linecap="round" stroke-linejoin="round"/>
<path d="M2326.38 2987.86C2326.38 2974.15 2326.38 2960.44 2326.38 2946.73" stroke="black" stroke-width="9.07" stroke-linecap="round" stroke-linejoin="round"/>
<path d="M2346.33 2987.86H2306.42" stroke="black" stroke-width="9.07" stroke-linecap="round" stroke-linejoin="round"/>
<path d="M2272.12 2987.35C2272.12 2973.67 2272.12 2959.99 2272.12 2946.31" stroke="black" stroke-width="9.07" stroke-linecap="round" stroke-linejoin="round"/>
<path d="M2272.12 2988.22C2262.45 2988.22 2252.77 2988.22 2243.1 2988.22" stroke="black" stroke-width="9.07" stroke-linecap="round" stroke-linejoin="round"/>
<path d="M2619.37 2987.77H2602.02C2595.96 2987.29 2591.5 2982.02 2591.93 2976.39C2592.32 2971.32 2596.59 2967.05 2602.02 2966.65C2607.3 2966.65 2612.58 2966.65 2617.86 2966.65" stroke="black" stroke-width="9.07" stroke-linejoin="round"/>
<path d="M2494.46 2946.7C2494.46 2960.4 2494.46 2974.11 2494.46 2987.81C2493.68 2987.43 2492.53 2986.9 2491.14 2986.3C2484.19 2983.32 2476 2979.79 2466.04 2979.65C2453.05 2979.47 2443.5 2984.05 2439.43 2986.3C2438.27 2986.84 2437.11 2987.38 2435.94 2987.92C2435.94 2974.19 2435.94 2960.46 2435.94 2946.73" stroke="black" stroke-width="9.07" stroke-linecap="round" stroke-linejoin="round"/>
<path d="M2399.01 2966.72C2393.73 2966.72 2388.45 2966.72 2383.17 2966.72C2377.74 2967.11 2373.46 2971.39 2373.08 2976.46C2372.65 2982.09 2377.11 2987.36 2383.17 2987.84H2400.52C2400.52 2974.16 2400.52 2960.48 2400.52 2946.8" stroke="black" stroke-width="9.07" stroke-linecap="round" stroke-linejoin="round"/>
<path d="M2559.7 2946.73L2553.59 2962.87C2550.29 2971.23 2546.98 2979.6 2543.68 2987.96C2542.36 2987.96 2541.03 2987.96 2539.71 2987.96C2536.62 2979.84 2533.54 2971.69 2530.47 2963.51C2528.37 2957.91 2526.28 2952.32 2524.2 2946.74" stroke="black" stroke-width="9.07" stroke-linecap="round" stroke-linejoin="round"/>
<path d="M2176.79 2976.07C2179.37 2983.38 2186.12 2988.42 2193.79 2988.79C2201.71 2989.17 2209.1 2984.51 2212.22 2977.14C2213.09 2974.88 2214.27 2970.9 2213.94 2965.9C2213.71 2962.37 2212.81 2959.53 2212.02 2957.59C2208.7 2950.61 2201.47 2946.31 2193.79 2946.75C2185.96 2947.2 2179.17 2952.49 2176.79 2960" stroke="black" stroke-width="9.07" stroke-linecap="round" stroke-linejoin="round"/>
<path d="M1280.64 704.661C1300.99 704.661 1317.49 688.203 1317.49 667.901C1317.49 647.599 1300.99 631.141 1280.64 631.141C1260.29 631.141 1243.79 647.599 1243.79 667.901C1243.79 688.203 1260.29 704.661 1280.64 704.661Z" fill="black"/>
<path d="M400.18 1853.29C420.532 1853.29 437.03 1836.83 437.03 1816.53C437.03 1796.23 420.532 1779.77 400.18 1779.77C379.828 1779.77 363.33 1796.23 363.33 1816.53C363.33 1836.83 379.828 1853.29 400.18 1853.29Z" fill="black"/>
<path d="M400.18 2448.67C420.532 2448.67 437.03 2432.21 437.03 2411.91C437.03 2391.61 420.532 2375.15 400.18 2375.15C379.828 2375.15 363.33 2391.61 363.33 2411.91C363.33 2432.21 379.828 2448.67 400.18 2448.67Z" fill="black"/>
<path d="M981.51 2448.67C1001.86 2448.67 1018.36 2432.21 1018.36 2411.91C1018.36 2391.61 1001.86 2375.15 981.51 2375.15C961.158 2375.15 944.66 2391.61 944.66 2411.91C944.66 2432.21 961.158 2448.67 981.51 2448.67Z" fill="black"/>
<path d="M1560.22 2448.16C1580.57 2448.16 1597.07 2431.7 1597.07 2411.4C1597.07 2391.1 1580.57 2374.64 1560.22 2374.64C1539.87 2374.64 1523.37 2391.1 1523.37 2411.4C1523.37 2431.7 1539.87 2448.16 1560.22 2448.16Z" fill="black"/>
<path d="M2181.56 2449.24C2201.91 2449.24 2218.41 2432.78 2218.41 2412.48C2218.41 2392.18 2201.91 2375.72 2181.56 2375.72C2161.21 2375.72 2144.71 2392.18 2144.71 2412.48C2144.71 2432.78 2161.21 2449.24 2181.56 2449.24Z" fill="black"/>
<path d="M2766.71 2449.24C2787.06 2449.24 2803.56 2432.78 2803.56 2412.48C2803.56 2392.18 2787.06 2375.72 2766.71 2375.72C2746.36 2375.72 2729.86 2392.18 2729.86 2412.48C2729.86 2432.78 2746.36 2449.24 2766.71 2449.24Z" fill="black"/>
<path d="M406.41 1258.61C426.762 1258.61 443.26 1242.15 443.26 1221.85C443.26 1201.55 426.762 1185.09 406.41 1185.09C386.058 1185.09 369.56 1201.55 369.56 1221.85C369.56 1242.15 386.058 1258.61 406.41 1258.61Z" fill="black"/>
<path d="M987.75 1258.61C1008.1 1258.61 1024.6 1242.15 1024.6 1221.85C1024.6 1201.55 1008.1 1185.09 987.75 1185.09C967.398 1185.09 950.9 1201.55 950.9 1221.85C950.9 1242.15 967.398 1258.61 987.75 1258.61Z" fill="black"/>
<path d="M1566.45 1258.09C1586.8 1258.09 1603.3 1241.63 1603.3 1221.33C1603.3 1201.03 1586.8 1184.57 1566.45 1184.57C1546.1 1184.57 1529.6 1201.03 1529.6 1221.33C1529.6 1241.63 1546.1 1258.09 1566.45 1258.09Z" fill="black"/>
<path d="M2187.79 1259.17C2208.14 1259.17 2224.64 1242.71 2224.64 1222.41C2224.64 1202.11 2208.14 1185.65 2187.79 1185.65C2167.44 1185.65 2150.94 1202.11 2150.94 1222.41C2150.94 1242.71 2167.44 1259.17 2187.79 1259.17Z" fill="black"/>
<path d="M2772.94 1259.17C2793.29 1259.17 2809.79 1242.71 2809.79 1222.41C2809.79 1202.11 2793.29 1185.65 2772.94 1185.65C2752.59 1185.65 2736.09 1202.11 2736.09 1222.41C2736.09 1242.71 2752.59 1259.17 2772.94 1259.17Z" fill="black"/>
<path d="M691.99 2982.88C712.341 2982.88 728.84 2966.42 728.84 2946.12C728.84 2925.82 712.341 2909.36 691.99 2909.36C671.638 2909.36 655.14 2925.82 655.14 2946.12C655.14 2966.42 671.638 2982.88 691.99 2982.88Z" fill="black"/>
<path d="M1278.89 2982.88C1299.24 2982.88 1315.74 2966.42 1315.74 2946.12C1315.74 2925.82 1299.24 2909.36 1278.89 2909.36C1258.54 2909.36 1242.04 2925.82 1242.04 2946.12C1242.04 2966.42 1258.54 2982.88 1278.89 2982.88Z" fill="black"/>
<path d="M1879.03 2982.88C1899.38 2982.88 1915.88 2966.42 1915.88 2946.12C1915.88 2925.82 1899.38 2909.36 1879.03 2909.36C1858.68 2909.36 1842.18 2925.82 1842.18 2946.12C1842.18 2966.42 1858.68 2982.88 1879.03 2982.88Z" fill="black"/>
<path d="M969.2 1853.29C989.552 1853.29 1006.05 1836.83 1006.05 1816.53C1006.05 1796.23 989.552 1779.77 969.2 1779.77C948.848 1779.77 932.35 1796.23 932.35 1816.53C932.35 1836.83 948.848 1853.29 969.2 1853.29Z" fill="black"/>
<path d="M1561.56 1853.29C1581.91 1853.29 1598.41 1836.83 1598.41 1816.53C1598.41 1796.23 1581.91 1779.77 1561.56 1779.77C1541.21 1779.77 1524.71 1796.23 1524.71 1816.53C1524.71 1836.83 1541.21 1853.29 1561.56 1853.29Z" fill="black"/>
<path d="M2172.87 1853.29C2193.22 1853.29 2209.72 1836.83 2209.72 1816.53C2209.72 1796.23 2193.22 1779.77 2172.87 1779.77C2152.52 1779.77 2136.02 1796.23 2136.02 1816.53C2136.02 1836.83 2152.52 1853.29 2172.87 1853.29Z" fill="black"/>
<path d="M2766.71 1853.29C2787.06 1853.29 2803.56 1836.83 2803.56 1816.53C2803.56 1796.23 2787.06 1779.77 2766.71 1779.77C2746.36 1779.77 2729.86 1796.23 2729.86 1816.53C2729.86 1836.83 2746.36 1853.29 2766.71 1853.29Z" fill="black"/>
<path d="M1879.35 704.661C1899.7 704.661 1916.2 688.203 1916.2 667.901C1916.2 647.599 1899.7 631.141 1879.35 631.141C1859 631.141 1842.5 647.599 1842.5 667.901C1842.5 688.203 1859 704.661 1879.35 704.661Z" fill="black"/>
<path d="M2480.01 704.661C2500.36 704.661 2516.86 688.203 2516.86 667.901C2516.86 647.599 2500.36 631.141 2480.01 631.141C2459.66 631.141 2443.16 647.599 2443.16 667.901C2443.16 688.203 2459.66 704.661 2480.01 704.661Z" fill="black"/>
</g>
<defs>
<clipPath id="clip0_2341_10">
<rect width="3187" height="3609" fill="white" transform="translate(0.899902 0.905273)"/>
</clipPath>
</defs>
</svg>
