<svg width="3188" height="3610" viewBox="0 0 3188 3610" fill="none" xmlns="http://www.w3.org/2000/svg">
<g clip-path="url(#clip0_2341_220)">
<path d="M2448.83 2140.03C2492.48 2140.03 2527.86 2104.65 2527.86 2061C2527.86 2017.35 2492.48 1981.97 2448.83 1981.97C2405.18 1981.97 2369.8 2017.35 2369.8 2061C2369.8 2104.65 2405.18 2140.03 2448.83 2140.03Z" stroke="black" stroke-width="9.07" stroke-linecap="round" stroke-linejoin="round"/>
<path d="M2437.81 2803.18C2481.46 2803.18 2516.84 2767.8 2516.84 2724.15C2516.84 2680.5 2481.46 2645.12 2437.81 2645.12C2394.16 2645.12 2358.78 2680.5 2358.78 2724.15C2358.78 2767.8 2394.16 2803.18 2437.81 2803.18Z" stroke="black" stroke-width="9.07" stroke-linecap="round" stroke-linejoin="round"/>
<path d="M1596.22 2582.61C1639.87 2582.61 1675.25 2547.23 1675.25 2503.58C1675.25 2459.93 1639.87 2424.55 1596.22 2424.55C1552.57 2424.55 1517.19 2459.93 1517.19 2503.58C1517.19 2547.23 1552.57 2582.61 1596.22 2582.61Z" stroke="black" stroke-width="9.07" stroke-linecap="round" stroke-linejoin="round"/>
<path d="M2432.01 1447.39C2475.66 1447.39 2511.04 1412.01 2511.04 1368.36C2511.04 1324.71 2475.66 1289.33 2432.01 1289.33C2388.36 1289.33 2352.98 1324.71 2352.98 1368.36C2352.98 1412.01 2388.36 1447.39 2432.01 1447.39Z" stroke="black" stroke-width="9.07" stroke-linecap="round" stroke-linejoin="round"/>
<path d="M1258.44 1667.23C1302.09 1667.23 1337.47 1631.85 1337.47 1588.2C1337.47 1544.55 1302.09 1509.17 1258.44 1509.17C1214.79 1509.17 1179.41 1544.55 1179.41 1588.2C1179.41 1631.85 1214.79 1667.23 1258.44 1667.23Z" stroke="black" stroke-width="9.07" stroke-linecap="round" stroke-linejoin="round"/>
<path d="M696.07 2146.94C739.717 2146.94 775.1 2111.56 775.1 2067.91C775.1 2024.26 739.717 1988.88 696.07 1988.88C652.423 1988.88 617.04 2024.26 617.04 2067.91C617.04 2111.56 652.423 2146.94 696.07 2146.94Z" stroke="black" stroke-width="9.07" stroke-linecap="round" stroke-linejoin="round"/>
<path d="M1585.91 1902.88C1629.56 1902.88 1664.94 1867.5 1664.94 1823.85C1664.94 1780.2 1629.56 1744.82 1585.91 1744.82C1542.26 1744.82 1506.88 1780.2 1506.88 1823.85C1506.88 1867.5 1542.26 1902.88 1585.91 1902.88Z" stroke="black" stroke-width="9.07" stroke-linecap="round" stroke-linejoin="round"/>
<path d="M414.18 1922.28C457.827 1922.28 493.21 1886.9 493.21 1843.25C493.21 1799.6 457.827 1764.22 414.18 1764.22C370.533 1764.22 335.15 1799.6 335.15 1843.25C335.15 1886.9 370.533 1922.28 414.18 1922.28Z" stroke="black" stroke-width="9.07" stroke-linecap="round" stroke-linejoin="round"/>
<path d="M415.49 2810.05C459.137 2810.05 494.52 2774.67 494.52 2731.02C494.52 2687.37 459.137 2651.99 415.49 2651.99C371.843 2651.99 336.46 2687.37 336.46 2731.02C336.46 2774.67 371.843 2810.05 415.49 2810.05Z" stroke="black" stroke-width="9.07" stroke-linecap="round" stroke-linejoin="round"/>
<path d="M1803.89 1447.39C1847.54 1447.39 1882.92 1412.01 1882.92 1368.36C1882.92 1324.71 1847.54 1289.33 1803.89 1289.33C1760.24 1289.33 1724.86 1324.71 1724.86 1368.36C1724.86 1412.01 1760.24 1447.39 1803.89 1447.39Z" stroke="black" stroke-width="9.07" stroke-linecap="round" stroke-linejoin="round"/>
<path d="M2160.31 756.931C2203.96 756.931 2239.34 721.548 2239.34 677.901C2239.34 634.254 2203.96 598.871 2160.31 598.871C2116.66 598.871 2081.28 634.254 2081.28 677.901C2081.28 721.548 2116.66 756.931 2160.31 756.931Z" stroke="black" stroke-width="9.07" stroke-linecap="round" stroke-linejoin="round"/>
<path d="M399.69 1009.25C443.337 1009.25 478.72 973.867 478.72 930.22C478.72 886.573 443.337 851.19 399.69 851.19C356.043 851.19 320.66 886.573 320.66 930.22C320.66 973.867 356.043 1009.25 399.69 1009.25Z" stroke="black" stroke-width="9.07" stroke-linecap="round" stroke-linejoin="round"/>
<path d="M1469.42 1009.25C1513.07 1009.25 1548.45 973.867 1548.45 930.22C1548.45 886.573 1513.07 851.19 1469.42 851.19C1425.77 851.19 1390.39 886.573 1390.39 930.22C1390.39 973.867 1425.77 1009.25 1469.42 1009.25Z" stroke="black" stroke-width="9.07" stroke-linecap="round" stroke-linejoin="round"/>
<path d="M615.13 679.621C619.54 686.191 623.95 692.751 628.36 699.321" stroke="black" stroke-width="9.07" stroke-linecap="round" stroke-linejoin="round"/>
<path d="M974.39 678.971H945.03" stroke="black" stroke-width="9.07" stroke-linecap="round" stroke-linejoin="round"/>
<path d="M945.2 699.96H974.22" stroke="black" stroke-width="9.07" stroke-linecap="round" stroke-linejoin="round"/>
<path d="M663.55 684.261H686.91" stroke="black" stroke-width="9.07" stroke-miterlimit="10"/>
<path d="M549.95 658.4V699.53" stroke="black" stroke-width="9.07" stroke-linecap="round" stroke-linejoin="round"/>
<path d="M597.78 658.5V699.54" stroke="black" stroke-width="9.07" stroke-linecap="round" stroke-linejoin="round"/>
<path d="M529.99 658.4H569.9" stroke="black" stroke-width="9.07" stroke-linecap="round" stroke-linejoin="round"/>
<path d="M890.77 658.4V699.53" stroke="black" stroke-width="9.07" stroke-linecap="round" stroke-linejoin="round"/>
<path d="M870.82 658.4H910.73" stroke="black" stroke-width="9.07" stroke-linecap="round" stroke-linejoin="round"/>
<path d="M945.02 658.92V699.96" stroke="black" stroke-width="9.07" stroke-linecap="round" stroke-linejoin="round"/>
<path d="M945.02 658.051H974.04" stroke="black" stroke-width="9.07" stroke-linecap="round" stroke-linejoin="round"/>
<path d="M597.78 658.5H615.13C621.19 658.98 625.65 664.25 625.22 669.88C624.83 674.95 620.56 679.22 615.13 679.62H599.29" stroke="black" stroke-width="9.07" stroke-linejoin="round"/>
<path d="M722.69 699.571V658.461C723.47 658.841 724.62 659.371 726.01 659.971C732.96 662.951 741.15 666.481 751.11 666.621C764.1 666.801 773.65 662.221 777.72 659.971C778.88 659.431 780.04 658.891 781.21 658.351V699.541" stroke="black" stroke-width="9.07" stroke-linecap="round" stroke-linejoin="round"/>
<path d="M818.14 679.551H833.98C839.41 679.161 843.69 674.881 844.07 669.811C844.5 664.181 840.04 658.911 833.98 658.431H816.63V699.471" stroke="black" stroke-width="9.07" stroke-linecap="round" stroke-linejoin="round"/>
<path d="M657.44 699.541L663.55 683.401C666.85 675.041 670.16 666.671 673.46 658.311C674.78 658.311 676.11 658.311 677.43 658.311C680.52 666.431 683.6 674.581 686.67 682.761C688.77 688.361 690.86 693.951 692.94 699.531" stroke="black" stroke-width="9.07" stroke-linecap="round" stroke-linejoin="round"/>
<path d="M1040.36 670.201C1037.78 662.891 1031.03 657.851 1023.36 657.481C1015.44 657.101 1008.05 661.761 1004.93 669.131C1004.06 671.391 1002.88 675.371 1003.21 680.371C1003.44 683.901 1004.34 686.741 1005.13 688.681C1008.45 695.661 1015.68 699.961 1023.36 699.521C1031.19 699.071 1037.98 693.781 1040.36 686.271" stroke="black" stroke-width="9.07" stroke-linecap="round" stroke-linejoin="round"/>
<path d="M2589.02 2971.65C2584.61 2965.08 2580.2 2958.52 2575.79 2951.95" stroke="black" stroke-width="9.07" stroke-linecap="round" stroke-linejoin="round"/>
<path d="M2229.76 2972.3C2239.55 2972.3 2249.33 2972.3 2259.12 2972.3" stroke="black" stroke-width="9.07" stroke-linecap="round" stroke-linejoin="round"/>
<path d="M2258.95 2951.31C2249.28 2951.31 2239.6 2951.31 2229.93 2951.31" stroke="black" stroke-width="9.07" stroke-linecap="round" stroke-linejoin="round"/>
<path d="M2540.59 2967.01H2517.24" stroke="black" stroke-width="9.07" stroke-miterlimit="10"/>
<path d="M2654.2 2992.86V2951.73" stroke="black" stroke-width="9.07" stroke-linecap="round" stroke-linejoin="round"/>
<path d="M2606.37 2992.77V2951.73" stroke="black" stroke-width="9.07" stroke-linecap="round" stroke-linejoin="round"/>
<path d="M2674.16 2992.86H2634.25" stroke="black" stroke-width="9.07" stroke-linecap="round" stroke-linejoin="round"/>
<path d="M2313.38 2992.86C2313.38 2979.15 2313.38 2965.44 2313.38 2951.73" stroke="black" stroke-width="9.07" stroke-linecap="round" stroke-linejoin="round"/>
<path d="M2333.33 2992.86H2293.42" stroke="black" stroke-width="9.07" stroke-linecap="round" stroke-linejoin="round"/>
<path d="M2259.12 2992.35C2259.12 2978.67 2259.12 2964.99 2259.12 2951.31" stroke="black" stroke-width="9.07" stroke-linecap="round" stroke-linejoin="round"/>
<path d="M2259.12 2993.22C2249.45 2993.22 2239.77 2993.22 2230.1 2993.22" stroke="black" stroke-width="9.07" stroke-linecap="round" stroke-linejoin="round"/>
<path d="M2606.37 2992.77H2589.02C2582.96 2992.29 2578.5 2987.02 2578.93 2981.39C2579.32 2976.32 2583.59 2972.05 2589.02 2971.65C2594.3 2971.65 2599.58 2971.65 2604.86 2971.65" stroke="black" stroke-width="9.07" stroke-linejoin="round"/>
<path d="M2481.46 2951.7V2992.81C2480.68 2992.43 2479.53 2991.9 2478.14 2991.3C2471.19 2988.32 2463 2984.79 2453.04 2984.65C2440.05 2984.47 2430.5 2989.05 2426.43 2991.3C2425.27 2991.84 2424.11 2992.38 2422.94 2992.92C2422.94 2979.19 2422.94 2965.46 2422.94 2951.73" stroke="black" stroke-width="9.07" stroke-linecap="round" stroke-linejoin="round"/>
<path d="M2386.01 2971.72H2370.17C2364.74 2972.11 2360.46 2976.39 2360.08 2981.46C2359.65 2987.09 2364.11 2992.36 2370.17 2992.84H2387.52V2951.8" stroke="black" stroke-width="9.07" stroke-linecap="round" stroke-linejoin="round"/>
<path d="M2546.7 2951.73L2540.59 2967.87C2537.29 2976.23 2533.98 2984.6 2530.68 2992.96C2529.36 2992.96 2528.03 2992.96 2526.71 2992.96C2523.62 2984.84 2520.54 2976.69 2517.47 2968.51C2515.37 2962.91 2513.28 2957.32 2511.2 2951.74" stroke="black" stroke-width="9.07" stroke-linecap="round" stroke-linejoin="round"/>
<path d="M2163.79 2981.07C2166.37 2988.38 2173.12 2993.42 2180.79 2993.79C2188.71 2994.17 2196.1 2989.51 2199.22 2982.14C2200.09 2979.88 2201.27 2975.9 2200.94 2970.9C2200.71 2967.37 2199.81 2964.53 2199.02 2962.59C2195.7 2955.61 2188.47 2951.31 2180.79 2951.75C2172.96 2952.2 2166.17 2957.49 2163.79 2965" stroke="black" stroke-width="9.07" stroke-linecap="round" stroke-linejoin="round"/>
<path d="M2434.37 2538.3C2453.55 2538.3 2469.09 2522.76 2469.09 2503.58C2469.09 2484.4 2453.55 2468.86 2434.37 2468.86C2415.19 2468.86 2399.65 2484.4 2399.65 2503.58C2399.65 2522.76 2415.19 2538.3 2434.37 2538.3Z" fill="black"/>
<path d="M1895.66 598.86H1249.28C1205.63 598.86 1170.25 634.243 1170.25 677.89V677.9C1170.25 721.547 1205.63 756.93 1249.28 756.93H1895.66C1939.31 756.93 1974.69 721.547 1974.69 677.9V677.89C1974.69 634.243 1939.31 598.86 1895.66 598.86Z" stroke="black" stroke-width="9.07" stroke-miterlimit="10"/>
<path d="M1895.68 1049.51H1249.3C1205.65 1049.51 1170.27 1084.89 1170.27 1128.54V1128.55C1170.27 1172.2 1205.65 1207.58 1249.3 1207.58H1895.68C1939.33 1207.58 1974.71 1172.2 1974.71 1128.55V1128.54C1974.71 1084.89 1939.33 1049.51 1895.68 1049.51Z" stroke="black" stroke-width="9.07" stroke-miterlimit="10"/>
<path d="M1311.36 1744.81H699.83C656.183 1744.81 620.8 1780.19 620.8 1823.84V1823.85C620.8 1867.5 656.183 1902.88 699.83 1902.88H1311.36C1355.01 1902.88 1390.39 1867.5 1390.39 1823.85V1823.84C1390.39 1780.19 1355.01 1744.81 1311.36 1744.81Z" stroke="black" stroke-width="9.07" stroke-miterlimit="10"/>
<path d="M2425 1739.38H1913.95C1870.3 1739.38 1834.92 1774.76 1834.92 1818.41V1818.42C1834.92 1862.07 1870.3 1897.45 1913.95 1897.45H2425C2468.65 1897.45 2504.03 1862.07 2504.03 1818.42V1818.41C2504.03 1774.76 2468.65 1739.38 2425 1739.38Z" stroke="black" stroke-width="9.07" stroke-miterlimit="10"/>
<path d="M2437.98 2426.91H1892.98C1849.33 2426.91 1813.95 2462.29 1813.95 2505.94V2505.95C1813.95 2549.6 1849.33 2584.98 1892.98 2584.98H2437.98C2481.63 2584.98 2517.01 2549.6 2517.01 2505.95V2505.94C2517.01 2462.29 2481.63 2426.91 2437.98 2426.91Z" stroke="black" stroke-width="9.07" stroke-miterlimit="10"/>
<path d="M2432.81 2200.08H1494.77C1451.12 2200.08 1415.74 2235.46 1415.74 2279.11V2279.12C1415.74 2322.77 1451.12 2358.15 1494.77 2358.15H2432.81C2476.46 2358.15 2511.84 2322.77 2511.84 2279.12V2279.11C2511.84 2235.46 2476.46 2200.08 2432.81 2200.08Z" stroke="black" stroke-width="9.07" stroke-miterlimit="10"/>
<path d="M2193.88 2653.74H1255.84C1212.19 2653.74 1176.81 2689.12 1176.81 2732.77V2732.78C1176.81 2776.43 1212.19 2811.81 1255.84 2811.81H2193.88C2237.53 2811.81 2272.91 2776.43 2272.91 2732.78V2732.77C2272.91 2689.12 2237.53 2653.74 2193.88 2653.74Z" stroke="black" stroke-width="9.07" stroke-miterlimit="10"/>
<path d="M2516.05 1129.57V674.631C2516.05 630.984 2480.67 595.601 2437.02 595.601H2437.01C2393.36 595.601 2357.98 630.984 2357.98 674.631V1129.57C2357.98 1173.22 2393.36 1208.6 2437.01 1208.6H2437.02C2480.67 1208.6 2516.05 1173.22 2516.05 1129.57Z" stroke="black" stroke-width="9.07" stroke-miterlimit="10"/>
<path d="M1023.01 1590.26V1150.57C1023.01 1106.92 987.627 1071.54 943.98 1071.54H943.97C900.323 1071.54 864.94 1106.92 864.94 1150.57V1590.26C864.94 1633.91 900.323 1669.29 943.97 1669.29H943.98C987.627 1669.29 1023.01 1633.91 1023.01 1590.26Z" stroke="black" stroke-width="9.07" stroke-miterlimit="10"/>
<path d="M1088.04 2947.43V2507.74C1088.04 2464.09 1052.66 2428.71 1009.01 2428.71H1009C965.352 2428.71 929.969 2464.09 929.969 2507.74V2947.43C929.969 2991.08 965.352 3026.46 1009 3026.46H1009.01C1052.66 3026.46 1088.04 2991.08 1088.04 2947.43Z" stroke="black" stroke-width="9.07" stroke-miterlimit="10"/>
<path d="M788.11 2944.56V2504.87C788.11 2461.22 752.727 2425.84 709.08 2425.84H709.07C665.423 2425.84 630.04 2461.22 630.04 2504.87V2944.56C630.04 2988.21 665.423 3023.59 709.07 3023.59H709.08C752.727 3023.59 788.11 2988.21 788.11 2944.56Z" stroke="black" stroke-width="9.07" stroke-miterlimit="10"/>
<path d="M494.52 2498.96L494.52 2059.27C494.52 2015.62 459.137 1980.24 415.49 1980.24H415.479C371.832 1980.24 336.449 2015.62 336.449 2059.27V2498.96C336.449 2542.61 371.832 2577.99 415.479 2577.99H415.49C459.137 2577.99 494.52 2542.61 494.52 2498.96Z" stroke="black" stroke-width="9.07" stroke-miterlimit="10"/>
<path d="M1332.67 2512.11V2072.42C1332.67 2028.77 1297.29 1993.39 1253.64 1993.39H1253.63C1209.98 1993.39 1174.6 2028.77 1174.6 2072.42V2512.11C1174.6 2555.76 1209.98 2591.14 1253.63 2591.14H1253.64C1297.29 2591.14 1332.67 2555.76 1332.67 2512.11Z" stroke="black" stroke-width="9.07" stroke-miterlimit="10"/>
<path d="M2224.73 1595.13V1129.86C2224.73 1086.21 2189.35 1050.83 2145.7 1050.83H2145.69C2102.04 1050.83 2066.66 1086.21 2066.66 1129.86V1595.13C2066.66 1638.78 2102.04 1674.16 2145.69 1674.16H2145.7C2189.35 1674.16 2224.73 1638.78 2224.73 1595.13Z" stroke="black" stroke-width="9.07" stroke-miterlimit="10"/>
<path d="M1706.91 1009.25L2146.6 1009.25C2190.25 1009.25 2225.63 973.868 2225.63 930.221V930.211C2225.63 886.563 2190.25 851.18 2146.6 851.18H1706.91C1663.26 851.18 1627.88 886.563 1627.88 930.211V930.221C1627.88 973.868 1663.26 1009.25 1706.91 1009.25Z" stroke="black" stroke-width="9.07" stroke-miterlimit="10"/>
<path d="M705.22 2371.29H1010.54C1054.19 2371.29 1089.57 2335.91 1089.57 2292.26V2292.25C1089.57 2248.6 1054.19 2213.22 1010.54 2213.22H705.22C661.573 2213.22 626.19 2248.6 626.19 2292.25V2292.26C626.19 2335.91 661.573 2371.29 705.22 2371.29Z" stroke="black" stroke-width="9.07" stroke-miterlimit="10"/>
<path d="M401.22 1208.9H711.36C755.007 1208.9 790.39 1173.52 790.39 1129.87V1129.86C790.39 1086.21 755.007 1050.83 711.36 1050.83H401.22C357.573 1050.83 322.19 1086.21 322.19 1129.86V1129.87C322.19 1173.52 357.573 1208.9 401.22 1208.9Z" stroke="black" stroke-width="9.07" stroke-miterlimit="10"/>
<path d="M2432.01 1665.56H2777.77C2821.42 1665.56 2856.8 1630.18 2856.8 1586.53V1586.52C2856.8 1542.87 2821.42 1507.49 2777.77 1507.49H2432.01C2388.36 1507.49 2352.98 1542.87 2352.98 1586.52V1586.53C2352.98 1630.18 2388.36 1665.56 2432.01 1665.56Z" stroke="black" stroke-width="9.07" stroke-miterlimit="10"/>
<path d="M1598.59 1667.23H1895.68C1939.33 1667.23 1974.71 1631.85 1974.71 1588.2V1588.19C1974.71 1544.54 1939.33 1509.16 1895.68 1509.16H1598.59C1554.94 1509.16 1519.56 1544.54 1519.56 1588.19V1588.2C1519.56 1631.85 1554.94 1667.23 1598.59 1667.23Z" stroke="black" stroke-width="9.07" stroke-miterlimit="10"/>
<path d="M1597.58 2129.43H2149.7C2193.35 2129.43 2228.73 2094.05 2228.73 2050.4V2050.39C2228.73 2006.74 2193.35 1971.36 2149.7 1971.36H1597.58C1553.93 1971.36 1518.55 2006.74 1518.55 2050.39V2050.4C1518.55 2094.05 1553.93 2129.43 1597.58 2129.43Z" stroke="black" stroke-width="9.07" stroke-miterlimit="10"/>
<path d="M1241.84 1447.39H1538.93C1582.58 1447.39 1617.96 1412.01 1617.96 1368.36V1368.35C1617.96 1324.7 1582.58 1289.32 1538.93 1289.32H1241.84C1198.19 1289.32 1162.81 1324.7 1162.81 1368.35V1368.36C1162.81 1412.01 1198.19 1447.39 1241.84 1447.39Z" stroke="black" stroke-width="9.07" stroke-miterlimit="10"/>
<path d="M646.68 1009.77L1212.4 1009.77C1256.05 1009.77 1291.43 974.388 1291.43 930.741V930.731C1291.43 887.083 1256.05 851.701 1212.4 851.701L646.68 851.701C603.033 851.701 567.65 887.083 567.65 930.731V930.741C567.65 974.388 603.033 1009.77 646.68 1009.77Z" stroke="black" stroke-width="9.07" stroke-miterlimit="10"/>
<path d="M2700.67 1825.83V2044.13C2700.67 2087.71 2736 2123.04 2779.58 2123.04C2823.16 2123.04 2858.49 2087.71 2858.49 2044.13V1825.83C2858.49 1782.25 2823.16 1746.92 2779.58 1746.92C2736 1746.92 2700.67 1782.25 2700.67 1825.83Z" stroke="black" stroke-width="9.07" stroke-miterlimit="10"/>
<path d="M1494.65 3035.02H2017.54C2061.12 3035.02 2096.45 2999.69 2096.45 2956.11C2096.45 2912.53 2061.12 2877.2 2017.54 2877.2H1494.65C1451.07 2877.2 1415.74 2912.53 1415.74 2956.11C1415.74 2999.69 1451.07 3035.02 1494.65 3035.02Z" stroke="black" stroke-width="9.07" stroke-miterlimit="10"/>
<path d="M335.27 1369.73V1588.03C335.27 1631.61 370.599 1666.94 414.18 1666.94C457.76 1666.94 493.09 1631.61 493.09 1588.03V1369.73C493.09 1326.15 457.76 1290.82 414.18 1290.82C370.599 1290.82 335.27 1326.15 335.27 1369.73Z" stroke="black" stroke-width="9.07" stroke-miterlimit="10"/>
<path d="M617.16 1367.56V1585.86C617.16 1629.44 652.489 1664.77 696.07 1664.77C739.65 1664.77 774.98 1629.44 774.98 1585.86V1367.56C774.98 1323.98 739.65 1288.65 696.07 1288.65C652.489 1288.65 617.16 1323.98 617.16 1367.56Z" stroke="black" stroke-width="9.07" stroke-miterlimit="10"/>
<path d="M2685.97 911.98V1361.82C2685.97 1405.4 2721.3 1440.73 2764.88 1440.73C2808.46 1440.73 2843.79 1405.4 2843.79 1361.82V911.98C2843.79 868.4 2808.46 833.071 2764.88 833.071C2721.3 833.071 2685.97 868.4 2685.97 911.98Z" stroke="black" stroke-width="9.07" stroke-miterlimit="10"/>
<path d="M2699.36 2292.14V2729.84C2699.36 2773.42 2734.69 2808.75 2778.27 2808.75C2821.85 2808.75 2857.18 2773.42 2857.18 2729.84V2292.14C2857.18 2248.56 2821.85 2213.23 2778.27 2213.23C2734.69 2213.23 2699.36 2248.56 2699.36 2292.14Z" stroke="black" stroke-width="9.07" stroke-miterlimit="10"/>
<path d="M1253.64 714.661C1273.99 714.661 1290.49 698.203 1290.49 677.901C1290.49 657.599 1273.99 641.141 1253.64 641.141C1233.29 641.141 1216.79 657.599 1216.79 677.901C1216.79 698.203 1233.29 714.661 1253.64 714.661Z" fill="black"/>
<path d="M711.3 1166.63C731.651 1166.63 748.15 1150.17 748.15 1129.87C748.15 1109.57 731.651 1093.11 711.3 1093.11C690.948 1093.11 674.45 1109.57 674.45 1129.87C674.45 1150.17 690.948 1166.63 711.3 1166.63Z" fill="black"/>
<path d="M414.18 1623.29C434.531 1623.29 451.03 1606.83 451.03 1586.53C451.03 1566.23 434.531 1549.77 414.18 1549.77C393.828 1549.77 377.33 1566.23 377.33 1586.53C377.33 1606.83 393.828 1623.29 414.18 1623.29Z" fill="black"/>
<path d="M414.18 2087.67C434.531 2087.67 451.03 2071.21 451.03 2050.91C451.03 2030.61 434.531 2014.15 414.18 2014.15C393.828 2014.15 377.33 2030.61 377.33 2050.91C377.33 2071.21 393.828 2087.67 414.18 2087.67Z" fill="black"/>
<path d="M956.51 2087.67C976.861 2087.67 993.36 2071.21 993.36 2050.91C993.36 2030.61 976.861 2014.15 956.51 2014.15C936.158 2014.15 919.66 2030.61 919.66 2050.91C919.66 2071.21 936.158 2087.67 956.51 2087.67Z" fill="black"/>
<path d="M1596.22 2087.16C1616.57 2087.16 1633.07 2070.7 1633.07 2050.4C1633.07 2030.1 1616.57 2013.64 1596.22 2013.64C1575.87 2013.64 1559.37 2030.1 1559.37 2050.4C1559.37 2070.7 1575.87 2087.16 1596.22 2087.16Z" fill="black"/>
<path d="M2138.56 2088.24C2158.91 2088.24 2175.41 2071.78 2175.41 2051.48C2175.41 2031.18 2158.91 2014.72 2138.56 2014.72C2118.21 2014.72 2101.71 2031.18 2101.71 2051.48C2101.71 2071.78 2118.21 2088.24 2138.56 2088.24Z" fill="black"/>
<path d="M2780.71 2088.24C2801.06 2088.24 2817.56 2071.78 2817.56 2051.48C2817.56 2031.18 2801.06 2014.72 2780.71 2014.72C2760.36 2014.72 2743.86 2031.18 2743.86 2051.48C2743.86 2071.78 2760.36 2088.24 2780.71 2088.24Z" fill="black"/>
<path d="M2434.37 2542.7C2454.72 2542.7 2471.22 2526.24 2471.22 2505.94C2471.22 2485.64 2454.72 2469.18 2434.37 2469.18C2414.02 2469.18 2397.52 2485.64 2397.52 2505.94C2397.52 2526.24 2414.02 2542.7 2434.37 2542.7Z" fill="black"/>
<path d="M1892.03 2540.34C1912.38 2540.34 1928.88 2523.88 1928.88 2503.58C1928.88 2483.28 1912.38 2466.82 1892.03 2466.82C1871.68 2466.82 1855.18 2483.28 1855.18 2503.58C1855.18 2523.88 1871.68 2540.34 1892.03 2540.34Z" fill="black"/>
<path d="M1252.32 2542.37C1272.67 2542.37 1289.17 2525.91 1289.17 2505.61C1289.17 2485.31 1272.67 2468.85 1252.32 2468.85C1231.97 2468.85 1215.47 2485.31 1215.47 2505.61C1215.47 2525.91 1231.97 2542.37 1252.32 2542.37Z" fill="black"/>
<path d="M709.99 2540.34C730.341 2540.34 746.84 2523.88 746.84 2503.58C746.84 2483.28 730.341 2466.82 709.99 2466.82C689.638 2466.82 673.14 2483.28 673.14 2503.58C673.14 2523.88 689.638 2540.34 709.99 2540.34Z" fill="black"/>
<path d="M708.99 2992.88C729.341 2992.88 745.84 2976.42 745.84 2956.12C745.84 2935.82 729.341 2919.36 708.99 2919.36C688.638 2919.36 672.14 2935.82 672.14 2956.12C672.14 2976.42 688.638 2992.88 708.99 2992.88Z" fill="black"/>
<path d="M1251.89 2992.88C1272.24 2992.88 1288.74 2976.42 1288.74 2956.12C1288.74 2935.82 1272.24 2919.36 1251.89 2919.36C1231.54 2919.36 1215.04 2935.82 1215.04 2956.12C1215.04 2976.42 1231.54 2992.88 1251.89 2992.88Z" fill="black"/>
<path d="M2008.03 2992.88C2028.38 2992.88 2044.88 2976.42 2044.88 2956.12C2044.88 2935.82 2028.38 2919.36 2008.03 2919.36C1987.68 2919.36 1971.18 2935.82 1971.18 2956.12C1971.18 2976.42 1987.68 2992.88 2008.03 2992.88Z" fill="black"/>
<path d="M944.2 1623.29C964.551 1623.29 981.05 1606.83 981.05 1586.53C981.05 1566.23 964.551 1549.77 944.2 1549.77C923.848 1549.77 907.35 1566.23 907.35 1586.53C907.35 1606.83 923.848 1623.29 944.2 1623.29Z" fill="black"/>
<path d="M1597.56 1623.29C1617.91 1623.29 1634.41 1606.83 1634.41 1586.53C1634.41 1566.23 1617.91 1549.77 1597.56 1549.77C1577.21 1549.77 1560.71 1566.23 1560.71 1586.53C1560.71 1606.83 1577.21 1623.29 1597.56 1623.29Z" fill="black"/>
<path d="M2144.87 1623.29C2165.22 1623.29 2181.72 1606.83 2181.72 1586.53C2181.72 1566.23 2165.22 1549.77 2144.87 1549.77C2124.52 1549.77 2108.02 1566.23 2108.02 1586.53C2108.02 1606.83 2124.52 1623.29 2144.87 1623.29Z" fill="black"/>
<path d="M2780.71 1623.29C2801.06 1623.29 2817.56 1606.83 2817.56 1586.53C2817.56 1566.23 2801.06 1549.77 2780.71 1549.77C2760.36 1549.77 2743.86 1566.23 2743.86 1586.53C2743.86 1606.83 2760.36 1623.29 2780.71 1623.29Z" fill="black"/>
<path d="M1253.64 1164.42C1273.99 1164.42 1290.49 1147.96 1290.49 1127.66C1290.49 1107.36 1273.99 1090.9 1253.64 1090.9C1233.29 1090.9 1216.79 1107.36 1216.79 1127.66C1216.79 1147.96 1233.29 1164.42 1253.64 1164.42Z" fill="black"/>
<path d="M1893.35 1165.63C1913.7 1165.63 1930.2 1149.17 1930.2 1128.87C1930.2 1108.57 1913.7 1092.11 1893.35 1092.11C1873 1092.11 1856.5 1108.57 1856.5 1128.87C1856.5 1149.17 1873 1165.63 1893.35 1165.63Z" fill="black"/>
<path d="M1893.35 714.661C1913.7 714.661 1930.2 698.203 1930.2 677.901C1930.2 657.599 1913.7 641.141 1893.35 641.141C1873 641.141 1856.5 657.599 1856.5 677.901C1856.5 698.203 1873 714.661 1893.35 714.661Z" fill="black"/>
<path d="M2437.01 714.661C2457.36 714.661 2473.86 698.203 2473.86 677.901C2473.86 657.599 2457.36 641.141 2437.01 641.141C2416.66 641.141 2400.16 657.599 2400.16 677.901C2400.16 698.203 2416.66 714.661 2437.01 714.661Z" fill="black"/>
<path d="M2437.01 1167.4C2457.36 1167.4 2473.86 1150.94 2473.86 1130.64C2473.86 1110.34 2457.36 1093.88 2437.01 1093.88C2416.66 1093.88 2400.16 1110.34 2400.16 1130.64C2400.16 1150.94 2416.66 1167.4 2437.01 1167.4Z" fill="black"/>
<path d="M1593.99 3213.95C2215.05 3213.95 2560.31 3213.95 2785.81 2988.45C3011.31 2762.95 3011.31 2417.69 3011.31 1796.63C3011.31 1175.57 3011.31 830.311 2785.81 604.811C2560.31 379.311 2215.05 379.311 1593.99 379.311C972.93 379.311 627.67 379.311 402.17 604.811C176.67 830.311 176.67 1175.57 176.67 1796.63C176.67 2417.69 176.67 2762.95 402.17 2988.45C627.67 3213.95 972.93 3213.95 1593.99 3213.95Z" stroke="black" stroke-width="9.07"/>
<path d="M1593.99 3388.92C2292.26 3388.92 2680.43 3388.92 2933.96 3135.39C3187.49 2881.86 3187.49 2493.68 3187.49 1795.42C3187.49 1097.16 3187.49 708.98 2933.96 455.45C2680.43 201.92 2292.25 201.92 1593.99 201.92C895.73 201.92 507.55 201.92 254.02 455.45C0.489716 708.98 0.489746 1097.16 0.489746 1795.42C0.489746 2493.68 0.489716 2881.86 254.02 3135.39C507.55 3388.92 895.73 3388.92 1593.99 3388.92Z" stroke="black" stroke-width="9.07"/>
</g>
<defs>
<clipPath id="clip0_2341_220">
<rect width="3187" height="3609" fill="white" transform="translate(0.899902 0.905273)"/>
</clipPath>
</defs>
</svg>
