<svg width="3188" height="3610" viewBox="0 0 3188 3610" fill="none" xmlns="http://www.w3.org/2000/svg">
<g clip-path="url(#clip0_2341_327)">
<path d="M2605.84 2943.96C2601.43 2937.39 2597.02 2930.83 2592.61 2924.26" stroke="black" stroke-width="9.07" stroke-linecap="round" stroke-linejoin="round"/>
<path d="M2246.58 2944.61C2256.37 2944.61 2266.15 2944.61 2275.94 2944.61" stroke="black" stroke-width="9.07" stroke-linecap="round" stroke-linejoin="round"/>
<path d="M2275.77 2923.62C2266.1 2923.62 2256.42 2923.62 2246.75 2923.62" stroke="black" stroke-width="9.07" stroke-linecap="round" stroke-linejoin="round"/>
<path d="M2557.41 2939.32H2534.06" stroke="black" stroke-width="9.07" stroke-miterlimit="10"/>
<path d="M2671.02 2965.17V2924.04" stroke="black" stroke-width="9.07" stroke-linecap="round" stroke-linejoin="round"/>
<path d="M2623.19 2965.08V2924.04" stroke="black" stroke-width="9.07" stroke-linecap="round" stroke-linejoin="round"/>
<path d="M2690.98 2965.17H2651.07" stroke="black" stroke-width="9.07" stroke-linecap="round" stroke-linejoin="round"/>
<path d="M2330.2 2965.17V2924.04" stroke="black" stroke-width="9.07" stroke-linecap="round" stroke-linejoin="round"/>
<path d="M2350.15 2965.17H2310.24" stroke="black" stroke-width="9.07" stroke-linecap="round" stroke-linejoin="round"/>
<path d="M2275.94 2964.66C2275.94 2950.98 2275.94 2937.3 2275.94 2923.62" stroke="black" stroke-width="9.07" stroke-linecap="round" stroke-linejoin="round"/>
<path d="M2275.94 2965.53C2266.27 2965.53 2256.59 2965.53 2246.92 2965.53" stroke="black" stroke-width="9.07" stroke-linecap="round" stroke-linejoin="round"/>
<path d="M2623.19 2965.08H2605.84C2599.78 2964.6 2595.32 2959.33 2595.75 2953.7C2596.14 2948.63 2600.41 2944.36 2605.84 2943.96C2611.12 2943.96 2616.4 2943.96 2621.68 2943.96" stroke="black" stroke-width="9.07" stroke-linejoin="round"/>
<path d="M2498.28 2924.01V2965.12C2497.5 2964.74 2496.35 2964.21 2494.96 2963.61C2488.01 2960.63 2479.82 2957.1 2469.86 2956.96C2456.87 2956.78 2447.32 2961.36 2443.25 2963.61C2442.09 2964.15 2440.93 2964.69 2439.76 2965.23C2439.76 2951.5 2439.76 2937.77 2439.76 2924.04" stroke="black" stroke-width="9.07" stroke-linecap="round" stroke-linejoin="round"/>
<path d="M2402.83 2944.03C2397.55 2944.03 2392.27 2944.03 2386.99 2944.03C2381.56 2944.42 2377.28 2948.7 2376.9 2953.77C2376.47 2959.4 2380.93 2964.67 2386.99 2965.15H2404.34C2404.34 2951.47 2404.34 2937.79 2404.34 2924.11" stroke="black" stroke-width="9.07" stroke-linecap="round" stroke-linejoin="round"/>
<path d="M2563.53 2924.04L2557.42 2940.18C2554.12 2948.54 2550.81 2956.91 2547.51 2965.27C2546.19 2965.27 2544.86 2965.27 2543.54 2965.27C2540.45 2957.15 2537.37 2949 2534.3 2940.82C2532.2 2935.22 2530.11 2929.63 2528.03 2924.05" stroke="black" stroke-width="9.07" stroke-linecap="round" stroke-linejoin="round"/>
<path d="M2180.61 2953.38C2183.19 2960.69 2189.94 2965.73 2197.61 2966.1C2205.53 2966.48 2212.92 2961.82 2216.04 2954.45C2216.91 2952.19 2218.09 2948.21 2217.76 2943.21C2217.53 2939.68 2216.63 2936.84 2215.84 2934.9C2212.52 2927.92 2205.29 2923.62 2197.61 2924.06C2189.78 2924.51 2182.99 2929.8 2180.61 2937.31" stroke="black" stroke-width="9.07" stroke-linecap="round" stroke-linejoin="round"/>
<path d="M612.05 695.02C616.46 701.59 620.87 708.15 625.28 714.72" stroke="black" stroke-width="9.07" stroke-linecap="round" stroke-linejoin="round"/>
<path d="M971.31 694.37H941.95" stroke="black" stroke-width="9.07" stroke-linecap="round" stroke-linejoin="round"/>
<path d="M942.12 715.36H971.14" stroke="black" stroke-width="9.07" stroke-linecap="round" stroke-linejoin="round"/>
<path d="M660.48 699.66H683.83" stroke="black" stroke-width="9.07" stroke-miterlimit="10"/>
<path d="M546.87 673.8V714.93" stroke="black" stroke-width="9.07" stroke-linecap="round" stroke-linejoin="round"/>
<path d="M594.7 673.9V714.94" stroke="black" stroke-width="9.07" stroke-linecap="round" stroke-linejoin="round"/>
<path d="M526.91 673.8H566.82" stroke="black" stroke-width="9.07" stroke-linecap="round" stroke-linejoin="round"/>
<path d="M887.69 673.8V714.93" stroke="black" stroke-width="9.07" stroke-linecap="round" stroke-linejoin="round"/>
<path d="M867.74 673.8H907.65" stroke="black" stroke-width="9.07" stroke-linecap="round" stroke-linejoin="round"/>
<path d="M941.95 674.32V715.36" stroke="black" stroke-width="9.07" stroke-linecap="round" stroke-linejoin="round"/>
<path d="M941.95 673.45H970.97" stroke="black" stroke-width="9.07" stroke-linecap="round" stroke-linejoin="round"/>
<path d="M594.7 673.9H612.05C618.11 674.38 622.57 679.65 622.14 685.28C621.75 690.35 617.48 694.62 612.05 695.02H596.21" stroke="black" stroke-width="9.07" stroke-linejoin="round"/>
<path d="M719.61 714.97V673.86C720.39 674.24 721.54 674.77 722.93 675.37C729.88 678.35 738.07 681.88 748.03 682.02C761.02 682.2 770.57 677.62 774.64 675.37C775.8 674.83 776.96 674.29 778.13 673.75V714.94" stroke="black" stroke-width="9.07" stroke-linecap="round" stroke-linejoin="round"/>
<path d="M815.06 694.95H830.9C836.33 694.56 840.61 690.28 840.99 685.21C841.42 679.58 836.96 674.31 830.9 673.83H813.55V714.87" stroke="black" stroke-width="9.07" stroke-linecap="round" stroke-linejoin="round"/>
<path d="M654.36 714.94L660.47 698.8C663.77 690.44 667.08 682.07 670.38 673.71C671.7 673.71 673.03 673.71 674.35 673.71C677.44 681.83 680.52 689.98 683.59 698.16C685.69 703.76 687.78 709.35 689.86 714.93" stroke="black" stroke-width="9.07" stroke-linecap="round" stroke-linejoin="round"/>
<path d="M1037.28 685.6C1034.7 678.29 1027.95 673.25 1020.28 672.88C1012.36 672.5 1004.97 677.16 1001.85 684.53C1000.98 686.79 999.799 690.77 1000.13 695.77C1000.36 699.3 1001.26 702.14 1002.05 704.08C1005.37 711.06 1012.6 715.36 1020.28 714.92C1028.11 714.47 1034.9 709.18 1037.28 701.67" stroke="black" stroke-width="9.07" stroke-linecap="round" stroke-linejoin="round"/>
<path d="M608.55 785.97C577.21 820.64 521.35 891.73 492.1 998.13C460.57 1112.84 476.35 1209.04 487.01 1255.05" stroke="black" stroke-width="9.07" stroke-miterlimit="10" stroke-linecap="round"/>
<path d="M2221.26 3008.83C2152.63 3109.08 2093.73 3140.97 2061.3 3152.95C2058.1 3154.13 2054.89 3155.22 2054.89 3155.22C2004.15 3172.38 1956.87 3169.14 1901.85 3164.87C1881.42 3163.28 1868.9 3162.31 1851.16 3159.34C1830.9 3155.94 1821.5 3152.9 1797.94 3150.06C1784.36 3148.42 1773.63 3147.76 1766.71 3147.35C1766.71 3147.35 1743.05 3145.93 1719.8 3146.4C1676.38 3147.27 1614.38 3161.77 1609.16 3162.98C1504.23 3187.34 1411.31 3168.5 1364.55 3150.33C1353.03 3145.85 1323.15 3133.2 1305.26 3104.63C1300.49 3097.02 1292.45 3083.78 1294.03 3067.35C1295.22 3054.99 1301.2 3053.71 1304.83 3038C1305.89 3033.39 1310.14 3014.99 1302.83 2996.51C1297.14 2982.12 1289.91 2981.49 1282.88 2965.53C1277.95 2954.33 1276.8 2943.98 1276.58 2937.17C1266.26 2916.14 1241.44 2872.94 1195.49 2848.92C1187.77 2844.89 1176.14 2838.81 1159.47 2834.7C1130.44 2827.56 1116.43 2833.85 1085.82 2827.62C1069.31 2824.26 1057.77 2819.25 1047.38 2814.73C1029.66 2807.04 990.62 2787.15 947.37 2732.44C922.1 2700.48 928.88 2698.99 892.21 2639.99C874.87 2612.09 819.87 2526.35 762.1 2505.21C746.67 2499.56 733.63 2499.47 730.64 2499.49C723.63 2499.53 699.04 2500.03 676.66 2518.39C673.01 2521.38 653.66 2537.78 647.88 2566.09C643.05 2589.71 650.49 2608.51 658.26 2628.38C671.06 2661.12 689.18 2682.62 699.08 2694.17C756.37 2760.95 785.01 2794.34 828.91 2826.4C860.09 2849.18 895.69 2875.17 949.01 2893.27C1034.48 2922.28 1121.35 2916.01 1165.25 2957.91C1169.34 2961.82 1179.6 2971.83 1185.58 2988.08C1195.83 3015.93 1186.28 3042.46 1182.12 3052.06C1179.15 3058.91 1172.65 3073.91 1158.64 3084.59C1121.11 3113.21 1059.05 3088.42 1027.42 3075.79C995.79 3063.15 978.88 3050.79 959.02 3038.87C854.65 2976.26 806.12 3008.76 730.61 2957.4C707.55 2941.72 683.21 2907.47 634.53 2838.99C561.79 2736.66 544.93 2681.19 538.8 2655.68C526.05 2602.61 529.06 2570.23 532.2 2552.76C538.43 2517.98 552.26 2491.6 562.55 2475.31" stroke="black" stroke-width="9.07" stroke-miterlimit="10" stroke-linecap="round"/>
<path d="M2590.9 1826.69C2615.57 1831.6 2645.52 1831.67 2676.42 1816.22C2676.6 1816.13 2677.13 1815.86 2677.85 1815.49C2683.43 1812.61 2736.3 1784.46 2746.1 1737.71C2750.57 1716.39 2745.84 1692.32 2747.93 1672.9C2749.15 1661.6 2752.62 1651.1 2752.62 1651.1C2752.62 1651.1 2753.34 1648.92 2754.17 1646.76C2771.13 1602.33 2810.29 1583.07 2810.29 1583.07C2840.13 1568.4 2874.4 1569.77 2900.33 1580.76C2954.96 1603.9 2970.07 1668.6 2979.65 1709.62C2985.25 1733.58 3001.4 1807.63 2962.97 1881.12C2950.97 1904.06 2933.63 1937.22 2894.48 1954.3C2869.62 1965.15 2823.73 1974.85 2795.13 1954.71C2786.72 1948.79 2774.55 1936.58 2750.02 1924.48C2743.73 1921.38 2739.28 1919.18 2732.95 1917.03C2699.1 1905.51 2667.95 1914.35 2653.12 1918.77C2641.02 1922.37 2632.66 1926.37 2623.39 1930.84C2584.22 1949.74 2575.01 1964.84 2553.94 1976.39C2505.06 2003.2 2445.71 1981.66 2435.15 1977.84C2410.76 1968.99 2371.27 1954.67 2360.79 1922.69C2343.51 1869.93 2426.96 1835.51 2430.64 1748.79C2432.55 1703.67 2412.82 1645.7 2372.89 1625.77C2332.21 1605.46 2303.39 1639.6 2238.82 1621.24C2195.45 1608.91 2169.39 1579.74 2161.75 1571C2116.45 1519.16 2119.55 1454.87 2120.26 1440.05C2122.52 1393.25 2140.97 1360.44 2155.27 1335.04C2166.41 1315.24 2191.25 1272.25 2242.13 1239.1C2256.18 1229.95 2285.12 1211.63 2327.15 1204.72C2356.01 1199.97 2417.53 1189.86 2449.66 1228.09C2470.14 1252.45 2475.95 1293.17 2459.38 1318.82C2450.61 1332.4 2437.44 1338.87 2418.88 1347.98C2415.12 1349.83 2384.12 1364.83 2357.59 1367.05C2353.51 1367.39 2339.74 1368.18 2323.34 1374.79C2316.52 1377.54 2277.98 1393.06 2267.43 1433.76C2266.58 1437.04 2256.73 1476.25 2280.75 1503.22C2292.69 1516.63 2307.8 1521.19 2316.71 1523.89C2338.17 1530.38 2344.46 1524.09 2378.55 1526.93C2401.55 1528.85 2414.95 1529.91 2429.67 1538.29C2445.7 1547.41 2454.23 1559.63 2465.97 1576.84C2482.75 1601.44 2485.67 1614.35 2494.02 1629.11C2514.57 1665.43 2561.16 1700.93 2602.95 1696.33C2637.34 1692.54 2660.07 1664.17 2677.55 1642.14C2715.79 1593.95 2704.19 1563.27 2745.51 1519.9C2757.33 1507.5 2772.43 1491.64 2797.33 1482.38C2846.01 1464.27 2875.16 1492.55 2903.65 1476.13C2935.76 1457.62 2935.12 1400.69 2934.67 1359.99C2933.71 1273.91 2907.51 1206.22 2890.88 1169.61C2867.51 1118.16 2817.73 1012.27 2704.31 941.15C2665.57 916.86 2595.98 873.23 2533.45 898.16C2525.59 901.29 2486.62 916.83 2476.65 954.96C2468.95 984.41 2481.75 1015.13 2500.46 1032.76C2528.66 1059.31 2566.27 1052.59 2595.26 1055.79C2723.39 1069.95 2844.1 1296.64 2792.45 1377.39C2771.49 1410.17 2740.08 1390.85 2683.7 1436.3C2613.56 1492.84 2620.4 1556.42 2577.22 1563.17C2537.58 1569.37 2486.11 1519.99 2477.53 1468.01C2476.07 1459.16 2473.28 1440.89 2481.12 1420.4C2502.48 1364.54 2570.96 1375.34 2609.18 1312.15C2609.5 1311.63 2609.9 1310.95 2610.37 1310.13C2623.28 1287.84 2627.12 1264.65 2627.44 1251.61C2628.3 1216.77 2606 1176.41 2572.38 1156.71C2545.72 1141.09 2514.92 1140.2 2494.71 1139.63C2475.15 1139.07 2465.96 1141.63 2443.07 1138.32C2430.06 1136.44 2413.72 1133.94 2394.83 1124.76C2390.04 1122.43 2369.86 1112.27 2350.65 1090.78C2328.54 1066.03 2319.7 1039.67 2315.96 1024.58C2309 990.33 2304.75 941.17 2332.75 909.5C2359.41 879.35 2391.11 892.44 2426.15 861.54C2462.27 829.69 2485.77 765.37 2462.11 709.54C2435.79 647.44 2367.09 633.52 2360.8 632.35C2360.8 632.35 2307.66 622.48 2248.78 654.91C2246.78 656.01 2244.96 657.11 2244.96 657.11C2237.8 661.45 2224.48 670.81 2211.04 688.85C2197.59 706.91 2166.89 755.59 2173.43 856.31C2178.22 930.07 2196.05 925.05 2210.67 1024.3C2226.21 1129.85 2211.05 1169.44 2203.92 1185.25C2186.07 1224.86 2158.84 1247.98 2145.03 1259.46C2136.21 1266.79 2059.28 1328.83 1969.42 1311.83C1962.45 1310.51 1941.67 1302.21 1900.11 1285.61C1822.53 1254.62 1812.08 1245.12 1780.7 1244.06C1745.17 1242.86 1710.77 1248.21 1710.77 1248.21C1695.72 1250.55 1677.5 1254.38 1655.48 1247.63C1654.73 1247.4 1643.78 1243.98 1634.88 1238.33C1593.96 1212.3 1593.46 1147.87 1593.46 1142.62C1593.5 1114.17 1602.01 1110.94 1597.45 1089.51C1592.68 1067.08 1579.46 1052.21 1563.93 1034.75C1540.58 1008.5 1526.42 1005.32 1509.34 977.07C1505.59 970.87 1501.43 963.99 1497.82 954.1C1493.53 942.35 1478.36 900.78 1501.91 866.73C1521.98 837.71 1560.7 827.86 1591.86 835.49C1596.64 836.66 1624.45 843.93 1641.24 869.32C1647.54 878.86 1650.96 888.93 1654.8 943.88C1657.95 989.01 1653.42 1000.43 1663.64 1020.58C1667.19 1027.58 1675.74 1043.89 1693.56 1052.61C1699.95 1055.73 1707.86 1058.05 1738.52 1056.69C1776.3 1055.02 1788.61 1050.43 1803.4 1051.55C1803.93 1051.59 1809.21 1052.26 1814.51 1053.37C1850.81 1060.95 1878.86 1088.17 1892.07 1102.85C1924.28 1138.66 1916.14 1153.2 1948.1 1180.05C1960.14 1190.17 1972.47 1200.25 1990.33 1201.94C2020.94 1204.83 2044.73 1180.45 2053.02 1173.2C2092.06 1139.06 2093.86 1084.14 2094.65 1041.86C2096.08 964.74 2073.12 964.12 2071.41 894.89C2069.68 825.11 2091.31 757.18 2109.74 699.28C2122.23 660.05 2132.82 636.09 2126.65 601.26C2125.2 593.05 2115.14 538.54 2070.88 520.83C2045.8 510.8 2022.63 517.73 2019.09 518.85C2005.36 523.18 1989.82 532.56 1969.28 562.43C1936.62 609.94 1926.89 657.54 1924.04 673.17C1910.77 746.06 1922.08 812.08 1924.45 825.17C1933.87 877.29 1948.12 901.54 1932.69 928.55C1921.94 947.38 1901.34 959.36 1881.75 962.51C1844.59 968.48 1816.22 941.27 1811.8 937.02C1774.43 901.17 1770.33 834.94 1794.31 791.02C1815.56 752.07 1841.72 762.12 1858.9 723.29C1879.85 675.97 1848.09 648.77 1871.34 604.6C1877.57 592.77 1889.59 575.06 1893.71 546.63C1894.36 542.14 1895.11 537 1895.02 530.3C1894.95 524.52 1893.78 482.39 1861.45 459.88C1831.47 439.01 1795.54 449.54 1792.2 450.57C1754.92 462.13 1753.26 493.34 1720.65 504.82C1695.46 513.69 1675.18 502.54 1633.43 486.62C1573.18 463.64 1508.77 445.99 1462.71 441.05C1426.97 437.21 1336.71 428.45 1279.97 486.09C1253.2 513.29 1243.17 545.88 1238.96 565.86C1235.48 580.31 1230.6 609.6 1241.29 642.98C1246.42 659.01 1259.11 701.63 1291.01 708.73C1292 708.95 1313.3 713.37 1327.28 700.64C1343.44 685.92 1338.86 658.24 1335.84 640.04C1328.92 598.27 1311.32 591.3 1314.16 575C1320.41 539.17 1417.81 501.73 1505.75 525.14C1591.74 548.03 1604.61 611.68 1680.87 612.7C1732.84 613.39 1757.3 583.9 1779.85 601.28C1805.68 621.19 1803.51 682.96 1775.86 716.91C1766.95 727.85 1756.78 734.19 1746.48 740.63C1736.17 747.07 1710.44 763.47 1675.76 762.99C1628.24 762.33 1620.49 743.88 1550.29 725.64C1492.06 710.51 1466.33 715.13 1455.67 717.59C1440.39 721.12 1412.72 727.5 1396.21 750.94C1377.37 777.67 1382.88 812.62 1386.46 835.29C1391.28 865.84 1400.85 874.44 1399.91 905.45C1399.25 927.34 1393.93 941.04 1391.76 946.14C1384.31 963.63 1373.73 974.5 1365.16 982.95C1344.63 1003.21 1334.29 1002.14 1304.66 1027.48C1293.03 1037.43 1287.21 1042.4 1282.93 1048.46C1268.68 1068.59 1259.43 1103.01 1275.03 1131.96C1285.37 1151.14 1306.77 1168.18 1331.45 1170.32C1380.15 1174.56 1398.38 1117.03 1447.67 1122.93C1467.5 1125.31 1487.27 1137.34 1497.13 1153.82C1505.96 1168.57 1503.61 1182.25 1504.43 1195.66C1507.55 1246.55 1540.68 1294 1567.42 1315.9C1592.02 1336.05 1613.42 1336.39 1665.3 1345.86C1726.25 1356.99 1794.03 1369.37 1843.89 1392.71C1963.99 1448.95 2008.6 1597.9 2013.51 1616.45C2044.01 1731.72 1933.43 1797.17 1961.17 1920.99C1965.66 1941.01 1976.07 1984.69 2010.48 2000.08C2027.62 2007.75 2052.14 2009.03 2070.81 1999C2140.03 1961.84 2073.31 1799.22 2142.99 1752.28C2181.98 1726.01 2252.7 1743.35 2273.09 1777.75C2291.62 1809.02 2260.14 1840.23 2263.5 1933.93C2264.57 1963.72 2265.13 1979.41 2273.15 1999.77C2299.26 2066.04 2368.77 2091.42 2380.86 2095.83C2380.86 2095.83 2440.15 2117.47 2496.88 2101.72C2498.87 2101.17 2500.82 2100.56 2500.82 2100.56C2500.82 2100.56 2515.03 2096.17 2528.29 2088.8C2546.08 2078.91 2554.34 2066.61 2573.67 2053.4C2586.44 2044.68 2597.02 2040.36 2608.63 2035.62C2667.6 2011.56 2723.19 2019.9 2730.87 2021.15C2762.68 2026.32 2787.01 2037.49 2801.53 2045.43C2812.02 2051.16 2889.39 2095 2911.58 2183.43C2920.39 2218.54 2917.76 2249.71 2916.3 2265.44C2915.19 2277.44 2912.36 2299.38 2901.68 2331.96C2888.88 2371.03 2870.04 2428.5 2820 2479.55C2799.77 2500.19 2763.68 2537 2706.82 2554.79C2684.71 2561.71 2631.78 2574.4 2614.77 2595.65C2600.08 2613.99 2594.7 2634.85 2594.7 2634.85C2594.7 2634.85 2594.16 2636.96 2593.71 2639.09C2593.1 2641.98 2614.63 2740.49 2615.62 2745.11C2619.98 2765.42 2618.54 2795.61 2591.51 2837.82" stroke="black" stroke-width="9.07" stroke-miterlimit="10" stroke-linecap="round"/>
<path d="M2106.88 3129.37C2132.07 3146.55 2170.38 3166.42 2213.7 3161.06C2272.01 3153.84 2283.97 3107.77 2342.06 3078.49C2430.58 3033.86 2478 3097.86 2588.45 3071.77C2689.6 3047.87 2794.9 2958.1 2800.27 2866.09C2805.34 2779.27 2718.61 2738.75 2740.95 2685.56C2766.65 2624.38 2886.65 2665.43 2957.58 2579.82C2988.79 2542.16 3011.41 2478.87 2989.39 2419.95C2968.12 2363.04 2915.61 2338.05 2901.69 2331.94" stroke="black" stroke-width="9.07" stroke-miterlimit="10" stroke-linecap="round"/>
<path d="M316.06 2161.37C300.58 2182.42 277.79 2218.22 263.21 2267.28C254.01 2298.25 226.03 2392.38 272.62 2482.41C279.69 2496.07 303.5 2542.08 353.53 2574.19C395.65 2601.22 421.53 2595.76 444.7 2624.58C466.95 2652.25 462.84 2680.75 466.74 2729.02C467.73 2741.27 475.98 2836 510.93 2907.46C515.39 2916.57 569.31 3019.15 676.33 3053.6C724.69 3069.17 730.47 3053.6 793.76 3069.97C871.43 3090.05 876.42 3117.02 949.75 3145.39C976.27 3155.65 1074.31 3192.92 1185.7 3162.74C1241.08 3147.74 1281.45 3122.25 1305.25 3104.62" stroke="black" stroke-width="9.07" stroke-miterlimit="10" stroke-linecap="round"/>
<path d="M2900.33 1580.76C2927.75 1583.62 2963.19 1582.57 2983.76 1560.38C3009.6 1532.51 2998.15 1486.21 2992.08 1443.94C2975.16 1326.13 3011.29 1317.93 3003.17 1208.29C3001.64 1187.62 2979.88 932.72 2834.06 870.06C2781.64 847.54 2720.56 853.03 2711.93 820.82C2706.29 799.77 2729.25 785.72 2741.58 750.74C2763.28 689.17 2730.17 624.89 2720.02 605.2C2654.34 477.73 2431.44 419.28 2318.43 492C2272.8 521.36 2247.08 570.83 2210.62 562.08C2181.39 555.06 2183.88 519.89 2140.54 486.61C2093.56 450.54 2037.75 451.28 2021.85 451.7C1951.2 453.59 1904.3 492.69 1891.25 504.37" stroke="black" stroke-width="9.07" stroke-miterlimit="10" stroke-linecap="round"/>
<path d="M1295.7 472.35C1232.47 499.54 1188.27 496.19 1159.24 487.7C1120.5 476.37 1112.94 457.11 1069.8 448.38C1063.87 447.18 1006.59 436.38 953.38 464.12C897.16 493.44 905.88 535.93 863.92 570.99C793.34 629.95 716.82 556.74 587.81 590.97C494.38 615.76 408.61 687.89 367.48 780.89C327.63 871.02 340.75 955.77 348.4 991.17C352.92 1001.86 367.98 1041.04 352.91 1086.77C342.7 1117.75 323.51 1136.99 313.71 1145.57C281.82 1175.2 194.97 1264.05 178.14 1403.29C175.21 1427.5 152.79 1640.11 301.48 1740.1C368.04 1784.86 439.97 1787.6 476.58 1786.15" stroke="black" stroke-width="9.07" stroke-miterlimit="10" stroke-linecap="round"/>
<path d="M1052.87 767.58C1078.68 797.35 1097.65 819.23 1109.14 849.54C1126 894.03 1118.48 936.01 1112.61 963.5C1093.1 1054.78 1028.38 1108.24 1011.16 1122.05C997.23 1133.22 892.75 1217.03 796.13 1181.22C784.97 1177.08 740.94 1160.76 729.75 1122.05C718.27 1082.36 744.74 1030.92 781.7 1013.81C819.27 996.42 857.18 1019.35 909.93 998.24C916.79 995.49 927.2 990.68 937.31 981.13C956.84 962.66 961.11 939.52 962.42 933.37C964.49 923.59 964.36 914.63 962.51 906.45C957.14 882.7 938.24 868.63 927.1 860.69C882.82 829.12 829.85 835.11 816.06 837.12C780.53 842.31 756.08 857.47 741.49 866.73C667.47 913.7 644.52 988.98 641.59 999.13C635.18 1021.36 621.96 1067.17 639.64 1118.75C660.34 1179.13 718.26 1233.05 780.72 1241.2C827.08 1247.25 897.19 1234.1 962.46 1226.47C968.84 1225.72 974.09 1226.21 980.03 1226.35C995.38 1226.69 1019.22 1228.88 1036.58 1244.73C1055.09 1261.63 1061.55 1290.54 1054.7 1313.58C1049.7 1330.39 1038 1342.85 1011.51 1360.01C967.33 1388.64 938.94 1393.5 871.59 1419.33C836.7 1432.71 802.2 1445.44 773.35 1471.44C752.42 1490.31 739.79 1509.8 735.72 1531.11C735.05 1534.6 728.89 1570.71 749.15 1601.26C761.46 1619.82 768.4 1626.21 779.48 1640.42C809.57 1679.02 819.57 1739.51 802.4 1789.69C797.63 1803.62 785.25 1832.91 752.76 1859.87C722.92 1887.38 688.31 1907.38 650.96 1921.91C637.47 1927.16 624.83 1933.39 613.12 1940.75C582.84 1959.77 561.86 1986.8 568.09 2024.17C574.6 2063.24 616.48 2095.05 658.34 2097.64C683.55 2099.2 710.06 2098.16 763.29 2087.56C791.22 2082 819.12 2075.12 874.94 2061.37C906.44 2053.61 932.92 2046.84 966.23 2051.54C985.96 2054.32 1000.71 2060.09 1005.56 2062.07C1028.6 2071.51 1043.65 2083.95 1048.4 2088.05C1065.54 2102.87 1087.68 2129.35 1098.35 2163.91C1102.87 2178.56 1107.27 2196.26 1123.06 2211.84C1125.97 2214.71 1129.58 2217.24 1134.26 2219.45C1187.15 2244.32 1242.58 2166.6 1285.65 2188.86C1331.45 2212.52 1332.28 2333.19 1290.51 2357.41C1266.44 2371.37 1238.88 2347.1 1215.96 2365.51C1195.26 2382.14 1197.44 2418.22 1202.17 2437.24C1215.06 2489.12 1269.89 2506.71 1272.42 2507.49C1277.07 2508.94 1317.62 2520.81 1356.24 2497.48C1388.13 2478.22 1399.46 2446.56 1402.39 2437.23C1416.5 2392.33 1396.61 2353.53 1387.78 2284.01C1386.83 2276.51 1385.46 2262.05 1385.41 2243.18C1385.39 2236.69 1385.73 2229.48 1386.65 2219.92C1388.63 2199.33 1392.63 2174.9 1388.84 2140.3C1387.09 2124.35 1384.34 2112.02 1376.45 2099.77C1364.27 2080.87 1346.46 2072.51 1340.47 2069.79C1311.34 2056.56 1285.11 2062.4 1254.58 2067.34C1209.73 2074.6 1166.88 2071.97 1139.74 2066.61C1067.28 2052.29 1018.13 2000.95 997.92 1979.84C974.48 1955.35 959.1 1931.75 949.72 1915.46C938.03 1886.84 924.68 1843.91 923.25 1790.81C921.31 1718.85 942.26 1665.01 956.39 1629.76C977.81 1576.32 1002.5 1539.67 1022.05 1514.58C1044.84 1485.32 1083.67 1439.37 1143.35 1388.74C1215.17 1327.82 1242.02 1323.9 1259.71 1324.84C1266.79 1325.22 1299.03 1327.1 1321.42 1350.3C1329.41 1358.58 1335.65 1368.85 1339.7 1381.07C1340.31 1382.92 1343.66 1394.16 1343.04 1406.39C1341.82 1430.32 1325.72 1449.02 1312.44 1461.64C1276.52 1495.78 1240.31 1505.34 1206.95 1523.59C1202.09 1526.25 1104.4 1581.45 1080.6 1680.95C1080.1 1683.03 1079.67 1685.06 1079.39 1686.36C1075.5 1704.47 1066.02 1750.45 1074.55 1802.28C1083.58 1857.15 1109.37 1897.72 1125.42 1919.17C1159.06 1964.18 1191.84 1979.44 1214.66 1985.34C1281.57 2002.63 1318 1953.62 1392.96 1974.04C1405.48 1977.45 1448.95 1990.14 1475.26 2029.68C1491.41 2053.95 1497.98 2084.64 1495.2 2122.26C1491.81 2168.17 1479.66 2211.3 1468.88 2254.88C1461.38 2285.23 1460.92 2312.76 1466.11 2338.04C1477.76 2394.78 1516.09 2432.37 1546.57 2461.13C1577.29 2490.12 1596.38 2509.55 1629.15 2521.97C1693.68 2546.41 1724.43 2513.14 1770.91 2540.32C1812.8 2564.82 1798.36 2598.01 1837.68 2621.39C1897.18 2656.78 1962.86 2600.15 1997.81 2631.28C2026.12 2656.49 2013.3 2720.44 1996.56 2757.43C1945.27 2870.79 1776.82 2926.46 1686.23 2879.34C1676.48 2874.27 1638.95 2853.86 1633.08 2819.26C1626.81 2782.3 1663.33 2767.74 1668.65 2722.76C1674.99 2669.19 1632.16 2614.08 1589.34 2588.27C1548.7 2563.78 1507.18 2564.55 1467.99 2565.36C1419.67 2566.36 1407.26 2577.72 1332.91 2582.87C1292.3 2585.69 1271.6 2586.98 1252.27 2581.22C1200.48 2565.81 1171.23 2522.95 1156.17 2500.88C1130.63 2463.46 1114.2 2425.99 1109.16 2387.93C1101.37 2329 1072.75 2280.18 1028.73 2241.29C963.4 2183.58 887.59 2177.73 804.99 2194.75C736.27 2208.91 666.07 2213.61 595.38 2213.85C513.43 2214.13 451.88 2148.26 434.55 2094.2C411.99 2023.85 441.31 1956.26 493.87 1912.26C526.78 1884.72 562.05 1860.83 598.81 1838.86C621.14 1825.51 639.71 1807.99 654.93 1786.6C699.45 1723.98 677.32 1667.76 644.31 1632.69C623.4 1610.48 600.09 1590.11 581.85 1565.9C539.97 1510.3 558.04 1454.53 623.3 1429.77C646.55 1420.95 673.13 1418.91 686.66 1391.61C707.57 1349.43 695.86 1316.49 651.52 1289.69C581.16 1247.15 503.21 1256.99 490.43 1259.12C437.13 1268 400.93 1292.15 391.78 1298.49C385.04 1303.16 272.95 1383.16 292.46 1480.18C301.93 1527.26 341.2 1556.24 347.57 1561.08C369.2 1577.52 376.68 1573.38 442.04 1601.54C503.74 1628.12 516.86 1640.35 525.84 1652.88C530.13 1658.87 549.26 1685.55 544.19 1715.42C538.42 1749.46 503.92 1766.77 476.53 1786.19C412.75 1831.4 349.77 1876.05 318.32 1947.07C284.25 2024.03 301.14 2100.79 306.9 2127.89C317.47 2177.6 337.91 2213.13 347.01 2227.71C367.42 2260.43 389.01 2281.19 396.88 2288.45C407.81 2298.54 432.67 2319.9 463.5 2334.37C526.65 2364.02 590.78 2353.44 637.11 2345.2C708.64 2332.48 715.52 2317.87 787.6 2307.06C863.59 2295.67 922.66 2318.91 970.1 2380.42C1007.75 2429.23 1032.89 2484.22 1060.22 2538.32C1109.39 2635.63 1174.03 2683.01 1312.17 2671.75C1355.11 2668.25 1397.89 2660.59 1441.51 2663.76C1483.54 2666.81 1522.3 2696.12 1528.74 2734.06C1532.19 2754.38 1524.72 2772.64 1514.89 2789.97C1495.94 2823.4 1499.34 2845.48 1498.96 2854.87C1496.75 2908.68 1587.13 2966.56 1663.68 2987.71C1760.46 3014.46 1844.07 2984.99 1886.44 2970.06C1951.53 2947.12 1993.42 2914.72 2007.29 2903.44C2032.68 2882.79 2066.13 2855 2091.18 2806.24C2115.42 2759.06 2118.56 2717.03 2120.39 2689.63C2123.74 2639.53 2130.36 2540.31 2076.62 2503.07C2033.6 2473.26 2001.24 2517.34 1920.28 2492.77C1872.59 2478.29 1840.21 2449.76 1786.47 2402.4C1742.43 2363.58 1720.41 2344.18 1704.97 2318.64C1624.15 2184.9 1719.98 2005.35 1727.46 1991.77C1738.44 1971.86 1749.35 1956.22 1757.45 1945.45C1772.34 1923.97 1825.88 1841.34 1811.6 1730.77C1810.31 1720.79 1786.6 1559.19 1639.06 1496.14C1519.18 1444.91 1410.1 1498.3 1395.58 1505.71C1317.7 1545.5 1279.77 1611.25 1267.62 1634.81C1258.81 1651.9 1246.34 1675.68 1241.15 1709.06C1226.57 1802.91 1277.84 1915.63 1343.11 1925.18C1369.02 1928.97 1400.06 1916.94 1415.04 1894.35C1434.96 1864.31 1420.41 1824.68 1416.07 1814.2C1390.75 1753.13 1326.34 1752.11 1318.49 1708.59C1313.06 1678.47 1338.8 1650.71 1355.15 1633.07C1428.24 1554.23 1581.03 1518.62 1640.12 1583.32C1663 1608.38 1676.37 1653.44 1669.24 1693.73C1666.44 1709.53 1661.23 1720.38 1653.15 1736.91C1618.55 1807.67 1587.76 1806.98 1580.78 1840.41C1568.64 1898.52 1655.45 1930.37 1644.58 2002.86C1641.5 2023.38 1628.84 2058.89 1626.86 2064.46C1623.1 2075.01 1616.41 2093.57 1605.18 2115.98C1598.42 2129.47 1590.47 2143.45 1586.35 2150.69C1580.49 2160.98 1576.07 2168.33 1575.41 2169.45C1531.05 2244.08 1551.27 2313.77 1551.27 2313.77C1564.13 2365.22 1611.04 2413.22 1672.38 2424.93C1729.76 2435.89 1774.94 2409.58 1786.45 2402.4" stroke="black" stroke-width="9.07" stroke-miterlimit="10" stroke-linecap="round"/>
<path d="M396.93 2288.44C391.96 2296.73 385.43 2309.72 381.98 2326.64C371.39 2378.52 399.37 2420.03 403.2 2425.59C437.15 2474.89 499.15 2489.18 543.36 2480.73C565.42 2476.51 564.53 2474.08 605.97 2450.96C679.82 2409.76 755.19 2398.52 833.21 2440.26C873.02 2461.56 903.58 2493.15 930.86 2527.92C971.87 2580.19 1004.68 2639.03 1053.62 2684.91C1102.44 2730.68 1159.05 2757.37 1228.28 2755.75C1259.64 2755.02 1290.94 2751.05 1323.18 2764.25C1350.11 2775.28 1366.15 2794.28 1371.33 2800.59C1405.78 2842.56 1389.3 2879.89 1411.44 2930.91C1428.88 2971.11 1458.41 2993.38 1488.79 3015.18C1557.44 3064.45 1628.84 3072.24 1690.8 3079C1728.48 3083.11 1777.3 3088.44 1841.02 3078.03C1866.48 3073.87 1977.1 3053.66 2082.68 2964.18C2104.66 2945.55 2146.15 2909.59 2182.7 2849.38C2253.6 2732.59 2266.01 2610.72 2206.73 2486.05C2167.56 2403.68 2103.05 2355.96 2007.98 2352.18C1953.31 2350.01 1911.35 2346.66 1860.79 2325.48C1852.82 2322.14 1835.83 2314.52 1822.25 2297.26C1817.19 2290.83 1801.87 2271.36 1805.7 2247.18C1807.55 2235.5 1813.23 2226.86 1815.6 2223.53C1835.11 2196.09 1863.07 2199.49 1888.84 2206.89C1912.08 2213.56 1932.96 2228.03 1955.58 2237.37C2022.92 2265.17 2093.04 2258.6 2161.63 2247.08C2226.11 2236.25 2268.97 2267.31 2304.54 2311.47C2370.46 2393.32 2357.42 2505.28 2354.07 2531.25C2348.3 2576.02 2336.9 2601.78 2325.46 2639.02C2313.77 2677.06 2307.92 2696.08 2306.88 2714.52C2305.35 2741.71 2302.58 2790.76 2337.73 2819.41C2363.82 2840.67 2404.76 2845.79 2435.22 2829.28C2479.42 2805.33 2481.4 2746.8 2482.11 2725.62C2482.68 2708.68 2479.99 2708.91 2468.92 2650.33C2452.09 2561.33 2454.6 2541.27 2459.76 2524.52C2468.11 2497.41 2483.18 2479.73 2489.32 2472.64C2509.65 2449.16 2537 2432.53 2570.6 2421.98C2609.48 2409.77 2649.81 2400.72 2686.34 2381.06C2736.05 2354.3 2770.61 2317.4 2777.39 2258.55C2780.36 2232.78 2773.94 2207.56 2759.78 2187.11C2757.38 2183.64 2745.02 2166.14 2721.21 2153.63C2682.75 2133.41 2643.5 2141.45 2630.06 2144.4C2615.73 2147.55 2605.01 2151.99 2596.29 2157.17C2586.56 2162.94 2578.29 2168.33 2571.02 2173.38C2545.11 2191.41 2533.05 2201.68 2521.74 2210.75C2490.15 2236.09 2423.77 2247.66 2368.2 2225.59C2364.53 2224.13 2304.24 2199.19 2277.49 2140.41C2264.83 2112.59 2268.7 2097 2250.74 2078.99C2230.75 2058.95 2198.85 2051.08 2171.8 2054.56C2114.16 2061.96 2112.53 2116.53 2056.67 2128.73C2000.88 2140.92 1947.37 2098.53 1932.51 2086.72C1920.37 2077.08 1895.52 2057.18 1882.09 2023.62C1863.37 1976.83 1877.95 1931 1884.07 1908.91C1910.19 1814.55 1920.16 1653.48 1855.63 1562.81C1809.24 1497.63 1721.44 1464.76 1721.29 1464.72C1670.43 1445.02 1616.87 1437.27 1563.98 1426.03C1493.45 1411.03 1445.3 1366.09 1421.6 1300.13C1402.18 1246.1 1377.19 1214.78 1298.18 1213.12C1275.53 1212.65 1253.82 1212.23 1231.47 1203.29C1160.12 1174.75 1138.48 1115.12 1186.73 1042.06C1202.58 1018.07 1223.88 997.72 1242.12 975.24C1252.09 962.95 1262.24 950.46 1269.95 936.73C1292.13 897.24 1291.81 864.36 1258.99 832.74C1245 819.26 1234.06 805 1225.6 790.01C1203.46 750.76 1213.49 723.37 1200.05 664.15C1193.84 636.79 1176.42 560.04 1120.44 539.54C1092.23 529.21 1054.24 536.66 1026.54 553.33C1016.96 559.1 1009.87 565.28 1005.18 569.88" stroke="black" stroke-width="9.07" stroke-miterlimit="10" stroke-linecap="round"/>
<path d="M1283.99 727.89C1304.34 727.89 1320.84 711.432 1320.84 691.13C1320.84 670.828 1304.34 654.37 1283.99 654.37C1263.64 654.37 1247.14 670.828 1247.14 691.13C1247.14 711.432 1263.64 727.89 1283.99 727.89Z" fill="black"/>
<path d="M741.65 1179.86C762.001 1179.86 778.5 1163.4 778.5 1143.1C778.5 1122.8 762.001 1106.34 741.65 1106.34C721.298 1106.34 704.8 1122.8 704.8 1143.1C704.8 1163.4 721.298 1179.86 741.65 1179.86Z" fill="black"/>
<path d="M444.53 1636.52C464.881 1636.52 481.38 1620.06 481.38 1599.76C481.38 1579.46 464.881 1563 444.53 1563C424.178 1563 407.68 1579.46 407.68 1599.76C407.68 1620.06 424.178 1636.52 444.53 1636.52Z" fill="black"/>
<path d="M444.53 2100.9C464.881 2100.9 481.38 2084.44 481.38 2064.14C481.38 2043.84 464.881 2027.38 444.53 2027.38C424.178 2027.38 407.68 2043.84 407.68 2064.14C407.68 2084.44 424.178 2100.9 444.53 2100.9Z" fill="black"/>
<path d="M986.86 2100.9C1007.21 2100.9 1023.71 2084.44 1023.71 2064.14C1023.71 2043.84 1007.21 2027.38 986.86 2027.38C966.508 2027.38 950.01 2043.84 950.01 2064.14C950.01 2084.44 966.508 2100.9 986.86 2100.9Z" fill="black"/>
<path d="M1626.57 2100.39C1646.92 2100.39 1663.42 2083.93 1663.42 2063.63C1663.42 2043.33 1646.92 2026.87 1626.57 2026.87C1606.22 2026.87 1589.72 2043.33 1589.72 2063.63C1589.72 2083.93 1606.22 2100.39 1626.57 2100.39Z" fill="black"/>
<path d="M2168.91 2101.47C2189.26 2101.47 2205.76 2085.01 2205.76 2064.71C2205.76 2044.41 2189.26 2027.95 2168.91 2027.95C2148.56 2027.95 2132.06 2044.41 2132.06 2064.71C2132.06 2085.01 2148.56 2101.47 2168.91 2101.47Z" fill="black"/>
<path d="M2811.06 2101.47C2831.41 2101.47 2847.91 2085.01 2847.91 2064.71C2847.91 2044.41 2831.41 2027.95 2811.06 2027.95C2790.71 2027.95 2774.21 2044.41 2774.21 2064.71C2774.21 2085.01 2790.71 2101.47 2811.06 2101.47Z" fill="black"/>
<path d="M2464.72 2555.93C2485.07 2555.93 2501.57 2539.47 2501.57 2519.17C2501.57 2498.87 2485.07 2482.41 2464.72 2482.41C2444.37 2482.41 2427.87 2498.87 2427.87 2519.17C2427.87 2539.47 2444.37 2555.93 2464.72 2555.93Z" fill="black"/>
<path d="M1922.38 2553.57C1942.73 2553.57 1959.23 2537.11 1959.23 2516.81C1959.23 2496.51 1942.73 2480.05 1922.38 2480.05C1902.03 2480.05 1885.53 2496.51 1885.53 2516.81C1885.53 2537.11 1902.03 2553.57 1922.38 2553.57Z" fill="black"/>
<path d="M1282.68 2555.6C1303.03 2555.6 1319.53 2539.14 1319.53 2518.84C1319.53 2498.54 1303.03 2482.08 1282.68 2482.08C1262.33 2482.08 1245.83 2498.54 1245.83 2518.84C1245.83 2539.14 1262.33 2555.6 1282.68 2555.6Z" fill="black"/>
<path d="M740.34 2553.57C760.692 2553.57 777.19 2537.11 777.19 2516.81C777.19 2496.51 760.692 2480.05 740.34 2480.05C719.988 2480.05 703.49 2496.51 703.49 2516.81C703.49 2537.11 719.988 2553.57 740.34 2553.57Z" fill="black"/>
<path d="M739.34 3006.11C759.692 3006.11 776.19 2989.65 776.19 2969.35C776.19 2949.05 759.692 2932.59 739.34 2932.59C718.988 2932.59 702.49 2949.05 702.49 2969.35C702.49 2989.65 718.988 3006.11 739.34 3006.11Z" fill="black"/>
<path d="M1282.24 3006.11C1302.59 3006.11 1319.09 2989.65 1319.09 2969.35C1319.09 2949.05 1302.59 2932.59 1282.24 2932.59C1261.89 2932.59 1245.39 2949.05 1245.39 2969.35C1245.39 2989.65 1261.89 3006.11 1282.24 3006.11Z" fill="black"/>
<path d="M1922.38 3006.11C1942.73 3006.11 1959.23 2989.65 1959.23 2969.35C1959.23 2949.05 1942.73 2932.59 1922.38 2932.59C1902.03 2932.59 1885.53 2949.05 1885.53 2969.35C1885.53 2989.65 1902.03 3006.11 1922.38 3006.11Z" fill="black"/>
<path d="M974.55 1636.52C994.901 1636.52 1011.4 1620.06 1011.4 1599.76C1011.4 1579.46 994.901 1563 974.55 1563C954.198 1563 937.7 1579.46 937.7 1599.76C937.7 1620.06 954.198 1636.52 974.55 1636.52Z" fill="black"/>
<path d="M1627.91 1636.52C1648.26 1636.52 1664.76 1620.06 1664.76 1599.76C1664.76 1579.46 1648.26 1563 1627.91 1563C1607.56 1563 1591.06 1579.46 1591.06 1599.76C1591.06 1620.06 1607.56 1636.52 1627.91 1636.52Z" fill="black"/>
<path d="M2175.22 1636.52C2195.57 1636.52 2212.07 1620.06 2212.07 1599.76C2212.07 1579.46 2195.57 1563 2175.22 1563C2154.87 1563 2138.37 1579.46 2138.37 1599.76C2138.37 1620.06 2154.87 1636.52 2175.22 1636.52Z" fill="black"/>
<path d="M2811.06 1636.52C2831.41 1636.52 2847.91 1620.06 2847.91 1599.76C2847.91 1579.46 2831.41 1563 2811.06 1563C2790.71 1563 2774.21 1579.46 2774.21 1599.76C2774.21 1620.06 2790.71 1636.52 2811.06 1636.52Z" fill="black"/>
<path d="M1283.99 1177.66C1304.34 1177.66 1320.84 1161.2 1320.84 1140.9C1320.84 1120.6 1304.34 1104.14 1283.99 1104.14C1263.64 1104.14 1247.14 1120.6 1247.14 1140.9C1247.14 1161.2 1263.64 1177.66 1283.99 1177.66Z" fill="black"/>
<path d="M1923.7 1178.86C1944.05 1178.86 1960.55 1162.4 1960.55 1142.1C1960.55 1121.8 1944.05 1105.34 1923.7 1105.34C1903.35 1105.34 1886.85 1121.8 1886.85 1142.1C1886.85 1162.4 1903.35 1178.86 1923.7 1178.86Z" fill="black"/>
<path d="M1923.7 727.89C1944.05 727.89 1960.55 711.432 1960.55 691.13C1960.55 670.828 1944.05 654.37 1923.7 654.37C1903.35 654.37 1886.85 670.828 1886.85 691.13C1886.85 711.432 1903.35 727.89 1923.7 727.89Z" fill="black"/>
<path d="M2467.36 727.89C2487.71 727.89 2504.21 711.432 2504.21 691.13C2504.21 670.828 2487.71 654.37 2467.36 654.37C2447.01 654.37 2430.51 670.828 2430.51 691.13C2430.51 711.432 2447.01 727.89 2467.36 727.89Z" fill="black"/>
<path d="M2467.36 1180.63C2487.71 1180.63 2504.21 1164.17 2504.21 1143.87C2504.21 1123.57 2487.71 1107.11 2467.36 1107.11C2447.01 1107.11 2430.51 1123.57 2430.51 1143.87C2430.51 1164.17 2447.01 1180.63 2467.36 1180.63Z" fill="black"/>
<path d="M1593.99 3213.95C2215.05 3213.95 2560.31 3213.95 2785.81 2988.45C3011.31 2762.95 3011.31 2417.69 3011.31 1796.63C3011.31 1175.57 3011.31 830.31 2785.81 604.81C2560.31 379.31 2215.05 379.31 1593.99 379.31C972.93 379.31 627.67 379.31 402.17 604.81C176.67 830.31 176.67 1175.57 176.67 1796.63C176.67 2417.69 176.67 2762.95 402.17 2988.45C627.67 3213.95 972.93 3213.95 1593.99 3213.95Z" stroke="black" stroke-width="9.07"/>
<path d="M1593.99 3388.92C2292.26 3388.92 2680.43 3388.92 2933.96 3135.39C3187.49 2881.86 3187.49 2493.68 3187.49 1795.42C3187.49 1097.16 3187.49 708.98 2933.96 455.45C2680.43 201.92 2292.25 201.92 1593.99 201.92C895.73 201.92 507.55 201.92 254.02 455.45C0.489716 708.98 0.489746 1097.16 0.489746 1795.42C0.489746 2493.68 0.489716 2881.86 254.02 3135.39C507.55 3388.92 895.73 3388.92 1593.99 3388.92Z" stroke="black" stroke-width="9.07"/>
</g>
<defs>
<clipPath id="clip0_2341_327">
<rect width="3187" height="3609" fill="white" transform="translate(0.899902 0.905029)"/>
</clipPath>
</defs>
</svg>
