<?xml version="1.0" standalone="no"?>
<!DOCTYPE svg PUBLIC "-//W3C//DTD SVG 20010904//EN"
 "http://www.w3.org/TR/2001/REC-SVG-20010904/DTD/svg10.dtd">
<svg version="1.0" xmlns="http://www.w3.org/2000/svg"
 width="277.000000pt" height="100.000000pt" viewBox="0 0 277.000000 100.000000"
 preserveAspectRatio="xMidYMid meet">

<g transform="translate(0.000000,100.000000) scale(0.100000,-0.100000)"
fill="#000000" stroke="none">
<path d="M1499 985 c-75 -24 -149 -120 -149 -193 0 -9 -10 -12 -27 -10 l-28 3
0 103 0 102 -32 0 -33 0 0 -240 0 -240 30 0 c33 0 31 -9 34 165 1 47 3 50 29
53 21 3 27 -1 27 -15 0 -70 52 -148 124 -186 61 -32 174 -31 236 3 131 73 161
283 56 398 -54 61 -176 86 -267 57z m158 -56 c69 -26 107 -93 105 -186 -1 -91
-43 -151 -122 -174 -159 -48 -283 121 -205 278 20 39 36 56 68 72 46 23 110
27 154 10z"/>
<path d="M2426 985 c-108 -38 -164 -133 -153 -257 13 -151 128 -243 281 -224
120 15 196 106 196 235 0 91 -15 136 -61 186 -64 69 -170 93 -263 60z m172
-66 c35 -18 49 -32 68 -73 81 -174 -65 -343 -232 -267 -87 39 -120 141 -83
257 28 90 149 130 247 83z"/>
<path d="M0 513 c0 -272 4 -473 9 -468 5 6 62 87 126 180 184 264 464 665 502
718 l35 47 -336 0 -336 0 0 -477z"/>
<path d="M810 749 l0 -241 139 4 c122 3 143 6 168 24 82 60 76 179 -12 226
-10 6 -66 14 -123 17 l-104 6 0 75 0 75 133 3 c132 3 154 8 142 39 -4 10 -42
13 -174 13 l-169 0 0 -241z m254 -33 c41 -17 48 -28 48 -73 0 -62 -27 -77
-137 -81 l-95 -4 -2 64 c0 34 -2 70 -3 78 -1 8 0 18 2 23 7 13 152 8 187 -7z"/>
<path d="M1880 749 l0 -240 33 3 32 3 3 108 3 107 98 0 c86 0 102 3 132 23 46
31 61 62 56 120 -5 57 -34 92 -86 107 -20 5 -89 10 -153 10 l-118 0 0 -241z
m281 162 c26 -32 24 -77 -6 -106 -22 -23 -32 -25 -118 -25 l-93 0 3 78 c1 42
2 79 3 80 0 2 43 2 96 0 86 -3 98 -5 115 -27z"/>
<path d="M482 644 c-117 -168 -215 -311 -219 -319 -5 -14 23 -15 215 -15 187
1 221 4 226 16 8 21 5 599 -3 612 -3 5 -102 -127 -219 -294z"/>
<path d="M1077 432 c-55 -77 -263 -375 -282 -404 l-17 -28 31 0 c26 0 37 9 73
60 l42 60 103 0 103 0 0 -60 0 -60 33 0 33 0 0 236 -1 236 -42 4 c-40 4 -43 2
-76 -44z m50 -259 c-3 -2 -40 -3 -84 -1 l-80 3 81 115 81 114 3 -113 c1 -63 1
-115 -1 -118z"/>
<path d="M1460 474 c-8 -3 -58 -66 -110 -141 -90 -129 -123 -189 -113 -205 2
-5 56 -8 119 -8 128 0 118 7 115 -83 -1 -36 0 -37 34 -37 l35 0 0 60 c0 53 2
60 20 60 15 0 20 7 20 25 0 18 -5 25 -20 25 -19 0 -20 7 -20 150 0 83 -3 150
-7 151 -5 0 -19 2 -33 4 -14 1 -32 1 -40 -1z m13 -181 c-1 -60 -3 -111 -3
-115 0 -5 -36 -8 -81 -8 -44 0 -79 4 -77 8 7 18 152 222 157 222 3 0 5 -48 4
-107z"/>
<path d="M202 243 c-11 -16 -54 -76 -96 -135 l-76 -108 341 0 340 0 -3 133 -3
132 -242 3 -241 2 -20 -27z"/>
</g>
</svg>
