<svg width="302" height="110" viewBox="0 0 302 110" fill="none" xmlns="http://www.w3.org/2000/svg">
<path d="M164.153 1.60409C155.94 4.23224 147.836 14.7449 147.836 22.7389C147.836 23.7244 146.741 24.0529 144.879 23.8339L141.813 23.5054V12.2262V1.05655H138.309H134.695V27.3381V53.6197H137.981C141.594 53.6197 141.375 54.6053 141.704 35.5511C141.813 30.4043 142.032 30.0758 144.879 29.7473C147.179 29.4188 147.836 29.8568 147.836 31.3899C147.836 39.0554 153.53 47.5969 161.415 51.7581C168.095 55.2623 180.469 55.1528 187.258 51.4296C201.604 43.4356 204.889 20.4392 193.391 7.84596C187.478 1.16606 174.118 -1.57161 164.153 1.60409ZM181.455 7.73646C189.011 10.5836 193.172 17.9206 192.953 28.1047C192.843 38.0698 188.244 44.6402 179.593 47.1588C162.181 52.4152 148.603 33.9085 157.144 16.716C159.334 12.4452 161.086 10.5836 164.591 8.83152C169.628 6.31287 176.636 5.87484 181.455 7.73646Z" fill="black"/>
<path d="M265.662 1.6034C253.835 5.76465 247.702 16.1678 248.907 29.7466C250.331 46.2821 262.924 56.3567 279.678 54.2761C292.819 52.6335 301.142 42.6684 301.142 28.542C301.142 18.5769 299.499 13.6491 294.462 8.1738C287.453 0.617838 275.846 -2.01032 265.662 1.6034ZM284.497 8.83083C288.329 10.802 289.863 12.335 291.943 16.8248C300.813 35.879 284.825 54.3856 266.538 46.0631C257.011 41.7923 253.397 30.6227 257.449 17.9199C260.515 8.06429 273.765 3.68402 284.497 8.83083Z" fill="black"/>
<path d="M0 53.2917C0 83.0775 0.438026 105.088 0.98556 104.541C1.53309 103.884 7.77497 95.0137 14.7834 84.8296C34.9326 55.9198 65.5945 12.0077 69.7557 6.20384L73.5884 1.05703H36.7942H0V53.2917Z" fill="black"/>
<path d="M88.7031 27.4487V53.8398L103.925 53.4018C117.284 53.0733 119.584 52.7448 122.322 50.7737C131.301 44.2033 130.644 31.172 121.008 26.0252C119.913 25.3681 113.78 24.4921 107.538 24.1635L96.1496 23.5065V15.2935V7.08052L110.714 6.752C125.169 6.42348 127.578 5.87594 126.264 2.48124C125.826 1.38617 121.665 1.05765 107.21 1.05765H88.7031V27.4487ZM116.518 31.0625C121.008 32.9241 121.774 34.1287 121.774 39.0564C121.774 45.8459 118.817 47.4885 106.772 47.9265L96.3686 48.3645L96.1496 41.3561C96.1496 37.6329 95.9306 33.6906 95.8211 32.8146C95.7115 31.9385 95.8211 30.8435 96.0401 30.2959C96.8066 28.8723 112.685 29.4199 116.518 31.0625Z" fill="black"/>
<path d="M205.867 27.4469V53.7285L209.481 53.4L212.985 53.0715L213.314 41.2448L213.642 29.5276H224.374C233.791 29.5276 235.543 29.199 238.829 27.0089C243.866 23.6142 245.509 20.2195 244.961 13.8681C244.414 7.62623 241.238 3.7935 235.543 2.1509C233.353 1.60336 225.797 1.05583 218.789 1.05583H205.867V27.4469ZM236.639 9.70685C239.486 13.2111 239.267 18.1389 235.982 21.3146C233.572 23.8332 232.477 24.0522 223.06 24.0522H212.876L213.204 15.5107C213.314 10.9114 213.423 6.85968 213.533 6.75017C213.533 6.53116 218.241 6.53116 224.045 6.75017C233.463 7.07869 234.777 7.29771 236.639 9.70685Z" fill="black"/>
<path d="M52.7812 38.9443C39.9689 57.3414 29.2373 73.0009 28.7993 73.8769C28.2517 75.41 31.3179 75.5195 52.3432 75.5195C72.8209 75.41 76.5441 75.0815 77.0917 73.7674C77.9677 71.4678 77.6392 8.17296 76.7632 6.74937C76.4346 6.20184 65.5935 20.6567 52.7812 38.9443Z" fill="black"/>
<path d="M117.938 62.1619C111.915 70.5939 89.1376 103.227 87.0569 106.403L85.1953 109.469H88.59C91.4372 109.469 92.6418 108.483 96.584 102.898L101.183 96.328H112.462H123.742V102.898V109.469H127.355H130.969V83.6252L130.86 57.7816L126.26 57.3436C121.88 56.9056 121.552 57.1246 117.938 62.1619ZM123.413 90.5241C123.085 90.7431 119.033 90.8526 114.215 90.6336L105.454 90.3051L114.324 77.7118L123.194 65.2281L123.523 77.6023C123.632 84.5012 123.632 90.1956 123.413 90.5241Z" fill="black"/>
<path d="M159.882 57.5626C159.006 57.8911 153.531 64.7901 147.836 73.003C137.981 87.1294 134.367 93.6998 135.462 95.4519C135.681 95.9994 141.594 96.328 148.493 96.328C162.51 96.328 161.415 95.5614 161.087 105.417C160.977 109.359 161.087 109.469 164.81 109.469H168.643V102.898C168.643 97.0945 168.862 96.328 170.833 96.328C172.475 96.328 173.023 95.5614 173.023 93.5903C173.023 91.6192 172.475 90.8526 170.833 90.8526C168.752 90.8526 168.643 90.0861 168.643 74.4266C168.643 65.3376 168.314 58.0006 167.876 57.8911C167.329 57.8911 165.795 57.6721 164.262 57.4531C162.729 57.3436 160.758 57.3436 159.882 57.5626ZM161.306 77.3833C161.196 83.9537 160.977 89.5385 160.977 89.9766C160.977 90.5241 157.035 90.8526 152.107 90.8526C147.289 90.8526 143.456 90.4146 143.675 89.9766C144.442 88.0055 160.32 65.6661 160.868 65.6661C161.196 65.6661 161.415 70.9224 161.306 77.3833Z" fill="black"/>
<path d="M22.1242 82.8586C20.9196 84.6107 16.2108 91.1811 11.6116 97.642L3.28906 109.469H40.6308H77.8631L77.5346 94.9044L77.206 80.4495L50.7054 80.121L24.3143 79.902L22.1242 82.8586Z" fill="black"/>
</svg>
