<?xml version="1.0" encoding="UTF-8"?> <svg xmlns="http://www.w3.org/2000/svg" width="152" height="41" viewBox="0 0 152 41" fill="none"><path d="M12.6853 0.865211C12.3703 1.48219 0.0372975 27.068 0.0207208 27.1467L0 27.2378L2.88848 27.2295L5.78111 27.2171L7.09481 24.3807L8.40851 21.5442L12.7474 21.5318L17.0864 21.5235L17.2439 21.8631C17.5008 22.4138 17.6707 22.7823 18.4291 24.4014C18.8228 25.2419 19.2496 26.1571 19.3781 26.4303C19.5024 26.7036 19.6392 26.9935 19.6806 27.0722L19.7552 27.2171L22.6686 27.2295C24.2682 27.2337 25.5778 27.2212 25.5778 27.2047C25.5778 27.184 25.5115 27.0308 25.4286 26.861C25.2587 26.5173 24.8608 25.6891 24.5003 24.9397C24.09 24.0867 23.7336 23.3496 23.427 22.7161C23.0374 21.9045 16.0462 7.41177 15.6111 6.51322C15.4246 6.12399 14.7242 4.67058 14.057 3.28342C13.3898 1.89212 12.8262 0.740987 12.8096 0.720284C12.793 0.703721 12.7392 0.765832 12.6853 0.865211ZM14.3595 13.8921L15.9094 17.4656H12.7682H9.62689L9.70149 17.2875C9.98329 16.6374 12.7433 10.3559 12.7599 10.331C12.7723 10.3103 12.7847 10.302 12.793 10.3103C12.8013 10.3186 13.5058 11.9294 14.3595 13.8921Z" fill="white"></path><path d="M138.753 1.57328C138.521 2.05775 137.725 3.70164 136.991 5.22959C136.254 6.75339 133.581 12.2979 131.045 17.5484C128.508 22.7989 126.428 27.126 126.416 27.1633C126.395 27.2337 126.552 27.2378 129.292 27.2378H132.188L133.51 24.3807L134.836 21.5235H139.167H143.502L144.832 24.3682L146.158 27.2171L149.092 27.2295C151.434 27.2378 152.018 27.2295 152.002 27.1881C151.989 27.1591 149.664 22.3351 146.834 16.4718C144.003 10.6084 141.616 5.66023 141.529 5.47803C141.442 5.29584 140.899 4.17783 140.328 2.99357C139.751 1.80931 139.275 0.80724 139.262 0.765832C139.25 0.728565 139.225 0.695439 139.209 0.695439C139.192 0.695439 138.989 1.09295 138.753 1.57328ZM140.763 13.8631C141.6 15.7886 142.292 17.3869 142.304 17.4117C142.321 17.4531 141.683 17.4656 139.188 17.4656C136.217 17.4656 136.051 17.4614 136.076 17.391C136.246 16.9438 139.192 10.3103 139.213 10.331C139.229 10.3517 139.926 11.9376 140.763 13.8631Z" fill="white"></path><path d="M28.3516 14.6705V27.2378H35.9561H43.5606V24.9811V22.7244H38.5255H33.4903V12.4138V2.1033H30.9209H28.3516V14.6705Z" fill="white"></path><path d="M41.4844 4.42214V6.74097H44.8619H48.2394L48.2476 16.977L48.2601 27.2171L50.8419 27.2295L53.4196 27.2378V16.9894V6.74097H56.8385H60.2574L60.2491 4.43042L60.2367 2.12401L50.8626 2.11159L41.4844 2.1033V4.42214Z" fill="white"></path><path d="M63.1859 2.15299C63.1734 2.18198 63.1693 7.83413 63.1734 14.712L63.1859 27.2171L71.2173 27.2295L79.2445 27.2378V25.0639V22.89H73.7162C70.0693 22.89 68.1837 22.8776 68.1713 22.8486C68.1671 22.8279 68.163 21.2792 68.1713 19.4117L68.1796 16.0163H73.3598H78.54L78.5317 13.8921L78.5193 11.772L73.3391 11.7513C70.492 11.7389 68.163 11.7182 68.1713 11.6975C68.1754 11.6809 68.1796 10.4925 68.1796 9.0598V6.45112H73.712H79.2445L79.2362 4.28549L79.2238 2.12401L71.2131 2.11159C64.827 2.1033 63.1983 2.11159 63.1859 2.15299Z" fill="white"></path><path d="M84.3516 14.6705V27.2378H86.9209H89.4903V22.6829V18.1281H90.6258H91.7613L94.0779 21.6974C95.3543 23.6643 96.6846 25.714 97.0368 26.2523L97.6709 27.2378H100.709C102.379 27.2378 103.746 27.2295 103.746 27.2171C103.746 27.2047 102.217 25.0225 100.344 22.3682C98.4749 19.7099 96.9581 17.5235 96.9788 17.507C96.9954 17.4904 97.1695 17.4159 97.3642 17.3413C99.8424 16.3807 101.546 14.4055 102.072 11.8838C102.437 10.124 102.221 8.13641 101.504 6.61675C100.51 4.51737 98.3961 2.96044 95.8102 2.418C94.4343 2.13229 93.7837 2.1033 88.6118 2.1033H84.3516V14.6705ZM93.6967 6.5919C94.7576 6.7948 95.6113 7.25028 96.1459 7.89625C96.4069 8.2068 96.7136 8.79479 96.8048 9.16332C97.041 10.0826 96.9623 11.1385 96.5934 11.9169C96.0381 13.0929 94.857 13.8217 93.2449 13.9832C92.9963 14.008 92.0473 14.0287 91.1397 14.0287H89.4903V10.2565V6.48424L91.4091 6.50495C92.9921 6.51737 93.39 6.53393 93.6967 6.5919Z" fill="white"></path><path d="M106.727 14.6705V27.2378H109.296H111.865V22.6829V18.1281H113.001H114.136L115.997 20.9935C117.021 22.5711 118.351 24.6208 118.952 25.5484L120.046 27.2378H123.084C124.754 27.2378 126.121 27.2295 126.121 27.2171C126.121 27.2047 124.592 25.0225 122.719 22.3682C120.85 19.7099 119.333 17.5235 119.354 17.507C119.37 17.4904 119.491 17.4366 119.615 17.391C120.261 17.155 121.09 16.7037 121.679 16.2689C122.997 15.2917 123.95 13.859 124.36 12.2441C124.837 10.3766 124.654 8.25235 123.879 6.61675C122.752 4.24822 120.377 2.68715 117.22 2.25237C116.345 2.12815 115.288 2.1033 111.007 2.1033H106.727V14.6705ZM116.072 6.5919C117.133 6.7948 117.986 7.25028 118.521 7.89625C119.375 8.91902 119.565 10.6499 118.968 11.9169C118.413 13.0929 117.232 13.8217 115.62 13.9832C115.371 14.008 114.422 14.0287 113.515 14.0287H111.865V10.2565V6.48424L113.784 6.50495C115.367 6.51737 115.765 6.53393 116.072 6.5919Z" fill="white"></path><path d="M0.0078125 35.0435V38.7495H0.359778H0.711744V35.0435V31.3375H0.359778H0.0078125V35.0435Z" fill="white"></path><path d="M19.484 32.8978V34.463L19.3679 34.3181C18.6758 33.4361 17.3746 33.1876 16.2639 33.7218C15.6216 34.0282 15.116 34.6783 14.942 35.4154C14.8383 35.8626 14.8756 36.6866 15.0165 37.0841C15.3771 38.0862 16.2349 38.7197 17.3166 38.7777C17.847 38.8067 18.162 38.7487 18.5971 38.5417C18.8706 38.4092 18.9908 38.3181 19.2312 38.0613L19.5254 37.7466V38.2477V38.7487H19.8569H20.1885V35.0427V31.3367H19.8362H19.484V32.8978ZM18.0542 34.1317C18.7463 34.3139 19.2394 34.8067 19.4218 35.4982C19.4549 35.6348 19.484 35.9123 19.484 36.1193C19.484 36.3263 19.4549 36.6038 19.4218 36.7404C19.169 37.6969 18.2573 38.2849 17.2461 38.1359C16.8275 38.0779 16.5209 37.9288 16.2142 37.6473C15.2155 36.7239 15.4475 34.8605 16.6411 34.2767C17.0638 34.0696 17.5984 34.0158 18.0542 34.1317Z" fill="white"></path><path d="M69.4609 35.0435V38.7495H69.8132H70.1654V37.3085C70.1654 36.5176 70.1862 35.7392 70.2069 35.5818C70.3436 34.6419 71.0026 34.0953 72.0096 34.0953C72.6478 34.0953 73.0664 34.2816 73.3192 34.6833C73.5719 35.0849 73.5802 35.1263 73.5968 37.0187L73.6092 38.7495H73.9615H74.3096V37.0766C74.3096 35.764 74.2972 35.3334 74.2474 35.0766C74.0527 34.0497 73.2777 33.4493 72.1546 33.4493C71.4253 33.4493 70.8658 33.6605 70.4307 34.0953L70.1654 34.3603V32.8489V31.3375H69.8132H69.4609V35.0435Z" fill="white"></path><path d="M76.2423 31.4746C76.1223 31.5947 76.1016 31.6444 76.1016 31.81C76.1016 31.984 76.1223 32.0254 76.2631 32.1661C76.3956 32.2987 76.4535 32.3276 76.5819 32.3276C76.7931 32.3276 77.0043 32.1951 77.0788 32.0171C77.1533 31.8349 77.1533 31.7728 77.0705 31.5989C76.9835 31.4208 76.8262 31.3339 76.5736 31.3339C76.4121 31.3339 76.3624 31.3546 76.2423 31.4746Z" fill="white"></path><path d="M117.898 35.0412V38.7472H118.251H118.603V38.2378V37.7327L118.715 37.8776C119.436 38.8176 120.791 39.066 121.931 38.4697C122.76 38.0349 123.244 37.1612 123.244 36.1012C123.244 35.2938 123.021 34.714 122.519 34.2089C122.018 33.7037 121.529 33.4967 120.779 33.4594C120.443 33.4428 120.248 33.4553 120.041 33.5049C119.548 33.6209 119.046 33.9232 118.789 34.2668L118.644 34.4532V32.8921V31.3352H118.271H117.898V35.0412ZM121.089 34.1343C121.968 34.3331 122.54 35.1116 122.54 36.1178C122.54 37.1902 121.881 37.9894 120.886 38.1343C119.867 38.2834 118.959 37.6995 118.707 36.7347C118.624 36.42 118.624 35.8114 118.707 35.5049C118.984 34.449 119.975 33.8776 121.089 34.1343Z" fill="white"></path><path d="M79.0657 32.3591C79.0491 32.3715 79.0367 32.6324 79.0367 32.9388V33.4896H78.5809H78.125V33.7794V34.0693H78.5809H79.0367V35.5682C79.0367 36.3964 79.0491 37.1997 79.0616 37.3612C79.1155 38.032 79.3268 38.3922 79.8117 38.6324C80.081 38.7649 80.1101 38.769 80.5908 38.769C81.0508 38.769 81.1088 38.7608 81.345 38.649C81.7138 38.4792 81.7263 38.4585 81.5854 38.1728L81.4735 37.9326L81.287 38.0361C81.0839 38.1479 80.6612 38.2018 80.3877 38.1521C80.1971 38.1148 79.9567 37.9078 79.8614 37.6924C79.791 37.5392 79.7827 37.3819 79.7827 35.796V34.0693H80.5701H81.3574V33.7794V33.4896H80.5701H79.7827V32.9098V32.3301H79.4387C79.2481 32.3301 79.0782 32.3426 79.0657 32.3591Z" fill="white"></path><path d="M94.6907 32.3591C94.6741 32.3715 94.6617 32.6324 94.6617 32.9388V33.4896H94.2059H93.75V33.7794V34.0693H94.2059H94.6617V35.6138C94.6617 37.2618 94.6949 37.7338 94.8399 38.0361C94.9601 38.2929 95.2005 38.5247 95.4864 38.6614C95.6978 38.7608 95.7641 38.769 96.2158 38.769C96.6758 38.769 96.7338 38.7608 96.97 38.649C97.3388 38.4792 97.3513 38.4585 97.2145 38.1769L97.0985 37.9367L96.8706 38.0527C96.6799 38.1479 96.5846 38.1686 96.336 38.1686C96.1702 38.1686 95.9837 38.1479 95.9174 38.1231C95.7516 38.061 95.5776 37.8871 95.4864 37.6924C95.416 37.5392 95.4077 37.3943 95.4077 35.796V34.0693H96.1951H96.9824V33.7794V33.4896H96.1951H95.4077V32.9098V32.3301H95.0637C94.8731 32.3301 94.7032 32.3426 94.6907 32.3591Z" fill="white"></path><path d="M3.84041 33.4964C3.49644 33.5627 3.01572 33.7366 2.75878 33.8898C2.37752 34.1175 2.37337 34.1258 2.48941 34.3329C2.68419 34.6931 2.66346 34.6848 2.9577 34.4944C3.33896 34.2459 3.79482 34.1051 4.28798 34.0803C4.95519 34.0472 5.33645 34.1672 5.63069 34.5026C5.84204 34.7428 5.93321 35.0285 5.93321 35.4426V35.7697H4.93032C4.26311 35.7739 3.81554 35.7904 3.60419 35.8277C2.995 35.9395 2.59301 36.2045 2.38166 36.631C2.27806 36.838 2.26562 36.9126 2.26562 37.2604C2.26562 37.6082 2.27806 37.6828 2.38166 37.8857C2.66346 38.4654 3.3141 38.7925 4.17194 38.7925C4.85987 38.7925 5.38204 38.5937 5.76744 38.1879L5.97465 37.9685V38.3618V38.7511H6.33105H6.68745L6.66673 36.8753C6.65015 34.8795 6.64601 34.8215 6.43051 34.3826C6.23159 33.9685 5.74672 33.6289 5.1914 33.5089C4.88888 33.4467 4.15951 33.4385 3.84041 33.4964ZM5.93321 36.7759V37.248L5.77573 37.4923C5.6887 37.6248 5.5478 37.7904 5.46492 37.8525C4.81014 38.3494 3.70365 38.366 3.21049 37.8898C2.79608 37.4881 2.88725 36.7469 3.38455 36.4819C3.6332 36.3494 3.9523 36.3163 4.95104 36.3122L5.93321 36.308V36.7759Z" fill="white"></path><path d="M10.6332 33.5073C10.1773 33.6108 9.68829 33.9048 9.43549 34.2278L9.29045 34.4141V33.9545V33.4907H8.93819H8.58594V36.1201V38.7495H8.95891H9.33189V37.1429C9.32774 35.6688 9.33603 35.5156 9.41063 35.2795C9.61369 34.6212 10.082 34.2278 10.8031 34.1118C11.578 33.9876 12.2411 34.2568 12.5187 34.8116C12.7135 35.2009 12.7301 35.3582 12.7301 37.1139V38.7495H13.0865H13.4388L13.4263 36.8944C13.4139 35.1181 13.4097 35.0311 13.3186 34.7744C13.1362 34.2278 12.6804 33.764 12.1458 33.5735C11.806 33.4576 11.0144 33.4203 10.6332 33.5073Z" fill="white"></path><path d="M23.0067 33.5123C22.4182 33.6448 21.9707 33.9678 21.7717 34.3943C21.6806 34.5847 21.664 34.6924 21.6599 34.9616C21.6599 35.417 21.7966 35.7028 22.1364 35.9512C22.4265 36.1665 22.7208 36.2618 23.6532 36.4481C24.0428 36.5268 24.4572 36.6303 24.5773 36.68C24.9669 36.8497 25.1327 37.1479 25.0374 37.504C24.9296 37.9139 24.5566 38.121 23.8687 38.1582C23.131 38.1996 22.4472 38.0299 21.8795 37.6572L21.7717 37.5868L21.6184 37.8642L21.4609 38.1417L21.5604 38.2245C21.7137 38.3528 22.2276 38.5806 22.584 38.6758C23.0191 38.7959 24.0925 38.8083 24.4945 38.6924C25.4269 38.4357 25.9076 37.7856 25.746 37.003C25.6507 36.5516 25.3399 36.2452 24.8136 36.0754C24.6395 36.0216 24.1795 35.9098 23.7858 35.8311C22.6627 35.5992 22.3727 35.4129 22.3727 34.9284C22.3727 34.357 22.8202 34.0713 23.7195 34.0671C24.2334 34.063 24.6229 34.1458 25.0042 34.3404C25.2073 34.444 25.2901 34.4688 25.3192 34.4315C25.3689 34.3736 25.5761 33.9595 25.5761 33.9264C25.5761 33.8767 25.0498 33.6572 24.7265 33.5703C24.2914 33.4543 23.3963 33.4253 23.0067 33.5123Z" fill="white"></path><path d="M28.6217 33.5117C28.0581 33.6359 27.6354 33.8719 27.2458 34.2901C26.7858 34.7829 26.5703 35.3667 26.5703 36.1203C26.5703 36.874 26.7858 37.4578 27.2458 37.9506C27.7431 38.4806 28.3316 38.7456 29.1065 38.7829C29.6246 38.8077 29.9437 38.7539 30.3747 38.5758C30.6772 38.4516 31.0667 38.141 31.2574 37.876L31.3402 37.7601L31.0916 37.5945C30.9548 37.4992 30.8347 37.4247 30.8222 37.4247C30.8098 37.4247 30.7145 37.5199 30.6067 37.6317C29.9437 38.3398 28.63 38.3398 27.8799 37.6317C27.1173 36.9112 27.0676 35.4785 27.7846 34.7042C28.1451 34.315 28.5512 34.1245 29.119 34.0831C29.724 34.0417 30.2545 34.2321 30.615 34.6172C30.7186 34.729 30.8305 34.8119 30.8595 34.7994C30.8885 34.7912 31.0087 34.7125 31.1247 34.6297C31.3693 34.4516 31.3693 34.4599 30.9921 34.0789C30.7393 33.8181 30.3125 33.5986 29.8981 33.5117C29.5541 33.4371 28.9532 33.4371 28.6217 33.5117Z" fill="white"></path><path d="M33.8873 33.4933C33.5433 33.5595 33.0626 33.7334 32.8057 33.8866C32.4244 34.1144 32.4202 34.1227 32.5363 34.3297C32.7311 34.6858 32.7103 34.6817 33.0046 34.4871C33.5806 34.1061 34.4923 33.9612 35.1181 34.1516C35.3709 34.2262 35.4538 34.2759 35.6278 34.4539C35.8889 34.7189 35.9801 34.9798 35.9801 35.4394V35.7666H34.9772C34.31 35.7707 33.8624 35.7873 33.6511 35.8245C33.0419 35.9363 32.6399 36.2013 32.4285 36.6278C32.3249 36.8349 32.3125 36.9094 32.3125 37.2572C32.3125 37.7044 32.3995 37.957 32.6357 38.2013C33.0087 38.5906 33.3941 38.7479 34.0738 38.7769C34.8612 38.81 35.3916 38.632 35.8143 38.1848L36.0215 37.9653V38.3587V38.7479H36.3779H36.7343L36.7136 36.8721C36.697 34.8721 36.6929 34.8142 36.4732 34.3835C36.2619 33.9612 35.7853 33.6216 35.2383 33.5057C34.9358 33.4436 34.2064 33.4353 33.8873 33.4933ZM35.9801 36.7769V37.2489L35.8143 37.4974C35.7231 37.634 35.5822 37.7955 35.5035 37.8535C34.7949 38.3959 33.5557 38.3463 33.1455 37.7624C32.93 37.456 32.9507 36.9632 33.1911 36.6734C33.448 36.3711 33.7422 36.3131 34.9979 36.309L35.9801 36.3049V36.7769Z" fill="white"></path><path d="M40.6717 33.5313C40.1703 33.6638 39.731 33.9536 39.4534 34.3346L39.3373 34.4961V33.9951V33.4899H38.9851H38.6328V37.0924V40.6948H38.9851H39.3373V39.2456V37.7921L39.6398 38.0944C40.1123 38.5747 40.6469 38.7901 41.3721 38.7901C42.8184 38.7901 43.8876 37.759 43.9664 36.2849C44.0575 34.6452 42.9427 33.4402 41.3514 33.4526C41.1193 33.4526 40.8582 33.4857 40.6717 33.5313ZM41.8031 34.1317C42.5408 34.3263 43.0505 34.8688 43.2163 35.6348C43.5271 37.1131 42.4413 38.347 41.0074 38.14C39.8429 37.9702 39.1343 36.8688 39.3995 35.6224C39.4326 35.465 39.5114 35.2331 39.5735 35.1048C39.7103 34.8191 40.1206 34.405 40.3941 34.2766C40.8209 34.0696 41.3555 34.0158 41.8031 34.1317Z" fill="white"></path><path d="M46.8173 33.5293C45.9014 33.757 45.2425 34.4278 44.9855 35.3968C44.8902 35.7612 44.8902 36.4858 44.9855 36.8419C45.172 37.5334 45.6113 38.0966 46.2329 38.4527C46.7924 38.7715 47.7 38.8833 48.3713 38.7135C48.8396 38.5976 49.196 38.4154 49.4778 38.1545L49.7099 37.9392L49.5027 37.7156L49.2955 37.492L49.0966 37.6659C48.2926 38.374 46.9167 38.3326 46.1583 37.5748C45.9014 37.314 45.7398 37.0117 45.661 36.6349L45.6072 36.3699L47.8243 36.3574L50.0414 36.3492L50.0207 35.9227C49.942 34.4692 48.8811 33.4423 47.4638 33.4548C47.269 33.4548 46.9789 33.4879 46.8173 33.5293ZM48.0937 34.1545C48.7194 34.3492 49.2333 34.962 49.3121 35.5997L49.3369 35.8109H47.4845H45.6362V35.6908C45.6362 35.463 45.8019 35.0324 45.9843 34.7881C46.1874 34.5106 46.5811 34.2208 46.8504 34.1545C46.9457 34.1297 47.0452 34.1007 47.0659 34.0924C47.2068 34.0427 47.8492 34.08 48.0937 34.1545Z" fill="white"></path><path d="M55.209 33.5089C54.7035 33.6165 54.1896 33.836 53.9326 34.0513L53.8042 34.159L53.9534 34.4033C54.0321 34.5399 54.1108 34.6517 54.1274 34.6517C54.144 34.6517 54.2227 34.602 54.3015 34.544C54.7117 34.2293 55.3748 34.0513 55.9923 34.0844C56.473 34.1093 56.7217 34.1921 56.962 34.4033C57.2231 34.6351 57.3309 34.9084 57.3557 35.3846L57.3723 35.7697H56.3818C54.9562 35.7697 54.5128 35.8608 54.1067 36.2335C53.8249 36.4902 53.7089 36.7552 53.684 37.161C53.6591 37.6455 53.7379 37.8939 54.0321 38.2086C54.4051 38.6144 54.8816 38.7925 55.582 38.7925C56.2782 38.7925 56.8336 38.5854 57.1941 38.1879L57.4054 37.956V38.3536V38.7511H57.737H58.0685V36.9167C58.0685 35.4467 58.0561 35.0368 58.0063 34.8256C57.8572 34.1962 57.4925 33.8028 56.8418 33.571C56.5269 33.4592 55.6193 33.426 55.209 33.5089ZM57.364 36.7469C57.364 37.2604 57.3267 37.3681 57.0242 37.6993C56.6388 38.1175 56.0089 38.3122 55.3789 38.2169C54.7117 38.1134 54.3844 37.7904 54.3802 37.2438C54.3802 36.9001 54.4962 36.6724 54.7449 36.5275C55.0474 36.3494 55.3044 36.3163 56.3818 36.3122L57.364 36.308V36.7469Z" fill="white"></path><path d="M62.0053 33.5114C61.4914 33.6232 61.0687 33.8965 60.8284 34.2733L60.7123 34.4597V33.9752V33.4907H60.3601H60.0078V36.1201V38.7495H60.3601H60.7123V37.3085C60.7165 36.2816 60.733 35.7806 60.7703 35.5528C60.9278 34.6791 61.5163 34.1657 62.3907 34.1408L62.6601 34.1325V33.793V33.4493L62.4653 33.4535C62.3534 33.4535 62.1503 33.4824 62.0053 33.5114Z" fill="white"></path><path d="M65.4049 33.5168C64.9532 33.6121 64.4725 33.8771 64.1368 34.2125C63.8135 34.5396 63.6685 34.7756 63.5069 35.2311C63.4116 35.5044 63.3991 35.6079 63.3991 36.1007C63.395 36.581 63.4074 36.7052 63.4944 36.9868C63.6188 37.3884 63.9006 37.8274 64.2114 38.1131C65.264 39.0737 67.1662 39.0116 67.9784 37.9888C68.1649 37.757 68.1608 37.7487 67.8458 37.5458L67.6386 37.4174L67.4024 37.6452C67.0294 37.9971 66.6026 38.171 66.1053 38.171C64.8081 38.171 63.942 37.14 64.1202 35.8025C64.2114 35.1152 64.5802 34.5686 65.1397 34.2953C65.9229 33.906 66.8968 34.0468 67.4231 34.6265L67.6262 34.846L67.8292 34.7052C67.9453 34.6265 68.0613 34.5479 68.0945 34.5313C68.1442 34.5023 68.1235 34.4526 67.9991 34.287C67.5101 33.6203 66.4244 33.2974 65.4049 33.5168Z" fill="white"></path><path d="M84.2027 33.5337C83.2786 33.7739 82.6279 34.4364 82.3793 35.397C82.2798 35.7656 82.2798 36.4488 82.3793 36.8298C82.5658 37.5834 83.0672 38.1879 83.78 38.5233C84.1696 38.7097 84.5591 38.7925 85.0481 38.7925C85.7692 38.7925 86.4281 38.5647 86.8633 38.1589L87.0912 37.9436L86.913 37.7283C86.8135 37.6124 86.7182 37.513 86.6975 37.513C86.6768 37.5088 86.5773 37.5834 86.4779 37.6786C85.7236 38.3701 84.298 38.3204 83.5521 37.5751C83.3076 37.3308 83.0755 36.8712 83.0382 36.5647L83.0133 36.3494H85.2222H87.431L87.4062 35.9229C87.3647 35.161 87.1036 34.5772 86.5898 34.0968C85.9888 33.542 85.0315 33.3142 84.2027 33.5337ZM85.475 34.1548C86.1256 34.3536 86.5773 34.8836 86.7058 35.5999L86.7431 35.8111H84.8865H83.0258V35.6869C83.0258 35.4923 83.1833 35.0741 83.3449 34.8256C83.7676 34.1921 84.6793 33.9064 85.475 34.1548Z" fill="white"></path><path d="M90.3774 33.5143C88.8275 33.8456 87.9572 35.4936 88.4959 37.0795C88.7363 37.7917 89.3414 38.3797 90.1163 38.6572C90.3857 38.7524 90.481 38.7648 91.0197 38.7648C91.687 38.769 91.8444 38.7358 92.3583 38.4667C92.6277 38.3259 93.096 37.8911 93.0918 37.7793C93.0877 37.7338 92.6691 37.4232 92.607 37.4232C92.5862 37.4232 92.5034 37.5019 92.4205 37.6013C92.2464 37.8124 91.8071 38.0567 91.4839 38.123C90.3608 38.359 89.3248 37.6924 89.1134 36.6033C89.043 36.2472 89.0803 35.651 89.1963 35.3197C89.5776 34.2265 90.9079 33.7421 91.9853 34.3093C92.1552 34.3963 92.3293 34.5288 92.4205 34.6365C92.5034 34.7358 92.5862 34.8145 92.6028 34.8145C92.6774 34.8145 93.0918 34.5081 93.0918 34.4584C93.0918 34.3466 92.5407 33.8414 92.292 33.7255C91.7367 33.4605 91.0197 33.3818 90.3774 33.5143Z" fill="white"></path><path d="M107.32 33.528C106.781 33.6646 106.342 33.9711 106.139 34.3562L106.06 34.5052L106.056 33.9959V33.4907H105.704H105.352V36.1201V38.7495H105.72H106.093L106.106 37.1015C106.122 35.5238 106.127 35.4493 106.214 35.2092C106.458 34.5466 106.993 34.174 107.734 34.1408L108.025 34.1284L108.037 33.7889L108.049 33.4493L107.83 33.4535C107.71 33.4535 107.482 33.4866 107.32 33.528Z" fill="white"></path><path d="M110.62 33.5306C110.168 33.6506 109.845 33.837 109.489 34.1931C108.975 34.7024 108.739 35.2987 108.734 36.0978C108.734 36.8929 108.966 37.485 109.489 38.0067C110.065 38.5823 110.711 38.8142 111.627 38.7769C112.365 38.7479 112.928 38.5326 113.322 38.131L113.517 37.9322L113.343 37.7293C113.247 37.6175 113.152 37.5181 113.131 37.514C113.111 37.5057 113.011 37.5761 112.908 37.6713C112.315 38.2179 111.213 38.3256 110.446 37.9156C109.957 37.6548 109.526 37.0585 109.464 36.5575L109.439 36.3463H111.644H113.844V36.0233C113.84 34.545 112.742 33.4395 111.279 33.4519C111.068 33.4519 110.798 33.485 110.62 33.5306ZM111.834 34.1268C112.539 34.3132 113.019 34.8763 113.156 35.6713L113.181 35.808H111.308H109.439L109.468 35.5885C109.551 34.9633 110.04 34.3711 110.649 34.1641C110.968 34.0564 111.507 34.0357 111.834 34.1268Z" fill="white"></path><path d="M133.454 33.5156C132.953 33.6232 132.518 33.9048 132.281 34.2733L132.165 34.4597V33.9752V33.4907H131.813H131.461V36.1201V38.7495H131.809H132.157L132.174 37.1636C132.19 35.6978 132.199 35.5611 132.277 35.3251C132.447 34.8116 132.721 34.4845 133.135 34.294C133.367 34.1905 133.873 34.0994 134.022 34.1408C134.109 34.1615 134.113 34.1533 134.113 33.8054V33.4493L133.918 33.4535C133.807 33.4535 133.599 33.4824 133.454 33.5156Z" fill="white"></path><path d="M136.772 33.5127C135.284 33.8356 134.434 35.5334 134.977 37.0862C135.234 37.8191 135.881 38.4278 136.656 38.6679C137.103 38.8087 137.837 38.8294 138.293 38.7135C138.761 38.5975 139.117 38.4153 139.395 38.1586L139.623 37.9433L139.42 37.7156L139.217 37.4878L139.051 37.6369C138.84 37.8274 138.583 37.9764 138.293 38.0717C137.974 38.1793 137.203 38.1793 136.884 38.0717C136.138 37.8191 135.678 37.2766 135.541 36.4857L135.52 36.3491L137.725 36.3408L139.93 36.3284L139.942 36.0841C139.963 35.7156 139.847 35.2187 139.656 34.8212C139.445 34.3947 139.026 33.9516 138.637 33.7487C138.106 33.4713 137.381 33.3802 136.772 33.5127ZM138.015 34.1545C138.363 34.2621 138.711 34.523 138.914 34.8294C139.076 35.0737 139.246 35.5209 139.246 35.7114V35.8108H137.381H135.52L135.541 35.6741C135.678 34.8874 136.2 34.2746 136.871 34.1172C137.17 34.0468 137.725 34.0675 138.015 34.1545Z" fill="white"></path><path d="M142.357 33.513C141.877 33.6082 141.301 33.8525 141.04 34.072L140.948 34.1465L141.098 34.3991C141.181 34.5399 141.255 34.6517 141.268 34.6517C141.276 34.6517 141.367 34.5937 141.471 34.5233C141.935 34.2045 142.523 34.0513 143.141 34.0844C143.621 34.1093 143.87 34.1921 144.11 34.4033C144.372 34.6351 144.479 34.9084 144.504 35.3846L144.521 35.7697H143.53C142.105 35.7697 141.661 35.8608 141.255 36.2335C140.973 36.4902 140.857 36.7552 140.832 37.161C140.808 37.6455 140.886 37.8939 141.181 38.2086C141.554 38.6144 142.03 38.7925 142.73 38.7925C143.427 38.7925 143.982 38.5854 144.343 38.1879L144.554 37.956V38.3536V38.7511H144.885H145.217V36.9167C145.217 35.4467 145.205 35.0368 145.155 34.8256C144.939 33.9188 144.218 33.4426 143.066 33.455C142.826 33.455 142.507 33.484 142.357 33.513ZM144.512 36.7511C144.512 37.1693 144.504 37.2107 144.392 37.4053C144.044 38.014 143.302 38.337 142.527 38.2169C141.856 38.1134 141.529 37.7946 141.529 37.2563C141.529 36.7676 141.773 36.4819 142.291 36.3701C142.457 36.3329 142.875 36.3122 143.53 36.3122L144.512 36.308V36.7511Z" fill="white"></path><path d="M76.2188 36.1201V38.7495H76.5914H76.9641V36.1201V33.4907H76.5914H76.2188V36.1201Z" fill="white"></path><path d="M98.5754 35.2604C98.5878 36.7387 98.6044 37.0741 98.6624 37.2728C98.9442 38.2666 99.6653 38.7883 100.768 38.7925C101.501 38.7925 101.998 38.5937 102.434 38.1258L102.707 37.8318V38.2914V38.7511H103.039H103.37V36.1217V33.4923H103.018H102.666V35.0451C102.666 36.689 102.649 36.867 102.467 37.2563C102.11 38.0099 101.074 38.366 100.179 38.0389C99.8767 37.9271 99.5617 37.6082 99.4291 37.277C99.3296 37.0368 99.3296 37.0161 99.3172 35.2604L99.3048 33.4923H98.9277H98.5547L98.5754 35.2604Z" fill="white"></path><path d="M124.673 35.2989C124.685 36.7979 124.698 37.1498 124.752 37.3279C124.955 37.9945 125.377 38.4459 126.011 38.6695C126.355 38.7896 127.114 38.8227 127.466 38.7357C127.963 38.6074 128.394 38.3341 128.647 37.9863L128.763 37.8248L128.767 38.1726C128.771 38.3631 128.771 38.5701 128.771 38.6322L128.767 38.7482H129.12H129.468V36.1188V33.4894H129.115H128.763V34.9883C128.763 36.6281 128.738 36.8765 128.527 37.2906C128.216 37.9034 127.458 38.2513 126.67 38.1312C126.045 38.0401 125.667 37.7337 125.477 37.1664C125.394 36.9221 125.39 36.7979 125.373 35.1954L125.357 33.4894H125.009H124.656L124.673 35.2989Z" fill="white"></path><path d="M147.099 35.2604C147.115 36.7428 147.128 37.0741 147.186 37.2811C147.459 38.2625 148.193 38.7883 149.291 38.7925C150.025 38.7925 150.522 38.5937 150.957 38.1258L151.231 37.8318V38.2914V38.7511H151.562H151.894V36.1217V33.4923H151.541H151.189V35.0451C151.189 36.7097 151.173 36.8794 150.982 37.2604C150.597 38.0264 149.589 38.366 148.703 38.0347C148.396 37.9229 148.085 37.6082 147.953 37.2811C147.853 37.0327 147.853 37.0202 147.841 35.2604L147.828 33.4923H147.451H147.078L147.099 35.2604Z" fill="white"></path></svg> 