<?xml version="1.0" encoding="UTF-8" standalone="no"?>
<!-- Created with Inkscape (http://www.inkscape.org/) -->

<svg
   xmlns:dc="http://purl.org/dc/elements/1.1/"
   xmlns:cc="http://creativecommons.org/ns#"
   xmlns:rdf="http://www.w3.org/1999/02/22-rdf-syntax-ns#"
   xmlns:svg="http://www.w3.org/2000/svg"
   xmlns="http://www.w3.org/2000/svg"
   xmlns:sodipodi="http://sodipodi.sourceforge.net/DTD/sodipodi-0.dtd"
   xmlns:inkscape="http://www.inkscape.org/namespaces/inkscape"
   width="1403.3298mm"
   height="274.44095mm"
   viewBox="0 0 4972.4286 972.42853"
   id="svg5522"
   version="1.1"
   inkscape:version="0.91 r13725"
   sodipodi:docname="Брусника.svg">
  <defs
     id="defs5524" />
  <sodipodi:namedview
     id="base"
     pagecolor="#ffffff"
     bordercolor="#666666"
     borderopacity="1.0"
     inkscape:pageopacity="0.0"
     inkscape:pageshadow="2"
     inkscape:zoom="0.175"
     inkscape:cx="1947.5808"
     inkscape:cy="59.460354"
     inkscape:document-units="px"
     inkscape:current-layer="layer1"
     showgrid="false"
     inkscape:window-width="1366"
     inkscape:window-height="705"
     inkscape:window-x="-4"
     inkscape:window-y="-4"
     inkscape:window-maximized="1"
     fit-margin-top="0"
     fit-margin-left="0"
     fit-margin-right="0"
     fit-margin-bottom="0" />
  <metadata
     id="metadata5527">
    <rdf:RDF>
      <cc:Work
         rdf:about="">
        <dc:format>image/svg+xml</dc:format>
        <dc:type
           rdf:resource="http://purl.org/dc/dcmitype/StillImage" />
        <dc:title />
      </cc:Work>
    </rdf:RDF>
  </metadata>
  <g
     inkscape:label="Layer 1"
     inkscape:groupmode="layer"
     id="layer1"
     transform="translate(3091.9287,376.70926)">
    <ellipse
       style="fill:#ef3d24;fill-opacity:1;stroke:#fdf5bb;stroke-width:2.08041191;stroke-miterlimit:4;stroke-dasharray:none;stroke-opacity:1"
       id="path3344"
       cx="-2616.147"
       cy="109.63897"
       rx="404.53101"
       ry="385.47299" />
    <ellipse
       style="fill:#ffffff;fill-opacity:1;stroke:#fdf5bb;stroke-width:1.31750166;stroke-miterlimit:4;stroke-dasharray:none;stroke-opacity:1"
       id="path3344-9"
       cx="-2616.147"
       cy="109.63897"
       rx="256.18497"
       ry="244.11575" />
    <circle
       style="fill:#ef3d24;fill-opacity:1;stroke:#fdf5bb;stroke-width:0.49095115;stroke-miterlimit:4;stroke-dasharray:none;stroke-opacity:1"
       id="path3344-9-9"
       cx="-2557.1238"
       cy="16.620464"
       r="93.188393" />
    <path
       inkscape:connector-curvature="0"
       id="path6078"
       d="m -504.83956,248.01511 c -47.0713,-2.8167 -75.7175,-6.958 -104,-15.0347 -50.6177,-14.455 -83.9948,-38.1062 -100.0313,-70.8827 -6.3399,-12.9579 -9.0863,-22.8411 -10.4933,-37.7613 -1.9821,-21.0176 1.5842,-41.102396 10.5185,-59.238696 23.7158,-48.1423 83.7609,-76.1648 180.0061,-84.0071 22.4605,-1.8302 73.9244,-2.1006 96.5777,-0.5075 87.635,6.1629 143.6629,28.5836006 168.3976,67.3877 3.6348,5.7024 8.9079,16.5831 8.3171,17.162 -0.4785,0.4688 -93.0127,18.5818 -93.2865,18.2603 -0.1384,-0.1625 -1.0319,-1.8286 -1.9857,-3.7026 -2.5783,-5.0658 -10.2559,-12.9126 -16.8001,-17.1705 -22.4398,-14.6 -62.8487,-20.9654 -124.2201,-19.5677 -74.884,1.7054 -114.6113,13.803 -131.6981,40.1039 -5.7761,8.891 -8.1868,17.865696 -8.2037,30.541496 -0.023,17.637 4.8268,29.4 16.8198,40.7921 15.2619,14.4974 38.8399,22.8295 78.582,27.77 17.1557,2.1326 75.665,3.0645 95.7485,1.5249 41.2049,-3.1587 67.467,-11.3401 81.5858,-25.4166 3.404,-3.3937 7.2278,-8.3079 8.4975,-10.9204 1.2697,-2.6125 2.5881,-4.75 2.9298,-4.75 0.9524,0 90.7017,17.241 91.0014,17.4815 0.727,0.5835 -5.5841,12.9715 -10.2733,20.1653 -24.1976,37.1225 -75.047,58.6761 -155.4897,65.9077 -15.6791,1.4096 -69.6941,2.6293 -82.5,1.8629 z m -1539.83314,-5.0841 c -0.3667,-0.3666 -0.6667,-58.6416 -0.6667,-129.5 l 0,-128.833296 198,0 198,0 0,29.9969 0,29.9969 -156.25,0.2531 -156.25,0.2531 0,19 0,19 129.5,0.5471 c 126.9631,0.5364 129.6763,0.5882 138.5,2.644 37.1153,8.6473 58.9842,28.550396 65.0773,59.227496 2.264,11.3983 1.5249,31.4381 -1.5516,42.0743 -6.8786,23.7805 -25.2673,41.4202 -51.5257,49.4267 -10.9552,3.3404 -16.994,4.4253 -31,5.5689 -13.4472,1.098 -330.7504,1.4277 -331.8333,0.3448 z m 320.4186,-60.0935 c 8.8719,-3.5903 12.9147,-9.5563 12.9147,-19.0585 0,-9.7364 -4.4973,-16.6624 -12.9342,-19.9189 -4.2668,-1.647 -12.1957,-1.7624 -121.0658,-1.7624 l -116.5,0 -0.2708,20.9281 c -0.208,16.0684 0.024,21.1192 1,21.7509 0.6989,0.4526 53.0208,0.7099 116.2708,0.5719 l 115,-0.2509 z m 151.9147,-68.7398 0,-129.499996 152.0394,0 c 99.7188,0 155.3811,0.3626 161.75,1.0537 44.4798,4.8268006 76.2926,23.1991006 91.6465,52.9271 14.6429,28.3512 13.5646,67.880896 -2.5813,94.635496 -12.3469,20.4595 -33.9945,35.4113 -62.0999,42.8919 -22.1683,5.9003 -20.4775,5.8258 -141.2109,6.2236 -77.0729,0.254 -111.3513,0.6935 -112.25,1.4393 -1.0047,0.8338 -1.2938,7.639 -1.2938,30.4513 l 0,29.3776 -43,0 -43,0 z m 301.4568,2.1258 c 12.3979,-3.7384 19.8489,-9.3755 23.6389,-17.884196 1.911,-4.2902 2.3366,-6.9659 2.3451,-14.7416 0.012,-11.0497 -2.0674,-16.9383 -8.2402,-23.3347 -4.6071,-4.7741 -9.2187,-7.1848 -19.0315,-9.9484 -7.5912,-2.138 -8.698,-2.1632 -108.902,-2.4827 -71.127,-0.2269 -101.8328,0 -103.25,0.7567 -1.9607,1.0493 -2.0171,2.009 -2.0171,34.3443 0,25.002396 0.3057,33.570496 1.2308,34.495596 0.9628,0.9628 23.7779,1.1612 104.75,0.911 96.1786,-0.2971 103.9416,-0.4472 109.476,-2.116 z m 230.5432,126.5682 c 0,-0.4433 14.8383,-16.9808 32.9741,-36.75 18.13554,-19.7692 32.98554,-36.6605 32.99984,-37.5363 0.022,-1.3717 -53.94314,-55.5698 -156.47394,-157.148296 l -27,-26.7492 51.7262,-0.01 51.7261,-0.01 65.03654,63.75 c 35.7701,35.0625 65.8874,63.888096 66.9273,64.056896 1.3972,0.2268 17.1065,-16.414396 60.18,-63.749996 l 58.2893,-64.0569 50.5102,0 50.5101,0 -3.5675,3.75 c -1.9622,2.0625006 -53.8481,59.1 -115.302,126.749996 -61.4539,67.65 -113.047,124.2375 -114.6512,125.75 l -2.9168,2.75 -50.4842,0 c -27.76614,0 -50.48404,-0.3627 -50.48404,-0.806 z m 830.99984,-128.694 0,-129.499996 43,0 43,0 0,46.4648 c 0,44.915 0.064,46.4994 1.9343,47.5 2.0951,1.1213 272.5822,1.5417 275.4839,0.4282 1.4113,-0.5415 1.5818,-5.6622 1.5818,-47.5 l 0,-46.893 43,0 43,0 0,129.510696 0,129.5108 -42.75,-0.2608 -42.75,-0.2607 -0.2595,-49.4469 c -0.1997,-38.0322 -0.5459,-49.6287 -1.5,-50.2347 -1.944,-1.2345 -273.4932,-1.0211 -275.8062,0.2168 -1.8724,1.002 -1.9343,2.619 -1.9343,50.5 l 0,49.4648 -43,0 -43,0 z m 522,0 0,-129.499996 42.9946,0 42.9946,0 0.2554,88.7364 c 0.2317,80.495796 0.4043,88.764996 1.8587,89.044996 0.8818,0.1698 61.075,-39.7615 133.7625,-88.736296 l 132.1592,-89.0451 43.9875,0 43.9875,0 0,129.499996 0,129.5 -43,0 -43,0 0,-88.3776 c 0,-77.887796 -0.1806,-88.527396 -1.5213,-89.640096 -1.2757,-1.0587 -3.3338,-0.053 -12.75,6.2296 -6.1758,4.1207 -66.0857,44.458796 -133.1332,89.640196 l -121.9046,82.1479 -43.3454,0 -43.3455,0 z m 509.6667,128.8333 c -0.3667,-0.3666 -0.6667,-58.6416 -0.6667,-129.5 l 0,-128.833296 43,0 43,0 0,53.3776 c 0,46.5722 0.1941,53.5386 1.5222,54.6408 1.2718,1.0555 4.8484,-0.4309 21.75,-9.0395 11.1253,-5.6665 59.3041,-30.2548 107.06416,-54.6408 l 86.8361,-44.3381 68.6639,0.074 68.6638,0.074 -119.5,59.6757 c -97.0186,48.449 -119.5,60.040196 -119.5,61.613296 0,1.542 25.0574,15.6312 122.7153,69 67.4934,36.8843 122.7309,67.3999 122.75,67.8124 0.019,0.4125 -32.8376,0.75 -73.015,0.75 -65.5043,0 -73.3802,-0.1681 -76.25,-1.6278 -1.7601,-0.8953 -49.1665,-26.7703 -105.3473,-57.5 -56.18106,-30.7291 -102.82046,-55.8716 -103.64316,-55.8716 -0.8228,0 -1.7692,0.7118 -2.103,1.5818 -0.3339,0.87 -0.607,26.745 -0.607,57.5 l 0,55.9182 -42.3333,0 c -23.2834,0 -42.6334,-0.3 -43,-0.6667 z m 456.52676,-1.1955 c 0.7187,-1.0242 47.8817,-59.2869 104.8067,-129.4727 l 103.5,-127.610396 46,0.023 46,0.023 103.9191,128.199896 c 57.1554,70.5099 104.1068,128.7665 104.3364,129.4591 0.3326,1.0035 -9.9033,1.2066 -50.4044,1 l -50.8217,-0.2592 -17.5735,-22.5 -17.5735,-22.5 -118.9412,-0.237 c -65.4177,-0.1304 -119.4308,0.095 -120.0291,0.5 -0.5984,0.4053 -8.4132,10.187 -17.3663,21.737 -8.9531,11.55 -16.987,21.5625 -17.8532,22.25 -1.2113,0.9615 -12.8546,1.25 -50.4404,1.25 -47.4614,0 -48.8281,-0.053 -47.5589,-1.8622 z m 323.5902,-104.2519 c 0.175,-0.9088 -14.7174,-21.0101 -34.0799,-45.999996 -28.2633,-36.4778 -34.8152,-44.3859 -36.7738,-44.3859 -1.9552,0 -8.5376,7.8971 -36.6565,43.9782 -18.8503,24.188096 -34.2733,44.700596 -34.2733,45.583396 0,0.8828 0.303,1.9081 0.6734,2.2784 0.3703,0.3704 32.2017,0.5579 70.7363,0.4167 63.5576,-0.2329 70.0919,-0.4066 70.3738,-1.8708 z"
       style="fill:#ef3d24;fill-opacity:1"
       sodipodi:nodetypes="ssssssssccsssscssscsscssscscccccccccssssssccscscscsccccsssssscsccccsssssscsssscscscccsssccccsscsccccccsccscccccccsccsccccccccscscccccccsccscccccscccsssscccssscscsscscsccscccscscccscscscccsssscsc" />
  </g>
</svg>
