<svg width="363" height="60" viewBox="0 0 363 60" fill="none" xmlns="http://www.w3.org/2000/svg">
<path d="M31.4568 59.044C48.2777 59.044 61.9137 46.0504 61.9137 30.022C61.9137 13.9936 48.2777 1 31.4568 1C14.636 1 1 13.9936 1 30.022C1 46.0504 14.636 59.044 31.4568 59.044Z" fill="#EF3D24" stroke="#FDF5BB" stroke-width="0.156633"/>
<path d="M31.4599 48.4012C42.1123 48.4012 50.7478 40.1725 50.7478 30.0219C50.7478 19.8713 42.1123 11.6426 31.4599 11.6426C20.8074 11.6426 12.1719 19.8713 12.1719 30.0219C12.1719 40.1725 20.8074 48.4012 31.4599 48.4012Z" fill="white" stroke="#FDF5BB" stroke-width="0.0991937"/>
<path d="M35.8989 30.0361C39.7738 30.0361 42.915 26.8949 42.915 23.02C42.915 19.1451 39.7738 16.0039 35.8989 16.0039C32.024 16.0039 28.8828 19.1451 28.8828 23.02C28.8828 26.8949 32.024 30.0361 35.8989 30.0361Z" fill="#EF3D24" stroke="#FDF5BB" stroke-width="0.0369634"/>
<path d="M190.421 40.4401C186.877 40.228 184.72 39.9163 182.591 39.3082C178.78 38.2199 176.267 36.4392 175.059 33.9715C174.582 32.9959 174.375 32.2518 174.269 31.1284C174.12 29.546 174.388 28.0339 175.061 26.6684C176.847 23.0438 181.367 20.934 188.614 20.3436C190.305 20.2058 194.179 20.1854 195.885 20.3054C202.483 20.7694 206.701 22.4574 208.563 25.3789C208.837 25.8083 209.234 26.6275 209.19 26.671C209.154 26.7063 202.187 28.07 202.166 28.0458C202.156 28.0336 202.088 27.9082 202.017 27.7671C201.823 27.3857 201.245 26.7949 200.752 26.4743C199.062 25.3751 196.02 24.8959 191.399 25.0011C185.761 25.1295 182.77 26.0403 181.484 28.0205C181.049 28.6899 180.868 29.3656 180.866 30.3199C180.865 31.6478 181.23 32.5334 182.133 33.3911C183.282 34.4826 185.057 35.11 188.049 35.4819C189.341 35.6425 193.746 35.7126 195.258 35.5967C198.36 35.3589 200.337 34.7429 201.4 33.6831C201.657 33.4276 201.945 33.0576 202.04 32.8609C202.136 32.6642 202.235 32.5033 202.261 32.5033C202.332 32.5033 209.09 33.8014 209.112 33.8195C209.167 33.8634 208.692 34.7961 208.339 35.3377C206.517 38.1326 202.688 39.7554 196.632 40.2999C195.451 40.406 191.385 40.4978 190.421 40.4401ZM74.4877 40.0573C74.4601 40.0297 74.4375 35.6423 74.4375 30.3074V20.6076H89.3448H104.252V22.8661V25.1245L92.4881 25.1436L80.7242 25.1626V26.5931V28.0236L90.4741 28.0648C100.033 28.1052 100.237 28.1091 100.902 28.2639C103.696 28.9149 105.343 30.4134 105.801 32.7231C105.972 33.5812 105.916 35.09 105.684 35.8908C105.167 37.6812 103.782 39.0093 101.805 39.6121C100.98 39.8636 100.526 39.9453 99.4712 40.0314C98.4588 40.114 74.5692 40.1389 74.4877 40.0573ZM98.6118 35.5329C99.2797 35.2626 99.5841 34.8135 99.5841 34.098C99.5841 33.365 99.2455 32.8435 98.6103 32.5984C98.2891 32.4744 97.6921 32.4657 89.4954 32.4657H80.7242L80.7038 34.0413C80.6881 35.2511 80.7056 35.6314 80.779 35.6789C80.8317 35.713 84.771 35.7324 89.533 35.722L98.1913 35.7031L98.6118 35.5329ZM110.049 30.3576V20.6076H121.496C129.004 20.6076 133.195 20.6349 133.674 20.6869C137.023 21.0503 139.418 22.4336 140.574 24.6718C141.677 26.8063 141.596 29.7825 140.38 31.7968C139.45 33.3372 137.821 34.4629 135.704 35.0261C134.035 35.4704 134.163 35.4647 125.073 35.4947C119.27 35.5138 116.689 35.5469 116.622 35.6031C116.546 35.6658 116.524 36.1782 116.524 37.8957V40.1075H113.287H110.049V30.3576ZM132.746 30.5176C133.679 30.2362 134.24 29.8117 134.526 29.1711C134.669 28.8481 134.701 28.6467 134.702 28.0612C134.703 27.2293 134.546 26.786 134.082 26.3044C133.735 25.945 133.388 25.7635 132.649 25.5554C132.077 25.3944 131.994 25.3925 124.45 25.3685C119.095 25.3514 116.783 25.3685 116.676 25.4254C116.528 25.5044 116.524 25.5767 116.524 28.0112C116.524 29.8936 116.547 30.5387 116.617 30.6083C116.689 30.6808 118.407 30.6958 124.503 30.6769C131.745 30.6546 132.329 30.6433 132.746 30.5176ZM150.103 40.0468C150.103 40.0135 151.22 38.7684 152.586 37.28C153.951 35.7916 155.069 34.5198 155.07 34.4539C155.072 34.3506 151.009 30.2701 143.29 22.6223L141.257 20.6084L145.151 20.6076L149.046 20.6069L153.942 25.4066C156.635 28.0464 158.903 30.2167 158.981 30.2294C159.086 30.2464 160.269 28.9935 163.512 25.4297L167.9 20.6069H171.703H175.506L175.238 20.8892C175.09 21.0445 171.183 25.3388 166.557 30.4321C161.93 35.5254 158.045 39.7859 157.925 39.8997L157.705 40.1068H153.904C151.814 40.1068 150.103 40.0795 150.103 40.0461V40.0468ZM212.669 30.3576V20.6076H215.906H219.143V24.1059C219.143 27.4875 219.148 27.6068 219.289 27.6822C219.447 27.7666 239.812 27.7982 240.03 27.7144C240.136 27.6736 240.149 27.2881 240.149 24.1381V20.6076H243.387H246.624V30.3584V40.1092L243.405 40.0895L240.187 40.0699L240.167 36.3471C240.152 33.4836 240.126 32.6106 240.054 32.5649C239.908 32.472 219.463 32.4881 219.289 32.5813C219.148 32.6567 219.143 32.7784 219.143 36.3834V40.1075H215.906H212.669V30.3576ZM251.97 30.3576V20.6076H255.207H258.444L258.463 27.2885C258.48 33.349 258.493 33.9716 258.603 33.9926C258.669 34.0054 263.201 30.999 268.674 27.3118L278.624 20.6076H281.936H285.247V30.3576V40.1075H282.01H278.773V33.4536C278.773 27.5895 278.759 26.7885 278.658 26.7047C278.562 26.625 278.407 26.7007 277.698 27.1737C277.233 27.484 272.723 30.521 267.675 33.9227L258.496 40.1075H255.233H251.97V30.3576ZM290.342 40.0573C290.314 40.0297 290.292 35.6423 290.292 30.3074V20.6076H293.529H296.767V24.6264C296.767 28.1328 296.781 28.6573 296.881 28.7402C296.977 28.8197 297.246 28.7078 298.519 28.0597C299.356 27.633 302.984 25.7818 306.58 23.9458L313.117 20.6076L318.287 20.6132L323.457 20.6188L314.46 25.1117C307.155 28.7594 305.463 29.6321 305.463 29.7505C305.463 29.8666 307.349 30.9274 314.702 34.9455C319.783 37.7225 323.942 40.02 323.944 40.051C323.945 40.0821 321.471 40.1075 318.446 40.1075C313.514 40.1075 312.922 40.0948 312.705 39.9849C312.573 39.9175 309.004 37.9694 304.774 35.6558C300.544 33.3422 297.033 31.4493 296.971 31.4493C296.909 31.4493 296.838 31.5029 296.812 31.5684C296.787 31.6339 296.767 33.582 296.767 35.8975V40.1075H293.579C291.826 40.1075 290.37 40.0849 290.342 40.0573ZM324.714 39.9673C324.768 39.8902 328.319 35.5037 332.604 30.2194L340.397 20.6117L343.86 20.6135L347.323 20.6152L355.147 30.2673C359.451 35.5759 362.986 39.962 363.003 40.0142C363.028 40.0897 362.257 40.105 359.208 40.0894L355.382 40.0699L354.059 38.3759L352.735 36.6819L343.78 36.6641C338.855 36.6542 334.789 36.6712 334.744 36.7017C334.698 36.7322 334.11 37.4687 333.436 38.3383C332.762 39.2079 332.157 39.9617 332.092 40.0135C332.001 40.0858 331.124 40.1076 328.294 40.1076C324.721 40.1076 324.618 40.1035 324.714 39.9673ZM349.076 32.1183C349.09 32.0499 347.968 30.5364 346.511 28.655C344.383 25.9086 343.889 25.3132 343.742 25.3132C343.595 25.3132 343.099 25.9078 340.982 28.6243C339.563 30.4454 338.402 31.9898 338.402 32.0562C338.402 32.1227 338.424 32.1999 338.452 32.2278C338.48 32.2556 340.877 32.2698 343.778 32.2591C348.563 32.2416 349.055 32.2285 349.076 32.1183Z" fill="#EF3D24"/>
</svg>
