<svg width="320" height="104" viewBox="0 0 320 104" fill="none" xmlns="http://www.w3.org/2000/svg">
<path fill-rule="evenodd" clip-rule="evenodd" d="M248.261 0.0861661C248.167 0.179822 248.091 2.61814 248.091 5.5051V10.7535H245.464C242.378 10.7535 242.338 10.8067 242.338 14.8518V17.6566L245.185 17.9359L248.032 18.2148L248.164 31.7634C248.314 47.1879 248.372 47.4816 251.72 49.8029C253.499 51.0368 253.506 51.0376 260.247 51.175L266.992 51.3124V47.5965V43.8805H263.987C261.227 43.8805 260.892 43.7865 259.872 42.7268L258.762 41.5731L258.87 29.7418L258.98 17.9106L262.986 17.7936L266.992 17.6766V14.2151V10.7535H262.883H258.774V5.62861C258.774 1.89343 258.635 0.456698 258.261 0.330325C257.561 0.0947546 248.474 -0.127319 248.261 0.0861661ZM40.786 9.61285C28.4693 11.0668 16.0348 18.659 8.44113 29.3619C1.94216 38.5225 -0.90093 49.7497 0.24962 61.7131C1.28306 72.4606 6.01511 82.2065 14.1298 90.2993C18.8799 95.0369 26.0774 99.4906 32.1569 101.455C35.4713 102.525 44.2261 104.189 44.5976 103.818C44.7611 103.656 44.8951 82.3447 44.8947 56.461C44.8947 14.9377 44.822 9.39241 44.2783 9.33638C43.9397 9.30162 42.368 9.42595 40.786 9.61285ZM131.912 10.5662C128.432 11.4986 125.624 13.1456 122.96 15.8162C119.203 19.5825 117.552 23.5552 117.16 29.7709C116.576 39.0276 120.673 46.7548 128.056 50.3215C130.986 51.737 131.48 51.8441 135.767 51.9897C142.705 52.2261 146.905 50.9849 150.844 47.5339C152.822 45.8007 156.047 40.1265 156.047 38.3778C156.047 37.4993 155.899 37.4666 151.629 37.3974C149.2 37.3582 147.018 37.4666 146.781 37.6383C146.545 37.8101 145.843 38.8256 145.221 39.8955C143.24 43.31 139.401 44.8817 135.125 44.0306C133.222 43.6519 130.03 40.5997 128.885 38.0645C128.035 36.1812 127.91 35.279 127.907 30.9978C127.905 26.4447 127.988 25.9204 129.06 23.7434C132.766 16.2109 141.73 16.0448 145.571 23.4371L146.206 24.6587H150.975H155.744L155.524 23.0297C154.785 17.5413 149.384 12.3011 142.675 10.5617C139.707 9.79239 134.79 9.79444 131.912 10.5662ZM175.154 10.201C170.276 11.2119 168.02 12.3395 164.782 15.3831C160.65 19.2696 158.512 24.5924 158.512 30.9978C158.512 39.4157 162.398 46.408 169.002 49.8704C172.471 51.6895 175.282 52.202 180.593 51.9844C184.715 51.8151 185.364 51.6744 188.204 50.3321C191.854 48.6067 195.727 45.0093 197.336 41.8496C197.913 40.7171 198.243 39.7793 198.069 39.765C197.896 39.7511 195.578 39.7331 192.918 39.7249L188.081 39.7102L186.48 41.1502C183.906 43.4646 183.023 43.8863 180.206 44.1484C175.453 44.5901 172.126 42.7293 170.085 38.4866C169.402 37.067 168.725 35.4912 168.581 34.9853L168.318 34.0651H183.55H198.781V32.2783C198.781 28.8981 197.556 23.3765 196.2 20.6503C192.805 13.8196 186.371 9.85987 178.869 9.98297C177.277 10.0091 175.606 10.1069 175.154 10.201ZM221.792 10.3179C219.849 10.9085 217.358 12.3636 215.821 13.8065C214.974 14.6015 214.153 15.2522 213.996 15.2522C213.84 15.2522 213.796 14.24 213.899 13.0029L214.087 10.7535H208.9H203.712V30.9978V51.2421H208.81H213.908L214.06 38.0526C214.206 25.4374 214.252 24.783 215.12 23.0228C216.959 19.2945 218.358 18.3727 222.223 18.342C224.429 18.3244 225.258 18.4974 226.154 19.1628C229.317 21.5124 229.6 23.1258 229.6 38.824V51.2421H234.759H239.917L239.792 35.5988L239.667 19.9554L238.481 17.4006C236.18 12.4417 231.915 9.90486 225.988 9.97071C224.246 9.98993 222.357 10.1462 221.792 10.3179ZM271.923 30.9855V51.2421H277.249H282.574L282.555 38.8706C282.543 30.4702 282.688 26.1052 283.01 25.2721C284.245 22.0739 287.071 20.591 291.955 20.5779L295.345 20.5689L295.339 16.1724C295.335 13.7541 295.169 11.5183 294.969 11.2034C294.696 10.7743 294.053 10.693 292.407 10.8782C288.332 11.3371 287.114 11.9105 284.553 14.5774L282.138 17.0926L282.236 14.0253L282.335 10.958L277.129 10.8435L271.923 10.7289V30.9855ZM65.598 11.9207C60.8647 13.4699 56.3509 16.826 53.6007 20.8409C50.4058 25.5044 49.1554 33.5204 50.7921 38.8448C54.5474 51.0609 67.2285 57.9411 78.8639 54.0751C84.5147 52.1975 89.1239 48.2312 91.7985 42.9444C96.2055 34.2352 94.7423 24.873 87.8575 17.7294C85.6139 15.4011 84.3758 14.514 81.4234 13.1186C77.8325 11.4218 77.6809 11.389 72.837 11.2782C68.9223 11.1886 67.4303 11.3211 65.598 11.9207ZM183.578 18.6659C185.774 19.7595 188.098 23.1986 188.098 25.3564V26.7035H178.441C167.738 26.7035 168.2 26.8422 169.395 23.9961C170.255 21.948 172.347 19.4328 173.823 18.6733C175.442 17.8402 178.465 17.3184 180.29 17.5572C181.081 17.6607 182.561 18.1596 183.578 18.6659ZM301.065 51.5488C301.046 51.7173 301.051 53.972 301.075 56.5588C301.099 59.1456 300.97 61.482 300.789 61.7511C300.607 62.0223 299.273 62.2959 297.8 62.3646L295.14 62.4889V65.9652V69.4415H298.016H300.893L300.916 82.9377C300.932 92.4423 301.084 96.775 301.43 97.5864C302.402 99.8689 303.99 101.475 305.923 102.13C308.401 102.971 318.194 103.025 319.281 102.204C320.032 101.636 320.251 100.486 319.652 100.251C319.461 100.176 319.425 99.0563 319.571 97.7631L319.838 95.4115H316.806C313.998 95.4115 313.683 95.3223 312.566 94.2095L311.358 93.008L311.467 81.2245L311.576 69.4415L315.788 69.325L320 69.2084V65.7464V62.2845H315.685H311.371V56.7633V51.2421H306.234C303.409 51.2421 301.083 51.3803 301.065 51.5488ZM71.2961 60.1169L50.8533 60.2473V82.1235C50.8533 100.743 50.94 104 51.4364 104C52.7102 104 62.2894 101.941 64.415 101.21C77.6188 96.6707 88.8568 85.1936 93.5194 71.4864C94.7283 67.9332 96.2372 60.6952 95.8497 60.3095C95.5407 60.002 92.728 59.9799 71.2961 60.1169ZM271.562 61.6824C261.139 63.5453 256.094 71.6017 260.58 79.2206C262.756 82.9165 265.027 83.9708 276.033 86.3969C280.865 87.4618 282.98 88.5841 283.978 90.6134C284.713 92.1058 284.712 92.1826 283.957 93.4685C282.365 96.1832 275.956 97.1697 272.328 95.259C270.391 94.239 268.636 92.1393 268.636 90.842C268.636 89.7186 267.325 89.4601 262.369 89.6073L257.95 89.7386L258.199 90.8367C259.102 94.8275 262.391 99.2739 265.965 101.335C267.846 102.42 273.98 104 276.311 104C280.72 104 286.64 102.09 289.673 99.6882C292.824 97.1922 294.286 94.2819 294.271 90.532C294.247 84.2514 290.549 81.2315 279.731 78.6562C276.68 77.9298 273.498 77.1646 272.661 76.9565C269.452 76.1569 267.688 73.5027 268.862 71.2423C269.688 69.6534 271.8 68.8281 275.04 68.8281C278.717 68.8281 280.969 69.9 282.893 72.5653L284.328 74.5537H288.809C293.901 74.5537 293.825 74.6224 292.631 71.1359C291.732 68.5111 288.408 64.9804 285.422 63.4807C281.461 61.4902 276.348 60.8269 271.562 61.6824ZM155.43 62.008C152.993 62.8124 151.992 63.4275 149.806 65.4634L147.828 67.3042V64.7943V62.2845H142.692H137.556V82.541V102.798L142.669 102.683L147.782 102.569L147.933 89.8903C148.079 77.5638 148.111 77.1446 149.086 74.7721C150.485 71.3662 152.731 69.8411 156.29 69.8808C159.347 69.9147 161.364 71.0075 162.475 73.2311C163.165 74.613 163.249 76.0898 163.36 88.7779L163.483 102.797L168.702 102.683L173.921 102.569L173.906 88.2544C173.888 71.8169 173.721 70.5241 171.116 66.6985C168.708 63.1601 166.101 61.8742 160.858 61.6366C158.375 61.5242 156.509 61.6518 155.43 62.008ZM230.024 62.0939C223.14 64.0189 217.963 69.3221 215.994 76.4653C214.45 82.0621 215.378 89.573 218.173 94.1236C219.651 96.5276 222.996 99.8338 225.25 101.117C227.737 102.532 232.967 104 235.523 104C237.95 104 242.499 103.026 244.943 101.983C247.944 100.703 251.215 97.9369 253.03 95.1457C255.523 91.3107 255.533 91.3217 249.692 91.3217H244.719L242.748 93.0848C239.726 95.789 236.694 96.4159 232.556 95.1931C229.225 94.2083 226.18 90.5962 225.84 87.2263L225.696 85.8006L240.489 85.5961L255.282 85.3916L255.216 81.7108C255.069 73.4552 250.853 66.5394 243.887 63.1261C241.396 61.9057 240.719 61.7638 236.703 61.6223C233.55 61.5107 231.622 61.6469 230.024 62.0939ZM119.818 81.7108C119.78 92.3953 119.734 101.459 119.715 101.853C119.685 102.493 120.233 102.58 124.92 102.683L130.159 102.798V82.541V62.2845H125.023H119.886L119.818 81.7108ZM176.622 65.6585C177.313 67.514 178.875 71.7931 180.096 75.1672C181.316 78.5412 184.064 86.0869 186.203 91.9352L190.092 102.569L195.404 102.682C199.34 102.767 200.822 102.661 201.127 102.273C201.352 101.986 202.69 98.5299 204.099 94.5936C205.508 90.6572 207.496 85.136 208.517 82.3243C209.537 79.5126 211.26 74.7275 212.346 71.6909C213.431 68.6543 214.614 65.4855 214.974 64.6491C215.334 63.8128 215.629 62.9388 215.629 62.7065C215.629 62.4395 213.774 62.2845 210.571 62.2845H205.514L201.55 74.656C199.37 81.4601 197.267 88.0859 196.876 89.3791C196.485 90.6723 196.028 91.7307 195.859 91.7307C195.69 91.7307 195.247 90.6723 194.874 89.3791C194.502 88.0859 193.303 84.2669 192.211 80.8929C191.119 77.5188 189.477 72.3199 188.56 69.3397C187.644 66.3595 186.696 63.5527 186.454 63.1028C186.049 62.3491 185.594 62.2845 180.691 62.2845H175.368L176.622 65.6585ZM237.777 69.2665C241.718 70.1078 244.771 73.4303 244.794 76.9053L244.803 78.2345H235.377C229.609 78.2345 225.852 78.0775 225.699 77.8304C225.304 77.1949 227.041 73.6712 228.491 72.1674C229.944 70.6586 231.629 69.6644 233.503 69.2105C235.282 68.7794 235.508 68.7823 237.777 69.2665Z" fill="black"/>
</svg>
