<svg width="196" height="97" viewBox="0 0 196 97" fill="none" xmlns="http://www.w3.org/2000/svg">
<path d="M4.69141 1H191.309C193.332 1.00025 195 2.66813 195 4.69141V91.7676C195 93.7909 193.332 95.4587 191.309 95.459H4.69141C2.6681 95.4587 1.00021 93.7909 1 91.7676V4.69141L1.00488 4.50293C1.10479 2.56558 2.73131 1.00024 4.69141 1ZM36.8447 11.4199C35.5783 11.42 34.4648 12.444 34.4648 13.7998V26.4492C34.4649 27.7156 35.489 28.829 36.8447 28.8291H46.8262C56.7573 28.8291 64.3108 34.6215 66.2256 43.4463V43.4473C67.4504 49.1777 66.0521 55.1249 62.2871 59.7656V59.7676C58.3813 64.5949 52.6398 67.3534 46.459 67.3535H36.8447C35.5785 67.3536 34.4651 68.3779 34.4648 69.7334V82.3838C34.465 83.3122 35.0168 84.1555 35.8447 84.541V84.8096H46.8262C65.1211 84.8096 84.7178 70.0633 84.7178 48.0225C84.7177 27.1517 68.366 11.4199 46.8262 11.4199H36.8447ZM14.4434 67.2158C13.177 67.2159 12.0636 68.24 12.0635 69.5957V82.1992C12.0635 83.4656 13.0876 84.579 14.4434 84.5791H27.6455C28.9118 84.5789 30.0254 83.5549 30.0254 82.1992V69.5957C30.0253 68.3294 29.0011 67.216 27.6455 67.2158H14.4434ZM109.614 11.4199C108.715 11.4201 107.871 11.9687 107.479 12.7529L73.165 81.1514C72.7841 81.8656 72.7827 82.757 73.2715 83.4902C73.7279 84.1749 74.4505 84.5791 75.2998 84.5791H89.9268C90.89 84.5791 91.6772 84.0133 92.0615 83.2471L92.0625 83.248L99.6045 68.2959H134.805L142.347 83.2471C142.755 84.1097 143.575 84.5791 144.481 84.5791H159.201C160.05 84.5791 160.773 84.1749 161.229 83.4902L161.252 83.4561L161.271 83.4209C161.618 82.7967 161.765 81.8882 161.213 81.0898L126.744 12.751C126.335 11.8891 125.516 11.42 124.61 11.4199H109.614ZM166.929 67.2158C165.662 67.2159 164.549 68.24 164.549 69.5957V82.1992C164.549 83.4656 165.573 84.579 166.929 84.5791H180.131C181.397 84.5789 182.511 83.5549 182.511 82.1992V69.5957C182.511 68.3294 181.486 67.216 180.131 67.2158H166.929ZM14.4434 11.4199C13.177 11.42 12.0635 12.4441 12.0635 13.7998V60.5342C12.0635 61.8006 13.0877 62.914 14.4434 62.9141H27.6455C28.9118 62.9139 30.0254 61.8898 30.0254 60.5342V13.7998C30.0254 12.5334 29.0011 11.4201 27.6455 11.4199H14.4434ZM166.929 11.4199C165.662 11.42 164.549 12.4441 164.549 13.7998V60.5342C164.549 61.8006 165.573 62.914 166.929 62.9141H180.131C181.397 62.9139 182.511 61.8898 182.511 60.5342V13.7998C182.511 12.5335 181.486 11.4201 180.131 11.4199H166.929Z" stroke="black" stroke-width="2"/>
<path d="M126.341 51.5293H108.062L117.201 33.4053L126.341 51.5293Z" stroke="black" stroke-width="2"/>
</svg>
