<?xml version="1.0" encoding="UTF-8"?> <!-- Generator: Adobe Illustrator 23.0.3, SVG Export Plug-In . SVG Version: 6.00 Build 0) --> <svg xmlns="http://www.w3.org/2000/svg" xmlns:xlink="http://www.w3.org/1999/xlink" baseProfile="tiny" id="Layer_1" x="0px" y="0px" viewBox="0 0 426.1 209.7" xml:space="preserve"> <path fill="#FFFFFF" d="M415.9,0H10.2C4.6,0,0,4.6,0,10.2v189.3c0,5.6,4.6,10.2,10.2,10.2h405.7c5.6,0,10.2-4.6,10.2-10.2V10.2 C426.1,4.6,421.5,0,415.9,0 M63.1,178.7c0,1.7-1.4,3-3,3H31.4c-1.7,0-3-1.4-3-3v-27.4c0-1.7,1.4-3,3-3h28.7c1.7,0,3,1.4,3,3V178.7z M63.1,131.6c0,1.7-1.4,3-3,3H31.4c-1.7,0-3-1.4-3-3V30c0-1.7,1.4-3,3-3h28.7c1.7,0,3,1.4,3,3V131.6z M80.1,182.1c-1.7,0-3-1.4-3-3 v-27.5c0-1.7,1.4-3,3-3H101c14.1,0,27.2-6.3,36.1-17.3c8.6-10.6,11.8-24.2,9-37.3c-4.4-20.3-21.8-33.5-44.3-33.5H80.1 c-1.7,0-3-1.4-3-3V30c0-1.7,1.4-3,3-3h21.7c45.7,0,80.2,33.3,80.2,77.4c0,46.5-41.4,77.8-80.2,77.8H80.1z M348.7,180.3 c-0.6,0.9-1.5,1.4-2.6,1.4h-32c-1.2,0-2.2-0.6-2.7-1.7l-17-33.7h-79.2l-17,33.7c-0.5,1-1.5,1.7-2.7,1.7h-31.8c-1.1,0-2-0.5-2.6-1.4 c-0.6-0.9-0.6-2-0.1-2.9l74.6-148.7c0.5-1,1.6-1.7,2.7-1.7h32.6c1.2,0,2.2,0.6,2.7,1.7l75,148.7 C349.3,178.3,349.2,179.4,348.7,180.3 M394.6,178.7c0,1.7-1.4,3-3,3h-28.7c-1.7,0-3-1.4-3-3v-27.4c0-1.7,1.4-3,3-3h28.7 c1.7,0,3,1.4,3,3V178.7z M394.6,131.6c0,1.7-1.4,3-3,3h-28.7c-1.7,0-3-1.4-3-3V30c0-1.7,1.4-3,3-3h28.7c1.7,0,3,1.4,3,3V131.6z"></path> <polygon fill="#FFFFFF" points="231.4,114.2 278.2,114.2 254.8,67.8 "></polygon> </svg> 