<svg width="277" height="119" viewBox="0 0 277 119" fill="none" xmlns="http://www.w3.org/2000/svg">
<path d="M182.173 0.486321C180.95 1.13693 180.169 1.91767 178.816 3.71336C177.801 5.09266 174.886 10.5578 174.886 11.1043C174.886 11.2084 174.73 11.5988 174.548 11.9631C174.339 12.3275 174.131 12.848 174.053 13.1342C173.949 13.4205 173.637 14.3053 173.324 15.0861C172.023 18.4693 170.019 24.8192 169.239 28.1504C168.978 29.2694 168.64 30.1803 168.51 30.1803C168.354 30.1803 167.703 29.6338 167.079 28.9832C165.465 27.3436 162.654 25.652 160.208 24.8713C157.762 24.0645 154.457 23.9604 152.219 24.611C144.906 26.745 138.426 34.5264 136.604 43.3227C136.448 44.0253 136.239 45.847 136.135 47.3564C135.953 49.5946 135.771 50.4013 135.146 51.7806C131.321 59.9783 129.811 66.4584 129.083 77.8051C128.718 83.2442 129.057 89.8024 129.889 94.1225C130.124 95.2936 130.046 96.0223 129.161 100.108C128.406 103.699 128.172 105.313 128.172 107.291C128.172 109.685 128.224 109.893 128.796 110.362C129.135 110.622 129.499 110.856 129.629 110.856C130.254 110.856 131.529 109.217 132.31 107.395C132.804 106.276 133.273 105.365 133.377 105.365C133.481 105.365 134.131 106.276 134.808 107.395C136.239 109.711 138.998 112.626 140.924 113.849C144.255 115.983 147.716 116.295 151.75 114.786C154.873 113.615 159.479 110.258 161.665 107.551C162.394 106.666 163.123 105.912 163.279 105.912C163.435 105.912 163.851 107.031 164.164 108.41C165.023 112.027 166.896 116.139 168.38 117.675C169.395 118.742 169.733 118.924 170.566 118.924C171.867 118.924 172.388 118.612 173.272 117.284C174.964 114.838 176.291 109.867 178.009 99.6657C179.206 92.4829 180.117 85.9248 180.481 81.6047C180.741 78.6119 181.132 79.4707 181.392 83.5565C181.912 91.5721 182.901 95.762 184.567 96.9071C186.831 98.5206 189.043 94.9553 191.906 85.092C193.858 78.2475 194.795 72.3139 194.795 66.4845C194.795 60.5509 194.196 57.7142 192.27 54.7995L191.255 53.238L191.906 51.156C192.504 49.1261 192.973 47.2524 193.65 43.8431C194.092 41.7091 194.092 36.6344 193.65 34.8387C193.181 32.9128 191.906 31.1952 190.422 30.4926C189.772 30.1803 189.173 29.8159 189.095 29.6858C189.017 29.5557 189.095 28.6448 189.303 27.6299C190.032 24.1946 190.553 16.5695 190.422 11.5728C190.266 6.28978 190.058 5.06663 188.861 3.08877C187.247 0.356198 184.463 -0.710807 182.173 0.486321ZM185.087 2.62033C185.894 3.03672 186.857 4.15578 187.247 5.09266C188.653 8.44982 188.262 21.6442 186.571 29.2174C186.363 30.1543 186.18 30.4405 185.842 30.3885C185.53 30.3104 185.374 29.868 185.244 28.3846C185.035 26.3026 184.515 25.2356 183.76 25.2356C182.797 25.2356 182.563 25.9643 182.485 29.2694L182.381 32.4444L181.106 33.4333C180.403 33.9538 178.581 35.6975 177.072 37.285C174.938 39.5491 174.287 40.0956 174.079 39.7833C173.949 39.6011 173.845 39.3149 173.845 39.2108C173.845 38.8204 172.466 36.0878 171.477 34.4743L170.514 32.9128L171.242 30.0502C173.559 20.9936 175.693 14.7998 178.321 9.4908C181.132 3.81746 183.266 1.65742 185.087 2.62033ZM158.647 26.9012C161.171 27.5778 163.357 28.8791 165.855 31.1952C167.573 32.8088 167.911 33.4854 167.625 34.9167C166.766 39.0026 166.428 40.7722 165.673 45.3526C164.84 50.2452 164.762 50.5314 163.904 51.5984C163.409 52.197 162.863 52.9517 162.68 53.264C161.978 54.6433 161.717 53.9667 161.405 49.7507C161.249 47.5126 160.937 45.1444 160.703 44.5198C160.494 43.8952 160.312 43.0884 160.312 42.6981C160.312 41.9434 159.427 37.363 158.985 35.8016C158.1 32.7047 155.94 30.7008 153.494 30.7008C149.486 30.7008 145.348 33.7717 141.418 39.6792C140.82 40.538 140.299 41.4489 140.195 41.6831C139.961 42.3337 139.493 42.2556 139.493 41.553C139.493 40.6942 142.069 35.6975 143.448 33.9278C145.556 31.1952 148.861 28.4366 151.125 27.5518C153.702 26.5108 156.356 26.3026 158.647 26.9012ZM189.72 32.8608C192.036 34.6825 192.296 39.497 190.501 46.9661C189.225 52.197 189.147 52.4052 188.158 52.6915C187.664 52.8216 186.779 53.4462 186.18 54.0447C185.582 54.6693 185.009 55.1638 184.905 55.1638C184.593 55.1638 185.035 45.1964 185.426 43.5048C185.608 42.6981 186.05 41.0325 186.389 39.8093C186.753 38.5862 187.195 36.9987 187.378 36.296C188.288 32.5485 188.679 32.002 189.72 32.8608ZM155.159 33.7456C156.252 34.7346 157.033 37.1028 157.736 41.4489L158.048 43.4788L156.903 44.6499C156.278 45.2745 155.706 45.795 155.602 45.795C155.498 45.795 155.367 44.3116 155.315 42.4638C155.237 38.8464 154.821 37.5973 153.598 37.285C152.219 36.9466 151.125 38.1438 149.824 41.3708C149.148 43.0884 148.653 43.4788 147.82 42.9583C147.508 42.7501 147.508 42.594 147.794 42.0735C148.081 41.527 148.081 41.3448 147.69 40.7462C147.43 40.3819 147.066 40.0696 146.831 40.0696C146.597 40.0696 145.738 40.7462 144.932 41.605C143.318 43.2446 141.392 46.836 140.039 50.7396C139.623 51.9107 139.232 52.9257 139.128 53.0038C138.92 53.238 138.452 51.8587 138.452 50.9478C138.452 50.0109 141.21 44.3897 143.058 41.527C144.411 39.419 146.155 37.2589 147.69 35.8536C148.653 34.9428 151.178 33.5114 152.375 33.2251C153.233 32.9909 154.613 33.2512 155.159 33.7456ZM182.173 36.9727C182.173 37.4151 182.043 39.7833 181.912 42.2296C181.6 46.9661 181.262 49.4384 180.845 49.4384C180.533 49.4384 180.559 49.7507 180.377 45.3265C180.221 41.527 180.195 41.2927 179.596 40.8243C178.946 40.3038 178.191 40.3559 177.514 40.9804C177.306 41.1886 176.89 42.0735 176.577 42.9843C176.265 43.8952 175.901 44.6239 175.771 44.6239C175.641 44.6239 175.51 44.2075 175.458 43.687C175.38 42.8802 175.562 42.5419 176.864 41.0845C178.842 38.8464 181.6 36.1659 181.912 36.1659C182.069 36.1659 182.173 36.5303 182.173 36.9727ZM171.477 39.7313L172.596 42.3858L170.878 44.5198C169.915 45.6649 168.952 46.9661 168.718 47.3825C168.458 47.7989 168.119 48.1372 167.937 48.1372C167.521 48.1372 167.521 48.2153 167.963 45.821C168.172 44.728 168.614 42.4378 168.926 40.7202C169.525 37.4932 169.837 36.4782 170.175 36.8425C170.306 36.9727 170.878 38.2739 171.477 39.7313ZM152.999 45.5868C152.947 50.063 152.765 51.3902 152.219 51.2081C152.062 51.156 151.516 50.4534 151.021 49.6466L150.111 48.1892L150.943 45.5087C151.776 42.6981 152.479 41.1106 152.843 41.1106C152.947 41.1106 153.025 43.1405 152.999 45.5868ZM173.819 47.6427C174.079 48.8659 174.105 49.5425 173.923 50.2191C173.767 50.7136 172.934 53.5243 172.049 56.465C171.164 59.4058 170.28 62.4507 170.071 63.2314C169.863 64.0121 169.213 66.3023 168.64 68.3062C168.067 70.3101 167.417 72.6523 167.183 73.5111C166.272 76.8422 166.142 77.1545 165.569 77.2326C164.866 77.3367 164.866 77.5188 165.361 69.4513C165.751 63.2314 165.699 63.4396 167.547 59.588C168.848 56.8814 169.395 54.9556 169.629 52.0409C169.811 49.8548 169.837 49.8028 171.347 47.7989C172.205 46.6798 173.012 45.821 173.168 45.8731C173.324 45.9251 173.611 46.7319 173.819 47.6427ZM158.568 49.0741C158.673 50.063 158.777 52.6915 158.829 54.9036C158.881 58.2607 158.803 59.1716 158.412 60.3167C157.788 62.0603 157.58 61.9041 156.018 58.599L154.847 56.1267L155.081 53.6023C155.315 51.2341 155.394 50.9739 156.565 49.1001C157.241 47.981 157.918 47.1222 158.074 47.1743C158.23 47.2263 158.438 48.0851 158.568 49.0741ZM178.165 48.97C178.087 50.0109 177.957 52.0929 177.879 53.6023C177.67 57.2978 177.462 59.0935 177.228 58.9374C177.124 58.8853 176.968 56.7253 176.864 54.1488C176.682 49.5946 176.682 49.4124 177.254 48.2673C177.566 47.6167 177.957 47.0962 178.087 47.0962C178.217 47.0962 178.243 47.929 178.165 48.97ZM150.267 52.9517C150.657 53.6023 150.943 54.331 150.865 54.5913C150.683 55.1638 148.913 59.3017 148.575 59.9003C148.445 60.1605 148.341 60.5248 148.341 60.733C148.341 61.1494 147.352 62.4507 147.014 62.4507C146.649 62.4507 146.727 61.774 147.144 61.4357C147.586 61.0714 148.211 57.7142 147.977 56.9074C147.846 56.439 148.107 55.1898 149.018 52.0929C149.174 51.5464 149.486 51.7546 150.267 52.9517ZM137.124 57.2197C137.385 58.3908 137.385 58.9634 137.176 59.64C136.318 62.2164 134.626 69.8676 133.663 75.4629C132.83 80.2254 132.492 82.3074 132.336 83.4004C132.258 84.1291 132.076 84.8838 131.945 85.092C131.451 85.8727 131.347 84.4153 131.503 79.2625C131.763 71.0908 132.986 63.6998 134.964 58.2867C135.485 56.9335 135.927 55.6583 136.005 55.4501C136.213 54.7734 136.76 55.6322 137.124 57.2197ZM187.638 56.8033C187.638 56.9855 187.534 57.2458 187.43 57.3759C187.3 57.532 186.883 58.521 186.467 59.588C185.192 63.0232 184.463 64.4025 184.229 63.9341C183.968 63.4916 184.879 60.3687 185.712 58.7552C186.649 56.9595 187.638 55.9445 187.638 56.8033ZM191.437 58.521C191.75 59.4578 192.166 61.5398 192.348 63.1793C192.635 65.7558 192.609 66.7447 192.244 70.6224C191.984 73.0687 191.698 75.541 191.568 76.1135C191.437 76.6861 191.125 78.0914 190.891 79.2365C189.746 84.6496 186.623 93.8883 185.868 94.1485C184.723 94.5128 183.63 86.2631 183.656 77.4147L183.682 71.6894L185.035 68.8267C185.764 67.2392 186.649 65.3654 186.987 64.6627C187.846 62.763 189.98 57.3238 189.98 56.9855C189.98 56.8294 190.188 56.7253 190.449 56.7773C190.735 56.8294 191.073 57.4279 191.437 58.521ZM174.522 60.4207C174.053 68.5924 174.001 68.9308 172.335 71.5592C170.123 75.0465 168.874 76.0094 169.577 73.6932C169.785 73.0166 170.774 69.6074 171.737 66.0941C173.949 58.2087 174.183 57.506 174.469 57.506C174.6 57.506 174.626 58.7812 174.522 60.4207ZM180.273 62.5027C180.039 64.4025 179.778 66.9008 179.7 68.0459C179.44 71.1689 179.362 71.3771 178.555 71.1689C177.618 70.9346 177.176 70.9346 176.656 71.1689C176.265 71.325 176.187 71.2209 176.187 70.6484C176.187 70.258 176.343 69.6334 176.551 69.2691C177.67 67.1611 178.659 64.3244 179.206 61.722C179.752 59.1195 180.039 58.3908 180.403 58.7552C180.585 58.9374 180.559 60.0044 180.273 62.5027ZM142.563 61.5919C143.006 64.0642 143.032 64.4025 142.772 64.5066C142.407 64.6367 141.236 62.2425 141.236 61.3837C141.236 60.707 141.705 59.8482 142.069 59.8482C142.173 59.8482 142.381 60.6289 142.563 61.5919ZM163.539 61.3316C163.331 62.4767 162.446 64.2724 162.108 64.2724C161.457 64.2724 162.16 62.0082 163.149 60.8371C163.695 60.1865 163.747 60.2386 163.539 61.3316ZM155.602 63.5437C156.565 66.3804 156.278 68.6445 154.665 70.6484C153.91 71.5853 153.338 71.7674 152.817 71.2469C152.401 70.8305 152.427 70.1019 152.895 68.7486C153.103 68.15 153.468 66.5105 153.702 65.1052C154.222 61.9302 154.222 61.9302 154.691 61.9302C154.899 61.9302 155.263 62.5548 155.602 63.5437ZM140.768 66.4845C141.21 67.2652 141.574 68.0199 141.574 68.15C141.574 68.5924 139.18 71.299 138.79 71.299C138.452 71.299 138.426 71.0387 138.582 69.8416C138.738 68.6185 139.154 66.7968 139.623 65.3654C139.805 64.8709 139.909 64.975 140.768 66.4845ZM150.943 67.109C150.943 67.6295 150.501 68.072 150.241 67.8377C150.058 67.6295 150.423 66.6146 150.709 66.6146C150.839 66.6146 150.943 66.8488 150.943 67.109ZM163.097 68.6185C162.993 69.165 162.863 71.351 162.758 73.5111C162.654 75.6451 162.472 77.5709 162.316 77.727C162.056 78.0914 160.104 78.1695 158.126 77.9092C156.981 77.7531 156.929 77.701 156.929 76.8943C156.929 76.4258 157.241 75.4369 157.658 74.7082C158.438 73.1988 162.654 67.6816 163.019 67.6556C163.149 67.6556 163.175 68.098 163.097 68.6185ZM149.2 70.6484C149.512 71.0648 149.564 71.325 149.356 71.4551C148.991 71.6633 147.977 70.6484 148.185 70.284C148.445 69.8676 148.679 69.9457 149.2 70.6484ZM176.161 73.1728C176.161 73.5111 176.057 74.0055 175.927 74.2918C175.745 74.6822 175.693 74.5521 175.693 73.6932C175.667 73.0947 175.797 72.6002 175.927 72.6002C176.083 72.6002 176.187 72.8605 176.161 73.1728ZM179.05 74.1357C179.05 74.9424 178.92 75.515 178.659 75.7232C178.321 76.0094 178.269 75.8793 178.269 74.8643C178.269 74.2137 178.347 73.5111 178.425 73.2769C178.737 72.4701 179.05 72.8865 179.05 74.1357ZM137.28 74.1617C137.489 74.5 138.608 74.5 139.258 74.1617C139.545 74.0055 139.857 73.9275 139.961 74.0055C140.091 74.0836 139.857 75.1766 139.493 76.4258C138.712 78.9502 138.191 80.6938 135.745 89.1258C134.808 92.2747 133.923 95.3456 133.767 95.9702C133.533 96.9071 133.403 97.0372 133.091 96.803C132.596 96.3606 132.622 95.0073 133.247 91.6762C133.949 87.9026 133.897 88.1629 135.094 81.1883C135.641 77.8311 136.187 74.8123 136.239 74.474C136.396 73.8754 136.994 73.6932 137.28 74.1617ZM147.066 74.9945C147.326 75.3328 147.534 75.7232 147.56 75.8793C147.56 76.3217 145.816 80.5117 144.281 83.6867C142.928 86.5493 142.147 87.4602 142.433 85.9248C142.589 85.118 145.686 74.9684 145.895 74.6301C146.129 74.2658 146.545 74.3959 147.066 74.9945ZM154.535 75.6971C154.665 76.5039 154.274 76.8422 153.442 76.608C152.661 76.4258 152.531 75.6191 153.233 75.2287C153.91 74.8123 154.457 74.9945 154.535 75.6971ZM153.546 79.6268C153.546 79.835 153.312 81.3444 153.025 82.984C151.386 92.4049 154.144 95.788 160.208 91.7282C161.171 91.0776 162.056 90.5571 162.16 90.5571C162.29 90.5571 162.394 91.5461 162.394 92.7432C162.394 93.9143 162.524 96.4126 162.654 98.2343L162.941 101.565L162.082 102.945C159.401 107.239 154.873 111.038 150.631 112.548C148.939 113.146 148.315 113.25 146.597 113.146C143.995 113.016 142.563 112.34 140.247 110.154C137.853 107.889 134.548 102.945 134.548 101.644C134.548 101.435 134.938 100.056 135.433 98.5727C135.901 97.0893 136.552 94.9553 136.89 93.8102C137.202 92.6651 137.749 90.7913 138.087 89.6463C138.426 88.5012 138.868 86.9657 139.076 86.2631C140.091 82.7758 140.507 81.5787 140.768 81.5006C141.158 81.3705 141.132 82.6196 140.742 83.3483C140.586 83.6606 140.351 84.3373 140.247 84.8317C140.143 85.3262 139.805 86.6795 139.493 87.8245C139.206 88.9696 138.868 90.7133 138.79 91.7282C138.66 93.3417 138.712 93.602 139.18 94.0444C139.909 94.695 140.846 94.4348 141.679 93.3417C143.188 91.3639 147.898 82.1772 149.018 79.0022C149.642 77.2326 149.72 77.2066 151.724 78.2736C152.739 78.8201 153.546 79.4186 153.546 79.6268ZM172.544 77.7531C172.544 78.5338 171.034 84.2592 170.227 86.5493C169.108 89.6983 167.391 91.9885 166.558 91.468C166.22 91.2598 166.22 89.412 166.584 87.0959C166.87 85.3522 167.052 84.9879 169.291 81.7088C170.592 79.783 171.763 77.9873 171.841 77.727C172.049 77.1545 172.544 77.1545 172.544 77.7531ZM161.041 80.4076H162.394V83.5826V86.7315L161.301 87.7725C159.115 89.7764 156.591 91.2338 155.784 90.9215C155.159 90.6872 154.769 88.8135 154.951 86.8877C155.133 84.8578 155.836 80.6938 156.07 80.3295C156.148 80.1733 156.903 80.1473 157.944 80.2514C158.881 80.3295 160.286 80.4076 161.041 80.4076ZM165.361 80.3555C165.569 80.6938 165.231 81.7088 164.971 81.5526C164.658 81.3705 164.658 80.1473 164.971 80.1473C165.127 80.1473 165.283 80.2514 165.361 80.3555ZM174.626 81.6307C174.626 82.1252 174.548 82.2553 174.365 82.0731C174.209 81.917 174.157 81.6047 174.261 81.3705C174.495 80.7459 174.626 80.824 174.626 81.6307ZM173.585 89.334C173.585 91.1297 174.912 91.8844 176.109 90.7653C176.447 90.453 176.786 90.2709 176.864 90.3749C177.046 90.5571 176.577 93.9143 175.354 100.837C173.845 109.451 172.518 114.396 171.268 116.035L170.774 116.66L170.097 115.983C169.473 115.358 168.224 112.938 167.261 110.466C166.766 109.217 166.168 106.692 165.751 104.194L165.465 102.346L166.688 100.212C167.339 99.0151 168.432 96.9331 169.056 95.5538C169.707 94.1485 170.488 92.509 170.8 91.8583C171.373 90.5831 172.986 88.4752 173.35 88.4752C173.481 88.4752 173.585 88.8655 173.585 89.334ZM166.636 94.4348C166.766 94.5649 166.558 95.2415 166.194 95.9702C165.569 97.2194 164.997 97.87 164.997 97.4016C164.971 97.2975 164.918 96.4387 164.84 95.5278L164.736 93.8622L165.569 94.0444C166.038 94.1225 166.506 94.3046 166.636 94.4348ZM131.347 102.971C131.269 103.231 131.217 103.075 131.217 102.659C131.217 102.216 131.269 102.034 131.347 102.19C131.399 102.372 131.399 102.737 131.347 102.971Z" fill="black"/>
<path d="M225.634 23.6491C222.095 25.1585 222.199 25.1065 218.217 26.6679C210.462 29.6608 206.663 31.9509 204.008 35.204C202.134 37.5462 200.026 41.9443 199.115 45.4056C197.866 50.1941 197.112 67.0059 197.762 75.0735C198.153 79.4977 199.402 82.5686 201.926 85.171C204.424 87.7735 208.042 89.3089 212.57 89.7253C221.939 90.5581 229.226 86.8887 232.036 79.8881C233.077 77.3116 233.234 75.5159 233.129 66.6936C233.025 58.7301 232.999 58.3398 232.375 56.5701C230.995 52.5623 228.913 50.1941 225.27 48.3984C219.154 45.3796 210.332 46.2123 205.752 50.2461C204.19 51.6254 203.93 51.5734 204.138 49.9078C204.971 43.7921 207.756 38.8474 212.102 35.9066C214.132 34.5534 214.6 34.3191 220.768 31.8208C227.248 29.2183 231.1 27.4227 231.1 26.9802C231.1 26.2776 229.356 22.504 229.018 22.452C228.809 22.426 227.274 22.9725 225.634 23.6491ZM218.946 52.4582C223.24 53.4211 225.791 55.6592 226.858 59.3807C227.352 61.1504 227.612 71.0137 227.248 74.3188C226.493 80.7989 222.329 84.3122 215.355 84.3122C209.161 84.2862 205.439 81.7358 203.982 76.5309C203.305 74.0586 203.279 63.0762 203.982 60.76C205.023 57.2207 207.053 54.7484 210.124 53.317C212.934 51.9898 215.719 51.7295 218.946 52.4582Z" fill="black"/>
<path d="M69.8754 44.7541C67.0648 45.4828 64.2541 46.758 60.1683 49.1002C59.5697 49.4645 58.9191 49.6988 58.7109 49.6207C58.5027 49.5426 58.3205 48.7879 58.1904 47.4606C58.1123 46.3416 57.9302 45.3266 57.774 45.1705C57.5398 44.9363 53.1677 44.8322 52.9335 45.0664C52.8554 45.1705 52.7773 88.7615 52.8294 107.291C52.8294 107.395 54.0785 107.447 55.64 107.421L58.4246 107.343L58.5027 97.1154C58.5547 88.5533 58.6068 86.9138 58.9191 86.9138C59.1273 86.9138 59.856 87.148 60.5586 87.4603C64.124 88.9958 69.0947 90.0367 72.8422 90.0367C77.3184 90.0367 81.4043 88.4753 83.9807 85.7947C87.7282 81.8911 88.3788 78.7161 88.1706 64.819C88.0665 58.2088 87.9364 56.2049 87.5721 54.6434C86.6352 50.6356 84.293 47.4867 81.0399 45.8471C77.8649 44.2596 73.4408 43.8172 69.8754 44.7541ZM77.1623 50.7658C79.8428 51.7807 81.4823 53.9928 82.0028 57.3239C82.159 58.3909 82.237 62.685 82.185 68.2542C82.0809 77.2587 82.0809 77.4409 81.4563 78.9763C79.2182 84.4415 72.634 85.8728 63.7336 82.8019C62.5365 82.3595 60.8709 81.7349 60.0642 81.3446L58.5547 80.6679V68.4364V56.2049L60.0642 55.242C62.4844 53.6545 66.6744 51.5985 68.6523 51C72.3738 49.8809 74.6119 49.8029 77.1623 50.7658Z" fill="black"/>
<path d="M254.644 44.6483C250.48 45.3769 245.509 47.4589 244.026 49.1245C243.557 49.6189 243.583 49.697 244.885 51.6749C245.613 52.7939 246.264 53.7829 246.316 53.8349C246.368 53.8869 247.045 53.5226 247.799 53.0281C251.391 50.6859 254.566 49.8792 259.693 50.0093C263.908 50.1134 265.6 50.6599 267.552 52.4816C269.556 54.3554 270.493 57.4783 270.337 61.6943L270.258 63.6201L261.67 63.7763C253.056 63.9584 252.614 63.9845 250.22 64.7131C247.539 65.5199 245.171 66.9773 243.401 68.9551C241.137 71.4275 240.122 75.175 240.669 79.0787C241.736 86.7038 248.112 90.8157 256.986 89.6446C261.15 89.0721 263.7 88.1872 268.124 85.6889C268.983 85.2204 269.79 84.8301 269.972 84.8301C270.18 84.8301 270.441 85.6889 270.675 87.0942L271.039 89.3844H273.512H275.984L276.062 73.5094C276.114 55.9169 276.062 54.8499 274.5 51.5447C273.512 49.4107 271.117 46.9905 269.009 45.9755C265.73 44.388 259.406 43.8155 254.644 44.6483ZM270.232 69.1113C270.441 69.6318 270.441 78.1678 270.232 78.6883C270.154 78.9225 268.879 79.7553 267.422 80.51C262.269 83.2946 257.611 84.752 254.826 84.4918C251.104 84.1534 248.684 82.8262 247.435 80.4319C246.81 79.2608 246.706 78.7403 246.706 77.0227C246.706 73.7957 247.617 71.8699 249.803 70.4906C252.119 69.0072 253.889 68.773 263.258 68.7209C269.244 68.6949 270.102 68.7469 270.232 69.1113Z" fill="black"/>
<path d="M11.0864 45.3253C10.9563 45.9499 10.5399 53.3148 10.1496 61.6947C9.60304 73.9002 8.04157 79.9639 4.71043 83.0869C3.8256 83.9197 3.20101 84.284 2.39425 84.4141C1.76967 84.4922 1.14508 84.5182 1.01496 84.4141C0.884833 84.3361 0.598564 84.4141 0.390368 84.5703C0.052049 84.8305 0 86.1317 0 92.2215C0 96.2292 0.0780735 99.7946 0.156147 100.133C0.312294 100.705 0.416392 100.731 2.96679 100.653L5.59527 100.575L5.72539 95.1102L5.85551 89.645H22.7714H39.6874L39.8175 95.1102L39.9476 100.575H42.5501H45.1525V92.5077V84.4401L43.539 84.3621C42.0816 84.284 41.9255 84.232 41.7953 83.6334C41.6913 83.2951 41.6392 74.4988 41.6392 64.141C41.6652 53.7573 41.5872 45.1432 41.5091 45.013C41.405 44.8569 35.9138 44.7528 26.2847 44.7528H11.1905L11.0864 45.3253ZM35.7837 67.1339V84.1799L23.6302 84.258C14.6518 84.31 11.4508 84.232 11.4508 84.0238C11.4508 83.8676 11.7891 83.0088 12.2055 82.124C14.5737 77.1273 15.2504 72.4429 15.8749 56.9843C16.0571 52.2999 16.2393 50.322 16.4735 50.1659C16.6297 50.0618 21.0538 49.9837 26.2847 50.0358L35.7837 50.0878V67.1339Z" fill="black"/>
<path d="M93.2734 45.118C93.1953 45.3261 93.7158 47.3561 94.4445 49.6202C95.1471 51.8843 96.3963 55.8921 97.2031 58.5466C98.0098 61.2011 99.1289 64.7664 99.6754 66.4841C100.222 68.2017 100.951 70.5959 101.341 71.8191C103.241 78.091 105.635 85.6121 105.895 86.0805C106.051 86.3668 106.65 86.9653 107.223 87.4338C108.81 88.683 108.862 88.9432 108.107 90.9991C107.743 91.9621 107.17 93.5756 106.832 94.5905C105.999 97.1149 103.189 105.104 102.824 105.989C102.252 107.447 102.278 107.473 105.505 107.473C107.561 107.473 108.55 107.369 108.732 107.134C108.966 106.848 109.929 104.376 110.736 101.877C110.918 101.305 111.438 99.8475 111.907 98.6243C112.349 97.4012 112.948 95.7096 113.234 94.8508C113.546 93.992 114.223 92.0662 114.77 90.5567C115.316 89.0473 116.149 86.7572 116.591 85.482C117.06 84.1807 117.528 82.9055 117.632 82.6193C117.762 82.333 118.101 81.3961 118.387 80.5373C118.673 79.6785 119.272 77.9869 119.74 76.7637C120.183 75.5406 120.651 74.2654 120.755 73.901C120.885 73.5367 121.224 72.5998 121.536 71.8191C122.343 69.6851 123.358 66.8484 123.644 65.9636C123.774 65.5212 123.982 64.9486 124.112 64.6624C124.243 64.3761 124.607 63.4392 124.893 62.5804C125.179 61.7216 125.778 60.03 126.22 58.8068C126.663 57.5837 127.313 55.762 127.678 54.773C128.016 53.7581 128.927 51.2597 129.708 49.1778C130.671 46.5753 131.009 45.3001 130.827 45.0659C130.671 44.8577 129.76 44.7536 128.068 44.7536C126.429 44.7536 125.388 44.8577 125.127 45.0659C124.893 45.2481 124.112 47.2259 123.358 49.438C122.603 51.6501 120.651 57.2714 119.012 61.9298C117.346 66.5882 115.915 70.674 115.785 71.0384C115.68 71.4027 115.056 73.1984 114.379 75.0722C113.729 76.9199 112.844 79.4963 112.401 80.7975C111.595 83.1397 111.282 83.7643 110.97 83.4781C110.892 83.374 110.606 82.5152 110.345 81.5262C110.085 80.5633 109.278 77.8828 108.576 75.5926C107.873 73.3025 107.196 71.0123 107.04 70.5179C106.884 70.0234 106.051 67.3169 105.193 64.5322C104.334 61.7476 102.85 56.803 101.914 53.5759C100.977 50.3229 99.9617 47.0177 99.6754 46.211L99.1289 44.7536H96.2662C94.0281 44.7536 93.3775 44.8317 93.2734 45.118Z" fill="black"/>
</svg>
