<?xml version="1.0" standalone="no"?>
<!DOCTYPE svg PUBLIC "-//W3C//DTD SVG 20010904//EN"
 "http://www.w3.org/TR/2001/REC-SVG-20010904/DTD/svg10.dtd">
<svg version="1.0" xmlns="http://www.w3.org/2000/svg"
 width="1380.000000pt" height="1240.000000pt" viewBox="0 0 1380.000000 1240.000000"
 preserveAspectRatio="xMidYMid meet">

<g transform="translate(0.000000,1240.000000) scale(0.100000,-0.100000)"
fill="#000000" stroke="none">
<path d="M8400 8751 c-47 -25 -77 -55 -129 -124 -39 -53 -151 -263 -151 -284
0 -4 -6 -19 -13 -33 -8 -14 -16 -34 -19 -45 -4 -11 -16 -45 -28 -75 -50 -130
-127 -374 -157 -502 -10 -43 -23 -78 -28 -78 -6 0 -31 21 -55 46 -62 63 -170
128 -264 158 -94 31 -221 35 -307 10 -281 -82 -530 -381 -600 -719 -6 -27 -14
-97 -18 -155 -7 -86 -14 -117 -38 -170 -147 -315 -205 -564 -233 -1000 -14
-209 -1 -461 31 -627 9 -45 6 -73 -28 -230 -29 -138 -38 -200 -38 -276 0 -92
2 -100 24 -118 13 -10 27 -19 32 -19 24 0 73 63 103 133 19 43 37 78 41 78 4
0 29 -35 55 -78 55 -89 161 -201 235 -248 128 -82 261 -94 416 -36 120 45 297
174 381 278 28 34 56 63 62 63 6 0 22 -43 34 -96 33 -139 105 -297 162 -356
39 -41 52 -48 84 -48 50 0 70 12 104 63 65 94 116 285 182 677 46 276 81 528
95 694 10 115 25 82 35 -75 20 -308 58 -469 122 -513 87 -62 172 75 282 454
75 263 111 491 111 715 0 228 -23 337 -97 449 l-39 60 25 80 c23 78 41 150 67
281 17 82 17 277 0 346 -18 74 -67 140 -124 167 -25 12 -48 26 -51 31 -3 5 0
40 8 79 28 132 48 425 43 617 -6 203 -14 250 -60 326 -62 105 -169 146 -257
100z m112 -82 c31 -16 68 -59 83 -95 54 -129 39 -636 -26 -927 -8 -36 -15 -47
-28 -45 -12 3 -18 20 -23 77 -8 80 -28 121 -57 121 -37 0 -46 -28 -49 -155
l-4 -122 -49 -38 c-27 -20 -97 -87 -155 -148 -82 -87 -107 -108 -115 -96 -5 7
-9 18 -9 22 0 15 -53 120 -91 182 l-37 60 28 110 c89 348 171 586 272 790 108
218 190 301 260 264z m-1016 -933 c97 -26 181 -76 277 -165 66 -62 79 -88 68
-143 -33 -157 -46 -225 -75 -401 -32 -188 -35 -199 -68 -240 -19 -23 -40 -52
-47 -64 -27 -53 -37 -27 -49 135 -6 86 -18 177 -27 201 -8 24 -15 55 -15 70 0
29 -34 205 -51 265 -34 119 -117 196 -211 196 -154 0 -313 -118 -464 -345 -23
-33 -43 -68 -47 -77 -9 -25 -27 -22 -27 5 0 33 99 225 152 293 81 105 208 211
295 245 99 40 201 48 289 25z m1194 -229 c89 -70 99 -255 30 -542 -49 -201
-52 -209 -90 -220 -19 -5 -53 -29 -76 -52 -23 -24 -45 -43 -49 -43 -12 0 5
383 20 448 7 31 24 95 37 142 14 47 31 108 38 135 35 144 50 165 90 132z
m-1328 -34 c42 -38 72 -129 99 -296 l12 -78 -44 -45 c-24 -24 -46 -44 -50 -44
-4 0 -9 57 -11 128 -3 139 -19 187 -66 199 -53 13 -95 -33 -145 -157 -26 -66
-45 -81 -77 -61 -12 8 -12 14 -1 34 11 21 11 28 -4 51 -10 14 -24 26 -33 26
-9 0 -42 -26 -73 -59 -62 -63 -136 -201 -188 -351 -16 -45 -31 -84 -35 -87 -8
-9 -26 44 -26 79 0 36 106 252 177 362 52 81 119 164 178 218 37 35 134 90
180 101 33 9 86 -1 107 -20z m1038 -124 c0 -17 -5 -108 -10 -202 -12 -182 -25
-277 -41 -277 -12 0 -11 -12 -18 158 -6 146 -7 155 -30 173 -25 20 -54 18 -80
-6 -8 -8 -24 -42 -36 -77 -12 -35 -26 -63 -31 -63 -5 0 -10 16 -12 36 -3 31 4
44 54 100 76 86 182 189 194 189 6 0 10 -14 10 -31z m-411 -106 l43 -102 -66
-82 c-37 -44 -74 -94 -83 -110 -10 -16 -23 -29 -30 -29 -16 0 -16 -3 1 89 8
42 25 130 37 196 23 124 35 163 48 149 5 -5 27 -55 50 -111z m-710 -225 c-2
-172 -9 -223 -30 -216 -6 2 -27 29 -46 60 l-35 56 32 103 c32 108 59 169 73
169 4 0 7 -78 6 -172z m800 -79 c10 -47 11 -73 4 -99 -6 -19 -38 -127 -72
-240 -34 -113 -68 -230 -76 -260 -8 -30 -33 -118 -55 -195 -22 -77 -47 -167
-56 -200 -35 -128 -40 -140 -62 -143 -27 -4 -27 -11 -8 299 15 239 13 231 84
379 50 104 71 178 80 290 7 84 8 86 66 163 33 43 64 76 70 74 6 -2 17 -33 25
-68z m-586 -55 c4 -38 8 -139 10 -224 2 -129 -1 -164 -16 -208 -24 -67 -32
-61 -92 66 l-45 95 9 97 c9 91 12 101 57 173 26 43 52 76 58 74 6 -2 14 -35
19 -73z m753 4 c-3 -40 -8 -120 -11 -178 -8 -142 -16 -211 -25 -205 -4 2 -10
85 -14 184 -7 175 -7 182 15 226 12 25 27 45 32 45 5 0 6 -32 3 -72z m-1072
-153 c15 -25 26 -53 23 -63 -7 -22 -75 -181 -88 -204 -5 -10 -9 -24 -9 -32 0
-16 -38 -66 -51 -66 -14 0 -11 26 5 39 17 14 41 143 32 174 -5 18 5 66 40 185
6 21 18 13 48 -33z m-505 -164 c10 -45 10 -67 2 -93 -33 -99 -98 -393 -135
-608 -32 -183 -45 -263 -51 -305 -3 -28 -10 -57 -15 -65 -19 -30 -23 26 -17
224 10 314 57 598 133 806 20 52 37 101 40 109 8 26 29 -7 43 -68z m1941 16
c0 -7 -4 -17 -8 -22 -5 -6 -21 -44 -37 -85 -49 -132 -77 -185 -86 -167 -10 17
25 137 57 199 36 69 74 108 74 75z m146 -66 c12 -36 28 -116 35 -179 11 -99
10 -137 -4 -286 -10 -94 -21 -189 -26 -211 -5 -22 -17 -76 -26 -120 -44 -208
-164 -563 -193 -573 -44 -14 -86 303 -85 643 l1 220 52 110 c28 61 62 133 75
160 33 73 115 282 115 295 0 6 8 10 18 8 11 -2 24 -25 38 -67z m-650 -73 c-18
-314 -20 -327 -84 -428 -85 -134 -133 -171 -106 -82 8 26 46 157 83 292 85
303 94 330 105 330 5 0 6 -49 2 -112z m221 -80 c-9 -73 -19 -169 -22 -213 -10
-120 -13 -128 -44 -120 -36 9 -53 9 -73 0 -15 -6 -18 -2 -18 20 0 15 6 39 14
53 43 81 81 190 102 290 21 100 32 128 46 114 7 -7 6 -48 -5 -144z m-1449 35
c17 -95 18 -108 8 -112 -14 -5 -59 87 -59 120 0 26 18 59 32 59 4 0 12 -30 19
-67z m806 10 c-8 -44 -42 -113 -55 -113 -25 0 2 87 40 132 21 25 23 23 15 -19z
m-305 -85 c37 -109 26 -196 -36 -273 -29 -36 -51 -43 -71 -23 -16 16 -15 44 3
96 8 23 22 86 31 140 20 122 20 122 38 122 8 0 22 -24 35 -62z m-570 -113 c17
-30 31 -59 31 -64 0 -17 -92 -121 -107 -121 -13 0 -14 10 -8 56 6 47 22 117
40 172 7 19 11 15 44 -43z m391 -24 c0 -20 -17 -37 -27 -28 -7 8 7 47 18 47 5
0 9 -9 9 -19z m467 -58 c-4 -21 -9 -105 -13 -188 -4 -82 -11 -156 -17 -162
-10 -14 -85 -17 -161 -7 -44 6 -46 8 -46 39 0 18 12 56 28 84 30 58 192 270
206 271 5 0 6 -17 3 -37z m-534 -78 c12 -16 14 -26 6 -31 -14 -8 -53 31 -45
45 10 16 19 13 39 -14z m1036 -97 c0 -13 -4 -32 -9 -43 -7 -15 -9 -10 -9 23
-1 23 4 42 9 42 6 0 10 -10 9 -22z m111 -37 c0 -31 -5 -53 -15 -61 -13 -11
-15 -6 -15 33 0 25 3 52 6 61 12 31 24 15 24 -33z m-1605 -1 c8 -13 51 -13 76
0 11 6 23 9 27 6 5 -3 -4 -45 -18 -93 -30 -97 -50 -164 -144 -488 -36 -121
-70 -239 -76 -263 -9 -36 -14 -41 -26 -32 -19 17 -18 69 6 197 27 145 25 135
71 403 21 129 42 245 44 258 6 23 29 30 40 12z m376 -32 c10 -13 18 -28 19
-34 0 -17 -67 -178 -126 -300 -52 -110 -82 -145 -71 -86 6 31 125 421 133 434
9 14 25 9 45 -14z m287 -27 c5 -31 -10 -44 -42 -35 -30 7 -35 38 -8 53 26 16
47 9 50 -18z m-38 -151 c0 -8 -9 -66 -20 -129 -63 -362 43 -492 276 -336 37
25 71 45 75 45 5 0 9 -38 9 -84 0 -45 5 -141 10 -211 l11 -128 -33 -53 c-103
-165 -277 -311 -440 -369 -65 -23 -89 -27 -155 -23 -100 5 -155 31 -244 115
-92 87 -219 277 -219 327 0 8 15 61 34 118 18 57 43 139 56 183 12 44 33 116
46 160 13 44 30 103 38 130 39 134 55 180 65 183 15 5 14 -43 -1 -71 -6 -12
-15 -38 -19 -57 -4 -19 -17 -71 -29 -115 -11 -44 -24 -111 -27 -150 -5 -62 -3
-72 15 -89 28 -25 64 -15 96 27 58 76 239 429 282 551 24 68 27 69 104 28 39
-21 70 -44 70 -52z m730 72 c0 -30 -58 -250 -89 -338 -43 -121 -109 -209 -141
-189 -13 8 -13 79 1 168 11 67 18 81 104 207 50 74 95 143 98 153 8 22 27 22
27 -1z m-442 -102 l52 0 0 -122 0 -121 -42 -40 c-84 -77 -181 -133 -212 -121
-24 9 -39 81 -32 155 7 78 34 238 43 252 3 6 32 7 72 3 36 -3 90 -6 119 -6z
m166 2 c8 -13 -5 -52 -15 -46 -12 7 -12 54 0 54 6 0 12 -4 15 -8z m356 -49 c0
-19 -3 -24 -10 -17 -6 6 -8 18 -4 27 9 24 14 21 14 -10z m-40 -296 c0 -69 51
-98 97 -55 13 12 26 19 29 15 7 -7 -11 -136 -58 -402 -58 -331 -109 -521 -157
-584 l-19 -24 -26 26 c-24 24 -72 117 -109 212 -19 48 -42 145 -58 241 l-11
71 47 82 c25 46 67 126 91 179 25 54 55 117 67 142 22 49 84 130 98 130 5 0 9
-15 9 -33z m-267 -196 c5 -5 -3 -31 -17 -59 -24 -48 -46 -73 -46 -55 -1 4 -3
37 -6 72 l-4 64 32 -7 c18 -3 36 -10 41 -15z m-1356 -328 c-3 -10 -5 -4 -5 12
0 17 2 24 5 18 2 -7 2 -21 0 -30z"/>
<path d="M10070 7861 c-136 -58 -132 -56 -285 -116 -298 -115 -444 -203 -546
-328 -72 -90 -153 -259 -188 -392 -48 -184 -77 -830 -52 -1140 15 -170 63
-288 160 -388 96 -100 235 -159 409 -175 360 -32 640 109 748 378 40 99 46
168 42 507 -4 306 -5 321 -29 389 -53 154 -133 245 -273 314 -235 116 -574 84
-750 -71 -60 -53 -70 -51 -62 13 32 235 139 425 306 538 78 52 96 61 333 157
249 100 397 169 397 186 0 27 -67 172 -80 174 -8 1 -67 -20 -130 -46z m-257
-1107 c165 -37 263 -123 304 -266 19 -68 29 -447 15 -574 -29 -249 -189 -384
-457 -384 -238 1 -381 99 -437 299 -26 95 -27 517 0 606 40 136 118 231 236
286 108 51 215 61 339 33z"/>
<path d="M4085 7050 c-108 -28 -216 -77 -373 -167 -23 -14 -48 -23 -56 -20 -8
3 -15 32 -20 83 -3 43 -10 82 -16 88 -9 9 -177 13 -186 4 -3 -4 -6 -1679 -4
-2391 0 -4 48 -6 108 -5 l107 3 3 393 c2 329 4 392 16 392 8 0 36 -9 63 -21
137 -59 328 -99 472 -99 172 0 329 60 428 163 144 150 169 272 161 806 -4 254
-9 331 -23 391 -36 154 -126 275 -251 338 -122 61 -292 78 -429 42z m280 -231
c103 -39 166 -124 186 -252 6 -41 9 -206 7 -420 -4 -346 -4 -353 -28 -412 -86
-210 -339 -265 -681 -147 -46 17 -110 41 -141 56 l-58 26 0 470 0 470 58 37
c93 61 254 140 330 163 143 43 229 46 327 9z"/>
<path d="M11185 7054 c-160 -28 -351 -108 -408 -172 -18 -19 -17 -22 33 -98
28 -43 53 -81 55 -83 2 -2 28 12 57 31 138 90 260 121 457 116 162 -4 227 -25
302 -95 77 -72 113 -192 107 -354 l-3 -74 -330 -6 c-331 -7 -348 -8 -440 -36
-103 -31 -194 -87 -262 -163 -87 -95 -126 -239 -105 -389 41 -293 286 -451
627 -406 160 22 258 56 428 152 33 18 64 33 71 33 8 0 18 -33 27 -87 l14 -88
95 0 95 0 3 610 c2 676 0 717 -60 844 -38 82 -130 175 -211 214 -126 61 -369
83 -552 51z m599 -940 c8 -20 8 -348 0 -368 -3 -9 -52 -41 -108 -70 -198 -107
-377 -163 -484 -153 -143 13 -236 64 -284 156 -24 45 -28 65 -28 131 0 124 35
198 119 251 89 57 157 66 517 68 230 1 263 -1 268 -15z"/>
<path d="M1826 7028 c-5 -24 -21 -307 -36 -629 -21 -469 -81 -702 -209 -822
-34 -32 -58 -46 -89 -51 -24 -3 -48 -4 -53 0 -5 3 -16 0 -24 -6 -13 -10 -15
-60 -15 -294 0 -154 3 -291 6 -304 6 -22 10 -23 108 -20 l101 3 5 210 5 210
650 0 650 0 5 -210 5 -210 100 0 100 0 0 310 0 310 -62 3 c-56 3 -62 5 -67 28
-4 13 -6 351 -6 749 1 399 -2 730 -5 735 -4 6 -215 10 -585 10 l-580 0 -4 -22z
m949 -838 l0 -655 -467 -3 c-345 -2 -468 1 -468 9 0 6 13 39 29 73 91 192 117
372 141 966 7 180 14 256 23 262 6 4 176 7 377 5 l365 -2 0 -655z"/>
<path d="M4984 7036 c-3 -8 17 -86 45 -173 27 -87 75 -241 106 -343 31 -102
74 -239 95 -305 21 -66 49 -158 64 -205 73 -241 165 -530 175 -548 6 -11 29
-34 51 -52 61 -48 63 -58 34 -137 -14 -37 -36 -99 -49 -138 -32 -97 -140 -404
-154 -438 -22 -56 -21 -57 103 -57 79 0 117 4 124 13 9 11 46 106 77 202 7 22
27 78 45 125 17 47 40 112 51 145 12 33 38 107 59 165 21 58 53 146 70 195 18
50 36 99 40 110 5 11 18 47 29 80 11 33 34 98 52 145 17 47 35 96 39 110 5 14
18 50 30 80 31 82 70 191 81 225 5 17 13 39 18 50 5 11 19 47 30 80 11 33 34
98 51 145 17 47 42 117 56 155 13 39 48 135 78 215 37 100 50 149 43 158 -6 8
-41 12 -106 12 -63 0 -103 -4 -113 -12 -9 -7 -39 -83 -68 -168 -29 -85 -104
-301 -167 -480 -64 -179 -119 -336 -124 -350 -4 -14 -28 -83 -54 -155 -25 -71
-59 -170 -76 -220 -31 -90 -43 -114 -55 -103 -3 4 -14 37 -24 75 -10 37 -41
140 -68 228 -27 88 -53 176 -59 195 -6 19 -38 123 -71 230 -33 107 -90 297
-126 421 -36 125 -75 252 -86 283 l-21 56 -110 0 c-86 0 -111 -3 -115 -14z"/>
</g>
</svg>
