<svg width="347" height="45" viewBox="0 0 347 45" fill="none" xmlns="http://www.w3.org/2000/svg">
<path d="M7.94501 34.767H39.5213V41.7614H0V0.746094H7.94501V34.767ZM59.0104 38.1623L65.1219 44.2739L71.2335 38.1623L65.1219 32.0508L59.0104 38.1623ZM138.257 29.4704C138.257 38.0265 131.466 41.7614 123.182 41.7614H94.1857V0.746094H122.367C127.663 0.746094 135.948 2.44374 135.948 11.4073C135.948 13.9878 134.182 18.0621 131.195 19.2844C134.047 20.303 138.257 22.8156 138.257 29.4704ZM102.131 16.5003H121.756C124.132 16.5003 127.867 15.7533 127.867 12.0185C127.867 8.82692 125.626 7.5367 121.823 7.5367H102.131V16.5003ZM130.176 28.7913C130.176 24.2416 126.984 23.223 123.046 23.223H102.131V35.0387H123.046C126.713 35.0387 130.176 33.341 130.176 28.7913Z" fill="black"/>
<path d="M321.741 0C308.5 0 297.023 8.14873 297.023 21.2546C297.023 34.3605 308.5 42.5092 321.741 42.5092C334.983 42.5092 346.459 34.3605 346.459 21.2546C346.459 8.14873 334.915 0 321.741 0ZM321.741 35.5149C312.981 35.5149 305.104 30.8294 305.104 21.2546C305.104 11.6798 312.981 6.99433 321.741 6.99433C330.501 6.99433 338.378 11.6798 338.378 21.2546C338.31 30.8973 330.433 35.5149 321.741 35.5149Z" fill="black"/>
<path d="M266.121 24.2416C272.572 23.1551 276.375 18.13 276.375 12.6976C276.375 7.60461 273.591 0.746094 260.96 0.746094H232.508V41.7614H240.453V24.649H257.565L269.381 41.7614H278.616L266.121 24.2416ZM240.453 17.9942V7.46879H260.757C263.201 7.46879 268.294 8.07995 268.294 12.5617C268.294 17.0436 263.201 17.9942 260.757 17.9942H240.453Z" fill="black"/>
<path d="M197.806 21.9328C197.806 30.4889 195.43 35.514 183.614 35.514C171.798 35.514 169.422 30.4889 169.422 21.9328V0.746094H161.477V23.1551C161.477 35.0387 167.656 42.5083 183.614 42.5083C199.572 42.5083 205.751 35.0387 205.751 23.1551V0.746094H197.806V21.9328Z" fill="black"/>
</svg>
