<?xml version="1.0" encoding="utf-8"?>
<!-- Generator: Adobe Illustrator 28.4.1, SVG Export Plug-In . SVG Version: 6.00 Build 0)  -->
<svg version="1.1" id="Layer_1" xmlns="http://www.w3.org/2000/svg" xmlns:xlink="http://www.w3.org/1999/xlink" x="0px" y="0px"
	 viewBox="0 0 511 66" style="enable-background:new 0 0 511 66;" xml:space="preserve">
<path d="M11.7,51.2h46.5v10.3H0V1.1h11.7V51.2z M86.9,56.2l9,9l9-9l-9-9L86.9,56.2z M203.6,43.4c0,12.6-10,18.1-22.2,18.1h-42.7V1.1
	h41.5c7.8,0,20,2.5,20,15.7c0,3.8-2.6,9.8-7,11.6C197.4,29.9,203.6,33.6,203.6,43.4z M150.4,24.3h28.9c3.5,0,9-1.1,9-6.6
	c0-4.7-3.3-6.6-8.9-6.6h-29V24.3z M191.7,42.4c0-6.7-4.7-8.2-10.5-8.2h-30.8v17.4h30.8C186.6,51.6,191.7,49.1,191.7,42.4z"/>
<g class="cut">
	<path d="M473.8,0c-19.5,0-36.4,12-36.4,31.3s16.9,31.3,36.4,31.3s36.4-12,36.4-31.3S493.2,0,473.8,0z M473.8,52.3
		c-12.9,0-24.5-6.9-24.5-21c0-14.1,11.6-21,24.5-21c12.9,0,24.5,6.9,24.5,21C498.2,45.5,486.6,52.3,473.8,52.3z"/>
	<path d="M391.9,35.7c9.5-1.6,15.1-9,15.1-17c0-7.5-4.1-17.6-22.7-17.6h-41.9v60.4h11.7V36.3h25.2l17.4,25.2h13.6L391.9,35.7z
		 M354.1,26.5V11H384c3.6,0,11.1,0.9,11.1,7.5c0,6.6-7.5,8-11.1,8H354.1z"/>
	<path d="M291.3,32.3c0,12.6-3.5,20-20.9,20s-20.9-7.4-20.9-20V1.1h-11.7v33c0,17.5,9.1,28.5,32.6,28.5s32.6-11,32.6-28.5v-33h-11.7
		V32.3z"/>
</g>
</svg>
