<svg width="124" height="124" viewBox="0 0 124 124" fill="none" xmlns="http://www.w3.org/2000/svg">
<g clip-path="url(#clip0_5868_935)">
<path fill-rule="evenodd" clip-rule="evenodd" d="M62 112.197C89.7021 112.197 112.197 89.7021 112.197 62C112.197 34.2979 89.7021 11.8029 62 11.8029C34.2979 11.8029 11.8029 34.2979 11.8029 62C11.8029 89.7021 34.2979 112.197 62 112.197ZM62 124C96.2284 124 124 96.2284 124 62C124 27.7716 96.2284 0 62 0C27.7716 0 0 27.7716 0 62C0 96.2284 27.7716 124 62 124Z" fill="black"/>
<path d="M83.732 94.1447H40.2695V29.8535H54.0165V81.3003H83.6626V94.1447H83.732Z" fill="black"/>
</g>
<defs>
<clipPath id="clip0_5868_935">
<rect width="124" height="124" fill="white"/>
</clipPath>
</defs>
</svg>
