<svg width="121" height="122" viewBox="0 0 121 122" fill="none" xmlns="http://www.w3.org/2000/svg">
<g clip-path="url(#clip0_1353_6)">
<path fill-rule="evenodd" clip-rule="evenodd" d="M60.5 110.083C87.5319 110.083 109.483 88.132 109.483 61.1001C109.483 34.0682 87.5319 12.1175 60.5 12.1175C33.4681 12.1175 11.5174 34.0682 11.5174 61.1001C11.5174 88.132 33.4681 110.083 60.5 110.083ZM60.5 121.6C93.9003 121.6 121 94.5004 121 61.1001C121 27.6998 93.9003 0.600098 60.5 0.600098C27.0997 0.600098 0 27.6998 0 61.1001C0 94.5004 27.0997 121.6 60.5 121.6Z" fill="black"/>
<path d="M35.5005 91.7904L51.7603 30.4097H69.3073L85.5671 91.7904H71.814L60.5677 45.3145H60.2289L49.1181 91.7904H35.5005Z" fill="black"/>
</g>
<defs>
<clipPath id="clip0_1353_6">
<rect width="121" height="121" fill="white" transform="translate(0 0.600098)"/>
</clipPath>
</defs>
</svg>
