<svg width="262" height="99" viewBox="0 0 262 99" fill="none" xmlns="http://www.w3.org/2000/svg">
<g clip-path="url(#clip0_4919_866)">
<path d="M236.908 68.6564C232.24 68.6564 228.009 67.5597 224.143 65.3662C220.35 63.1727 217.36 60.1749 215.099 56.4459C212.911 52.717 211.816 48.6224 211.816 44.1623C211.816 39.7022 212.911 35.6077 215.099 31.8787C217.36 28.1498 220.35 25.2251 224.143 23.1047C228.009 20.9112 232.24 19.8145 236.908 19.8145C241.576 19.8145 245.879 20.9112 249.672 23.1047C253.538 25.2251 256.529 28.1498 258.717 31.8787C260.905 35.6077 261.999 39.7022 261.999 44.1623C261.999 48.6224 260.905 52.717 258.717 56.4459C256.529 60.1749 253.538 63.1727 249.672 65.3662C245.879 67.5597 241.576 68.6564 236.908 68.6564ZM236.908 56.5922C240.19 56.5922 242.962 55.4223 245.296 53.0094C247.63 50.5966 248.797 47.6719 248.797 44.2354C248.797 40.7989 247.63 37.8743 245.296 35.5345C242.962 33.1217 240.19 31.9518 236.908 31.9518C233.625 31.9518 230.854 33.1217 228.52 35.5345C226.258 37.8743 225.164 40.7258 225.164 44.2354C225.164 47.745 226.258 50.6697 228.52 53.0094C230.854 55.3492 233.625 56.5922 236.908 56.5922Z" fill="black"/>
<path d="M160.758 67.7059V20.765H173.814V27.4186H174.106C175.273 25.5176 177.096 23.7628 179.503 22.2273C181.983 20.6187 184.901 19.8145 188.11 19.8145C191.538 19.8145 194.529 20.6187 197.155 22.2273C199.781 23.8359 201.823 26.1756 203.355 29.1734C204.886 32.1712 205.689 35.6808 205.689 39.7753V67.6328H192.56V41.6032C192.56 38.6786 191.757 36.4119 190.153 34.7303C188.548 32.9755 186.433 32.0981 183.88 32.0981C180.889 32.0981 178.482 33.1217 176.513 35.169C174.616 37.1431 173.741 39.7753 173.741 42.9924V67.6328H160.758V67.7059Z" fill="black"/>
<path d="M122.322 68.6566C118.529 68.6566 114.955 67.6329 111.673 65.5857C108.463 63.4653 105.91 60.5406 103.941 56.8848C102.045 53.1558 101.023 48.9151 101.023 44.2356C101.023 39.5561 101.972 35.3154 103.941 31.6595C105.837 27.9306 108.463 25.0059 111.673 22.9586C114.955 20.9114 118.529 19.8877 122.322 19.8877C125.896 19.8877 128.959 20.692 131.585 22.3006C134.211 23.836 136.108 25.5908 137.275 27.4919H137.566V0H150.623V67.7061H137.566V61.0524H137.275C136.108 62.9535 134.211 64.7814 131.585 66.39C128.959 67.8523 125.823 68.6566 122.322 68.6566ZM125.969 56.5923C128.011 56.5923 129.908 56.0074 131.658 54.9838C133.482 53.887 134.868 52.4247 135.889 50.5236C136.983 48.6226 137.493 46.5753 137.493 44.2356C137.493 41.8959 136.91 39.9217 135.889 38.0207C134.868 36.1196 133.409 34.6573 131.658 33.5606C129.908 32.4638 128.011 31.952 125.969 31.952C123.927 31.952 121.957 32.5369 120.207 33.5606C118.456 34.6573 117.07 36.1196 115.976 38.0207C114.955 39.9217 114.444 41.969 114.444 44.2356C114.444 46.5022 114.955 48.6226 115.976 50.5236C117.07 52.4247 118.456 53.887 120.207 54.9838C122.03 56.0074 123.927 56.5923 125.969 56.5923Z" fill="black"/>
<path d="M67.1788 68.6571C63.7506 68.6571 60.6871 67.8528 57.9884 66.2442C55.3625 64.6356 53.2473 62.2959 51.7155 59.2981C50.2567 56.3003 49.5273 52.7176 49.5273 48.55V20.7656H62.5106V46.8683C62.5106 49.7198 63.313 51.9865 64.9177 53.7413C66.5223 55.4229 68.6376 56.2272 71.1905 56.2272C74.181 56.2272 76.588 55.2036 78.4115 53.2294C80.308 51.2553 81.3291 48.6231 81.3291 45.4059V20.7656H94.3854V67.6334H81.4021V60.9798H81.1103C80.0162 62.8808 78.1927 64.7088 75.7128 66.3173C73.1599 67.8528 70.3152 68.6571 67.1788 68.6571Z" fill="black"/>
<path d="M45.5874 67.7061H0V0H14.4421V54.1795H45.5874V67.7061Z" fill="black"/>
<path d="M256.019 93.7355C254.852 93.7355 253.758 93.443 252.737 92.8581C251.716 92.2731 250.986 91.542 250.403 90.5183C249.819 89.4947 249.527 88.398 249.527 87.2281C249.527 86.0582 249.819 84.9615 250.403 83.9378C250.986 82.9873 251.716 82.183 252.737 81.5981C253.685 81.0132 254.779 80.7207 255.946 80.7207C257.113 80.7207 258.134 81.0132 259.082 81.525C260.031 82.0368 260.76 82.768 261.271 83.7185C261.781 84.669 262.073 85.6926 262.073 86.8625C262.073 87.3012 262 87.7399 261.927 88.1786H252.299C252.445 89.056 252.883 89.7872 253.612 90.3721C254.341 90.957 255.217 91.2495 256.238 91.2495C257.478 91.2495 258.645 90.7377 259.739 89.7141L261.417 91.3957C260.906 91.9807 260.249 92.5656 259.301 93.0043C258.28 93.5161 257.186 93.7355 256.019 93.7355ZM259.228 86.0582C259.01 85.1077 258.645 84.3765 258.061 83.8647C257.478 83.3529 256.748 83.0604 255.8 83.0604C254.852 83.0604 254.05 83.3529 253.393 83.8647C252.81 84.3765 252.372 85.1077 252.08 86.0582H259.228Z" fill="black"/>
<path d="M241.941 93.5161V81.0132H244.567V82.6217H244.64C245.005 82.1099 245.443 81.6712 246.099 81.3056C246.755 80.8669 247.558 80.7207 248.36 80.7207H249.017V83.426C248.652 83.3529 248.287 83.2798 247.995 83.2798C247.412 83.2798 246.828 83.426 246.318 83.7916C245.807 84.0841 245.37 84.5228 245.078 85.1077C244.786 85.6926 244.64 86.3507 244.64 87.0087V93.3699L241.941 93.5161Z" fill="black"/>
<path d="M232.608 93.7349C231.66 93.7349 230.785 93.5155 230.055 93.0768C229.326 92.6381 228.743 91.9801 228.305 91.1758C227.867 90.3715 227.648 89.3479 227.648 88.2511V80.9395H230.274V88.2511C230.274 89.1285 230.566 89.8597 231.077 90.4446C231.587 90.9564 232.317 91.2489 233.192 91.2489C234.213 91.2489 235.015 90.9564 235.599 90.2984C236.255 89.6403 236.547 88.7629 236.547 87.7393V80.9395H239.173V93.4424H236.547V91.6876C236.182 92.1994 235.672 92.6381 235.015 93.0768C234.213 93.5155 233.411 93.7349 232.608 93.7349Z" fill="black"/>
<path d="M223.999 93.6625C222.759 93.6625 221.811 93.297 221.082 92.5658C220.352 91.8346 220.061 90.811 220.061 89.4949V83.4993H217.727V81.0134H219.185C219.55 81.0134 219.915 80.8671 220.061 80.6478C220.279 80.4284 220.352 80.0628 220.352 79.551V76.8457H222.686V81.0134H225.677V83.4993H222.686V89.2024C222.686 89.8605 222.832 90.2992 223.124 90.6648C223.416 90.9572 223.854 91.1766 224.51 91.1766C225.021 91.1766 225.458 91.0303 225.969 90.811V93.297C225.75 93.3701 225.458 93.5163 225.093 93.5894C224.729 93.5894 224.364 93.6625 223.999 93.6625Z" fill="black"/>
<path d="M211.82 93.7355C210.653 93.7355 209.559 93.443 208.537 92.8581C207.516 92.2731 206.787 91.542 206.203 90.5183C205.62 89.4947 205.328 88.398 205.328 87.2281C205.328 86.0582 205.62 84.9615 206.203 83.9378C206.787 82.9142 207.589 82.1099 208.537 81.5981C209.559 81.0132 210.653 80.7207 211.82 80.7207C212.987 80.7207 214.008 80.9401 214.956 81.4519C215.831 81.9637 216.561 82.5486 217.144 83.2067L215.248 84.8152C214.3 83.7185 213.133 83.2067 211.82 83.2067C211.09 83.2067 210.434 83.3529 209.85 83.7185C209.267 84.0841 208.756 84.5228 208.465 85.1808C208.1 85.7658 207.954 86.4969 207.954 87.2281C207.954 87.9593 208.1 88.6904 208.465 89.2754C208.829 89.8603 209.267 90.3721 209.85 90.7377C210.434 91.1033 211.163 91.2495 211.82 91.2495C212.476 91.2495 213.206 91.1033 213.789 90.8108C214.373 90.5183 214.883 90.0796 215.321 89.5678L217.217 91.1764C216.634 91.8344 215.904 92.4925 214.956 93.0043C214.081 93.5161 212.987 93.7355 211.82 93.7355Z" fill="black"/>
<path d="M198.179 93.7355C197.012 93.7355 195.918 93.443 194.897 92.8581C193.876 92.2731 193.146 91.542 192.563 90.5183C191.979 89.4947 191.688 88.398 191.688 87.2281C191.688 86.0582 191.979 84.9615 192.563 83.9378C193.146 82.9873 193.876 82.183 194.897 81.5981C195.845 81.0132 196.939 80.7207 198.106 80.7207C199.273 80.7207 200.294 81.0132 201.243 81.525C202.191 82.0368 202.92 82.768 203.431 83.7185C203.941 84.669 204.233 85.6926 204.233 86.8625C204.233 87.3012 204.16 87.7399 204.087 88.1786H194.459C194.605 89.056 195.043 89.7872 195.772 90.3721C196.502 90.957 197.377 91.2495 198.398 91.2495C199.638 91.2495 200.805 90.7377 201.899 89.7141L203.577 91.3957C203.066 91.9807 202.41 92.5656 201.461 93.0043C200.44 93.5161 199.419 93.7355 198.179 93.7355ZM201.461 86.0582C201.243 85.1077 200.878 84.3765 200.294 83.8647C199.711 83.3529 198.981 83.0604 198.033 83.0604C197.085 83.0604 196.283 83.3529 195.626 83.8647C195.043 84.3765 194.605 85.1077 194.313 86.0582H201.461Z" fill="black"/>
<path d="M188.699 93.6625C187.459 93.6625 186.51 93.297 185.781 92.5658C185.125 91.8346 184.76 90.811 184.76 89.4949V83.4993H182.426V81.0134H183.885C184.322 81.0134 184.541 80.8671 184.76 80.6478C184.979 80.4284 185.052 80.0628 185.052 79.551V76.8457H187.386V81.0134H190.376V83.4993H187.386V89.2024C187.386 89.8605 187.532 90.2992 187.823 90.6648C188.115 90.9572 188.553 91.1766 189.209 91.1766C189.72 91.1766 190.157 91.0303 190.668 90.811V93.297C190.449 93.3701 190.157 93.5163 189.793 93.5894C189.428 93.5894 189.063 93.6625 188.699 93.6625Z" fill="black"/>
<path d="M180.673 93.5171H178.047V81.0142H180.673V93.5171ZM179.36 78.6744C178.922 78.6744 178.63 78.5282 178.266 78.2357C177.974 77.9432 177.828 77.5777 177.828 77.139C177.828 76.7003 177.974 76.3347 178.266 76.0422C178.558 75.7497 178.922 75.6035 179.36 75.6035C179.797 75.6035 180.089 75.7497 180.454 76.0422C180.746 76.3347 180.965 76.7003 180.965 77.139C180.965 77.5777 180.819 77.9432 180.454 78.2357C180.089 78.5282 179.725 78.6744 179.36 78.6744Z" fill="black"/>
<path d="M163.75 93.5166V75.3105H166.376V82.8416C166.668 82.3298 167.178 81.8911 167.908 81.4524C168.637 81.0136 169.366 80.7943 170.242 80.7943C171.19 80.7943 172.065 81.0136 172.795 81.4524C173.524 81.8911 174.107 82.5491 174.545 83.3534C174.983 84.1577 175.202 85.1082 175.202 86.2781V93.5897H172.576V86.2781C172.576 85.4007 172.284 84.6695 171.773 84.0845C171.263 83.4996 170.606 83.2803 169.731 83.2803C168.71 83.2803 167.908 83.5727 167.251 84.2308C166.595 84.8888 166.303 85.6931 166.303 86.7899V93.5897L163.75 93.5166Z" fill="black"/>
<path d="M156.531 93.7355C155.364 93.7355 154.27 93.443 153.248 92.8581C152.227 92.2731 151.498 91.542 150.914 90.5183C150.331 89.4947 150.039 88.398 150.039 87.2281C150.039 86.0582 150.331 84.9615 150.914 83.9378C151.498 82.9142 152.3 82.1099 153.248 81.5981C154.27 81.0132 155.364 80.7207 156.531 80.7207C157.698 80.7207 158.719 80.9401 159.667 81.4519C160.542 81.9637 161.272 82.5486 161.855 83.2067L159.959 84.8152C159.011 83.7185 157.844 83.2067 156.531 83.2067C155.801 83.2067 155.145 83.3529 154.561 83.7185C153.978 84.0841 153.54 84.5228 153.175 85.1808C152.884 85.7658 152.665 86.4969 152.665 87.2281C152.665 87.9593 152.811 88.6904 153.175 89.2754C153.54 89.8603 153.978 90.3721 154.561 90.7377C155.145 91.1033 155.874 91.2495 156.531 91.2495C157.187 91.2495 157.917 91.1033 158.5 90.8108C159.084 90.5183 159.594 90.0796 160.032 89.5678L161.928 91.1764C161.345 91.8344 160.615 92.4925 159.667 93.0043C158.719 93.5161 157.698 93.7355 156.531 93.7355Z" fill="black"/>
<path d="M142.453 93.5161V81.0132H145.079V82.6217H145.152C145.444 82.1099 145.954 81.6712 146.611 81.3056C147.267 80.8669 147.997 80.7207 148.872 80.7207H149.528V83.426C149.091 83.3529 148.799 83.2798 148.507 83.2798C147.924 83.2798 147.34 83.426 146.83 83.7916C146.319 84.0841 145.881 84.5228 145.59 85.1077C145.298 85.6926 145.152 86.3507 145.152 87.0087V93.3699L142.453 93.5161Z" fill="black"/>
<path d="M134.573 80.7207C135.595 80.7207 136.47 80.9401 137.272 81.3788C138.075 81.8175 138.658 82.4024 139.096 83.1336C139.533 83.8647 139.752 84.669 139.752 85.5464V93.5161H137.272V91.7613C136.98 92.2731 136.397 92.7118 135.667 93.1505C134.938 93.5892 134.136 93.8086 133.188 93.8086C132.385 93.8086 131.656 93.6624 130.999 93.2968C130.343 93.0043 129.832 92.4925 129.468 91.9807C129.103 91.3957 128.957 90.8108 128.957 90.1528C128.957 89.1291 129.322 88.2517 129.978 87.5206C130.635 86.8625 131.656 86.3507 132.896 86.2045L137.199 85.4733V85.4002C137.199 84.7421 136.98 84.2303 136.47 83.7916C135.959 83.3529 135.376 83.1336 134.646 83.1336C133.99 83.1336 133.333 83.2798 132.823 83.5723C132.312 83.8647 131.802 84.2303 131.364 84.7421L129.686 83.1336C130.999 81.525 132.604 80.7207 134.573 80.7207ZM133.625 91.542C134.282 91.542 134.865 91.3957 135.376 91.1033C135.886 90.8108 136.324 90.299 136.689 89.7872C137.053 89.2754 137.126 88.6173 137.126 87.9593V87.5937L133.479 88.2517C132.823 88.398 132.385 88.6173 132.021 88.9098C131.729 89.2022 131.51 89.5678 131.51 89.9334C131.51 90.3721 131.729 90.8108 132.093 91.1033C132.458 91.3957 132.969 91.542 133.625 91.542Z" fill="black"/>
<path d="M114.663 93.7357C113.642 93.7357 112.621 93.4432 111.746 92.9314C110.87 92.3465 110.141 91.6153 109.63 90.5917C109.12 89.6412 108.828 88.4713 108.828 87.2283C108.828 85.9853 109.12 84.8886 109.63 83.8649C110.141 82.9144 110.87 82.1101 111.746 81.5252C112.621 80.9403 113.642 80.6478 114.663 80.6478C115.612 80.6478 116.487 80.8672 117.289 81.3059C118.091 81.7446 118.602 82.1833 118.967 82.6951V75.1641H121.593V93.3701H118.894V91.6153C118.602 92.1271 118.019 92.5658 117.216 93.0045C116.487 93.5163 115.612 93.7357 114.663 93.7357ZM115.174 91.2497C115.83 91.2497 116.487 91.1035 117.07 90.7379C117.654 90.3723 118.091 89.9336 118.456 89.2756C118.821 88.6175 118.967 87.9595 118.967 87.2283C118.967 86.4972 118.821 85.766 118.456 85.181C118.164 84.523 117.654 84.0843 117.07 83.7187C116.487 83.3531 115.903 83.2069 115.174 83.2069C114.444 83.2069 113.861 83.3531 113.277 83.7187C112.694 84.0843 112.256 84.523 111.892 85.181C111.6 85.766 111.381 86.4972 111.381 87.2283C111.381 87.9595 111.527 88.6906 111.892 89.2756C112.256 89.8605 112.694 90.3723 113.277 90.7379C113.861 91.1035 114.444 91.2497 115.174 91.2497Z" fill="black"/>
<path d="M95.4062 93.5161V81.0132H98.0321V82.768C98.3238 82.2562 98.8344 81.8175 99.5638 81.3788C100.293 80.9401 101.023 80.7207 101.898 80.7207C102.846 80.7207 103.721 80.9401 104.451 81.3788C105.18 81.8175 105.764 82.4755 106.201 83.2798C106.639 84.0841 106.858 85.0346 106.858 86.2045V93.5161H104.232V86.2045C104.232 85.3271 103.94 84.5959 103.43 84.011C102.919 83.426 102.263 83.2067 101.387 83.2067C100.366 83.2067 99.5638 83.4991 98.9074 84.1572C98.2509 84.8152 97.9591 85.6195 97.9591 86.7163V93.5161H95.4062Z" fill="black"/>
<path d="M86.0693 93.7349C85.1211 93.7349 84.2458 93.5155 83.5164 93.0768C82.787 92.6381 82.2035 91.9801 81.7658 91.1758C81.3282 90.3715 81.1094 89.3479 81.1094 88.2511V80.9395H83.7352V88.2511C83.7352 89.1285 84.027 89.8597 84.5376 90.4446C85.0481 90.9564 85.7775 91.2489 86.5799 91.2489C87.5281 91.2489 88.4034 90.9564 88.9869 90.2984C89.6433 89.6403 89.9351 88.7629 89.9351 87.7393V80.9395H92.5609V93.4424H89.9351V91.6876C89.6433 92.1994 89.0598 92.6381 88.4034 93.0768C87.674 93.5155 86.8716 93.7349 86.0693 93.7349Z" fill="black"/>
<path d="M72.6479 93.7355C71.4809 93.7355 70.3138 93.443 69.3656 92.8581C68.4174 92.2731 67.6151 91.542 67.0315 90.5183C66.448 89.4947 66.1562 88.398 66.1562 87.2281C66.1562 86.0582 66.448 84.9615 67.0315 83.9378C67.6151 82.9142 68.3444 82.1099 69.3656 81.5981C70.3868 81.0132 71.4809 80.7207 72.6479 80.7207C73.8149 80.7207 74.909 81.0132 75.9302 81.5981C76.9514 82.183 77.7537 82.9873 78.2643 83.9378C78.8478 84.8884 79.1395 85.9851 79.1395 87.2281C79.1395 88.4711 78.8478 89.5678 78.2643 90.5183C77.6808 91.4689 76.8784 92.2731 75.9302 92.8581C74.982 93.443 73.8149 93.7355 72.6479 93.7355ZM72.6479 91.2495C73.3773 91.2495 74.0338 91.1033 74.6173 90.7377C75.2008 90.3721 75.7114 89.9334 76.0031 89.2754C76.3678 88.6173 76.5137 87.9593 76.5137 87.2281C76.5137 86.4969 76.3678 85.7658 76.0031 85.1808C75.7114 84.5228 75.2008 84.0841 74.6173 83.7185C74.0338 83.3529 73.3773 83.2067 72.6479 83.2067C71.9185 83.2067 71.262 83.3529 70.6785 83.7185C70.095 84.0841 69.6574 84.5228 69.2927 85.1808C69.0009 85.7658 68.7821 86.4969 68.7821 87.2281C68.7821 87.9593 68.928 88.6904 69.2927 89.2754C69.6574 89.8603 70.095 90.3721 70.6785 90.7377C71.262 91.1033 71.9185 91.2495 72.6479 91.2495Z" fill="black"/>
<path d="M58.5703 93.5161V81.0132H61.1961V82.6217H61.2691C61.5608 82.1099 62.0714 81.6712 62.7279 81.3056C63.3843 80.8669 64.1137 80.7207 64.989 80.7207H65.6455V83.426C65.2078 83.3529 64.9161 83.2798 64.6243 83.2798C64.0408 83.2798 63.4573 83.426 62.9467 83.7916C62.4361 84.0841 61.9985 84.5228 61.7067 85.1077C61.415 85.6926 61.2691 86.3507 61.2691 87.0087V93.3699L58.5703 93.5161Z" fill="black"/>
<path d="M49.3833 98.9999C48.2163 98.9999 47.1222 98.7074 46.1011 98.1956C45.0799 97.6838 44.3505 97.0257 43.9129 96.3677L45.7364 94.686C46.1011 95.1247 46.5387 95.5634 47.2681 95.929C47.9975 96.2946 48.6539 96.5139 49.3833 96.5139C50.5504 96.5139 51.4257 96.1483 52.1551 95.4172C52.8845 94.686 53.1762 93.7355 53.1762 92.4925V91.3957C52.8115 91.9076 52.3009 92.3463 51.5715 92.7118C50.8421 93.0774 50.0398 93.2968 49.1645 93.2968C48.2163 93.2968 47.2681 93.0043 46.3928 92.4925C45.5175 91.9807 44.8611 91.1764 44.3505 90.2259C43.8399 89.2754 43.6211 88.1786 43.6211 87.0087C43.6211 85.8389 43.8399 84.7421 44.3505 83.7916C44.8611 82.8411 45.5905 82.1099 46.3928 81.525C47.2681 81.0132 48.2163 80.7207 49.1645 80.7207C50.0398 80.7207 50.8421 80.94 51.5715 81.3056C52.3009 81.6712 52.8115 82.1099 53.1762 82.6217V81.0132H55.8021V92.4925C55.8021 93.7355 55.5103 94.8322 54.9997 95.8559C54.4891 96.8795 53.6868 97.6107 52.7386 98.1956C51.7904 98.7805 50.6233 98.9999 49.3833 98.9999ZM49.6751 90.7377C50.3316 90.7377 50.9151 90.5915 51.4257 90.299C51.9362 90.0065 52.3739 89.4947 52.7386 88.9829C53.1033 88.4711 53.1762 87.7399 53.1762 87.0087C53.1762 86.2776 53.0303 85.6195 52.7386 85.0346C52.4468 84.4497 52.0092 84.011 51.4257 83.7185C50.9151 83.426 50.3316 83.2067 49.6751 83.2067C49.0186 83.2067 48.4351 83.3529 47.9245 83.7185C47.414 84.011 46.9763 84.4497 46.6116 85.0346C46.3199 85.6195 46.174 86.2776 46.174 87.0087C46.174 87.7399 46.3199 88.398 46.6116 88.9829C46.9034 89.5678 47.341 90.0065 47.9245 90.299C48.4351 90.5915 49.0186 90.7377 49.6751 90.7377Z" fill="black"/>
<path d="M40.1907 81.0126H42.8895L37.7837 94.9779C36.8355 97.6832 35.3037 98.9993 33.2614 98.9993C32.8967 98.9993 32.532 98.9262 32.1673 98.853C31.8026 98.7799 31.5109 98.7068 31.365 98.5606V96.0746C31.5109 96.2208 31.7297 96.294 32.0214 96.3671C32.3132 96.4402 32.605 96.5133 32.8967 96.5133C33.4073 96.5133 33.8449 96.3671 34.2096 96.0746C34.5743 95.7821 34.939 95.3434 35.0849 94.7585L35.5955 93.4424L30.125 80.9395H32.9697L36.9813 90.3715H37.0543L40.1907 81.0126Z" fill="black"/>
<path d="M24.0695 80.7207C25.0907 80.7207 25.9659 80.9401 26.7683 81.3788C27.5706 81.8175 28.1541 82.4024 28.5918 83.1336C29.0294 83.8647 29.2482 84.669 29.2482 85.5464V93.5161H26.7683V91.7613C26.4036 92.2731 25.893 92.7118 25.1636 93.1505C24.4342 93.5892 23.5589 93.8086 22.6836 93.8086C21.8813 93.8086 21.1519 93.6624 20.4954 93.2968C19.839 93.0043 19.3284 92.4925 18.9637 91.9807C18.599 91.3957 18.4531 90.8108 18.4531 90.1528C18.4531 89.1291 18.8178 88.2517 19.4743 87.5206C20.2037 86.8625 21.1519 86.3507 22.3919 86.2045L26.6953 85.4733V85.4002C26.6953 84.7421 26.4765 84.2303 25.9659 83.7916C25.4554 83.3529 24.8718 83.1336 24.1424 83.1336C23.486 83.1336 22.8295 83.2798 22.3189 83.5723C21.8084 83.8647 21.2978 84.2303 20.8601 84.7421L19.1825 83.1336C20.4954 81.525 22.1001 80.7207 24.0695 80.7207ZM23.1213 91.542C23.7777 91.542 24.3613 91.3957 24.8718 91.1033C25.3824 90.8108 25.8201 90.299 26.1848 89.7872C26.5495 89.2754 26.6224 88.6173 26.6224 87.9593V87.5937L22.9754 88.2517C22.3189 88.398 21.8813 88.6173 21.5166 88.9098C21.1519 89.2022 21.006 89.5678 21.006 89.9334C21.006 90.3721 21.2248 90.8108 21.5895 91.1033C21.9542 91.3957 22.4648 91.542 23.1213 91.542Z" fill="black"/>
<path d="M16.2665 93.5166H13.6406V75.3105H16.2665V93.5166Z" fill="black"/>
<path d="M0.0742188 97.904V80.8678H2.40829V82.4764C2.84593 81.8914 3.35651 81.4527 4.01297 81.1603C4.66943 80.8678 5.39883 80.6484 6.20117 80.6484C7.29527 80.6484 8.24348 80.9409 9.11876 81.5258C9.99404 82.1108 10.6505 82.8419 11.0881 83.7925C11.5258 84.743 11.8175 85.8397 11.8175 86.9365C11.8175 88.0332 11.5987 89.13 11.0881 90.0805C10.6505 91.031 9.99404 91.7622 9.11876 92.3471C8.24348 92.932 7.29527 93.2245 6.20117 93.2245C5.39883 93.2245 4.66943 93.0783 4.01297 92.7127C3.35651 92.4202 2.84593 91.9084 2.40829 91.3966V97.904H0.0742188ZM5.83647 90.9579C6.56587 90.9579 7.14939 90.8117 7.7329 90.373C8.31642 89.9343 8.68112 89.4956 8.97288 88.9106C9.26464 88.3257 9.41052 87.5945 9.41052 86.8634C9.41052 86.1322 9.26464 85.401 8.97288 84.8161C8.68112 84.2312 8.31642 83.7193 7.7329 83.3538C7.14939 82.9882 6.56587 82.8419 5.83647 82.8419C5.10707 82.8419 4.52355 82.9882 3.94003 83.4269C3.42945 83.7925 2.99181 84.3043 2.70005 84.8892C2.40829 85.4741 2.26241 86.2053 2.26241 86.9365C2.26241 87.6676 2.40829 88.3988 2.70005 88.9837C2.99181 89.5687 3.35651 90.0805 3.94003 90.4461C4.52355 90.8117 5.18001 90.9579 5.83647 90.9579Z" fill="black"/>
</g>
<defs>
<clipPath id="clip0_4919_866">
<rect width="262" height="99" fill="white"/>
</clipPath>
</defs>
</svg>
