<svg width="320" height="244" viewBox="0 0 320 244" fill="none" xmlns="http://www.w3.org/2000/svg">
<path fill-rule="evenodd" clip-rule="evenodd" d="M129.557 0.0499078C123.78 0.746945 119.308 3.80618 116.205 9.18358C115.257 10.8266 103.274 31.3974 95.8305 44.1584C93.26 48.5658 91.218 52.3344 90.8662 53.3211C89.6748 56.6612 89.5165 59.5949 90.3484 62.9227C90.9665 65.3951 91.1167 65.6809 97.9842 77.457C98.8801 78.9934 100.577 81.9099 101.756 83.938C108.88 96.1984 113.527 104.17 115.432 107.401C118.943 113.356 121.452 115.569 126.625 117.275L128.204 117.795H143.651H159.099L159.212 89.972L159.324 62.1486L187.175 62.0368C202.493 61.9754 215.07 61.9528 215.125 61.9865C215.425 62.1718 213.759 65.1685 204.925 80.3395C199.586 89.5091 194.693 97.9167 194.054 99.0229C191.191 103.973 189.553 106.695 188.873 107.627C188.262 108.465 185.81 112.543 183.398 116.734L182.852 117.684H183.378C184.272 117.684 187.309 116.66 188.685 115.894C190.553 114.856 192.421 113.312 193.686 111.761C194.288 111.024 196.74 107.051 199.136 102.934C201.533 98.8162 205.166 92.5811 207.21 89.078C209.255 85.575 212.007 80.8483 213.326 78.5744C214.645 76.3005 216.807 72.5795 218.13 70.3056C221.538 64.4482 222.32 62.0245 222.067 58.0904C221.824 54.3214 221.282 52.9709 217.237 46.0579C215.87 43.7226 213.787 40.1525 212.609 38.1244C211.431 36.0963 207.243 28.9058 203.302 22.1455C199.362 15.3852 195.94 9.50986 195.698 9.08927C193.535 5.33389 190.71 2.76967 187.151 1.33336C183.755 -0.0374731 185.879 0.0552714 156.844 0.00990477C142.208 -0.0128903 129.929 0.00498816 129.557 0.0499078ZM152.645 6.4694C152.831 6.69221 152.883 20.62 152.841 59.155L152.785 111.538L141.735 111.604C129.871 111.675 129.001 111.614 126.738 110.56C124.33 109.437 122.94 107.721 119.203 101.258C116.099 95.8877 114.972 93.9528 111.396 87.8489C102.373 72.4468 97.2423 63.4595 96.8154 62.3061C96.1172 60.4206 96.0971 57.687 96.7666 55.7163C97.0262 54.952 98.1294 52.8182 99.2179 50.9745C100.306 49.1308 103.358 43.9014 105.999 39.3535C116.207 21.7752 122.263 11.4488 122.91 10.5173C123.897 9.09418 125.615 7.79263 127.64 6.93268C128.586 6.5313 129.455 6.49376 140.382 6.38336C146.831 6.31833 152.172 6.24279 152.25 6.21575C152.327 6.18871 152.505 6.30291 152.645 6.4694ZM175.912 6.44504L183.253 6.5018L184.984 7.34969C185.935 7.8161 187.204 8.67091 187.803 9.24928C188.903 10.3119 189.267 10.8648 192.312 16.1115C193.239 17.7094 194.176 19.3184 194.393 19.6872C195.086 20.8625 205.656 38.9901 207.815 42.7057C208.958 44.6724 210.921 48.0527 212.178 50.2178C213.434 52.3829 214.461 54.2872 214.461 54.4494C214.461 54.6119 214.241 54.9777 213.971 55.2622L213.481 55.7794H186.346H159.212V31.1033C159.212 15.0419 159.289 6.40124 159.435 6.35274C159.557 6.31185 161.663 6.30313 164.114 6.3333C166.565 6.36347 171.874 6.41375 175.912 6.44504ZM105.54 144.186C100.393 144.787 96.1805 146.699 92.7859 149.977C89.1694 153.468 87.0706 157.692 85.7895 164.056C85.2185 166.892 85.2066 175.24 85.7692 178.135C86.9773 184.351 88.8968 188.298 92.4608 191.892C95.3148 194.77 97.4014 195.968 101.707 197.199C102.633 197.464 104.001 197.556 107.119 197.562C110.763 197.569 111.509 197.508 113.018 197.078C115.065 196.494 116.936 195.701 118.563 194.728L119.747 194.02V191.497C119.747 190.109 119.702 188.974 119.647 188.974C119.591 188.974 118.876 189.477 118.057 190.091C114.988 192.393 112.234 193.242 107.795 193.253C104.859 193.261 103.566 193.057 101.481 192.259C99.2768 191.414 98.2476 190.722 96.2944 188.768C92.7379 185.211 90.9719 180.687 90.4596 173.819C89.9208 166.597 91.4631 159.689 94.5812 155.359C98.4361 150.005 104.912 147.581 111.967 148.849C114.405 149.287 114.944 149.464 116.834 150.448C119.974 152.084 122.253 155.018 123.323 158.804L123.734 160.257L126.063 160.321C127.616 160.364 128.445 160.301 128.55 160.132C128.787 159.753 128.202 157.035 127.512 155.304C125.308 149.772 120.554 146.031 113.884 144.582C112.427 144.265 107.049 144.01 105.54 144.186ZM199.691 144.26C194.83 144.896 190.163 147.174 187.1 150.406C182.31 155.46 180.158 161.869 180.153 171.096C180.148 180.644 182.531 187.41 187.63 192.326C190.496 195.089 194.403 196.953 198.466 197.495C200.936 197.825 208.522 197.611 210.064 197.168C213.914 196.063 216.184 194.826 218.688 192.469C223.883 187.579 226.399 180.605 226.399 171.096C226.399 165.011 225.399 160.119 223.316 156.017C220.188 149.857 215.371 146.085 208.711 144.582C207.073 144.212 201.562 144.016 199.691 144.26ZM297.224 144.257C292.968 144.863 288.948 146.992 286.929 149.71C285 152.307 284.39 154.288 284.378 157.99C284.364 162.16 285.363 164.711 287.959 167.133C290.472 169.479 293.373 170.696 301.395 172.775C307.918 174.465 310.783 175.618 312.568 177.272C313.995 178.595 314.506 179.556 314.855 181.571C315.601 185.879 313.559 190.037 309.802 191.862C307.376 193.041 306.054 193.291 302.185 193.303C297.708 193.318 295.536 192.75 292.809 190.854C289.941 188.86 288.544 185.972 288.083 181.089L287.94 179.573L285.647 179.636L283.355 179.7L283.402 181.678C283.489 185.256 284.775 189.062 286.796 191.714C287.86 193.111 290.309 195.032 292.115 195.885C297.593 198.474 306.326 198.474 311.804 195.885C313.436 195.114 316.007 193.157 316.929 191.985C317.864 190.796 318.984 188.582 319.333 187.232C319.499 186.592 319.717 186.069 319.817 186.069C319.918 186.069 320 184.661 320 182.94C320 181.219 319.91 179.811 319.799 179.811C319.689 179.811 319.537 179.485 319.461 179.085C319.266 178.056 318.154 175.831 317.326 174.812C314.939 171.874 311.229 170.137 302.725 167.973C295.92 166.241 293.424 165.273 291.696 163.695C289.958 162.107 289.114 160.194 289.108 157.831C289.105 156.567 289.639 154.371 290.227 153.229C291.13 151.475 293.846 149.487 296.096 148.932C299.004 148.217 303.772 148.332 306.443 149.183C310.884 150.598 313.512 154.109 313.889 159.131L314.024 160.927L316.481 160.991L318.938 161.055L318.784 158.831C318.479 154.449 317.122 151.229 314.486 148.636C312.321 146.505 310.051 145.357 306.469 144.583C304.735 144.208 298.989 144.006 297.224 144.257ZM0.0572721 170.928L0.114558 196.908H2.48241H4.85026L4.96302 185.51L5.07577 174.113H11.8411C18.4674 174.113 18.6388 174.124 20.1849 174.667C22.2116 175.378 23.8715 176.979 25.0985 179.405C25.8425 180.876 28.3301 187.74 30.4954 194.296C30.8734 195.44 31.3285 196.521 31.5069 196.698C31.8873 197.075 36.1916 197.165 36.4189 196.8C36.5664 196.564 36.5105 196.391 34.6101 191.209C33.9115 189.304 32.8518 186.387 32.2553 184.728C29.7023 177.626 28.8384 175.94 26.6336 173.758C25.4666 172.603 24.4534 171.838 23.4548 171.359C20.9077 170.136 19.346 169.923 11.8411 169.776L5.07577 169.643L5.01714 159.53L4.9585 149.418H11.8239C18.9297 149.418 20.5288 149.569 22.8087 150.453C24.0247 150.925 25.6123 151.976 26.4681 152.874C28.4918 155 29.1268 159.332 27.9267 162.827C27.4369 164.253 26.1422 166.217 25.354 166.729C24.3379 167.388 24.7348 167.52 27.7422 167.52H30.6768L31.4295 166.347C33.0917 163.756 33.7725 160.475 33.3732 156.98C32.8432 152.345 30.6247 149.07 26.7247 147.167C22.9172 145.309 19.9533 144.957 8.06286 144.952L0 144.948L0.0572721 170.928ZM46.5105 145.133C46.2877 145.274 46.2387 147.224 46.2849 154.126L46.344 162.938L48.5804 163.003C50.2158 163.05 50.868 162.99 51.0064 162.779C51.1106 162.621 51.1864 159.575 51.1747 156.011L51.1533 149.53L64.9853 149.418L78.8174 149.306V147.183V145.06L62.8062 145.007C54.0001 144.977 46.667 145.034 46.5105 145.133ZM139.871 145.133C139.649 145.274 139.6 147.224 139.646 154.126L139.705 162.938H142.073H144.441L144.5 156.174L144.56 149.409L149.349 149.469L154.138 149.53V171.096V192.661L146.921 192.773L139.705 192.885L139.639 194.638C139.597 195.732 139.671 196.509 139.834 196.703C140.053 196.965 142.752 197.015 156.588 197.013C165.659 197.012 173.212 196.929 173.372 196.829C173.582 196.697 173.645 196.119 173.598 194.765L173.531 192.885L166.315 192.773L159.099 192.661L159.041 171.043L158.984 149.425L165.581 149.365L172.178 149.306V147.183V145.06L156.167 145.007C147.361 144.977 140.028 145.034 139.871 145.133ZM234.863 145.223C234.803 145.379 234.78 157.072 234.812 171.207L234.87 196.908H237.125H239.38L239.432 171.557C239.46 157.614 239.524 146.099 239.574 145.968C239.624 145.837 239.768 145.982 239.893 146.289C240.019 146.596 240.702 148.055 241.411 149.53C242.12 151.005 243.642 154.172 244.793 156.569C247.27 161.729 248.839 164.981 250.828 169.084C254.416 176.48 255.371 178.457 256.067 179.923C256.475 180.783 257.592 183.096 258.55 185.063C259.508 187.03 260.723 189.544 261.249 190.65C263.629 195.654 264.156 196.694 264.389 196.845C264.793 197.107 274.059 197.022 274.385 196.754C274.615 196.565 274.673 191.363 274.673 170.869C274.673 147.686 274.638 145.207 274.316 145.084C273.745 144.867 270.202 144.928 270.059 145.157C269.988 145.271 269.932 156.786 269.935 170.745C269.939 188.177 269.867 196.125 269.706 196.125C269.577 196.125 268.776 194.692 267.926 192.941C267.077 191.189 265.547 188.047 264.528 185.957C263.508 183.867 262.39 181.554 262.044 180.817C261.697 180.079 260.084 176.773 258.459 173.469C256.834 170.165 255.504 167.435 255.504 167.401C255.504 167.368 254.35 164.981 252.939 162.097C251.528 159.213 249.676 155.407 248.823 153.639C247.971 151.872 246.664 149.218 245.92 147.743L244.567 145.06L239.77 145C236.054 144.953 234.947 145.003 234.863 145.223ZM206.721 148.846C211.195 149.626 214.85 152.019 217.396 155.834C220.096 159.88 221.219 164.363 221.219 171.096C221.219 177.064 220.616 180.077 218.58 184.281C217.468 186.577 217.128 187.055 215.391 188.766C213.015 191.105 211.284 192.107 208.26 192.889C206.566 193.327 202.879 193.501 200.593 193.249C196.516 192.801 193.796 191.515 190.955 188.693C188.299 186.055 186.6 182.37 185.572 177.018C185.124 174.688 185.189 167.045 185.677 164.617C187.558 155.256 192.619 149.886 200.705 148.67C202.073 148.464 205.027 148.551 206.721 148.846ZM49.0481 169.947C47.9109 170.46 46.7781 171.723 46.4703 172.822C46.3195 173.36 46.2333 177.843 46.2326 185.207C46.2315 195.525 46.2692 196.762 46.588 196.884C46.7842 196.958 54.2306 197.019 63.1353 197.019C76.7664 197.019 79.3674 196.97 79.5889 196.705C79.754 196.508 79.8273 195.738 79.7858 194.638L79.7195 192.885L65.4404 192.773L51.1614 192.661L51.1844 184.094C51.2096 174.654 51.1839 174.833 52.6353 174.045C53.2611 173.706 54.6069 173.654 65.3996 173.554L77.4644 173.442V171.543V169.643L63.7083 169.591C50.8073 169.542 49.896 169.564 49.0481 169.947ZM108.632 169.894C108.488 170.036 108.391 173.713 108.528 173.822C108.559 173.847 111.754 173.922 115.628 173.99L122.671 174.113L123.367 174.803C123.75 175.182 124.156 175.886 124.27 176.367C124.384 176.848 124.474 181.657 124.471 187.054C124.468 192.451 124.554 196.956 124.663 197.064C124.772 197.172 125.817 197.231 126.984 197.196L129.106 197.131L129.164 185.541C129.202 178.068 129.14 173.647 128.989 173.093C128.69 171.99 127.829 170.982 126.653 170.359C125.749 169.88 125.491 169.865 117.258 169.801C112.602 169.765 108.72 169.806 108.632 169.894ZM151.544 224.18C145.049 225.982 142.122 233.816 145.848 239.425C148.907 244.03 154.883 245.351 159.784 242.505C160.304 242.202 161.226 241.416 161.831 240.758C165.633 236.625 165.527 230.826 161.579 226.838C159.594 224.832 157.8 224.043 154.96 223.926C153.444 223.863 152.409 223.941 151.544 224.18ZM44.756 224.34C44.6965 224.494 44.6741 228.893 44.7066 234.117L44.7655 243.615L49.6139 243.598C53.9642 243.582 54.5952 243.532 55.7552 243.108C58.3369 242.165 60.2007 240.355 61.1571 237.86C61.7136 236.409 61.9252 233.322 61.5898 231.547C60.8775 227.778 58.2424 225.129 54.395 224.314C52.6878 223.952 44.8978 223.973 44.756 224.34ZM66.6316 224.337C66.5714 224.492 66.5486 228.893 66.581 234.117L66.6399 243.615H73.6307H80.6215L80.6896 242.446L80.7575 241.276L75.0519 241.217L69.346 241.157L69.2836 237.972L69.2209 234.788H74.395C77.7032 234.788 79.5968 234.706 79.6455 234.56C79.6877 234.435 79.6861 233.884 79.6421 233.335L79.5621 232.338L74.454 232.278L69.346 232.218V229.424V226.631L74.9391 226.571L80.532 226.511L80.4641 225.342L80.396 224.172L73.5685 224.113C68.2282 224.067 66.7173 224.116 66.6316 224.337ZM84.1169 224.267C84.1169 224.392 84.3778 225.076 84.6967 225.786C85.0158 226.496 86.2356 229.414 87.4075 232.271C88.5793 235.127 89.6356 237.692 89.7546 237.97C89.8735 238.248 90.4551 239.632 91.0466 241.045L92.1225 243.615L93.8352 243.68C95.0273 243.725 95.6206 243.657 95.7868 243.456C95.9183 243.298 96.7572 241.408 97.6513 239.257C98.5452 237.106 99.8823 233.888 100.623 232.106C101.363 230.324 102.369 227.91 102.858 226.742C103.347 225.575 103.77 224.519 103.798 224.396C103.826 224.272 103.264 224.142 102.543 224.105L101.237 224.038L100.457 225.711C100.028 226.631 99.6771 227.475 99.6771 227.587C99.6771 227.699 99.5307 228.083 99.3521 228.44C99.1733 228.797 98.151 231.301 97.0801 234.005C94.4137 240.739 94.2621 241.081 93.9473 241.076C93.8348 241.075 92.2111 237.271 90.3392 232.623L86.9358 224.172L85.5263 224.106C84.6755 224.066 84.1169 224.129 84.1169 224.267ZM107.9 224.337C107.84 224.492 107.817 228.893 107.849 234.117L107.908 243.615H114.899H121.89L121.958 242.442L122.026 241.269H116.264H110.502V238.032V234.796L115.632 234.736L120.762 234.676L120.83 233.503L120.899 232.329H115.693H110.488L110.551 229.48L110.614 226.631L116.207 226.571L121.8 226.511L121.732 225.342L121.664 224.172L114.837 224.113C109.496 224.067 107.986 224.116 107.9 224.337ZM127.072 224.328C127.01 224.488 126.985 228.893 127.018 234.117L127.076 243.615L134.349 243.674L141.622 243.733V242.504V241.276L135.702 241.217L129.783 241.157L129.67 232.665L129.557 224.172L128.371 224.105C127.552 224.058 127.149 224.127 127.072 224.328ZM169.463 224.34C169.403 224.494 169.381 228.893 169.413 234.117L169.472 243.615L170.578 243.685C171.307 243.73 171.75 243.654 171.879 243.461C171.986 243.3 172.058 241.509 172.038 239.481L172.003 235.793L175.924 235.682C179.652 235.575 179.91 235.539 181.137 234.942C183.37 233.855 184.489 232.097 184.452 229.733C184.411 227.148 182.796 225.152 180.092 224.343C178.785 223.953 169.614 223.95 169.463 224.34ZM189.355 224.21C189.135 224.428 189.178 243.115 189.399 243.461C189.523 243.655 189.96 243.731 190.692 243.685L191.798 243.615L191.911 234.899C191.973 230.106 192.092 226.287 192.175 226.414C192.259 226.541 192.898 228.25 193.595 230.213C194.292 232.176 195.055 234.285 195.29 234.899C195.525 235.514 196.294 237.626 196.999 239.592C197.703 241.559 198.381 243.294 198.505 243.448C198.651 243.628 199.352 243.727 200.48 243.727C201.616 243.727 202.303 243.629 202.44 243.448C202.557 243.294 203.336 241.257 204.173 238.922C205.009 236.587 205.884 234.173 206.117 233.558C206.35 232.944 207.009 231.141 207.581 229.552C208.153 227.963 208.692 226.555 208.779 226.423C208.865 226.291 208.987 230.106 209.049 234.899L209.162 243.615L210.339 243.682C211.408 243.744 211.526 243.703 211.637 243.235C211.703 242.953 211.732 238.548 211.7 233.447L211.643 224.172L209.214 224.109C207.05 224.052 206.772 224.089 206.656 224.444C206.584 224.663 206.339 225.346 206.112 225.96C205.497 227.616 203.568 233 202.628 235.682C200.49 241.777 200.439 241.858 199.862 240.108C199.478 238.946 196.308 230.121 195.824 228.869C195.635 228.379 195.225 227.222 194.913 226.299C194.601 225.375 194.243 224.494 194.116 224.34C193.87 224.043 189.64 223.927 189.355 224.21ZM217.39 224.228C217.385 224.576 217.381 243.181 217.387 243.448C217.392 243.665 218.944 243.727 224.38 243.727H231.366L231.501 243.195C231.575 242.903 231.602 242.375 231.561 242.022L231.487 241.38L225.737 241.269L219.986 241.157V238.028V234.899L225.117 234.839L230.247 234.779V233.558V232.338L225.117 232.278L219.986 232.218V229.424V226.631L225.568 226.571L231.149 226.511V225.286V224.061H224.271C220.488 224.061 217.392 224.136 217.39 224.228ZM236.615 233.838L236.674 243.615L237.858 243.683L239.042 243.75V235.116C239.042 229.265 239.117 226.507 239.275 226.559C239.404 226.601 241.717 230.456 244.417 235.126L249.325 243.615L251.506 243.679C253.616 243.741 253.692 243.726 253.813 243.232C253.882 242.951 253.91 238.548 253.876 233.447L253.813 224.172H252.573H251.332L251.273 232.72C251.241 237.422 251.139 241.265 251.048 241.261C250.956 241.256 248.651 237.384 245.925 232.657L240.968 224.061H238.763H236.557L236.615 233.838ZM258.077 224.37C258.01 224.543 257.987 225.072 258.026 225.546L258.098 226.407L261.706 226.519L265.314 226.631L265.427 235.123L265.539 243.615L266.645 243.685C267.375 243.731 267.816 243.655 267.943 243.461C268.048 243.3 268.127 239.525 268.118 235.071C268.108 230.618 268.165 226.872 268.243 226.747C268.329 226.608 269.75 226.519 271.879 226.519H275.373L275.304 225.346L275.236 224.172L266.717 224.114C259.564 224.065 258.179 224.105 258.077 224.37ZM157.7 227.046C159.882 228.104 161.269 230.04 161.683 232.605C162.244 236.085 160.701 239.227 157.702 240.717C156.541 241.293 156.163 241.366 154.363 241.358C152.009 241.348 150.805 240.923 149.29 239.566C145.747 236.394 146.309 229.86 150.336 227.393C152.421 226.116 155.486 225.972 157.7 227.046ZM55.6702 227.297C58.0232 228.582 59.1194 230.675 59.125 233.894C59.1291 236.308 58.5443 237.954 57.1926 239.332C55.6725 240.883 54.3397 241.269 50.5074 241.269H47.3588V233.87V226.472L50.9106 226.555C54.346 226.635 54.5019 226.659 55.6702 227.297ZM180.005 227.044C180.566 227.32 180.992 227.764 181.302 228.398C181.867 229.556 181.874 230.164 181.335 231.341C180.652 232.831 179.838 233.094 175.617 233.185C173.165 233.239 172.062 233.187 172.055 233.019C172.049 232.886 172.044 231.469 172.044 229.871C172.044 228.273 172.049 226.856 172.055 226.723C172.062 226.555 173.165 226.503 175.617 226.557C178.499 226.619 179.327 226.711 180.005 227.044Z" fill="black"/>
</svg>
