<svg width="202" height="155" viewBox="0 0 202 155" fill="none" xmlns="http://www.w3.org/2000/svg">
<path fill-rule="evenodd" clip-rule="evenodd" d="M81.7829 0.0315043C78.1361 0.471509 75.3132 2.40265 73.3544 5.79714C72.756 6.83429 65.1917 19.8196 60.493 27.875C58.8704 30.6572 57.5814 33.0361 57.3593 33.6589C56.6072 35.7674 56.5073 37.6193 57.0324 39.72C57.4226 41.2807 57.5174 41.4611 61.8525 48.8947C62.4181 49.8646 63.4892 51.7056 64.2335 52.9859C68.7305 60.7252 71.6639 65.7573 72.8665 67.7969C75.0828 71.556 76.6666 72.9529 79.932 74.0298L80.9288 74.3581H90.6797H100.431L100.503 56.7948L100.573 39.2313L118.154 39.1607C127.824 39.122 135.763 39.1077 135.798 39.129C135.987 39.246 134.935 41.1376 129.359 50.7143C125.989 56.5026 122.9 61.8099 122.497 62.5082C120.689 65.633 119.655 67.3512 119.226 67.9395C118.84 68.4685 117.293 71.0428 115.77 73.6883L115.425 74.288H115.757C116.322 74.288 118.239 73.6416 119.107 73.1581C120.287 72.5029 121.466 71.5282 122.264 70.5491C122.644 70.0839 124.192 67.5759 125.705 64.9771C127.218 62.3777 129.511 58.4418 130.801 56.2305C132.092 54.0192 133.829 51.0355 134.662 49.6001C135.495 48.1647 136.859 45.8158 137.695 44.3804C139.846 40.6829 140.34 39.153 140.18 36.6696C140.026 34.2904 139.684 33.4379 137.131 29.0741C136.268 27.5999 134.953 25.3463 134.209 24.066C133.466 22.7858 130.822 18.2468 128.334 13.9793C125.847 9.71191 123.687 6.0031 123.534 5.7376C122.169 3.36702 120.386 1.74835 118.139 0.841684C115.995 -0.023655 117.336 0.0348901 99.0078 0.00625239C89.7688 -0.008137 82.0177 0.00314878 81.7829 0.0315043ZM96.3572 4.08381C96.4746 4.22446 96.5074 13.0164 96.4809 37.3416L96.4455 70.4084L89.4702 70.45C81.9811 70.4948 81.4319 70.4563 80.0034 69.791C78.4833 69.0821 77.6059 67.9989 75.2469 63.9191C73.2875 60.5291 72.5761 59.3077 70.3187 55.4546C64.623 45.732 61.3842 40.0588 61.1147 39.3307C60.674 38.1405 60.6613 36.4149 61.0839 35.1709C61.2478 34.6885 61.9442 33.3415 62.6313 32.1777C63.3182 31.0138 65.2447 27.7128 66.9119 24.8419C73.3557 13.7456 77.1785 7.22706 77.5869 6.63905C78.21 5.7407 79.2945 4.9191 80.5728 4.37625C81.1699 4.12288 81.7185 4.09919 88.6161 4.0295C92.6871 3.98845 96.0586 3.94076 96.1078 3.92369C96.1564 3.90662 96.2688 3.97871 96.3572 4.08381ZM111.044 4.06843L115.678 4.10426L116.771 4.63949C117.371 4.93391 118.173 5.47351 118.551 5.83861C119.245 6.50939 119.475 6.85841 121.397 10.1704C121.982 11.1791 122.574 12.1947 122.711 12.4275C123.148 13.1695 129.82 24.6125 131.183 26.958C131.905 28.1995 133.144 30.3333 133.937 31.7C134.73 33.0667 135.379 34.2688 135.379 34.3712C135.379 34.4738 135.24 34.7047 135.069 34.8843L134.76 35.2107H117.631H100.503V19.634C100.503 9.4952 100.551 4.04078 100.643 4.01017C100.72 3.98436 102.05 3.97885 103.597 3.9979C105.144 4.01694 108.495 4.04868 111.044 4.06843ZM66.6221 91.0174C63.3731 91.3968 60.7139 92.6038 58.5711 94.673C56.2882 96.8767 54.9633 99.5431 54.1546 103.56C53.7942 105.351 53.7867 110.62 54.1418 112.448C54.9044 116.372 56.1161 118.863 58.3659 121.132C60.1675 122.949 61.4846 123.705 64.2025 124.482C64.7871 124.649 65.6506 124.707 67.6189 124.711C69.9191 124.715 70.3901 124.677 71.3426 124.405C72.6348 124.037 73.8159 123.536 74.8429 122.922L75.5903 122.475V120.882C75.5903 120.006 75.5619 119.29 75.5272 119.29C75.4918 119.29 75.0405 119.607 74.5235 119.995C72.5862 121.448 70.8477 121.984 68.0456 121.991C66.1922 121.996 65.376 121.867 64.0599 121.364C62.6685 120.83 62.0188 120.393 60.7858 119.16C58.5408 116.914 57.426 114.059 57.1026 109.723C56.7625 105.164 57.7361 100.804 59.7044 98.0704C62.1378 94.6907 66.2257 93.1605 70.6792 93.9609C72.2182 94.2374 72.5584 94.3492 73.7515 94.9703C75.7336 96.003 77.1722 97.8551 77.8476 100.245L78.1071 101.162L79.5773 101.203C80.5576 101.23 81.0809 101.19 81.1472 101.083C81.2968 100.844 80.9275 99.1283 80.492 98.0357C79.1007 94.5436 76.0997 92.1821 71.8893 91.2674C70.9695 91.0673 67.5747 90.9063 66.6221 91.0174ZM126.055 91.0641C122.986 91.4656 120.04 92.9036 118.107 94.9438C115.083 98.1341 113.725 102.18 113.722 108.004C113.718 114.032 115.223 118.303 118.441 121.406C120.251 123.15 122.717 124.327 125.282 124.669C126.841 124.877 131.63 124.742 132.603 124.462C135.033 123.765 136.466 122.984 138.047 121.496C141.326 118.409 142.914 114.007 142.914 108.004C142.914 104.163 142.283 101.075 140.968 98.4857C138.994 94.5972 135.953 92.2162 131.749 91.2674C130.715 91.0338 127.236 90.9101 126.055 91.0641ZM187.623 91.0622C184.936 91.4448 182.398 92.7887 181.124 94.5044C179.906 96.1438 179.521 97.3943 179.514 99.7312C179.505 102.364 180.135 103.974 181.774 105.503C183.36 106.984 185.192 107.752 190.256 109.064C194.373 110.131 196.182 110.859 197.309 111.903C198.209 112.738 198.532 113.345 198.752 114.617C199.223 117.336 197.934 119.961 195.563 121.113C194.031 121.857 193.197 122.015 190.754 122.023C187.928 122.032 186.557 121.673 184.836 120.477C183.025 119.218 182.143 117.395 181.852 114.312L181.762 113.355L180.315 113.395L178.868 113.436L178.898 114.684C178.952 116.943 179.764 119.345 181.04 121.019C181.712 121.901 183.258 123.114 184.398 123.652C187.856 125.287 193.368 125.287 196.826 123.652C197.856 123.166 199.479 121.93 200.061 121.191C200.652 120.44 201.359 119.042 201.579 118.19C201.684 117.786 201.821 117.456 201.884 117.456C201.948 117.456 202 116.567 202 115.481C202 114.394 201.943 113.506 201.873 113.506C201.804 113.506 201.708 113.3 201.66 113.047C201.537 112.398 200.835 110.993 200.312 110.35C198.805 108.495 196.463 107.399 191.095 106.033C186.8 104.94 185.224 104.329 184.133 103.332C183.036 102.33 182.503 101.122 182.499 99.6308C182.498 98.8329 182.835 97.4467 183.206 96.7258C183.776 95.6186 185.49 94.3637 186.911 94.0133C188.746 93.562 191.756 93.6346 193.442 94.1718C196.246 95.065 197.904 97.2813 198.142 100.451L198.228 101.585L199.779 101.626L201.33 101.666L201.232 100.262C201.04 97.4959 200.183 95.4633 198.519 93.8265C197.153 92.4813 195.72 91.7566 193.459 91.268C192.364 91.0313 188.737 90.9038 187.623 91.0622ZM0.036153 107.898L0.0723147 124.298H1.56702H3.06173L3.13291 117.103L3.20408 109.909H7.47469C11.6575 109.909 11.7657 109.916 12.7417 110.259C14.0211 110.707 15.0689 111.718 15.8434 113.249C16.3131 114.178 17.8834 118.511 19.2502 122.649C19.4888 123.372 19.7761 124.054 19.8887 124.166C20.1289 124.404 22.8459 124.46 22.9894 124.23C23.0825 124.081 23.0473 123.972 21.8476 120.701C21.4066 119.498 20.7377 117.657 20.3612 116.61C18.7496 112.126 18.2042 111.062 16.8125 109.685C16.0758 108.956 15.4362 108.473 14.8058 108.17C13.198 107.398 12.2122 107.264 7.47469 107.171L3.20408 107.087L3.16707 100.703L3.13005 94.3201H7.46384C11.9494 94.3201 12.9588 94.4154 14.398 94.9735C15.1656 95.2714 16.1678 95.9348 16.708 96.5017C17.9854 97.8437 18.3863 100.578 17.6287 102.785C17.3195 103.685 16.5023 104.924 16.0047 105.248C15.3633 105.664 15.6138 105.747 17.5123 105.747H19.3647L19.8399 105.007C20.8891 103.371 21.3189 101.3 21.0668 99.0936C20.7323 96.1678 19.3318 94.1004 16.87 92.8992C14.4665 91.7263 12.5955 91.5041 5.08968 91.501L0 91.4984L0.036153 107.898ZM29.3598 91.6152C29.2191 91.7042 29.1882 92.9352 29.2173 97.292L29.2547 102.855L30.6664 102.896C31.6987 102.925 32.1104 102.887 32.1978 102.754C32.2636 102.655 32.3114 100.732 32.304 98.4819L32.2905 94.3908L41.022 94.3201L49.7535 94.2494V92.9093V91.5691L39.6464 91.5357C34.0876 91.5167 29.4585 91.5527 29.3598 91.6152ZM88.2936 91.6152C88.1534 91.7042 88.1225 92.9352 88.1515 97.292L88.1888 102.855H89.6836H91.1784L91.2156 98.5848L91.2535 94.3144L94.2766 94.3523L97.2996 94.3908V108.004V121.617L92.7439 121.688L88.1888 121.759L88.1471 122.865C88.1206 123.556 88.1673 124.046 88.2702 124.169C88.4085 124.334 90.1122 124.366 98.8462 124.364C104.572 124.364 109.34 124.311 109.441 124.248C109.574 124.165 109.613 123.8 109.584 122.945L109.541 121.759L104.986 121.688L100.431 121.617L100.395 107.971L100.359 94.3245L104.523 94.2867L108.687 94.2494V92.9093V91.5691L98.5804 91.5357C93.0216 91.5167 88.3927 91.5527 88.2936 91.6152ZM148.257 91.672C148.219 91.7705 148.205 99.1517 148.225 108.074L148.262 124.298H149.685H151.109L151.141 108.295C151.159 99.4938 151.2 92.225 151.231 92.1423C151.263 92.0596 151.354 92.1511 151.432 92.3449C151.512 92.5387 151.943 93.4597 152.391 94.3908C152.838 95.3219 153.799 97.3211 154.526 98.8342C156.089 102.091 157.08 104.144 158.335 106.734C160.6 111.403 161.203 112.651 161.642 113.576C161.9 114.119 162.605 115.579 163.21 116.821C163.814 118.063 164.581 119.65 164.913 120.348C166.416 123.507 166.748 124.163 166.896 124.258C167.151 124.424 173 124.37 173.206 124.201C173.351 124.082 173.387 120.798 173.387 107.861C173.387 93.2268 173.365 91.6619 173.162 91.5843C172.802 91.4473 170.565 91.4858 170.475 91.6304C170.43 91.7023 170.395 98.9712 170.396 107.783C170.399 118.787 170.354 123.804 170.252 123.804C170.17 123.804 169.665 122.899 169.128 121.794C168.592 120.688 167.627 118.705 166.983 117.385C166.339 116.066 165.634 114.606 165.415 114.141C165.196 113.675 164.178 111.588 163.152 109.502C162.126 107.417 161.287 105.693 161.287 105.672C161.287 105.651 160.558 104.144 159.668 102.324C158.777 100.503 157.608 98.1007 157.07 96.9846C156.532 95.8692 155.707 94.1939 155.237 93.2628L154.383 91.5691L151.355 91.5313C149.009 91.5016 148.31 91.5332 148.257 91.672ZM130.493 93.959C133.317 94.4514 135.624 95.962 137.231 98.3702C138.936 100.924 139.644 103.754 139.644 108.004C139.644 111.772 139.264 113.674 137.979 116.327C137.277 117.777 137.062 118.078 135.966 119.159C134.466 120.635 133.373 121.268 131.464 121.761C130.395 122.038 128.067 122.148 126.624 121.988C124.051 121.706 122.334 120.894 120.54 119.112C118.864 117.447 117.791 115.121 117.142 111.743C116.86 110.272 116.901 105.447 117.209 103.914C118.396 98.0054 121.591 94.6155 126.695 93.8479C127.559 93.7179 129.423 93.7728 130.493 93.959ZM30.9616 107.279C30.2438 107.603 29.5287 108.4 29.3344 109.094C29.2392 109.434 29.1848 112.263 29.1843 116.912C29.1836 123.425 29.2074 124.206 29.4087 124.283C29.5325 124.33 34.2331 124.368 39.8542 124.368C48.4588 124.368 50.1007 124.337 50.2405 124.17C50.3447 124.046 50.391 123.56 50.3648 122.865L50.3229 121.759L41.3093 121.688L32.2956 121.617L32.3102 116.209C32.3261 110.25 32.3098 110.363 33.226 109.866C33.6211 109.652 34.4706 109.619 41.2835 109.556L48.8994 109.485V108.287V107.087L40.2159 107.054C32.0721 107.023 31.4969 107.037 30.9616 107.279ZM68.574 107.246C68.4831 107.335 68.4218 109.656 68.5083 109.725C68.5279 109.741 70.5447 109.788 72.9902 109.831L77.4361 109.909L77.8754 110.344C78.1172 110.584 78.3735 111.028 78.4454 111.332C78.5174 111.635 78.5742 114.671 78.5723 118.078C78.5704 121.485 78.6247 124.328 78.6935 124.397C78.7623 124.465 79.422 124.502 80.1587 124.48L81.4982 124.439L81.5348 117.123C81.5588 112.405 81.5196 109.615 81.4243 109.265C81.2356 108.569 80.6921 107.932 79.9497 107.539C79.3791 107.237 79.2162 107.227 74.0191 107.187C71.08 107.164 68.6295 107.19 68.574 107.246ZM95.6622 141.514C91.5622 142.651 89.7145 147.596 92.0666 151.137C93.9976 154.044 97.7699 154.878 100.864 153.081C101.192 152.89 101.774 152.394 102.156 151.978C104.556 149.37 104.489 145.709 101.997 143.191C100.744 141.925 99.6113 141.427 97.8185 141.353C96.8615 141.314 96.2082 141.363 95.6622 141.514ZM28.2522 141.615C28.2147 141.712 28.2005 144.489 28.221 147.786L28.2582 153.782L31.3188 153.771C34.0649 153.761 34.4632 153.73 35.1955 153.462C36.8252 152.867 38.0017 151.724 38.6054 150.149C38.9567 149.233 39.0903 147.285 38.8786 146.164C38.4289 143.785 36.7655 142.113 34.3368 141.598C33.2592 141.37 28.3417 141.383 28.2522 141.615ZM42.0612 141.613C42.0232 141.711 42.0088 144.489 42.0293 147.786L42.0664 153.782H46.4794H50.8923L50.9353 153.044L50.9782 152.305L47.3765 152.268L43.7747 152.23L43.7353 150.22L43.6957 148.21H46.9618C49.0501 148.21 50.2455 148.158 50.2762 148.066C50.3029 147.987 50.3019 147.639 50.2741 147.293L50.2236 146.663L46.9991 146.625L43.7747 146.588V144.824V143.061L47.3053 143.023L50.8358 142.985L50.793 142.247L50.75 141.509L46.4401 141.471C43.0691 141.442 42.1153 141.473 42.0612 141.613ZM53.0988 141.569C53.0988 141.647 53.2635 142.079 53.4648 142.527C53.6662 142.976 54.4362 144.818 55.176 146.621C55.9157 148.424 56.5825 150.043 56.6576 150.219C56.7326 150.394 57.0998 151.268 57.4732 152.16L58.1523 153.782L59.2335 153.823C59.986 153.851 60.3605 153.808 60.4654 153.682C60.5484 153.582 61.078 152.389 61.6424 151.031C62.2067 149.673 63.0507 147.642 63.5183 146.517C63.9854 145.392 64.6204 143.868 64.9291 143.131C65.2378 142.394 65.5048 141.728 65.5225 141.65C65.5402 141.572 65.1854 141.49 64.7303 141.466L63.9059 141.424L63.4135 142.48C63.1427 143.061 62.9212 143.594 62.9212 143.664C62.9212 143.735 62.8288 143.977 62.716 144.203C62.6031 144.428 61.9578 146.009 61.2818 147.716C59.5987 151.967 59.503 152.182 59.3042 152.179C59.2332 152.179 58.2083 149.777 57.0266 146.843L54.8782 141.509L53.9885 141.467C53.4514 141.442 53.0988 141.481 53.0988 141.569ZM68.1119 141.613C68.074 141.711 68.0595 144.489 68.0797 147.786L68.1169 153.782H72.53H76.9431L76.986 153.042L77.0289 152.301H73.3917H69.7544V150.258V148.215L72.9927 148.177L76.231 148.139L76.2739 147.399L76.3175 146.658H73.0312H69.7456L69.7853 144.859L69.8251 143.061L73.3557 143.023L76.8863 142.985L76.8433 142.247L76.8004 141.509L72.4909 141.471C69.1194 141.442 68.1662 141.473 68.1119 141.613ZM80.2142 141.607C80.1751 141.708 80.1593 144.489 80.1801 147.786L80.2167 153.782L84.8078 153.819L89.3989 153.856V153.081V152.305L85.6619 152.268L81.9255 152.23L81.8542 146.87L81.7829 141.509L81.0342 141.466C80.5172 141.437 80.2628 141.48 80.2142 141.607ZM106.974 141.615C106.936 141.712 106.922 144.489 106.942 147.786L106.979 153.782L107.677 153.826C108.138 153.855 108.417 153.807 108.499 153.685C108.566 153.583 108.612 152.453 108.599 151.172L108.577 148.844L111.052 148.774C113.405 148.707 113.568 148.684 114.343 148.307C115.752 147.621 116.459 146.511 116.435 145.019C116.409 143.387 115.39 142.127 113.683 141.617C112.858 141.37 107.069 141.368 106.974 141.615ZM119.53 141.533C119.391 141.67 119.419 153.466 119.558 153.685C119.636 153.807 119.912 153.855 120.374 153.826L121.072 153.782L121.144 148.28C121.183 145.254 121.258 142.844 121.31 142.924C121.364 143.004 121.767 144.083 122.207 145.322C122.647 146.561 123.128 147.892 123.277 148.28C123.425 148.668 123.911 150.001 124.356 151.242C124.8 152.484 125.228 153.579 125.306 153.677C125.398 153.79 125.841 153.853 126.553 153.853C127.27 153.853 127.704 153.791 127.79 153.677C127.864 153.579 128.356 152.293 128.884 150.82C129.412 149.346 129.964 147.822 130.111 147.433C130.258 147.046 130.674 145.908 131.036 144.905C131.397 143.902 131.737 143.013 131.792 142.93C131.846 142.846 131.923 145.254 131.962 148.28L132.034 153.782L132.777 153.824C133.451 153.863 133.526 153.838 133.596 153.542C133.638 153.364 133.656 150.583 133.636 147.363L133.6 141.509L132.066 141.469C130.7 141.433 130.525 141.456 130.452 141.68C130.406 141.819 130.251 142.25 130.108 142.637C129.72 143.683 128.502 147.081 127.909 148.774C126.559 152.622 126.527 152.673 126.163 151.568C125.92 150.835 123.919 145.264 123.614 144.474C123.495 144.164 123.236 143.434 123.039 142.851C122.842 142.268 122.616 141.712 122.536 141.615C122.38 141.427 119.71 141.354 119.53 141.533ZM137.227 141.544C137.224 141.764 137.222 153.508 137.226 153.677C137.229 153.814 138.208 153.853 141.64 153.853H146.05L146.135 153.517C146.182 153.333 146.199 152.999 146.173 152.776L146.126 152.371L142.496 152.301L138.866 152.23V150.255V148.28L142.105 148.242L145.343 148.204V147.433V146.663L142.105 146.625L138.866 146.588V144.824V143.061L142.39 143.023L145.913 142.985V142.212V141.439H141.571C139.183 141.439 137.229 141.486 137.227 141.544ZM149.363 147.61L149.4 153.782L150.148 153.825L150.895 153.867V148.417C150.895 144.724 150.943 142.983 151.042 143.015C151.124 143.042 152.584 145.475 154.288 148.423L157.386 153.782L158.763 153.822C160.095 153.862 160.143 153.852 160.219 153.54C160.263 153.363 160.281 150.583 160.259 147.363L160.219 141.509H159.437H158.653L158.616 146.905C158.596 149.873 158.532 152.299 158.474 152.296C158.416 152.293 156.961 149.849 155.24 146.865L152.111 141.439H150.719H149.327L149.363 147.61ZM162.911 141.634C162.869 141.743 162.854 142.077 162.879 142.376L162.924 142.919L165.202 142.99L167.479 143.061L167.551 148.421L167.622 153.782L168.32 153.826C168.78 153.855 169.059 153.807 169.139 153.685C169.205 153.583 169.255 151.2 169.25 148.389C169.243 145.578 169.279 143.213 169.328 143.134C169.383 143.046 170.28 142.99 171.624 142.99H173.829L173.786 142.25L173.743 141.509L168.365 141.472C163.85 141.441 162.975 141.466 162.911 141.634ZM99.5481 143.323C100.926 143.991 101.801 145.213 102.062 146.832C102.417 149.029 101.443 151.012 99.5494 151.953C98.8165 152.316 98.5779 152.362 97.4417 152.357C95.9557 152.351 95.1957 152.083 94.2393 151.226C92.0028 149.224 92.3576 145.099 94.8996 143.542C96.2158 142.736 98.1505 142.645 99.5481 143.323ZM35.1418 143.481C36.6271 144.292 37.3191 145.614 37.3227 147.646C37.3252 149.169 36.9561 150.208 36.1028 151.078C35.1433 152.057 34.3019 152.301 31.8828 152.301H29.8952V147.63V142.96L32.1373 143.013C34.3059 143.063 34.4043 143.078 35.1418 143.481ZM113.628 143.322C113.982 143.496 114.251 143.776 114.447 144.176C114.804 144.907 114.808 145.291 114.468 146.034C114.037 146.975 113.523 147.141 110.858 147.198C109.31 147.232 108.614 147.199 108.61 147.093C108.606 147.009 108.603 146.115 108.603 145.106C108.603 144.097 108.606 143.203 108.61 143.119C108.614 143.013 109.31 142.98 110.858 143.014C112.678 143.053 113.2 143.111 113.628 143.322Z" fill="black"/>
</svg>
