<svg width="213" height="82" viewBox="0 0 213 82" fill="none" xmlns="http://www.w3.org/2000/svg">
<path d="M18.2805 81.0809C31.0857 81.0809 37.2981 74.8312 37.2981 67.5211C37.2981 51.4602 11.239 57.0231 11.239 48.959C11.239 46.2112 13.6136 43.9637 19.7586 43.9637C23.7236 43.9637 28.0096 45.0834 32.1762 47.3982L35.3718 39.7149C31.2128 37.1464 25.4559 35.8398 19.8184 35.8398C7.08009 35.8398 0.93508 42.0221 0.93508 49.4593C0.93508 65.7071 26.9865 60.0844 26.9865 68.2757C26.9865 70.9637 24.4929 72.957 18.3475 72.957C12.9713 72.957 7.33384 71.0832 3.5634 68.3952L0.0390625 76.0187C4.01117 79.0203 11.1793 81.0809 18.2805 81.0809Z" fill="black"/>
<path d="M63.6816 81.0579C71.4843 81.0579 77.9505 78.3101 82.1768 73.2475L75.5238 67.2516C72.5146 70.6865 68.7365 72.4337 64.2564 72.4337C55.8712 72.4337 49.9125 66.6843 49.9125 58.441C49.9125 50.19 55.8712 44.4406 64.2564 44.4406C68.7365 44.4406 72.5146 46.1878 75.5238 49.5625L82.1768 43.5594C77.9505 38.5642 71.4843 35.8164 63.7413 35.8164C49.7854 35.8164 39.4141 45.2468 39.4141 58.441C39.4141 71.627 49.7854 81.0579 63.6816 81.0579Z" fill="black"/>
<path d="M120.771 81.0138H131.658L111.617 37.2656H101.38L81.4062 81.0138H92.0314L95.9963 71.6426H116.806L120.771 81.0138ZM99.3266 63.9521L106.435 47.204L113.536 63.9521H99.3266Z" fill="black"/>
<path d="M153.563 37.2656H134.172V81.0138H144.536V68.9545H153.563C165.532 68.9545 173.022 62.8917 173.022 53.1402C173.022 43.3284 165.532 37.2656 153.563 37.2656ZM152.988 60.704H144.536V45.5166H152.988C159.328 45.5166 162.523 48.3242 162.523 53.1402C162.523 57.8888 159.328 60.704 152.988 60.704Z" fill="black"/>
<path d="M187.812 72.8899V62.7646H208.615V54.8873H187.812V45.3895H211.37V37.2656H177.508V81.0138H212.199V72.8899H187.812Z" fill="black"/>
<path d="M0.0019115 9.12982L13.9497 0.111823L27.7895 9.16327L41.6479 0.13046L55.5044 9.14464L69.5123 0.0559115V11.5006C69.5123 11.5006 73.2345 11.8552 77.2181 8.4522C81.2017 5.04924 85.5585 2.03814 92.2731 2.03814C98.9858 2.03814 103.774 5.4411 105.905 7.21832C108.037 8.99554 110.675 11.6501 115.444 11.4819C120.212 11.3137 122.289 9.20103 123.412 8.1908C124.533 7.18104 129.9 2.05678 138.091 2.05678V9.27558H176.411V0H212.356V14.2689H176.392V23.5818H137.699V15.0923C137.699 15.0923 133.94 14.7167 129.49 18.8871C125.037 23.0575 119.969 24.5729 115.276 24.5729C110.581 24.5729 105.063 22.5534 102.054 19.9719C99.0436 17.3918 96.8354 15.0923 92.2731 15.0923C87.7089 15.0923 85.1666 17.5041 84.1564 18.458C83.1466 19.4118 78.0037 24.5542 69.2696 24.5542C69.2882 19.8037 69.2696 14.493 69.2696 14.493L55.5435 23.5445L41.592 14.3994L27.7149 23.4886L13.8006 14.3994L0 23.4699L0.0019115 9.12982Z" fill="black"/>
</svg>
