<?xml version="1.0" encoding="iso-8859-1"?>
<!-- Generator: Adobe Illustrator 24.2.1, SVG Export Plug-In . SVG Version: 6.00 Build 0)  -->
<svg version="1.1" id="Layer_1" xmlns="http://www.w3.org/2000/svg" xmlns:xlink="http://www.w3.org/1999/xlink" x="0px" y="0px"
	 viewBox="0 0 452 169.671" style="enable-background:new 0 0 452 169.671;" xml:space="preserve">
<g>
	<path d="M38.258,169.671c26.796,0,39.796-13.078,39.796-28.375c0-33.609-54.531-21.968-54.531-38.843
		c0-5.75,4.969-10.453,17.828-10.453c8.297,0,17.266,2.343,25.985,7.187l6.687-16.078C65.32,77.734,53.273,75,41.476,75
		C14.82,75,1.961,87.937,1.961,103.5c0,34,54.515,22.234,54.515,39.375c0,5.625-5.218,9.796-18.078,9.796
		c-11.25,0-23.047-3.921-30.937-9.546l-7.375,15.953C8.398,165.359,23.398,169.671,38.258,169.671L38.258,169.671z M38.258,169.671"
		/>
	<path d="M133.262,169.621c16.328,0,29.859-5.75,38.703-16.344l-13.922-12.547c-6.297,7.188-14.203,10.844-23.578,10.844
		c-17.547,0-30.016-12.031-30.016-29.281c0-17.266,12.469-29.297,30.016-29.297c9.375,0,17.281,3.656,23.578,10.718l13.922-12.562
		c-8.844-10.453-22.375-16.203-38.578-16.203c-29.204,0-50.907,19.734-50.907,47.344C82.48,149.886,104.183,169.621,133.262,169.621
		L133.262,169.621z M133.262,169.621"/>
	<path d="M252.719,169.531H275.5l-41.938-91.547H212.14l-41.796,91.547h22.234l8.297-19.61h43.547L252.719,169.531z
		 M207.844,133.828l14.875-35.047l14.859,35.047H207.844z M207.844,133.828"/>
	<path d="M321.351,77.984h-40.578v91.547h21.688v-25.235h18.89c25.047,0,40.719-12.687,40.719-33.093
		C362.07,90.671,346.398,77.984,321.351,77.984L321.351,77.984z M320.148,127.031h-17.687V95.25h17.687
		c13.266,0,19.953,5.875,19.953,15.953C340.101,121.14,333.414,127.031,320.148,127.031L320.148,127.031z M320.148,127.031"/>
	<path d="M393.008,152.531v-21.188h43.531v-16.484h-43.531V94.984h49.296v-17h-70.859v91.547h72.594v-17H393.008z M393.008,152.531"
		/>
	<path d="M0.004,19.105L29.191,0.234l28.961,18.941l29-18.902l28.996,18.863l29.313-19.019v23.949c0,0,7.789,0.742,16.125-6.379
		c8.336-7.121,17.453-13.422,31.504-13.422c14.047,0,24.066,7.121,28.527,10.84c4.461,3.719,9.98,9.274,19.961,8.922
		c9.976-0.352,14.324-4.773,16.672-6.887c2.347-2.113,13.578-12.836,30.719-12.836V19.41h80.187V0h75.219v29.859h-75.258v19.488
		h-80.969V31.582c0,0-7.867-0.786-17.179,7.941c-9.317,8.727-19.922,11.898-29.743,11.898c-9.824,0-21.371-4.226-27.668-9.628
		c-6.3-5.399-10.921-10.211-20.468-10.211c-9.551,0-14.871,5.047-16.985,7.043c-2.113,1.996-12.875,12.757-31.152,12.757
		c0.039-9.941,0-21.054,0-21.054L116.23,49.269L87.035,30.132l-29.039,19.02l-29.117-19.02L0,49.113L0.004,19.105z M0.004,19.105"/>
</g>
</svg>
