<svg width="320" height="80" viewBox="0 0 320 80" fill="none" xmlns="http://www.w3.org/2000/svg">
<path d="M49.2824 4.10973C49.2824 3.28934 42.9293 1.33474 37.7441 0.560293C30.8289 -0.473077 24.3635 -0.076706 18.3831 1.74668C10.5848 4.12491 6.31949 7.28187 3.69149 12.6212C0.431809 19.2435 1.20429 28.0232 5.52119 33.421C8.6694 37.3567 11.7449 39.437 21.7942 44.4275C30.2915 48.647 31.4875 49.3611 33.3986 51.3554C36.0954 54.1701 36.5707 55.6883 36.5707 61.4906C36.5707 65.0073 36.4029 66.4187 35.7892 68.0673C34.7977 70.7294 32.5119 73.326 30.0791 74.5533C24.7574 77.238 15.1144 76.4592 7.11974 72.6988C4.12369 71.2897 2.51379 71.4252 1.00129 73.2147C0.450581 73.8661 0 74.5708 0 74.7803C0 75.4488 4.33529 77.1161 9.77825 78.5404C14.8324 79.8627 15.3429 79.9218 21.7077 79.9211C28.8603 79.9207 32.1012 79.4285 36.4389 77.6842C43.7076 74.7616 48.3851 70.0001 50.6834 63.1847C51.5948 60.4821 51.6929 59.6695 51.5705 55.8331C51.4407 51.7658 51.3491 51.3515 49.9653 48.5645C46.679 41.9445 43.399 39.5924 26.5968 31.8055C21.9029 29.6305 19.3547 27.5101 17.9009 24.5708C16.7564 22.256 16.661 21.7611 16.661 18.1233C16.6602 9.65776 19.6328 5.50131 26.5789 4.25457C30.6673 3.52101 38.1012 4.54737 42.1881 6.41008C45.1063 7.74014 46.3274 7.66306 47.9526 6.04525C48.684 5.31714 49.2824 4.44614 49.2824 4.10973Z" fill="#191919"/>
<path d="M156.017 20.0004C159.185 17.3469 158.446 11.3098 154.738 9.55847C152.066 8.29654 148.345 9.04101 146.659 11.1755C141.909 17.1865 150.126 24.9352 156.017 20.0004Z" fill="#191919"/>
<path d="M213.57 35.2315C212.408 32.2692 209.744 29.5527 207.09 28.624C205.161 27.9493 199.785 27.5019 197.912 27.8601C193.26 28.7506 188.302 31.3001 184.907 34.5474L183.44 35.9507V32.1186V28.2861L181.387 28.5317C180.257 28.6669 177.827 28.779 175.985 28.7806C173.929 28.7829 172.38 28.9717 171.97 29.2708C171.355 29.7197 171.295 31.6918 171.211 54.5794L171.119 79.4013H177.521H183.922L183.621 78.5252C183.455 78.0432 183.244 68.8834 183.153 58.1697L182.987 38.6898L185.079 37.2558C188.164 35.1408 190.177 34.5116 194.001 34.468C196.868 34.4349 197.563 34.5638 199.052 35.4032C201.187 36.606 202.175 38.4068 202.63 41.9239C202.818 43.37 202.977 51.582 202.984 60.1726C202.996 75.4126 203.016 75.8172 203.813 76.8256C205.229 78.6179 206.507 79.0119 210.897 79.0119H214.926L214.826 65.8709C214.62 38.7685 214.58 37.8052 213.57 35.2315Z" fill="#191919"/>
<path d="M264.734 37.2293C262.361 32.5492 258.338 29.4627 252.967 28.2024C249.895 27.4813 243.067 27.4972 240.015 28.2327C232.763 29.9802 226.79 35.8837 224.166 43.8972C222.855 47.9014 222.33 53.8057 222.874 58.4224C224.161 69.3475 229.634 76.5134 238.785 79.2572C242.046 80.2349 250.287 80.2505 253.843 79.286C258.423 78.0436 264.404 74.8769 264.404 73.6944C264.404 73.3977 263.968 72.9569 263.435 72.7151C262.624 72.3476 261.969 72.4698 259.426 73.4639C251.978 76.3751 244.918 75.8682 240.909 72.135C237.793 69.2342 236.182 64.3574 235.621 56.1368L235.348 52.1458H251.001H266.653L266.897 50.9291C267.629 47.2862 266.632 40.9731 264.734 37.2293Z" fill="#191919"/>
<path d="M101.156 34.5412C99.8121 31.7479 97.1602 29.3665 94.5252 28.5874C92.7162 28.0528 87.7203 27.8652 85.8531 28.2619C82.0693 29.066 76.6122 32.0169 74.1438 34.5934C73.5121 35.2529 72.8519 35.7926 72.6771 35.7926C72.5022 35.7926 72.3591 34.2157 72.3591 32.2883V28.7841L70.3056 28.786C69.1764 28.7872 66.5801 28.8981 64.5365 29.0329L60.8207 29.2778V51.7113C60.8207 64.0498 60.6913 75.2401 60.5333 76.5784L60.2462 79.0119H66.5958L72.9458 79.0123L72.823 58.8304L72.7001 38.6486L73.9963 37.6662C76.6263 35.6727 78.6887 34.8924 81.8166 34.7063C87.6487 34.3593 89.4503 35.3647 90.7743 39.7034C91.5616 42.2833 91.5859 43.0363 91.4595 60.8902L91.3289 79.4016H97.587H103.845L103.728 58.964L103.611 38.5259L106.003 36.9868C108.859 35.1494 111.557 34.4754 115.23 34.6821C119.938 34.9469 121.72 37.074 122.437 43.2843C122.642 45.0528 122.81 52.9623 122.812 60.8606C122.815 74.5763 122.85 75.2779 123.603 76.4912C124.832 78.4703 126.429 79.0119 131.034 79.0119H135.029L134.752 77.7465C134.6 77.0503 134.344 67.808 134.183 57.2076C133.974 43.4089 133.75 37.4918 133.394 36.3766C131.459 30.317 127.936 28.0053 120.634 28.0053C114.487 28.0053 109.677 30.0627 104.931 34.7222C103.593 36.0363 102.436 37.0339 102.361 36.9389C102.287 36.8439 101.744 35.7649 101.156 34.5412Z" fill="#191919"/>
<path d="M158.271 75.4477C158.131 73.4876 158.017 62.0987 158.017 50.1391V28.3947L154.985 28.4395C150.518 28.5053 149.039 28.8869 147.772 30.2987L146.674 31.5221L146.672 50.8866C146.671 61.5373 146.556 72.2226 146.417 74.6316L146.163 79.0119H152.344H158.525L158.271 75.4477Z" fill="#191919"/>
<path d="M292.193 40.2687C285.485 30.6834 285.278 30.4174 283.793 29.5165C282.761 28.89 281.771 28.7868 276.775 28.7856C271.294 28.7841 270.988 28.8234 271.484 29.4654C271.773 29.84 272.642 30.9353 273.413 31.899C274.185 32.8626 278.214 38.434 282.365 44.2803C289.186 53.8828 289.859 54.973 289.344 55.5719C289.03 55.9359 285.331 60.4393 281.124 65.5789C276.917 70.7185 272.666 75.7047 271.677 76.6594C270.689 77.6141 269.88 78.5341 269.88 78.7035C269.88 79.2747 274.226 79.0306 275.295 78.3994C275.866 78.0626 276.849 77.055 277.479 76.1606C279.426 73.3946 291.842 57.9855 292.113 57.9976C292.254 58.0038 295.186 62.068 298.628 67.0296C302.07 71.9909 305.386 76.5391 305.997 77.1363C307.576 78.6794 309.456 79.0504 315.071 78.9262L320 78.8172L317.528 75.6945C314.873 72.3413 300.896 52.5115 300.544 51.6C300.351 51.0992 311.953 36.129 316.642 30.8282L318.45 28.7841H315.834C312.591 28.7841 312.976 28.4095 304.495 39.8147C301.053 44.4431 298.103 48.1907 297.939 48.1424C297.776 48.0941 295.19 44.5509 292.193 40.2687Z" fill="#191919"/>
<path d="M238.16 37.7099C239.196 34.9875 241.391 32.4006 243.457 31.4665C246.973 29.8763 251.859 30.986 253.738 33.8011C255.142 35.9044 255.474 37.5744 255.69 43.638L255.894 49.3402L251.837 49.5641C249.606 49.6871 245.097 49.8674 241.816 49.9647L235.852 50.1415L235.857 48.5163C235.864 46.3565 237.129 40.4195 238.16 37.7099Z" fill="white"/>
</svg>
