<svg width="320" height="80" viewBox="0 0 320 80" fill="none" xmlns="http://www.w3.org/2000/svg">
<path d="M49.2824 4.10973C49.2824 3.28934 42.9293 1.33474 37.7441 0.560293C30.8289 -0.473077 24.3635 -0.0767057 18.3831 1.74668C10.5848 4.12491 6.31949 7.28187 3.69149 12.6212C0.431809 19.2435 1.20429 28.0232 5.52119 33.421C8.6694 37.3567 11.7449 39.437 21.7942 44.4275C30.2915 48.647 31.4875 49.3611 33.3986 51.3554C36.0954 54.1701 36.5707 55.6883 36.5707 61.4906C36.5707 65.0073 36.4029 66.4187 35.7892 68.0673C34.7977 70.7294 32.5119 73.326 30.0791 74.5533C24.7574 77.238 15.1144 76.4592 7.11974 72.6988C4.12369 71.2897 2.51379 71.4252 1.00129 73.2147C0.450581 73.8661 0 74.5708 0 74.7803C0 75.4488 4.33529 77.1161 9.77825 78.5404C14.8324 79.8627 15.3429 79.9218 21.7077 79.9211C28.8603 79.9207 32.1012 79.4285 36.4389 77.6842C43.7076 74.7616 48.3851 70.0001 50.6834 63.1847C51.5948 60.4821 51.6929 59.6695 51.5705 55.8331C51.4407 51.7658 51.3491 51.3515 49.9653 48.5645C46.679 41.9445 43.399 39.5924 26.5968 31.8055C21.9029 29.6305 19.3547 27.5101 17.9009 24.5708C16.7564 22.256 16.661 21.7611 16.661 18.1233C16.6602 9.65776 19.6328 5.50131 26.5789 4.25457C30.6673 3.52101 38.1012 4.54737 42.1881 6.41008C45.1063 7.74014 46.3274 7.66306 47.9526 6.04525C48.684 5.31714 49.2824 4.44614 49.2824 4.10973Z" fill="#191919"/>
<path d="M156.019 20.0013C159.187 17.3478 158.448 11.3107 154.74 9.55934C152.068 8.29741 148.347 9.04188 146.661 11.1764C141.911 17.1874 150.128 24.9361 156.019 20.0013Z" fill="#191919"/>
<path d="M213.568 35.2305C212.406 32.2682 209.742 29.5517 207.088 28.623C205.159 27.9483 199.783 27.5009 197.91 27.8591C193.258 28.7496 188.3 31.2991 184.905 34.5464L183.438 35.9497V32.1176V28.2851L181.385 28.5307C180.255 28.6659 177.825 28.778 175.983 28.7796C173.927 28.7819 172.378 28.9707 171.968 29.2698C171.353 29.7187 171.293 31.6908 171.209 54.5784L171.117 79.4003H177.519H183.92L183.619 78.5242C183.453 78.0422 183.242 68.8824 183.151 58.1687L182.985 38.6888L185.077 37.2548C188.162 35.1398 190.175 34.5106 193.999 34.467C196.866 34.4339 197.561 34.5628 199.05 35.4022C201.185 36.605 202.173 38.4058 202.628 41.9229C202.816 43.369 202.975 51.581 202.982 60.1716C202.994 75.4116 203.014 75.8162 203.811 76.8246C205.227 78.6169 206.505 79.0109 210.895 79.0109H214.924L214.824 65.8699C214.618 38.7675 214.578 37.8042 213.568 35.2305Z" fill="#191919"/>
<path d="M264.737 37.23C262.364 32.5499 258.341 29.4634 252.97 28.2031C249.898 27.482 243.07 27.4979 240.018 28.2334C232.766 29.9809 226.793 35.8844 224.169 43.8979C222.858 47.9021 222.333 53.8064 222.877 58.4231C224.164 69.3482 229.637 76.5141 238.788 79.2579C242.049 80.2356 250.29 80.2512 253.846 79.2867C258.426 78.0443 264.407 74.8776 264.407 73.6951C264.407 73.3984 263.971 72.9576 263.438 72.7158C262.627 72.3483 261.972 72.4705 259.429 73.4646C251.981 76.3758 244.921 75.8689 240.912 72.1357C237.796 69.2349 236.185 64.3581 235.624 56.1375L235.351 52.1465H251.004H266.656L266.9 50.9298C267.632 47.2869 266.635 40.9738 264.737 37.23Z" fill="#191919"/>
<path d="M101.16 34.5418C99.8159 31.7485 97.164 29.3671 94.529 28.588C92.72 28.0534 87.7241 27.8658 85.8569 28.2625C82.0731 29.0666 76.616 32.0175 74.1476 34.594C73.5159 35.2535 72.8557 35.7932 72.6809 35.7932C72.506 35.7932 72.3629 34.2163 72.3629 32.2889V28.7847L70.3094 28.7866C69.1802 28.7878 66.5839 28.8987 64.5403 29.0335L60.8245 29.2784V51.7119C60.8245 64.0504 60.6951 75.2407 60.5371 76.579L60.25 79.0125H66.5996L72.9496 79.0129L72.8268 58.831L72.7039 38.6492L74.0001 37.6668C76.6301 35.6733 78.6925 34.893 81.8204 34.7069C87.6525 34.3599 89.4541 35.3653 90.7781 39.704C91.5654 42.2839 91.5897 43.0369 91.4633 60.8908L91.3327 79.4022H97.5908H103.849L103.732 58.9646L103.615 38.5265L106.007 36.9874C108.863 35.15 111.561 34.476 115.234 34.6827C119.942 34.9475 121.724 37.0746 122.441 43.2849C122.646 45.0534 122.814 52.9629 122.816 60.8612C122.819 74.5769 122.854 75.2785 123.607 76.4918C124.836 78.4709 126.433 79.0125 131.038 79.0125H135.033L134.756 77.7471C134.604 77.0509 134.348 67.8086 134.187 57.2082C133.978 43.4095 133.754 37.4924 133.398 36.3772C131.463 30.3176 127.94 28.0059 120.638 28.0059C114.491 28.0059 109.681 30.0633 104.935 34.7228C103.597 36.0369 102.44 37.0345 102.365 36.9395C102.291 36.8445 101.748 35.7655 101.16 34.5418Z" fill="#191919"/>
<path d="M158.272 75.4475C158.132 73.4874 158.018 62.0985 158.018 50.1389V28.3945L154.986 28.4393C150.519 28.5051 149.04 28.8867 147.773 30.2985L146.675 31.5219L146.673 50.8864C146.672 61.5371 146.557 72.2224 146.418 74.6314L146.164 79.0117H152.345H158.526L158.272 75.4475Z" fill="#191919"/>
<path d="M292.196 40.2692C285.488 30.6839 285.281 30.4179 283.796 29.517C282.764 28.8905 281.774 28.7873 276.778 28.7861C271.297 28.7846 270.991 28.8239 271.487 29.4659C271.776 29.8405 272.645 30.9358 273.416 31.8995C274.188 32.8631 278.217 38.4345 282.368 44.2808C289.189 53.8833 289.862 54.9735 289.347 55.5724C289.033 55.9364 285.334 60.4398 281.127 65.5794C276.92 70.719 272.669 75.7052 271.68 76.6599C270.692 77.6146 269.883 78.5346 269.883 78.704C269.883 79.2752 274.229 79.0311 275.298 78.3999C275.869 78.0631 276.852 77.0555 277.482 76.1611C279.429 73.3951 291.845 57.986 292.116 57.9981C292.257 58.0043 295.189 62.0685 298.631 67.0301C302.073 71.9914 305.389 76.5396 306 77.1368C307.579 78.6799 309.459 79.0509 315.074 78.9267L320.003 78.8177L317.531 75.695C314.876 72.3418 300.899 52.512 300.547 51.6005C300.354 51.0997 311.956 36.1295 316.645 30.8287L318.453 28.7846H315.837C312.594 28.7846 312.979 28.41 304.498 39.8152C301.056 44.4436 298.106 48.1912 297.942 48.1429C297.779 48.0946 295.193 44.5514 292.196 40.2692Z" fill="#191919"/>
<path d="M238.16 37.7099C239.196 34.9875 241.391 32.4006 243.457 31.4665C246.973 29.8763 251.859 30.986 253.738 33.8011C255.142 35.9044 255.474 37.5744 255.69 43.638L255.894 49.3402L251.837 49.5641C249.606 49.6871 245.097 49.8674 241.816 49.9647L235.852 50.1415L235.857 48.5163C235.864 46.3565 237.129 40.4195 238.16 37.7099Z" fill="white"/>
</svg>
