<svg width="24" height="24" viewBox="0 0 24 24" fill="none" xmlns="http://www.w3.org/2000/svg">
<path fill-rule="evenodd" clip-rule="evenodd" d="M12.7057 13V8.5C12.7057 7.672 12.0337 7 11.2057 7C10.3777 7 9.70572 7.672 9.70572 8.5V16L7.67372 15.323C7.08072 15.125 6.42672 15.28 5.98372 15.722C5.29672 16.409 5.34872 17.536 6.09372 18.158L10.1487 21.537C10.5097 21.836 10.9627 22 11.4297 22H15.9397C16.9487 22 17.7987 21.249 17.9247 20.248L18.4677 15.905C18.6007 14.84 17.8697 13.861 16.8117 13.684L12.7057 13Z" stroke="black" stroke-width="1.5" stroke-linecap="round" stroke-linejoin="round"/>
<path d="M5.21094 8H6.21094" stroke="black" stroke-width="1.5" stroke-linecap="round" stroke-linejoin="round"/>
<path d="M17.2109 8H16.2109" stroke="black" stroke-width="1.5" stroke-linecap="round" stroke-linejoin="round"/>
<path d="M15.4488 3.75938L14.7387 4.45938" stroke="black" stroke-width="1.5" stroke-linecap="round" stroke-linejoin="round"/>
<path d="M6.9575 3.75938L7.6675 4.45938" stroke="black" stroke-width="1.5" stroke-linecap="round" stroke-linejoin="round"/>
<path d="M11.2109 2V3" stroke="black" stroke-width="1.5" stroke-linecap="round" stroke-linejoin="round"/>
</svg>
