<svg width="126" height="35" viewBox="0 0 126 35" fill="none" xmlns="http://www.w3.org/2000/svg">
<g clip-path="url(#clip0_9252_9440)">
<path d="M53.0523 5.79446H46.7643V33.4565H42.296V5.79446H36V1.53516H53.0523V5.79446Z" fill="#22201C"/>
<path d="M108.595 30.1605C106.017 30.162 103.498 29.4201 101.354 28.0287C99.2108 26.6373 97.5399 24.6588 96.5529 22.3437C95.5659 20.0285 95.3072 17.4807 95.8096 15.0226C96.312 12.5644 97.5529 10.3064 99.3752 8.53425C101.197 6.76207 103.519 5.55537 106.047 5.06681C108.575 4.57825 111.195 4.82979 113.575 5.78959C115.956 6.7494 117.99 8.37434 119.421 10.4588C120.852 12.5434 121.615 14.9937 121.613 17.4999C121.613 20.8577 120.242 24.078 117.801 26.4523C115.359 28.8266 112.047 30.1605 108.595 30.1605ZM108.595 0.564455C105.15 0.562906 101.782 1.55484 98.9173 3.4148C96.0525 5.27474 93.8192 7.91916 92.4999 11.0136C91.1806 14.108 90.8345 17.5134 91.5055 20.7991C92.1765 24.0848 93.8345 27.1031 96.2697 29.4723C98.7048 31.8416 101.808 33.4553 105.186 34.1095C108.564 34.7635 112.066 34.4286 115.249 33.1471C118.432 31.8654 121.152 29.6948 123.066 26.9096C124.979 24.1244 126.001 20.8498 126.001 17.4999C126.002 15.2763 125.552 13.0742 124.679 11.0196C123.805 8.96494 122.522 7.09792 120.905 5.52522C119.289 3.95251 117.369 2.70493 115.258 1.85374C113.145 1.00256 110.881 0.564454 108.595 0.564455Z" fill="#22201C"/>
<path d="M77.4441 13.3813C77.4441 10.9777 76.2364 9.77973 73.2495 9.77973H70.5764V16.7403H73.491C76.3169 16.7403 77.4441 15.6207 77.4441 13.3813ZM90.7847 33.4565H76.0834L71.0193 24.9301H70.5604V33.4565H57.4531V1.54297H75.1012C86.0185 1.54297 88.7237 7.71271 88.7237 11.9329C88.8093 13.837 88.243 15.715 87.1134 17.2727C85.9401 18.6104 84.4776 19.6798 82.8302 20.4046L90.7847 33.4565Z" fill="#22201C"/>
<path d="M18.0264 1.55273V9.53896C18.0447 9.83421 18.0007 10.13 17.8971 10.4081C17.7935 10.6861 17.6325 10.9407 17.424 11.156C17.2154 11.3714 16.9639 11.543 16.6846 11.6603C16.4054 11.7775 16.1044 11.838 15.8003 11.838C15.4962 11.838 15.1953 11.7775 14.916 11.6603C14.6368 11.543 14.3852 11.3714 14.1767 11.156C13.9682 10.9407 13.8072 10.6861 13.7036 10.4081C13.5999 10.13 13.5559 9.83421 13.5741 9.53896V1.55273H0V19.326C0 27.5314 5.30569 34.4451 15.917 34.4451C26.3835 34.4451 31.6007 27.5314 31.6007 19.326V1.55273H18.0264Z" fill="#22201C"/>
</g>
<defs>
<clipPath id="clip0_9252_9440">
<rect width="126" height="35" fill="white"/>
</clipPath>
</defs>
</svg>
