<svg width="244" height="68" viewBox="0 0 244 68" fill="none" xmlns="http://www.w3.org/2000/svg">
<mask id="mask0_9292_9628" style="mask-type:luminance" maskUnits="userSpaceOnUse" x="0" y="0" width="244" height="68">
<path d="M244 0H0V67.7778H244V0Z" fill="white"/>
</mask>
<g mask="url(#mask0_9292_9628)">
<path d="M102.741 11.2208H90.5639V64.7886H81.911V11.2208H69.7188V2.97266H102.741V11.2208Z" fill="#22201C"/>
<path d="M210.295 58.4048C205.302 58.4077 200.424 56.971 196.272 54.2765C192.122 51.5821 188.886 47.7507 186.975 43.2675C185.064 38.7841 184.563 33.8502 185.536 29.0901C186.509 24.3298 188.912 19.9572 192.44 16.5254C195.968 13.0935 200.465 10.7567 205.36 9.81065C210.256 8.86455 215.33 9.35166 219.938 11.2103C224.549 13.069 228.488 16.2157 231.259 20.2523C234.03 24.2891 235.508 29.0342 235.504 33.8874C235.504 40.3898 232.849 46.626 228.122 51.2238C223.393 55.8217 216.979 58.4048 210.295 58.4048ZM210.295 1.0918C203.623 1.0888 197.101 3.00969 191.554 6.61152C186.006 10.2133 181.681 15.3342 179.126 21.3267C176.572 27.319 175.901 33.9136 177.201 40.2764C178.5 46.6391 181.711 52.4841 186.427 57.0721C191.142 61.6602 197.152 64.7852 203.693 66.0521C210.235 67.3185 217.016 66.67 223.18 64.1884C229.344 61.7063 234.611 57.5029 238.318 52.1094C242.022 46.7158 244.002 40.3745 244.002 33.8874C244.003 29.5814 243.132 25.317 241.441 21.3383C239.749 17.3594 237.264 13.7439 234.133 10.6984C231.004 7.6528 227.286 5.23685 223.198 3.58851C219.106 1.94019 214.722 1.0918 210.295 1.0918Z" fill="#22201C"/>
<path d="M149.971 25.9133C149.971 21.2587 147.632 18.9388 141.848 18.9388H136.671V32.418H142.315C147.788 32.418 149.971 30.2499 149.971 25.9133ZM175.805 64.7891H147.336L137.529 48.2776H136.64V64.7891H111.258V2.98828H145.433C166.575 2.98828 171.814 14.936 171.814 23.1085C171.979 26.7958 170.883 30.4325 168.695 33.449C166.423 36.0395 163.591 38.1104 160.401 39.514L175.805 64.7891Z" fill="#22201C"/>
<path d="M34.9083 3.00586V18.4713C34.9437 19.043 34.8585 19.6158 34.6579 20.1544C34.4573 20.6927 34.1455 21.1857 33.7417 21.6027C33.3378 22.0198 32.8507 22.3521 32.3099 22.5793C31.7692 22.8062 31.1863 22.9234 30.5974 22.9234C30.0085 22.9234 29.4258 22.8062 28.885 22.5793C28.3443 22.3521 27.8571 22.0198 27.4533 21.6027C27.0495 21.1857 26.7378 20.6927 26.5371 20.1544C26.3363 19.6158 26.2511 19.043 26.2864 18.4713V3.00586H0V37.4239C0 53.3138 10.2745 66.7022 30.8234 66.7022C51.0919 66.7022 61.195 53.3138 61.195 37.4239V3.00586H34.9083Z" fill="#22201C"/>
</g>
</svg>
