<svg width="192" height="244" viewBox="0 0 192 244" fill="none" xmlns="http://www.w3.org/2000/svg">
<path fill-rule="evenodd" clip-rule="evenodd" d="M168.049 0.176375C167.823 0.344059 165.23 6.16378 158.325 22.0021C157.552 23.7757 154.779 30.111 152.162 36.0806C149.545 42.0503 146.553 48.8811 145.512 51.2603C143.212 56.5175 140.105 63.6082 134.139 77.2152C131.654 82.882 128.879 89.2174 127.972 91.2938C127.064 93.3702 125.314 97.3696 124.081 100.181C122.848 102.993 119.374 110.921 116.361 117.799C113.347 124.677 108.757 135.154 106.16 141.08C103.563 147.006 100.73 153.477 99.8642 155.46L98.2907 159.065L98.0248 158.449C97.8786 158.11 97.2647 156.608 96.6608 155.112L95.5627 152.391L98.8518 144.887C100.661 140.76 102.502 136.569 102.943 135.574C103.385 134.579 103.909 133.376 104.108 132.9C104.307 132.424 105.482 129.735 106.718 126.923C109.546 120.491 117.315 102.766 120.128 96.3274C121.299 93.6454 124.073 87.3101 126.292 82.2489C133.514 65.7757 136.231 59.5745 137.665 56.294C138.44 54.5204 140.673 49.4238 142.627 44.9682C144.581 40.5126 147.139 34.6728 148.311 31.9908C149.483 29.3088 152.692 21.9824 155.442 15.71C162.568 -0.543913 161.893 1.15668 161.393 0.71199C161.013 0.374261 160.517 0.380553 160.211 0.726933C160.077 0.878415 159.119 2.94883 158.082 5.32803C155.844 10.4611 153.643 15.491 146.31 32.2267C143.297 39.1048 140.089 46.4311 139.182 48.5075C138.274 50.5839 135.608 56.6715 133.255 62.0355C130.904 67.3995 128.346 73.2394 127.573 75.013C126.8 76.7866 124.134 82.8742 121.649 88.541C119.163 94.2078 116.17 101.039 114.997 103.721C113.824 106.403 111.699 111.252 110.274 114.496C108.848 117.74 107.156 121.598 106.512 123.069C105.868 124.54 103.31 130.379 100.827 136.046C98.3437 141.713 95.9477 147.183 95.5023 148.201C95.057 149.218 94.6667 150.026 94.635 149.995C94.6032 149.964 93.9809 148.49 93.2517 146.72L91.9261 143.502L92.9884 141.072C93.5726 139.735 94.7024 137.155 95.499 135.338C96.2956 133.522 99.2886 126.691 102.15 120.159C105.011 113.627 107.944 106.937 108.667 105.294C109.39 103.65 110.942 100.111 112.115 97.4286C113.289 94.7466 116.498 87.4202 119.247 81.1478C121.996 74.8753 124.987 68.0445 125.895 65.9681C126.803 63.8917 129.36 58.0518 131.579 52.9906C136.851 40.9606 142.265 28.599 143.428 25.9346C143.938 24.7667 146.172 19.6701 148.393 14.6089C154.423 0.865516 154.064 1.75412 153.764 1.30329C153.594 1.04862 153.36 0.923561 153.053 0.923561C152.52 0.923561 152.405 1.0472 151.963 2.10333C151.782 2.53591 149.275 8.26958 146.392 14.8448C143.51 21.4201 140.627 28.0032 139.986 29.4739C138.798 32.1975 135.951 38.6966 127.89 57.0805C125.405 62.7473 122.414 69.5782 121.243 72.2602C120.072 74.9422 117.515 80.782 115.559 85.2376C112.182 92.9335 109.601 98.8238 103.427 112.923C101.931 116.34 99.8672 121.048 98.8414 123.383C97.8155 125.719 95.6623 130.654 94.0566 134.349C92.4509 138.045 91.0958 141.071 91.0452 141.074C90.9946 141.077 90.3519 139.595 89.6168 137.779C88.3839 134.735 88.2963 134.445 88.4858 134.044C88.7295 133.527 98.266 111.805 101.142 105.215C102.916 101.151 116.276 70.6565 121.438 58.8895C122.805 55.7749 124.34 52.271 124.849 51.103C125.359 49.935 128.566 42.6087 131.976 34.8222C135.387 27.0358 139.138 18.4706 140.312 15.7886C141.486 13.1066 143.322 8.93025 144.391 6.50779C145.461 4.08534 146.339 1.9443 146.343 1.74987C146.347 1.55544 146.261 1.29008 146.151 1.15999C145.909 0.873382 145.131 0.848528 144.906 1.12019C144.816 1.22841 143.986 3.05108 143.06 5.17072C141.159 9.52517 137.56 17.7469 129.253 36.7098C126.107 43.8907 122.899 51.2171 122.125 52.9906C121.35 54.7642 119.117 59.8608 117.162 64.3164C115.208 68.772 112.649 74.6119 111.476 77.2939C108.957 83.0558 100.78 101.723 97.5916 108.99C92.2685 121.125 89.8242 126.706 88.6877 129.322C88.0205 130.857 87.4339 132.112 87.3841 132.11C87.3343 132.109 86.4014 129.897 85.311 127.195C84.2207 124.493 79.6191 113.151 75.0851 101.99C62.6144 71.2926 51.6649 44.3308 48.9408 37.6132C46.3434 31.208 46.3535 31.2257 45.4246 31.5151C44.7774 31.7169 44.8653 32.2351 46.029 35.0758C47.2739 38.1147 58.9244 66.7971 64.2318 79.8893C66.1082 84.518 71.8664 98.6977 77.0279 111.4L86.4126 134.495L85.0346 137.669C84.2766 139.415 83.6012 140.902 83.5336 140.973C83.466 141.044 81.59 136.62 79.3648 131.142C77.1394 125.664 70.5291 109.395 64.675 94.9904C58.821 80.5854 53.5043 67.49 52.8601 65.8894C48.2928 54.5399 39.1081 32.0842 38.9148 31.7942C38.4998 31.1717 37.405 31.4772 37.405 32.2154C37.405 32.3699 37.7972 33.4443 38.2765 34.6031C38.756 35.7618 42.0785 43.93 45.6599 52.7547C59.2316 86.1956 61.7661 92.4381 69.3539 111.114C73.6424 121.669 78.334 133.218 79.7799 136.779C81.2258 140.341 82.4087 143.335 82.4087 143.433C82.4087 143.679 79.6341 150.047 79.5296 150.042C79.4834 150.039 78.6988 148.181 77.7859 145.913C76.0079 141.494 66.4844 118.034 45.1733 65.5748C41.3248 56.1013 36.6988 44.7047 34.8934 40.2492C33.0881 35.7936 31.5076 31.9887 31.3812 31.7942C31.2334 31.5662 30.9931 31.4402 30.7068 31.4402C30.1639 31.4402 29.8777 31.6973 29.8777 32.1849C29.8777 32.3869 30.5924 34.3017 31.4659 36.4399C32.3394 38.5783 35.2658 45.7783 37.9689 52.4401C44.7358 69.1168 52.5776 88.429 60.8678 108.833C64.7168 118.307 70.2734 131.989 73.2154 139.238L78.5648 152.418L77.1806 155.597C76.4193 157.346 75.7444 158.834 75.6807 158.905C75.6171 158.975 74.2497 155.79 72.6422 151.826C71.0346 147.862 66.3693 136.373 62.2747 126.294C58.1802 116.214 52.43 102.057 49.4964 94.8331C46.5628 87.609 40.726 73.2394 36.5257 62.9007C32.3253 52.562 27.7695 41.3424 26.4016 37.9683C25.0336 34.5941 23.842 31.7449 23.7535 31.6368C23.5485 31.3866 22.7943 31.3817 22.5425 31.629C22.4368 31.7328 22.3504 31.9947 22.3504 32.211C22.3504 32.4274 24.5794 38.0938 27.3038 44.8031C30.0284 51.5125 36.1253 66.5226 40.8528 78.159C45.5803 89.7955 51.3436 103.988 53.6601 109.698C62.296 130.984 71.9046 154.635 73.2111 157.821C73.9536 159.632 74.5611 161.212 74.5611 161.334C74.5611 161.695 71.7673 167.969 71.6594 167.851C71.6047 167.791 69.1777 161.867 66.266 154.687C63.354 147.506 57.1899 132.322 52.568 120.945C43.6494 98.9926 37.1322 82.944 28.3575 61.3277C17.9062 35.5812 16.4384 32.0177 16.2323 31.8893C15.8317 31.6397 15.312 31.7533 15.0489 32.1476C14.7532 32.5907 12.815 27.6898 30.602 71.4737C35.0657 82.4612 39.8211 94.1763 41.1694 97.5072C42.5179 100.838 48.267 114.995 53.9452 128.968C59.6235 142.94 65.7206 157.95 67.4945 162.323L70.7199 170.275L69.4233 173.256C68.7101 174.896 68.0549 176.414 67.9673 176.63C67.8278 176.975 67.4526 176.148 64.9343 169.945C63.3535 166.052 59.2568 155.965 55.8301 147.529C49.6095 132.216 40.979 110.966 26.9851 76.5073C22.9095 66.4715 17.2185 52.4593 14.3384 45.369C10.6417 36.2683 9.00395 32.4139 8.76837 32.2602C8.34443 31.9839 7.80759 32.1441 7.59058 32.6123C7.45077 32.9134 7.74401 33.7579 9.42853 37.9075C10.5309 40.6229 14.9412 51.4805 19.2294 62.0355C23.5174 72.5905 29.1379 86.4292 31.7193 92.7881C34.3008 99.1471 39.5471 112.066 43.3778 121.496C47.2086 130.926 52.4839 143.915 55.1007 150.361C57.7177 156.806 61.4011 165.872 63.2861 170.507C65.1711 175.143 66.7134 179.049 66.7134 179.189C66.7134 179.554 65.0241 183.35 64.5456 184.06C64.0952 184.729 63.8266 184.704 63.2129 183.938C63.0358 183.717 60.7291 178.212 58.087 171.707C55.4449 165.201 49.8619 151.454 45.6804 141.159C41.4987 130.863 35.9511 117.201 33.3522 110.799C28.7277 99.4068 17.8208 72.5534 6.94451 45.7821C1.1589 31.5412 1.27068 31.7739 0.431149 32.2151C0.244888 32.3129 0.0517405 32.5528 0.00177195 32.7479C-0.0605285 32.992 1.51796 37.0526 5.06012 45.7602C7.89215 52.7218 11.8169 62.3816 13.7819 67.2265C15.7468 72.0714 20.4315 83.6096 24.1923 92.8668C27.9529 102.124 33.0696 114.724 35.5625 120.867C38.0555 127.009 43.1001 139.432 46.7728 148.473C50.4455 157.514 55.218 169.264 57.3783 174.584C59.5386 179.904 61.5129 184.552 61.7654 184.913C62.3836 185.795 63.1287 186.226 64.0374 186.226C65.3891 186.226 66.2629 185.129 67.5429 181.825C67.6797 181.473 67.761 181.591 68.4095 183.084C69.4426 185.462 70.2108 186.226 71.5692 186.226C72.3245 186.226 72.426 186.177 73.1091 185.478C73.6016 184.975 74.0454 184.269 74.468 183.315C74.8133 182.537 75.1458 181.842 75.207 181.772C75.268 181.702 75.6189 182.344 75.9866 183.2C76.8819 185.284 77.6762 186.088 78.9416 186.191C79.7804 186.259 79.8403 186.238 80.5256 185.617C81.188 185.017 81.6646 184.191 82.4799 182.226C82.6254 181.876 82.7935 181.671 82.8683 181.754C82.9409 181.834 83.2421 182.502 83.5378 183.237C83.9563 184.278 84.2606 184.757 84.9132 185.4C85.6978 186.173 85.8012 186.226 86.5407 186.226C87.3162 186.226 87.8802 185.95 88.4654 185.286C88.6527 185.073 89.7697 182.846 90.197 181.833C90.3447 181.483 90.4025 181.561 90.8966 182.777C91.5068 184.278 91.7432 184.701 92.3274 185.335C93.5302 186.641 95.2129 186.496 96.2214 184.999C96.4429 184.671 96.8935 183.786 97.2229 183.033C97.5522 182.28 97.867 181.664 97.9228 181.665C97.9784 181.665 98.2626 182.262 98.5544 182.992C99.4567 185.248 100.414 186.224 101.724 186.225C103.001 186.226 103.84 185.317 104.891 182.792C105.191 182.071 105.478 181.547 105.529 181.628C105.579 181.709 105.83 182.307 106.084 182.957C106.966 185.206 107.983 186.226 109.345 186.226C109.923 186.226 110.177 186.125 110.689 185.695C111.378 185.116 111.625 184.683 112.81 181.979C117.019 172.374 121.094 163.078 124.05 156.338C126.003 151.883 128.236 146.786 129.011 145.013C129.786 143.239 132.562 136.904 135.18 130.934C137.798 124.964 140.357 119.124 140.866 117.957C141.375 116.789 143.609 111.692 145.829 106.631C148.05 101.57 150.609 95.7297 151.518 93.6533C155.972 83.4692 161.896 69.9442 170.258 50.8671C173.405 43.6862 176.396 36.8554 176.904 35.6874C177.411 34.5194 179.644 29.4228 181.864 24.3616C192.378 0.398486 192.174 0.883764 191.928 0.451654C191.651 -0.0356686 190.993 -0.13996 190.64 0.247633C190.498 0.403048 189.302 3.00782 187.983 6.03589C185.797 11.0518 177.215 30.6617 169.74 47.721C168.11 51.4412 166.359 55.4406 165.848 56.6086C165.338 57.7766 163.912 61.0327 162.68 63.8445C161.448 66.6563 158.889 72.4961 156.994 76.822C155.099 81.1478 151.516 89.3236 149.033 94.9904C146.55 100.657 143.775 106.993 142.868 109.069C141.961 111.145 139.402 116.985 137.182 122.046C134.961 127.108 132.619 132.452 131.977 133.923C131.335 135.393 128.993 140.738 126.774 145.799C124.554 150.86 122.104 156.452 121.329 158.226C120.554 160 118.103 165.592 115.882 170.653C113.661 175.714 111.521 180.598 111.126 181.507C109.829 184.496 109.443 184.919 108.722 184.141C108.281 183.666 108.108 183.318 107.222 181.134L106.465 179.268L106.908 178.224C107.152 177.65 108.16 175.34 109.149 173.091C110.137 170.842 112.121 166.311 113.556 163.024C114.992 159.736 117.551 153.896 119.243 150.046C122.849 141.843 128.917 127.999 129.896 125.743C130.272 124.878 132.72 119.286 135.337 113.316C137.954 107.346 141.055 100.268 142.229 97.5859C144.61 92.1423 150.684 78.2765 152.91 73.204C153.707 71.3872 156.484 65.0518 159.081 59.1254C161.678 53.1991 164.594 46.5452 165.561 44.339C166.528 42.1328 167.953 38.8767 168.727 37.1031C169.501 35.3295 173.253 26.7644 177.063 18.0695C185.169 -0.42342 184.64 0.840977 184.43 0.455587C184.238 0.103701 183.745 -0.0781403 183.331 0.0508477C182.983 0.159386 183.185 -0.257622 180.504 5.87859C179.333 8.56059 176.341 15.3914 173.857 21.0583C171.372 26.7251 168.706 32.8127 167.932 34.5863C167.157 36.3599 164.166 43.1907 161.284 49.7659C158.402 56.3412 155.736 62.4288 155.36 63.2939C154.985 64.1591 152.426 69.999 149.675 76.2714C146.924 82.5438 144.366 88.3837 143.991 89.2488C143.615 90.114 141.057 95.9539 138.305 102.226C135.553 108.499 132.885 114.586 132.376 115.754C131.867 116.922 129.309 122.762 126.691 128.732C124.074 134.701 120.507 142.842 118.765 146.822C116.197 152.689 106.873 173.951 105.805 176.377L105.535 176.989L104.222 173.743C103.5 171.957 102.909 170.405 102.909 170.294C102.909 170.183 103.744 168.183 104.764 165.85C105.785 163.517 107.363 159.909 108.271 157.833C109.179 155.756 111.305 150.907 112.996 147.057C114.688 143.207 117.029 137.863 118.201 135.181C120.35 130.261 122.064 126.348 130.3 107.575C132.786 101.908 135.234 96.3157 135.741 95.1477C136.247 93.9797 138.804 88.1399 141.423 82.1702C146.346 70.9492 148.099 66.9479 151.797 58.4962C152.99 55.771 156.214 48.4092 158.963 42.1368C164.262 30.0453 168.214 21.0178 173.597 8.70547C175.414 4.55032 176.9 0.99828 176.9 0.812348C176.9 0.130757 176.129 -0.242521 175.586 0.176375C175.446 0.284599 173.6 4.33702 171.485 9.18194C169.371 14.0268 165.609 22.6274 163.126 28.2942C160.644 33.961 157.653 40.7918 156.481 43.4739C155.308 46.1559 152.208 53.2345 149.592 59.2041C146.975 65.1737 143.409 73.3141 141.667 77.2939C139.924 81.2736 136.141 89.9095 133.259 96.4848C130.377 103.06 127.602 109.395 127.092 110.563C126.582 111.731 125.048 115.235 123.682 118.35C122.316 121.464 119.866 127.056 118.237 130.777C114.279 139.813 106.187 158.273 103.998 163.26C103.029 165.466 102.164 167.448 102.075 167.664C101.881 168.136 102.066 168.503 100.413 164.383L99.1907 161.338L101.917 155.102C103.416 151.673 106.242 145.221 108.197 140.765C110.151 136.31 112.492 130.965 113.398 128.889C114.305 126.813 116.863 120.973 119.084 115.912C121.304 110.85 124.887 102.675 127.045 97.7432C131.51 87.5415 133.99 81.8813 142.069 63.4513C145.217 56.2704 148.209 49.4395 148.717 48.2716C149.225 47.1036 151.673 41.5115 154.157 35.8447C156.64 30.1779 159.524 23.5948 160.565 21.2156C161.605 18.8364 164.013 13.3339 165.915 8.98782C167.817 4.64187 169.373 0.948415 169.373 0.780101C169.373 0.125409 168.595 -0.229308 168.049 0.176375ZM88.7318 140.221L90.0447 143.46L88.6027 146.759C87.8096 148.573 87.1102 150.002 87.0485 149.934C86.9046 149.775 84.4476 143.728 84.4417 143.517C84.435 143.274 87.2691 136.835 87.3487 136.913C87.3873 136.951 88.0096 138.44 88.7318 140.221ZM84.8124 149.185L86.1302 152.416L84.7498 155.554C83.9907 157.28 83.3696 158.764 83.3696 158.852C83.3696 159.425 82.958 158.617 81.7831 155.737L80.4468 152.461L81.8281 149.297C82.5879 147.556 83.2095 146.053 83.2095 145.956C83.2095 145.436 83.6252 146.273 84.8124 149.185ZM92.4214 149.291L93.6724 152.39L92.6553 154.718C92.0958 155.999 91.4294 157.506 91.1743 158.069L90.7105 159.091L89.3599 155.768L88.0093 152.444L89.3082 149.476C90.0226 147.843 90.6773 146.33 90.7632 146.114C90.9595 145.62 90.87 145.448 92.4214 149.291ZM80.9303 158.189L82.2229 161.378L80.9519 164.246C79.1096 168.403 79.2611 168.115 79.1135 167.743C79.0448 167.57 78.4355 166.078 77.7597 164.429L76.5308 161.429L77.9743 158.091C78.7682 156.256 79.4673 154.809 79.5278 154.877C79.5882 154.946 80.2194 156.436 80.9303 158.189ZM88.4725 158.174L89.7571 161.348L88.3112 164.624C87.516 166.426 86.8451 167.92 86.8205 167.945C86.751 168.014 84.1704 161.632 84.1704 161.392C84.1704 161.026 86.9673 154.781 87.0806 154.894C87.1397 154.953 87.766 156.429 88.4725 158.174ZM95.9825 158.034L97.3044 161.3L95.8622 164.587C95.069 166.395 94.3966 167.897 94.368 167.925C94.3393 167.953 93.7161 166.491 92.9831 164.676L91.6503 161.376L92.8965 158.503C93.5819 156.923 94.2211 155.436 94.3167 155.198C94.4123 154.96 94.5288 154.766 94.5755 154.767C94.6223 154.768 95.2554 156.238 95.9825 158.034ZM76.9371 167.015L78.272 170.297L76.8782 173.503C76.1115 175.266 75.4472 176.77 75.4019 176.846C75.3565 176.921 74.7132 175.481 73.9725 173.646L72.6256 170.31L73.9938 167.162C74.7462 165.432 75.3618 163.952 75.3618 163.873C75.3618 163.332 75.7717 164.149 76.9371 167.015ZM84.476 166.968C85.1888 168.705 85.7719 170.189 85.7719 170.266C85.7719 170.512 82.9889 176.788 82.8799 176.788C82.8219 176.788 82.1889 175.335 81.4734 173.559L80.1721 170.331L81.466 167.385C82.1777 165.765 82.8272 164.27 82.9092 164.064C82.9912 163.857 83.0856 163.715 83.1191 163.749C83.1528 163.783 83.7633 165.231 84.476 166.968ZM92.1006 167.088L93.3577 170.209L93.1005 170.864C92.5446 172.278 90.5073 176.788 90.4243 176.787C90.3759 176.787 89.7464 175.333 89.0252 173.557L87.714 170.328L89.0015 167.384C89.7097 165.764 90.3566 164.269 90.4389 164.06C90.5223 163.848 90.645 163.744 90.7161 163.824C90.7862 163.903 91.4094 165.372 92.1006 167.088ZM98.4242 163.923C98.4242 164.029 98.9766 165.462 99.6518 167.109C100.327 168.755 100.879 170.173 100.878 170.26C100.877 170.346 100.221 171.902 99.4198 173.717C98.1302 176.638 97.946 176.972 97.8108 176.627C97.7271 176.412 97.134 174.93 96.4931 173.332C95.8523 171.735 95.3291 170.354 95.3305 170.265C95.3321 170.176 95.928 168.757 96.655 167.114C97.3819 165.47 98.013 164.036 98.0575 163.928C98.1611 163.676 98.4242 163.672 98.4242 163.923ZM96.9072 179.011C97.025 179.365 94.9727 183.902 94.4961 184.342L94.1109 184.698L93.6522 184.215C93.2485 183.791 92.497 182.195 91.63 179.922L91.3554 179.203L92.6633 176.226C93.3825 174.588 94.0411 173.071 94.1268 172.855C94.2647 172.507 94.4283 172.823 95.552 175.608C96.2503 177.338 96.8602 178.87 96.9072 179.011ZM72.7993 175.323C73.3719 176.763 73.9603 178.235 74.1069 178.595L74.3734 179.249L73.4073 181.44C71.9803 184.675 71.6238 185.026 70.819 183.984C70.4415 183.496 68.7985 179.667 68.7927 179.263C68.7887 178.99 71.5388 172.697 71.6595 172.702C71.7138 172.704 72.2268 173.884 72.7993 175.323ZM80.5965 175.993L81.9074 179.282L80.9349 181.456C79.4895 184.688 79.1489 185.02 78.3444 183.984C78.0052 183.547 76.324 179.618 76.3231 179.26C76.3224 179.04 79.0973 172.698 79.1929 172.701C79.2438 172.703 79.8755 174.184 80.5965 175.993ZM88.1342 175.965L89.4554 179.231L88.4899 181.412C87.0549 184.656 86.6784 185.026 85.8736 183.984C85.3416 183.296 83.7945 179.362 83.9218 179.022C84.2722 178.086 86.6675 172.698 86.7329 172.698C86.7769 172.698 87.4074 174.168 88.1342 175.965ZM103.229 175.923C104.032 177.891 104.504 179.255 104.442 179.423C103.86 180.98 102.573 183.688 102.207 184.125L101.746 184.675L101.224 184.178C100.851 183.823 100.441 183.043 99.7923 181.451L98.8832 179.222L100.255 176.127C101.01 174.424 101.627 172.957 101.627 172.865C101.627 172.242 102.083 173.112 103.229 175.923ZM72.7225 215.337C71.4976 215.538 69.771 216.217 68.7955 216.88C66.8818 218.18 65.9211 219.915 65.7885 222.309C65.6583 224.663 66.2397 226.384 67.6447 227.804C68.7492 228.92 70.0815 229.576 73.7994 230.834C78.4214 232.399 79.5842 233.228 80.0158 235.27C80.273 236.487 80.112 237.557 79.4908 238.759C78.8894 239.922 77.9043 240.759 76.4829 241.312C75.197 241.813 72.6483 241.816 71.1978 241.317C69.9303 240.881 68.8536 240.128 68.0232 239.096L67.3994 238.321L66.1787 239.113L64.958 239.905L65.2762 240.343C66.2949 241.749 68.5024 243.1 70.6955 243.662C72.3242 244.078 75.186 244.116 76.6431 243.741C78.8345 243.176 80.9083 241.691 81.83 240.028C82.9441 238.017 83.003 234.964 81.9694 232.801C81.5467 231.917 80.1683 230.669 78.9504 230.067C78.342 229.767 77.0154 229.262 76.0025 228.945C70.8901 227.344 69.7469 226.716 68.822 225.001C68.4546 224.319 68.3978 224.025 68.3965 222.799C68.3952 221.566 68.4529 221.267 68.8419 220.489C69.8482 218.477 72.1238 217.405 75.0692 217.557C76.7915 217.646 78.2188 218.26 79.3476 219.398L80.1223 220.179L81.182 219.444C81.7649 219.04 82.2432 218.657 82.2452 218.594C82.2469 218.531 81.842 218.086 81.3451 217.606C79.3676 215.695 75.9781 214.803 72.7225 215.337ZM134.019 215.917L125.491 215.959V229.643V243.327H134.386H143.282L143.235 242.22L143.188 241.114L135.66 241.08L128.133 241.046L128.091 235.658L128.049 230.27H134.858H141.666V229.169V228.068H134.86H128.053V223.113V218.158H135.34H142.627V216.978C142.627 216.329 142.609 215.816 142.587 215.836C142.565 215.857 138.709 215.893 134.019 215.917ZM0.409047 216.067C0.409047 216.128 1.01588 217.774 1.75772 219.724C2.49956 221.675 4.34231 226.527 5.85289 230.506C7.36364 234.486 9.07682 238.999 9.66027 240.534L10.721 243.327H12.0343C12.9371 243.327 13.3712 243.265 13.4239 243.13C14.0895 241.421 17.7818 231.875 18.4181 230.217C18.8883 228.992 20.1529 225.724 21.2283 222.956C22.3036 220.187 23.3531 217.48 23.5605 216.939L23.9375 215.956H22.5033C21.5989 215.956 21.0691 216.018 21.0691 216.123C21.0691 216.215 20.6059 217.506 20.0399 218.994C18.0074 224.333 13.1859 237.141 12.7005 238.489C12.4281 239.247 12.1456 239.866 12.0727 239.866C11.9998 239.866 11.9402 239.793 11.9402 239.704C11.9402 239.615 10.7445 236.341 9.2831 232.429C6.68154 225.464 3.42269 216.777 3.20632 216.231C3.11455 215.999 2.88521 215.956 1.75323 215.956C1.01395 215.956 0.409047 216.006 0.409047 216.067ZM35.6433 229.641V243.327H44.5389H53.4346L53.3875 242.22L53.3404 241.114L45.8131 241.08L38.2858 241.046L38.2437 235.658L38.2016 230.27H45.0103H51.819V229.13L51.8191 227.99L45.0124 228.032L38.2057 228.075V223.116V218.158H45.4928H52.7799V217.057V215.956H44.2116H35.6433V229.641ZM95.8617 229.63V243.327H97.143H98.4242V236.798V230.27H102.242C105.493 230.27 106.24 230.225 107.272 229.966C110.055 229.267 111.707 227.895 112.544 225.588C113.011 224.3 113.008 221.894 112.538 220.61C111.818 218.646 110.318 217.299 107.936 216.476L106.672 216.039L101.267 215.986L95.8617 215.934V229.63ZM155.84 229.641V243.327H157.161H158.483V236.798V230.27H160.879H163.276L165.821 234.478C167.22 236.793 168.995 239.73 169.763 241.006L171.161 243.327H172.589C173.375 243.327 174.018 243.293 174.018 243.251C174.018 243.169 168.062 233.47 166.784 231.471C166.349 230.791 166.015 230.22 166.042 230.203C166.068 230.186 166.638 230.049 167.308 229.899C170.745 229.127 172.711 227.182 173.044 224.224C173.233 222.536 173.002 220.943 172.397 219.772C171.75 218.521 170.796 217.654 169.298 216.955C167.472 216.104 166.297 215.968 160.725 215.961L155.84 215.956V229.641ZM105.631 218.321C107.014 218.534 108.522 219.27 109.223 220.075C110.724 221.797 110.654 224.823 109.076 226.382C107.696 227.745 105.999 228.11 101.387 228.036L98.5043 227.99L98.462 223.074L98.4197 218.158L101.505 218.159C103.202 218.16 105.059 218.233 105.631 218.321ZM165.557 218.316C168.806 218.778 170.494 220.426 170.494 223.138C170.494 224.802 169.793 226.101 168.44 226.945C167.06 227.805 166.289 227.939 162.206 228.027L158.483 228.108V223.133V218.158L161.485 218.161C163.137 218.163 164.969 218.233 165.557 218.316Z" fill="black"/>
</svg>
