<svg width="129" height="164" viewBox="0 0 129 164" fill="none" xmlns="http://www.w3.org/2000/svg">
<path fill-rule="evenodd" clip-rule="evenodd" d="M112.894 0.118487C112.742 0.231135 111 4.14076 106.361 14.7808C105.842 15.9723 103.979 20.2283 102.221 24.2386C100.463 28.249 98.4528 32.8378 97.7535 34.4361C96.2083 37.9679 94.1211 42.7313 90.1132 51.8724C88.4438 55.6793 86.5796 59.9353 85.9703 61.3302C85.3603 62.7251 84.1846 65.4119 83.3563 67.3006C82.528 69.1896 80.1942 74.5156 78.1701 79.1361C76.1453 83.7567 73.0618 90.7951 71.3172 94.7761C69.5726 98.7571 67.6694 103.104 67.0877 104.436L66.0307 106.858L65.852 106.444C65.7538 106.217 65.3414 105.208 64.9357 104.203L64.198 102.375L66.4076 97.3336C67.623 94.5611 68.8598 91.7456 69.156 91.0772C69.453 90.4088 69.805 89.6006 69.9387 89.2808C70.0724 88.9611 70.8617 87.1546 71.692 85.2655C73.5919 80.9446 78.811 69.0371 80.7007 64.7117C81.4874 62.91 83.351 58.654 84.8417 55.254C89.6933 44.1874 91.5186 40.0215 92.4819 37.8177C93.0026 36.6262 94.5027 33.2024 95.8153 30.2092C97.128 27.2159 98.8465 23.2928 99.6338 21.4911C100.421 19.6893 102.577 14.7675 104.424 10.5538C109.212 -0.365396 108.758 0.777046 108.422 0.478307C108.167 0.251425 107.834 0.255652 107.628 0.488346C107.538 0.59011 106.894 1.98099 106.198 3.57932C104.694 7.02766 103.216 10.4067 98.2895 21.6496C96.2654 26.2702 94.1103 31.1919 93.501 32.5868C92.891 33.9817 91.1001 38.0713 89.5193 41.6748C87.94 45.2783 86.2215 49.2015 85.7022 50.393C85.1829 51.5844 83.3919 55.674 81.7225 59.4809C80.0525 63.2878 78.0418 67.8769 77.2538 69.6787C76.4658 71.4804 75.0382 74.7379 74.0809 76.9172C73.123 79.0965 71.9863 81.6883 71.5537 82.6765C71.121 83.6647 69.4026 87.5873 67.7345 91.3943C66.0663 95.2013 64.4567 98.876 64.1575 99.5599C63.8583 100.243 63.5961 100.786 63.5748 100.765C63.5535 100.744 63.1354 99.754 62.6455 98.565L61.755 96.4031L62.4686 94.7707C62.8611 93.8725 63.6201 92.1393 64.1552 90.9187C64.6904 89.6987 66.7011 85.1097 68.6233 80.7216C70.5453 76.3334 72.5157 71.8392 73.0014 70.7354C73.4871 69.631 74.5297 67.2535 75.3177 65.4515C76.1064 63.6498 78.2622 58.728 80.1089 54.5142C81.9557 50.3004 83.965 45.7116 84.575 44.3167C85.1849 42.9218 86.9027 38.9986 88.3934 35.5985C91.9351 27.5169 95.5721 19.2125 96.3534 17.4226C96.6961 16.638 98.1968 13.2142 99.6889 9.81411C103.74 0.581444 103.499 1.1784 103.297 0.875537C103.183 0.704452 103.026 0.620439 102.819 0.620439C102.461 0.620439 102.384 0.703498 102.087 1.413C101.966 1.7036 100.281 5.55542 98.3446 9.97258C96.4085 14.3898 94.4718 18.8123 94.0411 19.8003C93.2431 21.6299 91.3305 25.996 85.9152 38.3461C84.2458 42.153 82.2365 46.7419 81.4498 48.5437C80.6631 50.3454 78.9454 54.2685 77.6313 57.2617C75.3627 62.4318 73.6288 66.3888 69.4812 75.8605C68.4762 78.156 67.0898 81.3188 66.4006 82.8874C65.7114 84.4567 64.2649 87.772 63.1863 90.2543C62.1076 92.7372 61.1972 94.77 61.1632 94.772C61.1292 94.7741 60.6975 93.7785 60.2036 92.5585C59.3754 90.5136 59.3165 90.3188 59.4438 90.0494C59.6076 89.7021 66.0141 75.1094 67.9461 70.6823C69.1379 67.9522 78.113 47.4663 81.5808 39.5614C82.4991 37.469 83.5303 35.1151 83.8723 34.3305C84.2149 33.5458 86.3693 28.6241 88.6601 23.3932C90.9516 18.1624 93.4715 12.4084 94.2601 10.6066C95.0488 8.80488 96.2822 5.99925 97.0004 4.37187C97.7192 2.74449 98.309 1.30616 98.3117 1.17554C98.3144 1.04493 98.2566 0.866662 98.1827 0.779269C98.0202 0.586729 97.4975 0.570032 97.3464 0.752532C97.2859 0.825233 96.7283 2.04968 96.1062 3.47364C94.8292 6.39891 92.4114 11.9222 86.8308 24.6613C84.7174 29.4853 82.5623 34.4071 82.0423 35.5985C81.5217 36.79 80.0216 40.2139 78.7082 43.2071C77.3955 46.2003 75.6764 50.1235 74.8884 51.9252C73.1962 55.796 67.703 68.3365 65.561 73.2183C61.985 81.3705 60.343 85.1198 59.5795 86.8772C59.1313 87.9084 58.7372 88.7515 58.7037 88.7501C58.6703 88.7495 58.0436 87.2635 57.311 85.4483C56.5786 83.6331 53.4873 76.0137 50.4414 68.5158C42.0637 47.8936 34.7079 29.781 32.8779 25.2682C31.133 20.9652 31.1398 20.9771 30.5158 21.1715C30.081 21.3071 30.14 21.6552 30.9218 23.5636C31.7581 25.6051 39.5848 44.8736 43.1503 53.6688C44.4108 56.7783 48.2791 66.3041 51.7465 74.8374L58.0511 90.3523L57.1254 92.4846C56.6161 93.6575 56.1624 94.6565 56.117 94.7042C56.0716 94.7519 54.8113 91.7799 53.3165 88.0998C51.8214 84.4198 47.3807 73.4904 43.448 63.8136C39.5153 54.1364 35.9436 45.3391 35.5109 44.2638C32.4426 36.6393 26.2724 21.5538 26.1426 21.359C25.8638 20.9408 25.1283 21.1461 25.1283 21.642C25.1283 21.7458 25.3918 22.4675 25.7138 23.246C26.0359 24.0244 28.2679 29.5117 30.6738 35.4401C39.7912 57.9053 41.4938 62.099 46.5912 74.6452C49.4722 81.736 52.624 89.4945 53.5953 91.8867C54.5667 94.2796 55.3613 96.291 55.3613 96.3568C55.3613 96.5221 53.4974 100.8 53.4272 100.797C53.3961 100.795 52.869 99.5464 52.2558 98.0228C51.0613 95.0542 44.6635 79.294 30.347 44.0525C27.7616 37.6883 24.6539 30.0322 23.441 27.039C22.2282 24.0458 21.1665 21.4897 21.0816 21.359C20.9823 21.2058 20.8208 21.1212 20.6285 21.1212C20.2638 21.1212 20.0715 21.2939 20.0715 21.6215C20.0715 21.7572 20.5517 23.0435 21.1385 24.4799C21.7253 25.9165 23.6912 30.7534 25.5071 35.2287C30.053 46.4319 35.3211 59.4057 40.8904 73.1129C43.4761 79.4774 47.2089 88.6688 49.1853 93.5386L52.779 102.393L51.8491 104.528C51.3377 105.703 50.8843 106.703 50.8415 106.751C50.7988 106.798 49.8802 104.658 48.8003 101.995C47.7203 99.3322 44.5862 91.614 41.8355 84.843C39.0849 78.0714 35.2219 68.5608 33.2512 63.7079C31.2804 58.8548 27.3593 49.2015 24.5376 42.256C21.7158 35.3106 18.6553 27.7734 17.7363 25.5067C16.8173 23.24 16.0168 21.3259 15.9574 21.2533C15.8196 21.0852 15.313 21.0819 15.1438 21.248C15.0728 21.3178 15.0148 21.4937 15.0148 21.639C15.0148 21.7844 16.5122 25.591 18.3424 30.0983C20.1728 34.6056 24.2686 44.6892 27.4445 52.5064C30.6204 60.3237 34.4921 69.8581 36.0483 73.694C41.8498 87.9937 48.3048 103.882 49.1825 106.023C49.6813 107.239 50.0894 108.301 50.0894 108.383C50.0894 108.625 48.2125 112.84 48.14 112.761C48.1033 112.72 46.4729 108.741 44.5168 103.917C42.5606 99.093 38.4196 88.8925 35.3146 81.2496C29.3232 66.5022 24.945 55.7209 19.0503 41.1993C12.0292 23.9031 11.0431 21.5092 10.9047 21.4229C10.6356 21.2552 10.2864 21.3315 10.1097 21.5964C9.91105 21.8941 8.60898 18.6017 20.5581 48.0153C23.5568 55.3966 26.7514 63.2667 27.6572 65.5043C28.5631 67.7419 32.4253 77.2524 36.2398 86.6394C40.0545 96.0256 44.1504 106.109 45.3421 109.047L47.5089 114.389L46.6379 116.392C46.1587 117.493 45.7186 118.513 45.6597 118.658C45.566 118.89 45.314 118.334 43.6222 114.167C42.5602 111.552 39.8081 104.776 37.5061 99.1085C33.3271 88.8213 27.5293 74.5458 18.1283 51.3968C15.3904 44.6549 11.5672 35.2416 9.63239 30.4784C7.14898 24.3647 6.04876 21.7753 5.8905 21.6721C5.6057 21.4865 5.24506 21.5941 5.09927 21.9086C5.00535 22.1109 5.20235 22.6782 6.33399 25.4659C7.07455 27.29 10.0373 34.5841 12.9181 41.6748C15.7987 48.7655 19.5745 58.0622 21.3087 62.3341C23.0429 66.606 26.5673 75.2848 29.1408 81.6197C31.7142 87.9547 35.2581 96.6806 37.0161 101.011C38.7742 105.341 41.2486 111.431 42.5149 114.545C43.7813 117.659 44.8174 120.283 44.8174 120.377C44.8174 120.623 43.6825 123.173 43.3611 123.65C43.0585 124.099 42.878 124.082 42.4658 123.568C42.3468 123.419 40.7972 119.721 39.0222 115.351C37.2473 110.98 33.4967 101.745 30.6876 94.8291C27.8784 87.9124 24.1516 78.7344 22.4057 74.4336C19.299 66.7805 11.9718 48.7406 4.66525 30.7559C0.778537 21.1891 0.85363 21.3454 0.289641 21.6418C0.164513 21.7075 0.0347587 21.8686 0.00119038 21.9997C-0.0406624 22.1637 1.01975 24.8916 3.39934 30.7412C5.30186 35.418 7.93847 41.9073 9.25854 45.1621C10.5785 48.4168 13.7257 56.1681 16.2521 62.3869C18.7785 68.6058 22.2158 77.0704 23.8905 81.1972C25.5653 85.3233 28.9542 93.669 31.4215 99.7426C33.8888 105.816 37.0949 113.71 38.5461 117.284C39.9974 120.858 41.3237 123.98 41.4934 124.223C41.9087 124.815 42.4092 125.105 43.0197 125.105C43.9277 125.105 44.5147 124.368 45.3746 122.148C45.4665 121.912 45.5211 121.991 45.9568 122.994C46.6508 124.591 47.1669 125.105 48.0794 125.105C48.5868 125.105 48.655 125.072 49.1139 124.602C49.4448 124.264 49.7429 123.79 50.0268 123.149C50.2588 122.626 50.4822 122.16 50.5233 122.113C50.5643 122.066 50.8 122.497 51.047 123.072C51.6485 124.472 52.1821 125.012 53.0321 125.081C53.5956 125.127 53.6359 125.113 54.0963 124.696C54.5413 124.292 54.8614 123.738 55.4091 122.418C55.5069 122.182 55.6198 122.045 55.6701 122.1C55.7188 122.154 55.9212 122.603 56.1198 123.097C56.401 123.796 56.6054 124.118 57.0438 124.55C57.5709 125.069 57.6404 125.105 58.1371 125.105C58.6581 125.105 59.037 124.919 59.4301 124.473C59.556 124.33 60.3064 122.834 60.5934 122.154C60.6926 121.918 60.7315 121.971 61.0634 122.788C61.4733 123.796 61.6321 124.08 62.0246 124.506C62.8326 125.383 63.963 125.286 64.6405 124.28C64.7893 124.06 65.0921 123.466 65.3133 122.96C65.5346 122.454 65.746 122.04 65.7835 122.041C65.8209 122.041 66.0118 122.442 66.2078 122.932C66.814 124.448 67.4571 125.103 68.3371 125.104C69.195 125.105 69.7586 124.494 70.4647 122.798C70.6662 122.313 70.859 121.961 70.8933 122.016C70.9269 122.07 71.0955 122.472 71.2661 122.909C71.8587 124.419 72.5419 125.105 73.4568 125.105C73.8451 125.105 74.0158 125.037 74.3597 124.748C74.8226 124.359 74.9885 124.068 75.7846 122.252C78.6122 115.799 81.3497 109.554 83.3355 105.026C84.6475 102.033 86.1476 98.6093 86.6683 97.4182C87.1889 96.2265 89.0538 91.9707 90.8125 87.9601C92.5713 83.9495 94.2904 80.0263 94.6323 79.2423C94.9743 78.4576 96.475 75.0335 97.9664 71.6336C99.4585 68.2337 101.178 64.3102 101.788 62.9153C104.78 56.0737 108.76 46.9878 114.378 34.172C116.492 29.3479 118.501 24.7591 118.842 23.9744C119.183 23.1898 120.683 19.7659 122.174 16.3659C129.238 0.267699 129.1 0.593703 128.935 0.303416C128.749 -0.0239619 128.307 -0.0940237 128.07 0.166357C127.975 0.270763 127.171 2.02062 126.285 4.05485C124.817 7.42448 119.051 20.5982 114.03 32.0585C112.935 34.5577 111.758 37.2444 111.415 38.0291C111.072 38.8137 110.114 41.0011 109.287 42.8901C108.459 44.779 106.74 48.7021 105.467 51.6082C104.194 54.5142 101.787 60.0067 100.119 63.8136C98.4508 67.6203 96.5866 71.8768 95.9772 73.2714C95.3679 74.6661 93.6488 78.5893 92.1575 81.9892C90.6654 85.3898 89.0921 88.9799 88.6608 89.9681C88.2295 90.9556 86.6562 94.5463 85.1655 97.9462C83.6741 101.346 82.0282 105.103 81.5076 106.295C80.9869 107.486 79.3404 111.243 77.8483 114.643C76.3563 118.043 74.9187 121.324 74.6533 121.935C73.782 123.942 73.5227 124.227 73.0383 123.704C72.7421 123.385 72.6258 123.151 72.0306 121.684L71.5221 120.43L71.8197 119.729C71.9836 119.343 72.6608 117.792 73.3252 116.281C73.9889 114.77 75.3217 111.726 76.2857 109.518C77.2504 107.309 78.9695 103.386 80.1062 100.799C82.5287 95.2887 86.6051 85.9884 87.2628 84.4728C87.5154 83.8917 89.1599 80.1351 90.918 76.1245C92.6761 72.1139 94.7593 67.359 95.548 65.5572C97.1475 61.9002 101.228 52.5853 102.723 49.1777C103.259 47.9572 105.124 43.7011 106.869 39.7198C108.614 35.7386 110.573 31.2686 111.222 29.7865C111.872 28.3044 112.829 26.117 113.349 24.9255C113.869 23.734 116.39 17.98 118.949 12.1389C124.395 -0.284449 124.039 0.56496 123.898 0.306059C123.769 0.0696652 123.438 -0.0524939 123.16 0.0341589C122.926 0.107074 123.062 -0.173068 121.261 3.94918C120.474 5.75092 118.464 10.3398 116.795 14.1467C115.126 17.9536 113.335 22.0432 112.815 23.2347C112.294 24.4262 110.285 29.0151 108.349 33.4322C106.413 37.8494 104.622 41.939 104.369 42.5202C104.117 43.1014 102.398 47.0246 100.55 51.2383C98.702 55.4521 96.9836 59.3753 96.7317 59.9564C96.4791 60.5376 94.7606 64.4608 92.9119 68.6744C91.0631 72.8885 89.2708 76.9777 88.9288 77.7623C88.5869 78.547 86.8684 82.4702 85.1097 86.4808C83.3516 90.4907 80.9554 95.9598 79.7851 98.6335C78.0599 102.575 71.7962 116.858 71.0787 118.488L70.8973 118.899L70.0153 116.719C69.5302 115.519 69.1332 114.476 69.1332 114.402C69.1332 114.327 69.6941 112.984 70.3794 111.416C71.0653 109.849 72.1254 107.425 72.7353 106.031C73.3453 104.635 74.7735 101.378 75.9095 98.7914C77.0462 96.205 78.6189 92.6149 79.4062 90.8132C80.8499 87.508 82.0013 84.8793 87.5342 72.2678C89.2043 68.4607 90.8488 64.7039 91.1894 63.9192C91.5293 63.1346 93.2471 59.2115 95.0065 55.2011C98.3137 47.6629 99.4914 44.9749 101.976 39.2971C102.777 37.4664 104.943 32.5208 106.79 28.3071C110.35 20.1841 113.004 14.1195 116.621 5.84824C117.841 3.05686 118.84 0.670634 118.84 0.545727C118.84 0.0878412 118.322 -0.162923 117.957 0.118487C117.863 0.191191 116.623 2.91356 115.202 6.16833C113.782 9.42306 111.254 15.2009 109.586 19.0077C107.919 22.8146 105.91 27.4035 105.122 29.2053C104.334 31.0071 102.252 35.7624 100.494 39.7727C98.7363 43.783 96.3407 49.2516 95.1704 51.9252C93.9995 54.5988 91.4581 60.4003 89.522 64.8175C87.5859 69.2346 85.7217 73.4904 85.3791 74.2751C85.0365 75.0597 84.006 77.4137 83.0883 79.5063C82.1706 81.5982 80.5247 85.3549 79.4304 87.8546C76.7714 93.9249 71.3353 106.326 69.8648 109.676C69.2138 111.158 68.6327 112.49 68.5729 112.635C68.4426 112.952 68.5669 113.199 67.4564 110.431L66.6353 108.385L68.4668 104.196C69.4738 101.892 71.3723 97.558 72.6856 94.5645C73.9983 91.5716 75.571 87.9809 76.1796 86.5863C76.7889 85.1917 78.5074 81.2684 79.9994 77.8685C81.4908 74.4679 83.8978 68.976 85.3475 65.6629C88.3471 58.8095 90.0131 55.007 95.4405 42.6259C97.5553 37.8019 99.5653 33.2129 99.9065 32.4284C100.248 31.6437 101.892 27.887 103.561 24.0801C105.229 20.2732 107.167 15.8507 107.866 14.2524C108.565 12.6541 110.182 8.95757 111.46 6.03792C112.738 3.11836 113.783 0.637135 113.783 0.524064C113.783 0.0842484 113.26 -0.154047 112.894 0.118487ZM59.6091 94.199L60.4911 96.3749L59.5224 98.5912C58.9896 99.8098 58.5197 100.77 58.4783 100.724C58.3816 100.617 56.731 96.555 56.7271 96.4132C56.7226 96.25 58.6265 91.9243 58.68 91.9767C58.7059 92.0023 59.1239 93.0025 59.6091 94.199ZM56.9761 100.221L57.8614 102.391L56.934 104.5C56.4241 105.659 56.0068 106.656 56.0068 106.715C56.0068 107.1 55.7303 106.557 54.941 104.622L54.0433 102.422L54.9713 100.296C55.4817 99.1266 55.8993 98.1169 55.8993 98.0517C55.8993 97.7024 56.1785 98.2647 56.9761 100.221ZM62.0877 100.292L62.9281 102.374L62.2449 103.938C61.869 104.799 61.4213 105.811 61.25 106.189L60.9384 106.876L60.0311 104.643L59.1237 102.41L59.9963 100.416C60.4762 99.3194 60.9161 98.303 60.9738 98.1579C61.1056 97.826 61.0455 97.7105 62.0877 100.292ZM54.3681 106.27L55.2365 108.412L54.3826 110.339C53.145 113.131 53.2468 112.938 53.1476 112.688C53.1015 112.572 52.6922 111.569 52.2382 110.462L51.4126 108.446L52.3823 106.204C52.9157 104.971 53.3853 103.999 53.426 104.045C53.4665 104.091 53.8906 105.092 54.3681 106.27ZM59.4349 106.26L60.2979 108.392L59.3266 110.593C58.7923 111.803 58.3416 112.807 58.3251 112.824C58.2784 112.87 56.5448 108.583 56.5448 108.421C56.5448 108.176 58.4237 103.98 58.4998 104.056C58.5395 104.096 58.9603 105.087 59.4349 106.26ZM64.48 106.166L65.3681 108.36L64.3992 110.568C63.8664 111.782 63.4147 112.791 63.3954 112.81C63.3762 112.829 62.9575 111.847 62.4651 110.628L61.5697 108.411L62.4069 106.481C62.8674 105.419 63.2968 104.42 63.361 104.26C63.4252 104.101 63.5035 103.97 63.5348 103.971C63.5663 103.972 63.9916 104.959 64.48 106.166ZM51.6855 112.199L52.5823 114.404L51.646 116.558C51.1309 117.742 50.6846 118.752 50.6542 118.803C50.6237 118.854 50.1916 117.886 49.694 116.654L48.7891 114.412L49.7083 112.298C50.2137 111.135 50.6273 110.141 50.6273 110.088C50.6273 109.725 50.9026 110.274 51.6855 112.199ZM56.7501 112.167C57.229 113.334 57.6207 114.331 57.6207 114.383C57.6207 114.548 55.7511 118.764 55.6779 118.764C55.6389 118.764 55.2136 117.788 54.733 116.595L53.8588 114.427L54.728 112.447C55.2061 111.359 55.6425 110.355 55.6975 110.216C55.7526 110.077 55.816 109.982 55.8386 110.005C55.8612 110.028 56.2713 111 56.7501 112.167ZM61.8722 112.248L62.7167 114.345L62.544 114.785C62.1705 115.735 60.8019 118.764 60.7461 118.764C60.7136 118.764 60.2907 117.787 59.8062 116.594L58.9254 114.425L59.7903 112.447C60.266 111.359 60.7006 110.354 60.7559 110.214C60.8119 110.071 60.8944 110.002 60.9421 110.055C60.9892 110.108 61.4079 111.095 61.8722 112.248ZM66.1204 110.122C66.1204 110.193 66.4915 111.156 66.945 112.262C67.3986 113.368 67.7695 114.32 67.7688 114.379C67.7681 114.437 67.3274 115.482 66.7892 116.701C65.9229 118.664 65.7991 118.888 65.7083 118.656C65.6521 118.512 65.2536 117.516 64.8231 116.443C64.3926 115.37 64.0411 114.442 64.042 114.382C64.0431 114.322 64.4434 113.369 64.9318 112.265C65.4202 111.161 65.8441 110.198 65.874 110.125C65.9436 109.956 66.1204 109.953 66.1204 110.122ZM65.1013 120.258C65.1804 120.496 63.8017 123.543 63.4815 123.839L63.2227 124.078L62.9146 123.754C62.6434 123.469 62.1385 122.397 61.5561 120.87L61.3716 120.387L62.2502 118.387C62.7334 117.286 63.1758 116.267 63.2334 116.122C63.326 115.888 63.436 116.101 64.1908 117.972C64.66 119.134 65.0697 120.163 65.1013 120.258ZM48.9058 117.78C49.2905 118.748 49.6858 119.736 49.7843 119.978L49.9633 120.418L49.3143 121.89C48.3556 124.063 48.1161 124.299 47.5755 123.599C47.3219 123.271 46.2181 120.698 46.2142 120.427C46.2115 120.244 48.059 116.016 48.1401 116.019C48.1766 116.021 48.5212 116.813 48.9058 117.78ZM54.1439 118.23L55.0245 120.44L54.3712 121.9C53.4002 124.071 53.1714 124.295 52.631 123.599C52.4031 123.305 51.2737 120.665 51.2731 120.425C51.2726 120.277 53.1367 116.017 53.201 116.019C53.2352 116.02 53.6595 117.015 54.1439 118.23ZM59.2076 118.211L60.0952 120.406L59.4466 121.871C58.4826 124.05 58.2296 124.299 57.689 123.599C57.3316 123.136 56.2923 120.494 56.3778 120.265C56.6132 119.636 58.2223 116.017 58.2663 116.017C58.2958 116.017 58.7194 117.004 59.2076 118.211ZM69.3482 118.183C69.8876 119.505 70.2047 120.422 70.1631 120.535C69.7721 121.58 68.9075 123.4 68.6616 123.693L68.3519 124.063L68.0012 123.729C67.7507 123.49 67.4752 122.966 67.0394 121.897L66.4287 120.399L67.3503 118.32C67.8575 117.176 68.272 116.191 68.272 116.129C68.272 115.71 68.5783 116.295 69.3482 118.183ZM48.8542 144.661C48.0313 144.796 46.8714 145.252 46.2161 145.698C44.9305 146.571 44.2851 147.737 44.196 149.345C44.1086 150.926 44.4991 152.082 45.443 153.036C46.185 153.786 47.08 154.227 49.5777 155.072C52.6827 156.123 53.4638 156.68 53.7538 158.052C53.9266 158.87 53.8184 159.588 53.4011 160.396C52.9971 161.177 52.3353 161.739 51.3804 162.111C50.5166 162.447 48.8044 162.449 47.8299 162.114C46.9785 161.821 46.2551 161.315 45.6973 160.622L45.2782 160.102L44.4582 160.634L43.6381 161.166L43.8519 161.46C44.5362 162.404 46.0192 163.312 47.4925 163.69C48.5867 163.969 50.5092 163.995 51.488 163.743C52.9602 163.363 54.3534 162.365 54.9725 161.248C55.721 159.897 55.7606 157.846 55.0662 156.393C54.7822 155.799 53.8562 154.961 53.0381 154.557C52.6293 154.355 51.7381 154.016 51.0577 153.803C47.6232 152.727 46.8552 152.305 46.2339 151.153C45.9871 150.695 45.9489 150.498 45.9481 149.674C45.9472 148.846 45.986 148.645 46.2473 148.122C46.9233 146.771 48.452 146.05 50.4307 146.153C51.5877 146.212 52.5466 146.625 53.3049 147.389L53.8253 147.914L54.5372 147.42C54.9288 147.149 55.2501 146.891 55.2515 146.849C55.2526 146.807 54.9806 146.508 54.6468 146.185C53.3183 144.902 51.0413 144.302 48.8542 144.661ZM90.0326 145.051L84.3036 145.079V154.272V163.465H90.2791H96.2554L96.2238 162.721L96.1922 161.978L91.135 161.955L86.0784 161.932L86.0502 158.313L86.022 154.693H90.5962H95.1698V153.953V153.214H90.5976H86.0247V149.885V146.556H90.92H95.8153V145.764C95.8153 145.328 95.8033 144.983 95.7885 144.996C95.7737 145.01 93.1833 145.035 90.0326 145.051ZM0.274794 145.152C0.274794 145.193 0.682458 146.298 1.18082 147.608C1.67918 148.919 2.91712 152.178 3.93191 154.852C4.94682 157.525 6.09771 160.557 6.48967 161.588L7.20226 163.465H8.08452C8.69101 163.465 8.98263 163.423 9.01804 163.332C9.46518 162.184 11.9456 155.771 12.3731 154.657C12.689 153.834 13.5385 151.639 14.261 149.78C14.9833 147.919 15.6884 146.101 15.8277 145.737L16.081 145.077H15.1175C14.5099 145.077 14.154 145.119 14.154 145.189C14.154 145.251 13.8428 146.118 13.4626 147.118C12.0972 150.705 8.85815 159.309 8.53206 160.214C8.34907 160.724 8.15929 161.139 8.11031 161.139C8.06134 161.139 8.0213 161.09 8.0213 161.031C8.0213 160.971 7.21804 158.771 6.23629 156.143C4.48859 151.464 2.29933 145.629 2.15397 145.262C2.09232 145.106 1.93825 145.077 1.1778 145.077C0.681161 145.077 0.274794 145.111 0.274794 145.152ZM23.9448 154.27V163.465H29.9208H35.8968L35.8652 162.721L35.8335 161.978L30.7768 161.955L25.72 161.932L25.6917 158.313L25.6634 154.693H30.2375H34.8115V153.927L34.8115 153.161L30.2389 153.19L25.6662 153.218V149.887V146.556H30.5616H35.457V145.817V145.077H29.7009H23.9448V154.27ZM64.3989 154.263V163.465H65.2597H66.1204V159.078V154.693H68.6851C70.8691 154.693 71.3709 154.663 72.0642 154.489C73.9338 154.019 75.0436 153.097 75.6059 151.548C75.9196 150.682 75.9176 149.066 75.6019 148.204C75.1182 146.884 74.1105 145.979 72.5103 145.426L71.6611 145.133L68.0301 145.097L64.3989 145.062V154.263ZM104.692 154.27V163.465H105.579H106.467V159.078V154.693H108.077H109.687L111.397 157.52C112.337 159.075 113.529 161.048 114.045 161.905L114.984 163.465H115.944C116.472 163.465 116.903 163.442 116.903 163.413C116.903 163.358 112.902 156.843 112.044 155.5C111.752 155.043 111.527 154.659 111.545 154.648C111.563 154.637 111.946 154.545 112.396 154.444C114.705 153.925 116.025 152.619 116.249 150.631C116.376 149.497 116.221 148.427 115.815 147.641C115.38 146.8 114.739 146.218 113.733 145.748C112.506 145.176 111.717 145.085 107.973 145.08L104.692 145.077V154.27ZM70.9618 146.666C71.8909 146.809 72.904 147.303 73.3749 147.844C74.3832 149.001 74.3362 151.034 73.2761 152.081C72.3491 152.997 71.209 153.242 68.1107 153.192L66.1742 153.161L66.1458 149.859L66.1173 146.556L68.19 146.557C69.33 146.558 70.5775 146.607 70.9618 146.666ZM111.219 146.662C113.402 146.973 114.536 148.08 114.536 149.902C114.536 151.02 114.065 151.892 113.156 152.459C112.229 153.037 111.711 153.127 108.968 153.186L106.467 153.241V149.898V146.556L108.484 146.558C109.594 146.56 110.824 146.607 111.219 146.662Z" fill="black"/>
</svg>
