<svg width="1440" height="618" viewBox="0 0 1440 618" fill="none" xmlns="http://www.w3.org/2000/svg">
<path d="M1353.41 189.54C1353.33 190.468 1352.22 191.719 1351.56 192.303C1351.54 192.314 1351.53 192.325 1351.52 192.336C1351.36 192.479 1351.22 192.621 1351.05 192.783C1350.65 193.162 1350.11 193.715 1348.71 194.434C1348.36 194.705 1347.98 194.958 1347.6 195.192C1345.03 196.763 1341.94 197.478 1339 197.282C1337.19 197.17 1335.42 196.73 1333.79 196.008C1333.73 195.991 1333.67 195.973 1333.62 195.954C1332.5 195.608 1331.17 194.973 1330.49 194.357C1329.61 193.582 1329.13 192.955 1328.76 192.436C1326.31 189.823 1324.86 186.47 1324.5 183.081C1324.43 182.387 1324.39 181.694 1324.4 181C1324.41 180.629 1324.42 180.264 1324.45 179.893C1324.52 178.918 1324.68 177.945 1324.93 176.993C1325.01 176.42 1325.09 175.867 1325.2 175.356C1325.36 174.637 1325.55 174 1325.79 173.51C1326.35 172.321 1327.39 171.222 1328.22 170.528C1328.36 170.413 1328.49 170.307 1328.61 170.21C1329.19 169.576 1329.83 168.986 1330.52 168.45C1330.58 168.444 1330.65 168.44 1330.72 168.436C1331.57 168.395 1332.3 167.933 1333.59 167.402C1334.15 167.175 1334.82 166.945 1335.63 166.784C1336.15 166.683 1336.45 166.807 1336.69 166.908C1336.76 166.938 1336.82 166.967 1336.89 166.988C1337.11 167.062 1337.3 166.921 1337.55 166.761C1337.86 166.554 1338.27 166.311 1338.82 166.494C1338.88 166.515 1338.94 166.535 1339 166.554C1340.56 167.084 1341.26 166.855 1341.88 166.661C1342.07 166.605 1342.24 166.558 1342.4 166.55C1342.95 166.522 1343.63 166.88 1344.08 167.263C1344.44 167.561 1345.29 167.752 1345.98 167.897C1346.24 167.95 1346.54 168.118 1346.89 168.332C1347.25 168.554 1347.65 168.825 1348.12 169.076C1349.3 169.72 1349.88 170.186 1350.33 170.55C1350.46 170.656 1350.58 170.757 1350.7 170.859C1351.08 171.182 1351.51 171.625 1351.91 172.105C1352.39 172.677 1352.84 173.303 1353.19 173.781C1353.79 175.181 1354.15 176.665 1354.3 178.147C1354.38 178.912 1354.08 179.685 1353.5 180.218C1352.91 180.751 1352.11 181.002 1351.29 181C1350.47 180.998 1349.67 180.767 1349.05 180.455C1348.42 180.134 1348.01 179.761 1347.87 179.341C1347.58 178.491 1347.16 177.709 1346.68 177.003C1346.08 176.14 1345.38 175.388 1344.63 174.711C1344.1 174.237 1343.52 173.814 1342.9 173.455C1342.84 173.418 1342.78 173.381 1342.71 173.345C1342.08 173.263 1341.48 173.257 1341.08 173.219C1340.75 173.188 1340.54 173.038 1340.35 172.912C1340.22 172.825 1340.1 172.752 1339.96 172.746C1339.89 172.743 1339.8 172.745 1339.68 172.751C1339.49 172.759 1339.26 172.777 1339 172.794C1338.59 172.819 1338.13 172.844 1337.67 172.796C1337.33 172.761 1336.92 172.673 1336.51 172.623C1335.93 172.547 1335.35 172.556 1335.13 172.732C1334.76 173.036 1334.26 173.209 1333.81 173.408C1333.39 173.595 1333.02 173.801 1332.94 174.055C1332.84 174.358 1332.64 174.46 1332.33 174.641C1332.11 174.767 1331.85 174.933 1331.57 175.234C1331.25 175.581 1330.97 175.799 1330.74 175.996C1330.41 176.273 1330.17 176.513 1330.15 177.012C1330.13 177.565 1330.09 178.087 1329.92 178.461C1329.84 178.633 1329.79 178.841 1329.76 179.06C1329.71 179.349 1329.67 179.653 1329.56 179.927C1329.47 180.152 1329.3 180.334 1329.15 180.506C1329.1 180.559 1329.06 180.611 1329.02 180.662C1329.02 180.774 1329.02 180.887 1329.02 181C1329.02 181.085 1329.02 181.169 1329.03 181.253C1329.05 181.284 1329.08 181.316 1329.11 181.349C1329.27 181.517 1329.46 181.716 1329.57 181.956C1329.76 182.338 1329.72 182.684 1329.71 183.068C1329.7 183.365 1329.7 183.682 1329.84 184.005C1329.93 184.225 1330.09 184.456 1330.25 184.674C1330.49 185 1330.74 185.292 1330.82 185.553C1330.85 185.65 1330.81 185.775 1330.76 185.9C1330.76 185.901 1330.76 185.902 1330.76 185.902C1330.76 185.911 1330.76 185.919 1330.76 185.928C1331.16 186.458 1331.63 186.936 1332.13 187.351C1332.19 187.374 1332.25 187.398 1332.3 187.421C1332.58 187.533 1332.85 187.625 1333.09 187.609C1333.34 187.593 1333.75 187.797 1334.18 187.961C1334.47 188.07 1334.76 188.163 1335.03 188.191C1335.18 188.208 1335.25 188.36 1335.33 188.518C1335.4 188.665 1335.48 188.816 1335.63 188.853C1335.71 188.871 1335.8 188.862 1335.89 188.851C1335.98 188.841 1336.07 188.83 1336.15 188.833C1336.23 188.836 1336.37 188.947 1336.56 189.079C1336.68 189.161 1336.82 189.251 1336.97 189.33C1337.41 189.37 1337.85 189.378 1338.28 189.357C1338.38 189.274 1338.47 189.162 1338.53 189.014C1338.58 188.908 1338.62 188.78 1338.67 188.65C1338.72 188.472 1338.78 188.287 1338.84 188.14C1338.9 188.025 1338.96 187.979 1338.99 188.027C1339 188.03 1339 188.032 1339 188.035C1339.02 188.058 1339.03 188.096 1339.04 188.13C1339.06 188.174 1339.07 188.213 1339.09 188.212C1339.1 188.211 1339.11 188.18 1339.12 188.142C1339.15 188.081 1339.18 188.003 1339.22 187.999C1339.39 187.984 1339.59 187.996 1339.78 187.999C1340 188.003 1340.21 187.996 1340.37 187.941C1340.54 187.881 1340.82 187.935 1341.12 187.965C1341.32 187.987 1341.53 187.999 1341.7 187.968C1341.86 187.939 1342 187.812 1342.12 187.687C1342.26 187.536 1342.39 187.387 1342.58 187.398C1342.62 187.4 1342.72 187.489 1342.84 187.598C1342.93 187.675 1343.03 187.761 1343.13 187.835C1343.32 187.72 1343.51 187.601 1343.7 187.478C1343.69 187.46 1343.69 187.441 1343.69 187.422C1343.69 187.422 1343.69 187.421 1343.69 187.421C1343.6 186.988 1343.43 186.436 1343.88 186.47C1344 186.477 1344.14 186.553 1344.27 186.62C1344.39 186.686 1344.51 186.742 1344.57 186.715C1344.65 186.684 1344.65 186.563 1344.65 186.433C1344.65 186.251 1344.64 186.053 1344.83 186.031C1344.85 186.029 1344.86 186.028 1344.88 186.026C1345.02 186.007 1345.22 185.975 1345.54 186.014C1345.9 185.672 1346.24 185.301 1346.55 184.899C1347.08 184.229 1347.54 183.468 1347.87 182.627C1348.04 182.219 1348.45 181.851 1349.08 181.536C1349.7 181.229 1350.48 181.002 1351.29 181C1352.1 180.998 1352.88 181.244 1353.47 181.765C1354.05 182.287 1354.36 183.043 1354.31 183.797C1354.23 185.021 1354.01 186.256 1353.62 187.456C1353.61 187.522 1353.6 187.589 1353.58 187.655C1353.48 188.147 1353.48 188.658 1353.44 189.18C1353.43 189.3 1353.42 189.42 1353.41 189.54Z" fill="#574BF3"/>
<path d="M540 542.499C559.833 502.999 620.641 445.992 701 432.499C903.5 398.499 931.5 542.499 1018.5 464.5C1077.77 411.364 1018 195.5 1175 231.5C1300.6 260.3 1341 322.5 1329 398.499C1307 441.5 1249.7 457.699 1232.5 398.499C1207.37 312 1442.5 351 1368 231.5C1311.36 140.652 1224 12 1406 28.4987C1520.5 38.8784 1616 24.1662 1664 3" stroke="#574BF3" stroke-width="6" stroke-dasharray="20 20"/>
<circle cx="517.5" cy="568.5" r="13.5" fill="#574BF3"/>
<path d="M533.204 577.805C533.088 578.798 531.893 580.165 531.17 580.807C531.157 580.819 531.144 580.831 531.131 580.843C530.962 581 530.809 581.154 530.628 581.332C530.191 581.745 529.6 582.347 528.093 583.15C527.702 583.445 527.296 583.72 526.876 583.975C524.07 585.688 520.714 586.479 517.5 586.282C515.525 586.17 513.581 585.702 511.796 584.926C511.734 584.906 511.672 584.887 511.609 584.866C510.388 584.483 508.934 583.786 508.179 583.122C507.215 582.288 506.677 581.613 506.262 581.053C503.545 578.209 501.923 574.53 501.516 570.795C501.43 570.029 501.393 569.266 501.402 568.5C501.407 568.09 501.424 567.688 501.455 567.279C501.536 566.203 501.713 565.131 501.987 564.082C502.078 563.453 502.186 562.847 502.314 562.288C502.495 561.502 502.719 560.807 502.98 560.271C503.603 558.969 504.733 557.754 505.645 556.983C505.794 556.855 505.936 556.737 506.068 556.63C506.713 555.936 507.417 555.291 508.176 554.707C508.247 554.698 508.319 554.69 508.392 554.683C509.305 554.603 510.115 554.092 511.536 553.508C512.155 553.258 512.889 553.004 513.781 552.825C514.358 552.711 514.684 552.831 514.944 552.928C515.02 552.957 515.092 552.984 515.162 553.005C515.403 553.076 515.622 552.932 515.896 552.768C516.244 552.558 516.697 552.312 517.298 552.494C517.367 552.515 517.434 552.535 517.5 552.554C519.231 553.086 520 552.874 520.678 552.69C520.88 552.638 521.067 552.594 521.249 552.59C521.842 552.574 522.602 552.953 523.099 553.356C523.498 553.669 524.433 553.895 525.183 554.073C525.466 554.138 525.801 554.322 526.182 554.558C526.578 554.803 527.022 555.101 527.531 555.384C528.819 556.11 529.44 556.628 529.937 557.033C530.078 557.151 530.207 557.263 530.336 557.377C530.742 557.735 531.207 558.225 531.643 558.754C532.168 559.385 532.649 560.074 533.024 560.601C533.688 562.128 534.102 563.749 534.273 565.371C534.364 566.209 534.073 567.052 533.494 567.637C532.913 568.222 532.111 568.502 531.289 568.5C530.465 568.498 529.675 568.238 529.045 567.873C528.416 567.501 527.999 567.058 527.841 566.565C527.523 565.57 527.062 564.647 526.507 563.809C525.829 562.787 525.016 561.891 524.126 561.093C523.503 560.535 522.822 560.04 522.094 559.622C522.019 559.579 521.943 559.537 521.867 559.496C521.143 559.367 520.442 559.326 519.97 559.27C519.58 559.223 519.326 559.064 519.095 558.932C518.936 558.841 518.793 558.765 518.638 558.756C518.554 558.751 518.44 558.752 518.303 558.755C518.084 558.762 517.809 558.777 517.5 558.794C517.016 558.819 516.469 558.85 515.93 558.815C515.537 558.789 515.06 558.716 514.587 558.684C513.913 558.635 513.251 558.679 512.998 558.873C512.557 559.21 511.975 559.426 511.464 559.67C510.978 559.899 510.563 560.147 510.454 560.425C510.325 560.757 510.089 560.885 509.739 561.107C509.498 561.261 509.202 561.462 508.885 561.814C508.521 562.22 508.215 562.483 507.956 562.719C507.597 563.049 507.327 563.332 507.279 563.895C507.228 564.52 507.162 565.121 506.972 565.557C506.885 565.758 506.832 565.998 506.787 566.252C506.728 566.587 506.683 566.94 506.571 567.258C506.479 567.52 506.304 567.732 506.152 567.931C506.105 567.993 506.06 568.053 506.021 568.111C506.018 568.24 506.017 568.37 506.019 568.5C506.021 568.597 506.024 568.694 506.028 568.79C506.055 568.826 506.084 568.864 506.115 568.902C506.27 569.096 506.463 569.327 506.582 569.607C506.77 570.052 506.746 570.453 506.746 570.894C506.746 571.235 506.762 571.598 506.913 571.973C507.017 572.228 507.186 572.499 507.364 572.755C507.629 573.138 507.913 573.485 508.01 573.783C508.047 573.894 508.01 574.03 507.976 574.168C507.975 574.168 507.975 574.169 507.975 574.17C507.972 574.179 507.97 574.188 507.968 574.198C508.428 574.817 508.956 575.378 509.532 575.869C509.595 575.9 509.658 575.93 509.721 575.959C510.029 576.103 510.331 576.224 510.588 576.227C510.865 576.231 511.325 576.485 511.827 576.695C512.155 576.833 512.499 576.955 512.799 577.004C512.974 577.033 513.064 577.197 513.166 577.366C513.261 577.523 513.366 577.684 513.539 577.731C513.625 577.755 513.73 577.751 513.84 577.746C513.938 577.741 514.04 577.735 514.14 577.743C514.233 577.751 514.403 577.872 514.631 578.015C514.772 578.104 514.938 578.202 515.117 578.288C515.633 578.346 516.146 578.366 516.657 578.351C516.77 578.27 516.869 578.158 516.948 578.012C517.005 577.906 517.053 577.779 517.101 577.648C517.166 577.471 517.23 577.286 517.312 577.14C517.375 577.025 517.446 576.979 517.494 577.027C517.496 577.03 517.498 577.032 517.5 577.035C517.519 577.058 517.535 577.096 517.549 577.13C517.568 577.174 517.584 577.213 517.604 577.212C517.618 577.211 517.633 577.179 517.65 577.141C517.678 577.081 517.713 577.003 517.769 576.998C517.976 576.982 518.215 576.991 518.447 576.99C518.707 576.989 518.961 576.975 519.154 576.914C519.369 576.846 519.704 576.887 520.052 576.901C520.294 576.912 520.54 576.91 520.74 576.867C520.936 576.826 521.102 576.686 521.253 576.546C521.436 576.378 521.598 576.212 521.815 576.206C521.859 576.205 521.962 576.29 522.095 576.394C522.19 576.467 522.299 576.55 522.411 576.618C522.637 576.482 522.859 576.34 523.078 576.192C523.076 576.173 523.073 576.154 523.07 576.134C523.07 576.133 523.07 576.133 523.07 576.132C523.014 575.679 522.879 575.099 523.378 575.089C523.507 575.085 523.656 575.154 523.793 575.215C523.927 575.274 524.048 575.325 524.121 575.289C524.204 575.248 524.22 575.116 524.232 574.973C524.25 574.772 524.258 574.555 524.469 574.511C524.484 574.508 524.499 574.505 524.516 574.501C524.668 574.467 524.893 574.412 525.232 574.427C525.643 574.015 526.031 573.569 526.387 573.087C526.981 572.286 527.485 571.384 527.848 570.397C528.026 569.918 528.45 569.482 529.077 569.116C529.704 568.758 530.481 568.502 531.289 568.5C532.096 568.498 532.883 568.773 533.463 569.345C534.042 569.917 534.346 570.742 534.285 571.567C534.187 572.907 533.926 574.255 533.493 575.561C533.479 575.634 533.464 575.706 533.448 575.778C533.329 576.311 533.303 576.86 533.247 577.419C533.235 577.547 533.221 577.676 533.204 577.805Z" fill="#574BF3"/>
<path d="M486 589.998C476 603.331 448.6 625.998 419 609.998C382 589.998 380 492.998 260.5 500.998C164.9 507.398 97 425.499 60 416.499C16 410.998 7.5 433.166 -0.5 441.499" stroke="#574BF3" stroke-width="6" stroke-dasharray="20 20"/>
</svg>
